2,0, Control_c,0,7,101
2,0, Control_c,0,10,64
2,0, Control_c,0,7,110
2,0, Control_c,0,7,102
2,3, Control_c,0,101,0
2,3, Control_c,0,100,0
2,3, Control_c,0,101,0
2,3, Control_c,0,100,0
2,4, Control_c,0,6,12
2,4, Control_c,0,6,12
2,5, Control_c,0,38,0
2,5, Control_c,0,38,0
2,10, Control_c,0,7,110
2,10, Note_on_c,0,76,69
2,10, Control_c,0,7,102
2,10, Note_on_c,0,52,57
2,546, Note_on_c,0,64,52
2,576, Note_off_c,0,52,0
2,1053, Note_off_c,0,76,0
2,1054, Note_on_c,0,71,65
2,1054, Note_on_c,0,52,53
2,1084, Note_off_c,0,64,0
2,1528, Note_off_c,0,71,0
2,1559, Note_on_c,0,72,64
2,1559, Note_on_c,0,64,52
2,1589, Note_off_c,0,52,0
2,2038, Note_off_c,0,72,0
2,2069, Note_on_c,0,74,67
2,2069, Note_on_c,0,52,55
2,2099, Note_off_c,0,64,0
2,2579, Note_on_c,0,64,52
2,2609, Note_off_c,0,52,0
2,3083, Note_off_c,0,74,0
2,3084, Note_on_c,0,72,65
2,3084, Note_on_c,0,52,53
2,3114, Note_off_c,0,64,0
2,3558, Note_off_c,0,72,0
2,3589, Note_on_c,0,71,64
2,3589, Note_on_c,0,64,52
2,3619, Note_off_c,0,52,0
2,4065, Note_off_c,0,71,0
2,4100, Note_on_c,0,69,69
2,4100, Note_on_c,0,45,57
2,4126, Note_off_c,0,64,0
2,4642, Note_on_c,0,57,52
2,4672, Note_off_c,0,45,0
2,5149, Note_off_c,0,69,0
2,5150, Note_on_c,0,69,65
2,5150, Note_on_c,0,45,53
2,5180, Note_off_c,0,57,0
2,5624, Note_off_c,0,69,0
2,5655, Note_on_c,0,72,64
2,5655, Note_on_c,0,57,52
2,5685, Note_off_c,0,45,0
2,6134, Note_off_c,0,72,0
2,6165, Note_on_c,0,76,67
2,6165, Note_on_c,0,45,55
2,6195, Note_off_c,0,57,0
2,6675, Note_on_c,0,57,52
2,6705, Note_off_c,0,45,0
2,7179, Note_off_c,0,76,0
2,7180, Note_on_c,0,74,65
2,7180, Note_on_c,0,45,53
2,7210, Note_off_c,0,57,0
2,7654, Note_off_c,0,74,0
2,7685, Note_on_c,0,72,64
2,7685, Note_on_c,0,57,52
2,7715, Note_off_c,0,45,0
2,8161, Note_off_c,0,72,0
2,8196, Note_on_c,0,71,69
2,8196, Note_on_c,0,44,57
2,8222, Note_off_c,0,57,0
2,8738, Note_on_c,0,56,52
2,8768, Note_off_c,0,44,0
2,9245, Note_off_c,0,71,0
2,9246, Note_on_c,0,71,65
2,9246, Note_on_c,0,44,53
2,9276, Note_off_c,0,56,0
2,9720, Note_off_c,0,71,0
2,9751, Note_on_c,0,72,64
2,9751, Note_on_c,0,56,52
2,9781, Note_off_c,0,44,0
2,10230, Note_off_c,0,72,0
2,10261, Note_on_c,0,74,67
2,10261, Note_on_c,0,44,55
2,10291, Note_off_c,0,56,0
2,10771, Note_on_c,0,56,52
2,10801, Note_off_c,0,44,0
2,11275, Note_off_c,0,74,0
2,11276, Note_on_c,0,76,65
2,11276, Note_on_c,0,44,53
2,11306, Note_off_c,0,56,0
2,11781, Note_on_c,0,56,52
2,11811, Note_off_c,0,44,0
2,12287, Note_off_c,0,76,0
2,12292, Note_on_c,0,72,69
2,12292, Note_on_c,0,45,57
2,12318, Note_off_c,0,56,0
2,12834, Note_on_c,0,57,52
2,12864, Note_off_c,0,45,0
2,13341, Note_off_c,0,72,0
2,13342, Note_on_c,0,69,65
2,13342, Note_on_c,0,45,53
2,13372, Note_off_c,0,57,0
2,13847, Note_on_c,0,57,52
2,13877, Note_off_c,0,45,0
2,14356, Note_off_c,0,69,0
2,14357, Note_on_c,0,69,67
2,14357, Note_on_c,0,45,55
2,14387, Note_off_c,0,57,0
2,14867, Note_on_c,0,57,52
2,14897, Note_off_c,0,45,0
2,15371, Note_off_c,0,69,0
2,15372, Note_on_c,0,47,45
2,15372, Note_on_c,0,59,59
2,15402, Note_off_c,0,57,0
2,15585, Control_c,0,7,110
2,15814, Note_off_c,0,59,0
2,15877, Note_on_c,0,48,44
2,15877, Note_on_c,0,60,58
2,15907, Note_off_c,0,47,0
2,16321, Note_off_c,0,60,0
2,16388, Note_on_c,0,50,57
2,16414, Note_off_c,0,48,0
2,16930, Note_on_c,0,62,52
2,16960, Note_off_c,0,50,0
2,17438, Note_on_c,0,74,65
2,17438, Note_on_c,0,50,53
2,17468, Note_off_c,0,62,0
2,17943, Note_on_c,0,62,52
2,17973, Note_off_c,0,50,0
2,18452, Note_off_c,0,74,0
2,18453, Note_on_c,0,77,67
2,18453, Note_on_c,0,50,55
2,18483, Note_off_c,0,62,0
2,18932, Note_off_c,0,77,0
2,18963, Note_on_c,0,81,64
2,18963, Note_on_c,0,62,52
2,18993, Note_off_c,0,50,0
2,19468, Note_on_c,0,50,53
2,19498, Note_off_c,0,62,0
2,19942, Note_off_c,0,81,0
2,19973, Note_on_c,0,62,52
2,20003, Note_off_c,0,50,0
2,20484, Note_on_c,0,79,69
2,20484, Note_on_c,0,50,57
2,20510, Note_off_c,0,62,0
2,20995, Note_off_c,0,79,0
2,21026, Note_on_c,0,77,64
2,21026, Note_on_c,0,62,52
2,21056, Note_off_c,0,50,0
2,21503, Note_off_c,0,77,0
2,21534, Note_on_c,0,76,65
2,21534, Note_on_c,0,48,53
2,21564, Note_off_c,0,62,0
2,22039, Note_on_c,0,60,52
2,22069, Note_off_c,0,48,0
2,22549, Note_on_c,0,48,55
2,22579, Note_off_c,0,60,0
2,23059, Note_on_c,0,60,52
2,23089, Note_off_c,0,48,0
2,23563, Note_off_c,0,76,0
2,23564, Note_on_c,0,72,65
2,23564, Note_on_c,0,48,53
2,23594, Note_off_c,0,60,0
2,24038, Note_off_c,0,72,0
2,24069, Note_on_c,0,76,64
2,24069, Note_on_c,0,60,52
2,24099, Note_off_c,0,48,0
2,24580, Note_on_c,0,48,57
2,24606, Note_off_c,0,60,0
2,25122, Note_on_c,0,60,52
2,25152, Note_off_c,0,48,0
2,25629, Note_off_c,0,76,0
2,25630, Note_on_c,0,74,65
2,25630, Note_on_c,0,48,53
2,25660, Note_off_c,0,60,0
2,26112, Note_off_c,0,74,0
2,26135, Note_on_c,0,72,64
2,26135, Note_on_c,0,60,52
2,26165, Note_off_c,0,48,0
2,26614, Note_off_c,0,72,0
2,26645, Note_on_c,0,71,67
2,26645, Note_on_c,0,44,55
2,26675, Note_off_c,0,60,0
2,27155, Note_on_c,0,56,52
2,27185, Note_off_c,0,44,0
2,27660, Note_on_c,0,44,53
2,27690, Note_off_c,0,56,0
2,28160, Note_off_c,0,71,0
2,28165, Note_on_c,0,72,64
2,28165, Note_on_c,0,56,52
2,28195, Note_off_c,0,44,0
2,28641, Note_off_c,0,72,0
2,28676, Note_on_c,0,74,69
2,28676, Note_on_c,0,44,57
2,28702, Note_off_c,0,56,0
2,29218, Note_on_c,0,56,52
2,29248, Note_off_c,0,44,0
2,29695, Note_off_c,0,74,0
2,29726, Note_on_c,0,76,65
2,29726, Note_on_c,0,44,53
2,29756, Note_off_c,0,56,0
2,30231, Note_on_c,0,56,52
2,30261, Note_off_c,0,44,0
2,30740, Note_off_c,0,76,0
2,30741, Note_on_c,0,72,67
2,30741, Note_on_c,0,45,55
2,30771, Note_off_c,0,56,0
2,31251, Note_on_c,0,57,52
2,31281, Note_off_c,0,45,0
2,31755, Note_off_c,0,72,0
2,31756, Note_on_c,0,69,65
2,31756, Note_on_c,0,45,53
2,31786, Note_off_c,0,57,0
2,32261, Note_on_c,0,57,52
2,32291, Note_off_c,0,45,0
2,32767, Note_off_c,0,69,0
2,32772, Note_on_c,0,69,69
2,32772, Note_on_c,0,45,57
2,32798, Note_off_c,0,57,0
2,33314, Note_on_c,0,57,52
2,33344, Note_off_c,0,45,0
2,33821, Note_off_c,0,69,0
2,33822, Note_on_c,0,45,53
2,33852, Note_off_c,0,57,0
2,34327, Note_on_c,0,57,52
2,34357, Note_off_c,0,45,0
2,34867, Note_off_c,0,57,0
2,35041, Control_c,0,7,102
2,36868, Note_on_c,0,76,69
2,36868, Note_on_c,0,45,57
2,37410, Note_on_c,0,57,52
2,37440, Note_off_c,0,45,0
2,37918, Note_on_c,0,45,53
2,37948, Note_off_c,0,57,0
2,38423, Note_on_c,0,57,52
2,38453, Note_off_c,0,45,0
2,38932, Note_off_c,0,76,0
2,38933, Note_on_c,0,72,67
2,38933, Note_on_c,0,45,55
2,38963, Note_off_c,0,57,0
2,39443, Note_on_c,0,57,52
2,39473, Note_off_c,0,45,0
2,39948, Note_on_c,0,45,53
2,39978, Note_off_c,0,57,0
2,40453, Note_on_c,0,57,52
2,40483, Note_off_c,0,45,0
2,40959, Note_off_c,0,72,0
2,40964, Note_on_c,0,74,69
2,40964, Note_on_c,0,44,57
2,40990, Note_off_c,0,57,0
2,41506, Note_on_c,0,56,52
2,41536, Note_off_c,0,44,0
2,42014, Note_on_c,0,44,53
2,42044, Note_off_c,0,56,0
2,42519, Note_on_c,0,56,52
2,42549, Note_off_c,0,44,0
2,43028, Note_off_c,0,74,0
2,43029, Note_on_c,0,71,67
2,43029, Note_on_c,0,44,55
2,43059, Note_off_c,0,56,0
2,43539, Note_on_c,0,56,52
2,43569, Note_off_c,0,44,0
2,44044, Note_on_c,0,44,53
2,44074, Note_off_c,0,56,0
2,44549, Note_on_c,0,56,52
2,44579, Note_off_c,0,44,0
2,45055, Note_off_c,0,71,0
2,45060, Note_on_c,0,72,69
2,45060, Note_on_c,0,45,57
2,45086, Note_off_c,0,56,0
2,45602, Note_on_c,0,57,52
2,45632, Note_off_c,0,45,0
2,46110, Note_on_c,0,45,53
2,46140, Note_off_c,0,57,0
2,46615, Note_on_c,0,57,52
2,46645, Note_off_c,0,45,0
2,47124, Note_off_c,0,72,0
2,47125, Note_on_c,0,69,67
2,47125, Note_on_c,0,45,55
2,47155, Note_off_c,0,57,0
2,47635, Note_on_c,0,57,52
2,47665, Note_off_c,0,45,0
2,48140, Note_on_c,0,45,53
2,48170, Note_off_c,0,57,0
2,48645, Note_on_c,0,57,52
2,48675, Note_off_c,0,45,0
2,49151, Note_off_c,0,69,0
2,49156, Note_on_c,0,68,69
2,49156, Note_on_c,0,44,57
2,49182, Note_off_c,0,57,0
2,49698, Note_on_c,0,56,52
2,49728, Note_off_c,0,44,0
2,50206, Note_on_c,0,44,53
2,50236, Note_off_c,0,56,0
2,50711, Note_on_c,0,56,52
2,50741, Note_off_c,0,44,0
2,51220, Note_off_c,0,68,0
2,51221, Note_on_c,0,71,67
2,51221, Note_on_c,0,44,55
2,51251, Note_off_c,0,56,0
2,51731, Note_on_c,0,56,52
2,51761, Note_off_c,0,44,0
2,52236, Note_on_c,0,44,53
2,52266, Note_off_c,0,56,0
2,52741, Note_on_c,0,56,52
2,52771, Note_off_c,0,44,0
2,53247, Note_off_c,0,71,0
2,53252, Note_on_c,0,76,69
2,53252, Note_on_c,0,45,57
2,53278, Note_off_c,0,56,0
2,53794, Note_on_c,0,57,52
2,53824, Note_off_c,0,45,0
2,54302, Note_on_c,0,45,53
2,54332, Note_off_c,0,57,0
2,54807, Note_on_c,0,57,52
2,54837, Note_off_c,0,45,0
2,55316, Note_off_c,0,76,0
2,55317, Note_on_c,0,72,67
2,55317, Note_on_c,0,45,55
2,55347, Note_off_c,0,57,0
2,55827, Note_on_c,0,57,52
2,55857, Note_off_c,0,45,0
2,56332, Note_on_c,0,45,53
2,56362, Note_off_c,0,57,0
2,56837, Note_on_c,0,57,52
2,56867, Note_off_c,0,45,0
2,57343, Note_off_c,0,72,0
2,57348, Note_on_c,0,74,69
2,57348, Note_on_c,0,44,57
2,57374, Note_off_c,0,57,0
2,57890, Note_on_c,0,56,52
2,57920, Note_off_c,0,44,0
2,58398, Note_on_c,0,44,53
2,58428, Note_off_c,0,56,0
2,58903, Note_on_c,0,56,52
2,58933, Note_off_c,0,44,0
2,59412, Note_off_c,0,74,0
2,59413, Note_on_c,0,71,67
2,59413, Note_on_c,0,44,55
2,59443, Note_off_c,0,56,0
2,59923, Note_on_c,0,56,52
2,59953, Note_off_c,0,44,0
2,60428, Note_on_c,0,44,53
2,60458, Note_off_c,0,56,0
2,60933, Note_on_c,0,56,52
2,60963, Note_off_c,0,44,0
2,61439, Note_off_c,0,71,0
2,61444, Note_on_c,0,72,69
2,61444, Note_on_c,0,45,57
2,61470, Note_off_c,0,56,0
2,61986, Note_on_c,0,57,52
2,62016, Note_off_c,0,45,0
2,62493, Note_off_c,0,72,0
2,62494, Note_on_c,0,76,65
2,62494, Note_on_c,0,45,53
2,62524, Note_off_c,0,57,0
2,62999, Note_on_c,0,57,52
2,63029, Note_off_c,0,45,0
2,63508, Note_off_c,0,76,0
2,63509, Note_on_c,0,81,67
2,63509, Note_on_c,0,45,55
2,63539, Note_off_c,0,57,0
2,64019, Note_on_c,0,57,52
2,64049, Note_off_c,0,45,0
2,64524, Note_on_c,0,45,53
2,64554, Note_off_c,0,57,0
2,65029, Note_on_c,0,57,52
2,65059, Note_off_c,0,45,0
2,65535, Note_off_c,0,81,0
2,65540, Note_on_c,0,80,64
2,65540, Note_on_c,0,44,57
2,65566, Note_off_c,0,57,0
2,66082, Note_on_c,0,56,52
2,66112, Note_off_c,0,44,0
2,66590, Note_on_c,0,44,53
2,66620, Note_off_c,0,56,0
2,67095, Note_on_c,0,56,52
2,67125, Note_off_c,0,44,0
2,67605, Note_on_c,0,44,55
2,67635, Note_off_c,0,56,0
2,68115, Note_on_c,0,56,52
2,68145, Note_off_c,0,44,0
2,68620, Note_on_c,0,44,53
2,68650, Note_off_c,0,56,0
2,69125, Note_on_c,0,56,52
2,69155, Note_off_c,0,44,0
2,69631, Note_off_c,0,80,0
2,69662, Note_off_c,0,56,0
2,69857, Control_c,0,7,110
2,69857, Control_c,0,7,102
2,122881, End_track,,,
0,0, End_of_file,,,
