0, 0, Header, 1, 4, 96
1, 0, Start_track
1, 0, Time_signature, 4, 2, 24, 8
1, 0, End_track
2, 0, Start_track
2, 0, Tempo, 331492
2, 0, Tempo, 331492
2, 0, Tempo, 331492
2, 26496, Tempo, 588235
2, 28296, Tempo, 545455
2, 28608, Tempo, 382166
2, 36624, Tempo, 379747
2, 43728, Tempo, 382166
2, 47232, Tempo, 588235
2, 48000, Tempo, 375000
2, 70656, Tempo, 454545
2, 89856, Tempo, 337079
2, 115200, Tempo, 416667
2, 135360, Tempo, 413793
2, 156672, Tempo, 331492
2, 157056, Tempo, 331492
2, 157056, End_track
3, 0, Start_track
3, 0, Title_t, "CFX Concert Grand"
3, 0, Control_c, 0, 10, 64
3, 0, Control_c, 0, 7, 100
3, 0, Pitch_bend_c, 0, 8192
3, 0, Control_c, 0, 101, 0
3, 0, Control_c, 0, 100, 0
3, 0, Control_c, 0, 6, 12
3, 0, Control_c, 0, 10, 64
3, 0, Control_c, 0, 7, 100
3, 0, Pitch_bend_c, 0, 8192
3, 0, Program_c, 0, 0
3, 0, Control_c, 0, 10, 64
3, 0, Control_c, 0, 7, 100
3, 0, Pitch_bend_c, 0, 8192
3, 0, Control_c, 0, 101, 0
3, 0, Control_c, 0, 100, 0
3, 0, Control_c, 0, 6, 12
3, 0, Control_c, 0, 10, 64
3, 0, Control_c, 0, 7, 100
3, 0, Pitch_bend_c, 0, 8192
3, 0, Program_c, 0, 0
3, 0, Control_c, 0, 10, 64
3, 0, Control_c, 0, 7, 100
3, 0, Pitch_bend_c, 0, 8192
3, 0, Note_on_c, 0, 73, 111
3, 0, Note_on_c, 0, 61, 111
3, 0, Control_c, 0, 101, 0
3, 0, Control_c, 0, 100, 0
3, 0, Control_c, 0, 6, 12
3, 0, Control_c, 0, 10, 64
3, 0, Control_c, 0, 7, 100
3, 0, Pitch_bend_c, 0, 8192
3, 0, Program_c, 0, 0
3, 45, Note_off_c, 0, 73, 0
3, 45, Note_off_c, 0, 61, 0
3, 48, Note_on_c, 0, 73, 111
3, 48, Note_on_c, 0, 61, 111
3, 93, Note_off_c, 0, 73, 0
3, 93, Note_off_c, 0, 61, 0
3, 96, Note_on_c, 0, 76, 111
3, 96, Note_on_c, 0, 64, 111
3, 141, Note_off_c, 0, 76, 0
3, 141, Note_off_c, 0, 64, 0
3, 144, Note_on_c, 0, 75, 111
3, 144, Note_on_c, 0, 63, 111
3, 189, Note_off_c, 0, 75, 0
3, 189, Note_off_c, 0, 63, 0
3, 240, Note_on_c, 0, 71, 111
3, 240, Note_on_c, 0, 59, 111
3, 285, Note_off_c, 0, 71, 0
3, 285, Note_off_c, 0, 59, 0
3, 288, Note_on_c, 0, 71, 111
3, 288, Note_on_c, 0, 59, 111
3, 333, Note_off_c, 0, 71, 0
3, 333, Note_off_c, 0, 59, 0
3, 336, Note_on_c, 0, 73, 111
3, 336, Note_on_c, 0, 61, 111
3, 381, Note_off_c, 0, 73, 0
3, 381, Note_off_c, 0, 61, 0
3, 432, Note_on_c, 0, 61, 111
3, 432, Note_on_c, 0, 73, 111
3, 477, Note_off_c, 0, 61, 0
3, 477, Note_off_c, 0, 73, 0
3, 480, Note_on_c, 0, 76, 111
3, 480, Note_on_c, 0, 64, 111
3, 525, Note_off_c, 0, 76, 0
3, 525, Note_off_c, 0, 64, 0
3, 528, Note_on_c, 0, 75, 111
3, 528, Note_on_c, 0, 63, 111
3, 573, Note_off_c, 0, 75, 0
3, 573, Note_off_c, 0, 63, 0
3, 624, Note_on_c, 0, 59, 111
3, 624, Note_on_c, 0, 63, 111
3, 624, Note_on_c, 0, 71, 111
3, 760, Note_off_c, 0, 59, 0
3, 760, Note_off_c, 0, 63, 0
3, 760, Note_off_c, 0, 71, 0
3, 768, Note_on_c, 0, 73, 108
3, 768, Note_on_c, 0, 80, 108
3, 859, Note_off_c, 0, 73, 0
3, 859, Note_off_c, 0, 80, 0
3, 864, Note_on_c, 0, 73, 108
3, 864, Note_on_c, 0, 76, 108
3, 909, Note_off_c, 0, 73, 0
3, 909, Note_off_c, 0, 76, 0
3, 912, Note_on_c, 0, 75, 108
3, 912, Note_on_c, 0, 78, 108
3, 957, Note_off_c, 0, 75, 0
3, 957, Note_off_c, 0, 78, 0
3, 1008, Note_on_c, 0, 71, 108
3, 1008, Note_on_c, 0, 75, 108
3, 1053, Note_off_c, 0, 71, 0
3, 1053, Note_off_c, 0, 75, 0
3, 1104, Note_on_c, 0, 73, 108
3, 1104, Note_on_c, 0, 76, 108
3, 1149, Note_off_c, 0, 73, 0
3, 1149, Note_off_c, 0, 76, 0
3, 1200, Note_on_c, 0, 73, 108
3, 1200, Note_on_c, 0, 68, 108
3, 1245, Note_off_c, 0, 73, 0
3, 1245, Note_off_c, 0, 68, 0
3, 1296, Note_on_c, 0, 75, 108
3, 1296, Note_on_c, 0, 71, 108
3, 1341, Note_off_c, 0, 75, 0
3, 1341, Note_off_c, 0, 71, 0
3, 1392, Note_on_c, 0, 71, 108
3, 1392, Note_on_c, 0, 66, 108
3, 1528, Note_off_c, 0, 66, 0
3, 1528, Note_off_c, 0, 71, 0
3, 1536, Note_on_c, 0, 73, 108
3, 1536, Note_on_c, 0, 80, 108
3, 1627, Note_off_c, 0, 73, 0
3, 1627, Note_off_c, 0, 80, 0
3, 1632, Note_on_c, 0, 73, 108
3, 1632, Note_on_c, 0, 76, 108
3, 1677, Note_off_c, 0, 73, 0
3, 1677, Note_off_c, 0, 76, 0
3, 1680, Note_on_c, 0, 75, 108
3, 1680, Note_on_c, 0, 78, 108
3, 1725, Note_off_c, 0, 75, 0
3, 1725, Note_off_c, 0, 78, 0
3, 1776, Note_on_c, 0, 71, 108
3, 1776, Note_on_c, 0, 75, 108
3, 1821, Note_off_c, 0, 71, 0
3, 1821, Note_off_c, 0, 75, 0
3, 1872, Note_on_c, 0, 64, 108
3, 1872, Note_on_c, 0, 76, 108
3, 1917, Note_off_c, 0, 64, 0
3, 1917, Note_off_c, 0, 76, 0
3, 1968, Note_on_c, 0, 75, 108
3, 1968, Note_on_c, 0, 63, 108
3, 2013, Note_off_c, 0, 75, 0
3, 2013, Note_off_c, 0, 63, 0
3, 2064, Note_on_c, 0, 73, 108
3, 2064, Note_on_c, 0, 61, 108
3, 2109, Note_off_c, 0, 73, 0
3, 2109, Note_off_c, 0, 61, 0
3, 2160, Note_on_c, 0, 71, 108
3, 2160, Note_on_c, 0, 59, 108
3, 2296, Note_off_c, 0, 59, 0
3, 2296, Note_off_c, 0, 71, 0
3, 2304, Note_on_c, 0, 83, 108
3, 2304, Note_on_c, 0, 76, 108
3, 2395, Note_off_c, 0, 83, 0
3, 2395, Note_off_c, 0, 76, 0
3, 2400, Note_on_c, 0, 76, 108
3, 2400, Note_on_c, 0, 79, 108
3, 2445, Note_off_c, 0, 76, 0
3, 2445, Note_off_c, 0, 79, 0
3, 2448, Note_on_c, 0, 78, 108
3, 2448, Note_on_c, 0, 81, 108
3, 2493, Note_off_c, 0, 78, 0
3, 2493, Note_off_c, 0, 81, 0
3, 2544, Note_on_c, 0, 78, 108
3, 2544, Note_on_c, 0, 74, 108
3, 2589, Note_off_c, 0, 78, 0
3, 2589, Note_off_c, 0, 74, 0
3, 2640, Note_on_c, 0, 76, 108
3, 2640, Note_on_c, 0, 79, 108
3, 2685, Note_off_c, 0, 76, 0
3, 2685, Note_off_c, 0, 79, 0
3, 2736, Note_on_c, 0, 71, 108
3, 2736, Note_on_c, 0, 76, 108
3, 2781, Note_off_c, 0, 71, 0
3, 2781, Note_off_c, 0, 76, 0
3, 2832, Note_on_c, 0, 78, 108
3, 2832, Note_on_c, 0, 74, 108
3, 2877, Note_off_c, 0, 78, 0
3, 2877, Note_off_c, 0, 74, 0
3, 2928, Note_on_c, 0, 69, 108
3, 2928, Note_on_c, 0, 74, 108
3, 3064, Note_off_c, 0, 74, 0
3, 3064, Note_off_c, 0, 69, 0
3, 3072, Note_on_c, 0, 76, 108
3, 3072, Note_on_c, 0, 83, 108
3, 3163, Note_off_c, 0, 76, 0
3, 3163, Note_off_c, 0, 83, 0
3, 3168, Note_on_c, 0, 76, 108
3, 3168, Note_on_c, 0, 79, 108
3, 3213, Note_off_c, 0, 76, 0
3, 3213, Note_off_c, 0, 79, 0
3, 3216, Note_on_c, 0, 78, 108
3, 3216, Note_on_c, 0, 81, 108
3, 3261, Note_off_c, 0, 78, 0
3, 3261, Note_off_c, 0, 81, 0
3, 3312, Note_on_c, 0, 74, 108
3, 3312, Note_on_c, 0, 78, 108
3, 3357, Note_off_c, 0, 74, 0
3, 3357, Note_off_c, 0, 78, 0
3, 3408, Note_on_c, 0, 67, 108
3, 3408, Note_on_c, 0, 79, 108
3, 3453, Note_off_c, 0, 67, 0
3, 3453, Note_off_c, 0, 79, 0
3, 3504, Note_on_c, 0, 78, 108
3, 3504, Note_on_c, 0, 66, 108
3, 3549, Note_off_c, 0, 78, 0
3, 3549, Note_off_c, 0, 66, 0
3, 3600, Note_on_c, 0, 64, 108
3, 3600, Note_on_c, 0, 76, 108
3, 3645, Note_off_c, 0, 64, 0
3, 3645, Note_off_c, 0, 76, 0
3, 3696, Note_on_c, 0, 75, 108
3, 3696, Note_on_c, 0, 66, 108
3, 3832, Note_off_c, 0, 66, 0
3, 3832, Note_off_c, 0, 75, 0
3, 3840, Note_on_c, 0, 52, 103
3, 3885, Note_off_c, 0, 52, 0
3, 3888, Note_on_c, 0, 57, 101
3, 3933, Note_off_c, 0, 57, 0
3, 3936, Note_on_c, 0, 62, 98
3, 3981, Note_off_c, 0, 62, 0
3, 3984, Note_on_c, 0, 67, 95
3, 4029, Note_off_c, 0, 67, 0
3, 4032, Note_on_c, 0, 63, 93
3, 4077, Note_off_c, 0, 63, 0
3, 4080, Note_on_c, 0, 58, 90
3, 4125, Note_off_c, 0, 58, 0
3, 4128, Note_on_c, 0, 53, 87
3, 4173, Note_off_c, 0, 53, 0
3, 4176, Note_on_c, 0, 49, 87
3, 4192, Note_on_c, 0, 63, 87
3, 4221, Note_off_c, 0, 49, 0
3, 4222, Note_off_c, 0, 63, 0
3, 4224, Note_on_c, 0, 63, 87
3, 4315, Note_off_c, 0, 63, 0
3, 4320, Note_on_c, 0, 59, 87
3, 4365, Note_off_c, 0, 59, 0
3, 4368, Note_on_c, 0, 61, 87
3, 4413, Note_off_c, 0, 61, 0
3, 4464, Note_on_c, 0, 58, 87
3, 4509, Note_off_c, 0, 58, 0
3, 4560, Note_on_c, 0, 59, 87
3, 4605, Note_off_c, 0, 59, 0
3, 4656, Note_on_c, 0, 56, 87
3, 4701, Note_off_c, 0, 56, 0
3, 4752, Note_on_c, 0, 58, 87
3, 4797, Note_off_c, 0, 58, 0
3, 4848, Note_on_c, 0, 54, 87
3, 4984, Note_off_c, 0, 54, 0
3, 4992, Note_on_c, 0, 63, 87
3, 5083, Note_off_c, 0, 63, 0
3, 5088, Note_on_c, 0, 59, 87
3, 5133, Note_off_c, 0, 59, 0
3, 5136, Note_on_c, 0, 61, 87
3, 5181, Note_off_c, 0, 61, 0
3, 5232, Note_on_c, 0, 58, 87
3, 5277, Note_off_c, 0, 58, 0
3, 5328, Note_on_c, 0, 59, 87
3, 5373, Note_off_c, 0, 59, 0
3, 5424, Note_on_c, 0, 58, 87
3, 5469, Note_off_c, 0, 58, 0
3, 5520, Note_on_c, 0, 56, 87
3, 5565, Note_off_c, 0, 56, 0
3, 5616, Note_on_c, 0, 54, 87
3, 5752, Note_off_c, 0, 54, 0
3, 5760, Note_on_c, 0, 63, 87
3, 5851, Note_off_c, 0, 63, 0
3, 5856, Note_on_c, 0, 59, 87
3, 5901, Note_off_c, 0, 59, 0
3, 5904, Note_on_c, 0, 61, 87
3, 5949, Note_off_c, 0, 61, 0
3, 6000, Note_on_c, 0, 58, 87
3, 6045, Note_off_c, 0, 58, 0
3, 6096, Note_on_c, 0, 59, 87
3, 6141, Note_off_c, 0, 59, 0
3, 6192, Note_on_c, 0, 56, 87
3, 6237, Note_off_c, 0, 56, 0
3, 6288, Note_on_c, 0, 58, 87
3, 6333, Note_off_c, 0, 58, 0
3, 6384, Note_on_c, 0, 54, 87
3, 6520, Note_off_c, 0, 54, 0
3, 6528, Note_on_c, 0, 63, 87
3, 6619, Note_off_c, 0, 63, 0
3, 6624, Note_on_c, 0, 59, 87
3, 6669, Note_off_c, 0, 59, 0
3, 6672, Note_on_c, 0, 61, 87
3, 6717, Note_off_c, 0, 61, 0
3, 6768, Note_on_c, 0, 58, 87
3, 6813, Note_off_c, 0, 58, 0
3, 6864, Note_on_c, 0, 59, 87
3, 6909, Note_off_c, 0, 59, 0
3, 6960, Note_on_c, 0, 58, 87
3, 7005, Note_off_c, 0, 58, 0
3, 7056, Note_on_c, 0, 56, 87
3, 7101, Note_off_c, 0, 56, 0
3, 7152, Note_on_c, 0, 54, 87
3, 7288, Note_off_c, 0, 54, 0
3, 7296, Note_on_c, 0, 75, 96
3, 7296, Note_on_c, 0, 68, 96
3, 7387, Note_off_c, 0, 68, 0
3, 7387, Note_off_c, 0, 75, 0
3, 7392, Note_on_c, 0, 71, 96
3, 7392, Note_on_c, 0, 68, 96
3, 7437, Note_off_c, 0, 71, 0
3, 7437, Note_off_c, 0, 68, 0
3, 7440, Note_on_c, 0, 73, 96
3, 7440, Note_on_c, 0, 70, 96
3, 7485, Note_off_c, 0, 73, 0
3, 7485, Note_off_c, 0, 70, 0
3, 7536, Note_on_c, 0, 70, 96
3, 7536, Note_on_c, 0, 66, 96
3, 7581, Note_off_c, 0, 70, 0
3, 7581, Note_off_c, 0, 66, 0
3, 7632, Note_on_c, 0, 71, 96
3, 7632, Note_on_c, 0, 68, 96
3, 7677, Note_off_c, 0, 71, 0
3, 7677, Note_off_c, 0, 68, 0
3, 7728, Note_on_c, 0, 68, 96
3, 7773, Note_off_c, 0, 68, 0
3, 7824, Note_on_c, 0, 70, 96
3, 7869, Note_off_c, 0, 70, 0
3, 7920, Note_on_c, 0, 66, 96
3, 8056, Note_off_c, 0, 66, 0
3, 8064, Note_on_c, 0, 75, 96
3, 8064, Note_on_c, 0, 68, 96
3, 8155, Note_off_c, 0, 68, 0
3, 8155, Note_off_c, 0, 75, 0
3, 8160, Note_on_c, 0, 71, 96
3, 8160, Note_on_c, 0, 68, 96
3, 8205, Note_off_c, 0, 71, 0
3, 8205, Note_off_c, 0, 68, 0
3, 8208, Note_on_c, 0, 73, 96
3, 8208, Note_on_c, 0, 70, 96
3, 8253, Note_off_c, 0, 73, 0
3, 8253, Note_off_c, 0, 70, 0
3, 8304, Note_on_c, 0, 70, 96
3, 8304, Note_on_c, 0, 66, 96
3, 8349, Note_off_c, 0, 70, 0
3, 8349, Note_off_c, 0, 66, 0
3, 8400, Note_on_c, 0, 71, 96
3, 8400, Note_on_c, 0, 68, 96
3, 8445, Note_off_c, 0, 71, 0
3, 8445, Note_off_c, 0, 68, 0
3, 8496, Note_on_c, 0, 70, 96
3, 8541, Note_off_c, 0, 70, 0
3, 8592, Note_on_c, 0, 68, 96
3, 8637, Note_off_c, 0, 68, 0
3, 8688, Note_on_c, 0, 66, 96
3, 8824, Note_off_c, 0, 66, 0
3, 8832, Note_on_c, 0, 75, 96
3, 8832, Note_on_c, 0, 68, 96
3, 8923, Note_off_c, 0, 68, 0
3, 8923, Note_off_c, 0, 75, 0
3, 8928, Note_on_c, 0, 71, 96
3, 8928, Note_on_c, 0, 68, 96
3, 8973, Note_off_c, 0, 71, 0
3, 8973, Note_off_c, 0, 68, 0
3, 8976, Note_on_c, 0, 73, 96
3, 8976, Note_on_c, 0, 70, 96
3, 9021, Note_off_c, 0, 73, 0
3, 9021, Note_off_c, 0, 70, 0
3, 9072, Note_on_c, 0, 70, 96
3, 9072, Note_on_c, 0, 66, 96
3, 9117, Note_off_c, 0, 70, 0
3, 9117, Note_off_c, 0, 66, 0
3, 9168, Note_on_c, 0, 71, 96
3, 9168, Note_on_c, 0, 68, 96
3, 9213, Note_off_c, 0, 71, 0
3, 9213, Note_off_c, 0, 68, 0
3, 9264, Note_on_c, 0, 68, 96
3, 9309, Note_off_c, 0, 68, 0
3, 9360, Note_on_c, 0, 70, 96
3, 9405, Note_off_c, 0, 70, 0
3, 9456, Note_on_c, 0, 66, 96
3, 9592, Note_off_c, 0, 66, 0
3, 9600, Note_on_c, 0, 75, 96
3, 9600, Note_on_c, 0, 68, 96
3, 9691, Note_off_c, 0, 68, 0
3, 9691, Note_off_c, 0, 75, 0
3, 9696, Note_on_c, 0, 71, 96
3, 9696, Note_on_c, 0, 68, 96
3, 9741, Note_off_c, 0, 71, 0
3, 9741, Note_off_c, 0, 68, 0
3, 9744, Note_on_c, 0, 73, 96
3, 9744, Note_on_c, 0, 70, 96
3, 9789, Note_off_c, 0, 73, 0
3, 9789, Note_off_c, 0, 70, 0
3, 9840, Note_on_c, 0, 70, 96
3, 9840, Note_on_c, 0, 66, 96
3, 9885, Note_off_c, 0, 70, 0
3, 9885, Note_off_c, 0, 66, 0
3, 9936, Note_on_c, 0, 71, 96
3, 9936, Note_on_c, 0, 68, 96
3, 9981, Note_off_c, 0, 71, 0
3, 9981, Note_off_c, 0, 68, 0
3, 10032, Note_on_c, 0, 70, 96
3, 10077, Note_off_c, 0, 70, 0
3, 10128, Note_on_c, 0, 68, 96
3, 10173, Note_off_c, 0, 68, 0
3, 10224, Note_on_c, 0, 67, 96
3, 10224, Note_on_c, 0, 63, 96
3, 10224, Note_on_c, 0, 58, 96
3, 10360, Note_off_c, 0, 67, 0
3, 10360, Note_off_c, 0, 63, 0
3, 10360, Note_off_c, 0, 58, 0
3, 10368, Note_on_c, 0, 76, 90
3, 10368, Note_on_c, 0, 68, 90
3, 10504, Note_off_c, 0, 68, 0
3, 10504, Note_off_c, 0, 76, 0
3, 10512, Note_on_c, 0, 68, 90
3, 10557, Note_off_c, 0, 68, 0
3, 10560, Note_on_c, 0, 68, 90
3, 10605, Note_off_c, 0, 68, 0
3, 10608, Note_on_c, 0, 68, 90
3, 10653, Note_off_c, 0, 68, 0
3, 10656, Note_on_c, 0, 70, 90
3, 10701, Note_off_c, 0, 70, 0
3, 10704, Note_on_c, 0, 71, 90
3, 10749, Note_off_c, 0, 71, 0
3, 10752, Note_on_c, 0, 70, 90
3, 10797, Note_off_c, 0, 70, 0
3, 10800, Note_on_c, 0, 68, 89
3, 10845, Note_off_c, 0, 68, 0
3, 10848, Note_on_c, 0, 67, 89
3, 10848, Note_on_c, 0, 63, 89
3, 11030, Note_off_c, 0, 63, 0
3, 11030, Note_off_c, 0, 67, 0
3, 11040, Note_on_c, 0, 63, 89
3, 11100, Note_off_c, 0, 63, 0
3, 11104, Note_on_c, 0, 63, 89
3, 11134, Note_off_c, 0, 63, 0
3, 11136, Note_on_c, 0, 68, 89
3, 11136, Note_on_c, 0, 63, 89
3, 11136, Note_on_c, 0, 59, 89
3, 11227, Note_off_c, 0, 68, 0
3, 11227, Note_off_c, 0, 63, 0
3, 11227, Note_off_c, 0, 59, 0
3, 11232, Note_on_c, 0, 63, 90
3, 11292, Note_off_c, 0, 63, 0
3, 11296, Note_on_c, 0, 68, 91
3, 11326, Note_off_c, 0, 68, 0
3, 11328, Note_on_c, 0, 70, 92
3, 11328, Note_on_c, 0, 66, 92
3, 11328, Note_on_c, 0, 61, 92
3, 11419, Note_off_c, 0, 70, 0
3, 11419, Note_off_c, 0, 66, 0
3, 11419, Note_off_c, 0, 61, 0
3, 11424, Note_on_c, 0, 63, 94
3, 11484, Note_off_c, 0, 63, 0
3, 11488, Note_on_c, 0, 70, 96
3, 11518, Note_off_c, 0, 70, 0
3, 11520, Note_on_c, 0, 71, 96
3, 11520, Note_on_c, 0, 66, 96
3, 11520, Note_on_c, 0, 63, 96
3, 11611, Note_off_c, 0, 71, 0
3, 11611, Note_off_c, 0, 66, 0
3, 11611, Note_off_c, 0, 63, 0
3, 11616, Note_on_c, 0, 68, 99
3, 11676, Note_off_c, 0, 68, 0
3, 11680, Note_on_c, 0, 71, 100
3, 11710, Note_off_c, 0, 71, 0
3, 11712, Note_on_c, 0, 72, 101
3, 11712, Note_on_c, 0, 68, 101
3, 11712, Note_on_c, 0, 63, 101
3, 11848, Note_off_c, 0, 63, 0
3, 11848, Note_off_c, 0, 68, 0
3, 11848, Note_off_c, 0, 72, 0
3, 11856, Note_on_c, 0, 73, 104
3, 11856, Note_on_c, 0, 64, 104
3, 11944, Note_off_c, 0, 64, 0
3, 11944, Note_off_c, 0, 73, 0
3, 11952, Note_on_c, 0, 73, 106
3, 11952, Note_on_c, 0, 64, 106
3, 11997, Note_off_c, 0, 64, 0
3, 11997, Note_off_c, 0, 73, 0
3, 12000, Note_on_c, 0, 64, 106
3, 12000, Note_on_c, 0, 73, 106
3, 12045, Note_off_c, 0, 64, 0
3, 12045, Note_off_c, 0, 73, 0
3, 12048, Note_on_c, 0, 73, 106
3, 12048, Note_on_c, 0, 64, 106
3, 12093, Note_off_c, 0, 73, 0
3, 12093, Note_off_c, 0, 64, 0
3, 12096, Note_on_c, 0, 68, 106
3, 12187, Note_off_c, 0, 68, 0
3, 12192, Note_on_c, 0, 66, 106
3, 12192, Note_on_c, 0, 73, 106
3, 12283, Note_off_c, 0, 73, 0
3, 12283, Note_off_c, 0, 66, 0
3, 12288, Note_on_c, 0, 71, 106
3, 12288, Note_on_c, 0, 63, 106
3, 12424, Note_off_c, 0, 63, 0
3, 12424, Note_off_c, 0, 71, 0
3, 12432, Note_on_c, 0, 66, 106
3, 12432, Note_on_c, 0, 59, 106
3, 12523, Note_off_c, 0, 59, 0
3, 12523, Note_off_c, 0, 66, 0
3, 12528, Note_on_c, 0, 63, 106
3, 12528, Note_on_c, 0, 71, 106
3, 12619, Note_off_c, 0, 63, 0
3, 12619, Note_off_c, 0, 71, 0
3, 12624, Note_on_c, 0, 73, 106
3, 12624, Note_on_c, 0, 64, 106
3, 12712, Note_off_c, 0, 73, 0
3, 12712, Note_off_c, 0, 64, 0
3, 12720, Note_on_c, 0, 73, 106
3, 12720, Note_on_c, 0, 64, 106
3, 12765, Note_off_c, 0, 64, 0
3, 12765, Note_off_c, 0, 73, 0
3, 12768, Note_on_c, 0, 64, 106
3, 12768, Note_on_c, 0, 73, 106
3, 12813, Note_off_c, 0, 64, 0
3, 12813, Note_off_c, 0, 73, 0
3, 12816, Note_on_c, 0, 73, 106
3, 12816, Note_on_c, 0, 64, 106
3, 12861, Note_off_c, 0, 73, 0
3, 12861, Note_off_c, 0, 64, 0
3, 12864, Note_on_c, 0, 69, 106
3, 12955, Note_off_c, 0, 69, 0
3, 12960, Note_on_c, 0, 66, 106
3, 12960, Note_on_c, 0, 73, 106
3, 13051, Note_off_c, 0, 73, 0
3, 13051, Note_off_c, 0, 66, 0
3, 13056, Note_on_c, 0, 73, 110
3, 13056, Note_on_c, 0, 68, 110
3, 13056, Note_on_c, 0, 63, 110
3, 13238, Note_off_c, 0, 63, 0
3, 13238, Note_off_c, 0, 73, 0
3, 13238, Note_off_c, 0, 68, 0
3, 13248, Note_on_c, 0, 72, 111
3, 13248, Note_on_c, 0, 68, 111
3, 13248, Note_on_c, 0, 63, 111
3, 13430, Note_off_c, 0, 63, 0
3, 13430, Note_off_c, 0, 68, 0
3, 13430, Note_off_c, 0, 72, 0
3, 13440, Note_on_c, 0, 73, 108
3, 13440, Note_on_c, 0, 64, 108
3, 13485, Note_off_c, 0, 73, 0
3, 13485, Note_off_c, 0, 64, 0
3, 13488, Note_on_c, 0, 64, 108
3, 13488, Note_on_c, 0, 73, 108
3, 13533, Note_off_c, 0, 73, 0
3, 13533, Note_off_c, 0, 64, 0
3, 13536, Note_on_c, 0, 68, 108
3, 13536, Note_on_c, 0, 76, 108
3, 13581, Note_off_c, 0, 68, 0
3, 13581, Note_off_c, 0, 76, 0
3, 13584, Note_on_c, 0, 75, 108
3, 13584, Note_on_c, 0, 66, 108
3, 13629, Note_off_c, 0, 75, 0
3, 13629, Note_off_c, 0, 66, 0
3, 13680, Note_on_c, 0, 63, 108
3, 13680, Note_on_c, 0, 71, 108
3, 13725, Note_off_c, 0, 71, 0
3, 13725, Note_off_c, 0, 63, 0
3, 13776, Note_on_c, 0, 73, 108
3, 13776, Note_on_c, 0, 64, 108
3, 13867, Note_off_c, 0, 73, 0
3, 13867, Note_off_c, 0, 64, 0
3, 13872, Note_on_c, 0, 73, 108
3, 13872, Note_on_c, 0, 64, 108
3, 13917, Note_off_c, 0, 64, 0
3, 13917, Note_off_c, 0, 73, 0
3, 13920, Note_on_c, 0, 76, 108
3, 13920, Note_on_c, 0, 68, 108
3, 13965, Note_off_c, 0, 76, 0
3, 13965, Note_off_c, 0, 68, 0
3, 13968, Note_on_c, 0, 75, 108
3, 13968, Note_on_c, 0, 66, 108
3, 14013, Note_off_c, 0, 75, 0
3, 14013, Note_off_c, 0, 66, 0
3, 14064, Note_on_c, 0, 71, 108
3, 14064, Note_on_c, 0, 63, 108
3, 14200, Note_off_c, 0, 63, 0
3, 14200, Note_off_c, 0, 71, 0
3, 14208, Note_on_c, 0, 73, 108
3, 14208, Note_on_c, 0, 64, 108
3, 14253, Note_off_c, 0, 73, 0
3, 14253, Note_off_c, 0, 64, 0
3, 14256, Note_on_c, 0, 73, 108
3, 14256, Note_on_c, 0, 64, 108
3, 14301, Note_off_c, 0, 64, 0
3, 14301, Note_off_c, 0, 73, 0
3, 14304, Note_on_c, 0, 76, 108
3, 14304, Note_on_c, 0, 68, 108
3, 14349, Note_off_c, 0, 76, 0
3, 14349, Note_off_c, 0, 68, 0
3, 14352, Note_on_c, 0, 75, 108
3, 14352, Note_on_c, 0, 66, 108
3, 14397, Note_off_c, 0, 75, 0
3, 14397, Note_off_c, 0, 66, 0
3, 14448, Note_on_c, 0, 73, 108
3, 14448, Note_on_c, 0, 64, 108
3, 14493, Note_off_c, 0, 64, 0
3, 14493, Note_off_c, 0, 73, 0
3, 14544, Note_on_c, 0, 73, 108
3, 14544, Note_on_c, 0, 64, 108
3, 14680, Note_off_c, 0, 73, 0
3, 14680, Note_off_c, 0, 64, 0
3, 14688, Note_on_c, 0, 71, 108
3, 14733, Note_off_c, 0, 71, 0
3, 14736, Note_on_c, 0, 68, 108
3, 14736, Note_on_c, 0, 64, 108
3, 14827, Note_off_c, 0, 68, 0
3, 14827, Note_off_c, 0, 64, 0
3, 14832, Note_on_c, 0, 71, 108
3, 14832, Note_on_c, 0, 63, 108
3, 14968, Note_off_c, 0, 63, 0
3, 14968, Note_off_c, 0, 71, 0
3, 14976, Note_on_c, 0, 73, 108
3, 14976, Note_on_c, 0, 64, 108
3, 15021, Note_off_c, 0, 73, 0
3, 15021, Note_off_c, 0, 64, 0
3, 15024, Note_on_c, 0, 73, 108
3, 15024, Note_on_c, 0, 64, 108
3, 15069, Note_off_c, 0, 64, 0
3, 15069, Note_off_c, 0, 73, 0
3, 15072, Note_on_c, 0, 76, 108
3, 15072, Note_on_c, 0, 68, 108
3, 15117, Note_off_c, 0, 76, 0
3, 15117, Note_off_c, 0, 68, 0
3, 15120, Note_on_c, 0, 75, 108
3, 15120, Note_on_c, 0, 66, 108
3, 15165, Note_off_c, 0, 75, 0
3, 15165, Note_off_c, 0, 66, 0
3, 15216, Note_on_c, 0, 71, 108
3, 15216, Note_on_c, 0, 63, 108
3, 15261, Note_off_c, 0, 63, 0
3, 15261, Note_off_c, 0, 71, 0
3, 15312, Note_on_c, 0, 73, 108
3, 15312, Note_on_c, 0, 64, 108
3, 15403, Note_off_c, 0, 73, 0
3, 15403, Note_off_c, 0, 64, 0
3, 15408, Note_on_c, 0, 73, 108
3, 15408, Note_on_c, 0, 64, 108
3, 15453, Note_off_c, 0, 64, 0
3, 15453, Note_off_c, 0, 73, 0
3, 15456, Note_on_c, 0, 76, 108
3, 15456, Note_on_c, 0, 68, 108
3, 15501, Note_off_c, 0, 76, 0
3, 15501, Note_off_c, 0, 68, 0
3, 15504, Note_on_c, 0, 75, 108
3, 15504, Note_on_c, 0, 66, 108
3, 15549, Note_off_c, 0, 75, 0
3, 15549, Note_off_c, 0, 66, 0
3, 15600, Note_on_c, 0, 71, 108
3, 15600, Note_on_c, 0, 63, 108
3, 15736, Note_off_c, 0, 63, 0
3, 15736, Note_off_c, 0, 71, 0
3, 15744, Note_on_c, 0, 73, 108
3, 15744, Note_on_c, 0, 64, 108
3, 15789, Note_off_c, 0, 73, 0
3, 15789, Note_off_c, 0, 64, 0
3, 15792, Note_on_c, 0, 73, 108
3, 15792, Note_on_c, 0, 64, 108
3, 15837, Note_off_c, 0, 64, 0
3, 15837, Note_off_c, 0, 73, 0
3, 15840, Note_on_c, 0, 76, 108
3, 15840, Note_on_c, 0, 68, 108
3, 15885, Note_off_c, 0, 76, 0
3, 15885, Note_off_c, 0, 68, 0
3, 15888, Note_on_c, 0, 75, 108
3, 15888, Note_on_c, 0, 66, 108
3, 15933, Note_off_c, 0, 75, 0
3, 15933, Note_off_c, 0, 66, 0
3, 15984, Note_on_c, 0, 76, 108
3, 15984, Note_on_c, 0, 64, 108
3, 16029, Note_off_c, 0, 64, 0
3, 16029, Note_off_c, 0, 76, 0
3, 16032, Note_on_c, 0, 66, 108
3, 16032, Note_on_c, 0, 78, 108
3, 16077, Note_off_c, 0, 66, 0
3, 16077, Note_off_c, 0, 78, 0
3, 16080, Note_on_c, 0, 76, 108
3, 16080, Note_on_c, 0, 68, 108
3, 16171, Note_off_c, 0, 76, 0
3, 16171, Note_off_c, 0, 68, 0
3, 16176, Note_on_c, 0, 80, 108
3, 16176, Note_on_c, 0, 76, 108
3, 16176, Note_on_c, 0, 71, 108
3, 16312, Note_off_c, 0, 71, 0
3, 16312, Note_off_c, 0, 76, 0
3, 16312, Note_off_c, 0, 80, 0
3, 16320, Note_on_c, 0, 72, 108
3, 16320, Note_on_c, 0, 75, 108
3, 16320, Note_on_c, 0, 78, 108
3, 16411, Note_off_c, 0, 72, 0
3, 16411, Note_off_c, 0, 75, 0
3, 16411, Note_off_c, 0, 78, 0
3, 16416, Note_on_c, 0, 69, 108
3, 16416, Note_on_c, 0, 75, 108
3, 16416, Note_on_c, 0, 78, 108
3, 16507, Note_off_c, 0, 69, 0
3, 16507, Note_off_c, 0, 75, 0
3, 16507, Note_off_c, 0, 78, 0
3, 16512, Note_on_c, 0, 73, 108
3, 16512, Note_on_c, 0, 68, 108
3, 16512, Note_on_c, 0, 64, 108
3, 16557, Note_off_c, 0, 73, 0
3, 16557, Note_off_c, 0, 68, 0
3, 16557, Note_off_c, 0, 64, 0
3, 16560, Note_on_c, 0, 64, 108
3, 16560, Note_on_c, 0, 73, 108
3, 16605, Note_off_c, 0, 73, 0
3, 16605, Note_off_c, 0, 64, 0
3, 16608, Note_on_c, 0, 68, 108
3, 16608, Note_on_c, 0, 76, 108
3, 16653, Note_off_c, 0, 68, 0
3, 16653, Note_off_c, 0, 76, 0
3, 16656, Note_on_c, 0, 75, 108
3, 16656, Note_on_c, 0, 66, 108
3, 16701, Note_off_c, 0, 75, 0
3, 16701, Note_off_c, 0, 66, 0
3, 16752, Note_on_c, 0, 63, 108
3, 16752, Note_on_c, 0, 71, 108
3, 16797, Note_off_c, 0, 71, 0
3, 16797, Note_off_c, 0, 63, 0
3, 16848, Note_on_c, 0, 73, 108
3, 16848, Note_on_c, 0, 64, 108
3, 16939, Note_off_c, 0, 73, 0
3, 16939, Note_off_c, 0, 64, 0
3, 16944, Note_on_c, 0, 64, 108
3, 16944, Note_on_c, 0, 73, 108
3, 16989, Note_off_c, 0, 73, 0
3, 16989, Note_off_c, 0, 64, 0
3, 16992, Note_on_c, 0, 68, 108
3, 16992, Note_on_c, 0, 76, 108
3, 17037, Note_off_c, 0, 68, 0
3, 17037, Note_off_c, 0, 76, 0
3, 17040, Note_on_c, 0, 75, 108
3, 17040, Note_on_c, 0, 66, 108
3, 17085, Note_off_c, 0, 75, 0
3, 17085, Note_off_c, 0, 66, 0
3, 17136, Note_on_c, 0, 63, 108
3, 17136, Note_on_c, 0, 71, 108
3, 17272, Note_off_c, 0, 71, 0
3, 17272, Note_off_c, 0, 63, 0
3, 17280, Note_on_c, 0, 73, 108
3, 17280, Note_on_c, 0, 64, 108
3, 17325, Note_off_c, 0, 73, 0
3, 17325, Note_off_c, 0, 64, 0
3, 17328, Note_on_c, 0, 64, 108
3, 17328, Note_on_c, 0, 73, 108
3, 17373, Note_off_c, 0, 73, 0
3, 17373, Note_off_c, 0, 64, 0
3, 17376, Note_on_c, 0, 68, 108
3, 17376, Note_on_c, 0, 76, 108
3, 17421, Note_off_c, 0, 68, 0
3, 17421, Note_off_c, 0, 76, 0
3, 17424, Note_on_c, 0, 75, 108
3, 17424, Note_on_c, 0, 66, 108
3, 17469, Note_off_c, 0, 75, 0
3, 17469, Note_off_c, 0, 66, 0
3, 17520, Note_on_c, 0, 64, 108
3, 17520, Note_on_c, 0, 73, 108
3, 17565, Note_off_c, 0, 73, 0
3, 17565, Note_off_c, 0, 64, 0
3, 17616, Note_on_c, 0, 73, 108
3, 17616, Note_on_c, 0, 64, 108
3, 17752, Note_off_c, 0, 73, 0
3, 17752, Note_off_c, 0, 64, 0
3, 17760, Note_on_c, 0, 71, 108
3, 17805, Note_off_c, 0, 71, 0
3, 17808, Note_on_c, 0, 68, 108
3, 17808, Note_on_c, 0, 64, 108
3, 17899, Note_off_c, 0, 68, 0
3, 17899, Note_off_c, 0, 64, 0
3, 17904, Note_on_c, 0, 63, 108
3, 17904, Note_on_c, 0, 71, 108
3, 18040, Note_off_c, 0, 71, 0
3, 18040, Note_off_c, 0, 63, 0
3, 18048, Note_on_c, 0, 73, 108
3, 18048, Note_on_c, 0, 64, 108
3, 18093, Note_off_c, 0, 73, 0
3, 18093, Note_off_c, 0, 64, 0
3, 18096, Note_on_c, 0, 64, 108
3, 18096, Note_on_c, 0, 73, 108
3, 18141, Note_off_c, 0, 73, 0
3, 18141, Note_off_c, 0, 64, 0
3, 18144, Note_on_c, 0, 68, 108
3, 18144, Note_on_c, 0, 76, 108
3, 18189, Note_off_c, 0, 68, 0
3, 18189, Note_off_c, 0, 76, 0
3, 18192, Note_on_c, 0, 75, 108
3, 18192, Note_on_c, 0, 66, 108
3, 18237, Note_off_c, 0, 75, 0
3, 18237, Note_off_c, 0, 66, 0
3, 18288, Note_on_c, 0, 63, 108
3, 18288, Note_on_c, 0, 71, 108
3, 18333, Note_off_c, 0, 71, 0
3, 18333, Note_off_c, 0, 63, 0
3, 18384, Note_on_c, 0, 73, 108
3, 18384, Note_on_c, 0, 64, 108
3, 18475, Note_off_c, 0, 73, 0
3, 18475, Note_off_c, 0, 64, 0
3, 18480, Note_on_c, 0, 73, 108
3, 18480, Note_on_c, 0, 64, 108
3, 18525, Note_off_c, 0, 64, 0
3, 18525, Note_off_c, 0, 73, 0
3, 18528, Note_on_c, 0, 76, 108
3, 18528, Note_on_c, 0, 68, 108
3, 18573, Note_off_c, 0, 76, 0
3, 18573, Note_off_c, 0, 68, 0
3, 18576, Note_on_c, 0, 75, 108
3, 18576, Note_on_c, 0, 66, 108
3, 18621, Note_off_c, 0, 75, 0
3, 18621, Note_off_c, 0, 66, 0
3, 18672, Note_on_c, 0, 71, 108
3, 18672, Note_on_c, 0, 63, 108
3, 18763, Note_off_c, 0, 63, 0
3, 18763, Note_off_c, 0, 71, 0
3, 18768, Note_on_c, 0, 71, 108
3, 18768, Note_on_c, 0, 63, 108
3, 18813, Note_off_c, 0, 71, 0
3, 18813, Note_off_c, 0, 63, 0
3, 18816, Note_on_c, 0, 73, 108
3, 18816, Note_on_c, 0, 64, 108
3, 18907, Note_off_c, 0, 64, 0
3, 18907, Note_off_c, 0, 73, 0
3, 18912, Note_on_c, 0, 76, 108
3, 18912, Note_on_c, 0, 68, 108
3, 18957, Note_off_c, 0, 76, 0
3, 18957, Note_off_c, 0, 68, 0
3, 18960, Note_on_c, 0, 75, 108
3, 18960, Note_on_c, 0, 66, 108
3, 19051, Note_off_c, 0, 75, 0
3, 19051, Note_off_c, 0, 66, 0
3, 19056, Note_on_c, 0, 73, 108
3, 19056, Note_on_c, 0, 64, 108
3, 19101, Note_off_c, 0, 73, 0
3, 19101, Note_off_c, 0, 64, 0
3, 19104, Note_on_c, 0, 71, 108
3, 19104, Note_on_c, 0, 63, 108
3, 19149, Note_off_c, 0, 71, 0
3, 19149, Note_off_c, 0, 63, 0
3, 19152, Note_on_c, 0, 73, 108
3, 19152, Note_on_c, 0, 64, 108
3, 19288, Note_off_c, 0, 73, 0
3, 19288, Note_off_c, 0, 64, 0
3, 19296, Note_on_c, 0, 76, 104
3, 19296, Note_on_c, 0, 73, 104
3, 19341, Note_off_c, 0, 73, 0
3, 19341, Note_off_c, 0, 76, 0
3, 19344, Note_on_c, 0, 75, 104
3, 19344, Note_on_c, 0, 78, 104
3, 19389, Note_off_c, 0, 75, 0
3, 19389, Note_off_c, 0, 78, 0
3, 19440, Note_on_c, 0, 75, 104
3, 19440, Note_on_c, 0, 71, 104
3, 19485, Note_off_c, 0, 75, 0
3, 19485, Note_off_c, 0, 71, 0
3, 19536, Note_on_c, 0, 73, 104
3, 19536, Note_on_c, 0, 76, 104
3, 19581, Note_off_c, 0, 73, 0
3, 19581, Note_off_c, 0, 76, 0
3, 19632, Note_on_c, 0, 73, 104
3, 19632, Note_on_c, 0, 68, 104
3, 19677, Note_off_c, 0, 73, 0
3, 19677, Note_off_c, 0, 68, 0
3, 19728, Note_on_c, 0, 75, 104
3, 19728, Note_on_c, 0, 71, 104
3, 19773, Note_off_c, 0, 75, 0
3, 19773, Note_off_c, 0, 71, 0
3, 19824, Note_on_c, 0, 66, 104
3, 19824, Note_on_c, 0, 71, 104
3, 19960, Note_off_c, 0, 71, 0
3, 19960, Note_off_c, 0, 66, 0
3, 19968, Note_on_c, 0, 73, 104
3, 19968, Note_on_c, 0, 80, 104
3, 20059, Note_off_c, 0, 80, 0
3, 20059, Note_off_c, 0, 73, 0
3, 20064, Note_on_c, 0, 73, 104
3, 20064, Note_on_c, 0, 76, 104
3, 20109, Note_off_c, 0, 76, 0
3, 20109, Note_off_c, 0, 73, 0
3, 20112, Note_on_c, 0, 78, 104
3, 20112, Note_on_c, 0, 75, 104
3, 20157, Note_off_c, 0, 78, 0
3, 20157, Note_off_c, 0, 75, 0
3, 20208, Note_on_c, 0, 71, 104
3, 20208, Note_on_c, 0, 75, 104
3, 20253, Note_off_c, 0, 71, 0
3, 20253, Note_off_c, 0, 75, 0
3, 20304, Note_on_c, 0, 76, 104
3, 20304, Note_on_c, 0, 64, 104
3, 20349, Note_off_c, 0, 76, 0
3, 20349, Note_off_c, 0, 64, 0
3, 20400, Note_on_c, 0, 63, 104
3, 20400, Note_on_c, 0, 75, 104
3, 20445, Note_off_c, 0, 63, 0
3, 20445, Note_off_c, 0, 75, 0
3, 20496, Note_on_c, 0, 73, 104
3, 20496, Note_on_c, 0, 61, 104
3, 20541, Note_off_c, 0, 73, 0
3, 20541, Note_off_c, 0, 61, 0
3, 20592, Note_on_c, 0, 59, 104
3, 20592, Note_on_c, 0, 71, 104
3, 20728, Note_off_c, 0, 71, 0
3, 20728, Note_off_c, 0, 59, 0
3, 20736, Note_on_c, 0, 76, 104
3, 20736, Note_on_c, 0, 83, 104
3, 20827, Note_off_c, 0, 83, 0
3, 20827, Note_off_c, 0, 76, 0
3, 20832, Note_on_c, 0, 76, 104
3, 20832, Note_on_c, 0, 79, 104
3, 20877, Note_off_c, 0, 79, 0
3, 20877, Note_off_c, 0, 76, 0
3, 20880, Note_on_c, 0, 81, 104
3, 20880, Note_on_c, 0, 78, 104
3, 20925, Note_off_c, 0, 81, 0
3, 20925, Note_off_c, 0, 78, 0
3, 20976, Note_on_c, 0, 74, 104
3, 20976, Note_on_c, 0, 78, 104
3, 21021, Note_off_c, 0, 74, 0
3, 21021, Note_off_c, 0, 78, 0
3, 21072, Note_on_c, 0, 79, 104
3, 21072, Note_on_c, 0, 76, 104
3, 21117, Note_off_c, 0, 79, 0
3, 21117, Note_off_c, 0, 76, 0
3, 21168, Note_on_c, 0, 71, 104
3, 21168, Note_on_c, 0, 76, 104
3, 21213, Note_off_c, 0, 71, 0
3, 21213, Note_off_c, 0, 76, 0
3, 21264, Note_on_c, 0, 74, 104
3, 21264, Note_on_c, 0, 78, 104
3, 21309, Note_off_c, 0, 74, 0
3, 21309, Note_off_c, 0, 78, 0
3, 21360, Note_on_c, 0, 69, 104
3, 21360, Note_on_c, 0, 74, 104
3, 21496, Note_off_c, 0, 74, 0
3, 21496, Note_off_c, 0, 69, 0
3, 21504, Note_on_c, 0, 76, 104
3, 21504, Note_on_c, 0, 83, 104
3, 21595, Note_off_c, 0, 83, 0
3, 21595, Note_off_c, 0, 76, 0
3, 21600, Note_on_c, 0, 76, 104
3, 21600, Note_on_c, 0, 79, 104
3, 21645, Note_off_c, 0, 79, 0
3, 21645, Note_off_c, 0, 76, 0
3, 21648, Note_on_c, 0, 78, 104
3, 21648, Note_on_c, 0, 81, 104
3, 21693, Note_off_c, 0, 78, 0
3, 21693, Note_off_c, 0, 81, 0
3, 21744, Note_on_c, 0, 74, 104
3, 21744, Note_on_c, 0, 78, 104
3, 21789, Note_off_c, 0, 74, 0
3, 21789, Note_off_c, 0, 78, 0
3, 21840, Note_on_c, 0, 67, 104
3, 21840, Note_on_c, 0, 79, 104
3, 21885, Note_off_c, 0, 67, 0
3, 21885, Note_off_c, 0, 79, 0
3, 21936, Note_on_c, 0, 66, 104
3, 21936, Note_on_c, 0, 78, 104
3, 21981, Note_off_c, 0, 66, 0
3, 21981, Note_off_c, 0, 78, 0
3, 22032, Note_on_c, 0, 76, 104
3, 22032, Note_on_c, 0, 64, 104
3, 22077, Note_off_c, 0, 76, 0
3, 22077, Note_off_c, 0, 64, 0
3, 22128, Note_on_c, 0, 62, 104
3, 22128, Note_on_c, 0, 74, 104
3, 22264, Note_off_c, 0, 74, 0
3, 22264, Note_off_c, 0, 62, 0
3, 22272, Note_on_c, 0, 83, 104
3, 22272, Note_on_c, 0, 76, 104
3, 22363, Note_off_c, 0, 76, 0
3, 22363, Note_off_c, 0, 83, 0
3, 22368, Note_on_c, 0, 76, 104
3, 22368, Note_on_c, 0, 79, 104
3, 22413, Note_off_c, 0, 76, 0
3, 22413, Note_off_c, 0, 79, 0
3, 22416, Note_on_c, 0, 81, 104
3, 22416, Note_on_c, 0, 78, 104
3, 22461, Note_off_c, 0, 81, 0
3, 22461, Note_off_c, 0, 78, 0
3, 22512, Note_on_c, 0, 78, 104
3, 22512, Note_on_c, 0, 74, 104
3, 22557, Note_off_c, 0, 78, 0
3, 22557, Note_off_c, 0, 74, 0
3, 22608, Note_on_c, 0, 79, 104
3, 22608, Note_on_c, 0, 76, 104
3, 22653, Note_off_c, 0, 79, 0
3, 22653, Note_off_c, 0, 76, 0
3, 22704, Note_on_c, 0, 76, 104
3, 22704, Note_on_c, 0, 71, 104
3, 22749, Note_off_c, 0, 76, 0
3, 22749, Note_off_c, 0, 71, 0
3, 22800, Note_on_c, 0, 78, 104
3, 22800, Note_on_c, 0, 74, 104
3, 22845, Note_off_c, 0, 78, 0
3, 22845, Note_off_c, 0, 74, 0
3, 22896, Note_on_c, 0, 74, 104
3, 22896, Note_on_c, 0, 69, 104
3, 23032, Note_off_c, 0, 69, 0
3, 23032, Note_off_c, 0, 74, 0
3, 23040, Note_on_c, 0, 83, 104
3, 23040, Note_on_c, 0, 76, 104
3, 23131, Note_off_c, 0, 76, 0
3, 23131, Note_off_c, 0, 83, 0
3, 23136, Note_on_c, 0, 76, 104
3, 23136, Note_on_c, 0, 79, 104
3, 23181, Note_off_c, 0, 76, 0
3, 23181, Note_off_c, 0, 79, 0
3, 23184, Note_on_c, 0, 81, 104
3, 23184, Note_on_c, 0, 78, 104
3, 23229, Note_off_c, 0, 81, 0
3, 23229, Note_off_c, 0, 78, 0
3, 23280, Note_on_c, 0, 78, 104
3, 23280, Note_on_c, 0, 74, 104
3, 23325, Note_off_c, 0, 78, 0
3, 23325, Note_off_c, 0, 74, 0
3, 23376, Note_on_c, 0, 79, 104
3, 23376, Note_on_c, 0, 67, 104
3, 23421, Note_off_c, 0, 79, 0
3, 23421, Note_off_c, 0, 67, 0
3, 23472, Note_on_c, 0, 78, 104
3, 23472, Note_on_c, 0, 66, 104
3, 23517, Note_off_c, 0, 78, 0
3, 23517, Note_off_c, 0, 66, 0
3, 23568, Note_on_c, 0, 64, 104
3, 23568, Note_on_c, 0, 76, 104
3, 23613, Note_off_c, 0, 64, 0
3, 23613, Note_off_c, 0, 76, 0
3, 23664, Note_on_c, 0, 74, 104
3, 23664, Note_on_c, 0, 62, 104
3, 23800, Note_off_c, 0, 62, 0
3, 23800, Note_off_c, 0, 74, 0
3, 23808, Note_on_c, 0, 86, 104
3, 23808, Note_on_c, 0, 79, 104
3, 23899, Note_off_c, 0, 79, 0
3, 23899, Note_off_c, 0, 86, 0
3, 23904, Note_on_c, 0, 79, 104
3, 23904, Note_on_c, 0, 82, 104
3, 23949, Note_off_c, 0, 79, 0
3, 23949, Note_off_c, 0, 82, 0
3, 23952, Note_on_c, 0, 84, 104
3, 23952, Note_on_c, 0, 81, 104
3, 23997, Note_off_c, 0, 84, 0
3, 23997, Note_off_c, 0, 81, 0
3, 24048, Note_on_c, 0, 81, 104
3, 24048, Note_on_c, 0, 77, 104
3, 24093, Note_off_c, 0, 81, 0
3, 24093, Note_off_c, 0, 77, 0
3, 24144, Note_on_c, 0, 82, 104
3, 24144, Note_on_c, 0, 79, 104
3, 24189, Note_off_c, 0, 82, 0
3, 24189, Note_off_c, 0, 79, 0
3, 24240, Note_on_c, 0, 79, 104
3, 24240, Note_on_c, 0, 74, 104
3, 24285, Note_off_c, 0, 79, 0
3, 24285, Note_off_c, 0, 74, 0
3, 24336, Note_on_c, 0, 77, 104
3, 24336, Note_on_c, 0, 81, 104
3, 24381, Note_off_c, 0, 77, 0
3, 24381, Note_off_c, 0, 81, 0
3, 24432, Note_on_c, 0, 77, 104
3, 24432, Note_on_c, 0, 72, 104
3, 24568, Note_off_c, 0, 72, 0
3, 24568, Note_off_c, 0, 77, 0
3, 24576, Note_on_c, 0, 86, 104
3, 24576, Note_on_c, 0, 79, 104
3, 24667, Note_off_c, 0, 86, 0
3, 24667, Note_off_c, 0, 79, 0
3, 24672, Note_on_c, 0, 82, 104
3, 24672, Note_on_c, 0, 79, 104
3, 24717, Note_off_c, 0, 79, 0
3, 24717, Note_off_c, 0, 82, 0
3, 24720, Note_on_c, 0, 84, 104
3, 24720, Note_on_c, 0, 81, 104
3, 24765, Note_off_c, 0, 84, 0
3, 24765, Note_off_c, 0, 81, 0
3, 24816, Note_on_c, 0, 81, 104
3, 24816, Note_on_c, 0, 77, 104
3, 24861, Note_off_c, 0, 81, 0
3, 24861, Note_off_c, 0, 77, 0
3, 24864, Note_on_c, 0, 82, 104
3, 24864, Note_on_c, 0, 79, 104
3, 24955, Note_off_c, 0, 82, 0
3, 24955, Note_off_c, 0, 79, 0
3, 25152, Note_on_c, 0, 79, 107
3, 25152, Note_on_c, 0, 74, 107
3, 25152, Note_on_c, 0, 70, 107
3, 25152, Note_on_c, 0, 67, 107
3, 25881, Note_off_c, 0, 79, 0
3, 25881, Note_off_c, 0, 74, 0
3, 25881, Note_off_c, 0, 70, 0
3, 25881, Note_off_c, 0, 67, 0
3, 26496, Note_on_c, 0, 67, 100
3, 26509, Note_off_c, 0, 67, 64
3, 26520, Note_on_c, 0, 72, 100
3, 26533, Note_off_c, 0, 72, 64
3, 26544, Note_on_c, 0, 74, 100
3, 26557, Note_off_c, 0, 74, 64
3, 26568, Note_on_c, 0, 72, 100
3, 26568, Note_on_c, 0, 76, 100
3, 26568, Note_on_c, 0, 64, 100
3, 26617, Note_off_c, 0, 64, 64
3, 26617, Note_off_c, 0, 72, 64
3, 26617, Note_off_c, 0, 76, 64
3, 26640, Note_on_c, 0, 76, 100
3, 26640, Note_on_c, 0, 72, 100
3, 26640, Note_on_c, 0, 64, 100
3, 26689, Note_off_c, 0, 64, 64
3, 26689, Note_off_c, 0, 72, 64
3, 26689, Note_off_c, 0, 76, 64
3, 26712, Note_on_c, 0, 74, 100
3, 26712, Note_on_c, 0, 79, 100
3, 26712, Note_on_c, 0, 67, 100
3, 26761, Note_off_c, 0, 74, 64
3, 26761, Note_off_c, 0, 79, 64
3, 26761, Note_off_c, 0, 67, 64
3, 26784, Note_on_c, 0, 79, 100
3, 26784, Note_on_c, 0, 74, 100
3, 26784, Note_on_c, 0, 67, 100
3, 26833, Note_off_c, 0, 67, 64
3, 26833, Note_off_c, 0, 74, 64
3, 26833, Note_off_c, 0, 79, 64
3, 26856, Note_on_c, 0, 69, 100
3, 26856, Note_on_c, 0, 72, 100
3, 26856, Note_on_c, 0, 64, 100
3, 26953, Note_off_c, 0, 69, 64
3, 26953, Note_off_c, 0, 72, 64
3, 26953, Note_off_c, 0, 64, 64
3, 26976, Note_on_c, 0, 74, 100
3, 26989, Note_off_c, 0, 74, 64
3, 27000, Note_on_c, 0, 72, 100
3, 27000, Note_on_c, 0, 76, 100
3, 27000, Note_on_c, 0, 64, 100
3, 27121, Note_off_c, 0, 64, 64
3, 27121, Note_off_c, 0, 76, 64
3, 27121, Note_off_c, 0, 72, 64
3, 27144, Note_on_c, 0, 77, 100
3, 27144, Note_on_c, 0, 72, 100
3, 27144, Note_on_c, 0, 65, 100
3, 27193, Note_off_c, 0, 65, 64
3, 27193, Note_off_c, 0, 72, 64
3, 27193, Note_off_c, 0, 77, 64
3, 27216, Note_on_c, 0, 76, 100
3, 27216, Note_on_c, 0, 72, 100
3, 27216, Note_on_c, 0, 64, 100
3, 27265, Note_off_c, 0, 64, 64
3, 27265, Note_off_c, 0, 72, 64
3, 27265, Note_off_c, 0, 76, 64
3, 27288, Note_on_c, 0, 74, 100
3, 27288, Note_on_c, 0, 69, 100
3, 27288, Note_on_c, 0, 62, 100
3, 27337, Note_off_c, 0, 74, 64
3, 27337, Note_off_c, 0, 69, 64
3, 27337, Note_off_c, 0, 62, 64
3, 27360, Note_on_c, 0, 72, 100
3, 27360, Note_on_c, 0, 60, 100
3, 27409, Note_off_c, 0, 60, 64
3, 27409, Note_off_c, 0, 72, 64
3, 27432, Note_on_c, 0, 72, 100
3, 27432, Note_on_c, 0, 64, 100
3, 27432, Note_on_c, 0, 60, 100
3, 27529, Note_off_c, 0, 72, 64
3, 27529, Note_off_c, 0, 64, 64
3, 27529, Note_off_c, 0, 60, 64
3, 27552, Note_on_c, 0, 71, 100
3, 27552, Note_on_c, 0, 59, 83
3, 27564, Note_off_c, 0, 59, 64
3, 27564, Note_off_c, 0, 71, 64
3, 27576, Note_on_c, 0, 71, 100
3, 27576, Note_on_c, 0, 59, 83
3, 27625, Note_off_c, 0, 59, 64
3, 27625, Note_off_c, 0, 71, 64
3, 27648, Note_on_c, 0, 67, 100
3, 27660, Note_off_c, 0, 67, 64
3, 27672, Note_on_c, 0, 72, 100
3, 27684, Note_off_c, 0, 72, 64
3, 27696, Note_on_c, 0, 74, 100
3, 27708, Note_off_c, 0, 74, 64
3, 27720, Note_on_c, 0, 64, 100
3, 27720, Note_on_c, 0, 76, 100
3, 27720, Note_on_c, 0, 72, 100
3, 27769, Note_off_c, 0, 72, 64
3, 27769, Note_off_c, 0, 76, 64
3, 27769, Note_off_c, 0, 64, 64
3, 27792, Note_on_c, 0, 76, 100
3, 27792, Note_on_c, 0, 72, 100
3, 27792, Note_on_c, 0, 64, 100
3, 27841, Note_off_c, 0, 64, 64
3, 27841, Note_off_c, 0, 72, 64
3, 27841, Note_off_c, 0, 76, 64
3, 27864, Note_on_c, 0, 79, 100
3, 27864, Note_on_c, 0, 74, 100
3, 27864, Note_on_c, 0, 67, 100
3, 27913, Note_off_c, 0, 67, 64
3, 27913, Note_off_c, 0, 74, 64
3, 27913, Note_off_c, 0, 79, 64
3, 27936, Note_on_c, 0, 67, 100
3, 27936, Note_on_c, 0, 74, 100
3, 27936, Note_on_c, 0, 79, 100
3, 27985, Note_off_c, 0, 79, 64
3, 27985, Note_off_c, 0, 74, 64
3, 27985, Note_off_c, 0, 67, 64
3, 28008, Note_on_c, 0, 72, 100
3, 28008, Note_on_c, 0, 65, 100
3, 28008, Note_on_c, 0, 70, 84
3, 28105, Note_off_c, 0, 70, 64
3, 28105, Note_off_c, 0, 65, 64
3, 28105, Note_off_c, 0, 72, 64
3, 28128, Note_on_c, 0, 74, 100
3, 28141, Note_off_c, 0, 74, 64
3, 28152, Note_on_c, 0, 71, 100
3, 28152, Note_on_c, 0, 76, 100
3, 28152, Note_on_c, 0, 64, 100
3, 28273, Note_off_c, 0, 64, 64
3, 28273, Note_off_c, 0, 76, 64
3, 28273, Note_off_c, 0, 71, 64
3, 28296, Note_on_c, 0, 72, 100
3, 28296, Note_on_c, 0, 77, 100
3, 28296, Note_on_c, 0, 65, 100
3, 28351, Note_off_c, 0, 65, 64
3, 28351, Note_off_c, 0, 77, 64
3, 28351, Note_off_c, 0, 72, 64
3, 28374, Note_on_c, 0, 76, 100
3, 28374, Note_on_c, 0, 72, 100
3, 28374, Note_on_c, 0, 64, 100
3, 28429, Note_off_c, 0, 64, 64
3, 28429, Note_off_c, 0, 72, 64
3, 28429, Note_off_c, 0, 76, 64
3, 28452, Note_on_c, 0, 74, 100
3, 28452, Note_on_c, 0, 71, 100
3, 28452, Note_on_c, 0, 62, 100
3, 28507, Note_off_c, 0, 62, 64
3, 28507, Note_off_c, 0, 71, 64
3, 28507, Note_off_c, 0, 74, 64
3, 28530, Note_on_c, 0, 72, 100
3, 28530, Note_on_c, 0, 60, 100
3, 28585, Note_off_c, 0, 60, 64
3, 28585, Note_off_c, 0, 72, 64
3, 28608, Note_on_c, 0, 69, 96
3, 28633, Note_off_c, 0, 69, 64
3, 28656, Note_on_c, 0, 72, 96
3, 28681, Note_off_c, 0, 72, 64
3, 28704, Note_on_c, 0, 71, 96
3, 28729, Note_off_c, 0, 71, 64
3, 28752, Note_on_c, 0, 72, 96
3, 28777, Note_off_c, 0, 72, 64
3, 28800, Note_on_c, 0, 74, 96
3, 28825, Note_off_c, 0, 74, 64
3, 28848, Note_on_c, 0, 72, 96
3, 28873, Note_off_c, 0, 72, 64
3, 28896, Note_on_c, 0, 71, 96
3, 28921, Note_off_c, 0, 71, 64
3, 28944, Note_on_c, 0, 67, 96
3, 28969, Note_off_c, 0, 67, 64
3, 28992, Note_on_c, 0, 74, 96
3, 29017, Note_off_c, 0, 74, 64
3, 29040, Note_on_c, 0, 72, 96
3, 29065, Note_off_c, 0, 72, 64
3, 29088, Note_on_c, 0, 71, 96
3, 29113, Note_off_c, 0, 71, 64
3, 29136, Note_on_c, 0, 67, 96
3, 29161, Note_off_c, 0, 67, 64
3, 29184, Note_on_c, 0, 74, 96
3, 29209, Note_off_c, 0, 74, 64
3, 29232, Note_on_c, 0, 72, 96
3, 29257, Note_off_c, 0, 72, 64
3, 29280, Note_on_c, 0, 71, 96
3, 29305, Note_off_c, 0, 71, 64
3, 29328, Note_on_c, 0, 72, 96
3, 29353, Note_off_c, 0, 72, 64
3, 29376, Note_on_c, 0, 69, 96
3, 29401, Note_off_c, 0, 69, 64
3, 29424, Note_on_c, 0, 72, 96
3, 29449, Note_off_c, 0, 72, 64
3, 29472, Note_on_c, 0, 71, 96
3, 29497, Note_off_c, 0, 71, 64
3, 29520, Note_on_c, 0, 72, 96
3, 29545, Note_off_c, 0, 72, 64
3, 29568, Note_on_c, 0, 74, 96
3, 29593, Note_off_c, 0, 74, 64
3, 29616, Note_on_c, 0, 72, 96
3, 29641, Note_off_c, 0, 72, 64
3, 29664, Note_on_c, 0, 71, 96
3, 29689, Note_off_c, 0, 71, 64
3, 29712, Note_on_c, 0, 67, 96
3, 29737, Note_off_c, 0, 67, 64
3, 29760, Note_on_c, 0, 74, 96
3, 29760, Note_on_c, 0, 77, 96
3, 29785, Note_off_c, 0, 74, 64
3, 29808, Note_on_c, 0, 72, 96
3, 29833, Note_off_c, 0, 72, 64
3, 29856, Note_on_c, 0, 71, 96
3, 29881, Note_off_c, 0, 71, 64
3, 29904, Note_on_c, 0, 67, 96
3, 29929, Note_off_c, 0, 77, 64
3, 29929, Note_off_c, 0, 67, 64
3, 29952, Note_on_c, 0, 74, 96
3, 29952, Note_on_c, 0, 79, 96
3, 29977, Note_off_c, 0, 74, 64
3, 30000, Note_on_c, 0, 72, 96
3, 30025, Note_off_c, 0, 72, 64
3, 30048, Note_on_c, 0, 71, 96
3, 30073, Note_off_c, 0, 71, 64
3, 30096, Note_on_c, 0, 72, 96
3, 30121, Note_off_c, 0, 72, 64
3, 30144, Note_on_c, 0, 69, 96
3, 30145, Note_off_c, 0, 79, 64
3, 30169, Note_off_c, 0, 69, 64
3, 30192, Note_on_c, 0, 72, 96
3, 30217, Note_off_c, 0, 72, 64
3, 30240, Note_on_c, 0, 81, 96
3, 30240, Note_on_c, 0, 71, 96
3, 30240, Note_on_c, 0, 76, 96
3, 30265, Note_off_c, 0, 76, 64
3, 30265, Note_off_c, 0, 81, 64
3, 30265, Note_off_c, 0, 71, 64
3, 30288, Note_on_c, 0, 72, 96
3, 30313, Note_off_c, 0, 72, 64
3, 30336, Note_on_c, 0, 74, 96
3, 30361, Note_off_c, 0, 74, 64
3, 30384, Note_on_c, 0, 72, 96
3, 30409, Note_off_c, 0, 72, 64
3, 30432, Note_on_c, 0, 81, 96
3, 30432, Note_on_c, 0, 71, 96
3, 30432, Note_on_c, 0, 76, 96
3, 30457, Note_off_c, 0, 76, 64
3, 30457, Note_off_c, 0, 81, 64
3, 30457, Note_off_c, 0, 71, 64
3, 30480, Note_on_c, 0, 67, 96
3, 30505, Note_off_c, 0, 67, 64
3, 30528, Note_on_c, 0, 74, 96
3, 30553, Note_off_c, 0, 74, 64
3, 30576, Note_on_c, 0, 72, 96
3, 30601, Note_off_c, 0, 72, 64
3, 30624, Note_on_c, 0, 71, 96
3, 30624, Note_on_c, 0, 81, 96
3, 30624, Note_on_c, 0, 76, 96
3, 30649, Note_off_c, 0, 76, 64
3, 30649, Note_off_c, 0, 71, 64
3, 30649, Note_off_c, 0, 81, 64
3, 30672, Note_on_c, 0, 67, 96
3, 30697, Note_off_c, 0, 67, 64
3, 30720, Note_on_c, 0, 74, 96
3, 30745, Note_off_c, 0, 74, 64
3, 30768, Note_on_c, 0, 72, 96
3, 30793, Note_off_c, 0, 72, 64
3, 30816, Note_on_c, 0, 71, 96
3, 30816, Note_on_c, 0, 79, 96
3, 30816, Note_on_c, 0, 76, 96
3, 30841, Note_off_c, 0, 76, 64
3, 30841, Note_off_c, 0, 71, 64
3, 30841, Note_off_c, 0, 79, 64
3, 30864, Note_on_c, 0, 72, 96
3, 30889, Note_off_c, 0, 72, 64
3, 30912, Note_on_c, 0, 69, 96
3, 30937, Note_off_c, 0, 69, 64
3, 30960, Note_on_c, 0, 72, 96
3, 30985, Note_off_c, 0, 72, 64
3, 31008, Note_on_c, 0, 71, 96
3, 31008, Note_on_c, 0, 81, 96
3, 31008, Note_on_c, 0, 76, 96
3, 31033, Note_off_c, 0, 76, 64
3, 31033, Note_off_c, 0, 71, 64
3, 31033, Note_off_c, 0, 81, 64
3, 31056, Note_on_c, 0, 72, 96
3, 31081, Note_off_c, 0, 72, 64
3, 31104, Note_on_c, 0, 74, 96
3, 31129, Note_off_c, 0, 74, 64
3, 31152, Note_on_c, 0, 72, 96
3, 31177, Note_off_c, 0, 72, 64
3, 31200, Note_on_c, 0, 71, 96
3, 31200, Note_on_c, 0, 79, 96
3, 31225, Note_off_c, 0, 71, 64
3, 31248, Note_on_c, 0, 67, 96
3, 31273, Note_off_c, 0, 79, 64
3, 31273, Note_off_c, 0, 67, 64
3, 31296, Note_on_c, 0, 74, 96
3, 31296, Note_on_c, 0, 82, 96
3, 31296, Note_on_c, 0, 77, 96
3, 31321, Note_off_c, 0, 74, 64
3, 31344, Note_on_c, 0, 72, 96
3, 31369, Note_off_c, 0, 72, 64
3, 31392, Note_on_c, 0, 71, 96
3, 31417, Note_off_c, 0, 71, 64
3, 31440, Note_on_c, 0, 67, 96
3, 31465, Note_off_c, 0, 77, 64
3, 31465, Note_off_c, 0, 82, 64
3, 31465, Note_off_c, 0, 67, 64
3, 31488, Note_on_c, 0, 74, 96
3, 31488, Note_on_c, 0, 80, 96
3, 31488, Note_on_c, 0, 76, 96
3, 31513, Note_off_c, 0, 74, 64
3, 31536, Note_on_c, 0, 72, 96
3, 31561, Note_off_c, 0, 72, 64
3, 31584, Note_on_c, 0, 71, 96
3, 31609, Note_off_c, 0, 71, 64
3, 31632, Note_on_c, 0, 72, 96
3, 31657, Note_off_c, 0, 76, 64
3, 31657, Note_off_c, 0, 80, 64
3, 31657, Note_off_c, 0, 72, 64
3, 31680, Note_on_c, 0, 69, 96
3, 31680, Note_on_c, 0, 81, 96
3, 31705, Note_off_c, 0, 69, 64
3, 31705, Note_off_c, 0, 81, 64
3, 31728, Note_on_c, 0, 72, 96
3, 31753, Note_off_c, 0, 72, 64
3, 31776, Note_on_c, 0, 71, 96
3, 31801, Note_off_c, 0, 71, 64
3, 31824, Note_on_c, 0, 72, 96
3, 31849, Note_off_c, 0, 72, 64
3, 31872, Note_on_c, 0, 74, 96
3, 31897, Note_off_c, 0, 74, 64
3, 31920, Note_on_c, 0, 72, 95
3, 31945, Note_off_c, 0, 72, 64
3, 31968, Note_on_c, 0, 71, 95
3, 31993, Note_off_c, 0, 71, 64
3, 32016, Note_on_c, 0, 67, 95
3, 32041, Note_off_c, 0, 67, 64
3, 32064, Note_on_c, 0, 73, 95
3, 32064, Note_on_c, 0, 61, 95
3, 32425, Note_off_c, 0, 61, 64
3, 32425, Note_off_c, 0, 73, 64
3, 32448, Note_on_c, 0, 73, 95
3, 32448, Note_on_c, 0, 69, 95
3, 32569, Note_off_c, 0, 69, 64
3, 32569, Note_off_c, 0, 73, 64
3, 32592, Note_on_c, 0, 73, 95
3, 32592, Note_on_c, 0, 78, 95
3, 32713, Note_off_c, 0, 78, 64
3, 32713, Note_off_c, 0, 73, 64
3, 32736, Note_on_c, 0, 69, 95
3, 32736, Note_on_c, 0, 73, 95
3, 32809, Note_off_c, 0, 73, 64
3, 32809, Note_off_c, 0, 69, 64
3, 32832, Note_on_c, 0, 76, 95
3, 32832, Note_on_c, 0, 71, 95
3, 32953, Note_off_c, 0, 71, 64
3, 32953, Note_off_c, 0, 76, 64
3, 32976, Note_on_c, 0, 74, 95
3, 32989, Note_off_c, 0, 74, 64
3, 33000, Note_on_c, 0, 73, 95
3, 33013, Note_off_c, 0, 73, 64
3, 33024, Note_on_c, 0, 71, 95
3, 33024, Note_on_c, 0, 67, 95
3, 33145, Note_off_c, 0, 67, 64
3, 33145, Note_off_c, 0, 71, 64
3, 33168, Note_on_c, 0, 69, 95
3, 33193, Note_off_c, 0, 69, 64
3, 33216, Note_on_c, 0, 71, 95
3, 33216, Note_on_c, 0, 67, 95
3, 33361, Note_off_c, 0, 67, 64
3, 33361, Note_off_c, 0, 71, 64
3, 33456, Note_on_c, 0, 73, 95
3, 33456, Note_on_c, 0, 66, 95
3, 33529, Note_off_c, 0, 66, 64
3, 33529, Note_off_c, 0, 73, 64
3, 33552, Note_on_c, 0, 74, 95
3, 33577, Note_off_c, 0, 74, 64
3, 33600, Note_on_c, 0, 73, 95
3, 33600, Note_on_c, 0, 66, 95
3, 33600, Note_on_c, 0, 69, 95
3, 33673, Note_off_c, 0, 69, 64
3, 33673, Note_off_c, 0, 73, 64
3, 33673, Note_off_c, 0, 66, 64
3, 33696, Note_on_c, 0, 66, 95
3, 33769, Note_off_c, 0, 66, 64
3, 33840, Note_on_c, 0, 73, 95
3, 33840, Note_on_c, 0, 66, 95
3, 33913, Note_off_c, 0, 66, 64
3, 33913, Note_off_c, 0, 73, 64
3, 33936, Note_on_c, 0, 74, 95
3, 33961, Note_off_c, 0, 74, 64
3, 33984, Note_on_c, 0, 66, 95
3, 33984, Note_on_c, 0, 73, 95
3, 34057, Note_off_c, 0, 73, 64
3, 34057, Note_off_c, 0, 66, 64
3, 34080, Note_on_c, 0, 71, 95
3, 34093, Note_off_c, 0, 71, 64
3, 34104, Note_on_c, 0, 71, 95
3, 34117, Note_off_c, 0, 71, 64
3, 34128, Note_on_c, 0, 71, 95
3, 34128, Note_on_c, 0, 76, 95
3, 34249, Note_off_c, 0, 76, 64
3, 34249, Note_off_c, 0, 71, 64
3, 34272, Note_on_c, 0, 74, 95
3, 34272, Note_on_c, 0, 71, 95
3, 34345, Note_off_c, 0, 71, 64
3, 34345, Note_off_c, 0, 74, 64
3, 34368, Note_on_c, 0, 71, 95
3, 34368, Note_on_c, 0, 76, 95
3, 34585, Note_off_c, 0, 76, 64
3, 34585, Note_off_c, 0, 71, 64
3, 34656, Note_on_c, 0, 71, 95
3, 34656, Note_on_c, 0, 59, 95
3, 34656, Note_on_c, 0, 66, 95
3, 34729, Note_off_c, 0, 66, 64
3, 34729, Note_off_c, 0, 71, 64
3, 34729, Note_off_c, 0, 59, 64
3, 34752, Note_on_c, 0, 71, 95
3, 34752, Note_on_c, 0, 64, 95
3, 34752, Note_on_c, 0, 76, 95
3, 34921, Note_off_c, 0, 76, 64
3, 34921, Note_off_c, 0, 71, 64
3, 34921, Note_off_c, 0, 64, 64
3, 34944, Note_on_c, 0, 80, 95
3, 34944, Note_on_c, 0, 68, 95
3, 34944, Note_on_c, 0, 76, 95
3, 35113, Note_off_c, 0, 76, 64
3, 35113, Note_off_c, 0, 80, 64
3, 35113, Note_off_c, 0, 68, 64
3, 35136, Note_on_c, 0, 68, 100
3, 35136, Note_on_c, 0, 73, 100
3, 35136, Note_on_c, 0, 61, 100
3, 35161, Note_off_c, 0, 61, 64
3, 35161, Note_off_c, 0, 73, 64
3, 35161, Note_off_c, 0, 68, 64
3, 35184, Note_on_c, 0, 68, 100
3, 35184, Note_on_c, 0, 73, 100
3, 35184, Note_on_c, 0, 61, 100
3, 35209, Note_off_c, 0, 61, 64
3, 35209, Note_off_c, 0, 73, 64
3, 35209, Note_off_c, 0, 68, 64
3, 35232, Note_on_c, 0, 61, 100
3, 35232, Note_on_c, 0, 73, 100
3, 35232, Note_on_c, 0, 68, 100
3, 35257, Note_off_c, 0, 68, 64
3, 35257, Note_off_c, 0, 73, 64
3, 35257, Note_off_c, 0, 61, 64
3, 35280, Note_on_c, 0, 69, 100
3, 35280, Note_on_c, 0, 74, 100
3, 35280, Note_on_c, 0, 62, 100
3, 35329, Note_off_c, 0, 62, 64
3, 35329, Note_off_c, 0, 74, 64
3, 35329, Note_off_c, 0, 69, 64
3, 35376, Note_on_c, 0, 59, 100
3, 35376, Note_on_c, 0, 71, 100
3, 35376, Note_on_c, 0, 66, 100
3, 35425, Note_off_c, 0, 66, 64
3, 35425, Note_off_c, 0, 71, 64
3, 35425, Note_off_c, 0, 59, 64
3, 35472, Note_on_c, 0, 61, 100
3, 35472, Note_on_c, 0, 73, 100
3, 35472, Note_on_c, 0, 68, 100
3, 35521, Note_off_c, 0, 68, 64
3, 35521, Note_off_c, 0, 73, 64
3, 35521, Note_off_c, 0, 61, 64
3, 35568, Note_on_c, 0, 63, 100
3, 35568, Note_on_c, 0, 68, 100
3, 35568, Note_on_c, 0, 56, 100
3, 35641, Note_off_c, 0, 56, 64
3, 35641, Note_off_c, 0, 68, 64
3, 35641, Note_off_c, 0, 63, 64
3, 35664, Note_on_c, 0, 56, 100
3, 35664, Note_on_c, 0, 68, 100
3, 35664, Note_on_c, 0, 63, 100
3, 35689, Note_off_c, 0, 63, 64
3, 35689, Note_off_c, 0, 68, 64
3, 35689, Note_off_c, 0, 56, 64
3, 35712, Note_on_c, 0, 64, 100
3, 35712, Note_on_c, 0, 69, 100
3, 35712, Note_on_c, 0, 57, 100
3, 35785, Note_off_c, 0, 57, 64
3, 35785, Note_off_c, 0, 69, 64
3, 35785, Note_off_c, 0, 64, 64
3, 35808, Note_on_c, 0, 66, 100
3, 35808, Note_on_c, 0, 71, 100
3, 35808, Note_on_c, 0, 59, 100
3, 35881, Note_off_c, 0, 59, 64
3, 35881, Note_off_c, 0, 71, 64
3, 35881, Note_off_c, 0, 66, 64
3, 35904, Note_on_c, 0, 61, 100
3, 35904, Note_on_c, 0, 73, 100
3, 35904, Note_on_c, 0, 68, 100
3, 35929, Note_off_c, 0, 68, 64
3, 35929, Note_off_c, 0, 73, 64
3, 35929, Note_off_c, 0, 61, 64
3, 35952, Note_on_c, 0, 61, 100
3, 35952, Note_on_c, 0, 73, 100
3, 35952, Note_on_c, 0, 68, 100
3, 35977, Note_off_c, 0, 68, 64
3, 35977, Note_off_c, 0, 73, 64
3, 35977, Note_off_c, 0, 61, 64
3, 36000, Note_on_c, 0, 61, 100
3, 36000, Note_on_c, 0, 73, 100
3, 36000, Note_on_c, 0, 68, 100
3, 36025, Note_off_c, 0, 68, 64
3, 36025, Note_off_c, 0, 73, 64
3, 36025, Note_off_c, 0, 61, 64
3, 36048, Note_on_c, 0, 69, 100
3, 36048, Note_on_c, 0, 74, 100
3, 36048, Note_on_c, 0, 62, 100
3, 36121, Note_off_c, 0, 62, 64
3, 36121, Note_off_c, 0, 74, 64
3, 36121, Note_off_c, 0, 69, 64
3, 36144, Note_on_c, 0, 66, 100
3, 36144, Note_on_c, 0, 71, 100
3, 36144, Note_on_c, 0, 59, 100
3, 36217, Note_off_c, 0, 59, 64
3, 36217, Note_off_c, 0, 71, 64
3, 36217, Note_off_c, 0, 66, 64
3, 36240, Note_on_c, 0, 61, 100
3, 36240, Note_on_c, 0, 73, 100
3, 36240, Note_on_c, 0, 68, 100
3, 36289, Note_off_c, 0, 68, 64
3, 36289, Note_off_c, 0, 73, 64
3, 36289, Note_off_c, 0, 61, 64
3, 36336, Note_on_c, 0, 63, 100
3, 36336, Note_on_c, 0, 68, 100
3, 36336, Note_on_c, 0, 56, 100
3, 36409, Note_off_c, 0, 56, 64
3, 36409, Note_off_c, 0, 68, 64
3, 36409, Note_off_c, 0, 63, 64
3, 36432, Note_on_c, 0, 56, 100
3, 36432, Note_on_c, 0, 68, 100
3, 36432, Note_on_c, 0, 63, 100
3, 36457, Note_off_c, 0, 63, 64
3, 36457, Note_off_c, 0, 68, 64
3, 36457, Note_off_c, 0, 56, 64
3, 36480, Note_on_c, 0, 57, 100
3, 36480, Note_on_c, 0, 69, 100
3, 36480, Note_on_c, 0, 64, 100
3, 36553, Note_off_c, 0, 64, 64
3, 36553, Note_off_c, 0, 69, 64
3, 36553, Note_off_c, 0, 57, 64
3, 36576, Note_on_c, 0, 59, 100
3, 36576, Note_on_c, 0, 71, 100
3, 36576, Note_on_c, 0, 66, 100
3, 36649, Note_off_c, 0, 66, 64
3, 36649, Note_off_c, 0, 71, 64
3, 36649, Note_off_c, 0, 59, 64
3, 36672, Note_on_c, 0, 73, 103
3, 36672, Note_on_c, 0, 66, 103
3, 36672, Note_on_c, 0, 61, 103
3, 36793, Note_off_c, 0, 61, 64
3, 36793, Note_off_c, 0, 73, 64
3, 36793, Note_off_c, 0, 66, 64
3, 36816, Note_on_c, 0, 78, 103
3, 36816, Note_on_c, 0, 66, 103
3, 36816, Note_on_c, 0, 73, 103
3, 36937, Note_off_c, 0, 73, 64
3, 36937, Note_off_c, 0, 66, 64
3, 36937, Note_off_c, 0, 78, 64
3, 36960, Note_on_c, 0, 81, 103
3, 36960, Note_on_c, 0, 69, 103
3, 36960, Note_on_c, 0, 78, 103
3, 37033, Note_off_c, 0, 78, 64
3, 37033, Note_off_c, 0, 81, 64
3, 37033, Note_off_c, 0, 69, 64
3, 37056, Note_on_c, 0, 80, 103
3, 37056, Note_on_c, 0, 68, 103
3, 37056, Note_on_c, 0, 74, 103
3, 37129, Note_off_c, 0, 74, 64
3, 37129, Note_off_c, 0, 80, 64
3, 37129, Note_off_c, 0, 68, 64
3, 37152, Note_on_c, 0, 78, 103
3, 37152, Note_on_c, 0, 66, 103
3, 37177, Note_off_c, 0, 66, 64
3, 37177, Note_off_c, 0, 78, 64
3, 37200, Note_on_c, 0, 76, 103
3, 37200, Note_on_c, 0, 64, 103
3, 37200, Note_on_c, 0, 71, 103
3, 37321, Note_off_c, 0, 71, 64
3, 37321, Note_off_c, 0, 64, 64
3, 37321, Note_off_c, 0, 76, 64
3, 37344, Note_on_c, 0, 74, 103
3, 37344, Note_on_c, 0, 62, 103
3, 37369, Note_off_c, 0, 62, 64
3, 37369, Note_off_c, 0, 74, 64
3, 37392, Note_on_c, 0, 61, 103
3, 37392, Note_on_c, 0, 69, 103
3, 37392, Note_on_c, 0, 73, 103
3, 37561, Note_off_c, 0, 73, 64
3, 37561, Note_off_c, 0, 69, 64
3, 37561, Note_off_c, 0, 61, 64
3, 37584, Note_on_c, 0, 73, 103
3, 37584, Note_on_c, 0, 61, 103
3, 37584, Note_on_c, 0, 69, 103
3, 37657, Note_off_c, 0, 69, 64
3, 37657, Note_off_c, 0, 61, 64
3, 37657, Note_off_c, 0, 73, 64
3, 37680, Note_on_c, 0, 74, 103
3, 37680, Note_on_c, 0, 62, 103
3, 37753, Note_off_c, 0, 62, 64
3, 37753, Note_off_c, 0, 74, 64
3, 37776, Note_on_c, 0, 73, 103
3, 37776, Note_on_c, 0, 61, 103
3, 37801, Note_off_c, 0, 61, 64
3, 37801, Note_off_c, 0, 73, 64
3, 37824, Note_on_c, 0, 61, 103
3, 37824, Note_on_c, 0, 73, 103
3, 37945, Note_off_c, 0, 73, 64
3, 37945, Note_off_c, 0, 61, 64
3, 37968, Note_on_c, 0, 71, 103
3, 37968, Note_on_c, 0, 59, 103
3, 37993, Note_off_c, 0, 59, 64
3, 37993, Note_off_c, 0, 71, 64
3, 38016, Note_on_c, 0, 71, 103
3, 38016, Note_on_c, 0, 59, 103
3, 38016, Note_on_c, 0, 68, 103
3, 38137, Note_off_c, 0, 68, 64
3, 38137, Note_off_c, 0, 71, 64
3, 38137, Note_off_c, 0, 59, 64
3, 38160, Note_on_c, 0, 69, 103
3, 38173, Note_off_c, 0, 69, 64
3, 38184, Note_on_c, 0, 71, 103
3, 38197, Note_off_c, 0, 71, 64
3, 38208, Note_on_c, 0, 61, 103
3, 38208, Note_on_c, 0, 73, 103
3, 38208, Note_on_c, 0, 66, 103
3, 38329, Note_off_c, 0, 66, 64
3, 38329, Note_off_c, 0, 61, 64
3, 38329, Note_off_c, 0, 73, 64
3, 38352, Note_on_c, 0, 78, 103
3, 38352, Note_on_c, 0, 66, 103
3, 38352, Note_on_c, 0, 73, 103
3, 38473, Note_off_c, 0, 73, 64
3, 38473, Note_off_c, 0, 66, 64
3, 38473, Note_off_c, 0, 78, 64
3, 38496, Note_on_c, 0, 81, 103
3, 38496, Note_on_c, 0, 69, 103
3, 38496, Note_on_c, 0, 78, 103
3, 38569, Note_off_c, 0, 78, 64
3, 38569, Note_off_c, 0, 81, 64
3, 38569, Note_off_c, 0, 69, 64
3, 38592, Note_on_c, 0, 83, 103
3, 38592, Note_on_c, 0, 71, 103
3, 38592, Note_on_c, 0, 78, 103
3, 38665, Note_off_c, 0, 78, 64
3, 38665, Note_off_c, 0, 83, 64
3, 38665, Note_off_c, 0, 71, 64
3, 38688, Note_on_c, 0, 81, 103
3, 38688, Note_on_c, 0, 69, 103
3, 38713, Note_off_c, 0, 69, 64
3, 38713, Note_off_c, 0, 81, 64
3, 38736, Note_on_c, 0, 68, 103
3, 38736, Note_on_c, 0, 80, 103
3, 38736, Note_on_c, 0, 74, 103
3, 38809, Note_off_c, 0, 74, 64
3, 38809, Note_off_c, 0, 80, 64
3, 38809, Note_off_c, 0, 68, 64
3, 38832, Note_on_c, 0, 78, 103
3, 38832, Note_on_c, 0, 66, 103
3, 38857, Note_off_c, 0, 66, 64
3, 38857, Note_off_c, 0, 78, 64
3, 38880, Note_on_c, 0, 78, 103
3, 38880, Note_on_c, 0, 66, 103
3, 38905, Note_off_c, 0, 66, 64
3, 38905, Note_off_c, 0, 78, 64
3, 38928, Note_on_c, 0, 76, 103
3, 38928, Note_on_c, 0, 64, 103
3, 38953, Note_off_c, 0, 64, 64
3, 38953, Note_off_c, 0, 76, 64
3, 38976, Note_on_c, 0, 78, 103
3, 38976, Note_on_c, 0, 66, 103
3, 39001, Note_off_c, 0, 66, 64
3, 39001, Note_off_c, 0, 78, 64
3, 39024, Note_on_c, 0, 64, 103
3, 39024, Note_on_c, 0, 76, 103
3, 39193, Note_off_c, 0, 76, 64
3, 39193, Note_off_c, 0, 64, 64
3, 39216, Note_on_c, 0, 69, 103
3, 39241, Note_off_c, 0, 69, 64
3, 39264, Note_on_c, 0, 71, 103
3, 39264, Note_on_c, 0, 59, 103
3, 39289, Note_off_c, 0, 59, 64
3, 39289, Note_off_c, 0, 71, 64
3, 39312, Note_on_c, 0, 72, 103
3, 39312, Note_on_c, 0, 60, 103
3, 39337, Note_off_c, 0, 60, 64
3, 39337, Note_off_c, 0, 72, 64
3, 39360, Note_on_c, 0, 68, 103
3, 39360, Note_on_c, 0, 73, 103
3, 39360, Note_on_c, 0, 61, 103
3, 39385, Note_off_c, 0, 61, 64
3, 39385, Note_off_c, 0, 73, 64
3, 39385, Note_off_c, 0, 68, 64
3, 39408, Note_on_c, 0, 68, 103
3, 39408, Note_on_c, 0, 73, 103
3, 39408, Note_on_c, 0, 61, 103
3, 39433, Note_off_c, 0, 61, 64
3, 39433, Note_off_c, 0, 73, 64
3, 39433, Note_off_c, 0, 68, 64
3, 39456, Note_on_c, 0, 68, 103
3, 39456, Note_on_c, 0, 73, 103
3, 39456, Note_on_c, 0, 61, 103
3, 39481, Note_off_c, 0, 61, 64
3, 39481, Note_off_c, 0, 73, 64
3, 39481, Note_off_c, 0, 68, 64
3, 39504, Note_on_c, 0, 62, 103
3, 39504, Note_on_c, 0, 74, 103
3, 39504, Note_on_c, 0, 69, 103
3, 39577, Note_off_c, 0, 69, 64
3, 39577, Note_off_c, 0, 74, 64
3, 39577, Note_off_c, 0, 62, 64
3, 39600, Note_on_c, 0, 59, 103
3, 39600, Note_on_c, 0, 71, 103
3, 39600, Note_on_c, 0, 66, 103
3, 39673, Note_off_c, 0, 66, 64
3, 39673, Note_off_c, 0, 71, 64
3, 39673, Note_off_c, 0, 59, 64
3, 39696, Note_on_c, 0, 69, 103
3, 39709, Note_off_c, 0, 69, 64
3, 39720, Note_on_c, 0, 71, 103
3, 39733, Note_off_c, 0, 71, 64
3, 39744, Note_on_c, 0, 73, 103
3, 39744, Note_on_c, 0, 66, 103
3, 39744, Note_on_c, 0, 61, 103
3, 39865, Note_off_c, 0, 61, 64
3, 39865, Note_off_c, 0, 73, 64
3, 39865, Note_off_c, 0, 66, 64
3, 39888, Note_on_c, 0, 78, 103
3, 39888, Note_on_c, 0, 66, 103
3, 39888, Note_on_c, 0, 73, 103
3, 40009, Note_off_c, 0, 73, 64
3, 40009, Note_off_c, 0, 66, 64
3, 40009, Note_off_c, 0, 78, 64
3, 40032, Note_on_c, 0, 81, 103
3, 40032, Note_on_c, 0, 69, 103
3, 40032, Note_on_c, 0, 78, 103
3, 40105, Note_off_c, 0, 78, 64
3, 40105, Note_off_c, 0, 81, 64
3, 40105, Note_off_c, 0, 69, 64
3, 40128, Note_on_c, 0, 80, 103
3, 40128, Note_on_c, 0, 68, 103
3, 40128, Note_on_c, 0, 74, 103
3, 40201, Note_off_c, 0, 74, 64
3, 40201, Note_off_c, 0, 80, 64
3, 40201, Note_off_c, 0, 68, 64
3, 40224, Note_on_c, 0, 78, 103
3, 40224, Note_on_c, 0, 66, 103
3, 40249, Note_off_c, 0, 66, 64
3, 40249, Note_off_c, 0, 78, 64
3, 40272, Note_on_c, 0, 76, 103
3, 40272, Note_on_c, 0, 64, 103
3, 40272, Note_on_c, 0, 71, 103
3, 40393, Note_off_c, 0, 71, 64
3, 40393, Note_off_c, 0, 64, 64
3, 40393, Note_off_c, 0, 76, 64
3, 40416, Note_on_c, 0, 74, 103
3, 40416, Note_on_c, 0, 62, 103
3, 40441, Note_off_c, 0, 62, 64
3, 40441, Note_off_c, 0, 74, 64
3, 40464, Note_on_c, 0, 61, 103
3, 40464, Note_on_c, 0, 69, 103
3, 40464, Note_on_c, 0, 73, 103
3, 40633, Note_off_c, 0, 73, 64
3, 40633, Note_off_c, 0, 69, 64
3, 40633, Note_off_c, 0, 61, 64
3, 40656, Note_on_c, 0, 73, 103
3, 40656, Note_on_c, 0, 61, 103
3, 40656, Note_on_c, 0, 69, 103
3, 40729, Note_off_c, 0, 69, 64
3, 40729, Note_off_c, 0, 61, 64
3, 40729, Note_off_c, 0, 73, 64
3, 40752, Note_on_c, 0, 74, 103
3, 40752, Note_on_c, 0, 62, 103
3, 40825, Note_off_c, 0, 62, 64
3, 40825, Note_off_c, 0, 74, 64
3, 40848, Note_on_c, 0, 76, 103
3, 40848, Note_on_c, 0, 64, 103
3, 40873, Note_off_c, 0, 64, 64
3, 40873, Note_off_c, 0, 76, 64
3, 40896, Note_on_c, 0, 73, 103
3, 40896, Note_on_c, 0, 61, 103
3, 41017, Note_off_c, 0, 61, 64
3, 41017, Note_off_c, 0, 73, 64
3, 41040, Note_on_c, 0, 71, 103
3, 41040, Note_on_c, 0, 59, 103
3, 41065, Note_off_c, 0, 59, 64
3, 41065, Note_off_c, 0, 71, 64
3, 41088, Note_on_c, 0, 71, 103
3, 41088, Note_on_c, 0, 59, 103
3, 41088, Note_on_c, 0, 68, 103
3, 41209, Note_off_c, 0, 68, 64
3, 41209, Note_off_c, 0, 71, 64
3, 41209, Note_off_c, 0, 59, 64
3, 41232, Note_on_c, 0, 69, 103
3, 41245, Note_off_c, 0, 69, 64
3, 41256, Note_on_c, 0, 71, 103
3, 41269, Note_off_c, 0, 71, 64
3, 41280, Note_on_c, 0, 61, 103
3, 41280, Note_on_c, 0, 73, 103
3, 41280, Note_on_c, 0, 66, 103
3, 41401, Note_off_c, 0, 66, 64
3, 41401, Note_off_c, 0, 61, 64
3, 41401, Note_off_c, 0, 73, 64
3, 41424, Note_on_c, 0, 78, 103
3, 41424, Note_on_c, 0, 66, 103
3, 41424, Note_on_c, 0, 73, 103
3, 41497, Note_off_c, 0, 73, 64
3, 41497, Note_off_c, 0, 66, 64
3, 41497, Note_off_c, 0, 78, 64
3, 41520, Note_on_c, 0, 81, 103
3, 41520, Note_on_c, 0, 69, 103
3, 41520, Note_on_c, 0, 78, 103
3, 41593, Note_off_c, 0, 78, 64
3, 41593, Note_off_c, 0, 69, 64
3, 41593, Note_off_c, 0, 81, 64
3, 41616, Note_on_c, 0, 69, 103
3, 41616, Note_on_c, 0, 81, 103
3, 41641, Note_off_c, 0, 81, 64
3, 41641, Note_off_c, 0, 69, 64
3, 41664, Note_on_c, 0, 83, 103
3, 41664, Note_on_c, 0, 71, 103
3, 41664, Note_on_c, 0, 78, 103
3, 41737, Note_off_c, 0, 78, 64
3, 41737, Note_off_c, 0, 83, 64
3, 41737, Note_off_c, 0, 71, 64
3, 41760, Note_on_c, 0, 81, 103
3, 41760, Note_on_c, 0, 69, 103
3, 41785, Note_off_c, 0, 69, 64
3, 41785, Note_off_c, 0, 81, 64
3, 41808, Note_on_c, 0, 68, 103
3, 41808, Note_on_c, 0, 80, 103
3, 41808, Note_on_c, 0, 74, 103
3, 41881, Note_off_c, 0, 74, 64
3, 41881, Note_off_c, 0, 80, 64
3, 41881, Note_off_c, 0, 68, 64
3, 41904, Note_on_c, 0, 78, 103
3, 41904, Note_on_c, 0, 66, 103
3, 41929, Note_off_c, 0, 66, 64
3, 41929, Note_off_c, 0, 78, 64
3, 41952, Note_on_c, 0, 78, 103
3, 41952, Note_on_c, 0, 66, 103
3, 41977, Note_off_c, 0, 66, 64
3, 41977, Note_off_c, 0, 78, 64
3, 42000, Note_on_c, 0, 76, 103
3, 42000, Note_on_c, 0, 64, 103
3, 42025, Note_off_c, 0, 64, 64
3, 42025, Note_off_c, 0, 76, 64
3, 42048, Note_on_c, 0, 78, 103
3, 42048, Note_on_c, 0, 66, 103
3, 42073, Note_off_c, 0, 66, 64
3, 42073, Note_off_c, 0, 78, 64
3, 42096, Note_on_c, 0, 64, 103
3, 42096, Note_on_c, 0, 76, 103
3, 42265, Note_off_c, 0, 76, 64
3, 42265, Note_off_c, 0, 64, 64
3, 42288, Note_on_c, 0, 69, 103
3, 42313, Note_off_c, 0, 69, 64
3, 42336, Note_on_c, 0, 59, 103
3, 42336, Note_on_c, 0, 71, 103
3, 42361, Note_off_c, 0, 71, 64
3, 42361, Note_off_c, 0, 59, 64
3, 42384, Note_on_c, 0, 60, 103
3, 42384, Note_on_c, 0, 72, 103
3, 42409, Note_off_c, 0, 72, 64
3, 42409, Note_off_c, 0, 60, 64
3, 42432, Note_on_c, 0, 68, 103
3, 42432, Note_on_c, 0, 73, 103
3, 42432, Note_on_c, 0, 61, 103
3, 42457, Note_off_c, 0, 61, 64
3, 42457, Note_off_c, 0, 73, 64
3, 42457, Note_off_c, 0, 68, 64
3, 42480, Note_on_c, 0, 68, 103
3, 42480, Note_on_c, 0, 73, 103
3, 42480, Note_on_c, 0, 61, 103
3, 42505, Note_off_c, 0, 61, 64
3, 42505, Note_off_c, 0, 73, 64
3, 42505, Note_off_c, 0, 68, 64
3, 42528, Note_on_c, 0, 68, 103
3, 42528, Note_on_c, 0, 73, 103
3, 42528, Note_on_c, 0, 61, 103
3, 42553, Note_off_c, 0, 61, 64
3, 42553, Note_off_c, 0, 73, 64
3, 42553, Note_off_c, 0, 68, 64
3, 42576, Note_on_c, 0, 62, 103
3, 42576, Note_on_c, 0, 74, 103
3, 42576, Note_on_c, 0, 69, 103
3, 42649, Note_off_c, 0, 69, 64
3, 42649, Note_off_c, 0, 74, 64
3, 42649, Note_off_c, 0, 62, 64
3, 42672, Note_on_c, 0, 59, 103
3, 42672, Note_on_c, 0, 71, 103
3, 42672, Note_on_c, 0, 66, 103
3, 42745, Note_off_c, 0, 66, 64
3, 42745, Note_off_c, 0, 71, 64
3, 42745, Note_off_c, 0, 59, 64
3, 42768, Note_on_c, 0, 59, 103
3, 42768, Note_on_c, 0, 71, 103
3, 42793, Note_off_c, 0, 71, 64
3, 42793, Note_off_c, 0, 59, 64
3, 42816, Note_on_c, 0, 73, 103
3, 42816, Note_on_c, 0, 61, 103
3, 42816, Note_on_c, 0, 69, 103
3, 42937, Note_off_c, 0, 69, 64
3, 42937, Note_off_c, 0, 73, 64
3, 42937, Note_off_c, 0, 61, 64
3, 42960, Note_on_c, 0, 78, 103
3, 42960, Note_on_c, 0, 66, 103
3, 42960, Note_on_c, 0, 73, 103
3, 43081, Note_off_c, 0, 73, 64
3, 43081, Note_off_c, 0, 66, 64
3, 43081, Note_off_c, 0, 78, 64
3, 43104, Note_on_c, 0, 81, 103
3, 43104, Note_on_c, 0, 69, 103
3, 43104, Note_on_c, 0, 78, 103
3, 43177, Note_off_c, 0, 78, 64
3, 43177, Note_off_c, 0, 81, 64
3, 43177, Note_off_c, 0, 69, 64
3, 43200, Note_on_c, 0, 68, 103
3, 43200, Note_on_c, 0, 80, 103
3, 43200, Note_on_c, 0, 76, 103
3, 43273, Note_off_c, 0, 76, 64
3, 43273, Note_off_c, 0, 80, 64
3, 43273, Note_off_c, 0, 68, 64
3, 43344, Note_on_c, 0, 81, 103
3, 43344, Note_on_c, 0, 69, 103
3, 43417, Note_off_c, 0, 81, 64
3, 43417, Note_off_c, 0, 69, 64
3, 43440, Note_on_c, 0, 80, 103
3, 43440, Note_on_c, 0, 68, 103
3, 43465, Note_off_c, 0, 80, 64
3, 43465, Note_off_c, 0, 68, 64
3, 43488, Note_on_c, 0, 78, 103
3, 43488, Note_on_c, 0, 66, 103
3, 43513, Note_off_c, 0, 78, 64
3, 43513, Note_off_c, 0, 66, 64
3, 43536, Note_on_c, 0, 80, 103
3, 43536, Note_on_c, 0, 68, 103
3, 43561, Note_off_c, 0, 80, 64
3, 43561, Note_off_c, 0, 68, 64
3, 43584, Note_on_c, 0, 68, 103
3, 43584, Note_on_c, 0, 80, 103
3, 43584, Note_on_c, 0, 76, 103
3, 43753, Note_off_c, 0, 76, 64
3, 43753, Note_off_c, 0, 68, 64
3, 43753, Note_off_c, 0, 80, 64
3, 43776, Note_on_c, 0, 78, 100
3, 43776, Note_on_c, 0, 66, 100
3, 43776, Note_on_c, 0, 73, 100
3, 43945, Note_off_c, 0, 73, 64
3, 43945, Note_off_c, 0, 78, 64
3, 43945, Note_off_c, 0, 66, 64
3, 43968, Note_on_c, 0, 71, 100
3, 43993, Note_off_c, 0, 71, 64
3, 44016, Note_on_c, 0, 69, 100
3, 44041, Note_off_c, 0, 69, 64
3, 44064, Note_on_c, 0, 68, 100
3, 44089, Note_off_c, 0, 68, 64
3, 44112, Note_on_c, 0, 64, 100
3, 44137, Note_off_c, 0, 64, 64
3, 44160, Note_on_c, 0, 71, 100
3, 44185, Note_off_c, 0, 71, 64
3, 44208, Note_on_c, 0, 69, 100
3, 44233, Note_off_c, 0, 69, 64
3, 44256, Note_on_c, 0, 68, 100
3, 44281, Note_off_c, 0, 68, 64
3, 44304, Note_on_c, 0, 69, 100
3, 44329, Note_off_c, 0, 69, 64
3, 44352, Note_on_c, 0, 66, 100
3, 44377, Note_off_c, 0, 66, 64
3, 44400, Note_on_c, 0, 69, 100
3, 44425, Note_off_c, 0, 69, 64
3, 44448, Note_on_c, 0, 68, 100
3, 44448, Note_on_c, 0, 78, 100
3, 44448, Note_on_c, 0, 73, 100
3, 44473, Note_off_c, 0, 73, 64
3, 44473, Note_off_c, 0, 68, 64
3, 44473, Note_off_c, 0, 78, 64
3, 44496, Note_on_c, 0, 69, 100
3, 44521, Note_off_c, 0, 69, 64
3, 44544, Note_on_c, 0, 71, 100
3, 44569, Note_off_c, 0, 71, 64
3, 44592, Note_on_c, 0, 69, 100
3, 44617, Note_off_c, 0, 69, 64
3, 44640, Note_on_c, 0, 68, 100
3, 44640, Note_on_c, 0, 76, 100
3, 44665, Note_off_c, 0, 68, 64
3, 44688, Note_on_c, 0, 64, 100
3, 44713, Note_off_c, 0, 76, 64
3, 44713, Note_off_c, 0, 64, 64
3, 44736, Note_on_c, 0, 74, 100
3, 44736, Note_on_c, 0, 71, 100
3, 44761, Note_off_c, 0, 71, 64
3, 44784, Note_on_c, 0, 69, 100
3, 44809, Note_off_c, 0, 69, 64
3, 44832, Note_on_c, 0, 68, 100
3, 44857, Note_off_c, 0, 68, 64
3, 44880, Note_on_c, 0, 64, 100
3, 44905, Note_off_c, 0, 74, 64
3, 44905, Note_off_c, 0, 64, 64
3, 44928, Note_on_c, 0, 76, 100
3, 44928, Note_on_c, 0, 71, 100
3, 44953, Note_off_c, 0, 71, 64
3, 44976, Note_on_c, 0, 69, 100
3, 45001, Note_off_c, 0, 69, 64
3, 45024, Note_on_c, 0, 68, 100
3, 45049, Note_off_c, 0, 68, 64
3, 45072, Note_on_c, 0, 69, 100
3, 45097, Note_off_c, 0, 76, 64
3, 45097, Note_off_c, 0, 69, 64
3, 45120, Note_on_c, 0, 69, 100
3, 45145, Note_off_c, 0, 69, 64
3, 45168, Note_on_c, 0, 72, 100
3, 45193, Note_off_c, 0, 72, 64
3, 45216, Note_on_c, 0, 76, 100
3, 45216, Note_on_c, 0, 81, 100
3, 45216, Note_on_c, 0, 71, 100
3, 45241, Note_off_c, 0, 71, 64
3, 45241, Note_off_c, 0, 76, 64
3, 45241, Note_off_c, 0, 81, 64
3, 45264, Note_on_c, 0, 72, 100
3, 45289, Note_off_c, 0, 72, 64
3, 45312, Note_on_c, 0, 74, 100
3, 45337, Note_off_c, 0, 74, 64
3, 45360, Note_on_c, 0, 72, 100
3, 45385, Note_off_c, 0, 72, 64
3, 45408, Note_on_c, 0, 71, 100
3, 45408, Note_on_c, 0, 81, 100
3, 45408, Note_on_c, 0, 76, 100
3, 45433, Note_off_c, 0, 76, 64
3, 45433, Note_off_c, 0, 71, 64
3, 45433, Note_off_c, 0, 81, 64
3, 45456, Note_on_c, 0, 67, 100
3, 45481, Note_off_c, 0, 67, 64
3, 45504, Note_on_c, 0, 74, 100
3, 45529, Note_off_c, 0, 74, 64
3, 45552, Note_on_c, 0, 72, 100
3, 45577, Note_off_c, 0, 72, 64
3, 45600, Note_on_c, 0, 76, 100
3, 45600, Note_on_c, 0, 81, 100
3, 45600, Note_on_c, 0, 71, 100
3, 45625, Note_off_c, 0, 71, 64
3, 45625, Note_off_c, 0, 76, 64
3, 45625, Note_off_c, 0, 81, 64
3, 45648, Note_on_c, 0, 67, 100
3, 45673, Note_off_c, 0, 67, 64
3, 45696, Note_on_c, 0, 74, 100
3, 45721, Note_off_c, 0, 74, 64
3, 45744, Note_on_c, 0, 72, 100
3, 45769, Note_off_c, 0, 72, 64
3, 45792, Note_on_c, 0, 71, 100
3, 45792, Note_on_c, 0, 79, 100
3, 45792, Note_on_c, 0, 76, 100
3, 45817, Note_off_c, 0, 76, 64
3, 45817, Note_off_c, 0, 71, 64
3, 45817, Note_off_c, 0, 79, 64
3, 45840, Note_on_c, 0, 72, 100
3, 45865, Note_off_c, 0, 72, 64
3, 45888, Note_on_c, 0, 69, 100
3, 45913, Note_off_c, 0, 69, 64
3, 45936, Note_on_c, 0, 72, 100
3, 45961, Note_off_c, 0, 72, 64
3, 45984, Note_on_c, 0, 71, 100
3, 45984, Note_on_c, 0, 81, 100
3, 45984, Note_on_c, 0, 76, 100
3, 46009, Note_off_c, 0, 76, 64
3, 46009, Note_off_c, 0, 71, 64
3, 46009, Note_off_c, 0, 81, 64
3, 46032, Note_on_c, 0, 72, 100
3, 46057, Note_off_c, 0, 72, 64
3, 46080, Note_on_c, 0, 74, 100
3, 46105, Note_off_c, 0, 74, 64
3, 46128, Note_on_c, 0, 72, 100
3, 46153, Note_off_c, 0, 72, 64
3, 46176, Note_on_c, 0, 79, 100
3, 46176, Note_on_c, 0, 71, 100
3, 46201, Note_off_c, 0, 71, 64
3, 46224, Note_on_c, 0, 67, 100
3, 46249, Note_off_c, 0, 79, 64
3, 46249, Note_off_c, 0, 67, 64
3, 46272, Note_on_c, 0, 82, 100
3, 46272, Note_on_c, 0, 74, 100
3, 46272, Note_on_c, 0, 77, 100
3, 46297, Note_off_c, 0, 74, 64
3, 46320, Note_on_c, 0, 72, 100
3, 46345, Note_off_c, 0, 72, 64
3, 46368, Note_on_c, 0, 71, 100
3, 46393, Note_off_c, 0, 71, 64
3, 46416, Note_on_c, 0, 67, 100
3, 46441, Note_off_c, 0, 77, 64
3, 46441, Note_off_c, 0, 82, 64
3, 46441, Note_off_c, 0, 67, 64
3, 46464, Note_on_c, 0, 80, 100
3, 46464, Note_on_c, 0, 74, 100
3, 46464, Note_on_c, 0, 76, 100
3, 46489, Note_off_c, 0, 74, 64
3, 46512, Note_on_c, 0, 72, 100
3, 46537, Note_off_c, 0, 72, 64
3, 46560, Note_on_c, 0, 71, 100
3, 46585, Note_off_c, 0, 71, 64
3, 46608, Note_on_c, 0, 72, 100
3, 46633, Note_off_c, 0, 76, 64
3, 46633, Note_off_c, 0, 80, 64
3, 46633, Note_off_c, 0, 72, 64
3, 46656, Note_on_c, 0, 76, 100
3, 46656, Note_on_c, 0, 69, 100
3, 46656, Note_on_c, 0, 81, 100
3, 46681, Note_off_c, 0, 81, 64
3, 46681, Note_off_c, 0, 69, 64
3, 46681, Note_off_c, 0, 76, 64
3, 46704, Note_on_c, 0, 69, 100
3, 46704, Note_on_c, 0, 81, 100
3, 46704, Note_on_c, 0, 76, 100
3, 46729, Note_off_c, 0, 76, 64
3, 46729, Note_off_c, 0, 81, 64
3, 46729, Note_off_c, 0, 69, 64
3, 46752, Note_on_c, 0, 69, 100
3, 46752, Note_on_c, 0, 81, 100
3, 46752, Note_on_c, 0, 76, 100
3, 46777, Note_off_c, 0, 76, 64
3, 46777, Note_off_c, 0, 81, 64
3, 46777, Note_off_c, 0, 69, 64
3, 46800, Note_on_c, 0, 82, 100
3, 46800, Note_on_c, 0, 70, 100
3, 46800, Note_on_c, 0, 77, 100
3, 46873, Note_off_c, 0, 77, 64
3, 46873, Note_off_c, 0, 70, 64
3, 46873, Note_off_c, 0, 82, 64
3, 46896, Note_on_c, 0, 67, 100
3, 46896, Note_on_c, 0, 79, 100
3, 46896, Note_on_c, 0, 74, 100
3, 46969, Note_off_c, 0, 74, 64
3, 46969, Note_off_c, 0, 79, 64
3, 46969, Note_off_c, 0, 67, 64
3, 46992, Note_on_c, 0, 81, 100
3, 46992, Note_on_c, 0, 69, 100
3, 46992, Note_on_c, 0, 76, 100
3, 47214, Note_off_c, 0, 76, 64
3, 47214, Note_off_c, 0, 69, 64
3, 47214, Note_off_c, 0, 81, 64
3, 48000, Note_on_c, 0, 81, 96
3, 48035, Note_off_c, 0, 81, 64
3, 48048, Note_on_c, 0, 88, 96
3, 48131, Note_off_c, 0, 88, 64
3, 48144, Note_on_c, 0, 89, 96
3, 48227, Note_off_c, 0, 89, 64
3, 48240, Note_on_c, 0, 86, 96
3, 48323, Note_off_c, 0, 86, 64
3, 48336, Note_on_c, 0, 88, 96
3, 48371, Note_off_c, 0, 88, 64
3, 48384, Note_on_c, 0, 81, 89
3, 48419, Note_off_c, 0, 81, 64
3, 48432, Note_on_c, 0, 88, 89
3, 48515, Note_off_c, 0, 88, 64
3, 48528, Note_on_c, 0, 89, 89
3, 48611, Note_off_c, 0, 89, 64
3, 48624, Note_on_c, 0, 86, 89
3, 48707, Note_off_c, 0, 86, 64
3, 48720, Note_on_c, 0, 88, 89
3, 48755, Note_off_c, 0, 88, 64
3, 48768, Note_on_c, 0, 69, 92
3, 48803, Note_off_c, 0, 69, 64
3, 48816, Note_on_c, 0, 64, 95
3, 48816, Note_on_c, 0, 76, 95
3, 48899, Note_off_c, 0, 64, 64
3, 48899, Note_off_c, 0, 76, 64
3, 48912, Note_on_c, 0, 65, 95
3, 48912, Note_on_c, 0, 77, 95
3, 48995, Note_off_c, 0, 65, 64
3, 48995, Note_off_c, 0, 77, 64
3, 49008, Note_on_c, 0, 62, 95
3, 49008, Note_on_c, 0, 74, 95
3, 49091, Note_off_c, 0, 62, 64
3, 49091, Note_off_c, 0, 74, 64
3, 49104, Note_on_c, 0, 76, 95
3, 49104, Note_on_c, 0, 64, 95
3, 49187, Note_off_c, 0, 76, 64
3, 49187, Note_off_c, 0, 64, 64
3, 49200, Note_on_c, 0, 72, 95
3, 49200, Note_on_c, 0, 60, 95
3, 49283, Note_off_c, 0, 72, 64
3, 49283, Note_off_c, 0, 60, 64
3, 49296, Note_on_c, 0, 62, 95
3, 49296, Note_on_c, 0, 74, 95
3, 49379, Note_off_c, 0, 62, 64
3, 49379, Note_off_c, 0, 74, 64
3, 49392, Note_on_c, 0, 59, 95
3, 49392, Note_on_c, 0, 71, 95
3, 49475, Note_off_c, 0, 59, 64
3, 49475, Note_off_c, 0, 71, 64
3, 49488, Note_on_c, 0, 60, 95
3, 49488, Note_on_c, 0, 72, 95
3, 49523, Note_off_c, 0, 60, 64
3, 49523, Note_off_c, 0, 72, 64
3, 49536, Note_on_c, 0, 66, 96
3, 49571, Note_off_c, 0, 66, 64
3, 49584, Note_on_c, 0, 73, 91
3, 49667, Note_off_c, 0, 73, 64
3, 49680, Note_on_c, 0, 74, 91
3, 49763, Note_off_c, 0, 74, 64
3, 49776, Note_on_c, 0, 71, 91
3, 49859, Note_off_c, 0, 71, 64
3, 49872, Note_on_c, 0, 73, 91
3, 49955, Note_off_c, 0, 73, 64
3, 49968, Note_on_c, 0, 73, 91
3, 50051, Note_off_c, 0, 73, 64
3, 50064, Note_on_c, 0, 74, 91
3, 50147, Note_off_c, 0, 74, 64
3, 50160, Note_on_c, 0, 71, 91
3, 50243, Note_off_c, 0, 71, 64
3, 50256, Note_on_c, 0, 68, 91
3, 50291, Note_off_c, 0, 68, 64
3, 50304, Note_on_c, 0, 66, 91
3, 50339, Note_off_c, 0, 66, 64
3, 50352, Note_on_c, 0, 73, 91
3, 50435, Note_off_c, 0, 73, 64
3, 50448, Note_on_c, 0, 74, 91
3, 50531, Note_off_c, 0, 74, 64
3, 50544, Note_on_c, 0, 71, 91
3, 50627, Note_off_c, 0, 71, 64
3, 50640, Note_on_c, 0, 73, 91
3, 50723, Note_off_c, 0, 73, 64
3, 50736, Note_on_c, 0, 73, 91
3, 50819, Note_off_c, 0, 73, 64
3, 50832, Note_on_c, 0, 74, 91
3, 50915, Note_off_c, 0, 74, 64
3, 50928, Note_on_c, 0, 71, 91
3, 51011, Note_off_c, 0, 71, 64
3, 51024, Note_on_c, 0, 68, 91
3, 51059, Note_off_c, 0, 68, 64
3, 51072, Note_on_c, 0, 66, 91
3, 51107, Note_off_c, 0, 66, 64
3, 51120, Note_on_c, 0, 73, 91
3, 51203, Note_off_c, 0, 73, 64
3, 51216, Note_on_c, 0, 74, 91
3, 51299, Note_off_c, 0, 74, 64
3, 51312, Note_on_c, 0, 71, 91
3, 51395, Note_off_c, 0, 71, 64
3, 51408, Note_on_c, 0, 73, 91
3, 51491, Note_off_c, 0, 73, 64
3, 51504, Note_on_c, 0, 73, 91
3, 51587, Note_off_c, 0, 73, 64
3, 51600, Note_on_c, 0, 74, 91
3, 51683, Note_off_c, 0, 74, 64
3, 51696, Note_on_c, 0, 71, 91
3, 51779, Note_off_c, 0, 71, 64
3, 51792, Note_on_c, 0, 68, 91
3, 51827, Note_off_c, 0, 68, 64
3, 51840, Note_on_c, 0, 66, 91
3, 51875, Note_off_c, 0, 66, 64
3, 51888, Note_on_c, 0, 73, 91
3, 51971, Note_off_c, 0, 73, 64
3, 51984, Note_on_c, 0, 74, 91
3, 52115, Note_off_c, 0, 74, 64
3, 52128, Note_on_c, 0, 71, 91
3, 52211, Note_off_c, 0, 71, 64
3, 52224, Note_on_c, 0, 66, 91
3, 52224, Note_on_c, 0, 73, 91
3, 52307, Note_off_c, 0, 66, 64
3, 52307, Note_off_c, 0, 73, 64
3, 52320, Note_on_c, 0, 66, 91
3, 52403, Note_off_c, 0, 66, 64
3, 52416, Note_on_c, 0, 65, 91
3, 52499, Note_off_c, 0, 65, 64
3, 52512, Note_on_c, 0, 65, 91
3, 52547, Note_off_c, 0, 65, 64
3, 52560, Note_on_c, 0, 69, 91
3, 52571, Note_off_c, 0, 69, 64
3, 52584, Note_on_c, 0, 69, 96
3, 52595, Note_off_c, 0, 69, 64
3, 52608, Note_on_c, 0, 69, 96
3, 52643, Note_off_c, 0, 69, 64
3, 52656, Note_on_c, 0, 76, 96
3, 52739, Note_off_c, 0, 76, 64
3, 52752, Note_on_c, 0, 77, 96
3, 52835, Note_off_c, 0, 77, 64
3, 52848, Note_on_c, 0, 74, 96
3, 52931, Note_off_c, 0, 74, 64
3, 52944, Note_on_c, 0, 76, 96
3, 53027, Note_off_c, 0, 76, 64
3, 53040, Note_on_c, 0, 76, 96
3, 53123, Note_off_c, 0, 76, 64
3, 53136, Note_on_c, 0, 77, 96
3, 53219, Note_off_c, 0, 77, 64
3, 53232, Note_on_c, 0, 74, 96
3, 53315, Note_off_c, 0, 74, 64
3, 53328, Note_on_c, 0, 69, 96
3, 53363, Note_off_c, 0, 69, 64
3, 53376, Note_on_c, 0, 69, 96
3, 53411, Note_off_c, 0, 69, 64
3, 53424, Note_on_c, 0, 76, 96
3, 53507, Note_off_c, 0, 76, 64
3, 53520, Note_on_c, 0, 77, 96
3, 53603, Note_off_c, 0, 77, 64
3, 53616, Note_on_c, 0, 74, 96
3, 53699, Note_off_c, 0, 74, 64
3, 53712, Note_on_c, 0, 76, 96
3, 53795, Note_off_c, 0, 76, 64
3, 53808, Note_on_c, 0, 76, 96
3, 53891, Note_off_c, 0, 76, 64
3, 53904, Note_on_c, 0, 77, 96
3, 53987, Note_off_c, 0, 77, 64
3, 54000, Note_on_c, 0, 74, 96
3, 54083, Note_off_c, 0, 74, 64
3, 54096, Note_on_c, 0, 69, 96
3, 54107, Note_off_c, 0, 69, 64
3, 54120, Note_on_c, 0, 69, 96
3, 54131, Note_off_c, 0, 69, 64
3, 54144, Note_on_c, 0, 69, 96
3, 54179, Note_off_c, 0, 69, 64
3, 54192, Note_on_c, 0, 76, 96
3, 54275, Note_off_c, 0, 76, 64
3, 54288, Note_on_c, 0, 77, 96
3, 54371, Note_off_c, 0, 77, 64
3, 54384, Note_on_c, 0, 74, 96
3, 54467, Note_off_c, 0, 74, 64
3, 54480, Note_on_c, 0, 76, 96
3, 54563, Note_off_c, 0, 76, 64
3, 54576, Note_on_c, 0, 76, 96
3, 54659, Note_off_c, 0, 76, 64
3, 54672, Note_on_c, 0, 77, 96
3, 54755, Note_off_c, 0, 77, 64
3, 54768, Note_on_c, 0, 74, 96
3, 54851, Note_off_c, 0, 74, 64
3, 54864, Note_on_c, 0, 69, 96
3, 54875, Note_off_c, 0, 69, 64
3, 54888, Note_on_c, 0, 69, 96
3, 54899, Note_off_c, 0, 69, 64
3, 54912, Note_on_c, 0, 69, 96
3, 54947, Note_off_c, 0, 69, 64
3, 54960, Note_on_c, 0, 76, 96
3, 55043, Note_off_c, 0, 76, 64
3, 55056, Note_on_c, 0, 77, 96
3, 55187, Note_off_c, 0, 77, 64
3, 55200, Note_on_c, 0, 74, 96
3, 55283, Note_off_c, 0, 74, 64
3, 55296, Note_on_c, 0, 76, 96
3, 55296, Note_on_c, 0, 69, 96
3, 55379, Note_off_c, 0, 76, 64
3, 55379, Note_off_c, 0, 69, 64
3, 55392, Note_on_c, 0, 69, 96
3, 55475, Note_off_c, 0, 69, 64
3, 55488, Note_on_c, 0, 68, 96
3, 55571, Note_off_c, 0, 68, 64
3, 55584, Note_on_c, 0, 68, 96
3, 55667, Note_off_c, 0, 68, 64
3, 55680, Note_on_c, 0, 73, 98
3, 55715, Note_off_c, 0, 73, 64
3, 55728, Note_on_c, 0, 71, 99
3, 55763, Note_off_c, 0, 71, 64
3, 55776, Note_on_c, 0, 69, 100
3, 55811, Note_off_c, 0, 69, 64
3, 55824, Note_on_c, 0, 68, 100
3, 55859, Note_off_c, 0, 68, 64
3, 55872, Note_on_c, 0, 66, 100
3, 55955, Note_off_c, 0, 66, 64
3, 55968, Note_on_c, 0, 69, 100
3, 56003, Note_off_c, 0, 69, 64
3, 56016, Note_on_c, 0, 73, 100
3, 56051, Note_off_c, 0, 73, 64
3, 56064, Note_on_c, 0, 76, 100
3, 56064, Note_on_c, 0, 68, 100
3, 56195, Note_off_c, 0, 68, 64
3, 56195, Note_off_c, 0, 76, 64
3, 56208, Note_on_c, 0, 71, 100
3, 56243, Note_off_c, 0, 71, 64
3, 56256, Note_on_c, 0, 73, 100
3, 56256, Note_on_c, 0, 69, 100
3, 56339, Note_off_c, 0, 73, 64
3, 56339, Note_off_c, 0, 69, 64
3, 56448, Note_on_c, 0, 66, 101
3, 56483, Note_off_c, 0, 66, 64
3, 56496, Note_on_c, 0, 68, 101
3, 56531, Note_off_c, 0, 68, 64
3, 56544, Note_on_c, 0, 69, 101
3, 56579, Note_off_c, 0, 69, 64
3, 56592, Note_on_c, 0, 73, 101
3, 56627, Note_off_c, 0, 73, 64
3, 56640, Note_on_c, 0, 71, 101
3, 56675, Note_off_c, 0, 71, 64
3, 56688, Note_on_c, 0, 69, 101
3, 56723, Note_off_c, 0, 69, 64
3, 56736, Note_on_c, 0, 68, 101
3, 56771, Note_off_c, 0, 68, 64
3, 56784, Note_on_c, 0, 66, 101
3, 56819, Note_off_c, 0, 66, 64
3, 56832, Note_on_c, 0, 76, 101
3, 56832, Note_on_c, 0, 71, 101
3, 56867, Note_off_c, 0, 76, 64
3, 56867, Note_off_c, 0, 71, 64
3, 56880, Note_on_c, 0, 78, 101
3, 56915, Note_off_c, 0, 78, 64
3, 56928, Note_on_c, 0, 76, 101
3, 56928, Note_on_c, 0, 71, 101
3, 56987, Note_off_c, 0, 71, 64
3, 56987, Note_off_c, 0, 76, 64
3, 57000, Note_on_c, 0, 71, 101
3, 57011, Note_off_c, 0, 71, 64
3, 57024, Note_on_c, 0, 73, 101
3, 57024, Note_on_c, 0, 66, 101
3, 57107, Note_off_c, 0, 73, 64
3, 57107, Note_off_c, 0, 66, 64
3, 57120, Note_on_c, 0, 65, 101
3, 57203, Note_off_c, 0, 65, 64
3, 57216, Note_on_c, 0, 76, 101
3, 57251, Note_off_c, 0, 76, 64
3, 57264, Note_on_c, 0, 74, 101
3, 57299, Note_off_c, 0, 74, 64
3, 57312, Note_on_c, 0, 72, 101
3, 57347, Note_off_c, 0, 72, 64
3, 57360, Note_on_c, 0, 71, 101
3, 57395, Note_off_c, 0, 71, 64
3, 57408, Note_on_c, 0, 69, 101
3, 57443, Note_off_c, 0, 69, 64
3, 57456, Note_on_c, 0, 71, 101
3, 57491, Note_off_c, 0, 71, 64
3, 57504, Note_on_c, 0, 72, 101
3, 57539, Note_off_c, 0, 72, 64
3, 57552, Note_on_c, 0, 76, 101
3, 57587, Note_off_c, 0, 76, 64
3, 57600, Note_on_c, 0, 74, 101
3, 57635, Note_off_c, 0, 74, 64
3, 57648, Note_on_c, 0, 72, 101
3, 57683, Note_off_c, 0, 72, 64
3, 57696, Note_on_c, 0, 74, 101
3, 57755, Note_off_c, 0, 74, 64
3, 57768, Note_on_c, 0, 79, 101
3, 57779, Note_off_c, 0, 79, 64
3, 57792, Note_on_c, 0, 79, 101
3, 57875, Note_off_c, 0, 79, 64
3, 57984, Note_on_c, 0, 76, 101
3, 58019, Note_off_c, 0, 76, 64
3, 58032, Note_on_c, 0, 74, 101
3, 58067, Note_off_c, 0, 74, 64
3, 58080, Note_on_c, 0, 72, 101
3, 58115, Note_off_c, 0, 72, 64
3, 58128, Note_on_c, 0, 71, 101
3, 58163, Note_off_c, 0, 71, 64
3, 58176, Note_on_c, 0, 69, 101
3, 58211, Note_off_c, 0, 69, 64
3, 58224, Note_on_c, 0, 71, 101
3, 58259, Note_off_c, 0, 71, 64
3, 58272, Note_on_c, 0, 72, 101
3, 58307, Note_off_c, 0, 72, 64
3, 58320, Note_on_c, 0, 76, 101
3, 58355, Note_off_c, 0, 76, 64
3, 58368, Note_on_c, 0, 69, 101
3, 58368, Note_on_c, 0, 74, 101
3, 58451, Note_off_c, 0, 69, 64
3, 58451, Note_off_c, 0, 74, 64
3, 58464, Note_on_c, 0, 69, 101
3, 58499, Note_off_c, 0, 69, 64
3, 58512, Note_on_c, 0, 72, 101
3, 58547, Note_off_c, 0, 72, 64
3, 58560, Note_on_c, 0, 68, 101
3, 58560, Note_on_c, 0, 76, 101
3, 58643, Note_off_c, 0, 68, 64
3, 58643, Note_off_c, 0, 76, 64
3, 58656, Note_on_c, 0, 68, 101
3, 58739, Note_off_c, 0, 68, 64
3, 58752, Note_on_c, 0, 76, 101
3, 58787, Note_off_c, 0, 76, 64
3, 58800, Note_on_c, 0, 74, 101
3, 58835, Note_off_c, 0, 74, 64
3, 58848, Note_on_c, 0, 72, 101
3, 58883, Note_off_c, 0, 72, 64
3, 58896, Note_on_c, 0, 71, 101
3, 58931, Note_off_c, 0, 71, 64
3, 58944, Note_on_c, 0, 69, 101
3, 58979, Note_off_c, 0, 69, 64
3, 58992, Note_on_c, 0, 71, 101
3, 59003, Note_off_c, 0, 71, 64
3, 59016, Note_on_c, 0, 72, 101
3, 59075, Note_off_c, 0, 72, 64
3, 59088, Note_on_c, 0, 76, 101
3, 59099, Note_off_c, 0, 76, 64
3, 59112, Note_on_c, 0, 76, 101
3, 59123, Note_off_c, 0, 76, 64
3, 59136, Note_on_c, 0, 74, 101
3, 59171, Note_off_c, 0, 74, 64
3, 59184, Note_on_c, 0, 72, 101
3, 59219, Note_off_c, 0, 72, 64
3, 59232, Note_on_c, 0, 71, 101
3, 59267, Note_off_c, 0, 71, 64
3, 59280, Note_on_c, 0, 72, 101
3, 59315, Note_off_c, 0, 72, 64
3, 59328, Note_on_c, 0, 74, 101
3, 59411, Note_off_c, 0, 74, 64
3, 59424, Note_on_c, 0, 79, 101
3, 59507, Note_off_c, 0, 79, 64
3, 59520, Note_on_c, 0, 76, 101
3, 59555, Note_off_c, 0, 76, 64
3, 59568, Note_on_c, 0, 74, 101
3, 59603, Note_off_c, 0, 74, 64
3, 59616, Note_on_c, 0, 72, 101
3, 59651, Note_off_c, 0, 72, 64
3, 59664, Note_on_c, 0, 71, 101
3, 59699, Note_off_c, 0, 71, 64
3, 59712, Note_on_c, 0, 69, 101
3, 59747, Note_off_c, 0, 69, 64
3, 59760, Note_on_c, 0, 71, 101
3, 59795, Note_off_c, 0, 71, 64
3, 59808, Note_on_c, 0, 72, 101
3, 59843, Note_off_c, 0, 72, 64
3, 59856, Note_on_c, 0, 76, 101
3, 59891, Note_off_c, 0, 76, 64
3, 59904, Note_on_c, 0, 72, 101
3, 59904, Note_on_c, 0, 79, 101
3, 60035, Note_off_c, 0, 79, 64
3, 60035, Note_off_c, 0, 72, 64
3, 60048, Note_on_c, 0, 74, 101
3, 60083, Note_off_c, 0, 74, 64
3, 60096, Note_on_c, 0, 73, 101
3, 60096, Note_on_c, 0, 76, 101
3, 60179, Note_off_c, 0, 73, 64
3, 60179, Note_off_c, 0, 76, 64
3, 60240, Note_on_c, 0, 76, 101
3, 60251, Note_off_c, 0, 76, 64
3, 60264, Note_on_c, 0, 76, 101
3, 60275, Note_off_c, 0, 76, 64
3, 60288, Note_on_c, 0, 77, 101
3, 60371, Note_off_c, 0, 77, 64
3, 60384, Note_on_c, 0, 76, 101
3, 60443, Note_off_c, 0, 76, 64
3, 60456, Note_on_c, 0, 77, 101
3, 60467, Note_off_c, 0, 77, 64
3, 60480, Note_on_c, 0, 78, 101
3, 60515, Note_off_c, 0, 78, 64
3, 60528, Note_on_c, 0, 75, 101
3, 60563, Note_off_c, 0, 75, 64
3, 60576, Note_on_c, 0, 78, 101
3, 60611, Note_off_c, 0, 78, 64
3, 60624, Note_on_c, 0, 81, 101
3, 60659, Note_off_c, 0, 81, 64
3, 60672, Note_on_c, 0, 76, 99
3, 60672, Note_on_c, 0, 81, 99
3, 60851, Note_off_c, 0, 81, 64
3, 60851, Note_off_c, 0, 76, 64
3, 60864, Note_on_c, 0, 76, 102
3, 60864, Note_on_c, 0, 80, 102
3, 60995, Note_off_c, 0, 80, 64
3, 60995, Note_off_c, 0, 76, 64
3, 61008, Note_on_c, 0, 71, 95
3, 61043, Note_off_c, 0, 71, 64
3, 61056, Note_on_c, 0, 72, 95
3, 61187, Note_off_c, 0, 72, 64
3, 61200, Note_on_c, 0, 74, 95
3, 61235, Note_off_c, 0, 74, 64
3, 61248, Note_on_c, 0, 74, 95
3, 61379, Note_off_c, 0, 74, 64
3, 61392, Note_on_c, 0, 77, 95
3, 61427, Note_off_c, 0, 77, 64
3, 61440, Note_on_c, 0, 77, 95
3, 61571, Note_off_c, 0, 77, 64
3, 61584, Note_on_c, 0, 76, 95
3, 61619, Note_off_c, 0, 76, 64
3, 61632, Note_on_c, 0, 76, 95
3, 61811, Note_off_c, 0, 76, 64
3, 61824, Note_on_c, 0, 72, 95
3, 61955, Note_off_c, 0, 72, 64
3, 61968, Note_on_c, 0, 72, 95
3, 62003, Note_off_c, 0, 72, 64
3, 62016, Note_on_c, 0, 74, 95
3, 62051, Note_off_c, 0, 74, 64
3, 62064, Note_on_c, 0, 72, 95
3, 62099, Note_off_c, 0, 72, 64
3, 62112, Note_on_c, 0, 71, 95
3, 62147, Note_off_c, 0, 71, 64
3, 62160, Note_on_c, 0, 69, 96
3, 62195, Note_off_c, 0, 69, 64
3, 62208, Note_on_c, 0, 69, 93
3, 62339, Note_off_c, 0, 69, 64
3, 62352, Note_on_c, 0, 67, 89
3, 62387, Note_off_c, 0, 67, 64
3, 62400, Note_on_c, 0, 67, 87
3, 62531, Note_off_c, 0, 67, 64
3, 62544, Note_on_c, 0, 79, 84
3, 62579, Note_off_c, 0, 79, 64
3, 62592, Note_on_c, 0, 84, 81
3, 62723, Note_off_c, 0, 84, 64
3, 62736, Note_on_c, 0, 86, 81
3, 62771, Note_off_c, 0, 86, 64
3, 62784, Note_on_c, 0, 86, 80
3, 62915, Note_off_c, 0, 86, 64
3, 62928, Note_on_c, 0, 89, 80
3, 62963, Note_off_c, 0, 89, 64
3, 62976, Note_on_c, 0, 89, 80
3, 63107, Note_off_c, 0, 89, 64
3, 63120, Note_on_c, 0, 88, 80
3, 63155, Note_off_c, 0, 88, 64
3, 63168, Note_on_c, 0, 88, 80
3, 63299, Note_off_c, 0, 88, 64
3, 63312, Note_on_c, 0, 74, 83
3, 63347, Note_off_c, 0, 74, 64
3, 63360, Note_on_c, 0, 72, 90
3, 63443, Note_off_c, 0, 72, 64
3, 63504, Note_on_c, 0, 72, 96
3, 63515, Note_off_c, 0, 72, 64
3, 63528, Note_on_c, 0, 72, 96
3, 63539, Note_off_c, 0, 72, 64
3, 63552, Note_on_c, 0, 74, 96
3, 63587, Note_off_c, 0, 74, 64
3, 63600, Note_on_c, 0, 71, 96
3, 63635, Note_off_c, 0, 71, 64
3, 63648, Note_on_c, 0, 74, 96
3, 63683, Note_off_c, 0, 74, 64
3, 63696, Note_on_c, 0, 77, 97
3, 63731, Note_off_c, 0, 77, 64
3, 63744, Note_on_c, 0, 76, 104
3, 63744, Note_on_c, 0, 81, 104
3, 63875, Note_off_c, 0, 81, 64
3, 63875, Note_off_c, 0, 76, 64
3, 63888, Note_on_c, 0, 80, 104
3, 63923, Note_off_c, 0, 80, 64
3, 63936, Note_on_c, 0, 76, 104
3, 63936, Note_on_c, 0, 80, 104
3, 64067, Note_off_c, 0, 80, 64
3, 64067, Note_off_c, 0, 76, 64
3, 64080, Note_on_c, 0, 74, 105
3, 64115, Note_off_c, 0, 74, 64
3, 64128, Note_on_c, 0, 75, 106
3, 64128, Note_on_c, 0, 72, 106
3, 64259, Note_off_c, 0, 72, 64
3, 64259, Note_off_c, 0, 75, 64
3, 64272, Note_on_c, 0, 77, 106
3, 64307, Note_off_c, 0, 77, 64
3, 64320, Note_on_c, 0, 77, 106
3, 64320, Note_on_c, 0, 74, 106
3, 64451, Note_off_c, 0, 74, 64
3, 64451, Note_off_c, 0, 77, 64
3, 64464, Note_on_c, 0, 80, 106
3, 64499, Note_off_c, 0, 80, 64
3, 64512, Note_on_c, 0, 80, 106
3, 64512, Note_on_c, 0, 75, 106
3, 64643, Note_off_c, 0, 75, 64
3, 64643, Note_off_c, 0, 80, 64
3, 64656, Note_on_c, 0, 79, 106
3, 64691, Note_off_c, 0, 79, 64
3, 64704, Note_on_c, 0, 75, 106
3, 64704, Note_on_c, 0, 79, 106
3, 64835, Note_off_c, 0, 79, 64
3, 64835, Note_off_c, 0, 75, 64
3, 64896, Note_on_c, 0, 75, 106
3, 64896, Note_on_c, 0, 68, 106
3, 65027, Note_off_c, 0, 68, 64
3, 65027, Note_off_c, 0, 75, 64
3, 65040, Note_on_c, 0, 75, 106
3, 65075, Note_off_c, 0, 75, 64
3, 65088, Note_on_c, 0, 77, 106
3, 65123, Note_off_c, 0, 77, 64
3, 65136, Note_on_c, 0, 75, 106
3, 65171, Note_off_c, 0, 75, 64
3, 65184, Note_on_c, 0, 74, 106
3, 65219, Note_off_c, 0, 74, 64
3, 65232, Note_on_c, 0, 72, 106
3, 65267, Note_off_c, 0, 72, 64
3, 65280, Note_on_c, 0, 68, 106
3, 65280, Note_on_c, 0, 72, 106
3, 65411, Note_off_c, 0, 72, 64
3, 65411, Note_off_c, 0, 68, 64
3, 65424, Note_on_c, 0, 67, 106
3, 65424, Note_on_c, 0, 70, 106
3, 65459, Note_off_c, 0, 67, 64
3, 65459, Note_off_c, 0, 70, 64
3, 65472, Note_on_c, 0, 70, 106
3, 65472, Note_on_c, 0, 67, 106
3, 65603, Note_off_c, 0, 67, 64
3, 65603, Note_off_c, 0, 70, 64
3, 65616, Note_on_c, 0, 70, 106
3, 65651, Note_off_c, 0, 70, 64
3, 65664, Note_on_c, 0, 75, 106
3, 65664, Note_on_c, 0, 72, 106
3, 65795, Note_off_c, 0, 72, 64
3, 65795, Note_off_c, 0, 75, 64
3, 65808, Note_on_c, 0, 77, 106
3, 65843, Note_off_c, 0, 77, 64
3, 65856, Note_on_c, 0, 77, 106
3, 65856, Note_on_c, 0, 74, 106
3, 65987, Note_off_c, 0, 74, 64
3, 65987, Note_off_c, 0, 77, 64
3, 66000, Note_on_c, 0, 80, 106
3, 66035, Note_off_c, 0, 80, 64
3, 66048, Note_on_c, 0, 80, 106
3, 66048, Note_on_c, 0, 75, 106
3, 66179, Note_off_c, 0, 75, 64
3, 66179, Note_off_c, 0, 80, 64
3, 66192, Note_on_c, 0, 79, 106
3, 66227, Note_off_c, 0, 79, 64
3, 66240, Note_on_c, 0, 79, 106
3, 66240, Note_on_c, 0, 75, 106
3, 66371, Note_off_c, 0, 75, 64
3, 66371, Note_off_c, 0, 79, 64
3, 66384, Note_on_c, 0, 77, 106
3, 66419, Note_off_c, 0, 77, 64
3, 66432, Note_on_c, 0, 72, 104
3, 66432, Note_on_c, 0, 75, 104
3, 66515, Note_off_c, 0, 72, 64
3, 66515, Note_off_c, 0, 75, 64
3, 66576, Note_on_c, 0, 75, 109
3, 66611, Note_off_c, 0, 75, 64
3, 66624, Note_on_c, 0, 77, 107
3, 66659, Note_off_c, 0, 77, 64
3, 66672, Note_on_c, 0, 75, 105
3, 66707, Note_off_c, 0, 75, 64
3, 66720, Note_on_c, 0, 74, 103
3, 66755, Note_off_c, 0, 74, 64
3, 66768, Note_on_c, 0, 70, 102
3, 66803, Note_off_c, 0, 70, 64
3, 66816, Note_on_c, 0, 72, 106
3, 66816, Note_on_c, 0, 60, 106
3, 66851, Note_off_c, 0, 72, 64
3, 66851, Note_off_c, 0, 60, 64
3, 66864, Note_on_c, 0, 79, 106
3, 66864, Note_on_c, 0, 67, 106
3, 66947, Note_off_c, 0, 67, 64
3, 66947, Note_off_c, 0, 79, 64
3, 66960, Note_on_c, 0, 80, 106
3, 66960, Note_on_c, 0, 68, 106
3, 67043, Note_off_c, 0, 68, 64
3, 67043, Note_off_c, 0, 80, 64
3, 67056, Note_on_c, 0, 77, 106
3, 67056, Note_on_c, 0, 65, 106
3, 67139, Note_off_c, 0, 65, 64
3, 67139, Note_off_c, 0, 77, 64
3, 67152, Note_on_c, 0, 79, 106
3, 67152, Note_on_c, 0, 67, 106
3, 67187, Note_off_c, 0, 79, 64
3, 67187, Note_off_c, 0, 67, 64
3, 67200, Note_on_c, 0, 72, 106
3, 67200, Note_on_c, 0, 60, 106
3, 67235, Note_off_c, 0, 72, 64
3, 67235, Note_off_c, 0, 60, 64
3, 67248, Note_on_c, 0, 79, 106
3, 67248, Note_on_c, 0, 67, 106
3, 67331, Note_off_c, 0, 67, 64
3, 67331, Note_off_c, 0, 79, 64
3, 67344, Note_on_c, 0, 80, 106
3, 67344, Note_on_c, 0, 68, 106
3, 67427, Note_off_c, 0, 68, 64
3, 67427, Note_off_c, 0, 80, 64
3, 67440, Note_on_c, 0, 77, 106
3, 67440, Note_on_c, 0, 65, 106
3, 67523, Note_off_c, 0, 65, 64
3, 67523, Note_off_c, 0, 77, 64
3, 67536, Note_on_c, 0, 79, 106
3, 67536, Note_on_c, 0, 67, 106
3, 67571, Note_off_c, 0, 79, 64
3, 67571, Note_off_c, 0, 67, 64
3, 67584, Note_on_c, 0, 72, 106
3, 67584, Note_on_c, 0, 60, 106
3, 67619, Note_off_c, 0, 72, 64
3, 67619, Note_off_c, 0, 60, 64
3, 67632, Note_on_c, 0, 79, 106
3, 67632, Note_on_c, 0, 67, 106
3, 67715, Note_off_c, 0, 67, 64
3, 67715, Note_off_c, 0, 79, 64
3, 67728, Note_on_c, 0, 80, 106
3, 67728, Note_on_c, 0, 68, 106
3, 67811, Note_off_c, 0, 68, 64
3, 67811, Note_off_c, 0, 80, 64
3, 67824, Note_on_c, 0, 77, 106
3, 67824, Note_on_c, 0, 65, 106
3, 67907, Note_off_c, 0, 65, 64
3, 67907, Note_off_c, 0, 77, 64
3, 67920, Note_on_c, 0, 79, 106
3, 67920, Note_on_c, 0, 67, 106
3, 68003, Note_off_c, 0, 79, 64
3, 68003, Note_off_c, 0, 67, 64
3, 68016, Note_on_c, 0, 75, 106
3, 68016, Note_on_c, 0, 63, 106
3, 68099, Note_off_c, 0, 75, 64
3, 68099, Note_off_c, 0, 63, 64
3, 68112, Note_on_c, 0, 77, 106
3, 68112, Note_on_c, 0, 65, 106
3, 68195, Note_off_c, 0, 77, 64
3, 68195, Note_off_c, 0, 65, 64
3, 68208, Note_on_c, 0, 74, 106
3, 68208, Note_on_c, 0, 62, 106
3, 68291, Note_off_c, 0, 74, 64
3, 68291, Note_off_c, 0, 62, 64
3, 68304, Note_on_c, 0, 75, 106
3, 68304, Note_on_c, 0, 63, 106
3, 68387, Note_off_c, 0, 75, 64
3, 68387, Note_off_c, 0, 63, 64
3, 68400, Note_on_c, 0, 82, 106
3, 68400, Note_on_c, 0, 70, 106
3, 68483, Note_off_c, 0, 70, 64
3, 68483, Note_off_c, 0, 82, 64
3, 68496, Note_on_c, 0, 83, 106
3, 68496, Note_on_c, 0, 71, 106
3, 68579, Note_off_c, 0, 71, 64
3, 68579, Note_off_c, 0, 83, 64
3, 68592, Note_on_c, 0, 80, 106
3, 68592, Note_on_c, 0, 68, 106
3, 68675, Note_off_c, 0, 68, 64
3, 68675, Note_off_c, 0, 80, 64
3, 68688, Note_on_c, 0, 82, 106
3, 68688, Note_on_c, 0, 70, 106
3, 68723, Note_off_c, 0, 82, 64
3, 68723, Note_off_c, 0, 70, 64
3, 68736, Note_on_c, 0, 75, 106
3, 68736, Note_on_c, 0, 63, 106
3, 68771, Note_off_c, 0, 75, 64
3, 68771, Note_off_c, 0, 63, 64
3, 68784, Note_on_c, 0, 82, 106
3, 68784, Note_on_c, 0, 70, 106
3, 68867, Note_off_c, 0, 70, 64
3, 68867, Note_off_c, 0, 82, 64
3, 68880, Note_on_c, 0, 83, 106
3, 68880, Note_on_c, 0, 71, 106
3, 68963, Note_off_c, 0, 71, 64
3, 68963, Note_off_c, 0, 83, 64
3, 68976, Note_on_c, 0, 80, 106
3, 68976, Note_on_c, 0, 68, 106
3, 69059, Note_off_c, 0, 68, 64
3, 69059, Note_off_c, 0, 80, 64
3, 69072, Note_on_c, 0, 82, 106
3, 69072, Note_on_c, 0, 70, 106
3, 69107, Note_off_c, 0, 82, 64
3, 69107, Note_off_c, 0, 70, 64
3, 69120, Note_on_c, 0, 75, 106
3, 69120, Note_on_c, 0, 63, 106
3, 69155, Note_off_c, 0, 75, 64
3, 69155, Note_off_c, 0, 63, 64
3, 69168, Note_on_c, 0, 82, 106
3, 69168, Note_on_c, 0, 70, 106
3, 69251, Note_off_c, 0, 70, 64
3, 69251, Note_off_c, 0, 82, 64
3, 69264, Note_on_c, 0, 83, 106
3, 69264, Note_on_c, 0, 71, 106
3, 69347, Note_off_c, 0, 71, 64
3, 69347, Note_off_c, 0, 83, 64
3, 69360, Note_on_c, 0, 80, 106
3, 69360, Note_on_c, 0, 68, 106
3, 69443, Note_off_c, 0, 68, 64
3, 69443, Note_off_c, 0, 80, 64
3, 69456, Note_on_c, 0, 82, 106
3, 69456, Note_on_c, 0, 70, 106
3, 69539, Note_off_c, 0, 82, 64
3, 69539, Note_off_c, 0, 70, 64
3, 69552, Note_on_c, 0, 78, 106
3, 69552, Note_on_c, 0, 66, 106
3, 69635, Note_off_c, 0, 78, 64
3, 69635, Note_off_c, 0, 66, 64
3, 69648, Note_on_c, 0, 80, 106
3, 69648, Note_on_c, 0, 68, 106
3, 69731, Note_off_c, 0, 80, 64
3, 69731, Note_off_c, 0, 68, 64
3, 69744, Note_on_c, 0, 77, 105
3, 69744, Note_on_c, 0, 65, 105
3, 69827, Note_off_c, 0, 77, 64
3, 69827, Note_off_c, 0, 65, 64
3, 69840, Note_on_c, 0, 78, 103
3, 69840, Note_on_c, 0, 66, 103
3, 69875, Note_off_c, 0, 78, 64
3, 69875, Note_off_c, 0, 66, 64
3, 69888, Note_on_c, 0, 75, 103
3, 69888, Note_on_c, 0, 70, 103
3, 70063, Note_off_c, 0, 75, 64
3, 70063, Note_off_c, 0, 70, 64
3, 70656, Note_on_c, 0, 65, 95
3, 70656, Note_on_c, 0, 77, 95
3, 70826, Note_off_c, 0, 77, 0
3, 70826, Note_off_c, 0, 65, 0
3, 70848, Note_on_c, 0, 64, 95
3, 70848, Note_on_c, 0, 76, 95
3, 71018, Note_off_c, 0, 76, 0
3, 71018, Note_off_c, 0, 64, 0
3, 71040, Note_on_c, 0, 67, 95
3, 71040, Note_on_c, 0, 79, 95
3, 71162, Note_off_c, 0, 79, 0
3, 71162, Note_off_c, 0, 67, 0
3, 71184, Note_on_c, 0, 65, 95
3, 71184, Note_on_c, 0, 77, 95
3, 71402, Note_off_c, 0, 77, 0
3, 71402, Note_off_c, 0, 65, 0
3, 71424, Note_on_c, 0, 65, 95
3, 71424, Note_on_c, 0, 77, 95
3, 71594, Note_off_c, 0, 77, 0
3, 71594, Note_off_c, 0, 65, 0
3, 71616, Note_on_c, 0, 64, 95
3, 71616, Note_on_c, 0, 76, 95
3, 71786, Note_off_c, 0, 76, 0
3, 71786, Note_off_c, 0, 64, 0
3, 71808, Note_on_c, 0, 67, 95
3, 71808, Note_on_c, 0, 72, 95
3, 71808, Note_on_c, 0, 79, 95
3, 71930, Note_off_c, 0, 79, 0
3, 71930, Note_off_c, 0, 67, 0
3, 71930, Note_off_c, 0, 72, 0
3, 71952, Note_on_c, 0, 65, 95
3, 71952, Note_on_c, 0, 69, 95
3, 71952, Note_on_c, 0, 77, 95
3, 72170, Note_off_c, 0, 77, 0
3, 72170, Note_off_c, 0, 65, 0
3, 72170, Note_off_c, 0, 69, 0
3, 72192, Note_on_c, 0, 65, 95
3, 72192, Note_on_c, 0, 70, 95
3, 72192, Note_on_c, 0, 77, 95
3, 72362, Note_off_c, 0, 77, 0
3, 72362, Note_off_c, 0, 70, 0
3, 72362, Note_off_c, 0, 65, 0
3, 72384, Note_on_c, 0, 64, 95
3, 72384, Note_on_c, 0, 76, 95
3, 72554, Note_off_c, 0, 76, 0
3, 72554, Note_off_c, 0, 64, 0
3, 72576, Note_on_c, 0, 67, 95
3, 72576, Note_on_c, 0, 74, 95
3, 72576, Note_on_c, 0, 79, 95
3, 72698, Note_off_c, 0, 79, 0
3, 72698, Note_off_c, 0, 67, 0
3, 72698, Note_off_c, 0, 74, 0
3, 72720, Note_on_c, 0, 65, 95
3, 72720, Note_on_c, 0, 70, 95
3, 72720, Note_on_c, 0, 77, 95
3, 72842, Note_off_c, 0, 77, 0
3, 72842, Note_off_c, 0, 65, 0
3, 72842, Note_off_c, 0, 70, 0
3, 72912, Note_on_c, 0, 67, 95
3, 72927, Note_off_c, 0, 67, 0
3, 72936, Note_on_c, 0, 70, 95
3, 72951, Note_off_c, 0, 70, 0
3, 72960, Note_on_c, 0, 65, 95
3, 72960, Note_on_c, 0, 73, 95
3, 72960, Note_on_c, 0, 77, 95
3, 73130, Note_off_c, 0, 77, 0
3, 73130, Note_off_c, 0, 73, 0
3, 73130, Note_off_c, 0, 65, 0
3, 73152, Note_on_c, 0, 64, 95
3, 73152, Note_on_c, 0, 76, 95
3, 73322, Note_off_c, 0, 76, 0
3, 73322, Note_off_c, 0, 64, 0
3, 73344, Note_on_c, 0, 67, 95
3, 73344, Note_on_c, 0, 79, 95
3, 73466, Note_off_c, 0, 79, 0
3, 73466, Note_off_c, 0, 67, 0
3, 73488, Note_on_c, 0, 65, 95
3, 73488, Note_on_c, 0, 77, 95
3, 73514, Note_off_c, 0, 65, 0
3, 73514, Note_off_c, 0, 77, 0
3, 73536, Note_on_c, 0, 70, 95
3, 73562, Note_off_c, 0, 70, 0
3, 73584, Note_on_c, 0, 72, 95
3, 73610, Note_off_c, 0, 72, 0
3, 73632, Note_on_c, 0, 70, 95
3, 73706, Note_off_c, 0, 70, 0
3, 73728, Note_on_c, 0, 65, 95
3, 73728, Note_on_c, 0, 70, 95
3, 73850, Note_off_c, 0, 70, 0
3, 73850, Note_off_c, 0, 65, 0
3, 73872, Note_on_c, 0, 65, 96
3, 73872, Note_on_c, 0, 69, 96
3, 73898, Note_off_c, 0, 65, 0
3, 73898, Note_off_c, 0, 69, 0
3, 73920, Note_on_c, 0, 65, 96
3, 73920, Note_on_c, 0, 69, 96
3, 74042, Note_off_c, 0, 65, 0
3, 74042, Note_off_c, 0, 69, 0
3, 74064, Note_on_c, 0, 69, 96
3, 74082, Note_off_c, 0, 69, 0
3, 74088, Note_on_c, 0, 72, 96
3, 74106, Note_off_c, 0, 72, 0
3, 74112, Note_on_c, 0, 77, 96
3, 74138, Note_off_c, 0, 77, 0
3, 74160, Note_on_c, 0, 72, 96
3, 74186, Note_off_c, 0, 72, 0
3, 74208, Note_on_c, 0, 69, 96
3, 74234, Note_off_c, 0, 69, 0
3, 74256, Note_on_c, 0, 65, 96
3, 74282, Note_off_c, 0, 65, 0
3, 74304, Note_on_c, 0, 69, 96
3, 74330, Note_off_c, 0, 69, 0
3, 74352, Note_on_c, 0, 65, 96
3, 74352, Note_on_c, 0, 69, 96
3, 74378, Note_off_c, 0, 65, 0
3, 74378, Note_off_c, 0, 69, 0
3, 74400, Note_on_c, 0, 67, 96
3, 74426, Note_off_c, 0, 67, 0
3, 74448, Note_on_c, 0, 65, 96
3, 74474, Note_off_c, 0, 65, 0
3, 74496, Note_on_c, 0, 64, 96
3, 74496, Note_on_c, 0, 69, 96
3, 74762, Note_off_c, 0, 69, 0
3, 74762, Note_off_c, 0, 64, 0
3, 74832, Note_on_c, 0, 69, 96
3, 74850, Note_off_c, 0, 69, 0
3, 74856, Note_on_c, 0, 72, 96
3, 74874, Note_off_c, 0, 72, 0
3, 74880, Note_on_c, 0, 76, 96
3, 74906, Note_off_c, 0, 76, 0
3, 74928, Note_on_c, 0, 72, 96
3, 74954, Note_off_c, 0, 72, 0
3, 74976, Note_on_c, 0, 69, 96
3, 75002, Note_off_c, 0, 69, 0
3, 75024, Note_on_c, 0, 64, 96
3, 75050, Note_off_c, 0, 64, 0
3, 75072, Note_on_c, 0, 60, 96
3, 75098, Note_off_c, 0, 60, 0
3, 75120, Note_on_c, 0, 69, 96
3, 75146, Note_off_c, 0, 69, 0
3, 75168, Note_on_c, 0, 69, 96
3, 75242, Note_off_c, 0, 69, 0
3, 75264, Note_on_c, 0, 62, 96
3, 75264, Note_on_c, 0, 70, 96
3, 75386, Note_off_c, 0, 70, 0
3, 75386, Note_off_c, 0, 62, 0
3, 75408, Note_on_c, 0, 69, 96
3, 75434, Note_off_c, 0, 69, 0
3, 75456, Note_on_c, 0, 58, 96
3, 75456, Note_on_c, 0, 62, 96
3, 75456, Note_on_c, 0, 67, 96
3, 75626, Note_off_c, 0, 58, 0
3, 75626, Note_off_c, 0, 62, 0
3, 75626, Note_off_c, 0, 67, 0
3, 75648, Note_on_c, 0, 77, 96
3, 75648, Note_on_c, 0, 82, 96
3, 75770, Note_off_c, 0, 82, 0
3, 75770, Note_off_c, 0, 77, 0
3, 75792, Note_on_c, 0, 81, 96
3, 75818, Note_off_c, 0, 81, 0
3, 75840, Note_on_c, 0, 74, 96
3, 75840, Note_on_c, 0, 79, 96
3, 75866, Note_off_c, 0, 74, 0
3, 75866, Note_off_c, 0, 79, 0
3, 75888, Note_on_c, 0, 69, 96
3, 75914, Note_off_c, 0, 69, 0
3, 75936, Note_on_c, 0, 69, 96
3, 76010, Note_off_c, 0, 69, 0
3, 76032, Note_on_c, 0, 61, 96
3, 76032, Note_on_c, 0, 70, 96
3, 76154, Note_off_c, 0, 70, 0
3, 76154, Note_off_c, 0, 61, 0
3, 76176, Note_on_c, 0, 69, 96
3, 76202, Note_off_c, 0, 69, 0
3, 76224, Note_on_c, 0, 58, 96
3, 76224, Note_on_c, 0, 61, 96
3, 76224, Note_on_c, 0, 67, 96
3, 76346, Note_off_c, 0, 58, 0
3, 76346, Note_off_c, 0, 61, 0
3, 76346, Note_off_c, 0, 67, 0
3, 76368, Note_on_c, 0, 77, 95
3, 76386, Note_off_c, 0, 77, 0
3, 76392, Note_on_c, 0, 82, 95
3, 76410, Note_off_c, 0, 82, 0
3, 76416, Note_on_c, 0, 85, 95
3, 76442, Note_off_c, 0, 85, 0
3, 76464, Note_on_c, 0, 82, 95
3, 76490, Note_off_c, 0, 82, 0
3, 76512, Note_on_c, 0, 77, 95
3, 76538, Note_off_c, 0, 77, 0
3, 76560, Note_on_c, 0, 70, 95
3, 76586, Note_off_c, 0, 70, 0
3, 76608, Note_on_c, 0, 65, 95
3, 76658, Note_off_c, 0, 65, 0
3, 76680, Note_on_c, 0, 67, 95
3, 76730, Note_off_c, 0, 67, 0
3, 76752, Note_on_c, 0, 69, 95
3, 76778, Note_off_c, 0, 69, 0
3, 76800, Note_on_c, 0, 65, 95
3, 76800, Note_on_c, 0, 69, 95
3, 76970, Note_off_c, 0, 69, 0
3, 76970, Note_off_c, 0, 65, 0
3, 76992, Note_on_c, 0, 77, 95
3, 77042, Note_off_c, 0, 77, 0
3, 77064, Note_on_c, 0, 79, 95
3, 77114, Note_off_c, 0, 79, 0
3, 77136, Note_on_c, 0, 77, 95
3, 77136, Note_on_c, 0, 81, 95
3, 77162, Note_off_c, 0, 77, 0
3, 77162, Note_off_c, 0, 81, 0
3, 77184, Note_on_c, 0, 77, 95
3, 77184, Note_on_c, 0, 81, 95
3, 77258, Note_off_c, 0, 81, 0
3, 77258, Note_off_c, 0, 77, 0
3, 77280, Note_on_c, 0, 69, 95
3, 77306, Note_off_c, 0, 69, 0
3, 77328, Note_on_c, 0, 69, 95
3, 77354, Note_off_c, 0, 69, 0
3, 77376, Note_on_c, 0, 70, 95
3, 77402, Note_off_c, 0, 70, 0
3, 77424, Note_on_c, 0, 72, 95
3, 77546, Note_off_c, 0, 72, 0
3, 77568, Note_on_c, 0, 64, 95
3, 77568, Note_on_c, 0, 69, 95
3, 77834, Note_off_c, 0, 69, 0
3, 77834, Note_off_c, 0, 64, 0
3, 77856, Note_on_c, 0, 76, 97
3, 77882, Note_off_c, 0, 76, 0
3, 77904, Note_on_c, 0, 84, 99
3, 77922, Note_off_c, 0, 84, 0
3, 77928, Note_on_c, 0, 81, 100
3, 77946, Note_off_c, 0, 81, 0
3, 77952, Note_on_c, 0, 88, 101
3, 77978, Note_off_c, 0, 88, 0
3, 78000, Note_on_c, 0, 84, 101
3, 78026, Note_off_c, 0, 84, 0
3, 78048, Note_on_c, 0, 81, 100
3, 78074, Note_off_c, 0, 81, 0
3, 78096, Note_on_c, 0, 77, 98
3, 78122, Note_off_c, 0, 77, 0
3, 78144, Note_on_c, 0, 76, 96
3, 78218, Note_off_c, 0, 76, 0
3, 78240, Note_on_c, 0, 69, 96
3, 78266, Note_off_c, 0, 69, 0
3, 78288, Note_on_c, 0, 69, 96
3, 78314, Note_off_c, 0, 69, 0
3, 78336, Note_on_c, 0, 62, 96
3, 78336, Note_on_c, 0, 70, 96
3, 78458, Note_off_c, 0, 70, 0
3, 78458, Note_off_c, 0, 62, 0
3, 78480, Note_on_c, 0, 69, 96
3, 78506, Note_off_c, 0, 69, 0
3, 78528, Note_on_c, 0, 58, 96
3, 78528, Note_on_c, 0, 62, 96
3, 78528, Note_on_c, 0, 67, 96
3, 78698, Note_off_c, 0, 58, 0
3, 78698, Note_off_c, 0, 62, 0
3, 78698, Note_off_c, 0, 67, 0
3, 78720, Note_on_c, 0, 77, 96
3, 78720, Note_on_c, 0, 82, 96
3, 78842, Note_off_c, 0, 82, 0
3, 78842, Note_off_c, 0, 77, 0
3, 78864, Note_on_c, 0, 81, 96
3, 78890, Note_off_c, 0, 81, 0
3, 78912, Note_on_c, 0, 74, 96
3, 78912, Note_on_c, 0, 79, 96
3, 78938, Note_off_c, 0, 74, 0
3, 78938, Note_off_c, 0, 79, 0
3, 78960, Note_on_c, 0, 69, 96
3, 78986, Note_off_c, 0, 69, 0
3, 79008, Note_on_c, 0, 69, 96
3, 79082, Note_off_c, 0, 69, 0
3, 79104, Note_on_c, 0, 61, 96
3, 79104, Note_on_c, 0, 70, 96
3, 79322, Note_off_c, 0, 70, 0
3, 79322, Note_off_c, 0, 61, 0
3, 79344, Note_on_c, 0, 82, 96
3, 79370, Note_off_c, 0, 82, 0
3, 79392, Note_on_c, 0, 89, 96
3, 79466, Note_off_c, 0, 89, 0
3, 79488, Note_on_c, 0, 73, 96
3, 79488, Note_on_c, 0, 77, 96
3, 79658, Note_off_c, 0, 73, 0
3, 79658, Note_off_c, 0, 77, 0
3, 79680, Note_on_c, 0, 73, 96
3, 79680, Note_on_c, 0, 79, 96
3, 79850, Note_off_c, 0, 73, 0
3, 79850, Note_off_c, 0, 79, 0
3, 79872, Note_on_c, 0, 65, 96
3, 79872, Note_on_c, 0, 72, 96
3, 79872, Note_on_c, 0, 77, 96
3, 80042, Note_off_c, 0, 77, 0
3, 80042, Note_off_c, 0, 72, 0
3, 80042, Note_off_c, 0, 65, 0
3, 80064, Note_on_c, 0, 64, 96
3, 80064, Note_on_c, 0, 76, 96
3, 80234, Note_off_c, 0, 64, 0
3, 80234, Note_off_c, 0, 76, 0
3, 80256, Note_on_c, 0, 67, 96
3, 80256, Note_on_c, 0, 72, 96
3, 80256, Note_on_c, 0, 79, 96
3, 80378, Note_off_c, 0, 79, 0
3, 80378, Note_off_c, 0, 67, 0
3, 80378, Note_off_c, 0, 72, 0
3, 80400, Note_on_c, 0, 65, 96
3, 80400, Note_on_c, 0, 69, 96
3, 80400, Note_on_c, 0, 77, 96
3, 80618, Note_off_c, 0, 77, 0
3, 80618, Note_off_c, 0, 65, 0
3, 80618, Note_off_c, 0, 69, 0
3, 80640, Note_on_c, 0, 65, 96
3, 80640, Note_on_c, 0, 77, 96
3, 80810, Note_off_c, 0, 77, 0
3, 80810, Note_off_c, 0, 65, 0
3, 80832, Note_on_c, 0, 64, 96
3, 80832, Note_on_c, 0, 76, 96
3, 81002, Note_off_c, 0, 64, 0
3, 81002, Note_off_c, 0, 76, 0
3, 81024, Note_on_c, 0, 67, 96
3, 81024, Note_on_c, 0, 72, 96
3, 81024, Note_on_c, 0, 79, 96
3, 81146, Note_off_c, 0, 79, 0
3, 81146, Note_off_c, 0, 67, 0
3, 81146, Note_off_c, 0, 72, 0
3, 81168, Note_on_c, 0, 65, 96
3, 81168, Note_on_c, 0, 69, 96
3, 81168, Note_on_c, 0, 77, 96
3, 81386, Note_off_c, 0, 77, 0
3, 81386, Note_off_c, 0, 65, 0
3, 81386, Note_off_c, 0, 69, 0
3, 81408, Note_on_c, 0, 65, 96
3, 81408, Note_on_c, 0, 70, 96
3, 81408, Note_on_c, 0, 77, 96
3, 81578, Note_off_c, 0, 77, 0
3, 81578, Note_off_c, 0, 70, 0
3, 81578, Note_off_c, 0, 65, 0
3, 81600, Note_on_c, 0, 64, 96
3, 81600, Note_on_c, 0, 76, 96
3, 81770, Note_off_c, 0, 64, 0
3, 81770, Note_off_c, 0, 76, 0
3, 81792, Note_on_c, 0, 67, 96
3, 81792, Note_on_c, 0, 72, 96
3, 81792, Note_on_c, 0, 79, 96
3, 81914, Note_off_c, 0, 79, 0
3, 81914, Note_off_c, 0, 67, 0
3, 81914, Note_off_c, 0, 72, 0
3, 81936, Note_on_c, 0, 65, 96
3, 81936, Note_on_c, 0, 70, 96
3, 81936, Note_on_c, 0, 77, 96
3, 82058, Note_off_c, 0, 77, 0
3, 82058, Note_off_c, 0, 65, 0
3, 82058, Note_off_c, 0, 70, 0
3, 82128, Note_on_c, 0, 67, 96
3, 82146, Note_off_c, 0, 67, 0
3, 82152, Note_on_c, 0, 70, 96
3, 82170, Note_off_c, 0, 70, 0
3, 82176, Note_on_c, 0, 65, 96
3, 82176, Note_on_c, 0, 73, 96
3, 82176, Note_on_c, 0, 77, 96
3, 82346, Note_off_c, 0, 77, 0
3, 82346, Note_off_c, 0, 73, 0
3, 82346, Note_off_c, 0, 65, 0
3, 82368, Note_on_c, 0, 64, 96
3, 82368, Note_on_c, 0, 76, 96
3, 82538, Note_off_c, 0, 64, 0
3, 82538, Note_off_c, 0, 76, 0
3, 82560, Note_on_c, 0, 67, 96
3, 82560, Note_on_c, 0, 79, 96
3, 82634, Note_off_c, 0, 79, 0
3, 82634, Note_off_c, 0, 67, 0
3, 82656, Note_on_c, 0, 77, 96
3, 82682, Note_off_c, 0, 77, 0
3, 82704, Note_on_c, 0, 77, 96
3, 82730, Note_off_c, 0, 77, 0
3, 82752, Note_on_c, 0, 77, 96
3, 82778, Note_off_c, 0, 77, 0
3, 82800, Note_on_c, 0, 79, 96
3, 82922, Note_off_c, 0, 79, 0
3, 82944, Note_on_c, 0, 72, 96
3, 82944, Note_on_c, 0, 79, 96
3, 83066, Note_off_c, 0, 79, 0
3, 83066, Note_off_c, 0, 72, 0
3, 83088, Note_on_c, 0, 72, 96
3, 83088, Note_on_c, 0, 77, 96
3, 83306, Note_off_c, 0, 77, 0
3, 83306, Note_off_c, 0, 72, 0
3, 83424, Note_on_c, 0, 72, 96
3, 83424, Note_on_c, 0, 77, 96
3, 83450, Note_off_c, 0, 72, 0
3, 83450, Note_off_c, 0, 77, 0
3, 83472, Note_on_c, 0, 72, 96
3, 83472, Note_on_c, 0, 77, 96
3, 83498, Note_off_c, 0, 72, 0
3, 83498, Note_off_c, 0, 77, 0
3, 83520, Note_on_c, 0, 72, 96
3, 83520, Note_on_c, 0, 77, 96
3, 83546, Note_off_c, 0, 72, 0
3, 83546, Note_off_c, 0, 77, 0
3, 83568, Note_on_c, 0, 72, 96
3, 83568, Note_on_c, 0, 76, 96
3, 83642, Note_off_c, 0, 76, 0
3, 83642, Note_off_c, 0, 72, 0
3, 83664, Note_on_c, 0, 74, 96
3, 83690, Note_off_c, 0, 74, 0
3, 83712, Note_on_c, 0, 69, 96
3, 83712, Note_on_c, 0, 76, 96
3, 83882, Note_off_c, 0, 76, 0
3, 83882, Note_off_c, 0, 69, 0
3, 84024, Note_on_c, 0, 76, 96
3, 84042, Note_off_c, 0, 76, 0
3, 84048, Note_on_c, 0, 81, 96
3, 84066, Note_off_c, 0, 81, 0
3, 84072, Note_on_c, 0, 84, 96
3, 84090, Note_off_c, 0, 84, 0
3, 84096, Note_on_c, 0, 88, 96
3, 84170, Note_off_c, 0, 88, 0
3, 84288, Note_on_c, 0, 77, 96
3, 84362, Note_off_c, 0, 77, 0
3, 84384, Note_on_c, 0, 79, 96
3, 84458, Note_off_c, 0, 79, 0
3, 84480, Note_on_c, 0, 74, 96
3, 84480, Note_on_c, 0, 79, 96
3, 84602, Note_off_c, 0, 79, 0
3, 84602, Note_off_c, 0, 74, 0
3, 84624, Note_on_c, 0, 74, 96
3, 84624, Note_on_c, 0, 77, 96
3, 84650, Note_off_c, 0, 74, 0
3, 84650, Note_off_c, 0, 77, 0
3, 84672, Note_on_c, 0, 74, 96
3, 84672, Note_on_c, 0, 77, 96
3, 84842, Note_off_c, 0, 77, 0
3, 84842, Note_off_c, 0, 74, 0
3, 85008, Note_on_c, 0, 74, 96
3, 85034, Note_off_c, 0, 74, 0
3, 85056, Note_on_c, 0, 74, 96
3, 85106, Note_off_c, 0, 74, 0
3, 85128, Note_on_c, 0, 76, 96
3, 85178, Note_off_c, 0, 76, 0
3, 85200, Note_on_c, 0, 77, 96
3, 85226, Note_off_c, 0, 77, 0
3, 85248, Note_on_c, 0, 73, 96
3, 85248, Note_on_c, 0, 77, 96
3, 85514, Note_off_c, 0, 77, 0
3, 85514, Note_off_c, 0, 73, 0
3, 85584, Note_on_c, 0, 73, 96
3, 85610, Note_off_c, 0, 73, 0
3, 85632, Note_on_c, 0, 73, 96
3, 85632, Note_on_c, 0, 79, 96
3, 85802, Note_off_c, 0, 79, 0
3, 85802, Note_off_c, 0, 73, 0
3, 85824, Note_on_c, 0, 73, 96
3, 85824, Note_on_c, 0, 79, 96
3, 85994, Note_off_c, 0, 79, 0
3, 85994, Note_off_c, 0, 73, 0
3, 86016, Note_on_c, 0, 72, 96
3, 86016, Note_on_c, 0, 79, 96
3, 86138, Note_off_c, 0, 79, 0
3, 86138, Note_off_c, 0, 72, 0
3, 86160, Note_on_c, 0, 72, 97
3, 86160, Note_on_c, 0, 77, 97
3, 86160, Note_on_c, 0, 81, 97
3, 86186, Note_off_c, 0, 72, 0
3, 86186, Note_off_c, 0, 77, 0
3, 86186, Note_off_c, 0, 81, 0
3, 86208, Note_on_c, 0, 72, 97
3, 86208, Note_on_c, 0, 77, 97
3, 86208, Note_on_c, 0, 81, 97
3, 86234, Note_off_c, 0, 72, 0
3, 86234, Note_off_c, 0, 77, 0
3, 86234, Note_off_c, 0, 81, 0
3, 86256, Note_on_c, 0, 89, 97
3, 86274, Note_off_c, 0, 89, 0
3, 86280, Note_on_c, 0, 84, 97
3, 86298, Note_off_c, 0, 84, 0
3, 86304, Note_on_c, 0, 77, 97
3, 86330, Note_off_c, 0, 77, 0
3, 86352, Note_on_c, 0, 77, 97
3, 86370, Note_off_c, 0, 77, 0
3, 86376, Note_on_c, 0, 84, 97
3, 86394, Note_off_c, 0, 84, 0
3, 86400, Note_on_c, 0, 89, 97
3, 86426, Note_off_c, 0, 89, 0
3, 86448, Note_on_c, 0, 72, 97
3, 86448, Note_on_c, 0, 77, 97
3, 86448, Note_on_c, 0, 81, 97
3, 86474, Note_off_c, 0, 72, 0
3, 86474, Note_off_c, 0, 77, 0
3, 86474, Note_off_c, 0, 81, 0
3, 86496, Note_on_c, 0, 72, 97
3, 86496, Note_on_c, 0, 77, 97
3, 86496, Note_on_c, 0, 81, 97
3, 86522, Note_off_c, 0, 72, 0
3, 86522, Note_off_c, 0, 77, 0
3, 86522, Note_off_c, 0, 81, 0
3, 86544, Note_on_c, 0, 72, 97
3, 86544, Note_on_c, 0, 77, 97
3, 86544, Note_on_c, 0, 81, 97
3, 86570, Note_off_c, 0, 72, 0
3, 86570, Note_off_c, 0, 77, 0
3, 86570, Note_off_c, 0, 81, 0
3, 86592, Note_on_c, 0, 72, 97
3, 86592, Note_on_c, 0, 77, 97
3, 86592, Note_on_c, 0, 81, 97
3, 86642, Note_off_c, 0, 81, 0
3, 86642, Note_off_c, 0, 72, 0
3, 86642, Note_off_c, 0, 77, 0
3, 86664, Note_on_c, 0, 76, 97
3, 86664, Note_on_c, 0, 79, 97
3, 86714, Note_off_c, 0, 79, 0
3, 86714, Note_off_c, 0, 76, 0
3, 86736, Note_on_c, 0, 74, 97
3, 86736, Note_on_c, 0, 77, 97
3, 86762, Note_off_c, 0, 74, 0
3, 86762, Note_off_c, 0, 77, 0
3, 86784, Note_on_c, 0, 72, 97
3, 86784, Note_on_c, 0, 76, 97
3, 86784, Note_on_c, 0, 81, 97
3, 87050, Note_off_c, 0, 81, 0
3, 87050, Note_off_c, 0, 76, 0
3, 87050, Note_off_c, 0, 72, 0
3, 87120, Note_on_c, 0, 81, 97
3, 87138, Note_off_c, 0, 81, 0
3, 87144, Note_on_c, 0, 84, 97
3, 87162, Note_off_c, 0, 84, 0
3, 87168, Note_on_c, 0, 88, 97
3, 87186, Note_off_c, 0, 88, 0
3, 87192, Note_on_c, 0, 91, 97
3, 87210, Note_off_c, 0, 91, 0
3, 87216, Note_on_c, 0, 84, 97
3, 87234, Note_off_c, 0, 84, 0
3, 87240, Note_on_c, 0, 81, 97
3, 87258, Note_off_c, 0, 81, 0
3, 87264, Note_on_c, 0, 76, 97
3, 87290, Note_off_c, 0, 76, 0
3, 87312, Note_on_c, 0, 72, 97
3, 87330, Note_off_c, 0, 72, 0
3, 87336, Note_on_c, 0, 65, 97
3, 87354, Note_off_c, 0, 65, 0
3, 87360, Note_on_c, 0, 64, 97
3, 87434, Note_off_c, 0, 64, 0
3, 87456, Note_on_c, 0, 81, 97
3, 87482, Note_off_c, 0, 81, 0
3, 87504, Note_on_c, 0, 81, 97
3, 87530, Note_off_c, 0, 81, 0
3, 87552, Note_on_c, 0, 77, 97
3, 87552, Note_on_c, 0, 82, 97
3, 87674, Note_off_c, 0, 82, 0
3, 87674, Note_off_c, 0, 77, 0
3, 87696, Note_on_c, 0, 81, 97
3, 87722, Note_off_c, 0, 81, 0
3, 87744, Note_on_c, 0, 74, 97
3, 87744, Note_on_c, 0, 79, 97
3, 87914, Note_off_c, 0, 79, 0
3, 87914, Note_off_c, 0, 74, 0
3, 87936, Note_on_c, 0, 82, 97
3, 87936, Note_on_c, 0, 86, 97
3, 88010, Note_off_c, 0, 82, 0
3, 88010, Note_off_c, 0, 86, 0
3, 88032, Note_on_c, 0, 88, 97
3, 88106, Note_off_c, 0, 88, 0
3, 88128, Note_on_c, 0, 86, 97
3, 88128, Note_on_c, 0, 89, 97
3, 88202, Note_off_c, 0, 89, 0
3, 88202, Note_off_c, 0, 86, 0
3, 88224, Note_on_c, 0, 74, 97
3, 88224, Note_on_c, 0, 81, 97
3, 88250, Note_off_c, 0, 74, 0
3, 88250, Note_off_c, 0, 81, 0
3, 88272, Note_on_c, 0, 74, 97
3, 88272, Note_on_c, 0, 81, 97
3, 88298, Note_off_c, 0, 74, 0
3, 88298, Note_off_c, 0, 81, 0
3, 88320, Note_on_c, 0, 73, 97
3, 88320, Note_on_c, 0, 82, 97
3, 88442, Note_off_c, 0, 82, 0
3, 88442, Note_off_c, 0, 73, 0
3, 88464, Note_on_c, 0, 81, 97
3, 88490, Note_off_c, 0, 81, 0
3, 88512, Note_on_c, 0, 73, 97
3, 88512, Note_on_c, 0, 79, 97
3, 88634, Note_off_c, 0, 79, 0
3, 88634, Note_off_c, 0, 73, 0
3, 88656, Note_on_c, 0, 82, 97
3, 88674, Note_off_c, 0, 82, 0
3, 88680, Note_on_c, 0, 85, 97
3, 88698, Note_off_c, 0, 85, 0
3, 88704, Note_on_c, 0, 94, 97
3, 88722, Note_off_c, 0, 94, 0
3, 88728, Note_on_c, 0, 89, 97
3, 88746, Note_off_c, 0, 89, 0
3, 88752, Note_on_c, 0, 82, 97
3, 88770, Note_off_c, 0, 82, 0
3, 88776, Note_on_c, 0, 77, 97
3, 88794, Note_off_c, 0, 77, 0
3, 88800, Note_on_c, 0, 70, 97
3, 88826, Note_off_c, 0, 70, 0
3, 88848, Note_on_c, 0, 77, 97
3, 88922, Note_off_c, 0, 77, 0
3, 88944, Note_on_c, 0, 79, 97
3, 89018, Note_off_c, 0, 79, 0
3, 89040, Note_on_c, 0, 79, 97
3, 89114, Note_off_c, 0, 79, 0
3, 89136, Note_on_c, 0, 77, 97
3, 89351, Note_off_c, 0, 77, 0
3, 89856, Note_on_c, 0, 72, 104
3, 89856, Note_on_c, 0, 68, 104
3, 89904, Note_off_c, 0, 72, 0
3, 89904, Note_off_c, 0, 68, 0
3, 89904, Note_on_c, 0, 72, 104
3, 89952, Note_off_c, 0, 72, 0
3, 89952, Note_on_c, 0, 75, 104
3, 90000, Note_off_c, 0, 75, 0
3, 90000, Note_on_c, 0, 74, 104
3, 90096, Note_off_c, 0, 74, 0
3, 90096, Note_on_c, 0, 70, 104
3, 90192, Note_off_c, 0, 70, 0
3, 90192, Note_on_c, 0, 72, 104
3, 90288, Note_off_c, 0, 72, 0
3, 90288, Note_on_c, 0, 72, 104
3, 90336, Note_off_c, 0, 72, 0
3, 90336, Note_on_c, 0, 75, 104
3, 90384, Note_off_c, 0, 75, 0
3, 90384, Note_on_c, 0, 74, 104
3, 90480, Note_off_c, 0, 74, 0
3, 90480, Note_on_c, 0, 70, 104
3, 90624, Note_off_c, 0, 70, 0
3, 90624, Note_on_c, 0, 72, 96
3, 90720, Note_off_c, 0, 72, 0
3, 90720, Note_on_c, 0, 75, 98
3, 90768, Note_off_c, 0, 75, 0
3, 90768, Note_on_c, 0, 75, 98
3, 90816, Note_off_c, 0, 75, 0
3, 90816, Note_on_c, 0, 74, 98
3, 90864, Note_off_c, 0, 74, 0
3, 90864, Note_on_c, 0, 70, 98
3, 90912, Note_off_c, 0, 70, 0
3, 90912, Note_on_c, 0, 70, 98
3, 90960, Note_off_c, 0, 70, 0
3, 90960, Note_on_c, 0, 67, 98
3, 91008, Note_off_c, 0, 67, 0
3, 91008, Note_on_c, 0, 70, 98
3, 91056, Note_off_c, 0, 70, 0
3, 91056, Note_on_c, 0, 72, 98
3, 91152, Note_off_c, 0, 72, 0
3, 91152, Note_on_c, 0, 67, 98
3, 91200, Note_off_c, 0, 67, 0
3, 91200, Note_on_c, 0, 70, 98
3, 91248, Note_off_c, 0, 70, 0
3, 91248, Note_on_c, 0, 72, 98
3, 91344, Note_off_c, 0, 72, 0
3, 91344, Note_on_c, 0, 67, 98
3, 91392, Note_off_c, 0, 67, 0
3, 91392, Note_on_c, 0, 72, 98
3, 91440, Note_off_c, 0, 72, 0
3, 91440, Note_on_c, 0, 72, 98
3, 91488, Note_off_c, 0, 72, 0
3, 91488, Note_on_c, 0, 75, 98
3, 91536, Note_off_c, 0, 75, 0
3, 91536, Note_on_c, 0, 75, 98
3, 91584, Note_off_c, 0, 75, 0
3, 91584, Note_on_c, 0, 74, 98
3, 91632, Note_off_c, 0, 74, 0
3, 91632, Note_on_c, 0, 70, 98
3, 91680, Note_off_c, 0, 70, 0
3, 91680, Note_on_c, 0, 70, 98
3, 91728, Note_off_c, 0, 70, 0
3, 91728, Note_on_c, 0, 67, 98
3, 92160, Note_off_c, 0, 67, 0
3, 92160, Note_on_c, 0, 72, 98
3, 92208, Note_off_c, 0, 72, 0
3, 92208, Note_on_c, 0, 72, 98
3, 92256, Note_off_c, 0, 72, 0
3, 92256, Note_on_c, 0, 75, 98
3, 92304, Note_off_c, 0, 75, 0
3, 92304, Note_on_c, 0, 75, 98
3, 92352, Note_off_c, 0, 75, 0
3, 92352, Note_on_c, 0, 74, 98
3, 92400, Note_off_c, 0, 74, 0
3, 92400, Note_on_c, 0, 70, 98
3, 92448, Note_off_c, 0, 70, 0
3, 92448, Note_on_c, 0, 70, 98
3, 92496, Note_off_c, 0, 70, 0
3, 92496, Note_on_c, 0, 67, 98
3, 92544, Note_off_c, 0, 67, 0
3, 92544, Note_on_c, 0, 70, 98
3, 92592, Note_off_c, 0, 70, 0
3, 92592, Note_on_c, 0, 72, 98
3, 92688, Note_off_c, 0, 72, 0
3, 92688, Note_on_c, 0, 67, 98
3, 92736, Note_off_c, 0, 67, 0
3, 92736, Note_on_c, 0, 70, 98
3, 92784, Note_off_c, 0, 70, 0
3, 92784, Note_on_c, 0, 72, 98
3, 92880, Note_off_c, 0, 72, 0
3, 92880, Note_on_c, 0, 67, 98
3, 92928, Note_off_c, 0, 67, 0
3, 92928, Note_on_c, 0, 72, 98
3, 92976, Note_off_c, 0, 72, 0
3, 92976, Note_on_c, 0, 72, 98
3, 93024, Note_off_c, 0, 72, 0
3, 93024, Note_on_c, 0, 75, 98
3, 93072, Note_off_c, 0, 75, 0
3, 93072, Note_on_c, 0, 75, 98
3, 93120, Note_off_c, 0, 75, 0
3, 93120, Note_on_c, 0, 74, 98
3, 93168, Note_off_c, 0, 74, 0
3, 93168, Note_on_c, 0, 70, 98
3, 93216, Note_off_c, 0, 70, 0
3, 93216, Note_on_c, 0, 70, 98
3, 93264, Note_off_c, 0, 70, 0
3, 93264, Note_on_c, 0, 67, 98
3, 93696, Note_off_c, 0, 67, 0
3, 93696, Note_on_c, 0, 72, 98
3, 93744, Note_off_c, 0, 72, 0
3, 93744, Note_on_c, 0, 72, 98
3, 93792, Note_off_c, 0, 72, 0
3, 93792, Note_on_c, 0, 75, 98
3, 93840, Note_off_c, 0, 75, 0
3, 93840, Note_on_c, 0, 75, 98
3, 93888, Note_off_c, 0, 75, 0
3, 93888, Note_on_c, 0, 74, 98
3, 93936, Note_off_c, 0, 74, 0
3, 93936, Note_on_c, 0, 70, 98
3, 93984, Note_off_c, 0, 70, 0
3, 93984, Note_on_c, 0, 70, 98
3, 94032, Note_off_c, 0, 70, 0
3, 94032, Note_on_c, 0, 67, 98
3, 94080, Note_off_c, 0, 67, 0
3, 94080, Note_on_c, 0, 70, 98
3, 94128, Note_off_c, 0, 70, 0
3, 94128, Note_on_c, 0, 72, 98
3, 94224, Note_off_c, 0, 72, 0
3, 94224, Note_on_c, 0, 67, 98
3, 94272, Note_off_c, 0, 67, 0
3, 94272, Note_on_c, 0, 70, 98
3, 94320, Note_off_c, 0, 70, 0
3, 94320, Note_on_c, 0, 72, 98
3, 94416, Note_off_c, 0, 72, 0
3, 94416, Note_on_c, 0, 67, 98
3, 94464, Note_off_c, 0, 67, 0
3, 94464, Note_on_c, 0, 72, 98
3, 94512, Note_off_c, 0, 72, 0
3, 94512, Note_on_c, 0, 72, 98
3, 94560, Note_off_c, 0, 72, 0
3, 94560, Note_on_c, 0, 75, 98
3, 94608, Note_off_c, 0, 75, 0
3, 94608, Note_on_c, 0, 75, 98
3, 94656, Note_off_c, 0, 75, 0
3, 94656, Note_on_c, 0, 74, 98
3, 94704, Note_off_c, 0, 74, 0
3, 94704, Note_on_c, 0, 70, 98
3, 94752, Note_off_c, 0, 70, 0
3, 94752, Note_on_c, 0, 70, 98
3, 94800, Note_off_c, 0, 70, 0
3, 94800, Note_on_c, 0, 67, 98
3, 94848, Note_off_c, 0, 67, 0
3, 94848, Note_on_c, 0, 70, 98
3, 94896, Note_off_c, 0, 70, 0
3, 94896, Note_on_c, 0, 72, 98
3, 94992, Note_off_c, 0, 72, 0
3, 94992, Note_on_c, 0, 67, 98
3, 95040, Note_off_c, 0, 67, 0
3, 95040, Note_on_c, 0, 70, 98
3, 95088, Note_off_c, 0, 70, 0
3, 95088, Note_on_c, 0, 72, 98
3, 95184, Note_off_c, 0, 72, 0
3, 95184, Note_on_c, 0, 63, 99
3, 95232, Note_off_c, 0, 63, 0
3, 95232, Note_on_c, 0, 65, 99
3, 95376, Note_off_c, 0, 65, 0
3, 95376, Note_on_c, 0, 60, 99
3, 95472, Note_off_c, 0, 60, 0
3, 95472, Note_on_c, 0, 67, 99
3, 95472, Note_on_c, 0, 65, 99
3, 95568, Note_off_c, 0, 65, 0
3, 95568, Note_off_c, 0, 67, 0
3, 95568, Note_on_c, 0, 68, 99
3, 95568, Note_on_c, 0, 65, 99
3, 95616, Note_off_c, 0, 65, 0
3, 95616, Note_off_c, 0, 68, 0
3, 95616, Note_on_c, 0, 70, 99
3, 95616, Note_on_c, 0, 65, 99
3, 95712, Note_off_c, 0, 65, 0
3, 95712, Note_off_c, 0, 70, 0
3, 95712, Note_on_c, 0, 68, 99
3, 95712, Note_on_c, 0, 65, 99
3, 95760, Note_off_c, 0, 65, 0
3, 95760, Note_off_c, 0, 68, 0
3, 95760, Note_on_c, 0, 67, 99
3, 95856, Note_off_c, 0, 67, 0
3, 95856, Note_on_c, 0, 65, 99
3, 95952, Note_off_c, 0, 65, 0
3, 95952, Note_on_c, 0, 67, 99
3, 96096, Note_off_c, 0, 67, 0
3, 96096, Note_on_c, 0, 55, 101
3, 96120, Note_off_c, 0, 55, 0
3, 96120, Note_on_c, 0, 60, 102
3, 96144, Note_off_c, 0, 60, 0
3, 96144, Note_on_c, 0, 62, 102
3, 96168, Note_off_c, 0, 62, 0
3, 96168, Note_on_c, 0, 67, 103
3, 96192, Note_off_c, 0, 67, 0
3, 96192, Note_on_c, 0, 67, 104
3, 96216, Note_off_c, 0, 67, 0
3, 96216, Note_on_c, 0, 72, 105
3, 96240, Note_off_c, 0, 72, 0
3, 96240, Note_on_c, 0, 74, 106
3, 96264, Note_off_c, 0, 74, 0
3, 96264, Note_on_c, 0, 79, 107
3, 96312, Note_off_c, 0, 79, 0
3, 96312, Note_on_c, 0, 84, 108
3, 96336, Note_off_c, 0, 84, 0
3, 96336, Note_on_c, 0, 86, 109
3, 96360, Note_off_c, 0, 86, 0
3, 96360, Note_on_c, 0, 91, 110
3, 96384, Note_off_c, 0, 91, 0
3, 96384, Note_on_c, 0, 83, 105
3, 96576, Note_off_c, 0, 83, 0
3, 96768, Note_on_c, 0, 69, 104
3, 96816, Note_off_c, 0, 69, 0
3, 96816, Note_on_c, 0, 71, 104
3, 96864, Note_off_c, 0, 71, 0
3, 96864, Note_on_c, 0, 72, 104
3, 96912, Note_off_c, 0, 72, 0
3, 96912, Note_on_c, 0, 76, 104
3, 96960, Note_off_c, 0, 76, 0
3, 96960, Note_on_c, 0, 74, 104
3, 97008, Note_off_c, 0, 74, 0
3, 97008, Note_on_c, 0, 72, 104
3, 97056, Note_off_c, 0, 72, 0
3, 97056, Note_on_c, 0, 71, 104
3, 97056, Note_on_c, 0, 64, 104
3, 97104, Note_off_c, 0, 64, 0
3, 97104, Note_off_c, 0, 71, 0
3, 97104, Note_on_c, 0, 67, 104
3, 97152, Note_off_c, 0, 67, 0
3, 97152, Note_on_c, 0, 69, 104
3, 97296, Note_off_c, 0, 69, 0
3, 97296, Note_on_c, 0, 67, 104
3, 97440, Note_off_c, 0, 67, 0
3, 97440, Note_on_c, 0, 57, 104
3, 97488, Note_off_c, 0, 57, 0
3, 97488, Note_on_c, 0, 67, 104
3, 97512, Note_off_c, 0, 67, 0
3, 97512, Note_on_c, 0, 74, 104
3, 97512, Note_on_c, 0, 71, 104
3, 97536, Note_off_c, 0, 71, 0
3, 97536, Note_off_c, 0, 74, 0
3, 97536, Note_on_c, 0, 79, 104
3, 97632, Note_off_c, 0, 79, 0
3, 97632, Note_on_c, 0, 79, 104
3, 97680, Note_off_c, 0, 79, 0
3, 97680, Note_on_c, 0, 79, 104
3, 97776, Note_off_c, 0, 79, 0
3, 97776, Note_on_c, 0, 77, 104
3, 97824, Note_off_c, 0, 77, 0
3, 97824, Note_on_c, 0, 76, 104
3, 97872, Note_off_c, 0, 76, 0
3, 97872, Note_on_c, 0, 74, 104
3, 97920, Note_off_c, 0, 74, 0
3, 97920, Note_on_c, 0, 74, 104
3, 97968, Note_off_c, 0, 74, 0
3, 97968, Note_on_c, 0, 76, 104
3, 97968, Note_on_c, 0, 67, 104
3, 98016, Note_off_c, 0, 67, 0
3, 98016, Note_off_c, 0, 76, 0
3, 98016, Note_on_c, 0, 60, 104
3, 98064, Note_off_c, 0, 60, 0
3, 98064, Note_on_c, 0, 76, 104
3, 98064, Note_on_c, 0, 67, 104
3, 98304, Note_off_c, 0, 67, 0
3, 98304, Note_off_c, 0, 76, 0
3, 98304, Note_on_c, 0, 64, 104
3, 98304, Note_on_c, 0, 67, 104
3, 98352, Note_off_c, 0, 67, 0
3, 98352, Note_off_c, 0, 64, 0
3, 98352, Note_on_c, 0, 72, 104
3, 98352, Note_on_c, 0, 65, 104
3, 98400, Note_off_c, 0, 65, 0
3, 98400, Note_off_c, 0, 72, 0
3, 98400, Note_on_c, 0, 72, 104
3, 98400, Note_on_c, 0, 69, 104
3, 98448, Note_off_c, 0, 69, 0
3, 98448, Note_off_c, 0, 72, 0
3, 98448, Note_on_c, 0, 72, 104
3, 98448, Note_on_c, 0, 65, 104
3, 98496, Note_off_c, 0, 65, 0
3, 98496, Note_off_c, 0, 72, 0
3, 98496, Note_on_c, 0, 72, 104
3, 98496, Note_on_c, 0, 65, 104
3, 98544, Note_off_c, 0, 65, 0
3, 98544, Note_off_c, 0, 72, 0
3, 98544, Note_on_c, 0, 71, 104
3, 98592, Note_off_c, 0, 71, 0
3, 98592, Note_on_c, 0, 72, 104
3, 98592, Note_on_c, 0, 60, 104
3, 98736, Note_off_c, 0, 60, 0
3, 98736, Note_off_c, 0, 72, 0
3, 98736, Note_on_c, 0, 74, 104
3, 98736, Note_on_c, 0, 69, 104
3, 98736, Note_on_c, 0, 66, 104
3, 98784, Note_off_c, 0, 66, 0
3, 98784, Note_off_c, 0, 69, 0
3, 98784, Note_off_c, 0, 74, 0
3, 98784, Note_on_c, 0, 74, 104
3, 98784, Note_on_c, 0, 66, 104
3, 98832, Note_off_c, 0, 66, 0
3, 98832, Note_off_c, 0, 74, 0
3, 98832, Note_on_c, 0, 74, 104
3, 98832, Note_on_c, 0, 69, 104
3, 98832, Note_on_c, 0, 66, 104
3, 98880, Note_off_c, 0, 66, 0
3, 98880, Note_off_c, 0, 69, 0
3, 98880, Note_off_c, 0, 74, 0
3, 98880, Note_on_c, 0, 74, 104
3, 98880, Note_on_c, 0, 69, 104
3, 98880, Note_on_c, 0, 66, 104
3, 98928, Note_off_c, 0, 66, 0
3, 98928, Note_off_c, 0, 69, 0
3, 98928, Note_off_c, 0, 74, 0
3, 98928, Note_on_c, 0, 72, 104
3, 98976, Note_off_c, 0, 72, 0
3, 98976, Note_on_c, 0, 74, 104
3, 99120, Note_off_c, 0, 74, 0
3, 99120, Note_on_c, 0, 74, 104
3, 99120, Note_on_c, 0, 71, 104
3, 99120, Note_on_c, 0, 67, 104
3, 99168, Note_off_c, 0, 67, 0
3, 99168, Note_off_c, 0, 71, 0
3, 99168, Note_off_c, 0, 74, 0
3, 99168, Note_on_c, 0, 74, 104
3, 99168, Note_on_c, 0, 71, 104
3, 99168, Note_on_c, 0, 67, 104
3, 99216, Note_off_c, 0, 67, 0
3, 99216, Note_off_c, 0, 71, 0
3, 99216, Note_off_c, 0, 74, 0
3, 99216, Note_on_c, 0, 74, 104
3, 99216, Note_on_c, 0, 71, 104
3, 99216, Note_on_c, 0, 67, 104
3, 99264, Note_off_c, 0, 67, 0
3, 99264, Note_off_c, 0, 71, 0
3, 99264, Note_off_c, 0, 74, 0
3, 99264, Note_on_c, 0, 74, 104
3, 99264, Note_on_c, 0, 67, 104
3, 99312, Note_off_c, 0, 67, 0
3, 99312, Note_off_c, 0, 74, 0
3, 99312, Note_on_c, 0, 72, 104
3, 99360, Note_off_c, 0, 72, 0
3, 99360, Note_on_c, 0, 74, 104
3, 99408, Note_off_c, 0, 74, 0
3, 99408, Note_on_c, 0, 76, 104
3, 99456, Note_off_c, 0, 76, 0
3, 99456, Note_on_c, 0, 77, 104
3, 99552, Note_off_c, 0, 77, 0
3, 99552, Note_on_c, 0, 76, 104
3, 99600, Note_off_c, 0, 76, 0
3, 99600, Note_on_c, 0, 74, 104
3, 99696, Note_off_c, 0, 74, 0
3, 99696, Note_on_c, 0, 76, 104
3, 99792, Note_off_c, 0, 76, 0
3, 99792, Note_on_c, 0, 76, 104
3, 99792, Note_on_c, 0, 71, 104
3, 99792, Note_on_c, 0, 68, 104
3, 99792, Note_on_c, 0, 64, 104
3, 99936, Note_off_c, 0, 64, 0
3, 99936, Note_off_c, 0, 76, 0
3, 99936, Note_off_c, 0, 71, 0
3, 99936, Note_off_c, 0, 68, 0
3, 99936, Note_on_c, 0, 64, 104
3, 99984, Note_off_c, 0, 64, 0
3, 99984, Note_on_c, 0, 68, 104
3, 100032, Note_off_c, 0, 68, 0
3, 100032, Note_on_c, 0, 76, 104
3, 100080, Note_off_c, 0, 76, 0
3, 100080, Note_on_c, 0, 71, 104
3, 100128, Note_off_c, 0, 71, 0
3, 100128, Note_on_c, 0, 68, 104
3, 100176, Note_off_c, 0, 68, 0
3, 100176, Note_on_c, 0, 64, 104
3, 100224, Note_off_c, 0, 64, 0
3, 100224, Note_on_c, 0, 74, 92
3, 100272, Note_off_c, 0, 74, 0
3, 100272, Note_on_c, 0, 76, 92
3, 100320, Note_off_c, 0, 76, 0
3, 100320, Note_on_c, 0, 72, 92
3, 100368, Note_off_c, 0, 72, 0
3, 100368, Note_on_c, 0, 74, 92
3, 100416, Note_off_c, 0, 74, 0
3, 100416, Note_on_c, 0, 71, 92
3, 100416, Note_on_c, 0, 67, 92
3, 100464, Note_off_c, 0, 67, 0
3, 100464, Note_off_c, 0, 71, 0
3, 100464, Note_on_c, 0, 72, 92
3, 100512, Note_off_c, 0, 72, 0
3, 100512, Note_on_c, 0, 67, 92
3, 100560, Note_off_c, 0, 67, 0
3, 100560, Note_on_c, 0, 71, 92
3, 100656, Note_off_c, 0, 71, 0
3, 100656, Note_on_c, 0, 72, 92
3, 100704, Note_off_c, 0, 72, 0
3, 100704, Note_on_c, 0, 71, 92
3, 100752, Note_off_c, 0, 71, 0
3, 100752, Note_on_c, 0, 69, 92
3, 100800, Note_off_c, 0, 69, 0
3, 100800, Note_on_c, 0, 64, 92
3, 100992, Note_off_c, 0, 64, 0
3, 100992, Note_on_c, 0, 65, 91
3, 101040, Note_off_c, 0, 65, 0
3, 101040, Note_on_c, 0, 67, 91
3, 101088, Note_off_c, 0, 67, 0
3, 101088, Note_on_c, 0, 69, 91
3, 101136, Note_off_c, 0, 69, 0
3, 101136, Note_on_c, 0, 72, 91
3, 101184, Note_off_c, 0, 72, 0
3, 101184, Note_on_c, 0, 74, 91
3, 101232, Note_off_c, 0, 74, 0
3, 101232, Note_on_c, 0, 72, 91
3, 101280, Note_off_c, 0, 72, 0
3, 101280, Note_on_c, 0, 71, 91
3, 101328, Note_off_c, 0, 71, 0
3, 101328, Note_on_c, 0, 69, 91
3, 101376, Note_off_c, 0, 69, 0
3, 101376, Note_on_c, 0, 69, 95
3, 101472, Note_off_c, 0, 69, 0
3, 101472, Note_on_c, 0, 67, 97
3, 101568, Note_off_c, 0, 67, 0
3, 101568, Note_on_c, 0, 64, 99
3, 101715, Note_off_c, 0, 64, 0
3, 101760, Note_on_c, 0, 69, 103
3, 101808, Note_off_c, 0, 69, 0
3, 101808, Note_on_c, 0, 71, 103
3, 101856, Note_off_c, 0, 71, 0
3, 101856, Note_on_c, 0, 72, 103
3, 101904, Note_off_c, 0, 72, 0
3, 101904, Note_on_c, 0, 76, 103
3, 101952, Note_off_c, 0, 76, 0
3, 101952, Note_on_c, 0, 74, 103
3, 102000, Note_off_c, 0, 74, 0
3, 102000, Note_on_c, 0, 72, 103
3, 102048, Note_off_c, 0, 72, 0
3, 102048, Note_on_c, 0, 67, 103
3, 102096, Note_off_c, 0, 67, 0
3, 102096, Note_on_c, 0, 71, 103
3, 102192, Note_off_c, 0, 71, 0
3, 102192, Note_on_c, 0, 72, 103
3, 102240, Note_off_c, 0, 72, 0
3, 102240, Note_on_c, 0, 79, 103
3, 102288, Note_off_c, 0, 79, 0
3, 102288, Note_on_c, 0, 81, 103
3, 102336, Note_off_c, 0, 81, 0
3, 102336, Note_on_c, 0, 76, 103
3, 102480, Note_off_c, 0, 76, 0
3, 102480, Note_on_c, 0, 69, 103
3, 102480, Note_on_c, 0, 65, 103
3, 102504, Note_off_c, 0, 65, 0
3, 102504, Note_off_c, 0, 69, 0
3, 102504, Note_on_c, 0, 72, 103
3, 102528, Note_off_c, 0, 72, 0
3, 102528, Note_on_c, 0, 76, 103
3, 102576, Note_off_c, 0, 76, 0
3, 102576, Note_on_c, 0, 71, 103
3, 102576, Note_on_c, 0, 69, 103
3, 102624, Note_off_c, 0, 69, 0
3, 102624, Note_off_c, 0, 71, 0
3, 102624, Note_on_c, 0, 72, 103
3, 102672, Note_off_c, 0, 72, 0
3, 102672, Note_on_c, 0, 76, 103
3, 102720, Note_off_c, 0, 76, 0
3, 102720, Note_on_c, 0, 74, 103
3, 102720, Note_on_c, 0, 67, 103
3, 102768, Note_off_c, 0, 67, 0
3, 102768, Note_off_c, 0, 74, 0
3, 102768, Note_on_c, 0, 72, 103
3, 102816, Note_off_c, 0, 72, 0
3, 102816, Note_on_c, 0, 71, 103
3, 102864, Note_off_c, 0, 71, 0
3, 102864, Note_on_c, 0, 72, 103
3, 102912, Note_off_c, 0, 72, 0
3, 102912, Note_on_c, 0, 71, 103
3, 103056, Note_off_c, 0, 71, 0
3, 103056, Note_on_c, 0, 69, 103
3, 103104, Note_off_c, 0, 69, 0
3, 103104, Note_on_c, 0, 69, 103
3, 103296, Note_off_c, 0, 69, 0
3, 103296, Note_on_c, 0, 72, 105
3, 103296, Note_on_c, 0, 84, 102
3, 103344, Note_off_c, 0, 84, 0
3, 103344, Note_off_c, 0, 72, 0
3, 103344, Note_on_c, 0, 74, 105
3, 103344, Note_on_c, 0, 86, 102
3, 103392, Note_off_c, 0, 86, 0
3, 103392, Note_off_c, 0, 74, 0
3, 103392, Note_on_c, 0, 75, 105
3, 103392, Note_on_c, 0, 87, 102
3, 103440, Note_off_c, 0, 87, 0
3, 103440, Note_off_c, 0, 75, 0
3, 103440, Note_on_c, 0, 79, 105
3, 103440, Note_on_c, 0, 91, 102
3, 103488, Note_off_c, 0, 91, 0
3, 103488, Note_off_c, 0, 79, 0
3, 103488, Note_on_c, 0, 77, 105
3, 103488, Note_on_c, 0, 89, 102
3, 103536, Note_off_c, 0, 89, 0
3, 103536, Note_off_c, 0, 77, 0
3, 103536, Note_on_c, 0, 75, 105
3, 103536, Note_on_c, 0, 87, 102
3, 103584, Note_off_c, 0, 87, 0
3, 103584, Note_off_c, 0, 75, 0
3, 103584, Note_on_c, 0, 70, 105
3, 103584, Note_on_c, 0, 82, 102
3, 103632, Note_off_c, 0, 82, 0
3, 103632, Note_off_c, 0, 70, 0
3, 103632, Note_on_c, 0, 74, 105
3, 103632, Note_on_c, 0, 86, 102
3, 103728, Note_off_c, 0, 86, 0
3, 103728, Note_off_c, 0, 74, 0
3, 103728, Note_on_c, 0, 75, 105
3, 103728, Note_on_c, 0, 87, 102
3, 103776, Note_off_c, 0, 87, 0
3, 103776, Note_off_c, 0, 75, 0
3, 103776, Note_on_c, 0, 74, 105
3, 103776, Note_on_c, 0, 86, 102
3, 103824, Note_off_c, 0, 86, 0
3, 103824, Note_off_c, 0, 74, 0
3, 103824, Note_on_c, 0, 72, 105
3, 103824, Note_on_c, 0, 84, 102
3, 103872, Note_off_c, 0, 84, 0
3, 103872, Note_off_c, 0, 72, 0
3, 103872, Note_on_c, 0, 67, 105
3, 103872, Note_on_c, 0, 79, 102
3, 104064, Note_off_c, 0, 79, 0
3, 104064, Note_off_c, 0, 67, 0
3, 104064, Note_on_c, 0, 68, 105
3, 104064, Note_on_c, 0, 80, 102
3, 104112, Note_off_c, 0, 80, 0
3, 104112, Note_off_c, 0, 68, 0
3, 104112, Note_on_c, 0, 70, 105
3, 104112, Note_on_c, 0, 82, 102
3, 104160, Note_off_c, 0, 82, 0
3, 104160, Note_off_c, 0, 70, 0
3, 104160, Note_on_c, 0, 72, 105
3, 104160, Note_on_c, 0, 84, 102
3, 104208, Note_off_c, 0, 84, 0
3, 104208, Note_off_c, 0, 72, 0
3, 104208, Note_on_c, 0, 75, 105
3, 104208, Note_on_c, 0, 87, 102
3, 104256, Note_off_c, 0, 87, 0
3, 104256, Note_off_c, 0, 75, 0
3, 104256, Note_on_c, 0, 77, 105
3, 104256, Note_on_c, 0, 89, 102
3, 104304, Note_off_c, 0, 89, 0
3, 104304, Note_off_c, 0, 77, 0
3, 104304, Note_on_c, 0, 75, 105
3, 104304, Note_on_c, 0, 87, 102
3, 104352, Note_off_c, 0, 87, 0
3, 104352, Note_off_c, 0, 75, 0
3, 104352, Note_on_c, 0, 74, 105
3, 104352, Note_on_c, 0, 86, 102
3, 104400, Note_off_c, 0, 86, 0
3, 104400, Note_off_c, 0, 74, 0
3, 104400, Note_on_c, 0, 72, 105
3, 104400, Note_on_c, 0, 84, 102
3, 104448, Note_off_c, 0, 84, 0
3, 104448, Note_off_c, 0, 72, 0
3, 104448, Note_on_c, 0, 72, 105
3, 104448, Note_on_c, 0, 84, 102
3, 104520, Note_off_c, 0, 84, 0
3, 104520, Note_off_c, 0, 72, 0
3, 104520, Note_on_c, 0, 70, 105
3, 104520, Note_on_c, 0, 82, 102
3, 104592, Note_off_c, 0, 82, 0
3, 104592, Note_off_c, 0, 70, 0
3, 104592, Note_on_c, 0, 68, 105
3, 104592, Note_on_c, 0, 80, 102
3, 104640, Note_off_c, 0, 80, 0
3, 104640, Note_off_c, 0, 68, 0
3, 104640, Note_on_c, 0, 67, 105
3, 104640, Note_on_c, 0, 79, 102
3, 104736, Note_off_c, 0, 79, 0
3, 104736, Note_off_c, 0, 67, 0
3, 104736, Note_on_c, 0, 67, 105
3, 104736, Note_on_c, 0, 79, 102
3, 104832, Note_off_c, 0, 79, 0
3, 104832, Note_off_c, 0, 67, 0
3, 104832, Note_on_c, 0, 72, 105
3, 104832, Note_on_c, 0, 84, 102
3, 104880, Note_off_c, 0, 84, 0
3, 104880, Note_off_c, 0, 72, 0
3, 104880, Note_on_c, 0, 74, 105
3, 104880, Note_on_c, 0, 86, 102
3, 104928, Note_off_c, 0, 86, 0
3, 104928, Note_off_c, 0, 74, 0
3, 104928, Note_on_c, 0, 75, 105
3, 104928, Note_on_c, 0, 87, 102
3, 104976, Note_off_c, 0, 87, 0
3, 104976, Note_off_c, 0, 75, 0
3, 104976, Note_on_c, 0, 79, 105
3, 104976, Note_on_c, 0, 91, 102
3, 105024, Note_off_c, 0, 91, 0
3, 105024, Note_off_c, 0, 79, 0
3, 105024, Note_on_c, 0, 77, 105
3, 105024, Note_on_c, 0, 89, 102
3, 105072, Note_off_c, 0, 89, 0
3, 105072, Note_off_c, 0, 77, 0
3, 105072, Note_on_c, 0, 75, 105
3, 105072, Note_on_c, 0, 87, 102
3, 105120, Note_off_c, 0, 87, 0
3, 105120, Note_off_c, 0, 75, 0
3, 105120, Note_on_c, 0, 70, 105
3, 105120, Note_on_c, 0, 82, 102
3, 105168, Note_off_c, 0, 82, 0
3, 105168, Note_off_c, 0, 70, 0
3, 105168, Note_on_c, 0, 74, 105
3, 105168, Note_on_c, 0, 86, 102
3, 105264, Note_off_c, 0, 86, 0
3, 105264, Note_off_c, 0, 74, 0
3, 105264, Note_on_c, 0, 75, 105
3, 105264, Note_on_c, 0, 87, 102
3, 105312, Note_off_c, 0, 87, 0
3, 105312, Note_off_c, 0, 75, 0
3, 105312, Note_on_c, 0, 79, 105
3, 105312, Note_on_c, 0, 91, 102
3, 105360, Note_off_c, 0, 91, 0
3, 105360, Note_off_c, 0, 79, 0
3, 105360, Note_on_c, 0, 80, 105
3, 105360, Note_on_c, 0, 92, 102
3, 105408, Note_off_c, 0, 92, 0
3, 105408, Note_off_c, 0, 80, 0
3, 105408, Note_on_c, 0, 79, 105
3, 105408, Note_on_c, 0, 91, 102
3, 105552, Note_off_c, 0, 91, 0
3, 105552, Note_off_c, 0, 79, 0
3, 105552, Note_on_c, 0, 79, 102
3, 105552, Note_on_c, 0, 84, 102
3, 105552, Note_on_c, 0, 72, 105
3, 105552, Note_on_c, 0, 67, 105
3, 105576, Note_off_c, 0, 67, 0
3, 105576, Note_off_c, 0, 72, 0
3, 105576, Note_off_c, 0, 84, 0
3, 105576, Note_off_c, 0, 79, 0
3, 105576, Note_on_c, 0, 87, 102
3, 105576, Note_on_c, 0, 75, 105
3, 105648, Note_off_c, 0, 75, 0
3, 105648, Note_off_c, 0, 87, 0
3, 105648, Note_on_c, 0, 72, 105
3, 105648, Note_on_c, 0, 84, 102
3, 105696, Note_off_c, 0, 84, 0
3, 105696, Note_off_c, 0, 72, 0
3, 105696, Note_on_c, 0, 75, 105
3, 105696, Note_on_c, 0, 87, 102
3, 105744, Note_off_c, 0, 87, 0
3, 105744, Note_off_c, 0, 75, 0
3, 105744, Note_on_c, 0, 79, 105
3, 105744, Note_on_c, 0, 91, 102
3, 105792, Note_off_c, 0, 91, 0
3, 105792, Note_off_c, 0, 79, 0
3, 105792, Note_on_c, 0, 77, 105
3, 105792, Note_on_c, 0, 89, 102
3, 105840, Note_off_c, 0, 89, 0
3, 105840, Note_off_c, 0, 77, 0
3, 105840, Note_on_c, 0, 75, 105
3, 105840, Note_on_c, 0, 87, 102
3, 105888, Note_off_c, 0, 87, 0
3, 105888, Note_off_c, 0, 75, 0
3, 105888, Note_on_c, 0, 74, 105
3, 105888, Note_on_c, 0, 86, 102
3, 105936, Note_off_c, 0, 86, 0
3, 105936, Note_off_c, 0, 74, 0
3, 105936, Note_on_c, 0, 75, 105
3, 105936, Note_on_c, 0, 87, 102
3, 105984, Note_off_c, 0, 87, 0
3, 105984, Note_off_c, 0, 75, 0
3, 105984, Note_on_c, 0, 74, 105
3, 105984, Note_on_c, 0, 86, 102
3, 106128, Note_off_c, 0, 86, 0
3, 106128, Note_off_c, 0, 74, 0
3, 106128, Note_on_c, 0, 72, 105
3, 106128, Note_on_c, 0, 84, 102
3, 106176, Note_off_c, 0, 84, 0
3, 106176, Note_off_c, 0, 72, 0
3, 106176, Note_on_c, 0, 72, 105
3, 106176, Note_on_c, 0, 84, 102
3, 106272, Note_off_c, 0, 84, 0
3, 106272, Note_off_c, 0, 72, 0
3, 106368, Note_on_c, 0, 72, 107
3, 106368, Note_on_c, 0, 67, 107
3, 106416, Note_off_c, 0, 67, 0
3, 106416, Note_off_c, 0, 72, 0
3, 106416, Note_on_c, 0, 72, 107
3, 106416, Note_on_c, 0, 67, 107
3, 106464, Note_off_c, 0, 67, 0
3, 106464, Note_off_c, 0, 72, 0
3, 106464, Note_on_c, 0, 75, 107
3, 106512, Note_off_c, 0, 75, 0
3, 106512, Note_on_c, 0, 74, 107
3, 106512, Note_on_c, 0, 72, 107
3, 106512, Note_on_c, 0, 67, 107
3, 106608, Note_off_c, 0, 67, 0
3, 106608, Note_off_c, 0, 72, 0
3, 106608, Note_off_c, 0, 74, 0
3, 106608, Note_on_c, 0, 70, 107
3, 106656, Note_off_c, 0, 70, 0
3, 106656, Note_on_c, 0, 70, 107
3, 106704, Note_off_c, 0, 70, 0
3, 106704, Note_on_c, 0, 72, 107
3, 106800, Note_off_c, 0, 72, 0
3, 106800, Note_on_c, 0, 72, 107
3, 106848, Note_off_c, 0, 72, 0
3, 106848, Note_on_c, 0, 75, 107
3, 106896, Note_off_c, 0, 75, 0
3, 106896, Note_on_c, 0, 74, 107
3, 106992, Note_off_c, 0, 74, 0
3, 106992, Note_on_c, 0, 75, 107
3, 107040, Note_off_c, 0, 75, 0
3, 107040, Note_on_c, 0, 77, 107
3, 107136, Note_off_c, 0, 77, 0
3, 107136, Note_on_c, 0, 80, 107
3, 107136, Note_on_c, 0, 75, 107
3, 107136, Note_on_c, 0, 72, 107
3, 107232, Note_off_c, 0, 72, 0
3, 107232, Note_off_c, 0, 75, 0
3, 107232, Note_off_c, 0, 80, 0
3, 107232, Note_on_c, 0, 79, 107
3, 107232, Note_on_c, 0, 72, 107
3, 107328, Note_off_c, 0, 72, 0
3, 107328, Note_off_c, 0, 79, 0
3, 107328, Note_on_c, 0, 77, 107
3, 107328, Note_on_c, 0, 72, 107
3, 107424, Note_off_c, 0, 72, 0
3, 107424, Note_off_c, 0, 77, 0
3, 107424, Note_on_c, 0, 75, 107
3, 107424, Note_on_c, 0, 72, 107
3, 107520, Note_off_c, 0, 72, 0
3, 107520, Note_off_c, 0, 75, 0
3, 107520, Note_on_c, 0, 75, 107
3, 107520, Note_on_c, 0, 72, 107
3, 107664, Note_off_c, 0, 72, 0
3, 107664, Note_off_c, 0, 75, 0
3, 107664, Note_on_c, 0, 74, 107
3, 107664, Note_on_c, 0, 71, 107
3, 107712, Note_off_c, 0, 71, 0
3, 107712, Note_off_c, 0, 74, 0
3, 107712, Note_on_c, 0, 74, 107
3, 107712, Note_on_c, 0, 67, 107
3, 107904, Note_off_c, 0, 67, 0
3, 107904, Note_off_c, 0, 74, 0
3, 107904, Note_on_c, 0, 75, 107
3, 107904, Note_on_c, 0, 72, 107
3, 107904, Note_on_c, 0, 67, 107
3, 108048, Note_off_c, 0, 67, 0
3, 108048, Note_off_c, 0, 72, 0
3, 108048, Note_off_c, 0, 75, 0
3, 108048, Note_on_c, 0, 75, 107
3, 108048, Note_on_c, 0, 67, 107
3, 108096, Note_off_c, 0, 67, 0
3, 108096, Note_off_c, 0, 75, 0
3, 108096, Note_on_c, 0, 77, 107
3, 108144, Note_off_c, 0, 77, 0
3, 108144, Note_on_c, 0, 70, 107
3, 108192, Note_off_c, 0, 70, 0
3, 108192, Note_on_c, 0, 74, 107
3, 108240, Note_off_c, 0, 74, 0
3, 108240, Note_on_c, 0, 77, 107
3, 108288, Note_off_c, 0, 77, 0
3, 108288, Note_on_c, 0, 80, 107
3, 108288, Note_on_c, 0, 70, 107
3, 108360, Note_off_c, 0, 70, 0
3, 108360, Note_off_c, 0, 80, 0
3, 108360, Note_on_c, 0, 79, 107
3, 108432, Note_off_c, 0, 79, 0
3, 108432, Note_on_c, 0, 77, 107
3, 108480, Note_off_c, 0, 77, 0
3, 108480, Note_on_c, 0, 79, 107
3, 108480, Note_on_c, 0, 70, 107
3, 108624, Note_off_c, 0, 70, 0
3, 108624, Note_off_c, 0, 79, 0
3, 108624, Note_on_c, 0, 72, 107
3, 108624, Note_on_c, 0, 67, 107
3, 108648, Note_off_c, 0, 67, 0
3, 108648, Note_off_c, 0, 72, 0
3, 108648, Note_on_c, 0, 75, 107
3, 108672, Note_off_c, 0, 75, 0
3, 108672, Note_on_c, 0, 79, 108
3, 108864, Note_off_c, 0, 79, 0
3, 108864, Note_on_c, 0, 77, 108
3, 108912, Note_off_c, 0, 77, 0
3, 108912, Note_on_c, 0, 72, 108
3, 108960, Note_off_c, 0, 72, 0
3, 108960, Note_on_c, 0, 77, 108
3, 109008, Note_off_c, 0, 77, 0
3, 109008, Note_on_c, 0, 75, 108
3, 109056, Note_off_c, 0, 75, 0
3, 109056, Note_on_c, 0, 74, 108
3, 109104, Note_off_c, 0, 74, 0
3, 109104, Note_on_c, 0, 77, 108
3, 109152, Note_off_c, 0, 77, 0
3, 109152, Note_on_c, 0, 82, 108
3, 109200, Note_off_c, 0, 82, 0
3, 109200, Note_on_c, 0, 84, 108
3, 109248, Note_off_c, 0, 84, 0
3, 109248, Note_on_c, 0, 79, 108
3, 109248, Note_on_c, 0, 71, 108
3, 109392, Note_off_c, 0, 71, 0
3, 109392, Note_off_c, 0, 79, 0
3, 109392, Note_on_c, 0, 72, 108
3, 109392, Note_on_c, 0, 67, 108
3, 109416, Note_off_c, 0, 67, 0
3, 109416, Note_off_c, 0, 72, 0
3, 109416, Note_on_c, 0, 75, 108
3, 109440, Note_off_c, 0, 75, 0
3, 109440, Note_on_c, 0, 79, 108
3, 109536, Note_off_c, 0, 79, 0
3, 109536, Note_on_c, 0, 75, 108
3, 109584, Note_off_c, 0, 75, 0
3, 109584, Note_on_c, 0, 77, 108
3, 109680, Note_off_c, 0, 77, 0
3, 109680, Note_on_c, 0, 74, 108
3, 109728, Note_off_c, 0, 74, 0
3, 109728, Note_on_c, 0, 75, 108
3, 109776, Note_off_c, 0, 75, 0
3, 109776, Note_on_c, 0, 70, 108
3, 109824, Note_off_c, 0, 70, 0
3, 109824, Note_on_c, 0, 72, 108
3, 109872, Note_off_c, 0, 72, 0
3, 109872, Note_on_c, 0, 74, 108
3, 109920, Note_off_c, 0, 74, 0
3, 109920, Note_on_c, 0, 75, 108
3, 109968, Note_off_c, 0, 75, 0
3, 109968, Note_on_c, 0, 77, 108
3, 110016, Note_off_c, 0, 77, 0
3, 110016, Note_on_c, 0, 82, 108
3, 110064, Note_off_c, 0, 82, 0
3, 110064, Note_on_c, 0, 79, 108
3, 110112, Note_off_c, 0, 79, 0
3, 110112, Note_on_c, 0, 77, 108
3, 110160, Note_off_c, 0, 77, 0
3, 110160, Note_on_c, 0, 79, 108
3, 110208, Note_off_c, 0, 79, 0
3, 110208, Note_on_c, 0, 75, 108
3, 110304, Note_off_c, 0, 75, 0
3, 110304, Note_on_c, 0, 72, 108
3, 110352, Note_off_c, 0, 72, 0
3, 110352, Note_on_c, 0, 72, 108
3, 110496, Note_off_c, 0, 72, 0
3, 110544, Note_on_c, 0, 72, 108
3, 110736, Note_off_c, 0, 72, 0
3, 110928, Note_on_c, 0, 67, 108
3, 110952, Note_off_c, 0, 67, 0
3, 110952, Note_on_c, 0, 75, 108
3, 110952, Note_on_c, 0, 72, 108
3, 110976, Note_off_c, 0, 72, 0
3, 110976, Note_off_c, 0, 75, 0
3, 110976, Note_on_c, 0, 79, 108
3, 111120, Note_off_c, 0, 79, 0
3, 111120, Note_on_c, 0, 77, 105
3, 111120, Note_on_c, 0, 65, 105
3, 111264, Note_off_c, 0, 65, 0
3, 111264, Note_off_c, 0, 77, 0
3, 111264, Note_on_c, 0, 70, 105
3, 111360, Note_off_c, 0, 70, 0
3, 111360, Note_on_c, 0, 79, 105
3, 111360, Note_on_c, 0, 75, 105
3, 111360, Note_on_c, 0, 72, 105
3, 111360, Note_on_c, 0, 67, 105
3, 111504, Note_off_c, 0, 67, 0
3, 111504, Note_off_c, 0, 72, 0
3, 111504, Note_off_c, 0, 79, 0
3, 111504, Note_off_c, 0, 75, 0
3, 111504, Note_on_c, 0, 77, 105
3, 111504, Note_on_c, 0, 65, 105
3, 111648, Note_off_c, 0, 65, 0
3, 111648, Note_off_c, 0, 77, 0
3, 111648, Note_on_c, 0, 82, 105
3, 111648, Note_on_c, 0, 70, 105
3, 111744, Note_off_c, 0, 70, 0
3, 111744, Note_off_c, 0, 82, 0
3, 111744, Note_on_c, 0, 79, 105
3, 111744, Note_on_c, 0, 75, 105
3, 111744, Note_on_c, 0, 72, 105
3, 111744, Note_on_c, 0, 67, 105
3, 112128, Note_off_c, 0, 67, 0
3, 112128, Note_off_c, 0, 72, 0
3, 112128, Note_off_c, 0, 75, 0
3, 112128, Note_off_c, 0, 79, 0
3, 112128, Note_on_c, 0, 72, 105
3, 112272, Note_off_c, 0, 72, 0
3, 112272, Note_on_c, 0, 77, 105
3, 112272, Note_on_c, 0, 72, 105
3, 112416, Note_off_c, 0, 72, 0
3, 112416, Note_off_c, 0, 77, 0
3, 112416, Note_on_c, 0, 79, 105
3, 112416, Note_on_c, 0, 72, 105
3, 112512, Note_off_c, 0, 72, 0
3, 112512, Note_off_c, 0, 79, 0
3, 112512, Note_on_c, 0, 79, 105
3, 112512, Note_on_c, 0, 75, 105
3, 112512, Note_on_c, 0, 72, 105
3, 112512, Note_on_c, 0, 67, 105
3, 112656, Note_off_c, 0, 67, 0
3, 112656, Note_off_c, 0, 72, 0
3, 112656, Note_off_c, 0, 75, 0
3, 112656, Note_off_c, 0, 79, 0
3, 112656, Note_on_c, 0, 77, 105
3, 112656, Note_on_c, 0, 72, 105
3, 112656, Note_on_c, 0, 65, 105
3, 112800, Note_off_c, 0, 65, 0
3, 112800, Note_off_c, 0, 72, 0
3, 112800, Note_off_c, 0, 77, 0
3, 112800, Note_on_c, 0, 70, 105
3, 112896, Note_off_c, 0, 70, 0
3, 112896, Note_on_c, 0, 79, 105
3, 112896, Note_on_c, 0, 75, 105
3, 112896, Note_on_c, 0, 72, 105
3, 112896, Note_on_c, 0, 67, 105
3, 113088, Note_off_c, 0, 67, 0
3, 113088, Note_off_c, 0, 72, 0
3, 113088, Note_off_c, 0, 79, 0
3, 113088, Note_off_c, 0, 75, 0
3, 113088, Note_on_c, 0, 94, 112
3, 113136, Note_off_c, 0, 94, 0
3, 113136, Note_on_c, 0, 92, 110
3, 113184, Note_off_c, 0, 92, 0
3, 113184, Note_on_c, 0, 91, 109
3, 113232, Note_off_c, 0, 91, 0
3, 113232, Note_on_c, 0, 89, 109
3, 113280, Note_off_c, 0, 89, 0
3, 113280, Note_on_c, 0, 87, 108
3, 113424, Note_off_c, 0, 87, 0
3, 113424, Note_on_c, 0, 87, 106
3, 113472, Note_off_c, 0, 87, 0
3, 113472, Note_on_c, 0, 86, 105
3, 113520, Note_off_c, 0, 86, 0
3, 113520, Note_on_c, 0, 82, 104
3, 113568, Note_off_c, 0, 82, 0
3, 113568, Note_on_c, 0, 79, 103
3, 113616, Note_off_c, 0, 79, 0
3, 113616, Note_on_c, 0, 82, 102
3, 113712, Note_off_c, 0, 82, 0
3, 113712, Note_on_c, 0, 75, 76
3, 113736, Note_off_c, 0, 75, 0
3, 113736, Note_on_c, 0, 79, 83
3, 113760, Note_off_c, 0, 79, 0
3, 113760, Note_on_c, 0, 84, 93
3, 114048, Note_off_c, 0, 84, 0
3, 114048, Note_on_c, 0, 84, 84
3, 114072, Note_off_c, 0, 84, 0
3, 114072, Note_on_c, 0, 87, 79
3, 114096, Note_off_c, 0, 87, 0
3, 114096, Note_on_c, 0, 91, 73
3, 114288, Note_off_c, 0, 91, 0
3, 114288, Note_on_c, 0, 89, 77
3, 114528, Note_off_c, 0, 89, 0
3, 114528, Note_on_c, 0, 94, 70
3, 114672, Note_on_c, 0, 84, 61
3, 114696, Note_off_c, 0, 84, 0
3, 114696, Note_on_c, 0, 87, 58
3, 114720, Note_off_c, 0, 94, 0
3, 114720, Note_off_c, 0, 87, 0
3, 114720, Note_on_c, 0, 91, 55
3, 114816, Note_off_c, 0, 91, 0
3, 115200, Note_on_c, 0, 73, 81
3, 115200, Note_on_c, 0, 63, 81
3, 115378, Note_off_c, 0, 63, 0
3, 115378, Note_off_c, 0, 73, 0
3, 115392, Note_on_c, 0, 72, 81
3, 115392, Note_on_c, 0, 64, 81
3, 115570, Note_off_c, 0, 64, 0
3, 115570, Note_off_c, 0, 72, 0
3, 115584, Note_on_c, 0, 73, 81
3, 115584, Note_on_c, 0, 63, 81
3, 115762, Note_off_c, 0, 63, 0
3, 115762, Note_off_c, 0, 73, 0
3, 115776, Note_on_c, 0, 76, 81
3, 115776, Note_on_c, 0, 72, 81
3, 115863, Note_off_c, 0, 72, 0
3, 115863, Note_off_c, 0, 76, 0
3, 115872, Note_on_c, 0, 80, 81
3, 115959, Note_off_c, 0, 80, 0
3, 115968, Note_on_c, 0, 73, 81
3, 115968, Note_on_c, 0, 63, 81
3, 116146, Note_off_c, 0, 63, 0
3, 116146, Note_off_c, 0, 73, 0
3, 116160, Note_on_c, 0, 72, 81
3, 116160, Note_on_c, 0, 64, 81
3, 116338, Note_off_c, 0, 64, 0
3, 116338, Note_off_c, 0, 72, 0
3, 116352, Note_on_c, 0, 73, 81
3, 116352, Note_on_c, 0, 63, 81
3, 116530, Note_off_c, 0, 73, 0
3, 116530, Note_off_c, 0, 63, 0
3, 116544, Note_on_c, 0, 85, 85
3, 116544, Note_on_c, 0, 73, 85
3, 116562, Note_off_c, 0, 85, 0
3, 116562, Note_off_c, 0, 73, 0
3, 116592, Note_on_c, 0, 83, 88
3, 116592, Note_on_c, 0, 71, 88
3, 116610, Note_off_c, 0, 83, 0
3, 116610, Note_off_c, 0, 71, 0
3, 116640, Note_on_c, 0, 81, 93
3, 116640, Note_on_c, 0, 69, 93
3, 116658, Note_off_c, 0, 81, 0
3, 116658, Note_off_c, 0, 69, 0
3, 116688, Note_on_c, 0, 80, 96
3, 116688, Note_on_c, 0, 68, 96
3, 116706, Note_off_c, 0, 80, 0
3, 116706, Note_off_c, 0, 68, 0
3, 116736, Note_on_c, 0, 73, 103
3, 116736, Note_on_c, 0, 68, 103
3, 116736, Note_on_c, 0, 64, 103
3, 116914, Note_off_c, 0, 64, 0
3, 116914, Note_off_c, 0, 68, 0
3, 116914, Note_off_c, 0, 73, 0
3, 116928, Note_on_c, 0, 76, 102
3, 116928, Note_on_c, 0, 72, 102
3, 116928, Note_on_c, 0, 68, 102
3, 116969, Note_off_c, 0, 68, 0
3, 116969, Note_off_c, 0, 72, 0
3, 116969, Note_off_c, 0, 76, 0
3, 116976, Note_on_c, 0, 73, 102
3, 116976, Note_on_c, 0, 61, 102
3, 117063, Note_off_c, 0, 61, 0
3, 117063, Note_off_c, 0, 73, 0
3, 117072, Note_on_c, 0, 73, 102
3, 117072, Note_on_c, 0, 61, 102
3, 117113, Note_off_c, 0, 61, 0
3, 117113, Note_off_c, 0, 73, 0
3, 117120, Note_on_c, 0, 73, 102
3, 117120, Note_on_c, 0, 68, 102
3, 117120, Note_on_c, 0, 64, 102
3, 117161, Note_off_c, 0, 64, 0
3, 117161, Note_off_c, 0, 68, 0
3, 117161, Note_off_c, 0, 73, 0
3, 117168, Note_on_c, 0, 80, 102
3, 117168, Note_on_c, 0, 68, 102
3, 117209, Note_off_c, 0, 68, 0
3, 117209, Note_off_c, 0, 80, 0
3, 117216, Note_on_c, 0, 80, 102
3, 117216, Note_on_c, 0, 68, 102
3, 117257, Note_off_c, 0, 68, 0
3, 117257, Note_off_c, 0, 80, 0
3, 117264, Note_on_c, 0, 80, 102
3, 117264, Note_on_c, 0, 76, 102
3, 117264, Note_on_c, 0, 73, 102
3, 117305, Note_off_c, 0, 73, 0
3, 117305, Note_off_c, 0, 80, 0
3, 117305, Note_off_c, 0, 76, 0
3, 117312, Note_on_c, 0, 80, 102
3, 117312, Note_on_c, 0, 76, 102
3, 117312, Note_on_c, 0, 73, 102
3, 117399, Note_off_c, 0, 73, 0
3, 117399, Note_off_c, 0, 76, 0
3, 117399, Note_off_c, 0, 80, 0
3, 117408, Note_on_c, 0, 76, 102
3, 117408, Note_on_c, 0, 64, 102
3, 117449, Note_off_c, 0, 64, 0
3, 117449, Note_off_c, 0, 76, 0
3, 117456, Note_on_c, 0, 75, 102
3, 117456, Note_on_c, 0, 63, 102
3, 117497, Note_off_c, 0, 63, 0
3, 117497, Note_off_c, 0, 75, 0
3, 117504, Note_on_c, 0, 73, 102
3, 117504, Note_on_c, 0, 68, 102
3, 117504, Note_on_c, 0, 64, 102
3, 117682, Note_off_c, 0, 64, 0
3, 117682, Note_off_c, 0, 68, 0
3, 117682, Note_off_c, 0, 73, 0
3, 117696, Note_on_c, 0, 76, 103
3, 117696, Note_on_c, 0, 73, 103
3, 117696, Note_on_c, 0, 68, 103
3, 117696, Note_on_c, 0, 64, 103
3, 117737, Note_off_c, 0, 64, 0
3, 117737, Note_off_c, 0, 68, 0
3, 117737, Note_off_c, 0, 76, 0
3, 117737, Note_off_c, 0, 73, 0
3, 117744, Note_on_c, 0, 73, 103
3, 117744, Note_on_c, 0, 61, 103
3, 117831, Note_off_c, 0, 61, 0
3, 117831, Note_off_c, 0, 73, 0
3, 117840, Note_on_c, 0, 73, 103
3, 117840, Note_on_c, 0, 61, 103
3, 117881, Note_off_c, 0, 61, 0
3, 117881, Note_off_c, 0, 73, 0
3, 117888, Note_on_c, 0, 73, 103
3, 117888, Note_on_c, 0, 68, 103
3, 117888, Note_on_c, 0, 64, 103
3, 117929, Note_off_c, 0, 64, 0
3, 117929, Note_off_c, 0, 68, 0
3, 117929, Note_off_c, 0, 73, 0
3, 117936, Note_on_c, 0, 80, 103
3, 117936, Note_on_c, 0, 68, 103
3, 117977, Note_off_c, 0, 68, 0
3, 117977, Note_off_c, 0, 80, 0
3, 117984, Note_on_c, 0, 80, 103
3, 117984, Note_on_c, 0, 76, 103
3, 117984, Note_on_c, 0, 73, 103
3, 118025, Note_off_c, 0, 73, 0
3, 118025, Note_off_c, 0, 76, 0
3, 118025, Note_off_c, 0, 80, 0
3, 118032, Note_on_c, 0, 80, 103
3, 118032, Note_on_c, 0, 76, 103
3, 118032, Note_on_c, 0, 73, 103
3, 118073, Note_off_c, 0, 73, 0
3, 118073, Note_off_c, 0, 80, 0
3, 118073, Note_off_c, 0, 76, 0
3, 118080, Note_on_c, 0, 85, 103
3, 118080, Note_on_c, 0, 73, 103
3, 118121, Note_off_c, 0, 85, 0
3, 118121, Note_off_c, 0, 73, 0
3, 118128, Note_on_c, 0, 83, 103
3, 118128, Note_on_c, 0, 71, 103
3, 118169, Note_off_c, 0, 83, 0
3, 118169, Note_off_c, 0, 71, 0
3, 118176, Note_on_c, 0, 81, 103
3, 118176, Note_on_c, 0, 69, 103
3, 118217, Note_off_c, 0, 81, 0
3, 118217, Note_off_c, 0, 69, 0
3, 118224, Note_on_c, 0, 80, 103
3, 118224, Note_on_c, 0, 68, 103
3, 118265, Note_off_c, 0, 68, 0
3, 118265, Note_off_c, 0, 80, 0
3, 118272, Note_on_c, 0, 68, 103
3, 118272, Note_on_c, 0, 64, 103
3, 118272, Note_on_c, 0, 61, 103
3, 118364, Note_off_c, 0, 61, 0
3, 118450, Note_off_c, 0, 68, 0
3, 118450, Note_off_c, 0, 64, 0
3, 118464, Note_on_c, 0, 76, 103
3, 118464, Note_on_c, 0, 72, 103
3, 118464, Note_on_c, 0, 68, 103
3, 118505, Note_off_c, 0, 68, 0
3, 118505, Note_off_c, 0, 72, 0
3, 118505, Note_off_c, 0, 76, 0
3, 118512, Note_on_c, 0, 73, 103
3, 118512, Note_on_c, 0, 61, 103
3, 118599, Note_off_c, 0, 61, 0
3, 118599, Note_off_c, 0, 73, 0
3, 118608, Note_on_c, 0, 73, 103
3, 118608, Note_on_c, 0, 68, 103
3, 118608, Note_on_c, 0, 64, 103
3, 118649, Note_off_c, 0, 64, 0
3, 118649, Note_off_c, 0, 73, 0
3, 118649, Note_off_c, 0, 68, 0
3, 118656, Note_on_c, 0, 73, 103
3, 118656, Note_on_c, 0, 68, 103
3, 118656, Note_on_c, 0, 64, 103
3, 118697, Note_off_c, 0, 64, 0
3, 118697, Note_off_c, 0, 68, 0
3, 118697, Note_off_c, 0, 73, 0
3, 118704, Note_on_c, 0, 80, 103
3, 118704, Note_on_c, 0, 68, 103
3, 118745, Note_off_c, 0, 68, 0
3, 118745, Note_off_c, 0, 80, 0
3, 118752, Note_on_c, 0, 80, 103
3, 118752, Note_on_c, 0, 68, 103
3, 118793, Note_off_c, 0, 68, 0
3, 118793, Note_off_c, 0, 80, 0
3, 118800, Note_on_c, 0, 80, 103
3, 118800, Note_on_c, 0, 76, 103
3, 118800, Note_on_c, 0, 73, 103
3, 118841, Note_off_c, 0, 73, 0
3, 118841, Note_off_c, 0, 80, 0
3, 118841, Note_off_c, 0, 76, 0
3, 118848, Note_on_c, 0, 80, 103
3, 118848, Note_on_c, 0, 76, 103
3, 118848, Note_on_c, 0, 73, 103
3, 118935, Note_off_c, 0, 73, 0
3, 118935, Note_off_c, 0, 76, 0
3, 118935, Note_off_c, 0, 80, 0
3, 118944, Note_on_c, 0, 76, 103
3, 118944, Note_on_c, 0, 64, 103
3, 118985, Note_off_c, 0, 64, 0
3, 118985, Note_off_c, 0, 76, 0
3, 118992, Note_on_c, 0, 75, 103
3, 118992, Note_on_c, 0, 63, 103
3, 119033, Note_off_c, 0, 63, 0
3, 119033, Note_off_c, 0, 75, 0
3, 119040, Note_on_c, 0, 73, 103
3, 119040, Note_on_c, 0, 68, 103
3, 119040, Note_on_c, 0, 64, 103
3, 119127, Note_off_c, 0, 64, 0
3, 119127, Note_off_c, 0, 68, 0
3, 119127, Note_off_c, 0, 73, 0
3, 119136, Note_on_c, 0, 85, 103
3, 119136, Note_on_c, 0, 73, 103
3, 119227, Note_off_c, 0, 73, 0
3, 119227, Note_off_c, 0, 85, 0
3, 119232, Note_on_c, 0, 73, 103
3, 119232, Note_on_c, 0, 66, 103
3, 119232, Note_on_c, 0, 61, 103
3, 119319, Note_off_c, 0, 61, 0
3, 119319, Note_off_c, 0, 66, 0
3, 119319, Note_off_c, 0, 73, 0
3, 119328, Note_on_c, 0, 85, 103
3, 119328, Note_on_c, 0, 78, 103
3, 119328, Note_on_c, 0, 73, 103
3, 119419, Note_off_c, 0, 73, 0
3, 119419, Note_off_c, 0, 78, 0
3, 119419, Note_off_c, 0, 85, 0
3, 119424, Note_on_c, 0, 73, 103
3, 119424, Note_on_c, 0, 68, 103
3, 119424, Note_on_c, 0, 64, 103
3, 119465, Note_off_c, 0, 64, 0
3, 119465, Note_off_c, 0, 68, 0
3, 119465, Note_off_c, 0, 73, 0
3, 119472, Note_on_c, 0, 85, 103
3, 119472, Note_on_c, 0, 73, 103
3, 119513, Note_off_c, 0, 73, 0
3, 119513, Note_off_c, 0, 85, 0
3, 119520, Note_on_c, 0, 85, 103
3, 119520, Note_on_c, 0, 73, 103
3, 119561, Note_off_c, 0, 73, 0
3, 119561, Note_off_c, 0, 85, 0
3, 119568, Note_on_c, 0, 85, 103
3, 119568, Note_on_c, 0, 73, 103
3, 119609, Note_off_c, 0, 73, 0
3, 119609, Note_off_c, 0, 85, 0
3, 119616, Note_on_c, 0, 85, 103
3, 119616, Note_on_c, 0, 80, 103
3, 119616, Note_on_c, 0, 76, 103
3, 119657, Note_off_c, 0, 76, 0
3, 119657, Note_off_c, 0, 80, 0
3, 119657, Note_off_c, 0, 85, 0
3, 119664, Note_on_c, 0, 83, 103
3, 119664, Note_on_c, 0, 71, 103
3, 119705, Note_off_c, 0, 71, 0
3, 119705, Note_off_c, 0, 83, 0
3, 119712, Note_on_c, 0, 81, 103
3, 119712, Note_on_c, 0, 69, 103
3, 119753, Note_off_c, 0, 69, 0
3, 119753, Note_off_c, 0, 81, 0
3, 119760, Note_on_c, 0, 85, 103
3, 119760, Note_on_c, 0, 73, 103
3, 119778, Note_off_c, 0, 85, 0
3, 119778, Note_off_c, 0, 73, 0
3, 119784, Note_on_c, 0, 87, 103
3, 119784, Note_on_c, 0, 75, 103
3, 119802, Note_off_c, 0, 75, 0
3, 119802, Note_off_c, 0, 87, 0
3, 119808, Note_on_c, 0, 88, 103
3, 119808, Note_on_c, 0, 76, 103
3, 119849, Note_off_c, 0, 76, 0
3, 119849, Note_off_c, 0, 88, 0
3, 119856, Note_on_c, 0, 87, 103
3, 119856, Note_on_c, 0, 75, 103
3, 119897, Note_off_c, 0, 75, 0
3, 119897, Note_off_c, 0, 87, 0
3, 119904, Note_on_c, 0, 90, 103
3, 119904, Note_on_c, 0, 78, 103
3, 119945, Note_off_c, 0, 78, 0
3, 119945, Note_off_c, 0, 90, 0
3, 119952, Note_on_c, 0, 88, 103
3, 119952, Note_on_c, 0, 76, 103
3, 119993, Note_off_c, 0, 76, 0
3, 119993, Note_off_c, 0, 88, 0
3, 120000, Note_on_c, 0, 92, 103
3, 120000, Note_on_c, 0, 80, 103
3, 120041, Note_off_c, 0, 80, 0
3, 120041, Note_off_c, 0, 92, 0
3, 120048, Note_on_c, 0, 90, 103
3, 120048, Note_on_c, 0, 78, 103
3, 120089, Note_off_c, 0, 78, 0
3, 120089, Note_off_c, 0, 90, 0
3, 120096, Note_on_c, 0, 93, 103
3, 120096, Note_on_c, 0, 81, 103
3, 120137, Note_off_c, 0, 81, 0
3, 120137, Note_off_c, 0, 93, 0
3, 120144, Note_on_c, 0, 92, 103
3, 120144, Note_on_c, 0, 80, 103
3, 120185, Note_off_c, 0, 80, 0
3, 120185, Note_off_c, 0, 92, 0
3, 120192, Note_on_c, 0, 90, 103
3, 120192, Note_on_c, 0, 78, 103
3, 120233, Note_off_c, 0, 78, 0
3, 120233, Note_off_c, 0, 90, 0
3, 120240, Note_on_c, 0, 92, 103
3, 120240, Note_on_c, 0, 80, 103
3, 120281, Note_off_c, 0, 80, 0
3, 120281, Note_off_c, 0, 92, 0
3, 120288, Note_on_c, 0, 88, 103
3, 120288, Note_on_c, 0, 76, 103
3, 120329, Note_off_c, 0, 76, 0
3, 120329, Note_off_c, 0, 88, 0
3, 120336, Note_on_c, 0, 87, 103
3, 120336, Note_on_c, 0, 75, 103
3, 120377, Note_off_c, 0, 75, 0
3, 120377, Note_off_c, 0, 87, 0
3, 120384, Note_on_c, 0, 88, 103
3, 120384, Note_on_c, 0, 76, 103
3, 120425, Note_off_c, 0, 76, 0
3, 120425, Note_off_c, 0, 88, 0
3, 120432, Note_on_c, 0, 92, 103
3, 120432, Note_on_c, 0, 80, 103
3, 120473, Note_off_c, 0, 80, 0
3, 120473, Note_off_c, 0, 92, 0
3, 120480, Note_on_c, 0, 88, 103
3, 120480, Note_on_c, 0, 75, 103
3, 120521, Note_off_c, 0, 75, 0
3, 120521, Note_off_c, 0, 88, 0
3, 120528, Note_on_c, 0, 92, 103
3, 120528, Note_on_c, 0, 80, 103
3, 120569, Note_off_c, 0, 80, 0
3, 120569, Note_off_c, 0, 92, 0
3, 120576, Note_on_c, 0, 85, 103
3, 120576, Note_on_c, 0, 73, 103
3, 120617, Note_off_c, 0, 73, 0
3, 120617, Note_off_c, 0, 85, 0
3, 120624, Note_on_c, 0, 80, 103
3, 120624, Note_on_c, 0, 68, 103
3, 120665, Note_off_c, 0, 68, 0
3, 120665, Note_off_c, 0, 80, 0
3, 120672, Note_on_c, 0, 85, 103
3, 120672, Note_on_c, 0, 73, 103
3, 120713, Note_off_c, 0, 73, 0
3, 120713, Note_off_c, 0, 85, 0
3, 120720, Note_on_c, 0, 87, 103
3, 120720, Note_on_c, 0, 75, 103
3, 120761, Note_off_c, 0, 75, 0
3, 120761, Note_off_c, 0, 87, 0
3, 120768, Note_on_c, 0, 88, 103
3, 120768, Note_on_c, 0, 76, 103
3, 120809, Note_off_c, 0, 76, 0
3, 120809, Note_off_c, 0, 88, 0
3, 120816, Note_on_c, 0, 80, 103
3, 120816, Note_on_c, 0, 68, 103
3, 120857, Note_off_c, 0, 68, 0
3, 120857, Note_off_c, 0, 80, 0
3, 120864, Note_on_c, 0, 87, 103
3, 120864, Note_on_c, 0, 75, 103
3, 120905, Note_off_c, 0, 75, 0
3, 120905, Note_off_c, 0, 87, 0
3, 120912, Note_on_c, 0, 80, 103
3, 120912, Note_on_c, 0, 68, 103
3, 120953, Note_off_c, 0, 68, 0
3, 120953, Note_off_c, 0, 80, 0
3, 120960, Note_on_c, 0, 85, 103
3, 120960, Note_on_c, 0, 73, 103
3, 121001, Note_off_c, 0, 73, 0
3, 121001, Note_off_c, 0, 85, 0
3, 121008, Note_on_c, 0, 80, 103
3, 121008, Note_on_c, 0, 68, 103
3, 121049, Note_off_c, 0, 68, 0
3, 121049, Note_off_c, 0, 80, 0
3, 121056, Note_on_c, 0, 85, 103
3, 121056, Note_on_c, 0, 73, 103
3, 121097, Note_off_c, 0, 73, 0
3, 121097, Note_off_c, 0, 85, 0
3, 121104, Note_on_c, 0, 80, 103
3, 121104, Note_on_c, 0, 68, 103
3, 121145, Note_off_c, 0, 68, 0
3, 121145, Note_off_c, 0, 80, 0
3, 121152, Note_on_c, 0, 85, 103
3, 121152, Note_on_c, 0, 73, 103
3, 121193, Note_off_c, 0, 85, 0
3, 121193, Note_off_c, 0, 73, 0
3, 121200, Note_on_c, 0, 83, 103
3, 121200, Note_on_c, 0, 71, 103
3, 121241, Note_off_c, 0, 71, 0
3, 121241, Note_off_c, 0, 83, 0
3, 121248, Note_on_c, 0, 80, 103
3, 121335, Note_off_c, 0, 80, 0
3, 121344, Note_on_c, 0, 88, 80
3, 121431, Note_off_c, 0, 88, 0
3, 121440, Note_on_c, 0, 90, 80
3, 121481, Note_off_c, 0, 90, 0
3, 121488, Note_on_c, 0, 87, 80
3, 121575, Note_off_c, 0, 87, 0
3, 121584, Note_on_c, 0, 88, 80
3, 121671, Note_off_c, 0, 88, 0
3, 121680, Note_on_c, 0, 85, 80
3, 121767, Note_off_c, 0, 85, 0
3, 121776, Note_on_c, 0, 87, 80
3, 121863, Note_off_c, 0, 87, 0
3, 121872, Note_on_c, 0, 81, 80
3, 121959, Note_off_c, 0, 81, 0
3, 121968, Note_on_c, 0, 80, 80
3, 122055, Note_off_c, 0, 80, 0
3, 122064, Note_on_c, 0, 80, 80
3, 122105, Note_off_c, 0, 80, 0
3, 122112, Note_on_c, 0, 88, 80
3, 122199, Note_off_c, 0, 88, 0
3, 122208, Note_on_c, 0, 90, 80
3, 122249, Note_off_c, 0, 90, 0
3, 122256, Note_on_c, 0, 87, 80
3, 122343, Note_off_c, 0, 87, 0
3, 122352, Note_on_c, 0, 88, 80
3, 122439, Note_off_c, 0, 88, 0
3, 122448, Note_on_c, 0, 85, 80
3, 122535, Note_off_c, 0, 85, 0
3, 122544, Note_on_c, 0, 95, 80
3, 122631, Note_off_c, 0, 95, 0
3, 122640, Note_on_c, 0, 97, 80
3, 122772, Note_off_c, 0, 97, 0
3, 122784, Note_on_c, 0, 80, 80
3, 122871, Note_off_c, 0, 80, 0
3, 122880, Note_on_c, 0, 88, 80
3, 122967, Note_off_c, 0, 88, 0
3, 122976, Note_on_c, 0, 90, 80
3, 123017, Note_off_c, 0, 90, 0
3, 123024, Note_on_c, 0, 87, 80
3, 123111, Note_off_c, 0, 87, 0
3, 123120, Note_on_c, 0, 88, 80
3, 123207, Note_off_c, 0, 88, 0
3, 123216, Note_on_c, 0, 85, 80
3, 123303, Note_off_c, 0, 85, 0
3, 123312, Note_on_c, 0, 87, 80
3, 123399, Note_off_c, 0, 87, 0
3, 123408, Note_on_c, 0, 81, 80
3, 123495, Note_off_c, 0, 81, 0
3, 123504, Note_on_c, 0, 80, 80
3, 123636, Note_off_c, 0, 80, 0
3, 123648, Note_on_c, 0, 76, 80
3, 123735, Note_off_c, 0, 76, 0
3, 123744, Note_on_c, 0, 80, 80
3, 123785, Note_off_c, 0, 80, 0
3, 123792, Note_on_c, 0, 75, 80
3, 123879, Note_off_c, 0, 75, 0
3, 123888, Note_on_c, 0, 80, 80
3, 123975, Note_off_c, 0, 80, 0
3, 123984, Note_on_c, 0, 73, 80
3, 123984, Note_on_c, 0, 68, 80
3, 123984, Note_on_c, 0, 64, 80
3, 124025, Note_off_c, 0, 64, 0
3, 124025, Note_off_c, 0, 68, 0
3, 124025, Note_off_c, 0, 73, 0
3, 124224, Note_on_c, 0, 86, 84
3, 124224, Note_on_c, 0, 74, 84
3, 124242, Note_off_c, 0, 86, 0
3, 124242, Note_off_c, 0, 74, 0
3, 124272, Note_on_c, 0, 84, 87
3, 124272, Note_on_c, 0, 72, 87
3, 124290, Note_off_c, 0, 84, 0
3, 124290, Note_off_c, 0, 72, 0
3, 124320, Note_on_c, 0, 82, 91
3, 124320, Note_on_c, 0, 70, 91
3, 124338, Note_off_c, 0, 82, 0
3, 124338, Note_off_c, 0, 70, 0
3, 124368, Note_on_c, 0, 81, 95
3, 124368, Note_on_c, 0, 69, 95
3, 124386, Note_off_c, 0, 81, 0
3, 124386, Note_off_c, 0, 69, 0
3, 124416, Note_on_c, 0, 74, 99
3, 124416, Note_on_c, 0, 65, 99
3, 124416, Note_on_c, 0, 62, 99
3, 124594, Note_off_c, 0, 62, 0
3, 124594, Note_off_c, 0, 65, 0
3, 124594, Note_off_c, 0, 74, 0
3, 124608, Note_on_c, 0, 77, 103
3, 124608, Note_on_c, 0, 69, 103
3, 124608, Note_on_c, 0, 65, 103
3, 124649, Note_off_c, 0, 65, 0
3, 124649, Note_off_c, 0, 69, 0
3, 124649, Note_off_c, 0, 77, 0
3, 124656, Note_on_c, 0, 74, 103
3, 124656, Note_on_c, 0, 65, 103
3, 124656, Note_on_c, 0, 62, 103
3, 124743, Note_off_c, 0, 62, 0
3, 124743, Note_off_c, 0, 74, 0
3, 124743, Note_off_c, 0, 65, 0
3, 124752, Note_on_c, 0, 74, 103
3, 124752, Note_on_c, 0, 62, 103
3, 124793, Note_off_c, 0, 62, 0
3, 124793, Note_off_c, 0, 74, 0
3, 124800, Note_on_c, 0, 74, 103
3, 124800, Note_on_c, 0, 69, 103
3, 124800, Note_on_c, 0, 65, 103
3, 124841, Note_off_c, 0, 65, 0
3, 124841, Note_off_c, 0, 69, 0
3, 124841, Note_off_c, 0, 74, 0
3, 124848, Note_on_c, 0, 81, 103
3, 124848, Note_on_c, 0, 77, 103
3, 124848, Note_on_c, 0, 74, 103
3, 124848, Note_on_c, 0, 69, 103
3, 124889, Note_off_c, 0, 69, 0
3, 124889, Note_off_c, 0, 81, 0
3, 124889, Note_off_c, 0, 77, 0
3, 124889, Note_off_c, 0, 74, 0
3, 124896, Note_on_c, 0, 81, 103
3, 124896, Note_on_c, 0, 77, 103
3, 124896, Note_on_c, 0, 74, 103
3, 124896, Note_on_c, 0, 69, 103
3, 124937, Note_off_c, 0, 69, 0
3, 124937, Note_off_c, 0, 74, 0
3, 124937, Note_off_c, 0, 81, 0
3, 124937, Note_off_c, 0, 77, 0
3, 124944, Note_on_c, 0, 81, 103
3, 124944, Note_on_c, 0, 77, 103
3, 124944, Note_on_c, 0, 74, 103
3, 124944, Note_on_c, 0, 69, 103
3, 124985, Note_off_c, 0, 69, 0
3, 124985, Note_off_c, 0, 81, 0
3, 124985, Note_off_c, 0, 77, 0
3, 124985, Note_off_c, 0, 74, 0
3, 124992, Note_on_c, 0, 81, 103
3, 124992, Note_on_c, 0, 77, 103
3, 124992, Note_on_c, 0, 72, 103
3, 124992, Note_on_c, 0, 69, 103
3, 125079, Note_off_c, 0, 69, 0
3, 125079, Note_off_c, 0, 72, 0
3, 125079, Note_off_c, 0, 81, 0
3, 125079, Note_off_c, 0, 77, 0
3, 125088, Note_on_c, 0, 77, 103
3, 125088, Note_on_c, 0, 65, 103
3, 125129, Note_off_c, 0, 65, 0
3, 125129, Note_off_c, 0, 77, 0
3, 125136, Note_on_c, 0, 76, 103
3, 125136, Note_on_c, 0, 64, 103
3, 125177, Note_off_c, 0, 64, 0
3, 125177, Note_off_c, 0, 76, 0
3, 125184, Note_on_c, 0, 74, 103
3, 125184, Note_on_c, 0, 70, 103
3, 125184, Note_on_c, 0, 65, 103
3, 125362, Note_off_c, 0, 65, 0
3, 125362, Note_off_c, 0, 70, 0
3, 125362, Note_off_c, 0, 74, 0
3, 125376, Note_on_c, 0, 77, 103
3, 125376, Note_on_c, 0, 74, 103
3, 125376, Note_on_c, 0, 69, 103
3, 125376, Note_on_c, 0, 65, 103
3, 125417, Note_off_c, 0, 65, 0
3, 125417, Note_off_c, 0, 69, 0
3, 125417, Note_off_c, 0, 77, 0
3, 125417, Note_off_c, 0, 74, 0
3, 125424, Note_on_c, 0, 62, 103
3, 125424, Note_on_c, 0, 74, 103
3, 125424, Note_on_c, 0, 69, 103
3, 125424, Note_on_c, 0, 65, 103
3, 125511, Note_off_c, 0, 65, 0
3, 125511, Note_off_c, 0, 62, 0
3, 125511, Note_off_c, 0, 74, 0
3, 125511, Note_off_c, 0, 69, 0
3, 125520, Note_on_c, 0, 74, 103
3, 125520, Note_on_c, 0, 62, 103
3, 125561, Note_off_c, 0, 62, 0
3, 125561, Note_off_c, 0, 74, 0
3, 125568, Note_on_c, 0, 74, 103
3, 125568, Note_on_c, 0, 70, 103
3, 125568, Note_on_c, 0, 67, 103
3, 125609, Note_off_c, 0, 67, 0
3, 125609, Note_off_c, 0, 70, 0
3, 125609, Note_off_c, 0, 74, 0
3, 125616, Note_on_c, 0, 81, 103
3, 125616, Note_on_c, 0, 76, 103
3, 125616, Note_on_c, 0, 74, 103
3, 125616, Note_on_c, 0, 69, 103
3, 125657, Note_off_c, 0, 69, 0
3, 125657, Note_off_c, 0, 81, 0
3, 125657, Note_off_c, 0, 76, 0
3, 125657, Note_off_c, 0, 74, 0
3, 125664, Note_on_c, 0, 81, 103
3, 125664, Note_on_c, 0, 76, 103
3, 125664, Note_on_c, 0, 74, 103
3, 125664, Note_on_c, 0, 69, 103
3, 125705, Note_off_c, 0, 69, 0
3, 125705, Note_off_c, 0, 74, 0
3, 125705, Note_off_c, 0, 76, 0
3, 125705, Note_off_c, 0, 81, 0
3, 125712, Note_on_c, 0, 81, 103
3, 125712, Note_on_c, 0, 76, 103
3, 125712, Note_on_c, 0, 70, 103
3, 125753, Note_off_c, 0, 70, 0
3, 125753, Note_off_c, 0, 81, 0
3, 125753, Note_off_c, 0, 76, 0
3, 125760, Note_on_c, 0, 81, 103
3, 125778, Note_off_c, 0, 81, 0
3, 125784, Note_on_c, 0, 82, 103
3, 125802, Note_off_c, 0, 82, 0
3, 125808, Note_on_c, 0, 79, 103
3, 125826, Note_off_c, 0, 79, 0
3, 125832, Note_on_c, 0, 81, 103
3, 125850, Note_off_c, 0, 81, 0
3, 125856, Note_on_c, 0, 77, 103
3, 125874, Note_off_c, 0, 77, 0
3, 125880, Note_on_c, 0, 79, 103
3, 125898, Note_off_c, 0, 79, 0
3, 125904, Note_on_c, 0, 76, 103
3, 125922, Note_off_c, 0, 76, 0
3, 125928, Note_on_c, 0, 77, 103
3, 125946, Note_off_c, 0, 77, 0
3, 125952, Note_on_c, 0, 74, 103
3, 125952, Note_on_c, 0, 65, 103
3, 125952, Note_on_c, 0, 62, 103
3, 126130, Note_off_c, 0, 62, 0
3, 126130, Note_off_c, 0, 65, 0
3, 126130, Note_off_c, 0, 74, 0
3, 126144, Note_on_c, 0, 77, 103
3, 126144, Note_on_c, 0, 74, 103
3, 126144, Note_on_c, 0, 69, 103
3, 126144, Note_on_c, 0, 65, 103
3, 126185, Note_off_c, 0, 65, 0
3, 126185, Note_off_c, 0, 69, 0
3, 126185, Note_off_c, 0, 77, 0
3, 126185, Note_off_c, 0, 74, 0
3, 126192, Note_on_c, 0, 74, 103
3, 126192, Note_on_c, 0, 65, 103
3, 126192, Note_on_c, 0, 62, 103
3, 126279, Note_off_c, 0, 62, 0
3, 126279, Note_off_c, 0, 74, 0
3, 126279, Note_off_c, 0, 65, 0
3, 126288, Note_on_c, 0, 74, 103
3, 126288, Note_on_c, 0, 62, 103
3, 126329, Note_off_c, 0, 62, 0
3, 126329, Note_off_c, 0, 74, 0
3, 126336, Note_on_c, 0, 74, 103
3, 126336, Note_on_c, 0, 69, 103
3, 126336, Note_on_c, 0, 65, 103
3, 126336, Note_on_c, 0, 62, 103
3, 126377, Note_off_c, 0, 62, 0
3, 126377, Note_off_c, 0, 65, 0
3, 126377, Note_off_c, 0, 74, 0
3, 126377, Note_off_c, 0, 69, 0
3, 126384, Note_on_c, 0, 81, 103
3, 126384, Note_on_c, 0, 77, 103
3, 126384, Note_on_c, 0, 74, 103
3, 126384, Note_on_c, 0, 69, 103
3, 126425, Note_off_c, 0, 69, 0
3, 126425, Note_off_c, 0, 81, 0
3, 126425, Note_off_c, 0, 77, 0
3, 126425, Note_off_c, 0, 74, 0
3, 126432, Note_on_c, 0, 81, 103
3, 126432, Note_on_c, 0, 77, 103
3, 126432, Note_on_c, 0, 74, 103
3, 126432, Note_on_c, 0, 69, 103
3, 126473, Note_off_c, 0, 69, 0
3, 126473, Note_off_c, 0, 74, 0
3, 126473, Note_off_c, 0, 81, 0
3, 126473, Note_off_c, 0, 77, 0
3, 126480, Note_on_c, 0, 81, 103
3, 126480, Note_on_c, 0, 77, 103
3, 126480, Note_on_c, 0, 74, 103
3, 126480, Note_on_c, 0, 69, 103
3, 126521, Note_off_c, 0, 69, 0
3, 126521, Note_off_c, 0, 81, 0
3, 126521, Note_off_c, 0, 77, 0
3, 126521, Note_off_c, 0, 74, 0
3, 126528, Note_on_c, 0, 81, 103
3, 126528, Note_on_c, 0, 77, 103
3, 126528, Note_on_c, 0, 72, 103
3, 126615, Note_off_c, 0, 72, 0
3, 126615, Note_off_c, 0, 77, 0
3, 126615, Note_off_c, 0, 81, 0
3, 126624, Note_on_c, 0, 77, 103
3, 126624, Note_on_c, 0, 65, 103
3, 126665, Note_off_c, 0, 65, 0
3, 126665, Note_off_c, 0, 77, 0
3, 126672, Note_on_c, 0, 76, 103
3, 126672, Note_on_c, 0, 64, 103
3, 126713, Note_off_c, 0, 64, 0
3, 126713, Note_off_c, 0, 76, 0
3, 126720, Note_on_c, 0, 74, 103
3, 126720, Note_on_c, 0, 70, 103
3, 126720, Note_on_c, 0, 65, 103
3, 126807, Note_off_c, 0, 65, 0
3, 126807, Note_off_c, 0, 70, 0
3, 126807, Note_off_c, 0, 74, 0
3, 126816, Note_on_c, 0, 86, 103
3, 126816, Note_on_c, 0, 82, 103
3, 126816, Note_on_c, 0, 77, 103
3, 126816, Note_on_c, 0, 74, 103
3, 126907, Note_off_c, 0, 74, 0
3, 126907, Note_off_c, 0, 77, 0
3, 126907, Note_off_c, 0, 86, 0
3, 126907, Note_off_c, 0, 82, 0
3, 126912, Note_on_c, 0, 74, 103
3, 126912, Note_on_c, 0, 69, 103
3, 126912, Note_on_c, 0, 67, 103
3, 126999, Note_off_c, 0, 67, 0
3, 126999, Note_off_c, 0, 69, 0
3, 126999, Note_off_c, 0, 74, 0
3, 127008, Note_on_c, 0, 86, 103
3, 127008, Note_on_c, 0, 81, 103
3, 127008, Note_on_c, 0, 79, 103
3, 127008, Note_on_c, 0, 74, 103
3, 127099, Note_off_c, 0, 74, 0
3, 127099, Note_off_c, 0, 79, 0
3, 127099, Note_off_c, 0, 86, 0
3, 127099, Note_off_c, 0, 81, 0
3, 127104, Note_on_c, 0, 74, 103
3, 127104, Note_on_c, 0, 69, 103
3, 127104, Note_on_c, 0, 65, 103
3, 127104, Note_on_c, 0, 62, 103
3, 127145, Note_off_c, 0, 62, 0
3, 127145, Note_off_c, 0, 65, 0
3, 127145, Note_off_c, 0, 74, 0
3, 127145, Note_off_c, 0, 69, 0
3, 127152, Note_on_c, 0, 86, 103
3, 127152, Note_on_c, 0, 81, 103
3, 127152, Note_on_c, 0, 77, 103
3, 127152, Note_on_c, 0, 74, 103
3, 127193, Note_off_c, 0, 74, 0
3, 127193, Note_off_c, 0, 77, 0
3, 127193, Note_off_c, 0, 86, 0
3, 127193, Note_off_c, 0, 81, 0
3, 127200, Note_on_c, 0, 86, 103
3, 127200, Note_on_c, 0, 81, 103
3, 127200, Note_on_c, 0, 77, 103
3, 127200, Note_on_c, 0, 74, 103
3, 127241, Note_off_c, 0, 74, 0
3, 127241, Note_off_c, 0, 77, 0
3, 127241, Note_off_c, 0, 86, 0
3, 127241, Note_off_c, 0, 81, 0
3, 127248, Note_on_c, 0, 86, 103
3, 127248, Note_on_c, 0, 81, 103
3, 127248, Note_on_c, 0, 77, 103
3, 127248, Note_on_c, 0, 74, 103
3, 127289, Note_off_c, 0, 74, 0
3, 127289, Note_off_c, 0, 77, 0
3, 127289, Note_off_c, 0, 86, 0
3, 127289, Note_off_c, 0, 81, 0
3, 127296, Note_on_c, 0, 86, 103
3, 127296, Note_on_c, 0, 81, 103
3, 127296, Note_on_c, 0, 77, 103
3, 127296, Note_on_c, 0, 74, 103
3, 127383, Note_off_c, 0, 74, 0
3, 127383, Note_off_c, 0, 77, 0
3, 127383, Note_off_c, 0, 86, 0
3, 127383, Note_off_c, 0, 81, 0
3, 127392, Note_on_c, 0, 81, 103
3, 127392, Note_on_c, 0, 77, 103
3, 127392, Note_on_c, 0, 74, 103
3, 127392, Note_on_c, 0, 69, 103
3, 127479, Note_off_c, 0, 69, 0
3, 127479, Note_off_c, 0, 74, 0
3, 127479, Note_off_c, 0, 81, 0
3, 127479, Note_off_c, 0, 77, 0
3, 127488, Note_on_c, 0, 89, 103
3, 127488, Note_on_c, 0, 86, 103
3, 127488, Note_on_c, 0, 81, 103
3, 127488, Note_on_c, 0, 77, 103
3, 127620, Note_off_c, 0, 77, 0
3, 127620, Note_off_c, 0, 81, 0
3, 127620, Note_off_c, 0, 89, 0
3, 127620, Note_off_c, 0, 86, 0
3, 127632, Note_on_c, 0, 88, 103
3, 127632, Note_on_c, 0, 76, 103
3, 127650, Note_off_c, 0, 88, 0
3, 127650, Note_off_c, 0, 76, 0
3, 127656, Note_on_c, 0, 86, 103
3, 127656, Note_on_c, 0, 74, 103
3, 127674, Note_off_c, 0, 74, 0
3, 127674, Note_off_c, 0, 86, 0
3, 127680, Note_on_c, 0, 88, 103
3, 127680, Note_on_c, 0, 84, 103
3, 127680, Note_on_c, 0, 79, 103
3, 127680, Note_on_c, 0, 76, 103
3, 127767, Note_off_c, 0, 76, 0
3, 127767, Note_off_c, 0, 79, 0
3, 127767, Note_off_c, 0, 88, 0
3, 127767, Note_off_c, 0, 84, 0
3, 127776, Note_on_c, 0, 84, 103
3, 127776, Note_on_c, 0, 79, 103
3, 127776, Note_on_c, 0, 76, 103
3, 127776, Note_on_c, 0, 72, 103
3, 127863, Note_off_c, 0, 72, 0
3, 127863, Note_off_c, 0, 76, 0
3, 127863, Note_off_c, 0, 84, 0
3, 127863, Note_off_c, 0, 79, 0
3, 127872, Note_on_c, 0, 86, 103
3, 127872, Note_on_c, 0, 81, 103
3, 127872, Note_on_c, 0, 77, 103
3, 127872, Note_on_c, 0, 74, 103
3, 128004, Note_off_c, 0, 74, 0
3, 128004, Note_off_c, 0, 77, 0
3, 128004, Note_off_c, 0, 86, 0
3, 128004, Note_off_c, 0, 81, 0
3, 128016, Note_on_c, 0, 84, 103
3, 128016, Note_on_c, 0, 72, 103
3, 128034, Note_off_c, 0, 84, 0
3, 128034, Note_off_c, 0, 72, 0
3, 128040, Note_on_c, 0, 82, 103
3, 128040, Note_on_c, 0, 70, 103
3, 128058, Note_off_c, 0, 70, 0
3, 128058, Note_off_c, 0, 82, 0
3, 128064, Note_on_c, 0, 84, 103
3, 128064, Note_on_c, 0, 72, 103
3, 128151, Note_off_c, 0, 72, 0
3, 128151, Note_off_c, 0, 84, 0
3, 128160, Note_on_c, 0, 81, 103
3, 128160, Note_on_c, 0, 77, 103
3, 128160, Note_on_c, 0, 72, 103
3, 128160, Note_on_c, 0, 69, 103
3, 128247, Note_off_c, 0, 69, 0
3, 128247, Note_off_c, 0, 72, 0
3, 128247, Note_off_c, 0, 81, 0
3, 128247, Note_off_c, 0, 77, 0
3, 128256, Note_on_c, 0, 82, 103
3, 128256, Note_on_c, 0, 77, 103
3, 128256, Note_on_c, 0, 74, 103
3, 128256, Note_on_c, 0, 70, 103
3, 128388, Note_off_c, 0, 70, 0
3, 128388, Note_off_c, 0, 74, 0
3, 128388, Note_off_c, 0, 82, 0
3, 128388, Note_off_c, 0, 77, 0
3, 128400, Note_on_c, 0, 81, 103
3, 128400, Note_on_c, 0, 69, 103
3, 128418, Note_off_c, 0, 81, 0
3, 128418, Note_off_c, 0, 69, 0
3, 128424, Note_on_c, 0, 79, 103
3, 128424, Note_on_c, 0, 67, 103
3, 128442, Note_off_c, 0, 67, 0
3, 128442, Note_off_c, 0, 79, 0
3, 128448, Note_on_c, 0, 81, 103
3, 128448, Note_on_c, 0, 69, 103
3, 128535, Note_off_c, 0, 69, 0
3, 128535, Note_off_c, 0, 81, 0
3, 128544, Note_on_c, 0, 77, 103
3, 128544, Note_on_c, 0, 65, 103
3, 128631, Note_off_c, 0, 65, 0
3, 128631, Note_off_c, 0, 77, 0
3, 128640, Note_on_c, 0, 76, 103
3, 128640, Note_on_c, 0, 70, 103
3, 128640, Note_on_c, 0, 67, 103
3, 128640, Note_on_c, 0, 64, 103
3, 128727, Note_off_c, 0, 64, 0
3, 128727, Note_off_c, 0, 67, 0
3, 128727, Note_off_c, 0, 76, 0
3, 128727, Note_off_c, 0, 70, 0
3, 128736, Note_on_c, 0, 81, 103
3, 128736, Note_on_c, 0, 69, 103
3, 128823, Note_off_c, 0, 69, 0
3, 128823, Note_off_c, 0, 81, 0
3, 128832, Note_on_c, 0, 79, 103
3, 128832, Note_on_c, 0, 76, 103
3, 128832, Note_on_c, 0, 73, 103
3, 128832, Note_on_c, 0, 67, 103
3, 128873, Note_off_c, 0, 67, 0
3, 128873, Note_off_c, 0, 79, 0
3, 128873, Note_off_c, 0, 76, 0
3, 128873, Note_off_c, 0, 73, 0
3, 128880, Note_on_c, 0, 77, 103
3, 128880, Note_on_c, 0, 65, 103
3, 128921, Note_off_c, 0, 65, 0
3, 128921, Note_off_c, 0, 77, 0
3, 128928, Note_on_c, 0, 76, 103
3, 128928, Note_on_c, 0, 64, 103
3, 128969, Note_off_c, 0, 64, 0
3, 128969, Note_off_c, 0, 76, 0
3, 128976, Note_on_c, 0, 77, 103
3, 128976, Note_on_c, 0, 65, 103
3, 129017, Note_off_c, 0, 65, 0
3, 129017, Note_off_c, 0, 77, 0
3, 129024, Note_on_c, 0, 74, 103
3, 129024, Note_on_c, 0, 69, 103
3, 129024, Note_on_c, 0, 65, 103
3, 129024, Note_on_c, 0, 62, 103
3, 129067, Note_off_c, 0, 62, 0
3, 129067, Note_off_c, 0, 65, 0
3, 129067, Note_off_c, 0, 74, 0
3, 129067, Note_off_c, 0, 69, 0
3, 129072, Note_on_c, 0, 74, 103
3, 129090, Note_off_c, 0, 74, 0
3, 129096, Note_on_c, 0, 69, 103
3, 129114, Note_off_c, 0, 69, 0
3, 129120, Note_on_c, 0, 65, 103
3, 129138, Note_off_c, 0, 65, 0
3, 129144, Note_on_c, 0, 62, 103
3, 129162, Note_off_c, 0, 62, 0
3, 129168, Note_on_c, 0, 65, 103
3, 129186, Note_off_c, 0, 65, 0
3, 129192, Note_on_c, 0, 69, 103
3, 129210, Note_off_c, 0, 69, 0
3, 129216, Note_on_c, 0, 76, 103
3, 129216, Note_on_c, 0, 64, 103
3, 129235, Note_off_c, 0, 76, 0
3, 129235, Note_off_c, 0, 64, 0
3, 129240, Note_on_c, 0, 72, 103
3, 129258, Note_off_c, 0, 72, 0
3, 129264, Note_on_c, 0, 67, 103
3, 129282, Note_off_c, 0, 67, 0
3, 129288, Note_on_c, 0, 64, 103
3, 129306, Note_off_c, 0, 64, 0
3, 129312, Note_on_c, 0, 81, 103
3, 129312, Note_on_c, 0, 69, 103
3, 129331, Note_off_c, 0, 81, 0
3, 129331, Note_off_c, 0, 69, 0
3, 129336, Note_on_c, 0, 76, 103
3, 129354, Note_off_c, 0, 76, 0
3, 129360, Note_on_c, 0, 72, 103
3, 129378, Note_off_c, 0, 72, 0
3, 129384, Note_on_c, 0, 69, 103
3, 129402, Note_off_c, 0, 69, 0
3, 129408, Note_on_c, 0, 79, 103
3, 129408, Note_on_c, 0, 67, 103
3, 129427, Note_off_c, 0, 79, 0
3, 129427, Note_off_c, 0, 67, 0
3, 129432, Note_on_c, 0, 74, 103
3, 129450, Note_off_c, 0, 74, 0
3, 129456, Note_on_c, 0, 70, 103
3, 129474, Note_off_c, 0, 70, 0
3, 129480, Note_on_c, 0, 67, 103
3, 129498, Note_off_c, 0, 67, 0
3, 129504, Note_on_c, 0, 89, 103
3, 129504, Note_on_c, 0, 77, 103
3, 129523, Note_off_c, 0, 89, 0
3, 129523, Note_off_c, 0, 77, 0
3, 129528, Note_on_c, 0, 86, 103
3, 129546, Note_off_c, 0, 86, 0
3, 129552, Note_on_c, 0, 81, 103
3, 129570, Note_off_c, 0, 81, 0
3, 129576, Note_on_c, 0, 77, 103
3, 129594, Note_off_c, 0, 77, 0
3, 129600, Note_on_c, 0, 88, 103
3, 129600, Note_on_c, 0, 84, 103
3, 129600, Note_on_c, 0, 79, 103
3, 129600, Note_on_c, 0, 76, 103
3, 129643, Note_off_c, 0, 76, 0
3, 129643, Note_off_c, 0, 79, 0
3, 129643, Note_off_c, 0, 88, 0
3, 129643, Note_off_c, 0, 84, 0
3, 129648, Note_on_c, 0, 86, 103
3, 129648, Note_on_c, 0, 74, 103
3, 129689, Note_off_c, 0, 74, 0
3, 129689, Note_off_c, 0, 86, 0
3, 129696, Note_on_c, 0, 84, 103
3, 129696, Note_on_c, 0, 72, 103
3, 129737, Note_off_c, 0, 72, 0
3, 129737, Note_off_c, 0, 84, 0
3, 129744, Note_on_c, 0, 81, 103
3, 129744, Note_on_c, 0, 69, 103
3, 129785, Note_off_c, 0, 69, 0
3, 129785, Note_off_c, 0, 81, 0
3, 129792, Note_on_c, 0, 86, 103
3, 129792, Note_on_c, 0, 74, 103
3, 129811, Note_off_c, 0, 86, 0
3, 129811, Note_off_c, 0, 74, 0
3, 129816, Note_on_c, 0, 82, 103
3, 129834, Note_off_c, 0, 82, 0
3, 129840, Note_on_c, 0, 77, 103
3, 129858, Note_off_c, 0, 77, 0
3, 129864, Note_on_c, 0, 74, 103
3, 129882, Note_off_c, 0, 74, 0
3, 129888, Note_on_c, 0, 84, 103
3, 129888, Note_on_c, 0, 72, 103
3, 129907, Note_off_c, 0, 84, 0
3, 129907, Note_off_c, 0, 72, 0
3, 129912, Note_on_c, 0, 82, 103
3, 129930, Note_off_c, 0, 82, 0
3, 129936, Note_on_c, 0, 77, 103
3, 129954, Note_off_c, 0, 77, 0
3, 129960, Note_on_c, 0, 72, 103
3, 129978, Note_off_c, 0, 72, 0
3, 129984, Note_on_c, 0, 81, 103
3, 129984, Note_on_c, 0, 69, 103
3, 130003, Note_off_c, 0, 81, 0
3, 130003, Note_off_c, 0, 69, 0
3, 130008, Note_on_c, 0, 76, 103
3, 130026, Note_off_c, 0, 76, 0
3, 130032, Note_on_c, 0, 72, 103
3, 130050, Note_off_c, 0, 72, 0
3, 130056, Note_on_c, 0, 69, 103
3, 130074, Note_off_c, 0, 69, 0
3, 130080, Note_on_c, 0, 84, 103
3, 130080, Note_on_c, 0, 72, 103
3, 130099, Note_off_c, 0, 84, 0
3, 130099, Note_off_c, 0, 72, 0
3, 130104, Note_on_c, 0, 79, 103
3, 130122, Note_off_c, 0, 79, 0
3, 130128, Note_on_c, 0, 76, 103
3, 130146, Note_off_c, 0, 76, 0
3, 130152, Note_on_c, 0, 72, 103
3, 130170, Note_off_c, 0, 72, 0
3, 130176, Note_on_c, 0, 86, 103
3, 130176, Note_on_c, 0, 81, 103
3, 130176, Note_on_c, 0, 77, 103
3, 130176, Note_on_c, 0, 74, 103
3, 130267, Note_off_c, 0, 74, 0
3, 130267, Note_off_c, 0, 77, 0
3, 130267, Note_off_c, 0, 86, 0
3, 130267, Note_off_c, 0, 81, 0
3, 130272, Note_on_c, 0, 86, 103
3, 130290, Note_off_c, 0, 86, 0
3, 130296, Note_on_c, 0, 81, 103
3, 130314, Note_off_c, 0, 81, 0
3, 130320, Note_on_c, 0, 77, 103
3, 130338, Note_off_c, 0, 77, 0
3, 130344, Note_on_c, 0, 74, 103
3, 130362, Note_off_c, 0, 74, 0
3, 130368, Note_on_c, 0, 81, 103
3, 130386, Note_off_c, 0, 81, 0
3, 130392, Note_on_c, 0, 77, 103
3, 130410, Note_off_c, 0, 77, 0
3, 130416, Note_on_c, 0, 74, 103
3, 130434, Note_off_c, 0, 74, 0
3, 130440, Note_on_c, 0, 69, 103
3, 130458, Note_off_c, 0, 69, 0
3, 130464, Note_on_c, 0, 74, 103
3, 130482, Note_off_c, 0, 74, 0
3, 130488, Note_on_c, 0, 77, 103
3, 130506, Note_off_c, 0, 77, 0
3, 130512, Note_on_c, 0, 81, 103
3, 130530, Note_off_c, 0, 81, 0
3, 130536, Note_on_c, 0, 84, 103
3, 130554, Note_off_c, 0, 84, 0
3, 130560, Note_on_c, 0, 86, 103
3, 130560, Note_on_c, 0, 74, 103
3, 130647, Note_off_c, 0, 74, 0
3, 130647, Note_off_c, 0, 86, 0
3, 130656, Note_on_c, 0, 86, 103
3, 130656, Note_on_c, 0, 81, 103
3, 130656, Note_on_c, 0, 77, 103
3, 130656, Note_on_c, 0, 74, 103
3, 130747, Note_off_c, 0, 74, 0
3, 130747, Note_off_c, 0, 77, 0
3, 130747, Note_off_c, 0, 86, 0
3, 130747, Note_off_c, 0, 81, 0
3, 130752, Note_on_c, 0, 81, 103
3, 130752, Note_on_c, 0, 69, 103
3, 130793, Note_off_c, 0, 69, 0
3, 130793, Note_off_c, 0, 81, 0
3, 130800, Note_on_c, 0, 79, 103
3, 130800, Note_on_c, 0, 67, 103
3, 130841, Note_off_c, 0, 67, 0
3, 130841, Note_off_c, 0, 79, 0
3, 130848, Note_on_c, 0, 77, 103
3, 130848, Note_on_c, 0, 65, 103
3, 130935, Note_off_c, 0, 65, 0
3, 130935, Note_off_c, 0, 77, 0
3, 130944, Note_on_c, 0, 76, 103
3, 130944, Note_on_c, 0, 64, 103
3, 130963, Note_off_c, 0, 76, 0
3, 130963, Note_off_c, 0, 64, 0
3, 130968, Note_on_c, 0, 72, 103
3, 130986, Note_off_c, 0, 72, 0
3, 130992, Note_on_c, 0, 69, 103
3, 131010, Note_off_c, 0, 69, 0
3, 131016, Note_on_c, 0, 64, 103
3, 131034, Note_off_c, 0, 64, 0
3, 131040, Note_on_c, 0, 69, 103
3, 131058, Note_off_c, 0, 69, 0
3, 131064, Note_on_c, 0, 64, 103
3, 131082, Note_off_c, 0, 64, 0
3, 131088, Note_on_c, 0, 69, 103
3, 131106, Note_off_c, 0, 69, 0
3, 131112, Note_on_c, 0, 72, 103
3, 131130, Note_off_c, 0, 72, 0
3, 131136, Note_on_c, 0, 77, 103
3, 131136, Note_on_c, 0, 72, 103
3, 131136, Note_on_c, 0, 69, 103
3, 131136, Note_on_c, 0, 65, 103
3, 131227, Note_off_c, 0, 65, 0
3, 131227, Note_off_c, 0, 69, 0
3, 131227, Note_off_c, 0, 77, 0
3, 131227, Note_off_c, 0, 72, 0
3, 131232, Note_on_c, 0, 76, 103
3, 131232, Note_on_c, 0, 72, 103
3, 131232, Note_on_c, 0, 69, 103
3, 131232, Note_on_c, 0, 64, 103
3, 131273, Note_off_c, 0, 64, 0
3, 131273, Note_off_c, 0, 69, 0
3, 131273, Note_off_c, 0, 76, 0
3, 131273, Note_off_c, 0, 72, 0
3, 131280, Note_on_c, 0, 81, 103
3, 131298, Note_off_c, 0, 81, 0
3, 131304, Note_on_c, 0, 84, 103
3, 131322, Note_off_c, 0, 84, 0
3, 131328, Note_on_c, 0, 86, 103
3, 131328, Note_on_c, 0, 74, 103
3, 131415, Note_off_c, 0, 74, 0
3, 131415, Note_off_c, 0, 86, 0
3, 131424, Note_on_c, 0, 98, 103
3, 131424, Note_on_c, 0, 93, 103
3, 131424, Note_on_c, 0, 89, 103
3, 131424, Note_on_c, 0, 86, 103
3, 131515, Note_off_c, 0, 86, 0
3, 131515, Note_off_c, 0, 89, 0
3, 131515, Note_off_c, 0, 98, 0
3, 131515, Note_off_c, 0, 93, 0
3, 131520, Note_on_c, 0, 86, 103
3, 131520, Note_on_c, 0, 77, 103
3, 131520, Note_on_c, 0, 74, 103
3, 131607, Note_off_c, 0, 74, 0
3, 131607, Note_off_c, 0, 77, 0
3, 131607, Note_off_c, 0, 86, 0
3, 131616, Note_on_c, 0, 98, 103
3, 131616, Note_on_c, 0, 91, 103
3, 131616, Note_on_c, 0, 86, 103
3, 131707, Note_off_c, 0, 86, 0
3, 131707, Note_off_c, 0, 91, 0
3, 131707, Note_off_c, 0, 98, 0
3, 131712, Note_on_c, 0, 86, 103
3, 131712, Note_on_c, 0, 81, 103
3, 131712, Note_on_c, 0, 77, 103
3, 131712, Note_on_c, 0, 74, 103
3, 131753, Note_off_c, 0, 74, 0
3, 131753, Note_off_c, 0, 77, 0
3, 131753, Note_off_c, 0, 86, 0
3, 131753, Note_off_c, 0, 81, 0
3, 131760, Note_on_c, 0, 98, 103
3, 131760, Note_on_c, 0, 93, 103
3, 131760, Note_on_c, 0, 89, 103
3, 131760, Note_on_c, 0, 86, 103
3, 131801, Note_off_c, 0, 86, 0
3, 131801, Note_off_c, 0, 98, 0
3, 131801, Note_off_c, 0, 93, 0
3, 131801, Note_off_c, 0, 89, 0
3, 131808, Note_on_c, 0, 98, 103
3, 131808, Note_on_c, 0, 93, 103
3, 131808, Note_on_c, 0, 89, 103
3, 131808, Note_on_c, 0, 86, 103
3, 131849, Note_off_c, 0, 86, 0
3, 131849, Note_off_c, 0, 98, 0
3, 131849, Note_off_c, 0, 93, 0
3, 131849, Note_off_c, 0, 89, 0
3, 131856, Note_on_c, 0, 98, 103
3, 131856, Note_on_c, 0, 93, 103
3, 131856, Note_on_c, 0, 89, 103
3, 131856, Note_on_c, 0, 86, 103
3, 131897, Note_off_c, 0, 86, 0
3, 131897, Note_off_c, 0, 98, 0
3, 131897, Note_off_c, 0, 93, 0
3, 131897, Note_off_c, 0, 89, 0
3, 131904, Note_on_c, 0, 98, 103
3, 131904, Note_on_c, 0, 93, 103
3, 131904, Note_on_c, 0, 89, 103
3, 131904, Note_on_c, 0, 86, 103
3, 132082, Note_off_c, 0, 86, 0
3, 132082, Note_off_c, 0, 98, 0
3, 132082, Note_off_c, 0, 93, 0
3, 132082, Note_off_c, 0, 89, 0
3, 132096, Note_on_c, 0, 73, 96
3, 132096, Note_on_c, 0, 63, 96
3, 132115, Note_off_c, 0, 73, 0
3, 132115, Note_off_c, 0, 63, 0
3, 132144, Note_on_c, 0, 73, 96
3, 132144, Note_on_c, 0, 63, 96
3, 132163, Note_off_c, 0, 73, 0
3, 132163, Note_off_c, 0, 63, 0
3, 132192, Note_on_c, 0, 72, 96
3, 132192, Note_on_c, 0, 64, 96
3, 132211, Note_off_c, 0, 72, 0
3, 132211, Note_off_c, 0, 64, 0
3, 132240, Note_on_c, 0, 72, 96
3, 132240, Note_on_c, 0, 64, 96
3, 132259, Note_off_c, 0, 72, 0
3, 132259, Note_off_c, 0, 64, 0
3, 132288, Note_on_c, 0, 73, 96
3, 132288, Note_on_c, 0, 63, 96
3, 132307, Note_off_c, 0, 73, 0
3, 132307, Note_off_c, 0, 63, 0
3, 132336, Note_on_c, 0, 73, 96
3, 132336, Note_on_c, 0, 63, 96
3, 132355, Note_off_c, 0, 73, 0
3, 132355, Note_off_c, 0, 63, 0
3, 132384, Note_on_c, 0, 72, 96
3, 132384, Note_on_c, 0, 64, 96
3, 132403, Note_off_c, 0, 72, 0
3, 132403, Note_off_c, 0, 64, 0
3, 132432, Note_on_c, 0, 72, 96
3, 132432, Note_on_c, 0, 64, 96
3, 132451, Note_off_c, 0, 72, 0
3, 132451, Note_off_c, 0, 64, 0
3, 132480, Note_on_c, 0, 73, 96
3, 132480, Note_on_c, 0, 63, 96
3, 132499, Note_off_c, 0, 73, 0
3, 132499, Note_off_c, 0, 63, 0
3, 132528, Note_on_c, 0, 73, 96
3, 132528, Note_on_c, 0, 63, 96
3, 132547, Note_off_c, 0, 73, 0
3, 132547, Note_off_c, 0, 63, 0
3, 132576, Note_on_c, 0, 72, 96
3, 132576, Note_on_c, 0, 64, 96
3, 132595, Note_off_c, 0, 72, 0
3, 132595, Note_off_c, 0, 64, 0
3, 132624, Note_on_c, 0, 72, 96
3, 132624, Note_on_c, 0, 64, 96
3, 132643, Note_off_c, 0, 72, 0
3, 132643, Note_off_c, 0, 64, 0
3, 132672, Note_on_c, 0, 80, 96
3, 132672, Note_on_c, 0, 75, 96
3, 132859, Note_off_c, 0, 75, 0
3, 132859, Note_off_c, 0, 80, 0
3, 132864, Note_on_c, 0, 73, 96
3, 132864, Note_on_c, 0, 63, 96
3, 132883, Note_off_c, 0, 73, 0
3, 132883, Note_off_c, 0, 63, 0
3, 132912, Note_on_c, 0, 73, 96
3, 132912, Note_on_c, 0, 63, 96
3, 132931, Note_off_c, 0, 73, 0
3, 132931, Note_off_c, 0, 63, 0
3, 132960, Note_on_c, 0, 72, 96
3, 132960, Note_on_c, 0, 64, 96
3, 132979, Note_off_c, 0, 72, 0
3, 132979, Note_off_c, 0, 64, 0
3, 133008, Note_on_c, 0, 72, 96
3, 133008, Note_on_c, 0, 64, 96
3, 133027, Note_off_c, 0, 72, 0
3, 133027, Note_off_c, 0, 64, 0
3, 133056, Note_on_c, 0, 73, 96
3, 133056, Note_on_c, 0, 63, 96
3, 133075, Note_off_c, 0, 73, 0
3, 133075, Note_off_c, 0, 63, 0
3, 133104, Note_on_c, 0, 73, 96
3, 133104, Note_on_c, 0, 63, 96
3, 133123, Note_off_c, 0, 73, 0
3, 133123, Note_off_c, 0, 63, 0
3, 133152, Note_on_c, 0, 72, 96
3, 133152, Note_on_c, 0, 64, 96
3, 133171, Note_off_c, 0, 72, 0
3, 133171, Note_off_c, 0, 64, 0
3, 133200, Note_on_c, 0, 72, 96
3, 133200, Note_on_c, 0, 64, 96
3, 133219, Note_off_c, 0, 72, 0
3, 133219, Note_off_c, 0, 64, 0
3, 133248, Note_on_c, 0, 73, 96
3, 133248, Note_on_c, 0, 63, 96
3, 133267, Note_off_c, 0, 73, 0
3, 133267, Note_off_c, 0, 63, 0
3, 133296, Note_on_c, 0, 73, 96
3, 133296, Note_on_c, 0, 63, 96
3, 133315, Note_off_c, 0, 73, 0
3, 133315, Note_off_c, 0, 63, 0
3, 133344, Note_on_c, 0, 72, 96
3, 133344, Note_on_c, 0, 64, 96
3, 133363, Note_off_c, 0, 72, 0
3, 133363, Note_off_c, 0, 64, 0
3, 133392, Note_on_c, 0, 72, 96
3, 133392, Note_on_c, 0, 64, 96
3, 133411, Note_off_c, 0, 72, 0
3, 133411, Note_off_c, 0, 64, 0
3, 133440, Note_on_c, 0, 80, 96
3, 133440, Note_on_c, 0, 75, 96
3, 133627, Note_off_c, 0, 75, 0
3, 133627, Note_off_c, 0, 80, 0
3, 133632, Note_on_c, 0, 73, 96
3, 133632, Note_on_c, 0, 63, 96
3, 133651, Note_off_c, 0, 73, 0
3, 133651, Note_off_c, 0, 63, 0
3, 133680, Note_on_c, 0, 73, 96
3, 133680, Note_on_c, 0, 63, 96
3, 133699, Note_off_c, 0, 73, 0
3, 133699, Note_off_c, 0, 63, 0
3, 133728, Note_on_c, 0, 72, 96
3, 133728, Note_on_c, 0, 64, 96
3, 133747, Note_off_c, 0, 72, 0
3, 133747, Note_off_c, 0, 64, 0
3, 133776, Note_on_c, 0, 72, 96
3, 133776, Note_on_c, 0, 64, 96
3, 133795, Note_off_c, 0, 72, 0
3, 133795, Note_off_c, 0, 64, 0
3, 133824, Note_on_c, 0, 73, 96
3, 133824, Note_on_c, 0, 63, 96
3, 133843, Note_off_c, 0, 73, 0
3, 133843, Note_off_c, 0, 63, 0
3, 133872, Note_on_c, 0, 73, 96
3, 133872, Note_on_c, 0, 63, 96
3, 133891, Note_off_c, 0, 73, 0
3, 133891, Note_off_c, 0, 63, 0
3, 133920, Note_on_c, 0, 72, 96
3, 133920, Note_on_c, 0, 64, 96
3, 133939, Note_off_c, 0, 72, 0
3, 133939, Note_off_c, 0, 64, 0
3, 133968, Note_on_c, 0, 72, 96
3, 133968, Note_on_c, 0, 64, 96
3, 133987, Note_off_c, 0, 72, 0
3, 133987, Note_off_c, 0, 64, 0
3, 134016, Note_on_c, 0, 73, 96
3, 134016, Note_on_c, 0, 63, 96
3, 134035, Note_off_c, 0, 73, 0
3, 134035, Note_off_c, 0, 63, 0
3, 134064, Note_on_c, 0, 73, 96
3, 134064, Note_on_c, 0, 63, 96
3, 134083, Note_off_c, 0, 73, 0
3, 134083, Note_off_c, 0, 63, 0
3, 134112, Note_on_c, 0, 72, 96
3, 134112, Note_on_c, 0, 64, 96
3, 134131, Note_off_c, 0, 72, 0
3, 134131, Note_off_c, 0, 64, 0
3, 134160, Note_on_c, 0, 72, 96
3, 134160, Note_on_c, 0, 64, 96
3, 134179, Note_off_c, 0, 72, 0
3, 134179, Note_off_c, 0, 64, 0
3, 134208, Note_on_c, 0, 80, 96
3, 134208, Note_on_c, 0, 75, 96
3, 134395, Note_off_c, 0, 75, 0
3, 134395, Note_off_c, 0, 80, 0
3, 134400, Note_on_c, 0, 81, 87
3, 134400, Note_on_c, 0, 69, 87
3, 134419, Note_off_c, 0, 69, 0
3, 134419, Note_off_c, 0, 81, 0
3, 134448, Note_on_c, 0, 80, 88
3, 134448, Note_on_c, 0, 68, 88
3, 134467, Note_off_c, 0, 68, 0
3, 134467, Note_off_c, 0, 80, 0
3, 134496, Note_on_c, 0, 78, 89
3, 134496, Note_on_c, 0, 66, 89
3, 134515, Note_off_c, 0, 66, 0
3, 134515, Note_off_c, 0, 78, 0
3, 134544, Note_on_c, 0, 80, 90
3, 134544, Note_on_c, 0, 68, 90
3, 134563, Note_off_c, 0, 68, 0
3, 134563, Note_off_c, 0, 80, 0
3, 134592, Note_on_c, 0, 78, 91
3, 134592, Note_on_c, 0, 66, 91
3, 134611, Note_off_c, 0, 66, 0
3, 134611, Note_off_c, 0, 78, 0
3, 134640, Note_on_c, 0, 76, 92
3, 134640, Note_on_c, 0, 64, 92
3, 134659, Note_off_c, 0, 64, 0
3, 134659, Note_off_c, 0, 76, 0
3, 134688, Note_on_c, 0, 78, 93
3, 134688, Note_on_c, 0, 66, 93
3, 134707, Note_off_c, 0, 66, 0
3, 134707, Note_off_c, 0, 78, 0
3, 134736, Note_on_c, 0, 76, 93
3, 134736, Note_on_c, 0, 64, 93
3, 134755, Note_off_c, 0, 64, 0
3, 134755, Note_off_c, 0, 76, 0
3, 134784, Note_on_c, 0, 75, 94
3, 134784, Note_on_c, 0, 63, 94
3, 134803, Note_off_c, 0, 63, 0
3, 134803, Note_off_c, 0, 75, 0
3, 134832, Note_on_c, 0, 76, 95
3, 134832, Note_on_c, 0, 64, 95
3, 134851, Note_off_c, 0, 64, 0
3, 134851, Note_off_c, 0, 76, 0
3, 134880, Note_on_c, 0, 75, 96
3, 134880, Note_on_c, 0, 63, 96
3, 134899, Note_off_c, 0, 63, 0
3, 134899, Note_off_c, 0, 75, 0
3, 134928, Note_on_c, 0, 73, 97
3, 134928, Note_on_c, 0, 61, 97
3, 134947, Note_off_c, 0, 61, 0
3, 134947, Note_off_c, 0, 73, 0
3, 134976, Note_on_c, 0, 75, 98
3, 134976, Note_on_c, 0, 63, 98
3, 134995, Note_off_c, 0, 63, 0
3, 134995, Note_off_c, 0, 75, 0
3, 135024, Note_on_c, 0, 72, 99
3, 135024, Note_on_c, 0, 60, 99
3, 135043, Note_off_c, 0, 60, 0
3, 135043, Note_off_c, 0, 72, 0
3, 135072, Note_on_c, 0, 73, 100
3, 135072, Note_on_c, 0, 61, 100
3, 135163, Note_off_c, 0, 61, 0
3, 135163, Note_off_c, 0, 73, 0
3, 135552, Note_on_c, 0, 67, 104
3, 135552, Note_on_c, 0, 75, 104
3, 135552, Note_on_c, 0, 79, 104
3, 135637, Note_off_c, 0, 67, 0
3, 135637, Note_off_c, 0, 75, 0
3, 135637, Note_off_c, 0, 79, 0
3, 135648, Note_on_c, 0, 72, 104
3, 135648, Note_on_c, 0, 67, 104
3, 135648, Note_on_c, 0, 60, 104
3, 135729, Note_off_c, 0, 72, 0
3, 135729, Note_off_c, 0, 67, 0
3, 135729, Note_off_c, 0, 60, 0
3, 135840, Note_on_c, 0, 79, 104
3, 135840, Note_on_c, 0, 75, 104
3, 135840, Note_on_c, 0, 67, 104
3, 135925, Note_off_c, 0, 67, 0
3, 135925, Note_off_c, 0, 75, 0
3, 135925, Note_off_c, 0, 79, 0
3, 135936, Note_on_c, 0, 60, 104
3, 135936, Note_on_c, 0, 67, 104
3, 135936, Note_on_c, 0, 72, 104
3, 136085, Note_off_c, 0, 60, 0
3, 136085, Note_off_c, 0, 67, 0
3, 136085, Note_off_c, 0, 72, 0
3, 136104, Note_on_c, 0, 60, 104
3, 136104, Note_on_c, 0, 72, 104
3, 136116, Note_off_c, 0, 60, 0
3, 136116, Note_off_c, 0, 72, 0
3, 136128, Note_on_c, 0, 82, 104
3, 136128, Note_on_c, 0, 75, 104
3, 136128, Note_on_c, 0, 70, 104
3, 136213, Note_off_c, 0, 82, 0
3, 136213, Note_off_c, 0, 75, 0
3, 136213, Note_off_c, 0, 70, 0
3, 136224, Note_on_c, 0, 80, 104
3, 136224, Note_on_c, 0, 75, 104
3, 136224, Note_on_c, 0, 68, 104
3, 136305, Note_off_c, 0, 68, 0
3, 136305, Note_off_c, 0, 75, 0
3, 136305, Note_off_c, 0, 80, 0
3, 136320, Note_on_c, 0, 79, 104
3, 136320, Note_on_c, 0, 75, 104
3, 136320, Note_on_c, 0, 67, 104
3, 136405, Note_off_c, 0, 67, 0
3, 136405, Note_off_c, 0, 75, 0
3, 136405, Note_off_c, 0, 79, 0
3, 136416, Note_on_c, 0, 72, 104
3, 136416, Note_on_c, 0, 67, 104
3, 136416, Note_on_c, 0, 60, 104
3, 136497, Note_off_c, 0, 72, 0
3, 136497, Note_off_c, 0, 67, 0
3, 136497, Note_off_c, 0, 60, 0
3, 136608, Note_on_c, 0, 79, 104
3, 136608, Note_on_c, 0, 75, 104
3, 136608, Note_on_c, 0, 67, 104
3, 136693, Note_off_c, 0, 67, 0
3, 136693, Note_off_c, 0, 75, 0
3, 136693, Note_off_c, 0, 79, 0
3, 136704, Note_on_c, 0, 72, 104
3, 136704, Note_on_c, 0, 67, 104
3, 136704, Note_on_c, 0, 60, 104
3, 136876, Note_off_c, 0, 67, 0
3, 136876, Note_off_c, 0, 72, 0
3, 136877, Note_off_c, 0, 60, 0
3, 136992, Note_on_c, 0, 70, 105
3, 136992, Note_on_c, 0, 82, 105
3, 137076, Note_off_c, 0, 82, 64
3, 137076, Note_off_c, 0, 70, 64
3, 137088, Note_on_c, 0, 75, 105
3, 137088, Note_on_c, 0, 79, 105
3, 137174, Note_off_c, 0, 79, 0
3, 137174, Note_off_c, 0, 75, 0
3, 137184, Note_on_c, 0, 75, 105
3, 137184, Note_on_c, 0, 79, 105
3, 137270, Note_off_c, 0, 79, 0
3, 137270, Note_off_c, 0, 75, 0
3, 137280, Note_on_c, 0, 74, 105
3, 137280, Note_on_c, 0, 78, 105
3, 137366, Note_off_c, 0, 78, 0
3, 137366, Note_off_c, 0, 74, 0
3, 137376, Note_on_c, 0, 74, 104
3, 137376, Note_on_c, 0, 78, 104
3, 137462, Note_off_c, 0, 78, 0
3, 137462, Note_off_c, 0, 74, 0
3, 137472, Note_on_c, 0, 77, 105
3, 137472, Note_on_c, 0, 73, 105
3, 137558, Note_off_c, 0, 73, 0
3, 137558, Note_off_c, 0, 77, 0
3, 137568, Note_on_c, 0, 77, 105
3, 137568, Note_on_c, 0, 73, 105
3, 137654, Note_off_c, 0, 73, 0
3, 137654, Note_off_c, 0, 77, 0
3, 137664, Note_on_c, 0, 76, 105
3, 137664, Note_on_c, 0, 72, 105
3, 137750, Note_off_c, 0, 72, 0
3, 137750, Note_off_c, 0, 76, 0
3, 137760, Note_on_c, 0, 76, 105
3, 137760, Note_on_c, 0, 72, 105
3, 137846, Note_off_c, 0, 72, 0
3, 137846, Note_off_c, 0, 76, 0
3, 137856, Note_on_c, 0, 79, 106
3, 137856, Note_on_c, 0, 75, 106
3, 137942, Note_off_c, 0, 75, 0
3, 137942, Note_off_c, 0, 79, 0
3, 137952, Note_on_c, 0, 75, 106
3, 137952, Note_on_c, 0, 79, 106
3, 138038, Note_off_c, 0, 79, 0
3, 138038, Note_off_c, 0, 75, 0
3, 138048, Note_on_c, 0, 74, 106
3, 138048, Note_on_c, 0, 78, 106
3, 138134, Note_off_c, 0, 78, 0
3, 138134, Note_off_c, 0, 74, 0
3, 138144, Note_on_c, 0, 74, 106
3, 138144, Note_on_c, 0, 78, 106
3, 138230, Note_off_c, 0, 78, 0
3, 138230, Note_off_c, 0, 74, 0
3, 138240, Note_on_c, 0, 73, 107
3, 138240, Note_on_c, 0, 77, 107
3, 138326, Note_off_c, 0, 77, 0
3, 138326, Note_off_c, 0, 73, 0
3, 138336, Note_on_c, 0, 77, 107
3, 138336, Note_on_c, 0, 73, 107
3, 138422, Note_off_c, 0, 73, 0
3, 138422, Note_off_c, 0, 77, 0
3, 138432, Note_on_c, 0, 76, 107
3, 138432, Note_on_c, 0, 72, 107
3, 138518, Note_off_c, 0, 72, 0
3, 138518, Note_off_c, 0, 76, 0
3, 138528, Note_on_c, 0, 72, 107
3, 138528, Note_on_c, 0, 76, 107
3, 138614, Note_off_c, 0, 76, 0
3, 138614, Note_off_c, 0, 72, 0
3, 138624, Note_on_c, 0, 79, 107
3, 138625, Note_on_c, 0, 72, 107
3, 138757, Note_off_c, 0, 79, 64
3, 138758, Note_off_c, 0, 72, 64
3, 138816, Note_on_c, 0, 73, 107
3, 138816, Note_on_c, 0, 80, 107
3, 138877, Note_off_c, 0, 73, 64
3, 138877, Note_off_c, 0, 80, 64
3, 138912, Note_on_c, 0, 75, 107
3, 138912, Note_on_c, 0, 82, 107
3, 138973, Note_off_c, 0, 82, 64
3, 138973, Note_off_c, 0, 75, 64
3, 139008, Note_on_c, 0, 80, 108
3, 139008, Note_on_c, 0, 73, 108
3, 139126, Note_off_c, 0, 80, 64
3, 139131, Note_off_c, 0, 73, 64
3, 139200, Note_on_c, 0, 79, 107
3, 139200, Note_on_c, 0, 72, 107
3, 139354, Note_off_c, 0, 72, 64
3, 139354, Note_off_c, 0, 79, 64
3, 139392, Note_on_c, 0, 79, 106
3, 139392, Note_on_c, 0, 72, 106
3, 139549, Note_off_c, 0, 72, 64
3, 139549, Note_off_c, 0, 79, 64
3, 139584, Note_on_c, 0, 80, 104
3, 139584, Note_on_c, 0, 73, 104
3, 139644, Note_off_c, 0, 80, 64
3, 139644, Note_off_c, 0, 73, 64
3, 139680, Note_on_c, 0, 82, 104
3, 139680, Note_on_c, 0, 75, 104
3, 139740, Note_off_c, 0, 75, 64
3, 139740, Note_off_c, 0, 82, 64
3, 139776, Note_on_c, 0, 80, 104
3, 139776, Note_on_c, 0, 75, 104
3, 139955, Note_off_c, 0, 75, 64
3, 139956, Note_off_c, 0, 80, 64
3, 139968, Note_on_c, 0, 79, 102
3, 139968, Note_on_c, 0, 74, 102
3, 140146, Note_off_c, 0, 74, 64
3, 140146, Note_off_c, 0, 79, 64
3, 140160, Note_on_c, 0, 67, 93
3, 140160, Note_on_c, 0, 74, 93
3, 140197, Note_off_c, 0, 67, 0
3, 140197, Note_off_c, 0, 74, 0
3, 140208, Note_on_c, 0, 72, 93
3, 140245, Note_off_c, 0, 72, 0
3, 140256, Note_on_c, 0, 74, 93
3, 140256, Note_on_c, 0, 67, 93
3, 140293, Note_off_c, 0, 67, 0
3, 140293, Note_off_c, 0, 74, 0
3, 140304, Note_on_c, 0, 72, 93
3, 140341, Note_off_c, 0, 72, 0
3, 140352, Note_on_c, 0, 74, 93
3, 140352, Note_on_c, 0, 67, 93
3, 140389, Note_off_c, 0, 67, 0
3, 140389, Note_off_c, 0, 74, 0
3, 140400, Note_on_c, 0, 67, 93
3, 140400, Note_on_c, 0, 74, 93
3, 140437, Note_off_c, 0, 74, 0
3, 140437, Note_off_c, 0, 67, 0
3, 140448, Note_on_c, 0, 72, 93
3, 140485, Note_off_c, 0, 72, 0
3, 140496, Note_on_c, 0, 74, 93
3, 140496, Note_on_c, 0, 67, 93
3, 140629, Note_off_c, 0, 67, 0
3, 140629, Note_off_c, 0, 74, 0
3, 140640, Note_on_c, 0, 74, 93
3, 140640, Note_on_c, 0, 67, 93
3, 140725, Note_off_c, 0, 67, 0
3, 140725, Note_off_c, 0, 74, 0
3, 140736, Note_on_c, 0, 67, 93
3, 140736, Note_on_c, 0, 74, 93
3, 140821, Note_off_c, 0, 74, 0
3, 140821, Note_off_c, 0, 67, 0
3, 140832, Note_on_c, 0, 75, 93
3, 140832, Note_on_c, 0, 72, 93
3, 140913, Note_off_c, 0, 72, 0
3, 140913, Note_off_c, 0, 75, 0
3, 141024, Note_on_c, 0, 74, 93
3, 141024, Note_on_c, 0, 67, 93
3, 141061, Note_off_c, 0, 67, 0
3, 141061, Note_off_c, 0, 74, 0
3, 141072, Note_on_c, 0, 74, 93
3, 141109, Note_off_c, 0, 74, 0
3, 141120, Note_on_c, 0, 67, 93
3, 141120, Note_on_c, 0, 74, 93
3, 141157, Note_off_c, 0, 74, 0
3, 141157, Note_off_c, 0, 67, 0
3, 141168, Note_on_c, 0, 74, 93
3, 141205, Note_off_c, 0, 74, 0
3, 141216, Note_on_c, 0, 75, 93
3, 141253, Note_off_c, 0, 75, 0
3, 141264, Note_on_c, 0, 77, 93
3, 141264, Note_on_c, 0, 72, 93
3, 141349, Note_off_c, 0, 72, 0
3, 141349, Note_off_c, 0, 77, 0
3, 141360, Note_on_c, 0, 75, 93
3, 141397, Note_off_c, 0, 75, 0
3, 141408, Note_on_c, 0, 74, 93
3, 141408, Note_on_c, 0, 67, 93
3, 141489, Note_off_c, 0, 67, 0
3, 141489, Note_off_c, 0, 74, 0
3, 141600, Note_on_c, 0, 79, 99
3, 141600, Note_on_c, 0, 67, 99
3, 141681, Note_off_c, 0, 67, 0
3, 141681, Note_off_c, 0, 79, 0
3, 141696, Note_on_c, 0, 60, 107
3, 141696, Note_on_c, 0, 67, 107
3, 141696, Note_on_c, 0, 72, 107
3, 141754, Note_off_c, 0, 72, 0
3, 141754, Note_off_c, 0, 67, 0
3, 141754, Note_off_c, 0, 60, 0
3, 141768, Note_on_c, 0, 67, 107
3, 141768, Note_on_c, 0, 72, 107
3, 141768, Note_on_c, 0, 79, 107
3, 141780, Note_off_c, 0, 79, 0
3, 141780, Note_off_c, 0, 72, 0
3, 141780, Note_off_c, 0, 67, 0
3, 141840, Note_on_c, 0, 61, 107
3, 141840, Note_on_c, 0, 67, 107
3, 141840, Note_on_c, 0, 73, 107
3, 141926, Note_off_c, 0, 61, 0
3, 141966, Note_off_c, 0, 73, 0
3, 141966, Note_off_c, 0, 67, 0
3, 142080, Note_on_c, 0, 72, 107
3, 142080, Note_on_c, 0, 67, 107
3, 142080, Note_on_c, 0, 60, 107
3, 142138, Note_off_c, 0, 60, 0
3, 142138, Note_off_c, 0, 67, 0
3, 142138, Note_off_c, 0, 72, 0
3, 142152, Note_on_c, 0, 79, 107
3, 142152, Note_on_c, 0, 72, 107
3, 142152, Note_on_c, 0, 67, 107
3, 142164, Note_off_c, 0, 67, 0
3, 142164, Note_off_c, 0, 72, 0
3, 142164, Note_off_c, 0, 79, 0
3, 142224, Note_on_c, 0, 73, 107
3, 142224, Note_on_c, 0, 67, 107
3, 142224, Note_on_c, 0, 61, 107
3, 142305, Note_off_c, 0, 61, 0
3, 142305, Note_off_c, 0, 67, 0
3, 142305, Note_off_c, 0, 73, 0
3, 142320, Note_on_c, 0, 82, 107
3, 142320, Note_on_c, 0, 75, 107
3, 142320, Note_on_c, 0, 70, 107
3, 142446, Note_off_c, 0, 70, 0
3, 142446, Note_off_c, 0, 82, 0
3, 142446, Note_off_c, 0, 75, 0
3, 142464, Note_on_c, 0, 74, 94
3, 142464, Note_on_c, 0, 70, 94
3, 142501, Note_off_c, 0, 70, 0
3, 142501, Note_off_c, 0, 74, 0
3, 142512, Note_on_c, 0, 72, 94
3, 142549, Note_off_c, 0, 72, 0
3, 142560, Note_on_c, 0, 74, 94
3, 142560, Note_on_c, 0, 70, 94
3, 142597, Note_off_c, 0, 70, 0
3, 142597, Note_off_c, 0, 74, 0
3, 142608, Note_on_c, 0, 72, 94
3, 142645, Note_off_c, 0, 72, 0
3, 142656, Note_on_c, 0, 74, 94
3, 142656, Note_on_c, 0, 70, 94
3, 142693, Note_off_c, 0, 70, 0
3, 142693, Note_off_c, 0, 74, 0
3, 142704, Note_on_c, 0, 74, 94
3, 142741, Note_off_c, 0, 74, 0
3, 142752, Note_on_c, 0, 72, 94
3, 142789, Note_off_c, 0, 72, 0
3, 142800, Note_on_c, 0, 74, 94
3, 142800, Note_on_c, 0, 70, 94
3, 142933, Note_off_c, 0, 70, 0
3, 142933, Note_off_c, 0, 74, 0
3, 142944, Note_on_c, 0, 74, 94
3, 142944, Note_on_c, 0, 70, 94
3, 143029, Note_off_c, 0, 70, 0
3, 143029, Note_off_c, 0, 74, 0
3, 143040, Note_on_c, 0, 74, 94
3, 143040, Note_on_c, 0, 70, 94
3, 143125, Note_off_c, 0, 70, 0
3, 143125, Note_off_c, 0, 74, 0
3, 143136, Note_on_c, 0, 75, 94
3, 143136, Note_on_c, 0, 72, 94
3, 143217, Note_off_c, 0, 72, 0
3, 143217, Note_off_c, 0, 75, 0
3, 143328, Note_on_c, 0, 74, 94
3, 143328, Note_on_c, 0, 70, 94
3, 143365, Note_off_c, 0, 70, 0
3, 143365, Note_off_c, 0, 74, 0
3, 143376, Note_on_c, 0, 74, 94
3, 143413, Note_off_c, 0, 74, 0
3, 143424, Note_on_c, 0, 74, 94
3, 143424, Note_on_c, 0, 70, 94
3, 143461, Note_off_c, 0, 70, 0
3, 143461, Note_off_c, 0, 74, 0
3, 143472, Note_on_c, 0, 74, 94
3, 143509, Note_off_c, 0, 74, 0
3, 143520, Note_on_c, 0, 75, 94
3, 143557, Note_off_c, 0, 75, 0
3, 143568, Note_on_c, 0, 77, 94
3, 143568, Note_on_c, 0, 72, 94
3, 143653, Note_off_c, 0, 72, 0
3, 143653, Note_off_c, 0, 77, 0
3, 143664, Note_on_c, 0, 75, 94
3, 143701, Note_off_c, 0, 75, 0
3, 143712, Note_on_c, 0, 74, 94
3, 143712, Note_on_c, 0, 70, 94
3, 143793, Note_off_c, 0, 70, 0
3, 143793, Note_off_c, 0, 74, 0
3, 144000, Note_on_c, 0, 60, 107
3, 144000, Note_on_c, 0, 55, 107
3, 144058, Note_off_c, 0, 55, 0
3, 144058, Note_off_c, 0, 60, 0
3, 144072, Note_on_c, 0, 67, 107
3, 144072, Note_on_c, 0, 63, 107
3, 144084, Note_off_c, 0, 63, 0
3, 144084, Note_off_c, 0, 67, 0
3, 144144, Note_on_c, 0, 61, 107
3, 144144, Note_on_c, 0, 55, 107
3, 144230, Note_off_c, 0, 61, 0
3, 144254, Note_off_c, 0, 55, 0
3, 144384, Note_on_c, 0, 67, 107
3, 144384, Note_on_c, 0, 72, 107
3, 144442, Note_off_c, 0, 72, 0
3, 144442, Note_off_c, 0, 67, 0
3, 144456, Note_on_c, 0, 75, 107
3, 144456, Note_on_c, 0, 79, 107
3, 144468, Note_off_c, 0, 79, 0
3, 144468, Note_off_c, 0, 75, 0
3, 144528, Note_on_c, 0, 67, 107
3, 144528, Note_on_c, 0, 73, 107
3, 144609, Note_off_c, 0, 73, 0
3, 144609, Note_off_c, 0, 67, 0
3, 144672, Note_on_c, 0, 82, 108
3, 144672, Note_on_c, 0, 70, 108
3, 144707, Note_off_c, 0, 70, 0
3, 144707, Note_off_c, 0, 82, 0
3, 144768, Note_on_c, 0, 67, 108
3, 144768, Note_on_c, 0, 75, 108
3, 144768, Note_on_c, 0, 79, 108
3, 144852, Note_off_c, 0, 79, 0
3, 144852, Note_off_c, 0, 67, 0
3, 144852, Note_off_c, 0, 75, 0
3, 144960, Note_on_c, 0, 68, 108
3, 144960, Note_on_c, 0, 75, 108
3, 144960, Note_on_c, 0, 80, 108
3, 145044, Note_off_c, 0, 80, 0
3, 145044, Note_off_c, 0, 75, 0
3, 145044, Note_off_c, 0, 68, 0
3, 145056, Note_on_c, 0, 82, 108
3, 145056, Note_on_c, 0, 79, 108
3, 145056, Note_on_c, 0, 70, 108
3, 145116, Note_off_c, 0, 82, 0
3, 145116, Note_off_c, 0, 79, 0
3, 145116, Note_off_c, 0, 70, 0
3, 145152, Note_on_c, 0, 80, 108
3, 145152, Note_on_c, 0, 75, 108
3, 145152, Note_on_c, 0, 68, 108
3, 145236, Note_off_c, 0, 68, 0
3, 145236, Note_off_c, 0, 80, 0
3, 145236, Note_off_c, 0, 75, 0
3, 145296, Note_on_c, 0, 80, 108
3, 145296, Note_on_c, 0, 75, 108
3, 145296, Note_on_c, 0, 68, 108
3, 145332, Note_off_c, 0, 68, 0
3, 145332, Note_off_c, 0, 80, 0
3, 145332, Note_off_c, 0, 75, 0
3, 145344, Note_on_c, 0, 79, 108
3, 145344, Note_on_c, 0, 75, 108
3, 145344, Note_on_c, 0, 67, 108
3, 145428, Note_off_c, 0, 67, 0
3, 145428, Note_off_c, 0, 75, 0
3, 145428, Note_off_c, 0, 79, 0
3, 145536, Note_on_c, 0, 67, 108
3, 145536, Note_on_c, 0, 75, 108
3, 145536, Note_on_c, 0, 79, 108
3, 145620, Note_off_c, 0, 79, 0
3, 145620, Note_off_c, 0, 67, 0
3, 145620, Note_off_c, 0, 75, 0
3, 145728, Note_on_c, 0, 68, 108
3, 145728, Note_on_c, 0, 75, 108
3, 145728, Note_on_c, 0, 80, 108
3, 145812, Note_off_c, 0, 80, 0
3, 145812, Note_off_c, 0, 75, 0
3, 145812, Note_off_c, 0, 68, 0
3, 145824, Note_on_c, 0, 82, 108
3, 145824, Note_on_c, 0, 79, 108
3, 145824, Note_on_c, 0, 70, 108
3, 145884, Note_off_c, 0, 82, 0
3, 145884, Note_off_c, 0, 79, 0
3, 145884, Note_off_c, 0, 70, 0
3, 145920, Note_on_c, 0, 80, 108
3, 145920, Note_on_c, 0, 75, 108
3, 145920, Note_on_c, 0, 68, 108
3, 146004, Note_off_c, 0, 80, 0
3, 146004, Note_off_c, 0, 75, 0
3, 146004, Note_off_c, 0, 68, 0
3, 146112, Note_on_c, 0, 79, 108
3, 146112, Note_on_c, 0, 75, 108
3, 146112, Note_on_c, 0, 67, 108
3, 146196, Note_off_c, 0, 79, 0
3, 146196, Note_off_c, 0, 75, 0
3, 146196, Note_off_c, 0, 67, 0
3, 146304, Note_on_c, 0, 67, 108
3, 146304, Note_on_c, 0, 75, 108
3, 146304, Note_on_c, 0, 79, 108
3, 146388, Note_off_c, 0, 67, 0
3, 146388, Note_off_c, 0, 75, 0
3, 146388, Note_off_c, 0, 79, 0
3, 146496, Note_on_c, 0, 68, 108
3, 146496, Note_on_c, 0, 75, 108
3, 146496, Note_on_c, 0, 80, 108
3, 146556, Note_off_c, 0, 68, 0
3, 146556, Note_off_c, 0, 75, 0
3, 146556, Note_off_c, 0, 80, 0
3, 146592, Note_on_c, 0, 82, 108
3, 146592, Note_on_c, 0, 79, 108
3, 146592, Note_on_c, 0, 70, 108
3, 146652, Note_off_c, 0, 82, 0
3, 146652, Note_off_c, 0, 79, 0
3, 146652, Note_off_c, 0, 70, 0
3, 146688, Note_on_c, 0, 80, 108
3, 146688, Note_on_c, 0, 75, 108
3, 146688, Note_on_c, 0, 68, 108
3, 146772, Note_off_c, 0, 80, 0
3, 146772, Note_off_c, 0, 75, 0
3, 146772, Note_off_c, 0, 68, 0
3, 146832, Note_on_c, 0, 80, 108
3, 146832, Note_on_c, 0, 75, 108
3, 146832, Note_on_c, 0, 68, 108
3, 146868, Note_off_c, 0, 80, 0
3, 146868, Note_off_c, 0, 68, 0
3, 146868, Note_off_c, 0, 75, 0
3, 146880, Note_on_c, 0, 79, 108
3, 146880, Note_on_c, 0, 75, 108
3, 146880, Note_on_c, 0, 67, 108
3, 146964, Note_off_c, 0, 67, 0
3, 146964, Note_off_c, 0, 75, 0
3, 146964, Note_off_c, 0, 79, 0
3, 147072, Note_on_c, 0, 67, 108
3, 147072, Note_on_c, 0, 75, 108
3, 147072, Note_on_c, 0, 79, 108
3, 147156, Note_off_c, 0, 67, 0
3, 147156, Note_off_c, 0, 75, 0
3, 147156, Note_off_c, 0, 79, 0
3, 147264, Note_on_c, 0, 68, 108
3, 147264, Note_on_c, 0, 75, 108
3, 147264, Note_on_c, 0, 80, 108
3, 147348, Note_off_c, 0, 80, 0
3, 147348, Note_off_c, 0, 75, 0
3, 147348, Note_off_c, 0, 68, 0
3, 147360, Note_on_c, 0, 82, 108
3, 147360, Note_on_c, 0, 79, 108
3, 147360, Note_on_c, 0, 70, 108
3, 147420, Note_off_c, 0, 82, 0
3, 147420, Note_off_c, 0, 79, 0
3, 147420, Note_off_c, 0, 70, 0
3, 147456, Note_on_c, 0, 68, 108
3, 147456, Note_on_c, 0, 75, 108
3, 147456, Note_on_c, 0, 80, 108
3, 147540, Note_off_c, 0, 68, 0
3, 147540, Note_off_c, 0, 75, 0
3, 147540, Note_off_c, 0, 80, 0
3, 147648, Note_on_c, 0, 79, 108
3, 147648, Note_on_c, 0, 75, 108
3, 147648, Note_on_c, 0, 67, 108
3, 147732, Note_off_c, 0, 79, 0
3, 147732, Note_off_c, 0, 75, 0
3, 147732, Note_off_c, 0, 67, 0
3, 147840, Note_on_c, 0, 67, 86
3, 147840, Note_on_c, 0, 63, 86
3, 147840, Note_on_c, 0, 60, 86
3, 147840, Note_on_c, 0, 72, 89
3, 147853, Note_off_c, 0, 67, 64
3, 147853, Note_off_c, 0, 63, 64
3, 147853, Note_off_c, 0, 60, 64
3, 147854, Note_off_c, 0, 72, 64
3, 147888, Note_on_c, 0, 72, 90
3, 147888, Note_on_c, 0, 67, 87
3, 147888, Note_on_c, 0, 63, 87
3, 147888, Note_on_c, 0, 60, 87
3, 147900, Note_off_c, 0, 67, 64
3, 147901, Note_off_c, 0, 72, 64
3, 147901, Note_off_c, 0, 60, 64
3, 147901, Note_off_c, 0, 63, 64
3, 147936, Note_on_c, 0, 67, 88
3, 147936, Note_on_c, 0, 63, 88
3, 147936, Note_on_c, 0, 60, 88
3, 147936, Note_on_c, 0, 72, 92
3, 147949, Note_off_c, 0, 63, 64
3, 147949, Note_off_c, 0, 60, 64
3, 147949, Note_off_c, 0, 72, 64
3, 147950, Note_off_c, 0, 67, 64
3, 147984, Note_on_c, 0, 72, 93
3, 147984, Note_on_c, 0, 67, 90
3, 147984, Note_on_c, 0, 63, 90
3, 147984, Note_on_c, 0, 60, 90
3, 147997, Note_off_c, 0, 67, 64
3, 147997, Note_off_c, 0, 63, 64
3, 147997, Note_off_c, 0, 60, 64
3, 147998, Note_off_c, 0, 72, 64
3, 148032, Note_on_c, 0, 67, 91
3, 148032, Note_on_c, 0, 63, 91
3, 148032, Note_on_c, 0, 60, 91
3, 148032, Note_on_c, 0, 74, 95
3, 148043, Note_off_c, 0, 74, 64
3, 148044, Note_off_c, 0, 63, 64
3, 148045, Note_off_c, 0, 67, 64
3, 148046, Note_off_c, 0, 60, 64
3, 148080, Note_on_c, 0, 74, 96
3, 148080, Note_on_c, 0, 67, 92
3, 148080, Note_on_c, 0, 63, 92
3, 148080, Note_on_c, 0, 60, 92
3, 148092, Note_off_c, 0, 74, 64
3, 148093, Note_off_c, 0, 60, 64
3, 148093, Note_off_c, 0, 67, 64
3, 148093, Note_off_c, 0, 63, 64
3, 148128, Note_on_c, 0, 67, 94
3, 148128, Note_on_c, 0, 63, 94
3, 148128, Note_on_c, 0, 60, 94
3, 148128, Note_on_c, 0, 74, 97
3, 148140, Note_off_c, 0, 67, 64
3, 148141, Note_off_c, 0, 74, 64
3, 148141, Note_off_c, 0, 63, 64
3, 148141, Note_off_c, 0, 60, 64
3, 148176, Note_on_c, 0, 74, 99
3, 148176, Note_on_c, 0, 67, 95
3, 148176, Note_on_c, 0, 63, 95
3, 148176, Note_on_c, 0, 60, 95
3, 148189, Note_off_c, 0, 74, 64
3, 148189, Note_off_c, 0, 67, 64
3, 148189, Note_off_c, 0, 63, 64
3, 148189, Note_off_c, 0, 60, 64
3, 148224, Note_on_c, 0, 75, 100
3, 148224, Note_on_c, 0, 60, 97
3, 148224, Note_on_c, 0, 63, 97
3, 148224, Note_on_c, 0, 67, 97
3, 148237, Note_off_c, 0, 75, 64
3, 148237, Note_off_c, 0, 60, 64
3, 148237, Note_off_c, 0, 63, 64
3, 148237, Note_off_c, 0, 67, 64
3, 148272, Note_on_c, 0, 60, 98
3, 148272, Note_on_c, 0, 63, 98
3, 148272, Note_on_c, 0, 67, 98
3, 148272, Note_on_c, 0, 75, 102
3, 148285, Note_off_c, 0, 60, 64
3, 148285, Note_off_c, 0, 63, 64
3, 148285, Note_off_c, 0, 67, 64
3, 148285, Note_off_c, 0, 75, 64
3, 148320, Note_on_c, 0, 67, 99
3, 148320, Note_on_c, 0, 63, 99
3, 148320, Note_on_c, 0, 60, 99
3, 148320, Note_on_c, 0, 75, 103
3, 148333, Note_off_c, 0, 67, 64
3, 148333, Note_off_c, 0, 63, 64
3, 148333, Note_off_c, 0, 60, 64
3, 148333, Note_off_c, 0, 75, 64
3, 148368, Note_on_c, 0, 60, 101
3, 148368, Note_on_c, 0, 63, 101
3, 148368, Note_on_c, 0, 67, 101
3, 148368, Note_on_c, 0, 75, 104
3, 148381, Note_off_c, 0, 60, 64
3, 148381, Note_off_c, 0, 63, 64
3, 148381, Note_off_c, 0, 67, 64
3, 148381, Note_off_c, 0, 75, 64
3, 148512, Note_on_c, 0, 63, 107
3, 148512, Note_on_c, 0, 75, 107
3, 148549, Note_off_c, 0, 63, 0
3, 148549, Note_off_c, 0, 75, 0
3, 148560, Note_on_c, 0, 65, 107
3, 148560, Note_on_c, 0, 77, 107
3, 148595, Note_off_c, 0, 65, 0
3, 148595, Note_off_c, 0, 77, 0
3, 148608, Note_on_c, 0, 68, 107
3, 148608, Note_on_c, 0, 75, 107
3, 148608, Note_on_c, 0, 80, 107
3, 148693, Note_off_c, 0, 68, 0
3, 148693, Note_off_c, 0, 75, 0
3, 148693, Note_off_c, 0, 80, 0
3, 148704, Note_on_c, 0, 67, 107
3, 148704, Note_on_c, 0, 72, 107
3, 148704, Note_on_c, 0, 79, 107
3, 148741, Note_off_c, 0, 67, 0
3, 148741, Note_off_c, 0, 72, 0
3, 148741, Note_off_c, 0, 79, 0
3, 148752, Note_on_c, 0, 67, 107
3, 148752, Note_on_c, 0, 72, 107
3, 148752, Note_on_c, 0, 79, 107
3, 148878, Note_off_c, 0, 79, 0
3, 148878, Note_off_c, 0, 67, 0
3, 148878, Note_off_c, 0, 72, 0
3, 148944, Note_on_c, 0, 79, 107
3, 148944, Note_on_c, 0, 67, 107
3, 148979, Note_off_c, 0, 67, 0
3, 148979, Note_off_c, 0, 79, 0
3, 148992, Note_on_c, 0, 80, 107
3, 148992, Note_on_c, 0, 68, 107
3, 149029, Note_off_c, 0, 80, 0
3, 149029, Note_off_c, 0, 68, 0
3, 149064, Note_on_c, 0, 70, 107
3, 149064, Note_on_c, 0, 74, 107
3, 149064, Note_on_c, 0, 82, 107
3, 149099, Note_off_c, 0, 70, 0
3, 149099, Note_off_c, 0, 74, 0
3, 149099, Note_off_c, 0, 82, 0
3, 149136, Note_on_c, 0, 77, 107
3, 149136, Note_on_c, 0, 71, 107
3, 149136, Note_on_c, 0, 65, 107
3, 149353, Note_off_c, 0, 71, 0
3, 149353, Note_off_c, 0, 65, 0
3, 149353, Note_off_c, 0, 77, 0
3, 149376, Note_on_c, 0, 77, 107
3, 149376, Note_on_c, 0, 72, 107
3, 149376, Note_on_c, 0, 65, 107
3, 149413, Note_off_c, 0, 77, 0
3, 149413, Note_off_c, 0, 72, 0
3, 149413, Note_off_c, 0, 65, 0
3, 149424, Note_on_c, 0, 75, 107
3, 149424, Note_on_c, 0, 72, 107
3, 149424, Note_on_c, 0, 63, 107
3, 149461, Note_off_c, 0, 75, 0
3, 149461, Note_off_c, 0, 72, 0
3, 149461, Note_off_c, 0, 63, 0
3, 149472, Note_on_c, 0, 77, 107
3, 149472, Note_on_c, 0, 72, 107
3, 149472, Note_on_c, 0, 65, 107
3, 149509, Note_off_c, 0, 77, 0
3, 149509, Note_off_c, 0, 72, 0
3, 149509, Note_off_c, 0, 65, 0
3, 149520, Note_on_c, 0, 75, 107
3, 149520, Note_on_c, 0, 72, 107
3, 149520, Note_on_c, 0, 63, 107
3, 149557, Note_off_c, 0, 63, 0
3, 149557, Note_off_c, 0, 75, 0
3, 149557, Note_off_c, 0, 72, 0
3, 149568, Note_on_c, 0, 77, 107
3, 149568, Note_on_c, 0, 72, 107
3, 149568, Note_on_c, 0, 65, 107
3, 149605, Note_off_c, 0, 65, 0
3, 149605, Note_off_c, 0, 72, 0
3, 149605, Note_off_c, 0, 77, 0
3, 149616, Note_on_c, 0, 79, 107
3, 149616, Note_on_c, 0, 67, 107
3, 149653, Note_off_c, 0, 67, 0
3, 149653, Note_off_c, 0, 79, 0
3, 149664, Note_on_c, 0, 79, 107
3, 149664, Note_on_c, 0, 72, 107
3, 149664, Note_on_c, 0, 67, 107
3, 149927, Note_off_c, 0, 67, 0
3, 149927, Note_off_c, 0, 72, 0
3, 149927, Note_off_c, 0, 79, 0
3, 150048, Note_on_c, 0, 75, 107
3, 150048, Note_on_c, 0, 63, 107
3, 150085, Note_off_c, 0, 75, 0
3, 150085, Note_off_c, 0, 63, 0
3, 150096, Note_on_c, 0, 77, 107
3, 150096, Note_on_c, 0, 65, 107
3, 150131, Note_off_c, 0, 65, 0
3, 150131, Note_off_c, 0, 77, 0
3, 150144, Note_on_c, 0, 80, 107
3, 150144, Note_on_c, 0, 75, 107
3, 150144, Note_on_c, 0, 68, 107
3, 150229, Note_off_c, 0, 80, 0
3, 150229, Note_off_c, 0, 75, 0
3, 150229, Note_off_c, 0, 68, 0
3, 150240, Note_on_c, 0, 79, 107
3, 150240, Note_on_c, 0, 72, 107
3, 150240, Note_on_c, 0, 67, 107
3, 150277, Note_off_c, 0, 79, 0
3, 150277, Note_off_c, 0, 72, 0
3, 150277, Note_off_c, 0, 67, 0
3, 150288, Note_on_c, 0, 79, 107
3, 150288, Note_on_c, 0, 72, 107
3, 150288, Note_on_c, 0, 67, 107
3, 150505, Note_off_c, 0, 72, 0
3, 150505, Note_off_c, 0, 67, 0
3, 150505, Note_off_c, 0, 79, 0
3, 150528, Note_on_c, 0, 74, 107
3, 150528, Note_on_c, 0, 71, 107
3, 150528, Note_on_c, 0, 80, 107
3, 150613, Note_off_c, 0, 80, 0
3, 150624, Note_on_c, 0, 79, 107
3, 150661, Note_off_c, 0, 79, 0
3, 150672, Note_on_c, 0, 79, 107
3, 150889, Note_off_c, 0, 79, 0
3, 150901, Note_off_c, 0, 74, 0
3, 150901, Note_off_c, 0, 71, 0
3, 150912, Note_on_c, 0, 72, 107
3, 150912, Note_on_c, 0, 67, 107
3, 150912, Note_on_c, 0, 77, 107
3, 150997, Note_off_c, 0, 77, 0
3, 151008, Note_on_c, 0, 75, 107
3, 151045, Note_off_c, 0, 75, 0
3, 151056, Note_on_c, 0, 75, 107
3, 151094, Note_off_c, 0, 67, 0
3, 151273, Note_off_c, 0, 75, 0
3, 151285, Note_off_c, 0, 72, 0
3, 151584, Note_on_c, 0, 75, 102
3, 151584, Note_on_c, 0, 72, 102
3, 151621, Note_off_c, 0, 75, 0
3, 151621, Note_off_c, 0, 72, 0
3, 151632, Note_on_c, 0, 77, 104
3, 151632, Note_on_c, 0, 70, 104
3, 151667, Note_off_c, 0, 70, 0
3, 151667, Note_off_c, 0, 77, 0
3, 151680, Note_on_c, 0, 80, 105
3, 151680, Note_on_c, 0, 75, 105
3, 151680, Note_on_c, 0, 70, 105
3, 151765, Note_off_c, 0, 80, 0
3, 151765, Note_off_c, 0, 75, 0
3, 151765, Note_off_c, 0, 70, 0
3, 151776, Note_on_c, 0, 79, 105
3, 151776, Note_on_c, 0, 72, 105
3, 151813, Note_off_c, 0, 79, 0
3, 151813, Note_off_c, 0, 72, 0
3, 151824, Note_on_c, 0, 79, 105
3, 151824, Note_on_c, 0, 72, 105
3, 151950, Note_off_c, 0, 72, 0
3, 151950, Note_off_c, 0, 79, 0
3, 151968, Note_on_c, 0, 79, 105
3, 151968, Note_on_c, 0, 72, 105
3, 152049, Note_off_c, 0, 72, 0
3, 152049, Note_off_c, 0, 79, 0
3, 152064, Note_on_c, 0, 80, 105
3, 152064, Note_on_c, 0, 74, 105
3, 152101, Note_off_c, 0, 80, 0
3, 152101, Note_off_c, 0, 74, 0
3, 152112, Note_on_c, 0, 82, 105
3, 152112, Note_on_c, 0, 77, 105
3, 152147, Note_off_c, 0, 82, 0
3, 152147, Note_off_c, 0, 77, 0
3, 152208, Note_on_c, 0, 77, 106
3, 152208, Note_on_c, 0, 71, 106
3, 152208, Note_on_c, 0, 67, 106
3, 152334, Note_off_c, 0, 67, 0
3, 152334, Note_off_c, 0, 77, 0
3, 152334, Note_off_c, 0, 71, 0
3, 152352, Note_on_c, 0, 77, 106
3, 152352, Note_on_c, 0, 71, 106
3, 152389, Note_off_c, 0, 77, 0
3, 152389, Note_off_c, 0, 71, 0
3, 152400, Note_on_c, 0, 77, 106
3, 152400, Note_on_c, 0, 71, 106
3, 152437, Note_off_c, 0, 71, 0
3, 152437, Note_off_c, 0, 77, 0
3, 152448, Note_on_c, 0, 77, 106
3, 152448, Note_on_c, 0, 72, 106
3, 152448, Note_on_c, 0, 67, 106
3, 152509, Note_off_c, 0, 77, 0
3, 152509, Note_off_c, 0, 72, 0
3, 152509, Note_off_c, 0, 67, 0
3, 152520, Note_on_c, 0, 77, 106
3, 152520, Note_on_c, 0, 72, 106
3, 152520, Note_on_c, 0, 67, 106
3, 152532, Note_off_c, 0, 77, 0
3, 152532, Note_off_c, 0, 72, 0
3, 152532, Note_off_c, 0, 67, 0
3, 152592, Note_on_c, 0, 75, 106
3, 152592, Note_on_c, 0, 72, 106
3, 152629, Note_off_c, 0, 72, 0
3, 152629, Note_off_c, 0, 75, 0
3, 152640, Note_on_c, 0, 77, 106
3, 152640, Note_on_c, 0, 72, 106
3, 152677, Note_off_c, 0, 72, 0
3, 152677, Note_off_c, 0, 77, 0
3, 152688, Note_on_c, 0, 79, 106
3, 152688, Note_on_c, 0, 67, 106
3, 152725, Note_off_c, 0, 67, 0
3, 152725, Note_off_c, 0, 79, 0
3, 152736, Note_on_c, 0, 79, 106
3, 152736, Note_on_c, 0, 72, 106
3, 152736, Note_on_c, 0, 67, 106
3, 152999, Note_off_c, 0, 67, 0
3, 152999, Note_off_c, 0, 72, 0
3, 152999, Note_off_c, 0, 79, 0
3, 153216, Note_on_c, 0, 77, 103
3, 153216, Note_on_c, 0, 71, 103
3, 153253, Note_off_c, 0, 77, 0
3, 153253, Note_off_c, 0, 71, 0
3, 153264, Note_on_c, 0, 75, 101
3, 153301, Note_off_c, 0, 75, 0
3, 153312, Note_on_c, 0, 77, 101
3, 153312, Note_on_c, 0, 71, 101
3, 153397, Note_off_c, 0, 77, 0
3, 153397, Note_off_c, 0, 71, 0
3, 153408, Note_on_c, 0, 77, 102
3, 153408, Note_on_c, 0, 71, 102
3, 153493, Note_off_c, 0, 71, 0
3, 153493, Note_off_c, 0, 77, 0
3, 153504, Note_on_c, 0, 75, 102
3, 153541, Note_off_c, 0, 75, 0
3, 153552, Note_on_c, 0, 77, 102
3, 153552, Note_on_c, 0, 71, 102
3, 153587, Note_off_c, 0, 71, 0
3, 153587, Note_off_c, 0, 77, 0
3, 153696, Note_on_c, 0, 77, 101
3, 153696, Note_on_c, 0, 71, 101
3, 153696, Note_on_c, 0, 65, 101
3, 153781, Note_off_c, 0, 77, 0
3, 153781, Note_off_c, 0, 71, 0
3, 153781, Note_off_c, 0, 65, 0
3, 153792, Note_on_c, 0, 78, 100
3, 153792, Note_on_c, 0, 72, 100
3, 153792, Note_on_c, 0, 66, 100
3, 153877, Note_off_c, 0, 66, 0
3, 153877, Note_off_c, 0, 72, 0
3, 153877, Note_off_c, 0, 78, 0
3, 153888, Note_on_c, 0, 65, 100
3, 153888, Note_on_c, 0, 70, 100
3, 153888, Note_on_c, 0, 77, 100
3, 154334, Note_off_c, 0, 77, 0
3, 154334, Note_off_c, 0, 70, 0
3, 154334, Note_off_c, 0, 65, 0
3, 154368, Note_on_c, 0, 82, 99
3, 154368, Note_on_c, 0, 77, 99
3, 154368, Note_on_c, 0, 74, 99
3, 154382, Note_off_c, 0, 82, 64
3, 154382, Note_off_c, 0, 77, 64
3, 154382, Note_off_c, 0, 74, 64
3, 154440, Note_on_c, 0, 74, 101
3, 154440, Note_on_c, 0, 77, 101
3, 154440, Note_on_c, 0, 82, 101
3, 154454, Note_off_c, 0, 74, 64
3, 154454, Note_off_c, 0, 77, 64
3, 154454, Note_off_c, 0, 82, 64
3, 154512, Note_on_c, 0, 74, 104
3, 154512, Note_on_c, 0, 77, 104
3, 154512, Note_on_c, 0, 82, 104
3, 154549, Note_off_c, 0, 74, 64
3, 154549, Note_off_c, 0, 77, 64
3, 154549, Note_off_c, 0, 82, 64
3, 154656, Note_on_c, 0, 74, 106
3, 154656, Note_on_c, 0, 82, 106
3, 154656, Note_on_c, 0, 77, 106
3, 154694, Note_off_c, 0, 74, 64
3, 154694, Note_off_c, 0, 82, 64
3, 154694, Note_off_c, 0, 77, 64
3, 154752, Note_on_c, 0, 79, 108
3, 154752, Note_on_c, 0, 67, 108
3, 154812, Note_off_c, 0, 67, 0
3, 154812, Note_off_c, 0, 79, 0
3, 154848, Note_on_c, 0, 79, 108
3, 154848, Note_on_c, 0, 67, 108
3, 154908, Note_off_c, 0, 79, 0
3, 154908, Note_off_c, 0, 67, 0
3, 154944, Note_on_c, 0, 78, 108
3, 154944, Note_on_c, 0, 66, 108
3, 155004, Note_off_c, 0, 66, 0
3, 155004, Note_off_c, 0, 78, 0
3, 155040, Note_on_c, 0, 78, 108
3, 155040, Note_on_c, 0, 66, 108
3, 155100, Note_off_c, 0, 66, 0
3, 155100, Note_off_c, 0, 78, 0
3, 155136, Note_on_c, 0, 77, 108
3, 155136, Note_on_c, 0, 65, 108
3, 155196, Note_off_c, 0, 65, 0
3, 155196, Note_off_c, 0, 77, 0
3, 155232, Note_on_c, 0, 77, 108
3, 155232, Note_on_c, 0, 65, 108
3, 155292, Note_off_c, 0, 77, 0
3, 155292, Note_off_c, 0, 65, 0
3, 155328, Note_on_c, 0, 76, 108
3, 155328, Note_on_c, 0, 64, 108
3, 155388, Note_off_c, 0, 64, 0
3, 155388, Note_off_c, 0, 76, 0
3, 155424, Note_on_c, 0, 76, 109
3, 155424, Note_on_c, 0, 64, 109
3, 155484, Note_off_c, 0, 64, 0
3, 155484, Note_off_c, 0, 76, 0
3, 155520, Note_on_c, 0, 79, 109
3, 155520, Note_on_c, 0, 67, 109
3, 155580, Note_off_c, 0, 67, 0
3, 155580, Note_off_c, 0, 79, 0
3, 155616, Note_on_c, 0, 79, 109
3, 155616, Note_on_c, 0, 67, 109
3, 155676, Note_off_c, 0, 79, 0
3, 155676, Note_off_c, 0, 67, 0
3, 155712, Note_on_c, 0, 78, 109
3, 155712, Note_on_c, 0, 66, 109
3, 155772, Note_off_c, 0, 66, 0
3, 155772, Note_off_c, 0, 78, 0
3, 155808, Note_on_c, 0, 78, 109
3, 155808, Note_on_c, 0, 66, 109
3, 155868, Note_off_c, 0, 66, 0
3, 155868, Note_off_c, 0, 78, 0
3, 155904, Note_on_c, 0, 77, 109
3, 155904, Note_on_c, 0, 65, 109
3, 155964, Note_off_c, 0, 65, 0
3, 155964, Note_off_c, 0, 77, 0
3, 156000, Note_on_c, 0, 77, 110
3, 156000, Note_on_c, 0, 65, 110
3, 156060, Note_off_c, 0, 77, 0
3, 156060, Note_off_c, 0, 65, 0
3, 156096, Note_on_c, 0, 71, 112
3, 156109, Note_off_c, 0, 71, 0
3, 156120, Note_on_c, 0, 72, 113
3, 156133, Note_off_c, 0, 72, 0
3, 156144, Note_on_c, 0, 74, 115
3, 156157, Note_off_c, 0, 74, 0
3, 156168, Note_on_c, 0, 75, 117
3, 156181, Note_off_c, 0, 75, 0
3, 156192, Note_on_c, 0, 77, 119
3, 156205, Note_off_c, 0, 77, 0
3, 156216, Note_on_c, 0, 79, 120
3, 156229, Note_off_c, 0, 79, 0
3, 156240, Note_on_c, 0, 81, 122
3, 156253, Note_off_c, 0, 81, 0
3, 156264, Note_on_c, 0, 83, 124
3, 156276, Note_off_c, 0, 83, 0
3, 156288, Note_on_c, 0, 72, 126
3, 156288, Note_on_c, 0, 84, 126
3, 156373, Note_off_c, 0, 84, 0
3, 156373, Note_off_c, 0, 72, 0
3, 157056, Control_c, 0, 101, 0
3, 157056, Control_c, 0, 100, 0
3, 157056, Control_c, 0, 6, 12
3, 157056, Control_c, 0, 10, 64
3, 157056, Control_c, 0, 7, 100
3, 157056, Pitch_bend_c, 0, 8192
3, 157056, Program_c, 0, 0
3, 157056, Control_c, 0, 10, 64
3, 157056, Control_c, 0, 7, 100
3, 157056, Pitch_bend_c, 0, 8192
3, 157057, Control_c, 0, 101, 0
3, 157057, Control_c, 0, 100, 0
3, 157057, Control_c, 0, 6, 12
3, 157057, Control_c, 0, 10, 64
3, 157057, Control_c, 0, 7, 100
3, 157057, Pitch_bend_c, 0, 8192
3, 157057, Program_c, 0, 0
3, 157057, End_track
4, 0, Start_track
4, 0, Title_t, "CFX Concert Grand #2"
4, 0, Control_c, 1, 10, 64
4, 0, Control_c, 1, 7, 100
4, 0, Pitch_bend_c, 1, 8192
4, 0, Control_c, 1, 101, 0
4, 0, Control_c, 1, 100, 0
4, 0, Control_c, 1, 6, 12
4, 0, Control_c, 1, 10, 64
4, 0, Control_c, 1, 7, 100
4, 0, Pitch_bend_c, 1, 8192
4, 0, Program_c, 1, 0
4, 0, Control_c, 1, 10, 64
4, 0, Control_c, 1, 7, 100
4, 0, Pitch_bend_c, 1, 8192
4, 0, Control_c, 1, 101, 0
4, 0, Control_c, 1, 100, 0
4, 0, Control_c, 1, 6, 12
4, 0, Control_c, 1, 10, 64
4, 0, Control_c, 1, 7, 100
4, 0, Pitch_bend_c, 1, 8192
4, 0, Program_c, 1, 0
4, 0, Control_c, 1, 10, 64
4, 0, Control_c, 1, 7, 100
4, 0, Pitch_bend_c, 1, 8192
4, 0, Note_on_c, 1, 49, 110
4, 0, Note_on_c, 1, 37, 110
4, 0, Control_c, 1, 101, 0
4, 0, Control_c, 1, 100, 0
4, 0, Control_c, 1, 6, 12
4, 0, Control_c, 1, 10, 64
4, 0, Control_c, 1, 7, 100
4, 0, Pitch_bend_c, 1, 8192
4, 0, Program_c, 1, 0
4, 45, Note_off_c, 1, 49, 0
4, 45, Note_off_c, 1, 37, 0
4, 48, Note_on_c, 1, 49, 110
4, 48, Note_on_c, 1, 37, 110
4, 93, Note_off_c, 1, 49, 0
4, 93, Note_off_c, 1, 37, 0
4, 624, Note_on_c, 1, 35, 110
4, 624, Note_on_c, 1, 47, 110
4, 760, Note_off_c, 1, 35, 0
4, 760, Note_off_c, 1, 47, 0
4, 768, Note_on_c, 1, 61, 105
4, 768, Note_on_c, 1, 56, 105
4, 768, Note_on_c, 1, 49, 105
4, 859, Note_off_c, 1, 61, 0
4, 859, Note_off_c, 1, 56, 0
4, 859, Note_off_c, 1, 49, 0
4, 864, Note_on_c, 1, 49, 105
4, 909, Note_off_c, 1, 49, 0
4, 912, Note_on_c, 1, 56, 105
4, 957, Note_off_c, 1, 56, 0
4, 960, Note_on_c, 1, 49, 105
4, 1005, Note_off_c, 1, 49, 0
4, 1008, Note_on_c, 1, 56, 105
4, 1053, Note_off_c, 1, 56, 0
4, 1056, Note_on_c, 1, 49, 105
4, 1101, Note_off_c, 1, 49, 0
4, 1104, Note_on_c, 1, 56, 105
4, 1149, Note_off_c, 1, 56, 0
4, 1152, Note_on_c, 1, 49, 105
4, 1197, Note_off_c, 1, 49, 0
4, 1200, Note_on_c, 1, 56, 105
4, 1245, Note_off_c, 1, 56, 0
4, 1248, Note_on_c, 1, 49, 105
4, 1293, Note_off_c, 1, 49, 0
4, 1296, Note_on_c, 1, 56, 105
4, 1341, Note_off_c, 1, 56, 0
4, 1344, Note_on_c, 1, 49, 105
4, 1389, Note_off_c, 1, 49, 0
4, 1392, Note_on_c, 1, 56, 105
4, 1437, Note_off_c, 1, 56, 0
4, 1440, Note_on_c, 1, 47, 105
4, 1485, Note_off_c, 1, 47, 0
4, 1488, Note_on_c, 1, 54, 105
4, 1533, Note_off_c, 1, 54, 0
4, 1536, Note_on_c, 1, 57, 105
4, 1536, Note_on_c, 1, 52, 105
4, 1536, Note_on_c, 1, 45, 105
4, 1627, Note_off_c, 1, 57, 0
4, 1627, Note_off_c, 1, 52, 0
4, 1627, Note_off_c, 1, 45, 0
4, 1632, Note_on_c, 1, 45, 105
4, 1677, Note_off_c, 1, 45, 0
4, 1680, Note_on_c, 1, 52, 105
4, 1725, Note_off_c, 1, 52, 0
4, 1728, Note_on_c, 1, 45, 105
4, 1773, Note_off_c, 1, 45, 0
4, 1776, Note_on_c, 1, 52, 105
4, 1821, Note_off_c, 1, 52, 0
4, 1824, Note_on_c, 1, 45, 105
4, 1869, Note_off_c, 1, 45, 0
4, 1872, Note_on_c, 1, 52, 105
4, 1917, Note_off_c, 1, 52, 0
4, 1920, Note_on_c, 1, 45, 105
4, 1965, Note_off_c, 1, 45, 0
4, 1968, Note_on_c, 1, 52, 105
4, 2013, Note_off_c, 1, 52, 0
4, 2016, Note_on_c, 1, 45, 105
4, 2061, Note_off_c, 1, 45, 0
4, 2064, Note_on_c, 1, 52, 105
4, 2109, Note_off_c, 1, 52, 0
4, 2112, Note_on_c, 1, 45, 105
4, 2157, Note_off_c, 1, 45, 0
4, 2160, Note_on_c, 1, 52, 105
4, 2205, Note_off_c, 1, 52, 0
4, 2208, Note_on_c, 1, 45, 105
4, 2253, Note_off_c, 1, 45, 0
4, 2256, Note_on_c, 1, 52, 105
4, 2301, Note_off_c, 1, 52, 0
4, 2304, Note_on_c, 1, 52, 105
4, 2304, Note_on_c, 1, 59, 105
4, 2304, Note_on_c, 1, 64, 105
4, 2395, Note_off_c, 1, 52, 0
4, 2395, Note_off_c, 1, 59, 0
4, 2395, Note_off_c, 1, 64, 0
4, 2400, Note_on_c, 1, 52, 105
4, 2445, Note_off_c, 1, 52, 0
4, 2448, Note_on_c, 1, 59, 105
4, 2493, Note_off_c, 1, 59, 0
4, 2496, Note_on_c, 1, 52, 105
4, 2541, Note_off_c, 1, 52, 0
4, 2544, Note_on_c, 1, 59, 105
4, 2589, Note_off_c, 1, 59, 0
4, 2592, Note_on_c, 1, 52, 105
4, 2637, Note_off_c, 1, 52, 0
4, 2640, Note_on_c, 1, 59, 105
4, 2685, Note_off_c, 1, 59, 0
4, 2688, Note_on_c, 1, 52, 105
4, 2733, Note_off_c, 1, 52, 0
4, 2736, Note_on_c, 1, 59, 105
4, 2781, Note_off_c, 1, 59, 0
4, 2784, Note_on_c, 1, 52, 105
4, 2829, Note_off_c, 1, 52, 0
4, 2832, Note_on_c, 1, 59, 105
4, 2877, Note_off_c, 1, 59, 0
4, 2880, Note_on_c, 1, 52, 105
4, 2925, Note_off_c, 1, 52, 0
4, 2928, Note_on_c, 1, 59, 105
4, 2973, Note_off_c, 1, 59, 0
4, 2976, Note_on_c, 1, 50, 105
4, 3021, Note_off_c, 1, 50, 0
4, 3024, Note_on_c, 1, 57, 105
4, 3069, Note_off_c, 1, 57, 0
4, 3072, Note_on_c, 1, 60, 105
4, 3072, Note_on_c, 1, 55, 105
4, 3072, Note_on_c, 1, 48, 105
4, 3163, Note_off_c, 1, 60, 0
4, 3163, Note_off_c, 1, 55, 0
4, 3163, Note_off_c, 1, 48, 0
4, 3168, Note_on_c, 1, 48, 105
4, 3213, Note_off_c, 1, 48, 0
4, 3216, Note_on_c, 1, 55, 105
4, 3261, Note_off_c, 1, 55, 0
4, 3264, Note_on_c, 1, 48, 105
4, 3309, Note_off_c, 1, 48, 0
4, 3312, Note_on_c, 1, 55, 105
4, 3357, Note_off_c, 1, 55, 0
4, 3360, Note_on_c, 1, 48, 105
4, 3405, Note_off_c, 1, 48, 0
4, 3408, Note_on_c, 1, 55, 105
4, 3453, Note_off_c, 1, 55, 0
4, 3456, Note_on_c, 1, 48, 105
4, 3501, Note_off_c, 1, 48, 0
4, 3504, Note_on_c, 1, 55, 105
4, 3549, Note_off_c, 1, 55, 0
4, 3552, Note_on_c, 1, 48, 105
4, 3597, Note_off_c, 1, 48, 0
4, 3600, Note_on_c, 1, 55, 105
4, 3645, Note_off_c, 1, 55, 0
4, 3648, Note_on_c, 1, 52, 105
4, 3693, Note_off_c, 1, 52, 0
4, 3696, Note_on_c, 1, 59, 105
4, 3741, Note_off_c, 1, 59, 0
4, 3744, Note_on_c, 1, 51, 105
4, 3789, Note_off_c, 1, 51, 0
4, 3792, Note_on_c, 1, 54, 104
4, 3837, Note_off_c, 1, 54, 0
4, 3840, Note_on_c, 1, 40, 102
4, 3885, Note_off_c, 1, 40, 0
4, 3888, Note_on_c, 1, 45, 99
4, 3933, Note_off_c, 1, 45, 0
4, 3936, Note_on_c, 1, 50, 97
4, 3981, Note_off_c, 1, 50, 0
4, 3984, Note_on_c, 1, 55, 95
4, 4029, Note_off_c, 1, 55, 0
4, 4032, Note_on_c, 1, 51, 92
4, 4077, Note_off_c, 1, 51, 0
4, 4080, Note_on_c, 1, 46, 90
4, 4125, Note_off_c, 1, 46, 0
4, 4128, Note_on_c, 1, 41, 88
4, 4173, Note_off_c, 1, 41, 0
4, 4176, Note_on_c, 1, 37, 86
4, 4221, Note_off_c, 1, 37, 0
4, 4224, Note_on_c, 1, 44, 86
4, 4269, Note_off_c, 1, 44, 0
4, 4272, Note_on_c, 1, 51, 86
4, 4317, Note_off_c, 1, 51, 0
4, 4320, Note_on_c, 1, 44, 86
4, 4365, Note_off_c, 1, 44, 0
4, 4368, Note_on_c, 1, 51, 86
4, 4413, Note_off_c, 1, 51, 0
4, 4416, Note_on_c, 1, 44, 86
4, 4461, Note_off_c, 1, 44, 0
4, 4464, Note_on_c, 1, 51, 86
4, 4509, Note_off_c, 1, 51, 0
4, 4512, Note_on_c, 1, 44, 86
4, 4557, Note_off_c, 1, 44, 0
4, 4560, Note_on_c, 1, 51, 86
4, 4605, Note_off_c, 1, 51, 0
4, 4608, Note_on_c, 1, 44, 86
4, 4653, Note_off_c, 1, 44, 0
4, 4656, Note_on_c, 1, 51, 86
4, 4701, Note_off_c, 1, 51, 0
4, 4704, Note_on_c, 1, 44, 86
4, 4749, Note_off_c, 1, 44, 0
4, 4752, Note_on_c, 1, 51, 86
4, 4797, Note_off_c, 1, 51, 0
4, 4800, Note_on_c, 1, 44, 86
4, 4845, Note_off_c, 1, 44, 0
4, 4848, Note_on_c, 1, 51, 86
4, 4893, Note_off_c, 1, 51, 0
4, 4896, Note_on_c, 1, 42, 86
4, 4941, Note_off_c, 1, 42, 0
4, 4944, Note_on_c, 1, 49, 86
4, 4989, Note_off_c, 1, 49, 0
4, 4992, Note_on_c, 1, 40, 86
4, 5037, Note_off_c, 1, 40, 0
4, 5040, Note_on_c, 1, 47, 86
4, 5085, Note_off_c, 1, 47, 0
4, 5088, Note_on_c, 1, 40, 86
4, 5133, Note_off_c, 1, 40, 0
4, 5136, Note_on_c, 1, 47, 86
4, 5181, Note_off_c, 1, 47, 0
4, 5184, Note_on_c, 1, 40, 86
4, 5229, Note_off_c, 1, 40, 0
4, 5232, Note_on_c, 1, 47, 86
4, 5277, Note_off_c, 1, 47, 0
4, 5280, Note_on_c, 1, 40, 86
4, 5325, Note_off_c, 1, 40, 0
4, 5328, Note_on_c, 1, 47, 86
4, 5373, Note_off_c, 1, 47, 0
4, 5376, Note_on_c, 1, 40, 86
4, 5421, Note_off_c, 1, 40, 0
4, 5424, Note_on_c, 1, 47, 86
4, 5469, Note_off_c, 1, 47, 0
4, 5472, Note_on_c, 1, 40, 86
4, 5517, Note_off_c, 1, 40, 0
4, 5520, Note_on_c, 1, 47, 86
4, 5565, Note_off_c, 1, 47, 0
4, 5568, Note_on_c, 1, 40, 86
4, 5613, Note_off_c, 1, 40, 0
4, 5616, Note_on_c, 1, 47, 86
4, 5661, Note_off_c, 1, 47, 0
4, 5664, Note_on_c, 1, 42, 86
4, 5709, Note_off_c, 1, 42, 0
4, 5712, Note_on_c, 1, 49, 86
4, 5757, Note_off_c, 1, 49, 0
4, 5760, Note_on_c, 1, 44, 86
4, 5805, Note_off_c, 1, 44, 0
4, 5808, Note_on_c, 1, 51, 86
4, 5853, Note_off_c, 1, 51, 0
4, 5856, Note_on_c, 1, 44, 86
4, 5901, Note_off_c, 1, 44, 0
4, 5904, Note_on_c, 1, 51, 86
4, 5949, Note_off_c, 1, 51, 0
4, 5952, Note_on_c, 1, 44, 86
4, 5997, Note_off_c, 1, 44, 0
4, 6000, Note_on_c, 1, 51, 86
4, 6045, Note_off_c, 1, 51, 0
4, 6048, Note_on_c, 1, 44, 86
4, 6093, Note_off_c, 1, 44, 0
4, 6096, Note_on_c, 1, 51, 86
4, 6141, Note_off_c, 1, 51, 0
4, 6144, Note_on_c, 1, 44, 86
4, 6189, Note_off_c, 1, 44, 0
4, 6192, Note_on_c, 1, 51, 86
4, 6237, Note_off_c, 1, 51, 0
4, 6240, Note_on_c, 1, 44, 86
4, 6285, Note_off_c, 1, 44, 0
4, 6288, Note_on_c, 1, 51, 86
4, 6333, Note_off_c, 1, 51, 0
4, 6336, Note_on_c, 1, 44, 86
4, 6381, Note_off_c, 1, 44, 0
4, 6384, Note_on_c, 1, 51, 86
4, 6429, Note_off_c, 1, 51, 0
4, 6432, Note_on_c, 1, 42, 86
4, 6477, Note_off_c, 1, 42, 0
4, 6480, Note_on_c, 1, 49, 86
4, 6525, Note_off_c, 1, 49, 0
4, 6528, Note_on_c, 1, 40, 86
4, 6573, Note_off_c, 1, 40, 0
4, 6576, Note_on_c, 1, 47, 86
4, 6621, Note_off_c, 1, 47, 0
4, 6624, Note_on_c, 1, 40, 86
4, 6669, Note_off_c, 1, 40, 0
4, 6672, Note_on_c, 1, 47, 86
4, 6717, Note_off_c, 1, 47, 0
4, 6720, Note_on_c, 1, 40, 86
4, 6765, Note_off_c, 1, 40, 0
4, 6768, Note_on_c, 1, 47, 86
4, 6813, Note_off_c, 1, 47, 0
4, 6816, Note_on_c, 1, 40, 86
4, 6861, Note_off_c, 1, 40, 0
4, 6864, Note_on_c, 1, 47, 86
4, 6909, Note_off_c, 1, 47, 0
4, 6912, Note_on_c, 1, 40, 86
4, 6957, Note_off_c, 1, 40, 0
4, 6960, Note_on_c, 1, 47, 86
4, 7005, Note_off_c, 1, 47, 0
4, 7008, Note_on_c, 1, 40, 86
4, 7053, Note_off_c, 1, 40, 0
4, 7056, Note_on_c, 1, 47, 86
4, 7101, Note_off_c, 1, 47, 0
4, 7104, Note_on_c, 1, 40, 86
4, 7149, Note_off_c, 1, 40, 0
4, 7152, Note_on_c, 1, 47, 86
4, 7197, Note_off_c, 1, 47, 0
4, 7200, Note_on_c, 1, 42, 87
4, 7245, Note_off_c, 1, 42, 0
4, 7248, Note_on_c, 1, 49, 89
4, 7293, Note_off_c, 1, 49, 0
4, 7296, Note_on_c, 1, 44, 93
4, 7341, Note_off_c, 1, 44, 0
4, 7344, Note_on_c, 1, 51, 95
4, 7389, Note_off_c, 1, 51, 0
4, 7392, Note_on_c, 1, 63, 95
4, 7392, Note_on_c, 1, 56, 95
4, 7437, Note_off_c, 1, 63, 0
4, 7437, Note_off_c, 1, 56, 0
4, 7440, Note_on_c, 1, 51, 95
4, 7485, Note_off_c, 1, 51, 0
4, 7488, Note_on_c, 1, 44, 95
4, 7533, Note_off_c, 1, 44, 0
4, 7536, Note_on_c, 1, 51, 95
4, 7581, Note_off_c, 1, 51, 0
4, 7584, Note_on_c, 1, 63, 95
4, 7584, Note_on_c, 1, 56, 95
4, 7629, Note_off_c, 1, 63, 0
4, 7629, Note_off_c, 1, 56, 0
4, 7632, Note_on_c, 1, 51, 95
4, 7677, Note_off_c, 1, 51, 0
4, 7680, Note_on_c, 1, 44, 95
4, 7725, Note_off_c, 1, 44, 0
4, 7728, Note_on_c, 1, 51, 95
4, 7773, Note_off_c, 1, 51, 0
4, 7776, Note_on_c, 1, 63, 95
4, 7776, Note_on_c, 1, 56, 95
4, 7821, Note_off_c, 1, 63, 0
4, 7821, Note_off_c, 1, 56, 0
4, 7824, Note_on_c, 1, 51, 95
4, 7869, Note_off_c, 1, 51, 0
4, 7872, Note_on_c, 1, 44, 95
4, 7917, Note_off_c, 1, 44, 0
4, 7920, Note_on_c, 1, 51, 95
4, 7965, Note_off_c, 1, 51, 0
4, 7968, Note_on_c, 1, 61, 95
4, 7968, Note_on_c, 1, 54, 95
4, 8013, Note_off_c, 1, 61, 0
4, 8013, Note_off_c, 1, 54, 0
4, 8016, Note_on_c, 1, 49, 95
4, 8061, Note_off_c, 1, 49, 0
4, 8064, Note_on_c, 1, 40, 95
4, 8109, Note_off_c, 1, 40, 0
4, 8112, Note_on_c, 1, 47, 95
4, 8157, Note_off_c, 1, 47, 0
4, 8160, Note_on_c, 1, 59, 95
4, 8160, Note_on_c, 1, 52, 95
4, 8205, Note_off_c, 1, 59, 0
4, 8205, Note_off_c, 1, 52, 0
4, 8208, Note_on_c, 1, 47, 95
4, 8253, Note_off_c, 1, 47, 0
4, 8256, Note_on_c, 1, 40, 95
4, 8301, Note_off_c, 1, 40, 0
4, 8304, Note_on_c, 1, 47, 95
4, 8349, Note_off_c, 1, 47, 0
4, 8352, Note_on_c, 1, 59, 95
4, 8352, Note_on_c, 1, 52, 95
4, 8397, Note_off_c, 1, 59, 0
4, 8397, Note_off_c, 1, 52, 0
4, 8400, Note_on_c, 1, 47, 95
4, 8445, Note_off_c, 1, 47, 0
4, 8448, Note_on_c, 1, 40, 95
4, 8493, Note_off_c, 1, 40, 0
4, 8496, Note_on_c, 1, 47, 95
4, 8541, Note_off_c, 1, 47, 0
4, 8544, Note_on_c, 1, 59, 95
4, 8544, Note_on_c, 1, 52, 95
4, 8589, Note_off_c, 1, 59, 0
4, 8589, Note_off_c, 1, 52, 0
4, 8592, Note_on_c, 1, 47, 95
4, 8637, Note_off_c, 1, 47, 0
4, 8640, Note_on_c, 1, 40, 95
4, 8685, Note_off_c, 1, 40, 0
4, 8688, Note_on_c, 1, 47, 95
4, 8733, Note_off_c, 1, 47, 0
4, 8736, Note_on_c, 1, 61, 95
4, 8736, Note_on_c, 1, 54, 95
4, 8781, Note_off_c, 1, 61, 0
4, 8781, Note_off_c, 1, 54, 0
4, 8784, Note_on_c, 1, 49, 95
4, 8829, Note_off_c, 1, 49, 0
4, 8832, Note_on_c, 1, 44, 95
4, 8877, Note_off_c, 1, 44, 0
4, 8880, Note_on_c, 1, 51, 95
4, 8925, Note_off_c, 1, 51, 0
4, 8928, Note_on_c, 1, 63, 95
4, 8928, Note_on_c, 1, 56, 95
4, 8973, Note_off_c, 1, 63, 0
4, 8973, Note_off_c, 1, 56, 0
4, 8976, Note_on_c, 1, 51, 95
4, 9021, Note_off_c, 1, 51, 0
4, 9024, Note_on_c, 1, 44, 95
4, 9069, Note_off_c, 1, 44, 0
4, 9072, Note_on_c, 1, 51, 95
4, 9117, Note_off_c, 1, 51, 0
4, 9120, Note_on_c, 1, 63, 95
4, 9120, Note_on_c, 1, 56, 95
4, 9165, Note_off_c, 1, 63, 0
4, 9165, Note_off_c, 1, 56, 0
4, 9168, Note_on_c, 1, 51, 95
4, 9213, Note_off_c, 1, 51, 0
4, 9216, Note_on_c, 1, 44, 95
4, 9261, Note_off_c, 1, 44, 0
4, 9264, Note_on_c, 1, 51, 95
4, 9309, Note_off_c, 1, 51, 0
4, 9312, Note_on_c, 1, 63, 95
4, 9312, Note_on_c, 1, 56, 95
4, 9357, Note_off_c, 1, 63, 0
4, 9357, Note_off_c, 1, 56, 0
4, 9360, Note_on_c, 1, 51, 95
4, 9405, Note_off_c, 1, 51, 0
4, 9408, Note_on_c, 1, 44, 95
4, 9453, Note_off_c, 1, 44, 0
4, 9456, Note_on_c, 1, 51, 95
4, 9501, Note_off_c, 1, 51, 0
4, 9504, Note_on_c, 1, 61, 95
4, 9504, Note_on_c, 1, 54, 95
4, 9549, Note_off_c, 1, 61, 0
4, 9549, Note_off_c, 1, 54, 0
4, 9552, Note_on_c, 1, 49, 95
4, 9597, Note_off_c, 1, 49, 0
4, 9600, Note_on_c, 1, 40, 95
4, 9645, Note_off_c, 1, 40, 0
4, 9648, Note_on_c, 1, 47, 95
4, 9693, Note_off_c, 1, 47, 0
4, 9696, Note_on_c, 1, 59, 95
4, 9696, Note_on_c, 1, 52, 95
4, 9741, Note_off_c, 1, 59, 0
4, 9741, Note_off_c, 1, 52, 0
4, 9744, Note_on_c, 1, 47, 95
4, 9789, Note_off_c, 1, 47, 0
4, 9792, Note_on_c, 1, 40, 95
4, 9837, Note_off_c, 1, 40, 0
4, 9840, Note_on_c, 1, 47, 95
4, 9885, Note_off_c, 1, 47, 0
4, 9888, Note_on_c, 1, 59, 95
4, 9888, Note_on_c, 1, 52, 95
4, 9933, Note_off_c, 1, 59, 0
4, 9933, Note_off_c, 1, 52, 0
4, 9936, Note_on_c, 1, 47, 95
4, 9981, Note_off_c, 1, 47, 0
4, 9984, Note_on_c, 1, 40, 95
4, 10029, Note_off_c, 1, 40, 0
4, 10032, Note_on_c, 1, 47, 95
4, 10077, Note_off_c, 1, 47, 0
4, 10080, Note_on_c, 1, 59, 95
4, 10080, Note_on_c, 1, 52, 95
4, 10125, Note_off_c, 1, 59, 0
4, 10125, Note_off_c, 1, 52, 0
4, 10128, Note_on_c, 1, 47, 95
4, 10173, Note_off_c, 1, 47, 0
4, 10176, Note_on_c, 1, 40, 95
4, 10221, Note_off_c, 1, 40, 0
4, 10224, Note_on_c, 1, 51, 95
4, 10224, Note_on_c, 1, 39, 95
4, 10360, Note_off_c, 1, 51, 0
4, 10360, Note_off_c, 1, 39, 0
4, 10368, Note_on_c, 1, 52, 90
4, 10368, Note_on_c, 1, 40, 90
4, 10459, Note_off_c, 1, 52, 0
4, 10459, Note_off_c, 1, 40, 0
4, 10464, Note_on_c, 1, 59, 90
4, 10464, Note_on_c, 1, 47, 90
4, 10555, Note_off_c, 1, 47, 0
4, 10555, Note_off_c, 1, 59, 0
4, 10560, Note_on_c, 1, 64, 89
4, 10560, Note_on_c, 1, 52, 89
4, 10651, Note_off_c, 1, 64, 0
4, 10651, Note_off_c, 1, 52, 0
4, 10656, Note_on_c, 1, 59, 89
4, 10656, Note_on_c, 1, 47, 89
4, 10747, Note_off_c, 1, 59, 0
4, 10747, Note_off_c, 1, 47, 0
4, 10752, Note_on_c, 1, 51, 88
4, 10752, Note_on_c, 1, 39, 88
4, 10843, Note_off_c, 1, 51, 0
4, 10843, Note_off_c, 1, 39, 0
4, 10848, Note_on_c, 1, 55, 88
4, 10848, Note_on_c, 1, 46, 88
4, 10939, Note_off_c, 1, 55, 0
4, 10939, Note_off_c, 1, 46, 0
4, 10944, Note_on_c, 1, 58, 88
4, 10944, Note_on_c, 1, 51, 88
4, 11126, Note_off_c, 1, 51, 0
4, 11126, Note_off_c, 1, 58, 0
4, 11136, Note_on_c, 1, 56, 86
4, 11136, Note_on_c, 1, 44, 86
4, 11227, Note_off_c, 1, 56, 0
4, 11227, Note_off_c, 1, 44, 0
4, 11232, Note_on_c, 1, 51, 87
4, 11323, Note_off_c, 1, 51, 0
4, 11328, Note_on_c, 1, 54, 89
4, 11328, Note_on_c, 1, 42, 89
4, 11419, Note_off_c, 1, 54, 0
4, 11419, Note_off_c, 1, 42, 0
4, 11424, Note_on_c, 1, 51, 91
4, 11515, Note_off_c, 1, 51, 0
4, 11520, Note_on_c, 1, 59, 93
4, 11520, Note_on_c, 1, 47, 93
4, 11611, Note_off_c, 1, 59, 0
4, 11611, Note_off_c, 1, 47, 0
4, 11616, Note_on_c, 1, 51, 95
4, 11707, Note_off_c, 1, 51, 0
4, 11712, Note_on_c, 1, 56, 97
4, 11712, Note_on_c, 1, 44, 97
4, 11803, Note_off_c, 1, 56, 0
4, 11803, Note_off_c, 1, 44, 0
4, 11808, Note_on_c, 1, 51, 99
4, 11899, Note_off_c, 1, 51, 0
4, 11904, Note_on_c, 1, 37, 92
4, 11995, Note_off_c, 1, 37, 0
4, 12000, Note_on_c, 1, 49, 96
4, 12000, Note_on_c, 1, 56, 96
4, 12045, Note_off_c, 1, 49, 0
4, 12045, Note_off_c, 1, 56, 0
4, 12192, Note_on_c, 1, 49, 96
4, 12192, Note_on_c, 1, 56, 96
4, 12237, Note_off_c, 1, 49, 0
4, 12237, Note_off_c, 1, 56, 0
4, 12288, Note_on_c, 1, 35, 96
4, 12379, Note_off_c, 1, 35, 0
4, 12384, Note_on_c, 1, 47, 96
4, 12429, Note_off_c, 1, 47, 0
4, 12432, Note_on_c, 1, 54, 96
4, 12432, Note_on_c, 1, 47, 96
4, 12477, Note_off_c, 1, 54, 0
4, 12477, Note_off_c, 1, 47, 0
4, 12528, Note_on_c, 1, 47, 96
4, 12528, Note_on_c, 1, 54, 96
4, 12619, Note_off_c, 1, 47, 0
4, 12619, Note_off_c, 1, 54, 0
4, 12672, Note_on_c, 1, 33, 96
4, 12763, Note_off_c, 1, 33, 0
4, 12768, Note_on_c, 1, 45, 96
4, 12768, Note_on_c, 1, 52, 96
4, 12813, Note_off_c, 1, 45, 0
4, 12813, Note_off_c, 1, 52, 0
4, 12960, Note_on_c, 1, 45, 101
4, 12960, Note_on_c, 1, 52, 101
4, 13005, Note_off_c, 1, 45, 0
4, 13005, Note_off_c, 1, 52, 0
4, 13056, Note_on_c, 1, 32, 97
4, 13147, Note_off_c, 1, 32, 0
4, 13152, Note_on_c, 1, 32, 97
4, 13243, Note_off_c, 1, 32, 0
4, 13248, Note_on_c, 1, 44, 98
4, 13248, Note_on_c, 1, 32, 98
4, 13339, Note_off_c, 1, 44, 0
4, 13339, Note_off_c, 1, 32, 0
4, 13344, Note_on_c, 1, 32, 98
4, 13344, Note_on_c, 1, 44, 98
4, 13435, Note_off_c, 1, 44, 0
4, 13435, Note_off_c, 1, 32, 0
4, 13440, Note_on_c, 1, 37, 106
4, 13531, Note_off_c, 1, 37, 0
4, 13536, Note_on_c, 1, 49, 106
4, 13536, Note_on_c, 1, 56, 106
4, 13581, Note_off_c, 1, 49, 0
4, 13581, Note_off_c, 1, 56, 0
4, 13632, Note_on_c, 1, 37, 106
4, 13718, Note_off_c, 1, 37, 64
4, 13728, Note_on_c, 1, 49, 106
4, 13728, Note_on_c, 1, 56, 106
4, 13773, Note_off_c, 1, 49, 0
4, 13773, Note_off_c, 1, 56, 0
4, 13824, Note_on_c, 1, 33, 106
4, 13915, Note_off_c, 1, 33, 0
4, 13920, Note_on_c, 1, 52, 106
4, 13920, Note_on_c, 1, 45, 106
4, 13965, Note_off_c, 1, 52, 0
4, 13965, Note_off_c, 1, 45, 0
4, 14016, Note_on_c, 1, 33, 106
4, 14102, Note_off_c, 1, 33, 64
4, 14112, Note_on_c, 1, 52, 106
4, 14112, Note_on_c, 1, 45, 106
4, 14157, Note_off_c, 1, 52, 0
4, 14157, Note_off_c, 1, 45, 0
4, 14208, Note_on_c, 1, 35, 106
4, 14299, Note_off_c, 1, 35, 0
4, 14304, Note_on_c, 1, 54, 106
4, 14304, Note_on_c, 1, 47, 106
4, 14349, Note_off_c, 1, 54, 0
4, 14349, Note_off_c, 1, 47, 0
4, 14400, Note_on_c, 1, 35, 106
4, 14486, Note_off_c, 1, 35, 64
4, 14496, Note_on_c, 1, 54, 106
4, 14496, Note_on_c, 1, 47, 106
4, 14541, Note_off_c, 1, 54, 0
4, 14541, Note_off_c, 1, 47, 0
4, 14592, Note_on_c, 1, 40, 106
4, 14683, Note_off_c, 1, 40, 0
4, 14688, Note_on_c, 1, 59, 106
4, 14688, Note_on_c, 1, 52, 106
4, 14733, Note_off_c, 1, 59, 0
4, 14733, Note_off_c, 1, 52, 0
4, 14784, Note_on_c, 1, 35, 106
4, 14875, Note_off_c, 1, 35, 0
4, 14880, Note_on_c, 1, 54, 106
4, 14880, Note_on_c, 1, 47, 106
4, 14925, Note_off_c, 1, 54, 0
4, 14925, Note_off_c, 1, 47, 0
4, 14976, Note_on_c, 1, 37, 106
4, 15067, Note_off_c, 1, 37, 0
4, 15072, Note_on_c, 1, 56, 106
4, 15072, Note_on_c, 1, 49, 106
4, 15117, Note_off_c, 1, 56, 0
4, 15117, Note_off_c, 1, 49, 0
4, 15168, Note_on_c, 1, 37, 106
4, 15254, Note_off_c, 1, 37, 64
4, 15264, Note_on_c, 1, 49, 106
4, 15264, Note_on_c, 1, 56, 106
4, 15309, Note_off_c, 1, 49, 0
4, 15309, Note_off_c, 1, 56, 0
4, 15360, Note_on_c, 1, 33, 106
4, 15451, Note_off_c, 1, 33, 0
4, 15456, Note_on_c, 1, 52, 106
4, 15456, Note_on_c, 1, 45, 106
4, 15501, Note_off_c, 1, 52, 0
4, 15501, Note_off_c, 1, 45, 0
4, 15552, Note_on_c, 1, 33, 106
4, 15638, Note_off_c, 1, 33, 64
4, 15648, Note_on_c, 1, 45, 106
4, 15648, Note_on_c, 1, 52, 106
4, 15693, Note_off_c, 1, 45, 0
4, 15693, Note_off_c, 1, 52, 0
4, 15744, Note_on_c, 1, 35, 106
4, 15835, Note_off_c, 1, 35, 0
4, 15840, Note_on_c, 1, 54, 106
4, 15840, Note_on_c, 1, 47, 106
4, 15885, Note_off_c, 1, 54, 0
4, 15885, Note_off_c, 1, 47, 0
4, 15936, Note_on_c, 1, 35, 106
4, 16022, Note_off_c, 1, 35, 64
4, 16032, Note_on_c, 1, 47, 106
4, 16032, Note_on_c, 1, 54, 106
4, 16077, Note_off_c, 1, 47, 0
4, 16077, Note_off_c, 1, 54, 0
4, 16128, Note_on_c, 1, 40, 106
4, 16173, Note_off_c, 1, 40, 0
4, 16176, Note_on_c, 1, 59, 106
4, 16176, Note_on_c, 1, 52, 106
4, 16267, Note_off_c, 1, 59, 0
4, 16267, Note_off_c, 1, 52, 0
4, 16272, Note_on_c, 1, 40, 106
4, 16317, Note_off_c, 1, 40, 0
4, 16320, Note_on_c, 1, 44, 106
4, 16320, Note_on_c, 1, 56, 106
4, 16411, Note_off_c, 1, 44, 0
4, 16411, Note_off_c, 1, 56, 0
4, 16416, Note_on_c, 1, 32, 106
4, 16416, Note_on_c, 1, 44, 106
4, 16507, Note_off_c, 1, 32, 0
4, 16507, Note_off_c, 1, 44, 0
4, 16512, Note_on_c, 1, 37, 106
4, 16603, Note_off_c, 1, 37, 0
4, 16608, Note_on_c, 1, 49, 106
4, 16608, Note_on_c, 1, 56, 106
4, 16653, Note_off_c, 1, 49, 0
4, 16653, Note_off_c, 1, 56, 0
4, 16704, Note_on_c, 1, 37, 106
4, 16795, Note_off_c, 1, 37, 0
4, 16800, Note_on_c, 1, 49, 106
4, 16800, Note_on_c, 1, 56, 106
4, 16845, Note_off_c, 1, 49, 0
4, 16845, Note_off_c, 1, 56, 0
4, 16896, Note_on_c, 1, 33, 106
4, 16987, Note_off_c, 1, 33, 0
4, 16992, Note_on_c, 1, 45, 106
4, 16992, Note_on_c, 1, 52, 106
4, 17037, Note_off_c, 1, 45, 0
4, 17037, Note_off_c, 1, 52, 0
4, 17088, Note_on_c, 1, 33, 106
4, 17179, Note_off_c, 1, 33, 0
4, 17184, Note_on_c, 1, 52, 106
4, 17184, Note_on_c, 1, 45, 106
4, 17229, Note_off_c, 1, 52, 0
4, 17229, Note_off_c, 1, 45, 0
4, 17280, Note_on_c, 1, 35, 106
4, 17371, Note_off_c, 1, 35, 0
4, 17376, Note_on_c, 1, 47, 106
4, 17376, Note_on_c, 1, 54, 106
4, 17421, Note_off_c, 1, 47, 0
4, 17421, Note_off_c, 1, 54, 0
4, 17472, Note_on_c, 1, 35, 106
4, 17563, Note_off_c, 1, 35, 0
4, 17568, Note_on_c, 1, 54, 106
4, 17568, Note_on_c, 1, 47, 106
4, 17613, Note_off_c, 1, 54, 0
4, 17613, Note_off_c, 1, 47, 0
4, 17664, Note_on_c, 1, 40, 106
4, 17755, Note_off_c, 1, 40, 0
4, 17760, Note_on_c, 1, 52, 106
4, 17760, Note_on_c, 1, 59, 106
4, 17805, Note_off_c, 1, 52, 0
4, 17805, Note_off_c, 1, 59, 0
4, 17856, Note_on_c, 1, 35, 106
4, 17947, Note_off_c, 1, 35, 0
4, 17952, Note_on_c, 1, 54, 106
4, 17952, Note_on_c, 1, 47, 106
4, 17997, Note_off_c, 1, 54, 0
4, 17997, Note_off_c, 1, 47, 0
4, 18048, Note_on_c, 1, 37, 106
4, 18139, Note_off_c, 1, 37, 0
4, 18144, Note_on_c, 1, 49, 106
4, 18144, Note_on_c, 1, 56, 106
4, 18189, Note_off_c, 1, 49, 0
4, 18189, Note_off_c, 1, 56, 0
4, 18240, Note_on_c, 1, 37, 106
4, 18331, Note_off_c, 1, 37, 0
4, 18336, Note_on_c, 1, 56, 106
4, 18336, Note_on_c, 1, 49, 106
4, 18381, Note_off_c, 1, 56, 0
4, 18381, Note_off_c, 1, 49, 0
4, 18432, Note_on_c, 1, 33, 106
4, 18523, Note_off_c, 1, 33, 0
4, 18528, Note_on_c, 1, 52, 106
4, 18528, Note_on_c, 1, 45, 106
4, 18573, Note_off_c, 1, 52, 0
4, 18573, Note_off_c, 1, 45, 0
4, 18624, Note_on_c, 1, 33, 106
4, 18715, Note_off_c, 1, 33, 0
4, 18720, Note_on_c, 1, 52, 106
4, 18720, Note_on_c, 1, 45, 106
4, 18765, Note_off_c, 1, 45, 0
4, 18765, Note_off_c, 1, 52, 0
4, 18816, Note_on_c, 1, 47, 106
4, 18816, Note_on_c, 1, 35, 106
4, 18861, Note_off_c, 1, 47, 0
4, 18861, Note_off_c, 1, 35, 0
4, 18864, Note_on_c, 1, 47, 106
4, 18864, Note_on_c, 1, 35, 106
4, 19149, Note_off_c, 1, 35, 0
4, 19149, Note_off_c, 1, 47, 0
4, 19200, Note_on_c, 1, 37, 101
4, 19243, Note_off_c, 1, 37, 0
4, 19248, Note_on_c, 1, 49, 96
4, 19248, Note_on_c, 1, 56, 98
4, 19293, Note_off_c, 1, 56, 0
4, 19293, Note_off_c, 1, 49, 0
4, 19296, Note_on_c, 1, 37, 101
4, 19339, Note_off_c, 1, 37, 0
4, 19344, Note_on_c, 1, 49, 96
4, 19344, Note_on_c, 1, 56, 98
4, 19389, Note_off_c, 1, 49, 0
4, 19389, Note_off_c, 1, 56, 0
4, 19392, Note_on_c, 1, 37, 101
4, 19437, Note_off_c, 1, 37, 0
4, 19440, Note_on_c, 1, 49, 96
4, 19440, Note_on_c, 1, 56, 98
4, 19485, Note_off_c, 1, 49, 0
4, 19485, Note_off_c, 1, 56, 0
4, 19488, Note_on_c, 1, 37, 101
4, 19533, Note_off_c, 1, 37, 0
4, 19536, Note_on_c, 1, 49, 96
4, 19536, Note_on_c, 1, 56, 98
4, 19581, Note_off_c, 1, 49, 0
4, 19581, Note_off_c, 1, 56, 0
4, 19584, Note_on_c, 1, 37, 101
4, 19629, Note_off_c, 1, 37, 0
4, 19632, Note_on_c, 1, 49, 96
4, 19632, Note_on_c, 1, 56, 98
4, 19677, Note_off_c, 1, 49, 0
4, 19677, Note_off_c, 1, 56, 0
4, 19680, Note_on_c, 1, 37, 101
4, 19725, Note_off_c, 1, 37, 0
4, 19728, Note_on_c, 1, 49, 96
4, 19728, Note_on_c, 1, 56, 98
4, 19773, Note_off_c, 1, 49, 0
4, 19773, Note_off_c, 1, 56, 0
4, 19776, Note_on_c, 1, 37, 101
4, 19821, Note_off_c, 1, 37, 0
4, 19824, Note_on_c, 1, 49, 96
4, 19824, Note_on_c, 1, 56, 98
4, 19869, Note_off_c, 1, 49, 0
4, 19869, Note_off_c, 1, 56, 0
4, 19872, Note_on_c, 1, 37, 101
4, 19917, Note_off_c, 1, 37, 0
4, 19920, Note_on_c, 1, 54, 98
4, 19920, Note_on_c, 1, 47, 96
4, 19965, Note_off_c, 1, 47, 0
4, 19965, Note_off_c, 1, 54, 0
4, 19968, Note_on_c, 1, 33, 101
4, 20011, Note_off_c, 1, 33, 0
4, 20016, Note_on_c, 1, 45, 96
4, 20016, Note_on_c, 1, 52, 98
4, 20061, Note_off_c, 1, 52, 0
4, 20061, Note_off_c, 1, 45, 0
4, 20064, Note_on_c, 1, 33, 101
4, 20107, Note_off_c, 1, 33, 0
4, 20112, Note_on_c, 1, 52, 98
4, 20112, Note_on_c, 1, 45, 96
4, 20157, Note_off_c, 1, 52, 0
4, 20157, Note_off_c, 1, 45, 0
4, 20160, Note_on_c, 1, 33, 101
4, 20205, Note_off_c, 1, 33, 0
4, 20208, Note_on_c, 1, 52, 98
4, 20208, Note_on_c, 1, 45, 96
4, 20253, Note_off_c, 1, 52, 0
4, 20253, Note_off_c, 1, 45, 0
4, 20256, Note_on_c, 1, 33, 101
4, 20301, Note_off_c, 1, 33, 0
4, 20304, Note_on_c, 1, 52, 98
4, 20304, Note_on_c, 1, 45, 96
4, 20349, Note_off_c, 1, 52, 0
4, 20349, Note_off_c, 1, 45, 0
4, 20352, Note_on_c, 1, 33, 101
4, 20397, Note_off_c, 1, 33, 0
4, 20400, Note_on_c, 1, 52, 98
4, 20400, Note_on_c, 1, 45, 96
4, 20445, Note_off_c, 1, 52, 0
4, 20445, Note_off_c, 1, 45, 0
4, 20448, Note_on_c, 1, 33, 101
4, 20493, Note_off_c, 1, 33, 0
4, 20496, Note_on_c, 1, 52, 98
4, 20496, Note_on_c, 1, 45, 96
4, 20541, Note_off_c, 1, 52, 0
4, 20541, Note_off_c, 1, 45, 0
4, 20544, Note_on_c, 1, 33, 101
4, 20589, Note_off_c, 1, 33, 0
4, 20592, Note_on_c, 1, 45, 96
4, 20592, Note_on_c, 1, 52, 98
4, 20637, Note_off_c, 1, 45, 0
4, 20637, Note_off_c, 1, 52, 0
4, 20640, Note_on_c, 1, 33, 101
4, 20685, Note_off_c, 1, 33, 0
4, 20688, Note_on_c, 1, 54, 98
4, 20688, Note_on_c, 1, 47, 96
4, 20733, Note_off_c, 1, 47, 0
4, 20733, Note_off_c, 1, 54, 0
4, 20736, Note_on_c, 1, 40, 101
4, 20779, Note_off_c, 1, 40, 0
4, 20784, Note_on_c, 1, 52, 96
4, 20784, Note_on_c, 1, 59, 98
4, 20829, Note_off_c, 1, 59, 0
4, 20829, Note_off_c, 1, 52, 0
4, 20832, Note_on_c, 1, 40, 101
4, 20875, Note_off_c, 1, 40, 0
4, 20880, Note_on_c, 1, 52, 96
4, 20880, Note_on_c, 1, 59, 98
4, 20925, Note_off_c, 1, 52, 0
4, 20925, Note_off_c, 1, 59, 0
4, 20928, Note_on_c, 1, 40, 101
4, 20973, Note_off_c, 1, 40, 0
4, 20976, Note_on_c, 1, 52, 96
4, 20976, Note_on_c, 1, 59, 98
4, 21021, Note_off_c, 1, 52, 0
4, 21021, Note_off_c, 1, 59, 0
4, 21024, Note_on_c, 1, 40, 101
4, 21069, Note_off_c, 1, 40, 0
4, 21072, Note_on_c, 1, 52, 96
4, 21072, Note_on_c, 1, 59, 98
4, 21117, Note_off_c, 1, 52, 0
4, 21117, Note_off_c, 1, 59, 0
4, 21120, Note_on_c, 1, 40, 101
4, 21165, Note_off_c, 1, 40, 0
4, 21168, Note_on_c, 1, 52, 96
4, 21168, Note_on_c, 1, 59, 98
4, 21213, Note_off_c, 1, 52, 0
4, 21213, Note_off_c, 1, 59, 0
4, 21216, Note_on_c, 1, 40, 101
4, 21261, Note_off_c, 1, 40, 0
4, 21264, Note_on_c, 1, 52, 96
4, 21264, Note_on_c, 1, 59, 98
4, 21309, Note_off_c, 1, 52, 0
4, 21309, Note_off_c, 1, 59, 0
4, 21312, Note_on_c, 1, 40, 101
4, 21357, Note_off_c, 1, 40, 0
4, 21360, Note_on_c, 1, 52, 96
4, 21360, Note_on_c, 1, 59, 98
4, 21405, Note_off_c, 1, 52, 0
4, 21405, Note_off_c, 1, 59, 0
4, 21408, Note_on_c, 1, 40, 101
4, 21453, Note_off_c, 1, 40, 0
4, 21456, Note_on_c, 1, 57, 98
4, 21456, Note_on_c, 1, 50, 96
4, 21501, Note_off_c, 1, 50, 0
4, 21501, Note_off_c, 1, 57, 0
4, 21504, Note_on_c, 1, 36, 101
4, 21547, Note_off_c, 1, 36, 0
4, 21552, Note_on_c, 1, 48, 96
4, 21552, Note_on_c, 1, 55, 98
4, 21597, Note_off_c, 1, 55, 0
4, 21597, Note_off_c, 1, 48, 0
4, 21600, Note_on_c, 1, 36, 101
4, 21643, Note_off_c, 1, 36, 0
4, 21648, Note_on_c, 1, 48, 96
4, 21648, Note_on_c, 1, 55, 98
4, 21693, Note_off_c, 1, 48, 0
4, 21693, Note_off_c, 1, 55, 0
4, 21696, Note_on_c, 1, 36, 101
4, 21741, Note_off_c, 1, 36, 0
4, 21744, Note_on_c, 1, 48, 96
4, 21744, Note_on_c, 1, 55, 98
4, 21789, Note_off_c, 1, 48, 0
4, 21789, Note_off_c, 1, 55, 0
4, 21792, Note_on_c, 1, 36, 101
4, 21837, Note_off_c, 1, 36, 0
4, 21840, Note_on_c, 1, 48, 96
4, 21840, Note_on_c, 1, 55, 98
4, 21885, Note_off_c, 1, 48, 0
4, 21885, Note_off_c, 1, 55, 0
4, 21888, Note_on_c, 1, 36, 101
4, 21933, Note_off_c, 1, 36, 0
4, 21936, Note_on_c, 1, 48, 96
4, 21936, Note_on_c, 1, 55, 98
4, 21981, Note_off_c, 1, 48, 0
4, 21981, Note_off_c, 1, 55, 0
4, 21984, Note_on_c, 1, 36, 101
4, 22029, Note_off_c, 1, 36, 0
4, 22032, Note_on_c, 1, 48, 96
4, 22032, Note_on_c, 1, 55, 98
4, 22077, Note_off_c, 1, 48, 0
4, 22077, Note_off_c, 1, 55, 0
4, 22080, Note_on_c, 1, 36, 101
4, 22125, Note_off_c, 1, 36, 0
4, 22128, Note_on_c, 1, 48, 96
4, 22128, Note_on_c, 1, 55, 98
4, 22173, Note_off_c, 1, 48, 0
4, 22173, Note_off_c, 1, 55, 0
4, 22176, Note_on_c, 1, 36, 101
4, 22221, Note_off_c, 1, 36, 0
4, 22224, Note_on_c, 1, 57, 98
4, 22224, Note_on_c, 1, 50, 96
4, 22269, Note_off_c, 1, 50, 0
4, 22269, Note_off_c, 1, 57, 0
4, 22272, Note_on_c, 1, 40, 101
4, 22317, Note_off_c, 1, 40, 0
4, 22320, Note_on_c, 1, 47, 96
4, 22320, Note_on_c, 1, 52, 98
4, 22365, Note_off_c, 1, 52, 0
4, 22365, Note_off_c, 1, 47, 0
4, 22368, Note_on_c, 1, 40, 101
4, 22413, Note_off_c, 1, 40, 0
4, 22416, Note_on_c, 1, 47, 96
4, 22416, Note_on_c, 1, 52, 98
4, 22461, Note_off_c, 1, 47, 0
4, 22461, Note_off_c, 1, 52, 0
4, 22464, Note_on_c, 1, 40, 101
4, 22509, Note_off_c, 1, 40, 0
4, 22512, Note_on_c, 1, 47, 96
4, 22512, Note_on_c, 1, 52, 98
4, 22557, Note_off_c, 1, 47, 0
4, 22557, Note_off_c, 1, 52, 0
4, 22560, Note_on_c, 1, 40, 101
4, 22605, Note_off_c, 1, 40, 0
4, 22608, Note_on_c, 1, 47, 96
4, 22608, Note_on_c, 1, 52, 98
4, 22653, Note_off_c, 1, 47, 0
4, 22653, Note_off_c, 1, 52, 0
4, 22656, Note_on_c, 1, 40, 101
4, 22701, Note_off_c, 1, 40, 0
4, 22704, Note_on_c, 1, 47, 96
4, 22704, Note_on_c, 1, 52, 98
4, 22749, Note_off_c, 1, 47, 0
4, 22749, Note_off_c, 1, 52, 0
4, 22752, Note_on_c, 1, 40, 101
4, 22797, Note_off_c, 1, 40, 0
4, 22800, Note_on_c, 1, 47, 96
4, 22800, Note_on_c, 1, 52, 98
4, 22845, Note_off_c, 1, 47, 0
4, 22845, Note_off_c, 1, 52, 0
4, 22848, Note_on_c, 1, 40, 101
4, 22893, Note_off_c, 1, 40, 0
4, 22896, Note_on_c, 1, 52, 98
4, 22896, Note_on_c, 1, 47, 96
4, 22941, Note_off_c, 1, 52, 0
4, 22941, Note_off_c, 1, 47, 0
4, 22944, Note_on_c, 1, 38, 101
4, 22989, Note_off_c, 1, 38, 0
4, 22992, Note_on_c, 1, 45, 96
4, 22992, Note_on_c, 1, 50, 98
4, 23037, Note_off_c, 1, 50, 0
4, 23037, Note_off_c, 1, 45, 0
4, 23040, Note_on_c, 1, 36, 101
4, 23085, Note_off_c, 1, 36, 0
4, 23088, Note_on_c, 1, 43, 96
4, 23088, Note_on_c, 1, 48, 98
4, 23133, Note_off_c, 1, 48, 0
4, 23133, Note_off_c, 1, 43, 0
4, 23136, Note_on_c, 1, 36, 101
4, 23181, Note_off_c, 1, 36, 0
4, 23184, Note_on_c, 1, 43, 96
4, 23184, Note_on_c, 1, 48, 98
4, 23229, Note_off_c, 1, 43, 0
4, 23229, Note_off_c, 1, 48, 0
4, 23232, Note_on_c, 1, 36, 101
4, 23277, Note_off_c, 1, 36, 0
4, 23280, Note_on_c, 1, 43, 96
4, 23280, Note_on_c, 1, 48, 98
4, 23325, Note_off_c, 1, 43, 0
4, 23325, Note_off_c, 1, 48, 0
4, 23328, Note_on_c, 1, 36, 101
4, 23373, Note_off_c, 1, 36, 0
4, 23376, Note_on_c, 1, 43, 96
4, 23376, Note_on_c, 1, 48, 98
4, 23421, Note_off_c, 1, 43, 0
4, 23421, Note_off_c, 1, 48, 0
4, 23424, Note_on_c, 1, 36, 101
4, 23469, Note_off_c, 1, 36, 0
4, 23472, Note_on_c, 1, 43, 96
4, 23472, Note_on_c, 1, 48, 98
4, 23517, Note_off_c, 1, 43, 0
4, 23517, Note_off_c, 1, 48, 0
4, 23520, Note_on_c, 1, 36, 101
4, 23565, Note_off_c, 1, 36, 0
4, 23568, Note_on_c, 1, 43, 96
4, 23568, Note_on_c, 1, 48, 98
4, 23613, Note_off_c, 1, 43, 0
4, 23613, Note_off_c, 1, 48, 0
4, 23616, Note_on_c, 1, 36, 101
4, 23661, Note_off_c, 1, 36, 0
4, 23664, Note_on_c, 1, 43, 96
4, 23664, Note_on_c, 1, 48, 98
4, 23709, Note_off_c, 1, 43, 0
4, 23709, Note_off_c, 1, 48, 0
4, 23712, Note_on_c, 1, 38, 101
4, 23757, Note_off_c, 1, 38, 0
4, 23760, Note_on_c, 1, 45, 96
4, 23760, Note_on_c, 1, 50, 98
4, 23805, Note_off_c, 1, 50, 0
4, 23805, Note_off_c, 1, 45, 0
4, 23808, Note_on_c, 1, 43, 101
4, 23853, Note_off_c, 1, 43, 0
4, 23856, Note_on_c, 1, 50, 96
4, 23856, Note_on_c, 1, 55, 98
4, 23901, Note_off_c, 1, 55, 0
4, 23901, Note_off_c, 1, 50, 0
4, 23904, Note_on_c, 1, 43, 101
4, 23949, Note_off_c, 1, 43, 0
4, 23952, Note_on_c, 1, 50, 96
4, 23952, Note_on_c, 1, 55, 98
4, 23997, Note_off_c, 1, 50, 0
4, 23997, Note_off_c, 1, 55, 0
4, 24000, Note_on_c, 1, 43, 101
4, 24045, Note_off_c, 1, 43, 0
4, 24048, Note_on_c, 1, 50, 96
4, 24048, Note_on_c, 1, 55, 98
4, 24093, Note_off_c, 1, 50, 0
4, 24093, Note_off_c, 1, 55, 0
4, 24096, Note_on_c, 1, 43, 101
4, 24141, Note_off_c, 1, 43, 0
4, 24144, Note_on_c, 1, 50, 96
4, 24144, Note_on_c, 1, 55, 98
4, 24189, Note_off_c, 1, 50, 0
4, 24189, Note_off_c, 1, 55, 0
4, 24192, Note_on_c, 1, 43, 101
4, 24237, Note_off_c, 1, 43, 0
4, 24240, Note_on_c, 1, 50, 96
4, 24240, Note_on_c, 1, 55, 98
4, 24285, Note_off_c, 1, 50, 0
4, 24285, Note_off_c, 1, 55, 0
4, 24288, Note_on_c, 1, 43, 101
4, 24333, Note_off_c, 1, 43, 0
4, 24336, Note_on_c, 1, 50, 96
4, 24336, Note_on_c, 1, 55, 98
4, 24381, Note_off_c, 1, 50, 0
4, 24381, Note_off_c, 1, 55, 0
4, 24384, Note_on_c, 1, 43, 101
4, 24429, Note_off_c, 1, 43, 0
4, 24432, Note_on_c, 1, 50, 96
4, 24432, Note_on_c, 1, 55, 98
4, 24477, Note_off_c, 1, 50, 0
4, 24477, Note_off_c, 1, 55, 0
4, 24480, Note_on_c, 1, 41, 101
4, 24525, Note_off_c, 1, 41, 0
4, 24528, Note_on_c, 1, 48, 96
4, 24528, Note_on_c, 1, 53, 98
4, 24573, Note_off_c, 1, 53, 0
4, 24573, Note_off_c, 1, 48, 0
4, 24576, Note_on_c, 1, 51, 101
4, 24576, Note_on_c, 1, 39, 101
4, 24712, Note_off_c, 1, 51, 0
4, 24712, Note_off_c, 1, 39, 0
4, 24720, Note_on_c, 1, 51, 102
4, 24720, Note_on_c, 1, 39, 102
4, 24765, Note_off_c, 1, 51, 0
4, 24765, Note_off_c, 1, 39, 0
4, 24864, Note_on_c, 1, 53, 103
4, 24864, Note_on_c, 1, 41, 103
4, 24955, Note_off_c, 1, 53, 0
4, 24955, Note_off_c, 1, 41, 0
4, 25152, Note_on_c, 1, 43, 105
4, 25152, Note_on_c, 1, 31, 105
4, 25881, Note_off_c, 1, 43, 0
4, 25881, Note_off_c, 1, 31, 0
4, 26496, Note_on_c, 1, 43, 99
4, 26520, Note_off_c, 1, 43, 64
4, 26520, Note_on_c, 1, 48, 99
4, 26544, Note_off_c, 1, 48, 64
4, 26544, Note_on_c, 1, 50, 99
4, 26568, Note_off_c, 1, 50, 64
4, 26568, Note_on_c, 1, 48, 99
4, 26568, Note_on_c, 1, 36, 99
4, 26688, Note_off_c, 1, 36, 64
4, 26688, Note_off_c, 1, 48, 64
4, 26712, Note_on_c, 1, 35, 99
4, 26712, Note_on_c, 1, 47, 99
4, 26832, Note_off_c, 1, 35, 64
4, 26832, Note_off_c, 1, 47, 64
4, 26856, Note_on_c, 1, 45, 99
4, 26856, Note_on_c, 1, 33, 99
4, 26976, Note_off_c, 1, 45, 64
4, 26976, Note_off_c, 1, 33, 64
4, 27000, Note_on_c, 1, 31, 99
4, 27000, Note_on_c, 1, 43, 99
4, 27048, Note_off_c, 1, 31, 64
4, 27048, Note_off_c, 1, 43, 64
4, 27072, Note_on_c, 1, 43, 99
4, 27072, Note_on_c, 1, 31, 99
4, 27096, Note_off_c, 1, 43, 64
4, 27096, Note_off_c, 1, 31, 64
4, 27096, Note_on_c, 1, 31, 99
4, 27096, Note_on_c, 1, 43, 99
4, 27120, Note_off_c, 1, 43, 64
4, 27120, Note_off_c, 1, 31, 64
4, 27120, Note_on_c, 1, 43, 99
4, 27120, Note_on_c, 1, 31, 99
4, 27144, Note_off_c, 1, 43, 64
4, 27144, Note_off_c, 1, 31, 64
4, 27144, Note_on_c, 1, 29, 99
4, 27144, Note_on_c, 1, 41, 99
4, 27264, Note_off_c, 1, 41, 64
4, 27264, Note_off_c, 1, 29, 64
4, 27288, Note_on_c, 1, 42, 99
4, 27288, Note_on_c, 1, 30, 99
4, 27408, Note_off_c, 1, 42, 64
4, 27408, Note_off_c, 1, 30, 64
4, 27432, Note_on_c, 1, 43, 99
4, 27432, Note_on_c, 1, 31, 99
4, 27552, Note_off_c, 1, 43, 64
4, 27552, Note_off_c, 1, 31, 64
4, 27576, Note_on_c, 1, 43, 99
4, 27576, Note_on_c, 1, 31, 99
4, 27624, Note_off_c, 1, 43, 64
4, 27624, Note_off_c, 1, 31, 64
4, 27648, Note_on_c, 1, 31, 99
4, 27648, Note_on_c, 1, 43, 99
4, 27672, Note_off_c, 1, 31, 64
4, 27672, Note_off_c, 1, 43, 64
4, 27672, Note_on_c, 1, 31, 99
4, 27672, Note_on_c, 1, 43, 99
4, 27696, Note_off_c, 1, 31, 64
4, 27696, Note_off_c, 1, 43, 64
4, 27696, Note_on_c, 1, 31, 99
4, 27696, Note_on_c, 1, 43, 99
4, 27720, Note_off_c, 1, 31, 64
4, 27720, Note_off_c, 1, 43, 64
4, 27720, Note_on_c, 1, 36, 99
4, 27720, Note_on_c, 1, 48, 99
4, 27768, Note_off_c, 1, 36, 64
4, 27768, Note_off_c, 1, 48, 64
4, 27792, Note_on_c, 1, 48, 99
4, 27792, Note_on_c, 1, 36, 99
4, 27840, Note_off_c, 1, 48, 64
4, 27840, Note_off_c, 1, 36, 64
4, 27864, Note_on_c, 1, 47, 99
4, 27864, Note_on_c, 1, 35, 99
4, 27912, Note_off_c, 1, 47, 64
4, 27912, Note_off_c, 1, 35, 64
4, 27936, Note_on_c, 1, 47, 99
4, 27936, Note_on_c, 1, 35, 99
4, 27984, Note_off_c, 1, 47, 64
4, 27984, Note_off_c, 1, 35, 64
4, 28008, Note_on_c, 1, 46, 99
4, 28008, Note_on_c, 1, 34, 99
4, 28056, Note_off_c, 1, 46, 64
4, 28056, Note_off_c, 1, 34, 64
4, 28080, Note_on_c, 1, 34, 99
4, 28080, Note_on_c, 1, 46, 99
4, 28128, Note_off_c, 1, 46, 64
4, 28128, Note_off_c, 1, 34, 64
4, 28152, Note_on_c, 1, 44, 99
4, 28152, Note_on_c, 1, 32, 99
4, 28200, Note_off_c, 1, 44, 64
4, 28200, Note_off_c, 1, 32, 64
4, 28224, Note_on_c, 1, 32, 99
4, 28224, Note_on_c, 1, 44, 99
4, 28272, Note_off_c, 1, 32, 64
4, 28272, Note_off_c, 1, 44, 64
4, 28296, Note_on_c, 1, 41, 99
4, 28296, Note_on_c, 1, 29, 99
4, 28350, Note_off_c, 1, 41, 64
4, 28350, Note_off_c, 1, 29, 64
4, 28374, Note_on_c, 1, 29, 99
4, 28374, Note_on_c, 1, 41, 99
4, 28427, Note_off_c, 1, 29, 64
4, 28427, Note_off_c, 1, 41, 64
4, 28451, Note_on_c, 1, 31, 99
4, 28451, Note_on_c, 1, 43, 99
4, 28505, Note_off_c, 1, 31, 64
4, 28505, Note_off_c, 1, 43, 64
4, 28529, Note_on_c, 1, 31, 100
4, 28529, Note_on_c, 1, 43, 100
4, 28584, Note_off_c, 1, 31, 64
4, 28584, Note_off_c, 1, 43, 64
4, 28608, Note_on_c, 1, 45, 93
4, 28632, Note_off_c, 1, 45, 64
4, 28656, Note_on_c, 1, 52, 93
4, 28656, Note_on_c, 1, 57, 93
4, 28680, Note_off_c, 1, 52, 64
4, 28680, Note_off_c, 1, 57, 64
4, 28704, Note_on_c, 1, 45, 93
4, 28728, Note_off_c, 1, 45, 64
4, 28752, Note_on_c, 1, 52, 93
4, 28752, Note_on_c, 1, 57, 93
4, 28776, Note_off_c, 1, 52, 64
4, 28776, Note_off_c, 1, 57, 64
4, 28800, Note_on_c, 1, 45, 93
4, 28824, Note_off_c, 1, 45, 64
4, 28848, Note_on_c, 1, 52, 93
4, 28848, Note_on_c, 1, 57, 93
4, 28872, Note_off_c, 1, 52, 64
4, 28872, Note_off_c, 1, 57, 64
4, 28896, Note_on_c, 1, 45, 93
4, 28920, Note_off_c, 1, 45, 64
4, 28944, Note_on_c, 1, 52, 93
4, 28944, Note_on_c, 1, 57, 93
4, 28968, Note_off_c, 1, 52, 64
4, 28968, Note_off_c, 1, 57, 64
4, 28992, Note_on_c, 1, 45, 93
4, 29016, Note_off_c, 1, 45, 64
4, 29040, Note_on_c, 1, 52, 93
4, 29040, Note_on_c, 1, 57, 93
4, 29064, Note_off_c, 1, 52, 64
4, 29064, Note_off_c, 1, 57, 64
4, 29088, Note_on_c, 1, 45, 93
4, 29112, Note_off_c, 1, 45, 64
4, 29136, Note_on_c, 1, 52, 93
4, 29136, Note_on_c, 1, 57, 93
4, 29160, Note_off_c, 1, 52, 64
4, 29160, Note_off_c, 1, 57, 64
4, 29184, Note_on_c, 1, 45, 93
4, 29208, Note_off_c, 1, 45, 64
4, 29232, Note_on_c, 1, 52, 93
4, 29232, Note_on_c, 1, 57, 93
4, 29256, Note_off_c, 1, 52, 64
4, 29256, Note_off_c, 1, 57, 64
4, 29280, Note_on_c, 1, 45, 93
4, 29304, Note_off_c, 1, 45, 64
4, 29328, Note_on_c, 1, 52, 93
4, 29328, Note_on_c, 1, 57, 93
4, 29352, Note_off_c, 1, 52, 64
4, 29352, Note_off_c, 1, 57, 64
4, 29376, Note_on_c, 1, 45, 93
4, 29400, Note_off_c, 1, 45, 64
4, 29424, Note_on_c, 1, 52, 93
4, 29424, Note_on_c, 1, 57, 93
4, 29448, Note_off_c, 1, 52, 64
4, 29448, Note_off_c, 1, 57, 64
4, 29472, Note_on_c, 1, 45, 93
4, 29496, Note_off_c, 1, 45, 64
4, 29520, Note_on_c, 1, 52, 93
4, 29520, Note_on_c, 1, 57, 93
4, 29544, Note_off_c, 1, 52, 64
4, 29544, Note_off_c, 1, 57, 64
4, 29568, Note_on_c, 1, 45, 93
4, 29592, Note_off_c, 1, 45, 64
4, 29616, Note_on_c, 1, 57, 93
4, 29616, Note_on_c, 1, 52, 93
4, 29640, Note_off_c, 1, 57, 64
4, 29640, Note_off_c, 1, 52, 64
4, 29664, Note_on_c, 1, 45, 93
4, 29688, Note_off_c, 1, 45, 64
4, 29712, Note_on_c, 1, 57, 93
4, 29712, Note_on_c, 1, 52, 93
4, 29736, Note_off_c, 1, 57, 64
4, 29736, Note_off_c, 1, 52, 64
4, 29760, Note_on_c, 1, 41, 93
4, 29784, Note_off_c, 1, 41, 64
4, 29808, Note_on_c, 1, 53, 93
4, 29808, Note_on_c, 1, 48, 93
4, 29832, Note_off_c, 1, 53, 64
4, 29832, Note_off_c, 1, 48, 64
4, 29856, Note_on_c, 1, 41, 93
4, 29880, Note_off_c, 1, 41, 64
4, 29904, Note_on_c, 1, 53, 93
4, 29904, Note_on_c, 1, 48, 93
4, 29928, Note_off_c, 1, 53, 64
4, 29928, Note_off_c, 1, 48, 64
4, 29952, Note_on_c, 1, 43, 93
4, 29976, Note_off_c, 1, 43, 64
4, 30000, Note_on_c, 1, 50, 93
4, 30000, Note_on_c, 1, 55, 93
4, 30024, Note_off_c, 1, 50, 64
4, 30024, Note_off_c, 1, 55, 64
4, 30048, Note_on_c, 1, 43, 93
4, 30072, Note_off_c, 1, 43, 64
4, 30096, Note_on_c, 1, 55, 93
4, 30096, Note_on_c, 1, 50, 93
4, 30120, Note_off_c, 1, 55, 64
4, 30120, Note_off_c, 1, 50, 64
4, 30144, Note_on_c, 1, 45, 93
4, 30168, Note_off_c, 1, 45, 64
4, 30192, Note_on_c, 1, 57, 93
4, 30192, Note_on_c, 1, 52, 93
4, 30216, Note_off_c, 1, 57, 64
4, 30216, Note_off_c, 1, 52, 64
4, 30240, Note_on_c, 1, 45, 93
4, 30264, Note_off_c, 1, 45, 64
4, 30288, Note_on_c, 1, 57, 93
4, 30288, Note_on_c, 1, 52, 93
4, 30312, Note_off_c, 1, 57, 64
4, 30312, Note_off_c, 1, 52, 64
4, 30336, Note_on_c, 1, 45, 93
4, 30360, Note_off_c, 1, 45, 64
4, 30384, Note_on_c, 1, 57, 93
4, 30384, Note_on_c, 1, 52, 93
4, 30408, Note_off_c, 1, 57, 64
4, 30408, Note_off_c, 1, 52, 64
4, 30432, Note_on_c, 1, 45, 93
4, 30456, Note_off_c, 1, 45, 64
4, 30480, Note_on_c, 1, 57, 93
4, 30480, Note_on_c, 1, 52, 93
4, 30504, Note_off_c, 1, 57, 64
4, 30504, Note_off_c, 1, 52, 64
4, 30528, Note_on_c, 1, 45, 93
4, 30552, Note_off_c, 1, 45, 64
4, 30576, Note_on_c, 1, 57, 93
4, 30576, Note_on_c, 1, 52, 93
4, 30600, Note_off_c, 1, 57, 64
4, 30600, Note_off_c, 1, 52, 64
4, 30624, Note_on_c, 1, 45, 93
4, 30648, Note_off_c, 1, 45, 64
4, 30672, Note_on_c, 1, 57, 93
4, 30672, Note_on_c, 1, 52, 93
4, 30696, Note_off_c, 1, 57, 64
4, 30696, Note_off_c, 1, 52, 64
4, 30720, Note_on_c, 1, 45, 93
4, 30744, Note_off_c, 1, 45, 64
4, 30768, Note_on_c, 1, 57, 93
4, 30768, Note_on_c, 1, 52, 93
4, 30792, Note_off_c, 1, 57, 64
4, 30792, Note_off_c, 1, 52, 64
4, 30816, Note_on_c, 1, 45, 93
4, 30840, Note_off_c, 1, 45, 64
4, 30864, Note_on_c, 1, 57, 93
4, 30864, Note_on_c, 1, 52, 93
4, 30888, Note_off_c, 1, 57, 64
4, 30888, Note_off_c, 1, 52, 64
4, 30912, Note_on_c, 1, 45, 93
4, 30936, Note_off_c, 1, 45, 64
4, 30960, Note_on_c, 1, 57, 93
4, 30960, Note_on_c, 1, 52, 93
4, 30984, Note_off_c, 1, 57, 64
4, 30984, Note_off_c, 1, 52, 64
4, 31008, Note_on_c, 1, 45, 93
4, 31032, Note_off_c, 1, 45, 64
4, 31056, Note_on_c, 1, 57, 93
4, 31056, Note_on_c, 1, 52, 93
4, 31080, Note_off_c, 1, 57, 64
4, 31080, Note_off_c, 1, 52, 64
4, 31104, Note_on_c, 1, 45, 93
4, 31128, Note_off_c, 1, 45, 64
4, 31152, Note_on_c, 1, 52, 93
4, 31152, Note_on_c, 1, 57, 93
4, 31176, Note_off_c, 1, 52, 64
4, 31176, Note_off_c, 1, 57, 64
4, 31200, Note_on_c, 1, 45, 93
4, 31224, Note_off_c, 1, 45, 64
4, 31248, Note_on_c, 1, 52, 93
4, 31248, Note_on_c, 1, 57, 93
4, 31272, Note_off_c, 1, 52, 64
4, 31272, Note_off_c, 1, 57, 64
4, 31296, Note_on_c, 1, 46, 93
4, 31320, Note_off_c, 1, 46, 64
4, 31344, Note_on_c, 1, 58, 93
4, 31344, Note_on_c, 1, 53, 93
4, 31368, Note_off_c, 1, 58, 64
4, 31368, Note_off_c, 1, 53, 64
4, 31392, Note_on_c, 1, 46, 93
4, 31416, Note_off_c, 1, 46, 64
4, 31440, Note_on_c, 1, 58, 93
4, 31440, Note_on_c, 1, 53, 93
4, 31464, Note_off_c, 1, 58, 64
4, 31464, Note_off_c, 1, 53, 64
4, 31488, Note_on_c, 1, 40, 93
4, 31512, Note_off_c, 1, 40, 64
4, 31536, Note_on_c, 1, 47, 93
4, 31536, Note_on_c, 1, 52, 93
4, 31560, Note_off_c, 1, 47, 64
4, 31560, Note_off_c, 1, 52, 64
4, 31584, Note_on_c, 1, 40, 93
4, 31608, Note_off_c, 1, 40, 64
4, 31632, Note_on_c, 1, 47, 93
4, 31632, Note_on_c, 1, 52, 93
4, 31656, Note_off_c, 1, 47, 64
4, 31656, Note_off_c, 1, 52, 64
4, 31680, Note_on_c, 1, 57, 93
4, 31680, Note_on_c, 1, 45, 93
4, 31728, Note_off_c, 1, 57, 64
4, 31728, Note_off_c, 1, 45, 64
4, 32064, Note_on_c, 1, 42, 93
4, 32088, Note_off_c, 1, 42, 64
4, 32112, Note_on_c, 1, 49, 93
4, 32112, Note_on_c, 1, 54, 93
4, 32136, Note_off_c, 1, 49, 64
4, 32136, Note_off_c, 1, 54, 64
4, 32160, Note_on_c, 1, 42, 93
4, 32184, Note_off_c, 1, 42, 64
4, 32208, Note_on_c, 1, 54, 93
4, 32208, Note_on_c, 1, 49, 93
4, 32232, Note_off_c, 1, 54, 64
4, 32232, Note_off_c, 1, 49, 64
4, 32256, Note_on_c, 1, 42, 93
4, 32280, Note_off_c, 1, 42, 64
4, 32304, Note_on_c, 1, 54, 93
4, 32304, Note_on_c, 1, 49, 93
4, 32328, Note_off_c, 1, 54, 64
4, 32328, Note_off_c, 1, 49, 64
4, 32352, Note_on_c, 1, 42, 93
4, 32376, Note_off_c, 1, 42, 64
4, 32400, Note_on_c, 1, 54, 93
4, 32400, Note_on_c, 1, 49, 93
4, 32424, Note_off_c, 1, 54, 64
4, 32424, Note_off_c, 1, 49, 64
4, 32448, Note_on_c, 1, 42, 93
4, 32472, Note_off_c, 1, 42, 64
4, 32496, Note_on_c, 1, 54, 93
4, 32496, Note_on_c, 1, 49, 93
4, 32520, Note_off_c, 1, 54, 64
4, 32520, Note_off_c, 1, 49, 64
4, 32544, Note_on_c, 1, 42, 93
4, 32568, Note_off_c, 1, 42, 64
4, 32592, Note_on_c, 1, 54, 93
4, 32592, Note_on_c, 1, 49, 93
4, 32616, Note_off_c, 1, 54, 64
4, 32616, Note_off_c, 1, 49, 64
4, 32640, Note_on_c, 1, 42, 93
4, 32664, Note_off_c, 1, 42, 64
4, 32688, Note_on_c, 1, 54, 93
4, 32688, Note_on_c, 1, 49, 93
4, 32712, Note_off_c, 1, 54, 64
4, 32712, Note_off_c, 1, 49, 64
4, 32736, Note_on_c, 1, 42, 93
4, 32760, Note_off_c, 1, 42, 64
4, 32784, Note_on_c, 1, 54, 93
4, 32784, Note_on_c, 1, 49, 93
4, 32808, Note_off_c, 1, 54, 64
4, 32808, Note_off_c, 1, 49, 64
4, 32832, Note_on_c, 1, 43, 93
4, 32856, Note_off_c, 1, 43, 64
4, 32880, Note_on_c, 1, 55, 93
4, 32880, Note_on_c, 1, 50, 93
4, 32904, Note_off_c, 1, 55, 64
4, 32904, Note_off_c, 1, 50, 64
4, 32928, Note_on_c, 1, 43, 93
4, 32952, Note_off_c, 1, 43, 64
4, 32976, Note_on_c, 1, 55, 93
4, 32976, Note_on_c, 1, 50, 93
4, 33000, Note_off_c, 1, 55, 64
4, 33000, Note_off_c, 1, 50, 64
4, 33024, Note_on_c, 1, 43, 93
4, 33048, Note_off_c, 1, 43, 64
4, 33072, Note_on_c, 1, 55, 93
4, 33072, Note_on_c, 1, 50, 93
4, 33096, Note_off_c, 1, 55, 64
4, 33096, Note_off_c, 1, 50, 64
4, 33120, Note_on_c, 1, 43, 93
4, 33144, Note_off_c, 1, 43, 64
4, 33168, Note_on_c, 1, 55, 93
4, 33168, Note_on_c, 1, 50, 93
4, 33192, Note_off_c, 1, 55, 64
4, 33192, Note_off_c, 1, 50, 64
4, 33216, Note_on_c, 1, 43, 93
4, 33240, Note_off_c, 1, 43, 64
4, 33264, Note_on_c, 1, 55, 93
4, 33264, Note_on_c, 1, 50, 93
4, 33288, Note_off_c, 1, 55, 64
4, 33288, Note_off_c, 1, 50, 64
4, 33312, Note_on_c, 1, 43, 93
4, 33336, Note_off_c, 1, 43, 64
4, 33360, Note_on_c, 1, 55, 93
4, 33360, Note_on_c, 1, 50, 93
4, 33384, Note_off_c, 1, 50, 64
4, 33384, Note_off_c, 1, 55, 64
4, 33408, Note_on_c, 1, 43, 93
4, 33432, Note_off_c, 1, 43, 64
4, 33456, Note_on_c, 1, 55, 93
4, 33456, Note_on_c, 1, 50, 93
4, 33480, Note_off_c, 1, 55, 64
4, 33480, Note_off_c, 1, 50, 64
4, 33504, Note_on_c, 1, 43, 93
4, 33528, Note_off_c, 1, 43, 64
4, 33552, Note_on_c, 1, 55, 93
4, 33552, Note_on_c, 1, 50, 93
4, 33576, Note_off_c, 1, 55, 64
4, 33576, Note_off_c, 1, 50, 64
4, 33600, Note_on_c, 1, 42, 93
4, 33624, Note_off_c, 1, 42, 64
4, 33648, Note_on_c, 1, 54, 93
4, 33648, Note_on_c, 1, 49, 93
4, 33672, Note_off_c, 1, 54, 64
4, 33672, Note_off_c, 1, 49, 64
4, 33696, Note_on_c, 1, 42, 93
4, 33720, Note_off_c, 1, 42, 64
4, 33744, Note_on_c, 1, 54, 93
4, 33744, Note_on_c, 1, 49, 93
4, 33768, Note_off_c, 1, 54, 64
4, 33768, Note_off_c, 1, 49, 64
4, 33792, Note_on_c, 1, 42, 93
4, 33816, Note_off_c, 1, 42, 64
4, 33840, Note_on_c, 1, 49, 93
4, 33840, Note_on_c, 1, 54, 93
4, 33864, Note_off_c, 1, 49, 64
4, 33864, Note_off_c, 1, 54, 64
4, 33888, Note_on_c, 1, 42, 93
4, 33912, Note_off_c, 1, 42, 64
4, 33936, Note_on_c, 1, 54, 93
4, 33936, Note_on_c, 1, 49, 93
4, 33960, Note_off_c, 1, 54, 64
4, 33960, Note_off_c, 1, 49, 64
4, 33984, Note_on_c, 1, 42, 93
4, 34008, Note_off_c, 1, 42, 64
4, 34032, Note_on_c, 1, 54, 93
4, 34032, Note_on_c, 1, 49, 93
4, 34056, Note_off_c, 1, 54, 64
4, 34056, Note_off_c, 1, 49, 64
4, 34080, Note_on_c, 1, 42, 93
4, 34104, Note_off_c, 1, 42, 64
4, 34128, Note_on_c, 1, 49, 93
4, 34128, Note_on_c, 1, 54, 93
4, 34152, Note_off_c, 1, 49, 64
4, 34152, Note_off_c, 1, 54, 64
4, 34176, Note_on_c, 1, 42, 93
4, 34200, Note_off_c, 1, 42, 64
4, 34224, Note_on_c, 1, 54, 93
4, 34224, Note_on_c, 1, 49, 93
4, 34248, Note_off_c, 1, 54, 64
4, 34248, Note_off_c, 1, 49, 64
4, 34272, Note_on_c, 1, 42, 93
4, 34296, Note_off_c, 1, 42, 64
4, 34320, Note_on_c, 1, 54, 93
4, 34320, Note_on_c, 1, 49, 93
4, 34344, Note_off_c, 1, 54, 64
4, 34344, Note_off_c, 1, 49, 64
4, 34368, Note_on_c, 1, 40, 93
4, 34392, Note_off_c, 1, 40, 64
4, 34416, Note_on_c, 1, 52, 93
4, 34416, Note_on_c, 1, 47, 93
4, 34440, Note_off_c, 1, 52, 64
4, 34440, Note_off_c, 1, 47, 64
4, 34464, Note_on_c, 1, 40, 93
4, 34488, Note_off_c, 1, 40, 64
4, 34512, Note_on_c, 1, 52, 93
4, 34512, Note_on_c, 1, 47, 93
4, 34536, Note_off_c, 1, 52, 64
4, 34536, Note_off_c, 1, 47, 64
4, 34560, Note_on_c, 1, 40, 93
4, 34584, Note_off_c, 1, 40, 64
4, 34608, Note_on_c, 1, 52, 93
4, 34608, Note_on_c, 1, 47, 93
4, 34632, Note_off_c, 1, 52, 64
4, 34632, Note_off_c, 1, 47, 64
4, 34656, Note_on_c, 1, 40, 93
4, 34680, Note_off_c, 1, 40, 64
4, 34704, Note_on_c, 1, 52, 93
4, 34704, Note_on_c, 1, 47, 93
4, 34728, Note_off_c, 1, 52, 64
4, 34728, Note_off_c, 1, 47, 64
4, 34752, Note_on_c, 1, 40, 93
4, 34776, Note_off_c, 1, 40, 64
4, 34800, Note_on_c, 1, 52, 93
4, 34800, Note_on_c, 1, 47, 93
4, 34824, Note_off_c, 1, 52, 64
4, 34824, Note_off_c, 1, 47, 64
4, 34848, Note_on_c, 1, 40, 93
4, 34872, Note_off_c, 1, 40, 64
4, 34896, Note_on_c, 1, 52, 93
4, 34896, Note_on_c, 1, 47, 93
4, 34920, Note_off_c, 1, 52, 64
4, 34920, Note_off_c, 1, 47, 64
4, 34944, Note_on_c, 1, 40, 93
4, 34968, Note_off_c, 1, 40, 64
4, 34992, Note_on_c, 1, 52, 93
4, 34992, Note_on_c, 1, 47, 93
4, 35016, Note_off_c, 1, 52, 64
4, 35016, Note_off_c, 1, 47, 64
4, 35040, Note_on_c, 1, 40, 93
4, 35064, Note_off_c, 1, 40, 64
4, 35088, Note_on_c, 1, 52, 94
4, 35088, Note_on_c, 1, 47, 94
4, 35112, Note_off_c, 1, 52, 64
4, 35112, Note_off_c, 1, 47, 64
4, 35136, Note_on_c, 1, 49, 98
4, 35136, Note_on_c, 1, 37, 98
4, 35160, Note_off_c, 1, 49, 64
4, 35160, Note_off_c, 1, 37, 64
4, 35184, Note_on_c, 1, 49, 98
4, 35184, Note_on_c, 1, 37, 98
4, 35208, Note_off_c, 1, 49, 64
4, 35208, Note_off_c, 1, 37, 64
4, 35232, Note_on_c, 1, 49, 98
4, 35232, Note_on_c, 1, 37, 98
4, 35256, Note_off_c, 1, 49, 64
4, 35256, Note_off_c, 1, 37, 64
4, 35280, Note_on_c, 1, 50, 98
4, 35280, Note_on_c, 1, 38, 98
4, 35328, Note_off_c, 1, 50, 64
4, 35328, Note_off_c, 1, 38, 64
4, 35376, Note_on_c, 1, 47, 98
4, 35376, Note_on_c, 1, 35, 98
4, 35424, Note_off_c, 1, 47, 64
4, 35424, Note_off_c, 1, 35, 64
4, 35472, Note_on_c, 1, 49, 98
4, 35472, Note_on_c, 1, 37, 98
4, 35520, Note_off_c, 1, 49, 64
4, 35520, Note_off_c, 1, 37, 64
4, 35568, Note_on_c, 1, 44, 98
4, 35568, Note_on_c, 1, 32, 98
4, 35640, Note_off_c, 1, 44, 64
4, 35640, Note_off_c, 1, 32, 64
4, 35664, Note_on_c, 1, 44, 98
4, 35664, Note_on_c, 1, 32, 98
4, 35688, Note_off_c, 1, 44, 64
4, 35688, Note_off_c, 1, 32, 64
4, 35712, Note_on_c, 1, 45, 98
4, 35712, Note_on_c, 1, 33, 98
4, 35784, Note_off_c, 1, 45, 64
4, 35784, Note_off_c, 1, 33, 64
4, 35808, Note_on_c, 1, 47, 98
4, 35808, Note_on_c, 1, 35, 98
4, 35880, Note_off_c, 1, 47, 64
4, 35880, Note_off_c, 1, 35, 64
4, 35904, Note_on_c, 1, 49, 98
4, 35904, Note_on_c, 1, 37, 98
4, 35928, Note_off_c, 1, 49, 64
4, 35928, Note_off_c, 1, 37, 64
4, 35952, Note_on_c, 1, 49, 98
4, 35952, Note_on_c, 1, 37, 98
4, 35976, Note_off_c, 1, 49, 64
4, 35976, Note_off_c, 1, 37, 64
4, 36000, Note_on_c, 1, 49, 98
4, 36000, Note_on_c, 1, 37, 98
4, 36024, Note_off_c, 1, 49, 64
4, 36024, Note_off_c, 1, 37, 64
4, 36048, Note_on_c, 1, 50, 98
4, 36048, Note_on_c, 1, 38, 98
4, 36120, Note_off_c, 1, 50, 64
4, 36120, Note_off_c, 1, 38, 64
4, 36144, Note_on_c, 1, 47, 98
4, 36144, Note_on_c, 1, 35, 98
4, 36216, Note_off_c, 1, 47, 64
4, 36216, Note_off_c, 1, 35, 64
4, 36240, Note_on_c, 1, 49, 98
4, 36240, Note_on_c, 1, 37, 98
4, 36288, Note_off_c, 1, 49, 64
4, 36288, Note_off_c, 1, 37, 64
4, 36336, Note_on_c, 1, 44, 98
4, 36336, Note_on_c, 1, 32, 98
4, 36408, Note_off_c, 1, 44, 64
4, 36408, Note_off_c, 1, 32, 64
4, 36432, Note_on_c, 1, 44, 98
4, 36432, Note_on_c, 1, 32, 98
4, 36456, Note_off_c, 1, 44, 64
4, 36456, Note_off_c, 1, 32, 64
4, 36480, Note_on_c, 1, 45, 98
4, 36480, Note_on_c, 1, 33, 98
4, 36552, Note_off_c, 1, 45, 64
4, 36552, Note_off_c, 1, 33, 64
4, 36576, Note_on_c, 1, 47, 98
4, 36576, Note_on_c, 1, 35, 98
4, 36648, Note_off_c, 1, 47, 64
4, 36648, Note_off_c, 1, 35, 64
4, 36672, Note_on_c, 1, 42, 98
4, 36696, Note_off_c, 1, 42, 64
4, 36720, Note_on_c, 1, 54, 98
4, 36720, Note_on_c, 1, 49, 98
4, 36744, Note_off_c, 1, 54, 64
4, 36744, Note_off_c, 1, 49, 64
4, 36768, Note_on_c, 1, 42, 98
4, 36792, Note_off_c, 1, 42, 64
4, 36816, Note_on_c, 1, 54, 98
4, 36816, Note_on_c, 1, 49, 98
4, 36840, Note_off_c, 1, 54, 64
4, 36840, Note_off_c, 1, 49, 64
4, 36864, Note_on_c, 1, 42, 98
4, 36888, Note_off_c, 1, 42, 64
4, 36912, Note_on_c, 1, 54, 98
4, 36912, Note_on_c, 1, 49, 98
4, 36936, Note_off_c, 1, 54, 64
4, 36936, Note_off_c, 1, 49, 64
4, 36960, Note_on_c, 1, 42, 98
4, 36984, Note_off_c, 1, 42, 64
4, 37008, Note_on_c, 1, 54, 98
4, 37008, Note_on_c, 1, 49, 98
4, 37032, Note_off_c, 1, 54, 64
4, 37032, Note_off_c, 1, 49, 64
4, 37056, Note_on_c, 1, 38, 98
4, 37080, Note_off_c, 1, 38, 64
4, 37104, Note_on_c, 1, 50, 98
4, 37104, Note_on_c, 1, 45, 98
4, 37128, Note_off_c, 1, 50, 64
4, 37128, Note_off_c, 1, 45, 64
4, 37152, Note_on_c, 1, 38, 98
4, 37176, Note_off_c, 1, 38, 64
4, 37200, Note_on_c, 1, 50, 98
4, 37200, Note_on_c, 1, 45, 98
4, 37224, Note_off_c, 1, 50, 64
4, 37224, Note_off_c, 1, 45, 64
4, 37248, Note_on_c, 1, 38, 98
4, 37272, Note_off_c, 1, 38, 64
4, 37296, Note_on_c, 1, 50, 98
4, 37296, Note_on_c, 1, 45, 98
4, 37320, Note_off_c, 1, 50, 64
4, 37320, Note_off_c, 1, 45, 64
4, 37344, Note_on_c, 1, 38, 98
4, 37368, Note_off_c, 1, 38, 64
4, 37392, Note_on_c, 1, 50, 98
4, 37392, Note_on_c, 1, 45, 98
4, 37416, Note_off_c, 1, 50, 64
4, 37416, Note_off_c, 1, 45, 64
4, 37440, Note_on_c, 1, 45, 98
4, 37464, Note_off_c, 1, 45, 64
4, 37488, Note_on_c, 1, 57, 98
4, 37488, Note_on_c, 1, 52, 98
4, 37512, Note_off_c, 1, 57, 64
4, 37512, Note_off_c, 1, 52, 64
4, 37536, Note_on_c, 1, 45, 98
4, 37560, Note_off_c, 1, 45, 64
4, 37584, Note_on_c, 1, 57, 98
4, 37584, Note_on_c, 1, 52, 98
4, 37608, Note_off_c, 1, 57, 64
4, 37608, Note_off_c, 1, 52, 64
4, 37632, Note_on_c, 1, 45, 98
4, 37656, Note_off_c, 1, 45, 64
4, 37680, Note_on_c, 1, 57, 98
4, 37680, Note_on_c, 1, 52, 98
4, 37704, Note_off_c, 1, 57, 64
4, 37704, Note_off_c, 1, 52, 64
4, 37728, Note_on_c, 1, 45, 98
4, 37752, Note_off_c, 1, 45, 64
4, 37776, Note_on_c, 1, 57, 98
4, 37776, Note_on_c, 1, 52, 98
4, 37800, Note_off_c, 1, 57, 64
4, 37800, Note_off_c, 1, 52, 64
4, 37824, Note_on_c, 1, 40, 98
4, 37848, Note_off_c, 1, 40, 64
4, 37872, Note_on_c, 1, 52, 98
4, 37872, Note_on_c, 1, 47, 98
4, 37896, Note_off_c, 1, 52, 64
4, 37896, Note_off_c, 1, 47, 64
4, 37920, Note_on_c, 1, 40, 98
4, 37944, Note_off_c, 1, 40, 64
4, 37968, Note_on_c, 1, 52, 98
4, 37968, Note_on_c, 1, 47, 98
4, 37992, Note_off_c, 1, 52, 64
4, 37992, Note_off_c, 1, 47, 64
4, 38016, Note_on_c, 1, 40, 98
4, 38040, Note_off_c, 1, 40, 64
4, 38064, Note_on_c, 1, 52, 98
4, 38064, Note_on_c, 1, 47, 98
4, 38088, Note_off_c, 1, 52, 64
4, 38088, Note_off_c, 1, 47, 64
4, 38112, Note_on_c, 1, 40, 98
4, 38136, Note_off_c, 1, 40, 64
4, 38160, Note_on_c, 1, 52, 98
4, 38160, Note_on_c, 1, 47, 98
4, 38184, Note_off_c, 1, 52, 64
4, 38184, Note_off_c, 1, 47, 64
4, 38208, Note_on_c, 1, 42, 98
4, 38232, Note_off_c, 1, 42, 64
4, 38256, Note_on_c, 1, 49, 98
4, 38256, Note_on_c, 1, 54, 98
4, 38280, Note_off_c, 1, 49, 64
4, 38280, Note_off_c, 1, 54, 64
4, 38304, Note_on_c, 1, 42, 98
4, 38328, Note_off_c, 1, 42, 64
4, 38352, Note_on_c, 1, 49, 98
4, 38352, Note_on_c, 1, 54, 98
4, 38376, Note_off_c, 1, 49, 64
4, 38376, Note_off_c, 1, 54, 64
4, 38400, Note_on_c, 1, 42, 98
4, 38424, Note_off_c, 1, 42, 64
4, 38448, Note_on_c, 1, 54, 98
4, 38448, Note_on_c, 1, 49, 98
4, 38472, Note_off_c, 1, 54, 64
4, 38472, Note_off_c, 1, 49, 64
4, 38496, Note_on_c, 1, 42, 98
4, 38520, Note_off_c, 1, 42, 64
4, 38544, Note_on_c, 1, 54, 98
4, 38544, Note_on_c, 1, 49, 98
4, 38568, Note_off_c, 1, 54, 64
4, 38568, Note_off_c, 1, 49, 64
4, 38592, Note_on_c, 1, 38, 98
4, 38616, Note_off_c, 1, 38, 64
4, 38640, Note_on_c, 1, 45, 98
4, 38640, Note_on_c, 1, 50, 98
4, 38664, Note_off_c, 1, 45, 64
4, 38664, Note_off_c, 1, 50, 64
4, 38688, Note_on_c, 1, 38, 98
4, 38712, Note_off_c, 1, 38, 64
4, 38736, Note_on_c, 1, 45, 98
4, 38736, Note_on_c, 1, 50, 98
4, 38760, Note_off_c, 1, 45, 64
4, 38760, Note_off_c, 1, 50, 64
4, 38784, Note_on_c, 1, 38, 98
4, 38808, Note_off_c, 1, 38, 64
4, 38832, Note_on_c, 1, 50, 98
4, 38832, Note_on_c, 1, 45, 98
4, 38856, Note_off_c, 1, 50, 64
4, 38856, Note_off_c, 1, 45, 64
4, 38880, Note_on_c, 1, 38, 98
4, 38904, Note_off_c, 1, 38, 64
4, 38928, Note_on_c, 1, 50, 98
4, 38928, Note_on_c, 1, 45, 98
4, 38952, Note_off_c, 1, 50, 64
4, 38952, Note_off_c, 1, 45, 64
4, 38976, Note_on_c, 1, 45, 98
4, 39000, Note_off_c, 1, 45, 64
4, 39024, Note_on_c, 1, 57, 98
4, 39024, Note_on_c, 1, 52, 98
4, 39048, Note_off_c, 1, 57, 64
4, 39048, Note_off_c, 1, 52, 64
4, 39072, Note_on_c, 1, 45, 98
4, 39096, Note_off_c, 1, 45, 64
4, 39120, Note_on_c, 1, 57, 98
4, 39120, Note_on_c, 1, 52, 98
4, 39144, Note_off_c, 1, 57, 64
4, 39144, Note_off_c, 1, 52, 64
4, 39168, Note_on_c, 1, 45, 98
4, 39192, Note_off_c, 1, 45, 64
4, 39216, Note_on_c, 1, 52, 98
4, 39216, Note_on_c, 1, 57, 98
4, 39240, Note_off_c, 1, 52, 64
4, 39240, Note_off_c, 1, 57, 64
4, 39264, Note_on_c, 1, 45, 98
4, 39288, Note_off_c, 1, 45, 64
4, 39312, Note_on_c, 1, 52, 98
4, 39312, Note_on_c, 1, 57, 98
4, 39336, Note_off_c, 1, 52, 64
4, 39336, Note_off_c, 1, 57, 64
4, 39360, Note_on_c, 1, 49, 98
4, 39360, Note_on_c, 1, 37, 98
4, 39384, Note_off_c, 1, 49, 64
4, 39384, Note_off_c, 1, 37, 64
4, 39408, Note_on_c, 1, 49, 98
4, 39408, Note_on_c, 1, 37, 98
4, 39432, Note_off_c, 1, 49, 64
4, 39432, Note_off_c, 1, 37, 64
4, 39456, Note_on_c, 1, 49, 98
4, 39456, Note_on_c, 1, 37, 98
4, 39480, Note_off_c, 1, 49, 64
4, 39480, Note_off_c, 1, 37, 64
4, 39504, Note_on_c, 1, 38, 98
4, 39504, Note_on_c, 1, 50, 98
4, 39576, Note_off_c, 1, 38, 64
4, 39576, Note_off_c, 1, 50, 64
4, 39600, Note_on_c, 1, 35, 100
4, 39600, Note_on_c, 1, 47, 100
4, 39672, Note_off_c, 1, 35, 64
4, 39672, Note_off_c, 1, 47, 64
4, 39696, Note_on_c, 1, 37, 100
4, 39696, Note_on_c, 1, 49, 100
4, 39720, Note_off_c, 1, 37, 64
4, 39720, Note_off_c, 1, 49, 64
4, 39744, Note_on_c, 1, 42, 100
4, 39768, Note_off_c, 1, 42, 64
4, 39792, Note_on_c, 1, 54, 100
4, 39792, Note_on_c, 1, 49, 100
4, 39816, Note_off_c, 1, 54, 64
4, 39816, Note_off_c, 1, 49, 64
4, 39840, Note_on_c, 1, 42, 100
4, 39864, Note_off_c, 1, 42, 64
4, 39888, Note_on_c, 1, 54, 100
4, 39888, Note_on_c, 1, 49, 100
4, 39912, Note_off_c, 1, 54, 64
4, 39912, Note_off_c, 1, 49, 64
4, 39936, Note_on_c, 1, 42, 100
4, 39960, Note_off_c, 1, 42, 64
4, 39984, Note_on_c, 1, 54, 100
4, 39984, Note_on_c, 1, 49, 100
4, 40008, Note_off_c, 1, 54, 64
4, 40008, Note_off_c, 1, 49, 64
4, 40032, Note_on_c, 1, 42, 100
4, 40056, Note_off_c, 1, 42, 64
4, 40080, Note_on_c, 1, 54, 100
4, 40080, Note_on_c, 1, 49, 100
4, 40104, Note_off_c, 1, 54, 64
4, 40104, Note_off_c, 1, 49, 64
4, 40128, Note_on_c, 1, 38, 100
4, 40152, Note_off_c, 1, 38, 64
4, 40176, Note_on_c, 1, 50, 100
4, 40176, Note_on_c, 1, 45, 100
4, 40200, Note_off_c, 1, 50, 64
4, 40200, Note_off_c, 1, 45, 64
4, 40224, Note_on_c, 1, 38, 100
4, 40248, Note_off_c, 1, 38, 64
4, 40272, Note_on_c, 1, 50, 100
4, 40272, Note_on_c, 1, 45, 100
4, 40296, Note_off_c, 1, 50, 64
4, 40296, Note_off_c, 1, 45, 64
4, 40320, Note_on_c, 1, 38, 100
4, 40344, Note_off_c, 1, 38, 64
4, 40368, Note_on_c, 1, 50, 100
4, 40368, Note_on_c, 1, 45, 100
4, 40392, Note_off_c, 1, 50, 64
4, 40392, Note_off_c, 1, 45, 64
4, 40416, Note_on_c, 1, 38, 100
4, 40440, Note_off_c, 1, 38, 64
4, 40464, Note_on_c, 1, 50, 100
4, 40464, Note_on_c, 1, 45, 100
4, 40488, Note_off_c, 1, 50, 64
4, 40488, Note_off_c, 1, 45, 64
4, 40512, Note_on_c, 1, 45, 100
4, 40536, Note_off_c, 1, 45, 64
4, 40560, Note_on_c, 1, 57, 100
4, 40560, Note_on_c, 1, 52, 100
4, 40584, Note_off_c, 1, 57, 64
4, 40584, Note_off_c, 1, 52, 64
4, 40608, Note_on_c, 1, 45, 100
4, 40632, Note_off_c, 1, 45, 64
4, 40656, Note_on_c, 1, 57, 100
4, 40656, Note_on_c, 1, 52, 100
4, 40680, Note_off_c, 1, 57, 64
4, 40680, Note_off_c, 1, 52, 64
4, 40704, Note_on_c, 1, 45, 100
4, 40728, Note_off_c, 1, 45, 64
4, 40752, Note_on_c, 1, 57, 100
4, 40752, Note_on_c, 1, 52, 100
4, 40776, Note_off_c, 1, 57, 64
4, 40776, Note_off_c, 1, 52, 64
4, 40800, Note_on_c, 1, 45, 100
4, 40824, Note_off_c, 1, 45, 64
4, 40848, Note_on_c, 1, 57, 100
4, 40848, Note_on_c, 1, 52, 100
4, 40872, Note_off_c, 1, 57, 64
4, 40872, Note_off_c, 1, 52, 64
4, 40896, Note_on_c, 1, 40, 100
4, 40920, Note_off_c, 1, 40, 64
4, 40944, Note_on_c, 1, 52, 100
4, 40944, Note_on_c, 1, 47, 100
4, 40968, Note_off_c, 1, 52, 64
4, 40968, Note_off_c, 1, 47, 64
4, 40992, Note_on_c, 1, 40, 100
4, 41016, Note_off_c, 1, 40, 64
4, 41040, Note_on_c, 1, 52, 100
4, 41040, Note_on_c, 1, 47, 100
4, 41064, Note_off_c, 1, 52, 64
4, 41064, Note_off_c, 1, 47, 64
4, 41088, Note_on_c, 1, 40, 100
4, 41112, Note_off_c, 1, 40, 64
4, 41136, Note_on_c, 1, 52, 100
4, 41136, Note_on_c, 1, 47, 100
4, 41160, Note_off_c, 1, 52, 64
4, 41160, Note_off_c, 1, 47, 64
4, 41184, Note_on_c, 1, 40, 100
4, 41208, Note_off_c, 1, 40, 64
4, 41232, Note_on_c, 1, 52, 100
4, 41232, Note_on_c, 1, 47, 100
4, 41256, Note_off_c, 1, 52, 64
4, 41256, Note_off_c, 1, 47, 64
4, 41280, Note_on_c, 1, 42, 100
4, 41304, Note_off_c, 1, 42, 64
4, 41328, Note_on_c, 1, 49, 100
4, 41328, Note_on_c, 1, 54, 100
4, 41352, Note_off_c, 1, 49, 64
4, 41352, Note_off_c, 1, 54, 64
4, 41376, Note_on_c, 1, 42, 100
4, 41400, Note_off_c, 1, 42, 64
4, 41424, Note_on_c, 1, 49, 100
4, 41424, Note_on_c, 1, 54, 100
4, 41448, Note_off_c, 1, 49, 64
4, 41448, Note_off_c, 1, 54, 64
4, 41472, Note_on_c, 1, 42, 100
4, 41496, Note_off_c, 1, 42, 64
4, 41520, Note_on_c, 1, 54, 100
4, 41520, Note_on_c, 1, 49, 100
4, 41544, Note_off_c, 1, 54, 64
4, 41544, Note_off_c, 1, 49, 64
4, 41568, Note_on_c, 1, 42, 100
4, 41592, Note_off_c, 1, 42, 64
4, 41616, Note_on_c, 1, 54, 100
4, 41616, Note_on_c, 1, 49, 100
4, 41640, Note_off_c, 1, 54, 64
4, 41640, Note_off_c, 1, 49, 64
4, 41664, Note_on_c, 1, 38, 100
4, 41688, Note_off_c, 1, 38, 64
4, 41712, Note_on_c, 1, 45, 100
4, 41712, Note_on_c, 1, 50, 100
4, 41736, Note_off_c, 1, 45, 64
4, 41736, Note_off_c, 1, 50, 64
4, 41760, Note_on_c, 1, 38, 100
4, 41784, Note_off_c, 1, 38, 64
4, 41808, Note_on_c, 1, 45, 100
4, 41808, Note_on_c, 1, 50, 100
4, 41832, Note_off_c, 1, 45, 64
4, 41832, Note_off_c, 1, 50, 64
4, 41856, Note_on_c, 1, 38, 100
4, 41880, Note_off_c, 1, 38, 64
4, 41904, Note_on_c, 1, 50, 100
4, 41904, Note_on_c, 1, 45, 100
4, 41928, Note_off_c, 1, 50, 64
4, 41928, Note_off_c, 1, 45, 64
4, 41952, Note_on_c, 1, 38, 100
4, 41976, Note_off_c, 1, 38, 64
4, 42000, Note_on_c, 1, 50, 100
4, 42000, Note_on_c, 1, 45, 100
4, 42024, Note_off_c, 1, 50, 64
4, 42024, Note_off_c, 1, 45, 64
4, 42048, Note_on_c, 1, 45, 100
4, 42072, Note_off_c, 1, 45, 64
4, 42096, Note_on_c, 1, 57, 100
4, 42096, Note_on_c, 1, 52, 100
4, 42120, Note_off_c, 1, 57, 64
4, 42120, Note_off_c, 1, 52, 64
4, 42144, Note_on_c, 1, 45, 100
4, 42168, Note_off_c, 1, 45, 64
4, 42192, Note_on_c, 1, 57, 100
4, 42192, Note_on_c, 1, 52, 100
4, 42216, Note_off_c, 1, 57, 64
4, 42216, Note_off_c, 1, 52, 64
4, 42240, Note_on_c, 1, 45, 100
4, 42264, Note_off_c, 1, 45, 64
4, 42288, Note_on_c, 1, 57, 100
4, 42288, Note_on_c, 1, 52, 100
4, 42312, Note_off_c, 1, 57, 64
4, 42312, Note_off_c, 1, 52, 64
4, 42336, Note_on_c, 1, 45, 100
4, 42360, Note_off_c, 1, 45, 64
4, 42384, Note_on_c, 1, 52, 100
4, 42384, Note_on_c, 1, 57, 100
4, 42408, Note_off_c, 1, 52, 64
4, 42408, Note_off_c, 1, 57, 64
4, 42432, Note_on_c, 1, 49, 100
4, 42432, Note_on_c, 1, 37, 100
4, 42456, Note_off_c, 1, 49, 64
4, 42456, Note_off_c, 1, 37, 64
4, 42480, Note_on_c, 1, 49, 100
4, 42480, Note_on_c, 1, 37, 100
4, 42504, Note_off_c, 1, 49, 64
4, 42504, Note_off_c, 1, 37, 64
4, 42528, Note_on_c, 1, 49, 100
4, 42528, Note_on_c, 1, 37, 100
4, 42552, Note_off_c, 1, 49, 64
4, 42552, Note_off_c, 1, 37, 64
4, 42576, Note_on_c, 1, 38, 100
4, 42576, Note_on_c, 1, 50, 100
4, 42648, Note_off_c, 1, 38, 64
4, 42648, Note_off_c, 1, 50, 64
4, 42672, Note_on_c, 1, 35, 100
4, 42672, Note_on_c, 1, 47, 100
4, 42744, Note_off_c, 1, 35, 64
4, 42744, Note_off_c, 1, 47, 64
4, 42768, Note_on_c, 1, 37, 100
4, 42768, Note_on_c, 1, 49, 100
4, 42792, Note_off_c, 1, 37, 64
4, 42792, Note_off_c, 1, 49, 64
4, 42816, Note_on_c, 1, 38, 100
4, 42840, Note_off_c, 1, 38, 64
4, 42864, Note_on_c, 1, 50, 100
4, 42864, Note_on_c, 1, 45, 100
4, 42888, Note_off_c, 1, 50, 64
4, 42888, Note_off_c, 1, 45, 64
4, 42912, Note_on_c, 1, 38, 100
4, 42936, Note_off_c, 1, 38, 64
4, 42960, Note_on_c, 1, 50, 100
4, 42960, Note_on_c, 1, 45, 100
4, 42984, Note_off_c, 1, 50, 64
4, 42984, Note_off_c, 1, 45, 64
4, 43008, Note_on_c, 1, 38, 100
4, 43032, Note_off_c, 1, 38, 64
4, 43056, Note_on_c, 1, 50, 100
4, 43056, Note_on_c, 1, 45, 100
4, 43080, Note_off_c, 1, 50, 64
4, 43080, Note_off_c, 1, 45, 64
4, 43104, Note_on_c, 1, 38, 100
4, 43128, Note_off_c, 1, 38, 64
4, 43152, Note_on_c, 1, 50, 100
4, 43152, Note_on_c, 1, 45, 100
4, 43176, Note_off_c, 1, 50, 64
4, 43176, Note_off_c, 1, 45, 64
4, 43200, Note_on_c, 1, 52, 100
4, 43200, Note_on_c, 1, 40, 100
4, 43272, Note_off_c, 1, 52, 64
4, 43272, Note_off_c, 1, 40, 64
4, 43584, Note_on_c, 1, 42, 98
4, 43608, Note_off_c, 1, 42, 64
4, 43632, Note_on_c, 1, 54, 98
4, 43632, Note_on_c, 1, 49, 98
4, 43656, Note_off_c, 1, 54, 64
4, 43656, Note_off_c, 1, 49, 64
4, 43680, Note_on_c, 1, 42, 98
4, 43704, Note_off_c, 1, 42, 64
4, 43728, Note_on_c, 1, 54, 98
4, 43728, Note_on_c, 1, 49, 98
4, 43752, Note_off_c, 1, 54, 64
4, 43752, Note_off_c, 1, 49, 64
4, 43776, Note_on_c, 1, 42, 98
4, 43800, Note_off_c, 1, 42, 64
4, 43824, Note_on_c, 1, 54, 98
4, 43824, Note_on_c, 1, 49, 98
4, 43848, Note_off_c, 1, 54, 64
4, 43848, Note_off_c, 1, 49, 64
4, 43872, Note_on_c, 1, 42, 98
4, 43896, Note_off_c, 1, 42, 64
4, 43920, Note_on_c, 1, 54, 98
4, 43920, Note_on_c, 1, 49, 98
4, 43944, Note_off_c, 1, 54, 64
4, 43944, Note_off_c, 1, 49, 64
4, 43968, Note_on_c, 1, 42, 98
4, 43992, Note_off_c, 1, 42, 64
4, 44016, Note_on_c, 1, 54, 98
4, 44016, Note_on_c, 1, 49, 98
4, 44040, Note_off_c, 1, 54, 64
4, 44040, Note_off_c, 1, 49, 64
4, 44064, Note_on_c, 1, 42, 98
4, 44088, Note_off_c, 1, 42, 64
4, 44112, Note_on_c, 1, 54, 98
4, 44112, Note_on_c, 1, 49, 98
4, 44136, Note_off_c, 1, 54, 64
4, 44136, Note_off_c, 1, 49, 64
4, 44160, Note_on_c, 1, 42, 98
4, 44184, Note_off_c, 1, 42, 64
4, 44208, Note_on_c, 1, 49, 98
4, 44208, Note_on_c, 1, 54, 98
4, 44232, Note_off_c, 1, 49, 64
4, 44232, Note_off_c, 1, 54, 64
4, 44256, Note_on_c, 1, 42, 98
4, 44280, Note_off_c, 1, 42, 64
4, 44304, Note_on_c, 1, 49, 98
4, 44304, Note_on_c, 1, 54, 98
4, 44328, Note_off_c, 1, 49, 64
4, 44328, Note_off_c, 1, 54, 64
4, 44352, Note_on_c, 1, 42, 98
4, 44376, Note_off_c, 1, 42, 64
4, 44400, Note_on_c, 1, 49, 98
4, 44400, Note_on_c, 1, 54, 98
4, 44424, Note_off_c, 1, 49, 64
4, 44424, Note_off_c, 1, 54, 64
4, 44448, Note_on_c, 1, 42, 98
4, 44472, Note_off_c, 1, 42, 64
4, 44496, Note_on_c, 1, 49, 98
4, 44496, Note_on_c, 1, 54, 98
4, 44520, Note_off_c, 1, 49, 64
4, 44520, Note_off_c, 1, 54, 64
4, 44544, Note_on_c, 1, 42, 98
4, 44568, Note_off_c, 1, 42, 64
4, 44592, Note_on_c, 1, 49, 98
4, 44592, Note_on_c, 1, 54, 98
4, 44616, Note_off_c, 1, 49, 64
4, 44616, Note_off_c, 1, 54, 64
4, 44640, Note_on_c, 1, 42, 98
4, 44664, Note_off_c, 1, 42, 64
4, 44688, Note_on_c, 1, 49, 98
4, 44688, Note_on_c, 1, 54, 98
4, 44712, Note_off_c, 1, 49, 64
4, 44712, Note_off_c, 1, 54, 64
4, 44736, Note_on_c, 1, 38, 98
4, 44760, Note_off_c, 1, 38, 64
4, 44784, Note_on_c, 1, 50, 98
4, 44784, Note_on_c, 1, 45, 98
4, 44808, Note_off_c, 1, 50, 64
4, 44808, Note_off_c, 1, 45, 64
4, 44832, Note_on_c, 1, 38, 98
4, 44856, Note_off_c, 1, 38, 64
4, 44880, Note_on_c, 1, 50, 98
4, 44880, Note_on_c, 1, 45, 98
4, 44904, Note_off_c, 1, 50, 64
4, 44904, Note_off_c, 1, 45, 64
4, 44928, Note_on_c, 1, 40, 98
4, 44952, Note_off_c, 1, 40, 64
4, 44976, Note_on_c, 1, 52, 98
4, 44976, Note_on_c, 1, 47, 98
4, 45000, Note_off_c, 1, 52, 64
4, 45000, Note_off_c, 1, 47, 64
4, 45024, Note_on_c, 1, 40, 98
4, 45048, Note_off_c, 1, 40, 64
4, 45072, Note_on_c, 1, 47, 98
4, 45072, Note_on_c, 1, 52, 98
4, 45096, Note_off_c, 1, 47, 64
4, 45096, Note_off_c, 1, 52, 64
4, 45120, Note_on_c, 1, 45, 98
4, 45144, Note_off_c, 1, 45, 64
4, 45168, Note_on_c, 1, 57, 98
4, 45168, Note_on_c, 1, 52, 98
4, 45192, Note_off_c, 1, 57, 64
4, 45192, Note_off_c, 1, 52, 64
4, 45216, Note_on_c, 1, 45, 98
4, 45240, Note_off_c, 1, 45, 64
4, 45264, Note_on_c, 1, 52, 98
4, 45264, Note_on_c, 1, 57, 98
4, 45288, Note_off_c, 1, 52, 64
4, 45288, Note_off_c, 1, 57, 64
4, 45312, Note_on_c, 1, 45, 98
4, 45336, Note_off_c, 1, 45, 64
4, 45360, Note_on_c, 1, 52, 98
4, 45360, Note_on_c, 1, 57, 98
4, 45384, Note_off_c, 1, 52, 64
4, 45384, Note_off_c, 1, 57, 64
4, 45408, Note_on_c, 1, 45, 98
4, 45432, Note_off_c, 1, 45, 64
4, 45456, Note_on_c, 1, 57, 98
4, 45456, Note_on_c, 1, 52, 98
4, 45480, Note_off_c, 1, 57, 64
4, 45480, Note_off_c, 1, 52, 64
4, 45504, Note_on_c, 1, 45, 98
4, 45528, Note_off_c, 1, 45, 64
4, 45552, Note_on_c, 1, 57, 98
4, 45552, Note_on_c, 1, 52, 98
4, 45576, Note_off_c, 1, 57, 64
4, 45576, Note_off_c, 1, 52, 64
4, 45600, Note_on_c, 1, 45, 98
4, 45624, Note_off_c, 1, 45, 64
4, 45648, Note_on_c, 1, 57, 98
4, 45648, Note_on_c, 1, 52, 98
4, 45672, Note_off_c, 1, 57, 64
4, 45672, Note_off_c, 1, 52, 64
4, 45696, Note_on_c, 1, 45, 98
4, 45720, Note_off_c, 1, 45, 64
4, 45744, Note_on_c, 1, 52, 98
4, 45744, Note_on_c, 1, 57, 98
4, 45768, Note_off_c, 1, 52, 64
4, 45768, Note_off_c, 1, 57, 64
4, 45792, Note_on_c, 1, 45, 98
4, 45816, Note_off_c, 1, 45, 64
4, 45840, Note_on_c, 1, 57, 98
4, 45840, Note_on_c, 1, 52, 98
4, 45864, Note_off_c, 1, 57, 64
4, 45864, Note_off_c, 1, 52, 64
4, 45888, Note_on_c, 1, 45, 98
4, 45912, Note_off_c, 1, 45, 64
4, 45936, Note_on_c, 1, 57, 98
4, 45936, Note_on_c, 1, 52, 98
4, 45960, Note_off_c, 1, 57, 64
4, 45960, Note_off_c, 1, 52, 64
4, 45984, Note_on_c, 1, 45, 98
4, 46008, Note_off_c, 1, 45, 64
4, 46032, Note_on_c, 1, 52, 98
4, 46032, Note_on_c, 1, 57, 98
4, 46056, Note_off_c, 1, 52, 64
4, 46056, Note_off_c, 1, 57, 64
4, 46080, Note_on_c, 1, 45, 98
4, 46104, Note_off_c, 1, 45, 64
4, 46128, Note_on_c, 1, 52, 98
4, 46128, Note_on_c, 1, 57, 98
4, 46152, Note_off_c, 1, 52, 64
4, 46152, Note_off_c, 1, 57, 64
4, 46176, Note_on_c, 1, 45, 98
4, 46200, Note_off_c, 1, 45, 64
4, 46224, Note_on_c, 1, 52, 98
4, 46224, Note_on_c, 1, 57, 98
4, 46248, Note_off_c, 1, 52, 64
4, 46248, Note_off_c, 1, 57, 64
4, 46272, Note_on_c, 1, 46, 98
4, 46296, Note_off_c, 1, 46, 64
4, 46320, Note_on_c, 1, 58, 98
4, 46320, Note_on_c, 1, 53, 98
4, 46344, Note_off_c, 1, 58, 64
4, 46344, Note_off_c, 1, 53, 64
4, 46368, Note_on_c, 1, 46, 98
4, 46392, Note_off_c, 1, 46, 64
4, 46416, Note_on_c, 1, 58, 98
4, 46416, Note_on_c, 1, 53, 98
4, 46440, Note_off_c, 1, 58, 64
4, 46440, Note_off_c, 1, 53, 64
4, 46464, Note_on_c, 1, 40, 98
4, 46488, Note_off_c, 1, 40, 64
4, 46512, Note_on_c, 1, 47, 98
4, 46512, Note_on_c, 1, 52, 98
4, 46536, Note_off_c, 1, 47, 64
4, 46536, Note_off_c, 1, 52, 64
4, 46560, Note_on_c, 1, 40, 98
4, 46584, Note_off_c, 1, 40, 64
4, 46608, Note_on_c, 1, 47, 98
4, 46608, Note_on_c, 1, 52, 98
4, 46632, Note_off_c, 1, 47, 64
4, 46632, Note_off_c, 1, 52, 64
4, 46656, Note_on_c, 1, 45, 98
4, 46656, Note_on_c, 1, 52, 98
4, 46656, Note_on_c, 1, 57, 98
4, 46680, Note_off_c, 1, 45, 64
4, 46680, Note_off_c, 1, 52, 64
4, 46680, Note_off_c, 1, 57, 64
4, 46704, Note_on_c, 1, 57, 98
4, 46704, Note_on_c, 1, 45, 98
4, 46704, Note_on_c, 1, 52, 98
4, 46728, Note_off_c, 1, 57, 64
4, 46728, Note_off_c, 1, 45, 64
4, 46728, Note_off_c, 1, 52, 64
4, 46752, Note_on_c, 1, 57, 98
4, 46752, Note_on_c, 1, 45, 98
4, 46752, Note_on_c, 1, 52, 98
4, 46776, Note_off_c, 1, 57, 64
4, 46776, Note_off_c, 1, 45, 64
4, 46776, Note_off_c, 1, 52, 64
4, 46800, Note_on_c, 1, 58, 98
4, 46800, Note_on_c, 1, 46, 98
4, 46800, Note_on_c, 1, 53, 98
4, 46872, Note_off_c, 1, 58, 64
4, 46872, Note_off_c, 1, 46, 64
4, 46872, Note_off_c, 1, 53, 64
4, 46896, Note_on_c, 1, 43, 99
4, 46896, Note_on_c, 1, 50, 99
4, 46896, Note_on_c, 1, 55, 99
4, 46968, Note_off_c, 1, 43, 64
4, 46968, Note_off_c, 1, 50, 64
4, 46968, Note_off_c, 1, 55, 64
4, 46992, Note_on_c, 1, 57, 100
4, 46992, Note_on_c, 1, 45, 100
4, 46992, Note_on_c, 1, 52, 100
4, 47209, Note_off_c, 1, 57, 64
4, 47209, Note_off_c, 1, 45, 64
4, 47209, Note_off_c, 1, 52, 64
4, 48000, Note_on_c, 1, 69, 92
4, 48374, Note_off_c, 1, 69, 64
4, 48768, Note_on_c, 1, 45, 92
4, 48806, Note_off_c, 1, 45, 64
4, 48816, Note_on_c, 1, 52, 95
4, 48816, Note_on_c, 1, 40, 95
4, 48902, Note_off_c, 1, 52, 64
4, 48902, Note_off_c, 1, 40, 64
4, 48912, Note_on_c, 1, 41, 95
4, 48912, Note_on_c, 1, 53, 95
4, 48998, Note_off_c, 1, 41, 64
4, 48998, Note_off_c, 1, 53, 64
4, 49008, Note_on_c, 1, 50, 95
4, 49008, Note_on_c, 1, 38, 95
4, 49094, Note_off_c, 1, 50, 64
4, 49094, Note_off_c, 1, 38, 64
4, 49104, Note_on_c, 1, 52, 95
4, 49104, Note_on_c, 1, 40, 95
4, 49190, Note_off_c, 1, 52, 64
4, 49190, Note_off_c, 1, 40, 64
4, 49200, Note_on_c, 1, 36, 95
4, 49200, Note_on_c, 1, 48, 95
4, 49286, Note_off_c, 1, 36, 64
4, 49286, Note_off_c, 1, 48, 64
4, 49296, Note_on_c, 1, 38, 95
4, 49296, Note_on_c, 1, 50, 95
4, 49382, Note_off_c, 1, 38, 64
4, 49382, Note_off_c, 1, 50, 64
4, 49392, Note_on_c, 1, 47, 95
4, 49392, Note_on_c, 1, 35, 95
4, 49478, Note_off_c, 1, 47, 64
4, 49478, Note_off_c, 1, 35, 64
4, 49488, Note_on_c, 1, 36, 95
4, 49488, Note_on_c, 1, 48, 95
4, 49526, Note_off_c, 1, 36, 64
4, 49526, Note_off_c, 1, 48, 64
4, 49536, Note_on_c, 1, 42, 87
4, 49574, Note_off_c, 1, 42, 64
4, 49584, Note_on_c, 1, 49, 86
4, 49622, Note_off_c, 1, 49, 64
4, 49632, Note_on_c, 1, 42, 87
4, 49670, Note_off_c, 1, 42, 64
4, 49680, Note_on_c, 1, 49, 86
4, 49718, Note_off_c, 1, 49, 64
4, 49728, Note_on_c, 1, 42, 87
4, 49766, Note_off_c, 1, 42, 64
4, 49776, Note_on_c, 1, 49, 86
4, 49814, Note_off_c, 1, 49, 64
4, 49824, Note_on_c, 1, 42, 87
4, 49862, Note_off_c, 1, 42, 64
4, 49872, Note_on_c, 1, 49, 86
4, 49910, Note_off_c, 1, 49, 64
4, 49920, Note_on_c, 1, 42, 87
4, 49958, Note_off_c, 1, 42, 64
4, 49968, Note_on_c, 1, 49, 86
4, 50006, Note_off_c, 1, 49, 64
4, 50016, Note_on_c, 1, 42, 87
4, 50054, Note_off_c, 1, 42, 64
4, 50064, Note_on_c, 1, 49, 86
4, 50102, Note_off_c, 1, 49, 64
4, 50112, Note_on_c, 1, 42, 87
4, 50150, Note_off_c, 1, 42, 64
4, 50160, Note_on_c, 1, 49, 86
4, 50198, Note_off_c, 1, 49, 64
4, 50208, Note_on_c, 1, 40, 87
4, 50246, Note_off_c, 1, 40, 64
4, 50256, Note_on_c, 1, 47, 86
4, 50294, Note_off_c, 1, 47, 64
4, 50304, Note_on_c, 1, 38, 87
4, 50342, Note_off_c, 1, 38, 64
4, 50352, Note_on_c, 1, 45, 86
4, 50390, Note_off_c, 1, 45, 64
4, 50400, Note_on_c, 1, 38, 87
4, 50438, Note_off_c, 1, 38, 64
4, 50448, Note_on_c, 1, 45, 86
4, 50486, Note_off_c, 1, 45, 64
4, 50496, Note_on_c, 1, 38, 87
4, 50534, Note_off_c, 1, 38, 64
4, 50544, Note_on_c, 1, 45, 86
4, 50582, Note_off_c, 1, 45, 64
4, 50592, Note_on_c, 1, 38, 87
4, 50630, Note_off_c, 1, 38, 64
4, 50640, Note_on_c, 1, 45, 86
4, 50678, Note_off_c, 1, 45, 64
4, 50688, Note_on_c, 1, 38, 87
4, 50726, Note_off_c, 1, 38, 64
4, 50736, Note_on_c, 1, 45, 86
4, 50774, Note_off_c, 1, 45, 64
4, 50784, Note_on_c, 1, 38, 87
4, 50822, Note_off_c, 1, 38, 64
4, 50832, Note_on_c, 1, 45, 86
4, 50870, Note_off_c, 1, 45, 64
4, 50880, Note_on_c, 1, 38, 87
4, 50918, Note_off_c, 1, 38, 64
4, 50928, Note_on_c, 1, 45, 86
4, 50966, Note_off_c, 1, 45, 64
4, 50976, Note_on_c, 1, 37, 87
4, 51014, Note_off_c, 1, 37, 64
4, 51024, Note_on_c, 1, 45, 86
4, 51062, Note_off_c, 1, 45, 64
4, 51072, Note_on_c, 1, 35, 87
4, 51110, Note_off_c, 1, 35, 64
4, 51120, Note_on_c, 1, 42, 86
4, 51158, Note_off_c, 1, 42, 64
4, 51168, Note_on_c, 1, 35, 87
4, 51206, Note_off_c, 1, 35, 64
4, 51216, Note_on_c, 1, 42, 86
4, 51254, Note_off_c, 1, 42, 64
4, 51264, Note_on_c, 1, 35, 87
4, 51302, Note_off_c, 1, 35, 64
4, 51312, Note_on_c, 1, 42, 86
4, 51350, Note_off_c, 1, 42, 64
4, 51360, Note_on_c, 1, 35, 87
4, 51398, Note_off_c, 1, 35, 64
4, 51408, Note_on_c, 1, 42, 86
4, 51446, Note_off_c, 1, 42, 64
4, 51456, Note_on_c, 1, 33, 87
4, 51494, Note_off_c, 1, 33, 64
4, 51504, Note_on_c, 1, 40, 86
4, 51542, Note_off_c, 1, 40, 64
4, 51552, Note_on_c, 1, 33, 87
4, 51590, Note_off_c, 1, 33, 64
4, 51600, Note_on_c, 1, 40, 86
4, 51638, Note_off_c, 1, 40, 64
4, 51648, Note_on_c, 1, 33, 87
4, 51686, Note_off_c, 1, 33, 64
4, 51696, Note_on_c, 1, 40, 86
4, 51734, Note_off_c, 1, 40, 64
4, 51744, Note_on_c, 1, 33, 87
4, 51782, Note_off_c, 1, 33, 64
4, 51792, Note_on_c, 1, 40, 86
4, 51830, Note_off_c, 1, 40, 64
4, 51840, Note_on_c, 1, 31, 87
4, 51878, Note_off_c, 1, 31, 64
4, 51888, Note_on_c, 1, 38, 86
4, 51926, Note_off_c, 1, 38, 64
4, 51936, Note_on_c, 1, 31, 87
4, 51974, Note_off_c, 1, 31, 64
4, 51984, Note_on_c, 1, 38, 86
4, 52022, Note_off_c, 1, 38, 64
4, 52032, Note_on_c, 1, 31, 87
4, 52070, Note_off_c, 1, 31, 64
4, 52080, Note_on_c, 1, 38, 86
4, 52118, Note_off_c, 1, 38, 64
4, 52128, Note_on_c, 1, 31, 87
4, 52166, Note_off_c, 1, 31, 64
4, 52176, Note_on_c, 1, 38, 86
4, 52214, Note_off_c, 1, 38, 64
4, 52224, Note_on_c, 1, 44, 87
4, 52224, Note_on_c, 1, 49, 87
4, 52224, Note_on_c, 1, 37, 87
4, 52310, Note_off_c, 1, 44, 64
4, 52310, Note_off_c, 1, 49, 64
4, 52310, Note_off_c, 1, 37, 64
4, 52320, Note_on_c, 1, 44, 87
4, 52320, Note_on_c, 1, 37, 87
4, 52320, Note_on_c, 1, 49, 87
4, 52406, Note_off_c, 1, 44, 64
4, 52406, Note_off_c, 1, 37, 64
4, 52406, Note_off_c, 1, 49, 64
4, 52416, Note_on_c, 1, 44, 88
4, 52416, Note_on_c, 1, 37, 88
4, 52416, Note_on_c, 1, 49, 88
4, 52502, Note_off_c, 1, 44, 64
4, 52502, Note_off_c, 1, 37, 64
4, 52502, Note_off_c, 1, 49, 64
4, 52512, Note_on_c, 1, 49, 89
4, 52512, Note_on_c, 1, 37, 89
4, 52512, Note_on_c, 1, 44, 89
4, 52598, Note_off_c, 1, 49, 64
4, 52598, Note_off_c, 1, 37, 64
4, 52598, Note_off_c, 1, 44, 64
4, 52608, Note_on_c, 1, 45, 92
4, 52646, Note_off_c, 1, 45, 64
4, 52656, Note_on_c, 1, 52, 92
4, 52694, Note_off_c, 1, 52, 64
4, 52704, Note_on_c, 1, 45, 93
4, 52742, Note_off_c, 1, 45, 64
4, 52752, Note_on_c, 1, 52, 92
4, 52790, Note_off_c, 1, 52, 64
4, 52800, Note_on_c, 1, 45, 93
4, 52838, Note_off_c, 1, 45, 64
4, 52848, Note_on_c, 1, 52, 92
4, 52886, Note_off_c, 1, 52, 64
4, 52896, Note_on_c, 1, 45, 93
4, 52934, Note_off_c, 1, 45, 64
4, 52944, Note_on_c, 1, 52, 92
4, 52982, Note_off_c, 1, 52, 64
4, 52992, Note_on_c, 1, 45, 93
4, 53030, Note_off_c, 1, 45, 64
4, 53040, Note_on_c, 1, 52, 92
4, 53078, Note_off_c, 1, 52, 64
4, 53088, Note_on_c, 1, 45, 93
4, 53126, Note_off_c, 1, 45, 64
4, 53136, Note_on_c, 1, 52, 92
4, 53174, Note_off_c, 1, 52, 64
4, 53184, Note_on_c, 1, 45, 93
4, 53222, Note_off_c, 1, 45, 64
4, 53232, Note_on_c, 1, 52, 92
4, 53270, Note_off_c, 1, 52, 64
4, 53280, Note_on_c, 1, 43, 93
4, 53318, Note_off_c, 1, 43, 64
4, 53328, Note_on_c, 1, 50, 92
4, 53366, Note_off_c, 1, 50, 64
4, 53376, Note_on_c, 1, 41, 93
4, 53414, Note_off_c, 1, 41, 64
4, 53424, Note_on_c, 1, 48, 92
4, 53462, Note_off_c, 1, 48, 64
4, 53472, Note_on_c, 1, 41, 93
4, 53510, Note_off_c, 1, 41, 64
4, 53520, Note_on_c, 1, 48, 92
4, 53558, Note_off_c, 1, 48, 64
4, 53568, Note_on_c, 1, 41, 93
4, 53606, Note_off_c, 1, 41, 64
4, 53616, Note_on_c, 1, 48, 92
4, 53654, Note_off_c, 1, 48, 64
4, 53664, Note_on_c, 1, 41, 93
4, 53702, Note_off_c, 1, 41, 64
4, 53712, Note_on_c, 1, 48, 92
4, 53750, Note_off_c, 1, 48, 64
4, 53760, Note_on_c, 1, 41, 93
4, 53798, Note_off_c, 1, 41, 64
4, 53808, Note_on_c, 1, 48, 92
4, 53846, Note_off_c, 1, 48, 64
4, 53856, Note_on_c, 1, 41, 93
4, 53894, Note_off_c, 1, 41, 64
4, 53904, Note_on_c, 1, 48, 92
4, 53942, Note_off_c, 1, 48, 64
4, 53952, Note_on_c, 1, 41, 93
4, 53990, Note_off_c, 1, 41, 64
4, 54000, Note_on_c, 1, 48, 92
4, 54038, Note_off_c, 1, 48, 64
4, 54048, Note_on_c, 1, 40, 93
4, 54086, Note_off_c, 1, 40, 64
4, 54096, Note_on_c, 1, 48, 92
4, 54134, Note_off_c, 1, 48, 64
4, 54144, Note_on_c, 1, 38, 93
4, 54182, Note_off_c, 1, 38, 64
4, 54192, Note_on_c, 1, 45, 92
4, 54230, Note_off_c, 1, 45, 64
4, 54240, Note_on_c, 1, 38, 93
4, 54278, Note_off_c, 1, 38, 64
4, 54288, Note_on_c, 1, 45, 92
4, 54326, Note_off_c, 1, 45, 64
4, 54336, Note_on_c, 1, 38, 93
4, 54374, Note_off_c, 1, 38, 64
4, 54384, Note_on_c, 1, 45, 92
4, 54422, Note_off_c, 1, 45, 64
4, 54432, Note_on_c, 1, 38, 93
4, 54470, Note_off_c, 1, 38, 64
4, 54480, Note_on_c, 1, 45, 92
4, 54518, Note_off_c, 1, 45, 64
4, 54528, Note_on_c, 1, 36, 93
4, 54566, Note_off_c, 1, 36, 64
4, 54576, Note_on_c, 1, 43, 92
4, 54614, Note_off_c, 1, 43, 64
4, 54624, Note_on_c, 1, 36, 93
4, 54662, Note_off_c, 1, 36, 64
4, 54672, Note_on_c, 1, 43, 92
4, 54710, Note_off_c, 1, 43, 64
4, 54720, Note_on_c, 1, 36, 93
4, 54758, Note_off_c, 1, 36, 64
4, 54768, Note_on_c, 1, 43, 92
4, 54806, Note_off_c, 1, 43, 64
4, 54816, Note_on_c, 1, 36, 93
4, 54854, Note_off_c, 1, 36, 64
4, 54864, Note_on_c, 1, 43, 92
4, 54902, Note_off_c, 1, 43, 64
4, 54912, Note_on_c, 1, 34, 93
4, 54950, Note_off_c, 1, 34, 64
4, 54960, Note_on_c, 1, 41, 92
4, 54998, Note_off_c, 1, 41, 64
4, 55008, Note_on_c, 1, 46, 92
4, 55046, Note_off_c, 1, 46, 64
4, 55056, Note_on_c, 1, 41, 92
4, 55094, Note_off_c, 1, 41, 64
4, 55104, Note_on_c, 1, 34, 93
4, 55142, Note_off_c, 1, 34, 64
4, 55152, Note_on_c, 1, 41, 92
4, 55190, Note_off_c, 1, 41, 64
4, 55200, Note_on_c, 1, 46, 92
4, 55238, Note_off_c, 1, 46, 64
4, 55248, Note_on_c, 1, 41, 92
4, 55286, Note_off_c, 1, 41, 64
4, 55296, Note_on_c, 1, 47, 86
4, 55296, Note_on_c, 1, 52, 86
4, 55296, Note_on_c, 1, 40, 86
4, 55382, Note_off_c, 1, 47, 64
4, 55382, Note_off_c, 1, 52, 64
4, 55382, Note_off_c, 1, 40, 64
4, 55392, Note_on_c, 1, 52, 82
4, 55392, Note_on_c, 1, 40, 82
4, 55392, Note_on_c, 1, 47, 82
4, 55478, Note_off_c, 1, 52, 64
4, 55478, Note_off_c, 1, 40, 64
4, 55478, Note_off_c, 1, 47, 64
4, 55488, Note_on_c, 1, 52, 81
4, 55488, Note_on_c, 1, 40, 81
4, 55488, Note_on_c, 1, 47, 81
4, 55574, Note_off_c, 1, 52, 64
4, 55574, Note_off_c, 1, 40, 64
4, 55574, Note_off_c, 1, 47, 64
4, 55584, Note_on_c, 1, 47, 81
4, 55584, Note_on_c, 1, 40, 81
4, 55584, Note_on_c, 1, 52, 81
4, 55670, Note_off_c, 1, 47, 64
4, 55670, Note_off_c, 1, 40, 64
4, 55670, Note_off_c, 1, 52, 64
4, 55680, Note_on_c, 1, 42, 88
4, 55718, Note_off_c, 1, 42, 64
4, 55728, Note_on_c, 1, 54, 95
4, 55766, Note_off_c, 1, 54, 64
4, 55776, Note_on_c, 1, 49, 98
4, 55814, Note_off_c, 1, 49, 64
4, 55824, Note_on_c, 1, 54, 98
4, 55862, Note_off_c, 1, 54, 64
4, 55872, Note_on_c, 1, 38, 98
4, 55910, Note_off_c, 1, 38, 64
4, 55920, Note_on_c, 1, 50, 98
4, 55958, Note_off_c, 1, 50, 64
4, 55968, Note_on_c, 1, 45, 98
4, 56006, Note_off_c, 1, 45, 64
4, 56016, Note_on_c, 1, 50, 98
4, 56054, Note_off_c, 1, 50, 64
4, 56064, Note_on_c, 1, 40, 98
4, 56102, Note_off_c, 1, 40, 64
4, 56112, Note_on_c, 1, 52, 98
4, 56150, Note_off_c, 1, 52, 64
4, 56160, Note_on_c, 1, 47, 98
4, 56198, Note_off_c, 1, 47, 64
4, 56208, Note_on_c, 1, 52, 98
4, 56246, Note_off_c, 1, 52, 64
4, 56256, Note_on_c, 1, 52, 98
4, 56256, Note_on_c, 1, 45, 98
4, 56256, Note_on_c, 1, 57, 98
4, 56342, Note_off_c, 1, 52, 64
4, 56342, Note_off_c, 1, 45, 64
4, 56342, Note_off_c, 1, 57, 64
4, 56352, Note_on_c, 1, 56, 98
4, 56352, Note_on_c, 1, 52, 98
4, 56352, Note_on_c, 1, 44, 98
4, 56438, Note_off_c, 1, 56, 64
4, 56438, Note_off_c, 1, 52, 64
4, 56438, Note_off_c, 1, 44, 64
4, 56448, Note_on_c, 1, 42, 98
4, 56486, Note_off_c, 1, 42, 64
4, 56496, Note_on_c, 1, 54, 98
4, 56534, Note_off_c, 1, 54, 64
4, 56544, Note_on_c, 1, 49, 98
4, 56582, Note_off_c, 1, 49, 64
4, 56592, Note_on_c, 1, 54, 98
4, 56630, Note_off_c, 1, 54, 64
4, 56640, Note_on_c, 1, 38, 98
4, 56678, Note_off_c, 1, 38, 64
4, 56688, Note_on_c, 1, 50, 98
4, 56726, Note_off_c, 1, 50, 64
4, 56736, Note_on_c, 1, 45, 98
4, 56774, Note_off_c, 1, 45, 64
4, 56784, Note_on_c, 1, 50, 98
4, 56822, Note_off_c, 1, 50, 64
4, 56832, Note_on_c, 1, 40, 98
4, 56870, Note_off_c, 1, 40, 64
4, 56880, Note_on_c, 1, 52, 98
4, 56918, Note_off_c, 1, 52, 64
4, 56928, Note_on_c, 1, 47, 98
4, 56966, Note_off_c, 1, 47, 64
4, 56976, Note_on_c, 1, 52, 98
4, 57014, Note_off_c, 1, 52, 64
4, 57024, Note_on_c, 1, 44, 98
4, 57024, Note_on_c, 1, 49, 98
4, 57024, Note_on_c, 1, 37, 98
4, 57110, Note_off_c, 1, 44, 64
4, 57110, Note_off_c, 1, 49, 64
4, 57110, Note_off_c, 1, 37, 64
4, 57120, Note_on_c, 1, 49, 98
4, 57120, Note_on_c, 1, 37, 98
4, 57120, Note_on_c, 1, 44, 98
4, 57206, Note_off_c, 1, 49, 64
4, 57206, Note_off_c, 1, 37, 64
4, 57206, Note_off_c, 1, 44, 64
4, 57216, Note_on_c, 1, 45, 98
4, 57254, Note_off_c, 1, 45, 64
4, 57264, Note_on_c, 1, 57, 98
4, 57302, Note_off_c, 1, 57, 64
4, 57312, Note_on_c, 1, 52, 98
4, 57350, Note_off_c, 1, 52, 64
4, 57360, Note_on_c, 1, 57, 98
4, 57398, Note_off_c, 1, 57, 64
4, 57408, Note_on_c, 1, 41, 98
4, 57446, Note_off_c, 1, 41, 64
4, 57456, Note_on_c, 1, 53, 98
4, 57494, Note_off_c, 1, 53, 64
4, 57504, Note_on_c, 1, 48, 98
4, 57542, Note_off_c, 1, 48, 64
4, 57552, Note_on_c, 1, 53, 98
4, 57590, Note_off_c, 1, 53, 64
4, 57600, Note_on_c, 1, 43, 98
4, 57638, Note_off_c, 1, 43, 64
4, 57648, Note_on_c, 1, 55, 98
4, 57686, Note_off_c, 1, 55, 64
4, 57696, Note_on_c, 1, 50, 98
4, 57734, Note_off_c, 1, 50, 64
4, 57744, Note_on_c, 1, 55, 98
4, 57782, Note_off_c, 1, 55, 64
4, 57792, Note_on_c, 1, 55, 98
4, 57792, Note_on_c, 1, 60, 98
4, 57792, Note_on_c, 1, 48, 98
4, 57878, Note_off_c, 1, 55, 64
4, 57878, Note_off_c, 1, 60, 64
4, 57878, Note_off_c, 1, 48, 64
4, 57888, Note_on_c, 1, 47, 98
4, 57888, Note_on_c, 1, 55, 98
4, 57888, Note_on_c, 1, 59, 98
4, 57974, Note_off_c, 1, 47, 64
4, 57974, Note_off_c, 1, 55, 64
4, 57974, Note_off_c, 1, 59, 64
4, 57984, Note_on_c, 1, 45, 98
4, 58022, Note_off_c, 1, 45, 64
4, 58032, Note_on_c, 1, 57, 98
4, 58070, Note_off_c, 1, 57, 64
4, 58080, Note_on_c, 1, 52, 98
4, 58118, Note_off_c, 1, 52, 64
4, 58128, Note_on_c, 1, 57, 98
4, 58166, Note_off_c, 1, 57, 64
4, 58176, Note_on_c, 1, 41, 98
4, 58214, Note_off_c, 1, 41, 64
4, 58224, Note_on_c, 1, 53, 98
4, 58262, Note_off_c, 1, 53, 64
4, 58272, Note_on_c, 1, 48, 98
4, 58310, Note_off_c, 1, 48, 64
4, 58320, Note_on_c, 1, 53, 98
4, 58358, Note_off_c, 1, 53, 64
4, 58368, Note_on_c, 1, 47, 91
4, 58368, Note_on_c, 1, 40, 91
4, 58368, Note_on_c, 1, 52, 91
4, 58454, Note_off_c, 1, 47, 64
4, 58454, Note_off_c, 1, 40, 64
4, 58454, Note_off_c, 1, 52, 64
4, 58464, Note_on_c, 1, 40, 91
4, 58464, Note_on_c, 1, 52, 91
4, 58464, Note_on_c, 1, 47, 91
4, 58550, Note_off_c, 1, 40, 64
4, 58550, Note_off_c, 1, 52, 64
4, 58550, Note_off_c, 1, 47, 64
4, 58560, Note_on_c, 1, 40, 91
4, 58560, Note_on_c, 1, 47, 91
4, 58560, Note_on_c, 1, 52, 91
4, 58646, Note_off_c, 1, 40, 64
4, 58646, Note_off_c, 1, 47, 64
4, 58646, Note_off_c, 1, 52, 64
4, 58656, Note_on_c, 1, 47, 91
4, 58656, Note_on_c, 1, 52, 91
4, 58656, Note_on_c, 1, 40, 91
4, 58742, Note_off_c, 1, 47, 64
4, 58742, Note_off_c, 1, 52, 64
4, 58742, Note_off_c, 1, 40, 64
4, 58752, Note_on_c, 1, 41, 88
4, 58752, Note_on_c, 1, 48, 88
4, 58752, Note_on_c, 1, 53, 88
4, 58838, Note_off_c, 1, 41, 64
4, 58838, Note_off_c, 1, 48, 64
4, 58838, Note_off_c, 1, 53, 64
4, 58848, Note_on_c, 1, 41, 88
4, 58848, Note_on_c, 1, 48, 88
4, 58848, Note_on_c, 1, 53, 88
4, 58934, Note_off_c, 1, 41, 64
4, 58934, Note_off_c, 1, 48, 64
4, 58934, Note_off_c, 1, 53, 64
4, 58944, Note_on_c, 1, 53, 90
4, 58944, Note_on_c, 1, 48, 90
4, 58944, Note_on_c, 1, 41, 90
4, 59030, Note_off_c, 1, 53, 64
4, 59030, Note_off_c, 1, 48, 64
4, 59030, Note_off_c, 1, 41, 64
4, 59040, Note_on_c, 1, 41, 92
4, 59040, Note_on_c, 1, 48, 92
4, 59040, Note_on_c, 1, 53, 92
4, 59126, Note_off_c, 1, 53, 64
4, 59126, Note_off_c, 1, 41, 64
4, 59126, Note_off_c, 1, 48, 64
4, 59136, Note_on_c, 1, 40, 91
4, 59136, Note_on_c, 1, 47, 91
4, 59136, Note_on_c, 1, 52, 91
4, 59222, Note_off_c, 1, 40, 64
4, 59222, Note_off_c, 1, 47, 64
4, 59222, Note_off_c, 1, 52, 64
4, 59232, Note_on_c, 1, 52, 91
4, 59232, Note_on_c, 1, 47, 91
4, 59232, Note_on_c, 1, 40, 91
4, 59318, Note_off_c, 1, 52, 64
4, 59318, Note_off_c, 1, 47, 64
4, 59318, Note_off_c, 1, 40, 64
4, 59328, Note_on_c, 1, 52, 89
4, 59328, Note_on_c, 1, 47, 89
4, 59328, Note_on_c, 1, 40, 89
4, 59414, Note_off_c, 1, 52, 64
4, 59414, Note_off_c, 1, 47, 64
4, 59414, Note_off_c, 1, 40, 64
4, 59424, Note_on_c, 1, 52, 88
4, 59424, Note_on_c, 1, 47, 88
4, 59424, Note_on_c, 1, 40, 88
4, 59510, Note_off_c, 1, 52, 64
4, 59510, Note_off_c, 1, 47, 64
4, 59510, Note_off_c, 1, 40, 64
4, 59520, Note_on_c, 1, 33, 88
4, 59520, Note_on_c, 1, 45, 88
4, 59606, Note_off_c, 1, 33, 64
4, 59606, Note_off_c, 1, 45, 64
4, 59616, Note_on_c, 1, 45, 88
4, 59616, Note_on_c, 1, 52, 88
4, 59702, Note_off_c, 1, 45, 64
4, 59702, Note_off_c, 1, 52, 64
4, 59712, Note_on_c, 1, 35, 89
4, 59712, Note_on_c, 1, 47, 89
4, 59798, Note_off_c, 1, 35, 64
4, 59798, Note_off_c, 1, 47, 64
4, 59808, Note_on_c, 1, 47, 90
4, 59808, Note_on_c, 1, 54, 90
4, 59894, Note_off_c, 1, 47, 64
4, 59894, Note_off_c, 1, 54, 64
4, 59904, Note_on_c, 1, 36, 91
4, 59904, Note_on_c, 1, 48, 91
4, 59990, Note_off_c, 1, 36, 64
4, 59990, Note_off_c, 1, 48, 64
4, 60000, Note_on_c, 1, 55, 92
4, 60000, Note_on_c, 1, 48, 92
4, 60086, Note_off_c, 1, 48, 64
4, 60086, Note_off_c, 1, 55, 64
4, 60096, Note_on_c, 1, 49, 93
4, 60096, Note_on_c, 1, 37, 93
4, 60278, Note_off_c, 1, 49, 64
4, 60278, Note_off_c, 1, 37, 64
4, 60288, Note_on_c, 1, 50, 95
4, 60288, Note_on_c, 1, 38, 95
4, 60374, Note_off_c, 1, 50, 64
4, 60374, Note_off_c, 1, 38, 64
4, 60384, Note_on_c, 1, 57, 95
4, 60384, Note_on_c, 1, 50, 95
4, 60470, Note_off_c, 1, 57, 64
4, 60470, Note_off_c, 1, 50, 64
4, 60480, Note_on_c, 1, 51, 92
4, 60480, Note_on_c, 1, 39, 92
4, 60566, Note_off_c, 1, 51, 64
4, 60566, Note_off_c, 1, 39, 64
4, 60576, Note_on_c, 1, 51, 93
4, 60576, Note_on_c, 1, 57, 93
4, 60662, Note_off_c, 1, 51, 64
4, 60662, Note_off_c, 1, 57, 64
4, 60672, Note_on_c, 1, 52, 92
4, 60672, Note_on_c, 1, 47, 92
4, 60672, Note_on_c, 1, 40, 92
4, 60758, Note_off_c, 1, 52, 64
4, 60758, Note_off_c, 1, 47, 64
4, 60758, Note_off_c, 1, 40, 64
4, 60768, Note_on_c, 1, 40, 92
4, 60768, Note_on_c, 1, 52, 92
4, 60768, Note_on_c, 1, 47, 92
4, 60854, Note_off_c, 1, 47, 64
4, 60854, Note_off_c, 1, 52, 64
4, 60854, Note_off_c, 1, 40, 64
4, 60864, Note_on_c, 1, 52, 91
4, 60864, Note_on_c, 1, 47, 91
4, 60864, Note_on_c, 1, 40, 91
4, 60950, Note_off_c, 1, 52, 64
4, 60950, Note_off_c, 1, 47, 64
4, 60950, Note_off_c, 1, 40, 64
4, 60960, Note_on_c, 1, 40, 89
4, 60960, Note_on_c, 1, 52, 89
4, 60960, Note_on_c, 1, 47, 89
4, 61046, Note_off_c, 1, 47, 64
4, 61046, Note_off_c, 1, 52, 64
4, 61046, Note_off_c, 1, 40, 64
4, 61056, Note_on_c, 1, 45, 88
4, 61056, Note_on_c, 1, 52, 88
4, 61056, Note_on_c, 1, 57, 88
4, 61238, Note_off_c, 1, 45, 64
4, 61238, Note_off_c, 1, 52, 64
4, 61238, Note_off_c, 1, 57, 64
4, 61248, Note_on_c, 1, 55, 84
4, 61248, Note_on_c, 1, 50, 84
4, 61248, Note_on_c, 1, 43, 84
4, 61430, Note_off_c, 1, 55, 64
4, 61430, Note_off_c, 1, 50, 64
4, 61430, Note_off_c, 1, 43, 64
4, 61440, Note_on_c, 1, 60, 86
4, 61440, Note_on_c, 1, 55, 86
4, 61440, Note_on_c, 1, 48, 86
4, 61622, Note_off_c, 1, 60, 64
4, 61622, Note_off_c, 1, 55, 64
4, 61622, Note_off_c, 1, 48, 64
4, 61632, Note_on_c, 1, 60, 84
4, 61632, Note_on_c, 1, 55, 84
4, 61632, Note_on_c, 1, 48, 84
4, 61814, Note_off_c, 1, 60, 64
4, 61814, Note_off_c, 1, 55, 64
4, 61814, Note_off_c, 1, 48, 64
4, 61824, Note_on_c, 1, 41, 81
4, 61824, Note_on_c, 1, 48, 81
4, 61824, Note_on_c, 1, 53, 81
4, 62006, Note_off_c, 1, 41, 64
4, 62006, Note_off_c, 1, 48, 64
4, 62006, Note_off_c, 1, 53, 64
4, 62016, Note_on_c, 1, 43, 83
4, 62016, Note_on_c, 1, 50, 83
4, 62016, Note_on_c, 1, 55, 83
4, 62198, Note_off_c, 1, 43, 64
4, 62198, Note_off_c, 1, 50, 64
4, 62198, Note_off_c, 1, 55, 64
4, 62208, Note_on_c, 1, 48, 79
4, 62208, Note_on_c, 1, 55, 79
4, 62208, Note_on_c, 1, 60, 79
4, 62390, Note_off_c, 1, 48, 64
4, 62390, Note_off_c, 1, 55, 64
4, 62390, Note_off_c, 1, 60, 64
4, 62400, Note_on_c, 1, 55, 81
4, 62400, Note_on_c, 1, 60, 81
4, 62400, Note_on_c, 1, 48, 81
4, 62486, Note_off_c, 1, 55, 64
4, 62486, Note_off_c, 1, 60, 64
4, 62486, Note_off_c, 1, 48, 64
4, 62496, Note_on_c, 1, 59, 76
4, 62496, Note_on_c, 1, 55, 76
4, 62496, Note_on_c, 1, 47, 76
4, 62582, Note_off_c, 1, 47, 64
4, 62582, Note_off_c, 1, 59, 64
4, 62582, Note_off_c, 1, 55, 64
4, 62592, Note_on_c, 1, 69, 75
4, 62630, Note_off_c, 1, 69, 64
4, 62640, Note_on_c, 1, 64, 74
4, 62678, Note_off_c, 1, 64, 64
4, 62688, Note_on_c, 1, 69, 74
4, 62726, Note_off_c, 1, 69, 64
4, 62736, Note_on_c, 1, 72, 74
4, 62774, Note_off_c, 1, 72, 64
4, 62784, Note_on_c, 1, 71, 73
4, 62822, Note_off_c, 1, 71, 64
4, 62832, Note_on_c, 1, 67, 73
4, 62870, Note_off_c, 1, 67, 64
4, 62880, Note_on_c, 1, 71, 73
4, 62918, Note_off_c, 1, 71, 64
4, 62928, Note_on_c, 1, 74, 73
4, 62966, Note_off_c, 1, 74, 64
4, 62976, Note_on_c, 1, 72, 73
4, 63014, Note_off_c, 1, 72, 64
4, 63024, Note_on_c, 1, 67, 73
4, 63062, Note_off_c, 1, 67, 64
4, 63072, Note_on_c, 1, 72, 73
4, 63110, Note_off_c, 1, 72, 64
4, 63120, Note_on_c, 1, 76, 73
4, 63158, Note_off_c, 1, 76, 64
4, 63168, Note_on_c, 1, 72, 74
4, 63206, Note_off_c, 1, 72, 64
4, 63216, Note_on_c, 1, 67, 75
4, 63254, Note_off_c, 1, 67, 64
4, 63264, Note_on_c, 1, 60, 76
4, 63350, Note_off_c, 1, 60, 64
4, 63360, Note_on_c, 1, 53, 93
4, 63360, Note_on_c, 1, 48, 93
4, 63360, Note_on_c, 1, 41, 93
4, 63446, Note_off_c, 1, 53, 64
4, 63446, Note_off_c, 1, 48, 64
4, 63446, Note_off_c, 1, 41, 64
4, 63456, Note_on_c, 1, 53, 94
4, 63456, Note_on_c, 1, 48, 94
4, 63456, Note_on_c, 1, 41, 94
4, 63542, Note_off_c, 1, 53, 64
4, 63542, Note_off_c, 1, 48, 64
4, 63542, Note_off_c, 1, 41, 64
4, 63552, Note_on_c, 1, 50, 94
4, 63552, Note_on_c, 1, 55, 94
4, 63552, Note_on_c, 1, 43, 94
4, 63734, Note_off_c, 1, 50, 64
4, 63734, Note_off_c, 1, 55, 64
4, 63734, Note_off_c, 1, 43, 64
4, 63744, Note_on_c, 1, 52, 95
4, 63744, Note_on_c, 1, 47, 95
4, 63744, Note_on_c, 1, 40, 95
4, 63830, Note_off_c, 1, 52, 64
4, 63830, Note_off_c, 1, 47, 64
4, 63830, Note_off_c, 1, 40, 64
4, 63840, Note_on_c, 1, 40, 97
4, 63840, Note_on_c, 1, 52, 97
4, 63840, Note_on_c, 1, 47, 97
4, 63926, Note_off_c, 1, 47, 64
4, 63926, Note_off_c, 1, 52, 64
4, 63926, Note_off_c, 1, 40, 64
4, 63936, Note_on_c, 1, 52, 98
4, 63936, Note_on_c, 1, 47, 98
4, 63936, Note_on_c, 1, 40, 98
4, 64022, Note_off_c, 1, 52, 64
4, 64022, Note_off_c, 1, 47, 64
4, 64022, Note_off_c, 1, 40, 64
4, 64032, Note_on_c, 1, 52, 99
4, 64032, Note_on_c, 1, 47, 99
4, 64032, Note_on_c, 1, 40, 99
4, 64118, Note_off_c, 1, 40, 64
4, 64118, Note_off_c, 1, 47, 64
4, 64118, Note_off_c, 1, 52, 64
4, 64128, Note_on_c, 1, 48, 102
4, 64166, Note_off_c, 1, 48, 64
4, 64176, Note_on_c, 1, 60, 102
4, 64176, Note_on_c, 1, 55, 97
4, 64214, Note_off_c, 1, 60, 64
4, 64214, Note_off_c, 1, 55, 64
4, 64224, Note_on_c, 1, 48, 102
4, 64262, Note_off_c, 1, 48, 64
4, 64272, Note_on_c, 1, 55, 97
4, 64272, Note_on_c, 1, 60, 102
4, 64310, Note_off_c, 1, 55, 64
4, 64310, Note_off_c, 1, 60, 64
4, 64320, Note_on_c, 1, 46, 102
4, 64358, Note_off_c, 1, 46, 64
4, 64368, Note_on_c, 1, 58, 102
4, 64368, Note_on_c, 1, 53, 97
4, 64406, Note_off_c, 1, 58, 64
4, 64406, Note_off_c, 1, 53, 64
4, 64416, Note_on_c, 1, 46, 102
4, 64454, Note_off_c, 1, 46, 64
4, 64464, Note_on_c, 1, 53, 97
4, 64464, Note_on_c, 1, 58, 102
4, 64502, Note_off_c, 1, 53, 64
4, 64502, Note_off_c, 1, 58, 64
4, 64512, Note_on_c, 1, 39, 102
4, 64550, Note_off_c, 1, 39, 64
4, 64560, Note_on_c, 1, 51, 102
4, 64560, Note_on_c, 1, 46, 97
4, 64598, Note_off_c, 1, 51, 64
4, 64598, Note_off_c, 1, 46, 64
4, 64608, Note_on_c, 1, 39, 102
4, 64646, Note_off_c, 1, 39, 64
4, 64656, Note_on_c, 1, 46, 97
4, 64656, Note_on_c, 1, 51, 102
4, 64694, Note_off_c, 1, 46, 64
4, 64694, Note_off_c, 1, 51, 64
4, 64704, Note_on_c, 1, 39, 102
4, 64742, Note_off_c, 1, 39, 64
4, 64752, Note_on_c, 1, 46, 97
4, 64752, Note_on_c, 1, 51, 102
4, 64790, Note_off_c, 1, 46, 64
4, 64790, Note_off_c, 1, 51, 64
4, 64800, Note_on_c, 1, 39, 102
4, 64838, Note_off_c, 1, 39, 64
4, 64848, Note_on_c, 1, 46, 97
4, 64848, Note_on_c, 1, 51, 102
4, 64886, Note_off_c, 1, 46, 64
4, 64886, Note_off_c, 1, 51, 64
4, 64896, Note_on_c, 1, 44, 102
4, 64934, Note_off_c, 1, 44, 64
4, 64944, Note_on_c, 1, 51, 97
4, 64944, Note_on_c, 1, 56, 102
4, 64982, Note_off_c, 1, 51, 64
4, 64982, Note_off_c, 1, 56, 64
4, 64992, Note_on_c, 1, 44, 102
4, 65030, Note_off_c, 1, 44, 64
4, 65040, Note_on_c, 1, 56, 102
4, 65040, Note_on_c, 1, 51, 97
4, 65078, Note_off_c, 1, 56, 64
4, 65078, Note_off_c, 1, 51, 64
4, 65088, Note_on_c, 1, 46, 102
4, 65126, Note_off_c, 1, 46, 64
4, 65136, Note_on_c, 1, 53, 97
4, 65136, Note_on_c, 1, 58, 102
4, 65174, Note_off_c, 1, 53, 64
4, 65174, Note_off_c, 1, 58, 64
4, 65184, Note_on_c, 1, 46, 102
4, 65222, Note_off_c, 1, 46, 64
4, 65232, Note_on_c, 1, 53, 97
4, 65232, Note_on_c, 1, 58, 102
4, 65270, Note_off_c, 1, 53, 64
4, 65270, Note_off_c, 1, 58, 64
4, 65280, Note_on_c, 1, 39, 102
4, 65318, Note_off_c, 1, 39, 64
4, 65328, Note_on_c, 1, 46, 97
4, 65328, Note_on_c, 1, 51, 102
4, 65366, Note_off_c, 1, 46, 64
4, 65366, Note_off_c, 1, 51, 64
4, 65376, Note_on_c, 1, 39, 102
4, 65414, Note_off_c, 1, 39, 64
4, 65424, Note_on_c, 1, 46, 97
4, 65424, Note_on_c, 1, 51, 102
4, 65462, Note_off_c, 1, 46, 64
4, 65462, Note_off_c, 1, 51, 64
4, 65472, Note_on_c, 1, 39, 102
4, 65510, Note_off_c, 1, 39, 64
4, 65520, Note_on_c, 1, 51, 102
4, 65520, Note_on_c, 1, 46, 97
4, 65558, Note_off_c, 1, 51, 64
4, 65558, Note_off_c, 1, 46, 64
4, 65568, Note_on_c, 1, 39, 102
4, 65606, Note_off_c, 1, 39, 64
4, 65616, Note_on_c, 1, 51, 102
4, 65616, Note_on_c, 1, 46, 97
4, 65654, Note_off_c, 1, 51, 64
4, 65654, Note_off_c, 1, 46, 64
4, 65664, Note_on_c, 1, 36, 102
4, 65702, Note_off_c, 1, 36, 64
4, 65712, Note_on_c, 1, 43, 97
4, 65712, Note_on_c, 1, 48, 102
4, 65750, Note_off_c, 1, 43, 64
4, 65750, Note_off_c, 1, 48, 64
4, 65760, Note_on_c, 1, 36, 102
4, 65798, Note_off_c, 1, 36, 64
4, 65808, Note_on_c, 1, 48, 102
4, 65808, Note_on_c, 1, 43, 97
4, 65846, Note_off_c, 1, 48, 64
4, 65846, Note_off_c, 1, 43, 64
4, 65856, Note_on_c, 1, 38, 102
4, 65894, Note_off_c, 1, 38, 64
4, 65904, Note_on_c, 1, 50, 102
4, 65904, Note_on_c, 1, 46, 97
4, 65942, Note_off_c, 1, 50, 64
4, 65942, Note_off_c, 1, 46, 64
4, 65952, Note_on_c, 1, 38, 102
4, 65990, Note_off_c, 1, 38, 64
4, 66000, Note_on_c, 1, 50, 102
4, 66000, Note_on_c, 1, 46, 97
4, 66038, Note_off_c, 1, 50, 64
4, 66038, Note_off_c, 1, 46, 64
4, 66048, Note_on_c, 1, 39, 102
4, 66086, Note_off_c, 1, 39, 64
4, 66096, Note_on_c, 1, 51, 102
4, 66096, Note_on_c, 1, 46, 97
4, 66134, Note_off_c, 1, 51, 64
4, 66134, Note_off_c, 1, 46, 64
4, 66144, Note_on_c, 1, 39, 102
4, 66182, Note_off_c, 1, 39, 64
4, 66192, Note_on_c, 1, 51, 102
4, 66192, Note_on_c, 1, 46, 97
4, 66230, Note_off_c, 1, 51, 64
4, 66230, Note_off_c, 1, 46, 64
4, 66240, Note_on_c, 1, 39, 102
4, 66278, Note_off_c, 1, 39, 64
4, 66288, Note_on_c, 1, 46, 97
4, 66288, Note_on_c, 1, 51, 102
4, 66326, Note_off_c, 1, 46, 64
4, 66326, Note_off_c, 1, 51, 64
4, 66336, Note_on_c, 1, 39, 102
4, 66374, Note_off_c, 1, 39, 64
4, 66384, Note_on_c, 1, 46, 97
4, 66384, Note_on_c, 1, 51, 102
4, 66422, Note_off_c, 1, 46, 64
4, 66422, Note_off_c, 1, 51, 64
4, 66432, Note_on_c, 1, 44, 102
4, 66432, Note_on_c, 1, 51, 102
4, 66432, Note_on_c, 1, 56, 102
4, 66518, Note_off_c, 1, 44, 64
4, 66518, Note_off_c, 1, 51, 64
4, 66518, Note_off_c, 1, 56, 64
4, 66816, Note_on_c, 1, 36, 102
4, 66854, Note_off_c, 1, 36, 64
4, 66864, Note_on_c, 1, 43, 97
4, 66864, Note_on_c, 1, 48, 99
4, 66902, Note_off_c, 1, 43, 64
4, 66902, Note_off_c, 1, 48, 64
4, 66912, Note_on_c, 1, 36, 102
4, 66950, Note_off_c, 1, 36, 64
4, 66960, Note_on_c, 1, 43, 97
4, 66960, Note_on_c, 1, 48, 99
4, 66998, Note_off_c, 1, 43, 64
4, 66998, Note_off_c, 1, 48, 64
4, 67008, Note_on_c, 1, 36, 102
4, 67046, Note_off_c, 1, 36, 64
4, 67056, Note_on_c, 1, 43, 97
4, 67056, Note_on_c, 1, 48, 99
4, 67094, Note_off_c, 1, 43, 64
4, 67094, Note_off_c, 1, 48, 64
4, 67104, Note_on_c, 1, 36, 102
4, 67142, Note_off_c, 1, 36, 64
4, 67152, Note_on_c, 1, 48, 99
4, 67152, Note_on_c, 1, 43, 97
4, 67190, Note_off_c, 1, 48, 64
4, 67190, Note_off_c, 1, 43, 64
4, 67200, Note_on_c, 1, 36, 102
4, 67238, Note_off_c, 1, 36, 64
4, 67248, Note_on_c, 1, 43, 97
4, 67248, Note_on_c, 1, 48, 99
4, 67286, Note_off_c, 1, 43, 64
4, 67286, Note_off_c, 1, 48, 64
4, 67296, Note_on_c, 1, 36, 102
4, 67334, Note_off_c, 1, 36, 64
4, 67344, Note_on_c, 1, 48, 99
4, 67344, Note_on_c, 1, 43, 97
4, 67382, Note_off_c, 1, 48, 64
4, 67382, Note_off_c, 1, 43, 64
4, 67392, Note_on_c, 1, 36, 102
4, 67430, Note_off_c, 1, 36, 64
4, 67440, Note_on_c, 1, 43, 97
4, 67440, Note_on_c, 1, 48, 99
4, 67478, Note_off_c, 1, 43, 64
4, 67478, Note_off_c, 1, 48, 64
4, 67488, Note_on_c, 1, 36, 102
4, 67526, Note_off_c, 1, 36, 64
4, 67536, Note_on_c, 1, 48, 99
4, 67536, Note_on_c, 1, 43, 97
4, 67574, Note_off_c, 1, 48, 64
4, 67574, Note_off_c, 1, 43, 64
4, 67584, Note_on_c, 1, 36, 102
4, 67622, Note_off_c, 1, 36, 64
4, 67632, Note_on_c, 1, 43, 97
4, 67632, Note_on_c, 1, 48, 99
4, 67670, Note_off_c, 1, 43, 64
4, 67670, Note_off_c, 1, 48, 64
4, 67680, Note_on_c, 1, 36, 102
4, 67718, Note_off_c, 1, 36, 64
4, 67728, Note_on_c, 1, 43, 97
4, 67728, Note_on_c, 1, 48, 99
4, 67766, Note_off_c, 1, 43, 64
4, 67766, Note_off_c, 1, 48, 64
4, 67776, Note_on_c, 1, 36, 102
4, 67814, Note_off_c, 1, 36, 64
4, 67824, Note_on_c, 1, 48, 99
4, 67824, Note_on_c, 1, 43, 97
4, 67862, Note_off_c, 1, 48, 64
4, 67862, Note_off_c, 1, 43, 64
4, 67872, Note_on_c, 1, 36, 102
4, 67910, Note_off_c, 1, 36, 64
4, 67920, Note_on_c, 1, 39, 97
4, 67920, Note_on_c, 1, 44, 102
4, 67920, Note_on_c, 1, 32, 102
4, 68006, Note_off_c, 1, 39, 64
4, 68006, Note_off_c, 1, 44, 64
4, 68006, Note_off_c, 1, 32, 64
4, 68016, Note_on_c, 1, 32, 102
4, 68016, Note_on_c, 1, 39, 97
4, 68016, Note_on_c, 1, 44, 102
4, 68102, Note_off_c, 1, 32, 64
4, 68102, Note_off_c, 1, 39, 64
4, 68102, Note_off_c, 1, 44, 64
4, 68112, Note_on_c, 1, 31, 102
4, 68112, Note_on_c, 1, 38, 97
4, 68112, Note_on_c, 1, 43, 102
4, 68198, Note_off_c, 1, 31, 64
4, 68198, Note_off_c, 1, 38, 64
4, 68198, Note_off_c, 1, 43, 64
4, 68208, Note_on_c, 1, 43, 102
4, 68208, Note_on_c, 1, 31, 102
4, 68208, Note_on_c, 1, 38, 97
4, 68294, Note_off_c, 1, 43, 64
4, 68294, Note_off_c, 1, 31, 64
4, 68294, Note_off_c, 1, 38, 64
4, 68304, Note_on_c, 1, 39, 102
4, 68304, Note_on_c, 1, 51, 99
4, 68390, Note_off_c, 1, 39, 64
4, 68390, Note_off_c, 1, 51, 64
4, 68400, Note_on_c, 1, 46, 97
4, 68400, Note_on_c, 1, 51, 99
4, 68438, Note_off_c, 1, 46, 64
4, 68438, Note_off_c, 1, 51, 64
4, 68448, Note_on_c, 1, 39, 102
4, 68486, Note_off_c, 1, 39, 64
4, 68496, Note_on_c, 1, 46, 97
4, 68496, Note_on_c, 1, 51, 99
4, 68534, Note_off_c, 1, 46, 64
4, 68534, Note_off_c, 1, 51, 64
4, 68544, Note_on_c, 1, 39, 102
4, 68582, Note_off_c, 1, 39, 64
4, 68592, Note_on_c, 1, 51, 99
4, 68592, Note_on_c, 1, 46, 97
4, 68630, Note_off_c, 1, 51, 64
4, 68630, Note_off_c, 1, 46, 64
4, 68640, Note_on_c, 1, 39, 102
4, 68678, Note_off_c, 1, 39, 64
4, 68688, Note_on_c, 1, 51, 99
4, 68688, Note_on_c, 1, 46, 97
4, 68726, Note_off_c, 1, 51, 64
4, 68726, Note_off_c, 1, 46, 64
4, 68736, Note_on_c, 1, 39, 102
4, 68774, Note_off_c, 1, 39, 64
4, 68784, Note_on_c, 1, 51, 99
4, 68784, Note_on_c, 1, 46, 97
4, 68822, Note_off_c, 1, 51, 64
4, 68822, Note_off_c, 1, 46, 64
4, 68832, Note_on_c, 1, 39, 102
4, 68870, Note_off_c, 1, 39, 64
4, 68880, Note_on_c, 1, 51, 99
4, 68880, Note_on_c, 1, 46, 97
4, 68918, Note_off_c, 1, 51, 64
4, 68918, Note_off_c, 1, 46, 64
4, 68928, Note_on_c, 1, 39, 102
4, 68966, Note_off_c, 1, 39, 64
4, 68976, Note_on_c, 1, 46, 97
4, 68976, Note_on_c, 1, 51, 99
4, 69014, Note_off_c, 1, 46, 64
4, 69014, Note_off_c, 1, 51, 64
4, 69024, Note_on_c, 1, 39, 102
4, 69062, Note_off_c, 1, 39, 64
4, 69072, Note_on_c, 1, 51, 99
4, 69072, Note_on_c, 1, 46, 97
4, 69110, Note_off_c, 1, 51, 64
4, 69110, Note_off_c, 1, 46, 64
4, 69120, Note_on_c, 1, 39, 102
4, 69158, Note_off_c, 1, 39, 64
4, 69168, Note_on_c, 1, 51, 99
4, 69168, Note_on_c, 1, 46, 97
4, 69206, Note_off_c, 1, 51, 64
4, 69206, Note_off_c, 1, 46, 64
4, 69216, Note_on_c, 1, 39, 102
4, 69254, Note_off_c, 1, 39, 64
4, 69264, Note_on_c, 1, 51, 99
4, 69264, Note_on_c, 1, 46, 97
4, 69302, Note_off_c, 1, 51, 64
4, 69302, Note_off_c, 1, 46, 64
4, 69312, Note_on_c, 1, 39, 102
4, 69350, Note_off_c, 1, 39, 64
4, 69360, Note_on_c, 1, 46, 97
4, 69360, Note_on_c, 1, 51, 99
4, 69398, Note_off_c, 1, 46, 64
4, 69398, Note_off_c, 1, 51, 64
4, 69408, Note_on_c, 1, 39, 102
4, 69446, Note_off_c, 1, 39, 64
4, 69456, Note_on_c, 1, 35, 102
4, 69456, Note_on_c, 1, 42, 97
4, 69456, Note_on_c, 1, 47, 102
4, 69542, Note_off_c, 1, 35, 64
4, 69542, Note_off_c, 1, 42, 64
4, 69542, Note_off_c, 1, 47, 64
4, 69552, Note_on_c, 1, 47, 102
4, 69552, Note_on_c, 1, 42, 97
4, 69552, Note_on_c, 1, 35, 102
4, 69638, Note_off_c, 1, 47, 64
4, 69638, Note_off_c, 1, 42, 64
4, 69638, Note_off_c, 1, 35, 64
4, 69648, Note_on_c, 1, 49, 102
4, 69648, Note_on_c, 1, 44, 102
4, 69648, Note_on_c, 1, 37, 102
4, 69734, Note_off_c, 1, 49, 64
4, 69734, Note_off_c, 1, 44, 64
4, 69734, Note_off_c, 1, 37, 64
4, 69744, Note_on_c, 1, 46, 102
4, 69744, Note_on_c, 1, 50, 102
4, 69744, Note_on_c, 1, 38, 102
4, 69830, Note_off_c, 1, 46, 64
4, 69830, Note_off_c, 1, 50, 64
4, 69830, Note_off_c, 1, 38, 64
4, 69840, Note_on_c, 1, 38, 102
4, 69840, Note_on_c, 1, 50, 102
4, 69840, Note_on_c, 1, 46, 102
4, 69878, Note_off_c, 1, 38, 64
4, 69878, Note_off_c, 1, 50, 64
4, 69878, Note_off_c, 1, 46, 64
4, 69888, Note_on_c, 1, 51, 102
4, 69888, Note_on_c, 1, 46, 102
4, 69888, Note_on_c, 1, 39, 102
4, 70066, Note_off_c, 1, 51, 64
4, 70066, Note_off_c, 1, 46, 64
4, 70066, Note_off_c, 1, 39, 64
4, 70656, Note_on_c, 1, 41, 92
4, 70656, Note_on_c, 1, 53, 92
4, 70691, Note_off_c, 1, 41, 0
4, 70691, Note_off_c, 1, 53, 0
4, 70704, Note_on_c, 1, 48, 92
4, 70739, Note_off_c, 1, 48, 0
4, 70752, Note_on_c, 1, 53, 92
4, 70787, Note_off_c, 1, 53, 0
4, 70800, Note_on_c, 1, 57, 92
4, 70883, Note_off_c, 1, 57, 0
4, 70896, Note_on_c, 1, 48, 92
4, 70931, Note_off_c, 1, 48, 0
4, 70944, Note_on_c, 1, 53, 92
4, 71027, Note_off_c, 1, 53, 0
4, 71040, Note_on_c, 1, 41, 92
4, 71075, Note_off_c, 1, 41, 0
4, 71088, Note_on_c, 1, 48, 92
4, 71123, Note_off_c, 1, 48, 0
4, 71136, Note_on_c, 1, 53, 92
4, 71171, Note_off_c, 1, 53, 0
4, 71184, Note_on_c, 1, 57, 92
4, 71267, Note_off_c, 1, 57, 0
4, 71280, Note_on_c, 1, 48, 92
4, 71315, Note_off_c, 1, 48, 0
4, 71328, Note_on_c, 1, 53, 92
4, 71411, Note_off_c, 1, 53, 0
4, 71424, Note_on_c, 1, 45, 92
4, 71424, Note_on_c, 1, 57, 92
4, 71459, Note_off_c, 1, 45, 0
4, 71459, Note_off_c, 1, 57, 0
4, 71472, Note_on_c, 1, 52, 92
4, 71507, Note_off_c, 1, 52, 0
4, 71520, Note_on_c, 1, 57, 92
4, 71555, Note_off_c, 1, 57, 0
4, 71568, Note_on_c, 1, 60, 92
4, 71651, Note_off_c, 1, 60, 0
4, 71664, Note_on_c, 1, 52, 92
4, 71699, Note_off_c, 1, 52, 0
4, 71712, Note_on_c, 1, 57, 92
4, 71795, Note_off_c, 1, 57, 0
4, 71808, Note_on_c, 1, 45, 92
4, 71843, Note_off_c, 1, 45, 0
4, 71856, Note_on_c, 1, 52, 92
4, 71891, Note_off_c, 1, 52, 0
4, 71904, Note_on_c, 1, 57, 92
4, 71939, Note_off_c, 1, 57, 0
4, 71952, Note_on_c, 1, 60, 92
4, 72035, Note_off_c, 1, 60, 0
4, 72048, Note_on_c, 1, 52, 92
4, 72083, Note_off_c, 1, 52, 0
4, 72096, Note_on_c, 1, 57, 92
4, 72179, Note_off_c, 1, 57, 0
4, 72192, Note_on_c, 1, 46, 92
4, 72192, Note_on_c, 1, 58, 92
4, 72227, Note_off_c, 1, 46, 0
4, 72227, Note_off_c, 1, 58, 0
4, 72240, Note_on_c, 1, 53, 92
4, 72275, Note_off_c, 1, 53, 0
4, 72288, Note_on_c, 1, 58, 92
4, 72323, Note_off_c, 1, 58, 0
4, 72336, Note_on_c, 1, 62, 92
4, 72419, Note_off_c, 1, 62, 0
4, 72432, Note_on_c, 1, 53, 92
4, 72467, Note_off_c, 1, 53, 0
4, 72480, Note_on_c, 1, 58, 92
4, 72563, Note_off_c, 1, 58, 0
4, 72576, Note_on_c, 1, 46, 92
4, 72611, Note_off_c, 1, 46, 0
4, 72624, Note_on_c, 1, 53, 92
4, 72659, Note_off_c, 1, 53, 0
4, 72672, Note_on_c, 1, 58, 92
4, 72707, Note_off_c, 1, 58, 0
4, 72720, Note_on_c, 1, 62, 92
4, 72803, Note_off_c, 1, 62, 0
4, 72816, Note_on_c, 1, 53, 92
4, 72851, Note_off_c, 1, 53, 0
4, 72864, Note_on_c, 1, 58, 92
4, 72947, Note_off_c, 1, 58, 0
4, 72960, Note_on_c, 1, 46, 92
4, 72960, Note_on_c, 1, 58, 92
4, 72995, Note_off_c, 1, 46, 0
4, 72995, Note_off_c, 1, 58, 0
4, 73008, Note_on_c, 1, 53, 92
4, 73043, Note_off_c, 1, 53, 0
4, 73056, Note_on_c, 1, 58, 92
4, 73091, Note_off_c, 1, 58, 0
4, 73104, Note_on_c, 1, 61, 92
4, 73187, Note_off_c, 1, 61, 0
4, 73200, Note_on_c, 1, 53, 92
4, 73235, Note_off_c, 1, 53, 0
4, 73248, Note_on_c, 1, 58, 92
4, 73331, Note_off_c, 1, 58, 0
4, 73344, Note_on_c, 1, 46, 92
4, 73379, Note_off_c, 1, 46, 0
4, 73392, Note_on_c, 1, 53, 92
4, 73427, Note_off_c, 1, 53, 0
4, 73440, Note_on_c, 1, 58, 92
4, 73475, Note_off_c, 1, 58, 0
4, 73488, Note_on_c, 1, 61, 92
4, 73571, Note_off_c, 1, 61, 0
4, 73584, Note_on_c, 1, 53, 92
4, 73619, Note_off_c, 1, 53, 0
4, 73632, Note_on_c, 1, 58, 92
4, 73715, Note_off_c, 1, 58, 0
4, 73728, Note_on_c, 1, 41, 92
4, 73728, Note_on_c, 1, 53, 92
4, 73763, Note_off_c, 1, 41, 0
4, 73763, Note_off_c, 1, 53, 0
4, 73776, Note_on_c, 1, 48, 92
4, 73811, Note_off_c, 1, 48, 0
4, 73824, Note_on_c, 1, 53, 92
4, 73859, Note_off_c, 1, 53, 0
4, 73872, Note_on_c, 1, 57, 92
4, 73907, Note_off_c, 1, 57, 0
4, 73920, Note_on_c, 1, 60, 92
4, 74099, Note_off_c, 1, 60, 0
4, 74112, Note_on_c, 1, 41, 93
4, 74147, Note_off_c, 1, 41, 0
4, 74160, Note_on_c, 1, 48, 93
4, 74195, Note_off_c, 1, 48, 0
4, 74208, Note_on_c, 1, 53, 93
4, 74243, Note_off_c, 1, 53, 0
4, 74256, Note_on_c, 1, 57, 93
4, 74483, Note_off_c, 1, 57, 0
4, 74496, Note_on_c, 1, 33, 93
4, 74496, Note_on_c, 1, 45, 93
4, 74531, Note_off_c, 1, 33, 0
4, 74531, Note_off_c, 1, 45, 0
4, 74544, Note_on_c, 1, 40, 93
4, 74579, Note_off_c, 1, 40, 0
4, 74592, Note_on_c, 1, 45, 93
4, 74627, Note_off_c, 1, 45, 0
4, 74640, Note_on_c, 1, 48, 93
4, 74675, Note_off_c, 1, 48, 0
4, 74688, Note_on_c, 1, 52, 93
4, 74867, Note_off_c, 1, 52, 0
4, 74880, Note_on_c, 1, 33, 93
4, 74915, Note_off_c, 1, 33, 0
4, 74928, Note_on_c, 1, 40, 93
4, 74963, Note_off_c, 1, 40, 0
4, 74976, Note_on_c, 1, 45, 93
4, 75011, Note_off_c, 1, 45, 0
4, 75024, Note_on_c, 1, 48, 93
4, 75251, Note_off_c, 1, 48, 0
4, 75264, Note_on_c, 1, 34, 93
4, 75264, Note_on_c, 1, 46, 93
4, 75299, Note_off_c, 1, 34, 0
4, 75299, Note_off_c, 1, 46, 0
4, 75312, Note_on_c, 1, 41, 93
4, 75347, Note_off_c, 1, 41, 0
4, 75360, Note_on_c, 1, 46, 93
4, 75395, Note_off_c, 1, 46, 0
4, 75408, Note_on_c, 1, 50, 93
4, 75635, Note_off_c, 1, 50, 0
4, 75648, Note_on_c, 1, 34, 93
4, 75683, Note_off_c, 1, 34, 0
4, 75696, Note_on_c, 1, 41, 93
4, 75731, Note_off_c, 1, 41, 0
4, 75744, Note_on_c, 1, 46, 93
4, 75779, Note_off_c, 1, 46, 0
4, 75792, Note_on_c, 1, 50, 93
4, 75875, Note_off_c, 1, 50, 0
4, 75888, Note_on_c, 1, 46, 93
4, 75923, Note_off_c, 1, 46, 0
4, 75936, Note_on_c, 1, 41, 93
4, 76019, Note_off_c, 1, 41, 0
4, 76032, Note_on_c, 1, 34, 93
4, 76032, Note_on_c, 1, 46, 93
4, 76067, Note_off_c, 1, 34, 0
4, 76067, Note_off_c, 1, 46, 0
4, 76080, Note_on_c, 1, 41, 93
4, 76115, Note_off_c, 1, 41, 0
4, 76128, Note_on_c, 1, 46, 93
4, 76163, Note_off_c, 1, 46, 0
4, 76176, Note_on_c, 1, 49, 93
4, 76403, Note_off_c, 1, 49, 0
4, 76416, Note_on_c, 1, 34, 93
4, 76451, Note_off_c, 1, 34, 0
4, 76464, Note_on_c, 1, 41, 93
4, 76499, Note_off_c, 1, 41, 0
4, 76512, Note_on_c, 1, 46, 93
4, 76547, Note_off_c, 1, 46, 0
4, 76560, Note_on_c, 1, 49, 93
4, 76643, Note_off_c, 1, 49, 0
4, 76656, Note_on_c, 1, 46, 93
4, 76691, Note_off_c, 1, 46, 0
4, 76704, Note_on_c, 1, 41, 93
4, 76787, Note_off_c, 1, 41, 0
4, 76800, Note_on_c, 1, 41, 93
4, 76800, Note_on_c, 1, 53, 93
4, 76835, Note_off_c, 1, 41, 0
4, 76835, Note_off_c, 1, 53, 0
4, 76848, Note_on_c, 1, 48, 93
4, 76883, Note_off_c, 1, 48, 0
4, 76896, Note_on_c, 1, 53, 93
4, 76931, Note_off_c, 1, 53, 0
4, 76944, Note_on_c, 1, 57, 93
4, 76979, Note_off_c, 1, 57, 0
4, 76992, Note_on_c, 1, 60, 93
4, 77171, Note_off_c, 1, 60, 0
4, 77184, Note_on_c, 1, 41, 93
4, 77219, Note_off_c, 1, 41, 0
4, 77232, Note_on_c, 1, 48, 93
4, 77267, Note_off_c, 1, 48, 0
4, 77280, Note_on_c, 1, 53, 93
4, 77315, Note_off_c, 1, 53, 0
4, 77328, Note_on_c, 1, 57, 93
4, 77555, Note_off_c, 1, 57, 0
4, 77568, Note_on_c, 1, 33, 93
4, 77568, Note_on_c, 1, 45, 93
4, 77603, Note_off_c, 1, 33, 0
4, 77603, Note_off_c, 1, 45, 0
4, 77616, Note_on_c, 1, 40, 92
4, 77651, Note_off_c, 1, 40, 0
4, 77664, Note_on_c, 1, 45, 92
4, 77699, Note_off_c, 1, 45, 0
4, 77712, Note_on_c, 1, 48, 91
4, 77747, Note_off_c, 1, 48, 0
4, 77760, Note_on_c, 1, 52, 92
4, 77939, Note_off_c, 1, 52, 0
4, 77952, Note_on_c, 1, 33, 94
4, 77987, Note_off_c, 1, 33, 0
4, 78000, Note_on_c, 1, 40, 94
4, 78035, Note_off_c, 1, 40, 0
4, 78048, Note_on_c, 1, 45, 93
4, 78083, Note_off_c, 1, 45, 0
4, 78096, Note_on_c, 1, 48, 91
4, 78179, Note_off_c, 1, 48, 0
4, 78192, Note_on_c, 1, 45, 93
4, 78227, Note_off_c, 1, 45, 0
4, 78240, Note_on_c, 1, 40, 93
4, 78323, Note_off_c, 1, 40, 0
4, 78336, Note_on_c, 1, 34, 93
4, 78336, Note_on_c, 1, 46, 93
4, 78371, Note_off_c, 1, 34, 0
4, 78371, Note_off_c, 1, 46, 0
4, 78384, Note_on_c, 1, 41, 93
4, 78419, Note_off_c, 1, 41, 0
4, 78432, Note_on_c, 1, 46, 93
4, 78467, Note_off_c, 1, 46, 0
4, 78480, Note_on_c, 1, 50, 93
4, 78707, Note_off_c, 1, 50, 0
4, 78720, Note_on_c, 1, 34, 93
4, 78755, Note_off_c, 1, 34, 0
4, 78768, Note_on_c, 1, 41, 93
4, 78803, Note_off_c, 1, 41, 0
4, 78816, Note_on_c, 1, 46, 93
4, 78851, Note_off_c, 1, 46, 0
4, 78864, Note_on_c, 1, 50, 93
4, 78947, Note_off_c, 1, 50, 0
4, 78960, Note_on_c, 1, 46, 93
4, 78995, Note_off_c, 1, 46, 0
4, 79008, Note_on_c, 1, 41, 93
4, 79091, Note_off_c, 1, 41, 0
4, 79104, Note_on_c, 1, 34, 93
4, 79104, Note_on_c, 1, 46, 93
4, 79139, Note_off_c, 1, 34, 0
4, 79139, Note_off_c, 1, 46, 0
4, 79152, Note_on_c, 1, 41, 93
4, 79187, Note_off_c, 1, 41, 0
4, 79200, Note_on_c, 1, 46, 93
4, 79235, Note_off_c, 1, 46, 0
4, 79248, Note_on_c, 1, 49, 93
4, 79475, Note_off_c, 1, 49, 0
4, 79488, Note_on_c, 1, 34, 93
4, 79488, Note_on_c, 1, 41, 93
4, 79488, Note_on_c, 1, 46, 93
4, 79667, Note_off_c, 1, 34, 0
4, 79667, Note_off_c, 1, 41, 0
4, 79667, Note_off_c, 1, 46, 0
4, 79680, Note_on_c, 1, 34, 93
4, 79680, Note_on_c, 1, 41, 93
4, 79680, Note_on_c, 1, 46, 93
4, 79859, Note_off_c, 1, 34, 0
4, 79859, Note_off_c, 1, 41, 0
4, 79859, Note_off_c, 1, 46, 0
4, 79872, Note_on_c, 1, 29, 93
4, 79872, Note_on_c, 1, 41, 93
4, 79955, Note_off_c, 1, 29, 0
4, 79955, Note_off_c, 1, 41, 0
4, 79968, Note_on_c, 1, 41, 93
4, 80003, Note_off_c, 1, 41, 0
4, 80016, Note_on_c, 1, 45, 93
4, 80051, Note_off_c, 1, 45, 0
4, 80064, Note_on_c, 1, 48, 93
4, 80243, Note_off_c, 1, 48, 0
4, 80256, Note_on_c, 1, 29, 93
4, 80291, Note_off_c, 1, 29, 0
4, 80304, Note_on_c, 1, 36, 93
4, 80339, Note_off_c, 1, 36, 0
4, 80352, Note_on_c, 1, 41, 93
4, 80387, Note_off_c, 1, 41, 0
4, 80400, Note_on_c, 1, 45, 93
4, 80435, Note_off_c, 1, 45, 0
4, 80448, Note_on_c, 1, 48, 93
4, 80627, Note_off_c, 1, 48, 0
4, 80640, Note_on_c, 1, 33, 93
4, 80640, Note_on_c, 1, 45, 93
4, 80723, Note_off_c, 1, 33, 0
4, 80723, Note_off_c, 1, 45, 0
4, 80736, Note_on_c, 1, 45, 93
4, 80771, Note_off_c, 1, 45, 0
4, 80784, Note_on_c, 1, 48, 93
4, 80819, Note_off_c, 1, 48, 0
4, 80832, Note_on_c, 1, 52, 93
4, 81011, Note_off_c, 1, 52, 0
4, 81024, Note_on_c, 1, 33, 93
4, 81059, Note_off_c, 1, 33, 0
4, 81072, Note_on_c, 1, 40, 93
4, 81107, Note_off_c, 1, 40, 0
4, 81120, Note_on_c, 1, 45, 93
4, 81155, Note_off_c, 1, 45, 0
4, 81168, Note_on_c, 1, 48, 93
4, 81203, Note_off_c, 1, 48, 0
4, 81216, Note_on_c, 1, 52, 93
4, 81395, Note_off_c, 1, 52, 0
4, 81408, Note_on_c, 1, 34, 93
4, 81408, Note_on_c, 1, 46, 93
4, 81491, Note_off_c, 1, 34, 0
4, 81491, Note_off_c, 1, 46, 0
4, 81504, Note_on_c, 1, 46, 93
4, 81539, Note_off_c, 1, 46, 0
4, 81552, Note_on_c, 1, 50, 93
4, 81587, Note_off_c, 1, 50, 0
4, 81600, Note_on_c, 1, 53, 93
4, 81779, Note_off_c, 1, 53, 0
4, 81792, Note_on_c, 1, 34, 93
4, 81827, Note_off_c, 1, 34, 0
4, 81840, Note_on_c, 1, 41, 93
4, 81875, Note_off_c, 1, 41, 0
4, 81888, Note_on_c, 1, 46, 93
4, 81923, Note_off_c, 1, 46, 0
4, 81936, Note_on_c, 1, 50, 93
4, 81971, Note_off_c, 1, 50, 0
4, 81984, Note_on_c, 1, 53, 93
4, 82163, Note_off_c, 1, 53, 0
4, 82176, Note_on_c, 1, 34, 93
4, 82176, Note_on_c, 1, 46, 93
4, 82259, Note_off_c, 1, 34, 0
4, 82259, Note_off_c, 1, 46, 0
4, 82272, Note_on_c, 1, 46, 93
4, 82307, Note_off_c, 1, 46, 0
4, 82320, Note_on_c, 1, 50, 93
4, 82355, Note_off_c, 1, 50, 0
4, 82368, Note_on_c, 1, 53, 93
4, 82547, Note_off_c, 1, 53, 0
4, 82560, Note_on_c, 1, 34, 93
4, 82595, Note_off_c, 1, 34, 0
4, 82608, Note_on_c, 1, 41, 93
4, 82643, Note_off_c, 1, 41, 0
4, 82656, Note_on_c, 1, 46, 93
4, 82691, Note_off_c, 1, 46, 0
4, 82704, Note_on_c, 1, 50, 93
4, 82739, Note_off_c, 1, 50, 0
4, 82752, Note_on_c, 1, 53, 92
4, 82931, Note_off_c, 1, 53, 0
4, 82944, Note_on_c, 1, 41, 93
4, 82979, Note_off_c, 1, 41, 0
4, 82992, Note_on_c, 1, 48, 93
4, 83027, Note_off_c, 1, 48, 0
4, 83040, Note_on_c, 1, 53, 93
4, 83075, Note_off_c, 1, 53, 0
4, 83088, Note_on_c, 1, 57, 93
4, 83123, Note_off_c, 1, 57, 0
4, 83136, Note_on_c, 1, 60, 93
4, 83171, Note_off_c, 1, 60, 0
4, 83184, Note_on_c, 1, 65, 93
4, 83219, Note_off_c, 1, 65, 0
4, 83232, Note_on_c, 1, 60, 93
4, 83267, Note_off_c, 1, 60, 0
4, 83280, Note_on_c, 1, 57, 93
4, 83315, Note_off_c, 1, 57, 0
4, 83328, Note_on_c, 1, 41, 93
4, 83363, Note_off_c, 1, 41, 0
4, 83376, Note_on_c, 1, 48, 93
4, 83411, Note_off_c, 1, 48, 0
4, 83424, Note_on_c, 1, 53, 93
4, 83459, Note_off_c, 1, 53, 0
4, 83472, Note_on_c, 1, 57, 93
4, 83507, Note_off_c, 1, 57, 0
4, 83520, Note_on_c, 1, 60, 93
4, 83555, Note_off_c, 1, 60, 0
4, 83568, Note_on_c, 1, 65, 93
4, 83603, Note_off_c, 1, 65, 0
4, 83616, Note_on_c, 1, 60, 93
4, 83651, Note_off_c, 1, 60, 0
4, 83664, Note_on_c, 1, 57, 93
4, 83699, Note_off_c, 1, 57, 0
4, 83712, Note_on_c, 1, 33, 93
4, 83712, Note_on_c, 1, 45, 93
4, 83747, Note_off_c, 1, 33, 0
4, 83747, Note_off_c, 1, 45, 0
4, 83760, Note_on_c, 1, 40, 93
4, 83795, Note_off_c, 1, 40, 0
4, 83808, Note_on_c, 1, 45, 93
4, 83843, Note_off_c, 1, 45, 0
4, 83856, Note_on_c, 1, 48, 93
4, 83891, Note_off_c, 1, 48, 0
4, 83904, Note_on_c, 1, 52, 93
4, 83939, Note_off_c, 1, 52, 0
4, 83952, Note_on_c, 1, 57, 93
4, 83987, Note_off_c, 1, 57, 0
4, 84000, Note_on_c, 1, 52, 93
4, 84035, Note_off_c, 1, 52, 0
4, 84048, Note_on_c, 1, 48, 93
4, 84083, Note_off_c, 1, 48, 0
4, 84096, Note_on_c, 1, 33, 93
4, 84131, Note_off_c, 1, 33, 0
4, 84144, Note_on_c, 1, 40, 93
4, 84179, Note_off_c, 1, 40, 0
4, 84192, Note_on_c, 1, 45, 93
4, 84227, Note_off_c, 1, 45, 0
4, 84240, Note_on_c, 1, 48, 93
4, 84275, Note_off_c, 1, 48, 0
4, 84288, Note_on_c, 1, 52, 93
4, 84323, Note_off_c, 1, 52, 0
4, 84336, Note_on_c, 1, 57, 93
4, 84371, Note_off_c, 1, 57, 0
4, 84384, Note_on_c, 1, 52, 93
4, 84419, Note_off_c, 1, 52, 0
4, 84432, Note_on_c, 1, 48, 93
4, 84467, Note_off_c, 1, 48, 0
4, 84480, Note_on_c, 1, 34, 93
4, 84515, Note_off_c, 1, 34, 0
4, 84528, Note_on_c, 1, 41, 93
4, 84563, Note_off_c, 1, 41, 0
4, 84576, Note_on_c, 1, 46, 93
4, 84611, Note_off_c, 1, 46, 0
4, 84624, Note_on_c, 1, 50, 93
4, 84659, Note_off_c, 1, 50, 0
4, 84672, Note_on_c, 1, 53, 93
4, 84707, Note_off_c, 1, 53, 0
4, 84720, Note_on_c, 1, 58, 93
4, 84755, Note_off_c, 1, 58, 0
4, 84768, Note_on_c, 1, 53, 93
4, 84803, Note_off_c, 1, 53, 0
4, 84816, Note_on_c, 1, 50, 93
4, 84851, Note_off_c, 1, 50, 0
4, 84864, Note_on_c, 1, 34, 93
4, 84899, Note_off_c, 1, 34, 0
4, 84912, Note_on_c, 1, 41, 93
4, 84947, Note_off_c, 1, 41, 0
4, 84960, Note_on_c, 1, 46, 93
4, 84995, Note_off_c, 1, 46, 0
4, 85008, Note_on_c, 1, 50, 93
4, 85043, Note_off_c, 1, 50, 0
4, 85056, Note_on_c, 1, 53, 93
4, 85091, Note_off_c, 1, 53, 0
4, 85104, Note_on_c, 1, 58, 93
4, 85139, Note_off_c, 1, 58, 0
4, 85152, Note_on_c, 1, 53, 93
4, 85187, Note_off_c, 1, 53, 0
4, 85200, Note_on_c, 1, 50, 93
4, 85235, Note_off_c, 1, 50, 0
4, 85248, Note_on_c, 1, 34, 93
4, 85248, Note_on_c, 1, 46, 93
4, 85283, Note_off_c, 1, 34, 0
4, 85283, Note_off_c, 1, 46, 0
4, 85296, Note_on_c, 1, 41, 93
4, 85331, Note_off_c, 1, 41, 0
4, 85344, Note_on_c, 1, 46, 93
4, 85379, Note_off_c, 1, 46, 0
4, 85392, Note_on_c, 1, 49, 93
4, 85427, Note_off_c, 1, 49, 0
4, 85440, Note_on_c, 1, 53, 93
4, 85475, Note_off_c, 1, 53, 0
4, 85488, Note_on_c, 1, 58, 93
4, 85523, Note_off_c, 1, 58, 0
4, 85536, Note_on_c, 1, 53, 93
4, 85571, Note_off_c, 1, 53, 0
4, 85584, Note_on_c, 1, 49, 93
4, 85619, Note_off_c, 1, 49, 0
4, 85632, Note_on_c, 1, 34, 93
4, 85667, Note_off_c, 1, 34, 0
4, 85680, Note_on_c, 1, 41, 93
4, 85715, Note_off_c, 1, 41, 0
4, 85728, Note_on_c, 1, 46, 93
4, 85763, Note_off_c, 1, 46, 0
4, 85776, Note_on_c, 1, 49, 93
4, 85811, Note_off_c, 1, 49, 0
4, 85824, Note_on_c, 1, 53, 93
4, 85859, Note_off_c, 1, 53, 0
4, 85872, Note_on_c, 1, 58, 93
4, 85907, Note_off_c, 1, 58, 0
4, 85920, Note_on_c, 1, 53, 93
4, 85955, Note_off_c, 1, 53, 0
4, 85968, Note_on_c, 1, 49, 93
4, 86003, Note_off_c, 1, 49, 0
4, 86016, Note_on_c, 1, 41, 93
4, 86016, Note_on_c, 1, 53, 93
4, 86099, Note_off_c, 1, 41, 0
4, 86099, Note_off_c, 1, 53, 0
4, 86112, Note_on_c, 1, 48, 94
4, 86112, Note_on_c, 1, 53, 94
4, 86147, Note_off_c, 1, 53, 0
4, 86147, Note_off_c, 1, 48, 0
4, 86160, Note_on_c, 1, 41, 94
4, 86243, Note_off_c, 1, 41, 0
4, 86256, Note_on_c, 1, 41, 94
4, 86291, Note_off_c, 1, 41, 0
4, 86304, Note_on_c, 1, 48, 94
4, 86304, Note_on_c, 1, 53, 94
4, 86339, Note_off_c, 1, 48, 0
4, 86339, Note_off_c, 1, 53, 0
4, 86352, Note_on_c, 1, 41, 94
4, 86387, Note_off_c, 1, 41, 0
4, 86400, Note_on_c, 1, 41, 94
4, 86400, Note_on_c, 1, 53, 94
4, 86483, Note_off_c, 1, 41, 0
4, 86483, Note_off_c, 1, 53, 0
4, 86496, Note_on_c, 1, 48, 94
4, 86496, Note_on_c, 1, 53, 94
4, 86531, Note_off_c, 1, 48, 0
4, 86531, Note_off_c, 1, 53, 0
4, 86544, Note_on_c, 1, 41, 94
4, 86627, Note_off_c, 1, 41, 0
4, 86640, Note_on_c, 1, 41, 94
4, 86675, Note_off_c, 1, 41, 0
4, 86688, Note_on_c, 1, 48, 94
4, 86688, Note_on_c, 1, 53, 94
4, 86723, Note_off_c, 1, 53, 0
4, 86723, Note_off_c, 1, 48, 0
4, 86736, Note_on_c, 1, 41, 94
4, 86771, Note_off_c, 1, 41, 0
4, 86784, Note_on_c, 1, 40, 94
4, 86784, Note_on_c, 1, 52, 94
4, 86867, Note_off_c, 1, 40, 0
4, 86867, Note_off_c, 1, 52, 0
4, 86880, Note_on_c, 1, 48, 94
4, 86880, Note_on_c, 1, 52, 94
4, 86915, Note_off_c, 1, 48, 0
4, 86915, Note_off_c, 1, 52, 0
4, 86928, Note_on_c, 1, 40, 94
4, 87011, Note_off_c, 1, 40, 0
4, 87024, Note_on_c, 1, 40, 94
4, 87059, Note_off_c, 1, 40, 0
4, 87072, Note_on_c, 1, 48, 94
4, 87072, Note_on_c, 1, 52, 94
4, 87107, Note_off_c, 1, 48, 0
4, 87107, Note_off_c, 1, 52, 0
4, 87120, Note_on_c, 1, 40, 94
4, 87155, Note_off_c, 1, 40, 0
4, 87168, Note_on_c, 1, 36, 94
4, 87168, Note_on_c, 1, 48, 94
4, 87251, Note_off_c, 1, 36, 0
4, 87251, Note_off_c, 1, 48, 0
4, 87264, Note_on_c, 1, 43, 94
4, 87264, Note_on_c, 1, 48, 94
4, 87299, Note_off_c, 1, 43, 0
4, 87299, Note_off_c, 1, 48, 0
4, 87312, Note_on_c, 1, 36, 94
4, 87395, Note_off_c, 1, 36, 0
4, 87408, Note_on_c, 1, 36, 94
4, 87443, Note_off_c, 1, 36, 0
4, 87456, Note_on_c, 1, 43, 94
4, 87456, Note_on_c, 1, 48, 94
4, 87491, Note_off_c, 1, 43, 0
4, 87491, Note_off_c, 1, 48, 0
4, 87504, Note_on_c, 1, 36, 94
4, 87539, Note_off_c, 1, 36, 0
4, 87552, Note_on_c, 1, 34, 94
4, 87552, Note_on_c, 1, 46, 94
4, 87635, Note_off_c, 1, 34, 0
4, 87635, Note_off_c, 1, 46, 0
4, 87640, Note_on_c, 1, 53, 94
4, 87648, Note_on_c, 1, 58, 91
4, 87648, Note_on_c, 1, 53, 94
4, 87675, Note_off_c, 1, 53, 0
4, 87683, Note_off_c, 1, 53, 0
4, 87683, Note_off_c, 1, 58, 0
4, 87696, Note_on_c, 1, 46, 94
4, 87779, Note_off_c, 1, 46, 0
4, 87792, Note_on_c, 1, 46, 94
4, 87827, Note_off_c, 1, 46, 0
4, 87840, Note_on_c, 1, 53, 94
4, 87840, Note_on_c, 1, 58, 91
4, 87875, Note_off_c, 1, 53, 0
4, 87875, Note_off_c, 1, 58, 0
4, 87888, Note_on_c, 1, 46, 94
4, 87923, Note_off_c, 1, 46, 0
4, 87936, Note_on_c, 1, 34, 94
4, 87936, Note_on_c, 1, 46, 94
4, 88019, Note_off_c, 1, 34, 0
4, 88019, Note_off_c, 1, 46, 0
4, 88032, Note_on_c, 1, 53, 94
4, 88032, Note_on_c, 1, 58, 91
4, 88067, Note_off_c, 1, 53, 0
4, 88067, Note_off_c, 1, 58, 0
4, 88080, Note_on_c, 1, 46, 94
4, 88163, Note_off_c, 1, 46, 0
4, 88176, Note_on_c, 1, 46, 94
4, 88211, Note_off_c, 1, 46, 0
4, 88224, Note_on_c, 1, 53, 94
4, 88224, Note_on_c, 1, 58, 91
4, 88259, Note_off_c, 1, 53, 0
4, 88259, Note_off_c, 1, 58, 0
4, 88272, Note_on_c, 1, 46, 94
4, 88307, Note_off_c, 1, 46, 0
4, 88320, Note_on_c, 1, 34, 94
4, 88320, Note_on_c, 1, 46, 94
4, 88403, Note_off_c, 1, 34, 0
4, 88403, Note_off_c, 1, 46, 0
4, 88416, Note_on_c, 1, 53, 94
4, 88416, Note_on_c, 1, 58, 91
4, 88451, Note_off_c, 1, 58, 0
4, 88451, Note_off_c, 1, 53, 0
4, 88464, Note_on_c, 1, 46, 94
4, 88547, Note_off_c, 1, 46, 0
4, 88560, Note_on_c, 1, 46, 94
4, 88595, Note_off_c, 1, 46, 0
4, 88608, Note_on_c, 1, 53, 94
4, 88608, Note_on_c, 1, 58, 91
4, 88643, Note_off_c, 1, 58, 0
4, 88643, Note_off_c, 1, 53, 0
4, 88656, Note_on_c, 1, 46, 94
4, 88691, Note_off_c, 1, 46, 0
4, 88704, Note_on_c, 1, 34, 94
4, 88704, Note_on_c, 1, 46, 94
4, 88787, Note_off_c, 1, 34, 0
4, 88787, Note_off_c, 1, 46, 0
4, 88800, Note_on_c, 1, 53, 94
4, 88800, Note_on_c, 1, 58, 91
4, 88835, Note_off_c, 1, 53, 0
4, 88835, Note_off_c, 1, 58, 0
4, 88848, Note_on_c, 1, 46, 94
4, 88931, Note_off_c, 1, 46, 0
4, 88944, Note_on_c, 1, 46, 94
4, 88979, Note_off_c, 1, 46, 0
4, 88992, Note_on_c, 1, 53, 94
4, 88992, Note_on_c, 1, 58, 91
4, 89027, Note_off_c, 1, 58, 0
4, 89027, Note_off_c, 1, 53, 0
4, 89040, Note_on_c, 1, 46, 94
4, 89075, Note_off_c, 1, 46, 0
4, 89856, Note_on_c, 1, 44, 104
4, 89856, Note_on_c, 1, 32, 104
4, 90000, Note_off_c, 1, 44, 0
4, 90000, Note_off_c, 1, 32, 0
4, 90000, Note_on_c, 1, 56, 104
4, 90000, Note_on_c, 1, 48, 104
4, 90000, Note_on_c, 1, 44, 104
4, 90000, Note_on_c, 1, 32, 104
4, 90096, Note_off_c, 1, 56, 0
4, 90096, Note_off_c, 1, 48, 0
4, 90144, Note_off_c, 1, 32, 0
4, 90144, Note_off_c, 1, 44, 0
4, 90144, Note_on_c, 1, 51, 104
4, 90240, Note_off_c, 1, 51, 0
4, 90240, Note_on_c, 1, 46, 104
4, 90240, Note_on_c, 1, 34, 104
4, 90384, Note_off_c, 1, 34, 0
4, 90384, Note_off_c, 1, 46, 0
4, 90384, Note_on_c, 1, 58, 104
4, 90384, Note_on_c, 1, 50, 104
4, 90384, Note_on_c, 1, 46, 104
4, 90528, Note_off_c, 1, 46, 0
4, 90528, Note_off_c, 1, 50, 0
4, 90528, Note_off_c, 1, 58, 0
4, 90528, Note_on_c, 1, 53, 103
4, 90624, Note_off_c, 1, 53, 0
4, 90624, Note_on_c, 1, 36, 94
4, 90672, Note_off_c, 1, 36, 0
4, 90672, Note_on_c, 1, 48, 96
4, 90720, Note_off_c, 1, 48, 0
4, 90720, Note_on_c, 1, 36, 96
4, 90768, Note_off_c, 1, 36, 0
4, 90768, Note_on_c, 1, 48, 96
4, 90816, Note_off_c, 1, 48, 0
4, 90816, Note_on_c, 1, 36, 96
4, 90864, Note_off_c, 1, 36, 0
4, 90864, Note_on_c, 1, 48, 96
4, 90912, Note_off_c, 1, 48, 0
4, 90912, Note_on_c, 1, 36, 96
4, 90960, Note_off_c, 1, 36, 0
4, 90960, Note_on_c, 1, 48, 96
4, 91008, Note_off_c, 1, 48, 0
4, 91008, Note_on_c, 1, 36, 96
4, 91056, Note_off_c, 1, 36, 0
4, 91056, Note_on_c, 1, 48, 96
4, 91104, Note_off_c, 1, 48, 0
4, 91104, Note_on_c, 1, 36, 96
4, 91152, Note_off_c, 1, 36, 0
4, 91152, Note_on_c, 1, 48, 96
4, 91200, Note_off_c, 1, 48, 0
4, 91200, Note_on_c, 1, 36, 96
4, 91248, Note_off_c, 1, 36, 0
4, 91248, Note_on_c, 1, 48, 96
4, 91296, Note_off_c, 1, 48, 0
4, 91296, Note_on_c, 1, 36, 96
4, 91344, Note_off_c, 1, 36, 0
4, 91344, Note_on_c, 1, 48, 96
4, 91392, Note_off_c, 1, 48, 0
4, 91392, Note_on_c, 1, 32, 96
4, 91440, Note_off_c, 1, 32, 0
4, 91440, Note_on_c, 1, 44, 96
4, 91488, Note_off_c, 1, 44, 0
4, 91488, Note_on_c, 1, 32, 96
4, 91536, Note_off_c, 1, 32, 0
4, 91536, Note_on_c, 1, 44, 96
4, 91584, Note_off_c, 1, 44, 0
4, 91584, Note_on_c, 1, 32, 96
4, 91632, Note_off_c, 1, 32, 0
4, 91632, Note_on_c, 1, 44, 96
4, 91680, Note_off_c, 1, 44, 0
4, 91680, Note_on_c, 1, 32, 96
4, 91728, Note_off_c, 1, 32, 0
4, 91728, Note_on_c, 1, 44, 96
4, 91776, Note_off_c, 1, 44, 0
4, 91776, Note_on_c, 1, 32, 96
4, 91824, Note_off_c, 1, 32, 0
4, 91824, Note_on_c, 1, 44, 96
4, 91872, Note_off_c, 1, 44, 0
4, 91872, Note_on_c, 1, 32, 96
4, 91920, Note_off_c, 1, 32, 0
4, 91920, Note_on_c, 1, 44, 96
4, 91968, Note_off_c, 1, 44, 0
4, 91968, Note_on_c, 1, 32, 96
4, 92016, Note_off_c, 1, 32, 0
4, 92016, Note_on_c, 1, 44, 96
4, 92064, Note_off_c, 1, 44, 0
4, 92064, Note_on_c, 1, 32, 96
4, 92112, Note_off_c, 1, 32, 0
4, 92112, Note_on_c, 1, 44, 96
4, 92160, Note_off_c, 1, 44, 0
4, 92160, Note_on_c, 1, 36, 96
4, 92208, Note_off_c, 1, 36, 0
4, 92208, Note_on_c, 1, 48, 96
4, 92256, Note_off_c, 1, 48, 0
4, 92256, Note_on_c, 1, 36, 96
4, 92304, Note_off_c, 1, 36, 0
4, 92304, Note_on_c, 1, 48, 96
4, 92352, Note_off_c, 1, 48, 0
4, 92352, Note_on_c, 1, 36, 96
4, 92400, Note_off_c, 1, 36, 0
4, 92400, Note_on_c, 1, 48, 96
4, 92448, Note_off_c, 1, 48, 0
4, 92448, Note_on_c, 1, 36, 96
4, 92496, Note_off_c, 1, 36, 0
4, 92496, Note_on_c, 1, 48, 96
4, 92544, Note_off_c, 1, 48, 0
4, 92544, Note_on_c, 1, 36, 96
4, 92592, Note_off_c, 1, 36, 0
4, 92592, Note_on_c, 1, 48, 96
4, 92640, Note_off_c, 1, 48, 0
4, 92640, Note_on_c, 1, 36, 96
4, 92688, Note_off_c, 1, 36, 0
4, 92688, Note_on_c, 1, 48, 96
4, 92736, Note_off_c, 1, 48, 0
4, 92736, Note_on_c, 1, 36, 96
4, 92784, Note_off_c, 1, 36, 0
4, 92784, Note_on_c, 1, 48, 96
4, 92832, Note_off_c, 1, 48, 0
4, 92832, Note_on_c, 1, 36, 96
4, 92880, Note_off_c, 1, 36, 0
4, 92880, Note_on_c, 1, 48, 96
4, 92928, Note_off_c, 1, 48, 0
4, 92928, Note_on_c, 1, 32, 96
4, 92976, Note_off_c, 1, 32, 0
4, 92976, Note_on_c, 1, 44, 96
4, 93024, Note_off_c, 1, 44, 0
4, 93024, Note_on_c, 1, 32, 96
4, 93072, Note_off_c, 1, 32, 0
4, 93072, Note_on_c, 1, 44, 96
4, 93120, Note_off_c, 1, 44, 0
4, 93120, Note_on_c, 1, 32, 96
4, 93168, Note_off_c, 1, 32, 0
4, 93168, Note_on_c, 1, 44, 96
4, 93216, Note_off_c, 1, 44, 0
4, 93216, Note_on_c, 1, 32, 96
4, 93264, Note_off_c, 1, 32, 0
4, 93264, Note_on_c, 1, 44, 97
4, 93312, Note_off_c, 1, 44, 0
4, 93312, Note_on_c, 1, 32, 97
4, 93408, Note_off_c, 1, 32, 0
4, 93408, Note_on_c, 1, 32, 97
4, 93456, Note_off_c, 1, 32, 0
4, 93456, Note_on_c, 1, 44, 97
4, 93504, Note_off_c, 1, 44, 0
4, 93504, Note_on_c, 1, 32, 97
4, 93552, Note_off_c, 1, 32, 0
4, 93552, Note_on_c, 1, 44, 97
4, 93600, Note_off_c, 1, 44, 0
4, 93600, Note_on_c, 1, 32, 97
4, 93648, Note_off_c, 1, 32, 0
4, 93648, Note_on_c, 1, 44, 97
4, 93648, Note_on_c, 1, 32, 97
4, 93696, Note_off_c, 1, 32, 0
4, 93696, Note_off_c, 1, 44, 0
4, 93696, Note_on_c, 1, 29, 97
4, 93744, Note_off_c, 1, 29, 0
4, 93744, Note_on_c, 1, 41, 97
4, 93792, Note_off_c, 1, 41, 0
4, 93792, Note_on_c, 1, 29, 97
4, 93840, Note_off_c, 1, 29, 0
4, 93840, Note_on_c, 1, 41, 97
4, 93888, Note_off_c, 1, 41, 0
4, 93888, Note_on_c, 1, 29, 97
4, 93936, Note_off_c, 1, 29, 0
4, 93936, Note_on_c, 1, 41, 97
4, 93984, Note_off_c, 1, 41, 0
4, 93984, Note_on_c, 1, 29, 97
4, 94032, Note_off_c, 1, 29, 0
4, 94032, Note_on_c, 1, 41, 97
4, 94080, Note_off_c, 1, 41, 0
4, 94080, Note_on_c, 1, 34, 97
4, 94128, Note_off_c, 1, 34, 0
4, 94128, Note_on_c, 1, 46, 97
4, 94176, Note_off_c, 1, 46, 0
4, 94176, Note_on_c, 1, 34, 97
4, 94224, Note_off_c, 1, 34, 0
4, 94224, Note_on_c, 1, 46, 97
4, 94272, Note_off_c, 1, 46, 0
4, 94272, Note_on_c, 1, 34, 97
4, 94320, Note_off_c, 1, 34, 0
4, 94320, Note_on_c, 1, 46, 97
4, 94368, Note_off_c, 1, 46, 0
4, 94368, Note_on_c, 1, 34, 96
4, 94416, Note_off_c, 1, 34, 0
4, 94416, Note_on_c, 1, 46, 96
4, 94464, Note_off_c, 1, 46, 0
4, 94464, Note_on_c, 1, 39, 96
4, 94512, Note_off_c, 1, 39, 0
4, 94512, Note_on_c, 1, 51, 96
4, 94560, Note_off_c, 1, 51, 0
4, 94560, Note_on_c, 1, 39, 96
4, 94608, Note_off_c, 1, 39, 0
4, 94608, Note_on_c, 1, 51, 96
4, 94656, Note_off_c, 1, 51, 0
4, 94656, Note_on_c, 1, 39, 96
4, 94704, Note_off_c, 1, 39, 0
4, 94704, Note_on_c, 1, 51, 96
4, 94752, Note_off_c, 1, 51, 0
4, 94752, Note_on_c, 1, 39, 96
4, 94800, Note_off_c, 1, 39, 0
4, 94800, Note_on_c, 1, 51, 96
4, 94848, Note_off_c, 1, 51, 0
4, 94848, Note_on_c, 1, 32, 96
4, 94896, Note_off_c, 1, 32, 0
4, 94896, Note_on_c, 1, 44, 96
4, 94944, Note_off_c, 1, 44, 0
4, 94944, Note_on_c, 1, 32, 96
4, 94992, Note_off_c, 1, 32, 0
4, 94992, Note_on_c, 1, 44, 96
4, 95040, Note_off_c, 1, 44, 0
4, 95040, Note_on_c, 1, 32, 96
4, 95088, Note_off_c, 1, 32, 0
4, 95088, Note_on_c, 1, 44, 96
4, 95136, Note_off_c, 1, 44, 0
4, 95136, Note_on_c, 1, 32, 96
4, 95232, Note_off_c, 1, 32, 0
4, 95232, Note_on_c, 1, 50, 95
4, 95232, Note_on_c, 1, 38, 95
4, 95376, Note_off_c, 1, 38, 0
4, 95376, Note_off_c, 1, 50, 0
4, 95376, Note_on_c, 1, 53, 95
4, 95376, Note_on_c, 1, 50, 95
4, 95520, Note_off_c, 1, 50, 0
4, 95520, Note_off_c, 1, 53, 0
4, 95520, Note_on_c, 1, 56, 95
4, 95616, Note_off_c, 1, 56, 0
4, 95616, Note_on_c, 1, 60, 96
4, 95712, Note_off_c, 1, 60, 0
4, 95760, Note_on_c, 1, 50, 96
4, 95760, Note_on_c, 1, 38, 96
4, 95904, Note_off_c, 1, 38, 0
4, 95904, Note_off_c, 1, 50, 0
4, 95904, Note_on_c, 1, 48, 97
4, 96000, Note_off_c, 1, 48, 0
4, 96000, Note_on_c, 1, 43, 97
4, 96000, Note_on_c, 1, 31, 97
4, 96096, Note_off_c, 1, 31, 0
4, 96096, Note_off_c, 1, 43, 0
4, 96096, Note_on_c, 1, 43, 99
4, 96192, Note_off_c, 1, 43, 0
4, 96192, Note_on_c, 1, 48, 100
4, 96288, Note_off_c, 1, 48, 0
4, 96288, Note_on_c, 1, 50, 102
4, 96384, Note_off_c, 1, 50, 0
4, 96384, Note_on_c, 1, 55, 103
4, 96384, Note_on_c, 1, 50, 103
4, 96384, Note_on_c, 1, 47, 103
4, 96384, Note_on_c, 1, 43, 103
4, 96576, Note_off_c, 1, 43, 0
4, 96576, Note_off_c, 1, 55, 0
4, 96576, Note_off_c, 1, 50, 0
4, 96576, Note_off_c, 1, 47, 0
4, 96576, Note_on_c, 1, 55, 96
4, 96672, Note_off_c, 1, 55, 0
4, 96672, Note_on_c, 1, 43, 100
4, 96768, Note_off_c, 1, 43, 0
4, 96768, Note_on_c, 1, 45, 101
4, 96816, Note_off_c, 1, 45, 0
4, 96816, Note_on_c, 1, 52, 101
4, 96864, Note_off_c, 1, 52, 0
4, 96864, Note_on_c, 1, 57, 101
4, 96912, Note_off_c, 1, 57, 0
4, 96912, Note_on_c, 1, 59, 101
4, 96960, Note_off_c, 1, 59, 0
4, 96960, Note_on_c, 1, 60, 101
4, 97056, Note_off_c, 1, 60, 0
4, 97152, Note_on_c, 1, 41, 101
4, 97200, Note_off_c, 1, 41, 0
4, 97200, Note_on_c, 1, 48, 101
4, 97248, Note_off_c, 1, 48, 0
4, 97248, Note_on_c, 1, 53, 101
4, 97296, Note_off_c, 1, 53, 0
4, 97296, Note_on_c, 1, 55, 101
4, 97440, Note_off_c, 1, 55, 0
4, 97536, Note_on_c, 1, 43, 101
4, 97584, Note_off_c, 1, 43, 0
4, 97584, Note_on_c, 1, 50, 101
4, 97632, Note_off_c, 1, 50, 0
4, 97632, Note_on_c, 1, 55, 101
4, 97680, Note_off_c, 1, 55, 0
4, 97680, Note_on_c, 1, 57, 101
4, 97824, Note_off_c, 1, 57, 0
4, 97824, Note_on_c, 1, 59, 101
4, 97920, Note_off_c, 1, 59, 0
4, 97920, Note_on_c, 1, 48, 101
4, 97920, Note_on_c, 1, 36, 101
4, 98016, Note_off_c, 1, 36, 0
4, 98016, Note_off_c, 1, 48, 0
4, 98016, Note_on_c, 1, 52, 101
4, 98016, Note_on_c, 1, 48, 101
4, 98112, Note_off_c, 1, 48, 0
4, 98112, Note_off_c, 1, 52, 0
4, 98112, Note_on_c, 1, 59, 101
4, 98112, Note_on_c, 1, 55, 101
4, 98112, Note_on_c, 1, 47, 101
4, 98208, Note_off_c, 1, 47, 0
4, 98208, Note_off_c, 1, 55, 0
4, 98208, Note_off_c, 1, 59, 0
4, 98208, Note_on_c, 1, 59, 101
4, 98304, Note_off_c, 1, 59, 0
4, 98304, Note_on_c, 1, 53, 101
4, 98304, Note_on_c, 1, 41, 101
4, 98352, Note_off_c, 1, 41, 0
4, 98352, Note_off_c, 1, 53, 0
4, 98352, Note_on_c, 1, 48, 101
4, 98400, Note_off_c, 1, 48, 0
4, 98400, Note_on_c, 1, 53, 101
4, 98448, Note_off_c, 1, 53, 0
4, 98448, Note_on_c, 1, 55, 101
4, 98496, Note_off_c, 1, 55, 0
4, 98496, Note_on_c, 1, 57, 101
4, 98592, Note_off_c, 1, 57, 0
4, 98688, Note_on_c, 1, 42, 101
4, 98688, Note_on_c, 1, 30, 101
4, 98832, Note_off_c, 1, 42, 0
4, 98832, Note_off_c, 1, 30, 0
4, 98832, Note_on_c, 1, 54, 101
4, 98832, Note_on_c, 1, 50, 101
4, 98832, Note_on_c, 1, 42, 101
4, 98976, Note_off_c, 1, 50, 0
4, 98976, Note_off_c, 1, 54, 0
4, 98976, Note_off_c, 1, 42, 0
4, 98976, Note_on_c, 1, 54, 101
4, 99072, Note_off_c, 1, 54, 0
4, 99072, Note_on_c, 1, 43, 101
4, 99072, Note_on_c, 1, 31, 101
4, 99120, Note_off_c, 1, 31, 0
4, 99120, Note_off_c, 1, 43, 0
4, 99120, Note_on_c, 1, 38, 101
4, 99168, Note_off_c, 1, 38, 0
4, 99168, Note_on_c, 1, 43, 102
4, 99216, Note_off_c, 1, 43, 0
4, 99216, Note_on_c, 1, 45, 102
4, 99264, Note_off_c, 1, 45, 0
4, 99264, Note_on_c, 1, 47, 102
4, 99360, Note_off_c, 1, 47, 0
4, 99360, Note_on_c, 1, 50, 102
4, 99456, Note_off_c, 1, 50, 0
4, 99456, Note_on_c, 1, 44, 102
4, 99456, Note_on_c, 1, 32, 102
4, 99600, Note_off_c, 1, 32, 0
4, 99600, Note_off_c, 1, 44, 0
4, 99600, Note_on_c, 1, 52, 102
4, 99600, Note_on_c, 1, 44, 102
4, 99600, Note_on_c, 1, 32, 102
4, 99696, Note_off_c, 1, 52, 0
4, 99744, Note_off_c, 1, 32, 0
4, 99744, Note_off_c, 1, 44, 0
4, 99744, Note_on_c, 1, 56, 102
4, 99840, Note_off_c, 1, 56, 0
4, 99840, Note_on_c, 1, 40, 102
4, 99840, Note_on_c, 1, 28, 102
4, 99984, Note_off_c, 1, 28, 0
4, 99984, Note_off_c, 1, 40, 0
4, 99984, Note_on_c, 1, 40, 102
4, 100032, Note_off_c, 1, 40, 0
4, 100032, Note_on_c, 1, 52, 102
4, 100128, Note_off_c, 1, 52, 0
4, 100128, Note_on_c, 1, 47, 102
4, 100224, Note_off_c, 1, 47, 0
4, 100224, Note_on_c, 1, 52, 89
4, 100224, Note_on_c, 1, 45, 89
4, 100416, Note_off_c, 1, 45, 0
4, 100416, Note_off_c, 1, 52, 0
4, 100416, Note_on_c, 1, 50, 89
4, 100416, Note_on_c, 1, 43, 89
4, 100608, Note_off_c, 1, 50, 0
4, 100608, Note_off_c, 1, 43, 0
4, 100608, Note_on_c, 1, 41, 89
4, 100656, Note_off_c, 1, 41, 0
4, 100656, Note_on_c, 1, 48, 89
4, 100704, Note_off_c, 1, 48, 0
4, 100704, Note_on_c, 1, 53, 89
4, 100800, Note_off_c, 1, 53, 0
4, 100800, Note_on_c, 1, 52, 89
4, 100800, Note_on_c, 1, 47, 89
4, 100800, Note_on_c, 1, 40, 89
4, 100896, Note_off_c, 1, 40, 0
4, 100896, Note_off_c, 1, 52, 0
4, 100896, Note_off_c, 1, 47, 0
4, 100896, Note_on_c, 1, 52, 89
4, 100992, Note_off_c, 1, 52, 0
4, 100992, Note_on_c, 1, 50, 89
4, 100992, Note_on_c, 1, 45, 89
4, 100992, Note_on_c, 1, 38, 89
4, 101088, Note_off_c, 1, 38, 0
4, 101088, Note_off_c, 1, 50, 0
4, 101088, Note_off_c, 1, 45, 0
4, 101088, Note_on_c, 1, 50, 89
4, 101184, Note_off_c, 1, 50, 0
4, 101184, Note_on_c, 1, 55, 89
4, 101184, Note_on_c, 1, 47, 89
4, 101184, Note_on_c, 1, 43, 89
4, 101280, Note_off_c, 1, 43, 0
4, 101280, Note_off_c, 1, 55, 0
4, 101280, Note_off_c, 1, 47, 0
4, 101280, Note_on_c, 1, 55, 89
4, 101376, Note_off_c, 1, 55, 0
4, 101376, Note_on_c, 1, 48, 91
4, 101376, Note_on_c, 1, 36, 91
4, 101424, Note_off_c, 1, 36, 0
4, 101424, Note_off_c, 1, 48, 0
4, 101424, Note_on_c, 1, 43, 93
4, 101568, Note_off_c, 1, 43, 0
4, 101568, Note_on_c, 1, 52, 94
4, 101568, Note_on_c, 1, 47, 94
4, 101568, Note_on_c, 1, 44, 94
4, 101664, Note_off_c, 1, 44, 0
4, 101664, Note_off_c, 1, 52, 0
4, 101664, Note_off_c, 1, 47, 0
4, 101664, Note_on_c, 1, 52, 95
4, 101760, Note_off_c, 1, 52, 0
4, 101760, Note_on_c, 1, 45, 99
4, 101808, Note_off_c, 1, 45, 0
4, 101808, Note_on_c, 1, 52, 99
4, 101856, Note_off_c, 1, 52, 0
4, 101856, Note_on_c, 1, 57, 99
4, 101856, Note_on_c, 1, 45, 99
4, 101952, Note_off_c, 1, 45, 0
4, 101952, Note_off_c, 1, 57, 0
4, 101952, Note_on_c, 1, 55, 99
4, 101952, Note_on_c, 1, 50, 99
4, 101952, Note_on_c, 1, 43, 99
4, 102048, Note_off_c, 1, 43, 0
4, 102048, Note_off_c, 1, 50, 0
4, 102048, Note_off_c, 1, 55, 0
4, 102048, Note_on_c, 1, 55, 99
4, 102144, Note_off_c, 1, 55, 0
4, 102144, Note_on_c, 1, 41, 99
4, 102192, Note_off_c, 1, 41, 0
4, 102192, Note_on_c, 1, 48, 99
4, 102240, Note_off_c, 1, 48, 0
4, 102240, Note_on_c, 1, 53, 99
4, 102336, Note_off_c, 1, 53, 0
4, 102336, Note_on_c, 1, 52, 99
4, 102336, Note_on_c, 1, 47, 99
4, 102336, Note_on_c, 1, 40, 99
4, 102432, Note_off_c, 1, 40, 0
4, 102432, Note_off_c, 1, 52, 0
4, 102432, Note_off_c, 1, 47, 0
4, 102432, Note_on_c, 1, 52, 99
4, 102528, Note_off_c, 1, 52, 0
4, 102528, Note_on_c, 1, 50, 99
4, 102528, Note_on_c, 1, 38, 99
4, 102576, Note_off_c, 1, 38, 0
4, 102576, Note_off_c, 1, 50, 0
4, 102576, Note_on_c, 1, 45, 99
4, 102624, Note_off_c, 1, 45, 0
4, 102624, Note_on_c, 1, 50, 99
4, 102720, Note_off_c, 1, 50, 0
4, 102720, Note_on_c, 1, 55, 99
4, 102720, Note_on_c, 1, 50, 99
4, 102720, Note_on_c, 1, 47, 99
4, 102720, Note_on_c, 1, 43, 99
4, 102816, Note_off_c, 1, 43, 0
4, 102816, Note_off_c, 1, 55, 0
4, 102816, Note_off_c, 1, 50, 0
4, 102816, Note_off_c, 1, 47, 0
4, 102816, Note_on_c, 1, 55, 99
4, 102912, Note_off_c, 1, 55, 0
4, 102912, Note_on_c, 1, 45, 99
4, 102912, Note_on_c, 1, 33, 99
4, 102960, Note_off_c, 1, 33, 0
4, 102960, Note_off_c, 1, 45, 0
4, 102960, Note_on_c, 1, 40, 99
4, 103056, Note_off_c, 1, 40, 0
4, 103056, Note_on_c, 1, 49, 99
4, 103104, Note_off_c, 1, 49, 0
4, 103104, Note_on_c, 1, 52, 99
4, 103200, Note_off_c, 1, 52, 0
4, 103200, Note_on_c, 1, 57, 99
4, 103296, Note_off_c, 1, 57, 0
4, 103296, Note_on_c, 1, 48, 104
4, 103296, Note_on_c, 1, 36, 104
4, 103392, Note_off_c, 1, 48, 0
4, 103392, Note_off_c, 1, 36, 0
4, 103392, Note_on_c, 1, 55, 106
4, 103392, Note_on_c, 1, 51, 106
4, 103392, Note_on_c, 1, 48, 106
4, 103488, Note_off_c, 1, 48, 0
4, 103488, Note_off_c, 1, 51, 0
4, 103488, Note_off_c, 1, 55, 0
4, 103488, Note_on_c, 1, 46, 105
4, 103488, Note_on_c, 1, 34, 105
4, 103584, Note_off_c, 1, 34, 0
4, 103584, Note_off_c, 1, 46, 0
4, 103584, Note_on_c, 1, 46, 105
4, 103680, Note_off_c, 1, 46, 0
4, 103680, Note_on_c, 1, 44, 105
4, 103680, Note_on_c, 1, 32, 105
4, 103776, Note_off_c, 1, 32, 0
4, 103776, Note_off_c, 1, 44, 0
4, 103776, Note_on_c, 1, 56, 102
4, 103776, Note_on_c, 1, 51, 95
4, 103776, Note_on_c, 1, 48, 95
4, 103776, Note_on_c, 1, 44, 105
4, 103872, Note_off_c, 1, 44, 0
4, 103872, Note_off_c, 1, 48, 0
4, 103872, Note_off_c, 1, 56, 0
4, 103872, Note_off_c, 1, 51, 0
4, 103872, Note_on_c, 1, 55, 98
4, 103872, Note_on_c, 1, 50, 90
4, 103872, Note_on_c, 1, 46, 90
4, 103872, Note_on_c, 1, 43, 105
4, 103968, Note_off_c, 1, 43, 0
4, 103968, Note_off_c, 1, 46, 0
4, 103968, Note_off_c, 1, 50, 0
4, 103968, Note_off_c, 1, 55, 0
4, 103968, Note_on_c, 1, 55, 97
4, 104064, Note_off_c, 1, 55, 0
4, 104064, Note_on_c, 1, 41, 105
4, 104112, Note_off_c, 1, 41, 0
4, 104112, Note_on_c, 1, 48, 105
4, 104160, Note_off_c, 1, 48, 0
4, 104160, Note_on_c, 1, 56, 105
4, 104256, Note_off_c, 1, 56, 0
4, 104256, Note_on_c, 1, 58, 101
4, 104256, Note_on_c, 1, 53, 94
4, 104256, Note_on_c, 1, 50, 94
4, 104256, Note_on_c, 1, 46, 105
4, 104352, Note_off_c, 1, 46, 0
4, 104352, Note_off_c, 1, 58, 0
4, 104352, Note_off_c, 1, 53, 0
4, 104352, Note_off_c, 1, 50, 0
4, 104352, Note_on_c, 1, 58, 105
4, 104448, Note_off_c, 1, 58, 0
4, 104448, Note_on_c, 1, 51, 105
4, 104448, Note_on_c, 1, 46, 100
4, 104448, Note_on_c, 1, 39, 105
4, 104520, Note_off_c, 1, 39, 0
4, 104520, Note_off_c, 1, 51, 0
4, 104520, Note_off_c, 1, 46, 0
4, 104520, Note_on_c, 1, 51, 105
4, 104520, Note_on_c, 1, 46, 99
4, 104592, Note_off_c, 1, 46, 0
4, 104592, Note_off_c, 1, 51, 0
4, 104592, Note_on_c, 1, 51, 105
4, 104640, Note_off_c, 1, 51, 0
4, 104640, Note_on_c, 1, 55, 105
4, 104640, Note_on_c, 1, 50, 105
4, 104640, Note_on_c, 1, 43, 105
4, 104736, Note_off_c, 1, 43, 0
4, 104736, Note_off_c, 1, 55, 0
4, 104736, Note_off_c, 1, 50, 0
4, 104736, Note_on_c, 1, 55, 105
4, 104736, Note_on_c, 1, 50, 105
4, 104832, Note_off_c, 1, 50, 0
4, 104832, Note_off_c, 1, 55, 0
4, 104832, Note_on_c, 1, 48, 102
4, 104832, Note_on_c, 1, 43, 97
4, 104832, Note_on_c, 1, 39, 92
4, 104832, Note_on_c, 1, 36, 92
4, 104928, Note_off_c, 1, 36, 0
4, 104928, Note_off_c, 1, 39, 0
4, 104928, Note_off_c, 1, 48, 0
4, 104928, Note_off_c, 1, 43, 0
4, 104928, Note_on_c, 1, 48, 98
4, 104928, Note_on_c, 1, 36, 105
4, 105024, Note_off_c, 1, 36, 0
4, 105024, Note_off_c, 1, 48, 0
4, 105024, Note_on_c, 1, 46, 105
4, 105024, Note_on_c, 1, 41, 105
4, 105024, Note_on_c, 1, 34, 105
4, 105120, Note_off_c, 1, 34, 0
4, 105120, Note_off_c, 1, 41, 0
4, 105120, Note_off_c, 1, 46, 0
4, 105120, Note_on_c, 1, 46, 95
4, 105216, Note_off_c, 1, 46, 0
4, 105216, Note_on_c, 1, 44, 105
4, 105216, Note_on_c, 1, 32, 105
4, 105312, Note_off_c, 1, 32, 0
4, 105312, Note_off_c, 1, 44, 0
4, 105312, Note_on_c, 1, 44, 105
4, 105312, Note_on_c, 1, 32, 105
4, 105408, Note_off_c, 1, 32, 0
4, 105408, Note_off_c, 1, 44, 0
4, 105408, Note_on_c, 1, 46, 103
4, 105408, Note_on_c, 1, 43, 89
4, 105408, Note_on_c, 1, 38, 84
4, 105408, Note_on_c, 1, 34, 89
4, 105408, Note_on_c, 1, 31, 97
4, 105504, Note_off_c, 1, 31, 0
4, 105504, Note_off_c, 1, 34, 0
4, 105504, Note_off_c, 1, 43, 0
4, 105504, Note_off_c, 1, 38, 0
4, 105504, Note_on_c, 1, 43, 87
4, 105552, Note_off_c, 1, 46, 0
4, 105600, Note_off_c, 1, 43, 0
4, 105600, Note_on_c, 1, 41, 105
4, 105600, Note_on_c, 1, 44, 105
4, 105600, Note_on_c, 1, 53, 105
4, 105792, Note_off_c, 1, 53, 0
4, 105792, Note_off_c, 1, 41, 0
4, 105792, Note_off_c, 1, 44, 0
4, 105792, Note_on_c, 1, 46, 105
4, 105792, Note_on_c, 1, 34, 105
4, 105888, Note_off_c, 1, 34, 0
4, 105888, Note_off_c, 1, 46, 0
4, 105888, Note_on_c, 1, 46, 106
4, 105984, Note_off_c, 1, 46, 0
4, 105984, Note_on_c, 1, 48, 106
4, 105984, Note_on_c, 1, 36, 106
4, 106032, Note_off_c, 1, 36, 0
4, 106032, Note_off_c, 1, 48, 0
4, 106032, Note_on_c, 1, 43, 106
4, 106080, Note_off_c, 1, 43, 0
4, 106080, Note_on_c, 1, 48, 106
4, 106128, Note_off_c, 1, 48, 0
4, 106128, Note_on_c, 1, 51, 106
4, 106176, Note_off_c, 1, 51, 0
4, 106176, Note_on_c, 1, 55, 106
4, 106272, Note_off_c, 1, 55, 0
4, 106272, Note_on_c, 1, 60, 103
4, 106368, Note_off_c, 1, 60, 0
4, 106368, Note_on_c, 1, 48, 104
4, 106368, Note_on_c, 1, 36, 104
4, 106512, Note_off_c, 1, 48, 0
4, 106512, Note_off_c, 1, 36, 0
4, 106512, Note_on_c, 1, 51, 103
4, 106512, Note_on_c, 1, 55, 103
4, 106512, Note_on_c, 1, 48, 104
4, 106512, Note_on_c, 1, 36, 104
4, 106608, Note_off_c, 1, 51, 0
4, 106608, Note_off_c, 1, 55, 0
4, 106656, Note_off_c, 1, 36, 0
4, 106656, Note_off_c, 1, 48, 0
4, 106656, Note_on_c, 1, 55, 103
4, 106752, Note_off_c, 1, 55, 0
4, 106752, Note_on_c, 1, 46, 104
4, 106752, Note_on_c, 1, 34, 104
4, 106896, Note_off_c, 1, 34, 0
4, 106896, Note_off_c, 1, 46, 0
4, 106896, Note_on_c, 1, 58, 104
4, 106896, Note_on_c, 1, 50, 104
4, 106896, Note_on_c, 1, 46, 104
4, 107040, Note_off_c, 1, 46, 0
4, 107040, Note_off_c, 1, 50, 0
4, 107040, Note_off_c, 1, 58, 0
4, 107040, Note_on_c, 1, 53, 104
4, 107136, Note_off_c, 1, 53, 0
4, 107136, Note_on_c, 1, 44, 104
4, 107136, Note_on_c, 1, 32, 104
4, 107232, Note_off_c, 1, 44, 0
4, 107232, Note_off_c, 1, 32, 0
4, 107232, Note_on_c, 1, 44, 104
4, 107232, Note_on_c, 1, 32, 104
4, 107328, Note_off_c, 1, 32, 0
4, 107328, Note_off_c, 1, 44, 0
4, 107328, Note_on_c, 1, 45, 104
4, 107328, Note_on_c, 1, 33, 104
4, 107424, Note_off_c, 1, 33, 0
4, 107424, Note_off_c, 1, 45, 0
4, 107424, Note_on_c, 1, 45, 104
4, 107424, Note_on_c, 1, 33, 104
4, 107520, Note_off_c, 1, 33, 0
4, 107520, Note_off_c, 1, 45, 0
4, 107520, Note_on_c, 1, 46, 104
4, 107520, Note_on_c, 1, 34, 104
4, 107616, Note_off_c, 1, 34, 0
4, 107616, Note_off_c, 1, 46, 0
4, 107616, Note_on_c, 1, 46, 104
4, 107616, Note_on_c, 1, 34, 104
4, 107712, Note_off_c, 1, 34, 0
4, 107712, Note_off_c, 1, 46, 0
4, 107712, Note_on_c, 1, 47, 104
4, 107712, Note_on_c, 1, 35, 104
4, 107808, Note_off_c, 1, 35, 0
4, 107808, Note_off_c, 1, 47, 0
4, 107808, Note_on_c, 1, 35, 104
4, 107904, Note_off_c, 1, 35, 0
4, 107904, Note_on_c, 1, 48, 104
4, 107904, Note_on_c, 1, 36, 104
4, 107952, Note_off_c, 1, 48, 0
4, 107952, Note_off_c, 1, 36, 0
4, 107952, Note_on_c, 1, 43, 104
4, 108000, Note_off_c, 1, 43, 0
4, 108000, Note_on_c, 1, 48, 104
4, 108000, Note_on_c, 1, 36, 104
4, 108096, Note_off_c, 1, 48, 0
4, 108096, Note_off_c, 1, 36, 0
4, 108096, Note_on_c, 1, 50, 104
4, 108096, Note_on_c, 1, 46, 104
4, 108096, Note_on_c, 1, 38, 104
4, 108192, Note_off_c, 1, 38, 0
4, 108192, Note_off_c, 1, 46, 0
4, 108192, Note_off_c, 1, 50, 0
4, 108192, Note_on_c, 1, 50, 104
4, 108288, Note_off_c, 1, 50, 0
4, 108288, Note_on_c, 1, 51, 104
4, 108288, Note_on_c, 1, 46, 104
4, 108288, Note_on_c, 1, 43, 104
4, 108360, Note_off_c, 1, 51, 0
4, 108360, Note_off_c, 1, 46, 0
4, 108360, Note_off_c, 1, 43, 0
4, 108360, Note_on_c, 1, 51, 104
4, 108360, Note_on_c, 1, 46, 104
4, 108360, Note_on_c, 1, 43, 104
4, 108432, Note_off_c, 1, 43, 0
4, 108432, Note_off_c, 1, 46, 0
4, 108432, Note_off_c, 1, 51, 0
4, 108432, Note_on_c, 1, 51, 104
4, 108432, Note_on_c, 1, 46, 104
4, 108432, Note_on_c, 1, 43, 104
4, 108480, Note_off_c, 1, 43, 0
4, 108480, Note_off_c, 1, 46, 0
4, 108480, Note_off_c, 1, 51, 0
4, 108480, Note_on_c, 1, 51, 104
4, 108480, Note_on_c, 1, 46, 104
4, 108480, Note_on_c, 1, 43, 104
4, 108576, Note_off_c, 1, 43, 0
4, 108576, Note_off_c, 1, 46, 0
4, 108576, Note_off_c, 1, 51, 0
4, 108576, Note_on_c, 1, 51, 104
4, 108576, Note_on_c, 1, 46, 104
4, 108672, Note_off_c, 1, 51, 0
4, 108672, Note_off_c, 1, 46, 0
4, 108672, Note_on_c, 1, 44, 104
4, 108672, Note_on_c, 1, 32, 104
4, 108720, Note_off_c, 1, 32, 0
4, 108720, Note_off_c, 1, 44, 0
4, 108720, Note_on_c, 1, 39, 104
4, 108768, Note_off_c, 1, 39, 0
4, 108768, Note_on_c, 1, 44, 104
4, 108816, Note_off_c, 1, 44, 0
4, 108816, Note_on_c, 1, 39, 104
4, 108864, Note_off_c, 1, 39, 0
4, 108864, Note_on_c, 1, 45, 104
4, 108864, Note_on_c, 1, 33, 104
4, 108960, Note_off_c, 1, 33, 0
4, 108960, Note_off_c, 1, 45, 0
4, 108960, Note_on_c, 1, 45, 104
4, 108960, Note_on_c, 1, 33, 104
4, 109056, Note_off_c, 1, 33, 0
4, 109056, Note_off_c, 1, 45, 0
4, 109056, Note_on_c, 1, 46, 104
4, 109056, Note_on_c, 1, 38, 104
4, 109056, Note_on_c, 1, 34, 104
4, 109152, Note_off_c, 1, 34, 0
4, 109152, Note_off_c, 1, 38, 0
4, 109152, Note_off_c, 1, 46, 0
4, 109152, Note_on_c, 1, 46, 104
4, 109248, Note_off_c, 1, 46, 0
4, 109248, Note_on_c, 1, 47, 104
4, 109248, Note_on_c, 1, 43, 104
4, 109248, Note_on_c, 1, 35, 104
4, 109344, Note_off_c, 1, 47, 0
4, 109344, Note_off_c, 1, 43, 0
4, 109344, Note_off_c, 1, 35, 0
4, 109344, Note_on_c, 1, 47, 104
4, 109440, Note_off_c, 1, 47, 0
4, 109440, Note_on_c, 1, 44, 104
4, 109440, Note_on_c, 1, 32, 104
4, 109584, Note_off_c, 1, 32, 0
4, 109584, Note_off_c, 1, 44, 0
4, 109584, Note_on_c, 1, 56, 104
4, 109584, Note_on_c, 1, 48, 104
4, 109584, Note_on_c, 1, 44, 104
4, 109728, Note_off_c, 1, 44, 0
4, 109728, Note_off_c, 1, 48, 0
4, 109728, Note_off_c, 1, 56, 0
4, 109728, Note_on_c, 1, 51, 104
4, 109824, Note_off_c, 1, 51, 0
4, 109824, Note_on_c, 1, 46, 104
4, 109824, Note_on_c, 1, 34, 104
4, 109968, Note_off_c, 1, 34, 0
4, 109968, Note_off_c, 1, 46, 0
4, 109968, Note_on_c, 1, 46, 105
4, 110112, Note_off_c, 1, 46, 0
4, 110112, Note_on_c, 1, 46, 104
4, 110208, Note_off_c, 1, 46, 0
4, 110208, Note_on_c, 1, 48, 104
4, 110208, Note_on_c, 1, 36, 104
4, 110256, Note_off_c, 1, 36, 0
4, 110256, Note_off_c, 1, 48, 0
4, 110256, Note_on_c, 1, 43, 104
4, 110304, Note_off_c, 1, 43, 0
4, 110304, Note_on_c, 1, 48, 104
4, 110352, Note_off_c, 1, 48, 0
4, 110352, Note_on_c, 1, 50, 104
4, 110400, Note_off_c, 1, 50, 0
4, 110400, Note_on_c, 1, 51, 104
4, 110448, Note_off_c, 1, 51, 0
4, 110448, Note_on_c, 1, 55, 104
4, 110496, Note_off_c, 1, 55, 0
4, 110496, Note_on_c, 1, 60, 104
4, 110544, Note_off_c, 1, 60, 0
4, 110592, Note_on_c, 1, 46, 104
4, 110592, Note_on_c, 1, 34, 104
4, 110736, Note_off_c, 1, 46, 0
4, 110736, Note_off_c, 1, 34, 0
4, 110736, Note_on_c, 1, 58, 103
4, 110736, Note_on_c, 1, 50, 103
4, 110736, Note_on_c, 1, 46, 103
4, 110880, Note_off_c, 1, 46, 0
4, 110880, Note_off_c, 1, 50, 0
4, 110880, Note_off_c, 1, 58, 0
4, 110880, Note_on_c, 1, 53, 102
4, 110976, Note_off_c, 1, 53, 0
4, 110976, Note_on_c, 1, 44, 101
4, 110976, Note_on_c, 1, 32, 101
4, 111120, Note_off_c, 1, 32, 0
4, 111120, Note_off_c, 1, 44, 0
4, 111120, Note_on_c, 1, 56, 101
4, 111120, Note_on_c, 1, 48, 101
4, 111120, Note_on_c, 1, 44, 101
4, 111264, Note_off_c, 1, 44, 0
4, 111264, Note_off_c, 1, 56, 0
4, 111264, Note_off_c, 1, 48, 0
4, 111264, Note_on_c, 1, 51, 99
4, 111360, Note_off_c, 1, 51, 0
4, 111360, Note_on_c, 1, 46, 102
4, 111360, Note_on_c, 1, 34, 102
4, 111504, Note_off_c, 1, 46, 0
4, 111504, Note_off_c, 1, 34, 0
4, 111504, Note_on_c, 1, 58, 102
4, 111504, Note_on_c, 1, 50, 102
4, 111504, Note_on_c, 1, 46, 102
4, 111648, Note_off_c, 1, 46, 0
4, 111648, Note_off_c, 1, 50, 0
4, 111648, Note_off_c, 1, 58, 0
4, 111648, Note_on_c, 1, 53, 102
4, 111744, Note_off_c, 1, 53, 0
4, 111744, Note_on_c, 1, 48, 102
4, 111744, Note_on_c, 1, 36, 102
4, 111840, Note_off_c, 1, 48, 0
4, 111840, Note_off_c, 1, 36, 0
4, 111840, Note_on_c, 1, 43, 102
4, 111888, Note_off_c, 1, 43, 0
4, 111888, Note_on_c, 1, 48, 102
4, 111936, Note_off_c, 1, 48, 0
4, 111936, Note_on_c, 1, 51, 102
4, 111984, Note_off_c, 1, 51, 0
4, 111984, Note_on_c, 1, 55, 102
4, 112032, Note_off_c, 1, 55, 0
4, 112032, Note_on_c, 1, 60, 102
4, 112128, Note_off_c, 1, 60, 0
4, 112128, Note_on_c, 1, 46, 102
4, 112128, Note_on_c, 1, 34, 102
4, 112272, Note_off_c, 1, 34, 0
4, 112272, Note_off_c, 1, 46, 0
4, 112272, Note_on_c, 1, 58, 102
4, 112272, Note_on_c, 1, 50, 102
4, 112272, Note_on_c, 1, 46, 102
4, 112416, Note_off_c, 1, 46, 0
4, 112416, Note_off_c, 1, 58, 0
4, 112416, Note_off_c, 1, 50, 0
4, 112416, Note_on_c, 1, 53, 102
4, 112512, Note_off_c, 1, 53, 0
4, 112512, Note_on_c, 1, 44, 102
4, 112512, Note_on_c, 1, 32, 102
4, 112656, Note_off_c, 1, 44, 0
4, 112656, Note_off_c, 1, 32, 0
4, 112656, Note_on_c, 1, 56, 102
4, 112656, Note_on_c, 1, 48, 102
4, 112656, Note_on_c, 1, 44, 102
4, 112800, Note_off_c, 1, 44, 0
4, 112800, Note_off_c, 1, 48, 0
4, 112800, Note_off_c, 1, 56, 0
4, 112800, Note_on_c, 1, 51, 102
4, 112896, Note_off_c, 1, 51, 0
4, 112896, Note_on_c, 1, 46, 102
4, 112896, Note_on_c, 1, 34, 102
4, 113040, Note_off_c, 1, 46, 0
4, 113040, Note_off_c, 1, 34, 0
4, 113040, Note_on_c, 1, 58, 102
4, 113040, Note_on_c, 1, 50, 102
4, 113040, Note_on_c, 1, 46, 102
4, 113184, Note_off_c, 1, 58, 0
4, 113184, Note_off_c, 1, 46, 0
4, 113184, Note_off_c, 1, 50, 0
4, 113184, Note_on_c, 1, 53, 104
4, 113280, Note_off_c, 1, 53, 0
4, 113280, Note_on_c, 1, 48, 100
4, 113280, Note_on_c, 1, 36, 100
4, 113472, Note_off_c, 1, 36, 0
4, 113472, Note_off_c, 1, 48, 0
4, 113472, Note_on_c, 1, 51, 99
4, 113472, Note_on_c, 1, 48, 99
4, 113664, Note_off_c, 1, 48, 0
4, 113664, Note_off_c, 1, 51, 0
4, 113664, Note_on_c, 1, 32, 99
4, 113688, Note_off_c, 1, 32, 0
4, 113688, Note_on_c, 1, 44, 99
4, 113808, Note_off_c, 1, 44, 0
4, 113808, Note_on_c, 1, 44, 99
4, 113856, Note_off_c, 1, 44, 0
4, 113856, Note_on_c, 1, 51, 78
4, 113904, Note_off_c, 1, 51, 0
4, 113904, Note_on_c, 1, 55, 74
4, 113976, Note_off_c, 1, 55, 0
4, 113976, Note_on_c, 1, 56, 69
4, 114048, Note_off_c, 1, 56, 0
4, 114048, Note_on_c, 1, 60, 62
4, 114120, Note_off_c, 1, 60, 0
4, 114120, Note_on_c, 1, 63, 56
4, 114192, Note_off_c, 1, 63, 0
4, 114192, Note_on_c, 1, 67, 47
4, 114264, Note_off_c, 1, 67, 0
4, 114264, Note_on_c, 1, 68, 41
4, 114288, Note_off_c, 1, 68, 0
4, 114288, Note_on_c, 1, 75, 39
4, 114288, Note_on_c, 1, 72, 39
4, 114816, Note_off_c, 1, 72, 0
4, 114816, Note_off_c, 1, 75, 0
4, 115200, Note_on_c, 1, 32, 76
4, 115200, Note_on_c, 1, 44, 76
4, 115263, Note_off_c, 1, 32, 0
4, 115272, Note_on_c, 1, 32, 76
4, 115335, Note_off_c, 1, 32, 0
4, 115344, Note_on_c, 1, 32, 76
4, 115384, Note_off_c, 1, 32, 0
4, 115392, Note_on_c, 1, 32, 76
4, 115455, Note_off_c, 1, 32, 0
4, 115464, Note_on_c, 1, 32, 76
4, 115527, Note_off_c, 1, 32, 0
4, 115536, Note_on_c, 1, 32, 76
4, 115576, Note_off_c, 1, 32, 0
4, 115584, Note_on_c, 1, 32, 76
4, 115647, Note_off_c, 1, 32, 0
4, 115656, Note_on_c, 1, 32, 76
4, 115719, Note_off_c, 1, 32, 0
4, 115728, Note_on_c, 1, 32, 76
4, 115768, Note_off_c, 1, 32, 0
4, 115776, Note_on_c, 1, 32, 76
4, 115839, Note_off_c, 1, 32, 0
4, 115848, Note_on_c, 1, 32, 76
4, 115911, Note_off_c, 1, 32, 0
4, 115920, Note_on_c, 1, 32, 76
4, 115960, Note_off_c, 1, 32, 0
4, 115968, Note_on_c, 1, 32, 76
4, 116031, Note_off_c, 1, 32, 0
4, 116040, Note_on_c, 1, 32, 76
4, 116103, Note_off_c, 1, 32, 0
4, 116112, Note_on_c, 1, 32, 76
4, 116152, Note_off_c, 1, 32, 0
4, 116160, Note_on_c, 1, 32, 76
4, 116223, Note_off_c, 1, 32, 0
4, 116232, Note_on_c, 1, 32, 76
4, 116295, Note_off_c, 1, 32, 0
4, 116304, Note_on_c, 1, 32, 76
4, 116344, Note_off_c, 1, 32, 0
4, 116352, Note_on_c, 1, 32, 76
4, 116415, Note_off_c, 1, 32, 0
4, 116424, Note_on_c, 1, 32, 76
4, 116471, Note_off_c, 1, 44, 0
4, 116487, Note_off_c, 1, 32, 0
4, 116496, Note_on_c, 1, 32, 77
4, 116536, Note_off_c, 1, 32, 0
4, 116544, Note_on_c, 1, 49, 79
4, 116544, Note_on_c, 1, 37, 79
4, 116562, Note_off_c, 1, 49, 0
4, 116562, Note_off_c, 1, 37, 0
4, 116592, Note_on_c, 1, 47, 83
4, 116592, Note_on_c, 1, 35, 83
4, 116610, Note_off_c, 1, 47, 0
4, 116610, Note_off_c, 1, 35, 0
4, 116640, Note_on_c, 1, 45, 87
4, 116640, Note_on_c, 1, 33, 87
4, 116658, Note_off_c, 1, 45, 0
4, 116658, Note_off_c, 1, 33, 0
4, 116688, Note_on_c, 1, 44, 91
4, 116688, Note_on_c, 1, 32, 91
4, 116706, Note_off_c, 1, 44, 0
4, 116706, Note_off_c, 1, 32, 0
4, 116736, Note_on_c, 1, 37, 96
4, 116736, Note_on_c, 1, 25, 96
4, 116776, Note_off_c, 1, 37, 0
4, 116776, Note_off_c, 1, 25, 0
4, 116784, Note_on_c, 1, 49, 99
4, 116824, Note_off_c, 1, 49, 0
4, 116832, Note_on_c, 1, 61, 99
4, 116832, Note_on_c, 1, 56, 99
4, 116832, Note_on_c, 1, 52, 99
4, 116872, Note_off_c, 1, 56, 0
4, 116872, Note_off_c, 1, 52, 0
4, 116880, Note_on_c, 1, 49, 99
4, 116913, Note_off_c, 1, 61, 0
4, 116920, Note_off_c, 1, 49, 0
4, 116928, Note_on_c, 1, 44, 99
4, 116928, Note_on_c, 1, 32, 99
4, 116968, Note_off_c, 1, 44, 0
4, 116968, Note_off_c, 1, 32, 0
4, 116976, Note_on_c, 1, 52, 99
4, 117016, Note_off_c, 1, 52, 0
4, 117024, Note_on_c, 1, 60, 99
4, 117024, Note_on_c, 1, 56, 99
4, 117064, Note_off_c, 1, 56, 0
4, 117064, Note_off_c, 1, 60, 0
4, 117072, Note_on_c, 1, 52, 99
4, 117112, Note_off_c, 1, 52, 0
4, 117120, Note_on_c, 1, 37, 99
4, 117120, Note_on_c, 1, 25, 99
4, 117160, Note_off_c, 1, 37, 0
4, 117160, Note_off_c, 1, 25, 0
4, 117168, Note_on_c, 1, 49, 99
4, 117208, Note_off_c, 1, 49, 0
4, 117216, Note_on_c, 1, 61, 99
4, 117216, Note_on_c, 1, 56, 99
4, 117216, Note_on_c, 1, 52, 99
4, 117256, Note_off_c, 1, 61, 0
4, 117256, Note_off_c, 1, 56, 0
4, 117256, Note_off_c, 1, 52, 0
4, 117264, Note_on_c, 1, 49, 99
4, 117304, Note_off_c, 1, 49, 0
4, 117312, Note_on_c, 1, 44, 99
4, 117312, Note_on_c, 1, 32, 99
4, 117352, Note_off_c, 1, 44, 0
4, 117352, Note_off_c, 1, 32, 0
4, 117360, Note_on_c, 1, 52, 99
4, 117400, Note_off_c, 1, 52, 0
4, 117408, Note_on_c, 1, 60, 99
4, 117408, Note_on_c, 1, 56, 99
4, 117448, Note_off_c, 1, 60, 0
4, 117448, Note_off_c, 1, 56, 0
4, 117456, Note_on_c, 1, 52, 99
4, 117496, Note_off_c, 1, 52, 0
4, 117504, Note_on_c, 1, 37, 99
4, 117504, Note_on_c, 1, 25, 99
4, 117544, Note_off_c, 1, 37, 0
4, 117544, Note_off_c, 1, 25, 0
4, 117552, Note_on_c, 1, 49, 99
4, 117592, Note_off_c, 1, 49, 0
4, 117600, Note_on_c, 1, 56, 99
4, 117600, Note_on_c, 1, 52, 99
4, 117640, Note_off_c, 1, 56, 0
4, 117640, Note_off_c, 1, 52, 0
4, 117648, Note_on_c, 1, 49, 99
4, 117688, Note_off_c, 1, 49, 0
4, 117696, Note_on_c, 1, 44, 99
4, 117696, Note_on_c, 1, 32, 99
4, 117736, Note_off_c, 1, 44, 0
4, 117736, Note_off_c, 1, 32, 0
4, 117744, Note_on_c, 1, 52, 99
4, 117784, Note_off_c, 1, 52, 0
4, 117792, Note_on_c, 1, 60, 99
4, 117792, Note_on_c, 1, 56, 99
4, 117832, Note_off_c, 1, 56, 0
4, 117832, Note_off_c, 1, 60, 0
4, 117840, Note_on_c, 1, 52, 99
4, 117880, Note_off_c, 1, 52, 0
4, 117888, Note_on_c, 1, 45, 99
4, 117888, Note_on_c, 1, 33, 99
4, 117928, Note_off_c, 1, 45, 0
4, 117928, Note_off_c, 1, 33, 0
4, 117936, Note_on_c, 1, 45, 99
4, 117976, Note_off_c, 1, 45, 0
4, 117984, Note_on_c, 1, 57, 99
4, 117984, Note_on_c, 1, 52, 99
4, 117984, Note_on_c, 1, 49, 99
4, 118024, Note_off_c, 1, 57, 0
4, 118024, Note_off_c, 1, 52, 0
4, 118024, Note_off_c, 1, 49, 0
4, 118032, Note_on_c, 1, 45, 99
4, 118072, Note_off_c, 1, 45, 0
4, 118080, Note_on_c, 1, 47, 99
4, 118080, Note_on_c, 1, 35, 99
4, 118240, Note_off_c, 1, 47, 0
4, 118240, Note_off_c, 1, 35, 0
4, 118272, Note_on_c, 1, 37, 100
4, 118272, Note_on_c, 1, 25, 100
4, 118312, Note_off_c, 1, 37, 0
4, 118312, Note_off_c, 1, 25, 0
4, 118320, Note_on_c, 1, 49, 100
4, 118360, Note_off_c, 1, 49, 0
4, 118368, Note_on_c, 1, 61, 100
4, 118368, Note_on_c, 1, 56, 100
4, 118368, Note_on_c, 1, 52, 100
4, 118408, Note_off_c, 1, 56, 0
4, 118408, Note_off_c, 1, 52, 0
4, 118416, Note_on_c, 1, 49, 100
4, 118449, Note_off_c, 1, 61, 0
4, 118456, Note_off_c, 1, 49, 0
4, 118464, Note_on_c, 1, 44, 100
4, 118464, Note_on_c, 1, 32, 100
4, 118504, Note_off_c, 1, 44, 0
4, 118504, Note_off_c, 1, 32, 0
4, 118512, Note_on_c, 1, 52, 100
4, 118552, Note_off_c, 1, 52, 0
4, 118560, Note_on_c, 1, 60, 100
4, 118560, Note_on_c, 1, 56, 100
4, 118600, Note_off_c, 1, 56, 0
4, 118600, Note_off_c, 1, 60, 0
4, 118608, Note_on_c, 1, 52, 100
4, 118648, Note_off_c, 1, 52, 0
4, 118656, Note_on_c, 1, 37, 100
4, 118656, Note_on_c, 1, 25, 100
4, 118696, Note_off_c, 1, 37, 0
4, 118696, Note_off_c, 1, 25, 0
4, 118704, Note_on_c, 1, 49, 100
4, 118744, Note_off_c, 1, 49, 0
4, 118752, Note_on_c, 1, 56, 100
4, 118752, Note_on_c, 1, 52, 100
4, 118792, Note_off_c, 1, 56, 0
4, 118792, Note_off_c, 1, 52, 0
4, 118800, Note_on_c, 1, 49, 100
4, 118840, Note_off_c, 1, 49, 0
4, 118848, Note_on_c, 1, 44, 100
4, 118848, Note_on_c, 1, 32, 100
4, 118888, Note_off_c, 1, 44, 0
4, 118888, Note_off_c, 1, 32, 0
4, 118896, Note_on_c, 1, 52, 100
4, 118936, Note_off_c, 1, 52, 0
4, 118944, Note_on_c, 1, 59, 100
4, 118944, Note_on_c, 1, 56, 100
4, 118984, Note_off_c, 1, 59, 0
4, 118984, Note_off_c, 1, 56, 0
4, 118992, Note_on_c, 1, 52, 100
4, 119032, Note_off_c, 1, 52, 0
4, 119040, Note_on_c, 1, 45, 100
4, 119040, Note_on_c, 1, 33, 100
4, 119080, Note_off_c, 1, 45, 0
4, 119080, Note_off_c, 1, 33, 0
4, 119088, Note_on_c, 1, 45, 100
4, 119128, Note_off_c, 1, 45, 0
4, 119136, Note_on_c, 1, 57, 100
4, 119136, Note_on_c, 1, 52, 100
4, 119136, Note_on_c, 1, 49, 100
4, 119176, Note_off_c, 1, 57, 0
4, 119176, Note_off_c, 1, 52, 0
4, 119176, Note_off_c, 1, 49, 0
4, 119184, Note_on_c, 1, 45, 100
4, 119224, Note_off_c, 1, 45, 0
4, 119232, Note_on_c, 1, 47, 100
4, 119232, Note_on_c, 1, 35, 100
4, 119272, Note_off_c, 1, 47, 0
4, 119272, Note_off_c, 1, 35, 0
4, 119280, Note_on_c, 1, 47, 100
4, 119320, Note_off_c, 1, 47, 0
4, 119328, Note_on_c, 1, 59, 100
4, 119328, Note_on_c, 1, 54, 100
4, 119328, Note_on_c, 1, 51, 100
4, 119368, Note_off_c, 1, 59, 0
4, 119368, Note_off_c, 1, 54, 0
4, 119368, Note_off_c, 1, 51, 0
4, 119376, Note_on_c, 1, 47, 100
4, 119416, Note_off_c, 1, 47, 0
4, 119424, Note_on_c, 1, 52, 100
4, 119424, Note_on_c, 1, 37, 100
4, 119464, Note_off_c, 1, 52, 0
4, 119464, Note_off_c, 1, 37, 0
4, 119472, Note_on_c, 1, 49, 100
4, 119489, Note_off_c, 1, 49, 0
4, 119496, Note_on_c, 1, 44, 100
4, 119513, Note_off_c, 1, 44, 0
4, 119520, Note_on_c, 1, 40, 100
4, 119537, Note_off_c, 1, 40, 0
4, 119544, Note_on_c, 1, 37, 100
4, 119561, Note_off_c, 1, 37, 0
4, 119568, Note_on_c, 1, 32, 100
4, 119608, Note_off_c, 1, 32, 0
4, 119616, Note_on_c, 1, 49, 100
4, 119616, Note_on_c, 1, 37, 100
4, 119656, Note_off_c, 1, 49, 0
4, 119656, Note_off_c, 1, 37, 0
4, 119664, Note_on_c, 1, 47, 100
4, 119664, Note_on_c, 1, 35, 100
4, 119704, Note_off_c, 1, 47, 0
4, 119704, Note_off_c, 1, 35, 0
4, 119712, Note_on_c, 1, 45, 100
4, 119712, Note_on_c, 1, 33, 100
4, 119752, Note_off_c, 1, 45, 0
4, 119752, Note_off_c, 1, 33, 0
4, 119760, Note_on_c, 1, 44, 100
4, 119760, Note_on_c, 1, 32, 100
4, 119800, Note_off_c, 1, 44, 0
4, 119800, Note_off_c, 1, 32, 0
4, 119808, Note_on_c, 1, 37, 100
4, 119808, Note_on_c, 1, 25, 100
4, 119848, Note_off_c, 1, 37, 0
4, 119848, Note_off_c, 1, 25, 0
4, 119856, Note_on_c, 1, 49, 100
4, 119896, Note_off_c, 1, 49, 0
4, 119904, Note_on_c, 1, 61, 100
4, 119904, Note_on_c, 1, 56, 100
4, 119904, Note_on_c, 1, 52, 100
4, 119944, Note_off_c, 1, 61, 0
4, 119944, Note_off_c, 1, 56, 0
4, 119944, Note_off_c, 1, 52, 0
4, 119952, Note_on_c, 1, 49, 100
4, 119992, Note_off_c, 1, 49, 0
4, 120000, Note_on_c, 1, 44, 100
4, 120000, Note_on_c, 1, 32, 100
4, 120040, Note_off_c, 1, 44, 0
4, 120040, Note_off_c, 1, 32, 0
4, 120048, Note_on_c, 1, 52, 100
4, 120088, Note_off_c, 1, 52, 0
4, 120096, Note_on_c, 1, 60, 100
4, 120096, Note_on_c, 1, 56, 100
4, 120136, Note_off_c, 1, 60, 0
4, 120136, Note_off_c, 1, 56, 0
4, 120144, Note_on_c, 1, 52, 100
4, 120184, Note_off_c, 1, 52, 0
4, 120192, Note_on_c, 1, 37, 100
4, 120192, Note_on_c, 1, 25, 100
4, 120232, Note_off_c, 1, 37, 0
4, 120232, Note_off_c, 1, 25, 0
4, 120240, Note_on_c, 1, 49, 100
4, 120280, Note_off_c, 1, 49, 0
4, 120288, Note_on_c, 1, 61, 100
4, 120288, Note_on_c, 1, 56, 100
4, 120288, Note_on_c, 1, 52, 100
4, 120328, Note_off_c, 1, 61, 0
4, 120328, Note_off_c, 1, 56, 0
4, 120328, Note_off_c, 1, 52, 0
4, 120336, Note_on_c, 1, 49, 100
4, 120376, Note_off_c, 1, 49, 0
4, 120384, Note_on_c, 1, 44, 100
4, 120384, Note_on_c, 1, 32, 100
4, 120424, Note_off_c, 1, 44, 0
4, 120424, Note_off_c, 1, 32, 0
4, 120432, Note_on_c, 1, 52, 100
4, 120472, Note_off_c, 1, 52, 0
4, 120480, Note_on_c, 1, 60, 100
4, 120480, Note_on_c, 1, 56, 100
4, 120520, Note_off_c, 1, 60, 0
4, 120520, Note_off_c, 1, 56, 0
4, 120528, Note_on_c, 1, 52, 100
4, 120568, Note_off_c, 1, 52, 0
4, 120576, Note_on_c, 1, 37, 100
4, 120576, Note_on_c, 1, 25, 100
4, 120616, Note_off_c, 1, 37, 0
4, 120616, Note_off_c, 1, 25, 0
4, 120624, Note_on_c, 1, 49, 100
4, 120664, Note_off_c, 1, 49, 0
4, 120672, Note_on_c, 1, 61, 100
4, 120672, Note_on_c, 1, 56, 100
4, 120672, Note_on_c, 1, 52, 100
4, 120712, Note_off_c, 1, 61, 0
4, 120712, Note_off_c, 1, 56, 0
4, 120712, Note_off_c, 1, 52, 0
4, 120720, Note_on_c, 1, 49, 100
4, 120760, Note_off_c, 1, 49, 0
4, 120768, Note_on_c, 1, 44, 100
4, 120768, Note_on_c, 1, 32, 100
4, 120808, Note_off_c, 1, 44, 0
4, 120808, Note_off_c, 1, 32, 0
4, 120816, Note_on_c, 1, 52, 100
4, 120856, Note_off_c, 1, 52, 0
4, 120864, Note_on_c, 1, 60, 100
4, 120864, Note_on_c, 1, 56, 100
4, 120904, Note_off_c, 1, 60, 0
4, 120904, Note_off_c, 1, 56, 0
4, 120912, Note_on_c, 1, 52, 100
4, 120952, Note_off_c, 1, 52, 0
4, 120960, Note_on_c, 1, 49, 100
4, 120960, Note_on_c, 1, 37, 100
4, 121000, Note_off_c, 1, 49, 0
4, 121000, Note_off_c, 1, 37, 0
4, 121008, Note_on_c, 1, 49, 100
4, 121048, Note_off_c, 1, 49, 0
4, 121056, Note_on_c, 1, 61, 100
4, 121056, Note_on_c, 1, 56, 100
4, 121056, Note_on_c, 1, 52, 100
4, 121096, Note_off_c, 1, 61, 0
4, 121096, Note_off_c, 1, 56, 0
4, 121096, Note_off_c, 1, 52, 0
4, 121104, Note_on_c, 1, 49, 100
4, 121144, Note_off_c, 1, 49, 0
4, 121152, Note_on_c, 1, 56, 100
4, 121152, Note_on_c, 1, 44, 100
4, 121238, Note_off_c, 1, 56, 0
4, 121238, Note_off_c, 1, 44, 0
4, 121248, Note_on_c, 1, 57, 99
4, 121288, Note_off_c, 1, 57, 0
4, 121296, Note_on_c, 1, 56, 89
4, 121336, Note_off_c, 1, 56, 0
4, 121344, Note_on_c, 1, 61, 73
4, 121392, Note_on_c, 1, 68, 73
4, 121432, Note_off_c, 1, 68, 0
4, 121440, Note_on_c, 1, 64, 73
4, 121480, Note_off_c, 1, 64, 0
4, 121488, Note_on_c, 1, 68, 73
4, 121521, Note_off_c, 1, 61, 0
4, 121528, Note_off_c, 1, 68, 0
4, 121536, Note_on_c, 1, 56, 73
4, 121584, Note_on_c, 1, 64, 73
4, 121624, Note_off_c, 1, 64, 0
4, 121632, Note_on_c, 1, 60, 73
4, 121672, Note_off_c, 1, 60, 0
4, 121680, Note_on_c, 1, 64, 73
4, 121713, Note_off_c, 1, 56, 0
4, 121720, Note_off_c, 1, 64, 0
4, 121728, Note_on_c, 1, 61, 73
4, 121776, Note_on_c, 1, 68, 73
4, 121816, Note_off_c, 1, 68, 0
4, 121824, Note_on_c, 1, 64, 73
4, 121864, Note_off_c, 1, 64, 0
4, 121872, Note_on_c, 1, 68, 73
4, 121905, Note_off_c, 1, 61, 0
4, 121912, Note_off_c, 1, 68, 0
4, 121920, Note_on_c, 1, 56, 73
4, 121968, Note_on_c, 1, 64, 73
4, 122008, Note_off_c, 1, 64, 0
4, 122016, Note_on_c, 1, 60, 73
4, 122056, Note_off_c, 1, 60, 0
4, 122064, Note_on_c, 1, 64, 73
4, 122097, Note_off_c, 1, 56, 0
4, 122104, Note_off_c, 1, 64, 0
4, 122112, Note_on_c, 1, 61, 73
4, 122160, Note_on_c, 1, 68, 73
4, 122200, Note_off_c, 1, 68, 0
4, 122208, Note_on_c, 1, 64, 73
4, 122248, Note_off_c, 1, 64, 0
4, 122256, Note_on_c, 1, 68, 73
4, 122289, Note_off_c, 1, 61, 0
4, 122296, Note_off_c, 1, 68, 0
4, 122304, Note_on_c, 1, 56, 73
4, 122352, Note_on_c, 1, 64, 73
4, 122392, Note_off_c, 1, 64, 0
4, 122400, Note_on_c, 1, 60, 73
4, 122440, Note_off_c, 1, 60, 0
4, 122448, Note_on_c, 1, 64, 73
4, 122481, Note_off_c, 1, 56, 0
4, 122488, Note_off_c, 1, 64, 0
4, 122496, Note_on_c, 1, 57, 74
4, 122544, Note_on_c, 1, 64, 74
4, 122584, Note_off_c, 1, 64, 0
4, 122592, Note_on_c, 1, 68, 74
4, 122632, Note_off_c, 1, 68, 0
4, 122640, Note_on_c, 1, 64, 74
4, 122673, Note_off_c, 1, 57, 0
4, 122680, Note_off_c, 1, 64, 0
4, 122688, Note_on_c, 1, 59, 74
4, 122736, Note_on_c, 1, 71, 74
4, 122736, Note_on_c, 1, 66, 74
4, 122776, Note_off_c, 1, 66, 0
4, 122776, Note_off_c, 1, 71, 0
4, 122784, Note_on_c, 1, 69, 74
4, 122784, Note_on_c, 1, 63, 74
4, 122824, Note_off_c, 1, 69, 0
4, 122824, Note_off_c, 1, 63, 0
4, 122832, Note_on_c, 1, 68, 74
4, 122865, Note_off_c, 1, 59, 0
4, 122872, Note_off_c, 1, 68, 0
4, 122880, Note_on_c, 1, 61, 74
4, 122928, Note_on_c, 1, 68, 74
4, 122968, Note_off_c, 1, 68, 0
4, 122976, Note_on_c, 1, 64, 74
4, 123016, Note_off_c, 1, 64, 0
4, 123024, Note_on_c, 1, 68, 74
4, 123057, Note_off_c, 1, 61, 0
4, 123064, Note_off_c, 1, 68, 0
4, 123072, Note_on_c, 1, 56, 74
4, 123120, Note_on_c, 1, 64, 74
4, 123160, Note_off_c, 1, 64, 0
4, 123168, Note_on_c, 1, 60, 74
4, 123208, Note_off_c, 1, 60, 0
4, 123216, Note_on_c, 1, 64, 74
4, 123249, Note_off_c, 1, 56, 0
4, 123256, Note_off_c, 1, 64, 0
4, 123264, Note_on_c, 1, 61, 74
4, 123312, Note_on_c, 1, 68, 74
4, 123352, Note_off_c, 1, 68, 0
4, 123360, Note_on_c, 1, 64, 74
4, 123400, Note_off_c, 1, 64, 0
4, 123408, Note_on_c, 1, 68, 74
4, 123441, Note_off_c, 1, 61, 0
4, 123448, Note_off_c, 1, 68, 0
4, 123456, Note_on_c, 1, 56, 74
4, 123504, Note_on_c, 1, 64, 74
4, 123544, Note_off_c, 1, 64, 0
4, 123552, Note_on_c, 1, 60, 74
4, 123592, Note_off_c, 1, 60, 0
4, 123600, Note_on_c, 1, 64, 73
4, 123633, Note_off_c, 1, 56, 0
4, 123640, Note_off_c, 1, 64, 0
4, 123648, Note_on_c, 1, 68, 73
4, 123648, Note_on_c, 1, 64, 73
4, 123648, Note_on_c, 1, 61, 73
4, 123688, Note_off_c, 1, 68, 0
4, 123688, Note_off_c, 1, 64, 0
4, 123688, Note_off_c, 1, 61, 0
4, 123696, Note_on_c, 1, 68, 73
4, 123696, Note_on_c, 1, 64, 73
4, 123696, Note_on_c, 1, 61, 73
4, 123714, Note_off_c, 1, 68, 0
4, 123714, Note_off_c, 1, 64, 0
4, 123714, Note_off_c, 1, 61, 0
4, 123792, Note_on_c, 1, 64, 74
4, 123792, Note_on_c, 1, 60, 74
4, 123792, Note_on_c, 1, 56, 74
4, 123832, Note_off_c, 1, 64, 0
4, 123832, Note_off_c, 1, 60, 0
4, 123832, Note_off_c, 1, 56, 0
4, 123840, Note_on_c, 1, 64, 74
4, 123840, Note_on_c, 1, 60, 74
4, 123840, Note_on_c, 1, 56, 74
4, 123880, Note_off_c, 1, 56, 0
4, 123880, Note_off_c, 1, 64, 0
4, 123880, Note_off_c, 1, 60, 0
4, 123888, Note_on_c, 1, 64, 74
4, 123928, Note_off_c, 1, 64, 0
4, 123936, Note_on_c, 1, 56, 74
4, 123976, Note_off_c, 1, 56, 0
4, 123984, Note_on_c, 1, 61, 74
4, 123984, Note_on_c, 1, 49, 74
4, 124024, Note_off_c, 1, 61, 0
4, 124024, Note_off_c, 1, 49, 0
4, 124224, Note_on_c, 1, 50, 82
4, 124224, Note_on_c, 1, 38, 82
4, 124242, Note_off_c, 1, 50, 0
4, 124242, Note_off_c, 1, 38, 0
4, 124272, Note_on_c, 1, 48, 85
4, 124272, Note_on_c, 1, 36, 85
4, 124290, Note_off_c, 1, 48, 0
4, 124290, Note_off_c, 1, 36, 0
4, 124320, Note_on_c, 1, 46, 88
4, 124320, Note_on_c, 1, 34, 88
4, 124338, Note_off_c, 1, 46, 0
4, 124338, Note_off_c, 1, 34, 0
4, 124368, Note_on_c, 1, 45, 92
4, 124368, Note_on_c, 1, 33, 92
4, 124386, Note_off_c, 1, 45, 0
4, 124386, Note_off_c, 1, 33, 0
4, 124416, Note_on_c, 1, 38, 96
4, 124416, Note_on_c, 1, 26, 96
4, 124456, Note_off_c, 1, 38, 0
4, 124456, Note_off_c, 1, 26, 0
4, 124464, Note_on_c, 1, 50, 98
4, 124504, Note_off_c, 1, 50, 0
4, 124512, Note_on_c, 1, 57, 99
4, 124512, Note_on_c, 1, 53, 99
4, 124552, Note_off_c, 1, 57, 0
4, 124552, Note_off_c, 1, 53, 0
4, 124560, Note_on_c, 1, 50, 99
4, 124600, Note_off_c, 1, 50, 0
4, 124608, Note_on_c, 1, 36, 99
4, 124608, Note_on_c, 1, 24, 99
4, 124648, Note_off_c, 1, 36, 0
4, 124648, Note_off_c, 1, 24, 0
4, 124656, Note_on_c, 1, 48, 99
4, 124696, Note_off_c, 1, 48, 0
4, 124704, Note_on_c, 1, 55, 99
4, 124704, Note_on_c, 1, 52, 99
4, 124744, Note_off_c, 1, 52, 0
4, 124744, Note_off_c, 1, 55, 0
4, 124752, Note_on_c, 1, 48, 99
4, 124792, Note_off_c, 1, 48, 0
4, 124800, Note_on_c, 1, 34, 99
4, 124800, Note_on_c, 1, 22, 99
4, 124840, Note_off_c, 1, 34, 0
4, 124840, Note_off_c, 1, 22, 0
4, 124848, Note_on_c, 1, 46, 99
4, 124888, Note_off_c, 1, 46, 0
4, 124896, Note_on_c, 1, 58, 99
4, 124896, Note_on_c, 1, 53, 99
4, 124936, Note_off_c, 1, 58, 0
4, 124936, Note_off_c, 1, 53, 0
4, 124944, Note_on_c, 1, 46, 99
4, 124984, Note_off_c, 1, 46, 0
4, 124992, Note_on_c, 1, 45, 99
4, 124992, Note_on_c, 1, 33, 99
4, 125032, Note_off_c, 1, 45, 0
4, 125032, Note_off_c, 1, 33, 0
4, 125040, Note_on_c, 1, 45, 99
4, 125080, Note_off_c, 1, 45, 0
4, 125088, Note_on_c, 1, 57, 99
4, 125088, Note_on_c, 1, 53, 99
4, 125128, Note_off_c, 1, 57, 0
4, 125128, Note_off_c, 1, 53, 0
4, 125136, Note_on_c, 1, 45, 99
4, 125176, Note_off_c, 1, 45, 0
4, 125184, Note_on_c, 1, 43, 99
4, 125184, Note_on_c, 1, 31, 99
4, 125224, Note_off_c, 1, 43, 0
4, 125224, Note_off_c, 1, 31, 0
4, 125232, Note_on_c, 1, 43, 99
4, 125272, Note_off_c, 1, 43, 0
4, 125280, Note_on_c, 1, 58, 99
4, 125280, Note_on_c, 1, 50, 99
4, 125320, Note_off_c, 1, 58, 0
4, 125320, Note_off_c, 1, 50, 0
4, 125328, Note_on_c, 1, 43, 99
4, 125368, Note_off_c, 1, 43, 0
4, 125376, Note_on_c, 1, 41, 99
4, 125376, Note_on_c, 1, 29, 99
4, 125416, Note_off_c, 1, 41, 0
4, 125416, Note_off_c, 1, 29, 0
4, 125424, Note_on_c, 1, 50, 99
4, 125464, Note_off_c, 1, 50, 0
4, 125472, Note_on_c, 1, 57, 99
4, 125472, Note_on_c, 1, 53, 99
4, 125512, Note_off_c, 1, 53, 0
4, 125512, Note_off_c, 1, 57, 0
4, 125520, Note_on_c, 1, 50, 99
4, 125560, Note_off_c, 1, 50, 0
4, 125568, Note_on_c, 1, 40, 99
4, 125568, Note_on_c, 1, 28, 99
4, 125608, Note_off_c, 1, 40, 0
4, 125608, Note_off_c, 1, 28, 0
4, 125616, Note_on_c, 1, 52, 99
4, 125656, Note_off_c, 1, 52, 0
4, 125664, Note_on_c, 1, 62, 99
4, 125664, Note_on_c, 1, 58, 99
4, 125664, Note_on_c, 1, 55, 99
4, 125704, Note_off_c, 1, 62, 0
4, 125704, Note_off_c, 1, 58, 0
4, 125704, Note_off_c, 1, 55, 0
4, 125712, Note_on_c, 1, 52, 99
4, 125752, Note_off_c, 1, 52, 0
4, 125760, Note_on_c, 1, 45, 99
4, 125760, Note_on_c, 1, 33, 99
4, 125800, Note_off_c, 1, 45, 0
4, 125800, Note_off_c, 1, 33, 0
4, 125808, Note_on_c, 1, 45, 99
4, 125848, Note_off_c, 1, 45, 0
4, 125856, Note_on_c, 1, 57, 99
4, 125856, Note_on_c, 1, 52, 99
4, 125896, Note_off_c, 1, 57, 0
4, 125896, Note_off_c, 1, 52, 0
4, 125904, Note_on_c, 1, 45, 99
4, 125944, Note_off_c, 1, 45, 0
4, 125952, Note_on_c, 1, 38, 99
4, 125952, Note_on_c, 1, 26, 99
4, 125992, Note_off_c, 1, 38, 0
4, 125992, Note_off_c, 1, 26, 0
4, 126000, Note_on_c, 1, 50, 99
4, 126040, Note_off_c, 1, 50, 0
4, 126048, Note_on_c, 1, 57, 99
4, 126048, Note_on_c, 1, 53, 99
4, 126088, Note_off_c, 1, 57, 0
4, 126088, Note_off_c, 1, 53, 0
4, 126096, Note_on_c, 1, 50, 99
4, 126136, Note_off_c, 1, 50, 0
4, 126144, Note_on_c, 1, 36, 99
4, 126144, Note_on_c, 1, 24, 99
4, 126184, Note_off_c, 1, 36, 0
4, 126184, Note_off_c, 1, 24, 0
4, 126192, Note_on_c, 1, 48, 99
4, 126232, Note_off_c, 1, 48, 0
4, 126240, Note_on_c, 1, 55, 99
4, 126240, Note_on_c, 1, 52, 99
4, 126280, Note_off_c, 1, 52, 0
4, 126280, Note_off_c, 1, 55, 0
4, 126288, Note_on_c, 1, 48, 99
4, 126328, Note_off_c, 1, 48, 0
4, 126336, Note_on_c, 1, 34, 99
4, 126336, Note_on_c, 1, 22, 99
4, 126376, Note_off_c, 1, 34, 0
4, 126376, Note_off_c, 1, 22, 0
4, 126384, Note_on_c, 1, 46, 99
4, 126424, Note_off_c, 1, 46, 0
4, 126432, Note_on_c, 1, 58, 99
4, 126432, Note_on_c, 1, 53, 99
4, 126472, Note_off_c, 1, 58, 0
4, 126472, Note_off_c, 1, 53, 0
4, 126480, Note_on_c, 1, 46, 99
4, 126520, Note_off_c, 1, 46, 0
4, 126528, Note_on_c, 1, 45, 99
4, 126528, Note_on_c, 1, 33, 99
4, 126568, Note_off_c, 1, 45, 0
4, 126568, Note_off_c, 1, 33, 0
4, 126576, Note_on_c, 1, 45, 99
4, 126616, Note_off_c, 1, 45, 0
4, 126624, Note_on_c, 1, 57, 99
4, 126624, Note_on_c, 1, 53, 99
4, 126664, Note_off_c, 1, 57, 0
4, 126664, Note_off_c, 1, 53, 0
4, 126672, Note_on_c, 1, 45, 99
4, 126712, Note_off_c, 1, 45, 0
4, 126720, Note_on_c, 1, 43, 99
4, 126720, Note_on_c, 1, 31, 99
4, 126760, Note_off_c, 1, 43, 0
4, 126760, Note_off_c, 1, 31, 0
4, 126768, Note_on_c, 1, 43, 99
4, 126808, Note_off_c, 1, 43, 0
4, 126816, Note_on_c, 1, 58, 99
4, 126816, Note_on_c, 1, 50, 99
4, 126856, Note_off_c, 1, 58, 0
4, 126856, Note_off_c, 1, 50, 0
4, 126864, Note_on_c, 1, 43, 99
4, 126904, Note_off_c, 1, 43, 0
4, 126912, Note_on_c, 1, 45, 99
4, 126912, Note_on_c, 1, 33, 99
4, 126952, Note_off_c, 1, 45, 0
4, 126952, Note_off_c, 1, 33, 0
4, 126960, Note_on_c, 1, 45, 99
4, 127000, Note_off_c, 1, 45, 0
4, 127008, Note_on_c, 1, 57, 99
4, 127008, Note_on_c, 1, 52, 99
4, 127048, Note_off_c, 1, 57, 0
4, 127048, Note_off_c, 1, 52, 0
4, 127056, Note_on_c, 1, 45, 99
4, 127096, Note_off_c, 1, 45, 0
4, 127104, Note_on_c, 1, 38, 99
4, 127104, Note_on_c, 1, 26, 99
4, 127144, Note_off_c, 1, 38, 0
4, 127144, Note_off_c, 1, 26, 0
4, 127152, Note_on_c, 1, 57, 99
4, 127152, Note_on_c, 1, 45, 99
4, 127192, Note_off_c, 1, 57, 0
4, 127192, Note_off_c, 1, 45, 0
4, 127200, Note_on_c, 1, 58, 99
4, 127200, Note_on_c, 1, 46, 99
4, 127240, Note_off_c, 1, 58, 0
4, 127240, Note_off_c, 1, 46, 0
4, 127248, Note_on_c, 1, 55, 99
4, 127248, Note_on_c, 1, 43, 99
4, 127288, Note_off_c, 1, 55, 0
4, 127288, Note_off_c, 1, 43, 0
4, 127296, Note_on_c, 1, 57, 99
4, 127296, Note_on_c, 1, 45, 99
4, 127336, Note_off_c, 1, 57, 0
4, 127336, Note_off_c, 1, 45, 0
4, 127344, Note_on_c, 1, 53, 99
4, 127344, Note_on_c, 1, 41, 99
4, 127384, Note_off_c, 1, 41, 0
4, 127384, Note_off_c, 1, 53, 0
4, 127392, Note_on_c, 1, 55, 99
4, 127392, Note_on_c, 1, 43, 99
4, 127432, Note_off_c, 1, 55, 0
4, 127432, Note_off_c, 1, 43, 0
4, 127440, Note_on_c, 1, 52, 99
4, 127440, Note_on_c, 1, 40, 99
4, 127480, Note_off_c, 1, 40, 0
4, 127480, Note_off_c, 1, 52, 0
4, 127488, Note_on_c, 1, 38, 99
4, 127488, Note_on_c, 1, 26, 99
4, 127528, Note_off_c, 1, 38, 0
4, 127528, Note_off_c, 1, 26, 0
4, 127536, Note_on_c, 1, 50, 99
4, 127576, Note_off_c, 1, 50, 0
4, 127584, Note_on_c, 1, 57, 99
4, 127584, Note_on_c, 1, 53, 99
4, 127624, Note_off_c, 1, 53, 0
4, 127624, Note_off_c, 1, 57, 0
4, 127632, Note_on_c, 1, 50, 99
4, 127672, Note_off_c, 1, 50, 0
4, 127680, Note_on_c, 1, 36, 99
4, 127680, Note_on_c, 1, 24, 99
4, 127720, Note_off_c, 1, 36, 0
4, 127720, Note_off_c, 1, 24, 0
4, 127728, Note_on_c, 1, 48, 99
4, 127768, Note_off_c, 1, 48, 0
4, 127776, Note_on_c, 1, 55, 99
4, 127776, Note_on_c, 1, 52, 99
4, 127816, Note_off_c, 1, 55, 0
4, 127816, Note_off_c, 1, 52, 0
4, 127824, Note_on_c, 1, 48, 99
4, 127864, Note_off_c, 1, 48, 0
4, 127872, Note_on_c, 1, 46, 99
4, 127872, Note_on_c, 1, 34, 99
4, 127912, Note_off_c, 1, 46, 0
4, 127912, Note_off_c, 1, 34, 0
4, 127920, Note_on_c, 1, 46, 99
4, 127960, Note_off_c, 1, 46, 0
4, 127968, Note_on_c, 1, 58, 99
4, 127968, Note_on_c, 1, 53, 99
4, 128008, Note_off_c, 1, 53, 0
4, 128008, Note_off_c, 1, 58, 0
4, 128016, Note_on_c, 1, 46, 99
4, 128056, Note_off_c, 1, 46, 0
4, 128064, Note_on_c, 1, 45, 99
4, 128064, Note_on_c, 1, 33, 99
4, 128104, Note_off_c, 1, 45, 0
4, 128104, Note_off_c, 1, 33, 0
4, 128112, Note_on_c, 1, 45, 99
4, 128152, Note_off_c, 1, 45, 0
4, 128160, Note_on_c, 1, 57, 99
4, 128160, Note_on_c, 1, 53, 99
4, 128200, Note_off_c, 1, 57, 0
4, 128200, Note_off_c, 1, 53, 0
4, 128208, Note_on_c, 1, 45, 99
4, 128248, Note_off_c, 1, 45, 0
4, 128256, Note_on_c, 1, 43, 99
4, 128256, Note_on_c, 1, 31, 99
4, 128296, Note_off_c, 1, 43, 0
4, 128296, Note_off_c, 1, 31, 0
4, 128304, Note_on_c, 1, 43, 99
4, 128344, Note_off_c, 1, 43, 0
4, 128352, Note_on_c, 1, 58, 99
4, 128352, Note_on_c, 1, 50, 99
4, 128392, Note_off_c, 1, 50, 0
4, 128392, Note_off_c, 1, 58, 0
4, 128400, Note_on_c, 1, 43, 99
4, 128440, Note_off_c, 1, 43, 0
4, 128448, Note_on_c, 1, 41, 99
4, 128448, Note_on_c, 1, 29, 99
4, 128488, Note_off_c, 1, 41, 0
4, 128488, Note_off_c, 1, 29, 0
4, 128496, Note_on_c, 1, 50, 99
4, 128536, Note_off_c, 1, 50, 0
4, 128544, Note_on_c, 1, 57, 99
4, 128544, Note_on_c, 1, 53, 99
4, 128584, Note_off_c, 1, 57, 0
4, 128584, Note_off_c, 1, 53, 0
4, 128592, Note_on_c, 1, 50, 99
4, 128632, Note_off_c, 1, 50, 0
4, 128640, Note_on_c, 1, 40, 99
4, 128640, Note_on_c, 1, 28, 99
4, 128680, Note_off_c, 1, 40, 0
4, 128680, Note_off_c, 1, 28, 0
4, 128688, Note_on_c, 1, 52, 99
4, 128728, Note_off_c, 1, 52, 0
4, 128736, Note_on_c, 1, 62, 99
4, 128736, Note_on_c, 1, 58, 99
4, 128736, Note_on_c, 1, 55, 99
4, 128776, Note_off_c, 1, 62, 0
4, 128776, Note_off_c, 1, 58, 0
4, 128776, Note_off_c, 1, 55, 0
4, 128784, Note_on_c, 1, 52, 99
4, 128824, Note_off_c, 1, 52, 0
4, 128832, Note_on_c, 1, 33, 99
4, 128872, Note_off_c, 1, 33, 0
4, 128880, Note_on_c, 1, 45, 99
4, 128920, Note_off_c, 1, 45, 0
4, 128928, Note_on_c, 1, 40, 99
4, 128928, Note_on_c, 1, 28, 99
4, 128968, Note_off_c, 1, 40, 0
4, 128968, Note_off_c, 1, 28, 0
4, 128976, Note_on_c, 1, 37, 99
4, 128976, Note_on_c, 1, 25, 99
4, 129016, Note_off_c, 1, 37, 0
4, 129016, Note_off_c, 1, 25, 0
4, 129024, Note_on_c, 1, 38, 99
4, 129024, Note_on_c, 1, 26, 99
4, 129064, Note_off_c, 1, 38, 0
4, 129064, Note_off_c, 1, 26, 0
4, 129072, Note_on_c, 1, 50, 99
4, 129112, Note_off_c, 1, 50, 0
4, 129120, Note_on_c, 1, 57, 99
4, 129120, Note_on_c, 1, 53, 99
4, 129160, Note_off_c, 1, 57, 0
4, 129160, Note_off_c, 1, 53, 0
4, 129168, Note_on_c, 1, 50, 99
4, 129208, Note_off_c, 1, 50, 0
4, 129216, Note_on_c, 1, 36, 99
4, 129216, Note_on_c, 1, 24, 99
4, 129256, Note_off_c, 1, 36, 0
4, 129256, Note_off_c, 1, 24, 0
4, 129264, Note_on_c, 1, 48, 99
4, 129304, Note_off_c, 1, 48, 0
4, 129312, Note_on_c, 1, 55, 99
4, 129312, Note_on_c, 1, 52, 99
4, 129352, Note_off_c, 1, 55, 0
4, 129352, Note_off_c, 1, 52, 0
4, 129360, Note_on_c, 1, 48, 99
4, 129400, Note_off_c, 1, 48, 0
4, 129408, Note_on_c, 1, 46, 99
4, 129408, Note_on_c, 1, 34, 99
4, 129494, Note_off_c, 1, 46, 0
4, 129494, Note_off_c, 1, 34, 0
4, 129504, Note_on_c, 1, 58, 99
4, 129504, Note_on_c, 1, 53, 99
4, 129544, Note_off_c, 1, 58, 0
4, 129544, Note_off_c, 1, 53, 0
4, 129552, Note_on_c, 1, 46, 99
4, 129592, Note_off_c, 1, 46, 0
4, 129600, Note_on_c, 1, 45, 99
4, 129600, Note_on_c, 1, 33, 99
4, 129640, Note_off_c, 1, 45, 0
4, 129640, Note_off_c, 1, 33, 0
4, 129648, Note_on_c, 1, 45, 99
4, 129688, Note_off_c, 1, 45, 0
4, 129696, Note_on_c, 1, 57, 99
4, 129696, Note_on_c, 1, 52, 99
4, 129736, Note_off_c, 1, 57, 0
4, 129736, Note_off_c, 1, 52, 0
4, 129744, Note_on_c, 1, 45, 99
4, 129784, Note_off_c, 1, 45, 0
4, 129792, Note_on_c, 1, 43, 99
4, 129792, Note_on_c, 1, 31, 99
4, 129832, Note_off_c, 1, 43, 0
4, 129832, Note_off_c, 1, 31, 0
4, 129840, Note_on_c, 1, 43, 99
4, 129880, Note_off_c, 1, 43, 0
4, 129888, Note_on_c, 1, 58, 99
4, 129888, Note_on_c, 1, 50, 99
4, 129928, Note_off_c, 1, 58, 0
4, 129928, Note_off_c, 1, 50, 0
4, 129936, Note_on_c, 1, 43, 99
4, 129976, Note_off_c, 1, 43, 0
4, 129984, Note_on_c, 1, 45, 99
4, 129984, Note_on_c, 1, 33, 99
4, 130024, Note_off_c, 1, 45, 0
4, 130024, Note_off_c, 1, 33, 0
4, 130032, Note_on_c, 1, 45, 99
4, 130072, Note_off_c, 1, 45, 0
4, 130080, Note_on_c, 1, 57, 99
4, 130080, Note_on_c, 1, 52, 99
4, 130120, Note_off_c, 1, 57, 0
4, 130120, Note_off_c, 1, 52, 0
4, 130128, Note_on_c, 1, 45, 99
4, 130168, Note_off_c, 1, 45, 0
4, 130176, Note_on_c, 1, 50, 99
4, 130176, Note_on_c, 1, 38, 99
4, 130216, Note_off_c, 1, 50, 0
4, 130216, Note_off_c, 1, 38, 0
4, 130224, Note_on_c, 1, 50, 99
4, 130241, Note_off_c, 1, 50, 0
4, 130248, Note_on_c, 1, 53, 99
4, 130265, Note_off_c, 1, 53, 0
4, 130272, Note_on_c, 1, 57, 99
4, 130289, Note_off_c, 1, 57, 0
4, 130296, Note_on_c, 1, 50, 99
4, 130313, Note_off_c, 1, 50, 0
4, 130320, Note_on_c, 1, 53, 99
4, 130337, Note_off_c, 1, 53, 0
4, 130344, Note_on_c, 1, 57, 99
4, 130361, Note_off_c, 1, 57, 0
4, 130368, Note_on_c, 1, 62, 99
4, 130385, Note_off_c, 1, 62, 0
4, 130392, Note_on_c, 1, 57, 99
4, 130409, Note_off_c, 1, 57, 0
4, 130416, Note_on_c, 1, 53, 99
4, 130433, Note_off_c, 1, 53, 0
4, 130440, Note_on_c, 1, 50, 99
4, 130457, Note_off_c, 1, 50, 0
4, 130464, Note_on_c, 1, 45, 99
4, 130481, Note_off_c, 1, 45, 0
4, 130488, Note_on_c, 1, 41, 99
4, 130505, Note_off_c, 1, 41, 0
4, 130512, Note_on_c, 1, 38, 99
4, 130552, Note_off_c, 1, 38, 0
4, 130560, Note_on_c, 1, 46, 99
4, 130560, Note_on_c, 1, 34, 99
4, 130600, Note_off_c, 1, 46, 0
4, 130600, Note_off_c, 1, 34, 0
4, 130608, Note_on_c, 1, 46, 99
4, 130648, Note_off_c, 1, 46, 0
4, 130656, Note_on_c, 1, 58, 99
4, 130656, Note_on_c, 1, 53, 99
4, 130696, Note_off_c, 1, 58, 0
4, 130696, Note_off_c, 1, 53, 0
4, 130704, Note_on_c, 1, 46, 99
4, 130744, Note_off_c, 1, 46, 0
4, 130752, Note_on_c, 1, 48, 99
4, 130752, Note_on_c, 1, 36, 99
4, 130792, Note_off_c, 1, 48, 0
4, 130792, Note_off_c, 1, 36, 0
4, 130800, Note_on_c, 1, 48, 99
4, 130840, Note_off_c, 1, 48, 0
4, 130848, Note_on_c, 1, 55, 99
4, 130848, Note_on_c, 1, 52, 99
4, 130888, Note_off_c, 1, 55, 0
4, 130888, Note_off_c, 1, 52, 0
4, 130896, Note_on_c, 1, 48, 99
4, 130936, Note_off_c, 1, 48, 0
4, 130944, Note_on_c, 1, 50, 99
4, 130944, Note_on_c, 1, 38, 99
4, 130984, Note_off_c, 1, 50, 0
4, 130984, Note_off_c, 1, 38, 0
4, 130992, Note_on_c, 1, 50, 99
4, 131032, Note_off_c, 1, 50, 0
4, 131040, Note_on_c, 1, 57, 99
4, 131040, Note_on_c, 1, 53, 99
4, 131080, Note_off_c, 1, 57, 0
4, 131080, Note_off_c, 1, 53, 0
4, 131088, Note_on_c, 1, 50, 99
4, 131128, Note_off_c, 1, 50, 0
4, 131136, Note_on_c, 1, 45, 99
4, 131136, Note_on_c, 1, 33, 99
4, 131176, Note_off_c, 1, 45, 0
4, 131176, Note_off_c, 1, 33, 0
4, 131184, Note_on_c, 1, 45, 99
4, 131224, Note_off_c, 1, 45, 0
4, 131232, Note_on_c, 1, 57, 99
4, 131232, Note_on_c, 1, 52, 99
4, 131272, Note_off_c, 1, 57, 0
4, 131272, Note_off_c, 1, 52, 0
4, 131280, Note_on_c, 1, 45, 99
4, 131320, Note_off_c, 1, 45, 0
4, 131328, Note_on_c, 1, 46, 99
4, 131328, Note_on_c, 1, 34, 99
4, 131368, Note_off_c, 1, 46, 0
4, 131368, Note_off_c, 1, 34, 0
4, 131376, Note_on_c, 1, 46, 99
4, 131416, Note_off_c, 1, 46, 0
4, 131424, Note_on_c, 1, 58, 99
4, 131424, Note_on_c, 1, 53, 99
4, 131464, Note_off_c, 1, 58, 0
4, 131464, Note_off_c, 1, 53, 0
4, 131472, Note_on_c, 1, 46, 99
4, 131512, Note_off_c, 1, 46, 0
4, 131520, Note_on_c, 1, 48, 99
4, 131520, Note_on_c, 1, 36, 99
4, 131560, Note_off_c, 1, 48, 0
4, 131560, Note_off_c, 1, 36, 0
4, 131568, Note_on_c, 1, 48, 99
4, 131608, Note_off_c, 1, 48, 0
4, 131616, Note_on_c, 1, 60, 99
4, 131616, Note_on_c, 1, 55, 99
4, 131656, Note_off_c, 1, 60, 0
4, 131656, Note_off_c, 1, 55, 0
4, 131664, Note_on_c, 1, 48, 99
4, 131704, Note_off_c, 1, 48, 0
4, 131712, Note_on_c, 1, 50, 99
4, 131712, Note_on_c, 1, 38, 99
4, 131752, Note_off_c, 1, 50, 0
4, 131752, Note_off_c, 1, 38, 0
4, 131760, Note_on_c, 1, 50, 99
4, 131800, Note_off_c, 1, 50, 0
4, 131808, Note_on_c, 1, 62, 99
4, 131825, Note_off_c, 1, 62, 0
4, 131832, Note_on_c, 1, 57, 99
4, 131849, Note_off_c, 1, 57, 0
4, 131856, Note_on_c, 1, 53, 99
4, 131873, Note_off_c, 1, 53, 0
4, 131880, Note_on_c, 1, 50, 99
4, 131897, Note_off_c, 1, 50, 0
4, 131904, Note_on_c, 1, 45, 99
4, 131921, Note_off_c, 1, 45, 0
4, 131928, Note_on_c, 1, 41, 99
4, 131945, Note_off_c, 1, 41, 0
4, 131952, Note_on_c, 1, 38, 99
4, 131969, Note_off_c, 1, 38, 0
4, 131976, Note_on_c, 1, 33, 99
4, 131993, Note_off_c, 1, 33, 0
4, 132000, Note_on_c, 1, 29, 99
4, 132017, Note_off_c, 1, 29, 0
4, 132024, Note_on_c, 1, 26, 96
4, 132087, Note_off_c, 1, 26, 0
4, 132096, Note_on_c, 1, 39, 101
4, 132096, Note_on_c, 1, 27, 101
4, 132138, Note_off_c, 1, 39, 0
4, 132138, Note_off_c, 1, 27, 0
4, 132432, Note_on_c, 1, 39, 94
4, 132432, Note_on_c, 1, 27, 94
4, 132472, Note_off_c, 1, 39, 0
4, 132472, Note_off_c, 1, 27, 0
4, 132480, Note_on_c, 1, 39, 101
4, 132480, Note_on_c, 1, 27, 101
4, 132522, Note_off_c, 1, 39, 0
4, 132522, Note_off_c, 1, 27, 0
4, 132672, Note_on_c, 1, 73, 93
4, 132672, Note_on_c, 1, 63, 93
4, 132690, Note_off_c, 1, 73, 0
4, 132690, Note_off_c, 1, 63, 0
4, 132720, Note_on_c, 1, 73, 94
4, 132720, Note_on_c, 1, 63, 94
4, 132738, Note_off_c, 1, 73, 0
4, 132738, Note_off_c, 1, 63, 0
4, 132768, Note_on_c, 1, 72, 95
4, 132768, Note_on_c, 1, 64, 95
4, 132786, Note_off_c, 1, 72, 0
4, 132786, Note_off_c, 1, 64, 0
4, 132816, Note_on_c, 1, 72, 96
4, 132816, Note_on_c, 1, 64, 96
4, 132834, Note_off_c, 1, 72, 0
4, 132834, Note_off_c, 1, 64, 0
4, 132864, Note_on_c, 1, 39, 101
4, 132864, Note_on_c, 1, 27, 101
4, 132906, Note_off_c, 1, 39, 0
4, 132906, Note_off_c, 1, 27, 0
4, 133200, Note_on_c, 1, 39, 94
4, 133200, Note_on_c, 1, 27, 94
4, 133240, Note_off_c, 1, 39, 0
4, 133240, Note_off_c, 1, 27, 0
4, 133248, Note_on_c, 1, 39, 101
4, 133248, Note_on_c, 1, 27, 101
4, 133290, Note_off_c, 1, 39, 0
4, 133290, Note_off_c, 1, 27, 0
4, 133440, Note_on_c, 1, 73, 92
4, 133440, Note_on_c, 1, 63, 92
4, 133458, Note_off_c, 1, 73, 0
4, 133458, Note_off_c, 1, 63, 0
4, 133488, Note_on_c, 1, 73, 92
4, 133488, Note_on_c, 1, 63, 92
4, 133506, Note_off_c, 1, 73, 0
4, 133506, Note_off_c, 1, 63, 0
4, 133536, Note_on_c, 1, 72, 93
4, 133536, Note_on_c, 1, 64, 93
4, 133554, Note_off_c, 1, 72, 0
4, 133554, Note_off_c, 1, 64, 0
4, 133584, Note_on_c, 1, 72, 94
4, 133584, Note_on_c, 1, 64, 94
4, 133602, Note_off_c, 1, 72, 0
4, 133602, Note_off_c, 1, 64, 0
4, 133632, Note_on_c, 1, 39, 100
4, 133632, Note_on_c, 1, 27, 100
4, 133674, Note_off_c, 1, 39, 0
4, 133674, Note_off_c, 1, 27, 0
4, 133968, Note_on_c, 1, 39, 95
4, 133968, Note_on_c, 1, 27, 95
4, 134008, Note_off_c, 1, 39, 0
4, 134008, Note_off_c, 1, 27, 0
4, 134016, Note_on_c, 1, 39, 102
4, 134016, Note_on_c, 1, 27, 102
4, 134058, Note_off_c, 1, 39, 0
4, 134058, Note_off_c, 1, 27, 0
4, 134208, Note_on_c, 1, 73, 91
4, 134208, Note_on_c, 1, 63, 91
4, 134226, Note_off_c, 1, 73, 0
4, 134226, Note_off_c, 1, 63, 0
4, 134256, Note_on_c, 1, 73, 92
4, 134256, Note_on_c, 1, 63, 92
4, 134274, Note_off_c, 1, 73, 0
4, 134274, Note_off_c, 1, 63, 0
4, 134304, Note_on_c, 1, 72, 93
4, 134304, Note_on_c, 1, 64, 93
4, 134322, Note_off_c, 1, 72, 0
4, 134322, Note_off_c, 1, 64, 0
4, 134352, Note_on_c, 1, 72, 90
4, 134352, Note_on_c, 1, 64, 90
4, 134370, Note_off_c, 1, 72, 0
4, 134370, Note_off_c, 1, 64, 0
4, 134400, Note_on_c, 1, 57, 88
4, 134400, Note_on_c, 1, 45, 88
4, 134418, Note_off_c, 1, 57, 0
4, 134418, Note_off_c, 1, 45, 0
4, 134448, Note_on_c, 1, 56, 89
4, 134448, Note_on_c, 1, 44, 89
4, 134466, Note_off_c, 1, 56, 0
4, 134466, Note_off_c, 1, 44, 0
4, 134496, Note_on_c, 1, 54, 89
4, 134496, Note_on_c, 1, 42, 89
4, 134514, Note_off_c, 1, 54, 0
4, 134514, Note_off_c, 1, 42, 0
4, 134544, Note_on_c, 1, 56, 90
4, 134544, Note_on_c, 1, 44, 90
4, 134562, Note_off_c, 1, 56, 0
4, 134562, Note_off_c, 1, 44, 0
4, 134592, Note_on_c, 1, 54, 91
4, 134592, Note_on_c, 1, 42, 91
4, 134610, Note_off_c, 1, 54, 0
4, 134610, Note_off_c, 1, 42, 0
4, 134640, Note_on_c, 1, 52, 92
4, 134640, Note_on_c, 1, 40, 92
4, 134658, Note_off_c, 1, 52, 0
4, 134658, Note_off_c, 1, 40, 0
4, 134688, Note_on_c, 1, 54, 92
4, 134688, Note_on_c, 1, 42, 92
4, 134706, Note_off_c, 1, 54, 0
4, 134706, Note_off_c, 1, 42, 0
4, 134736, Note_on_c, 1, 52, 93
4, 134736, Note_on_c, 1, 40, 93
4, 134754, Note_off_c, 1, 52, 0
4, 134754, Note_off_c, 1, 40, 0
4, 134784, Note_on_c, 1, 51, 94
4, 134784, Note_on_c, 1, 39, 94
4, 134802, Note_off_c, 1, 51, 0
4, 134802, Note_off_c, 1, 39, 0
4, 134832, Note_on_c, 1, 52, 95
4, 134832, Note_on_c, 1, 40, 95
4, 134850, Note_off_c, 1, 52, 0
4, 134850, Note_off_c, 1, 40, 0
4, 134880, Note_on_c, 1, 51, 95
4, 134880, Note_on_c, 1, 39, 95
4, 134898, Note_off_c, 1, 51, 0
4, 134898, Note_off_c, 1, 39, 0
4, 134928, Note_on_c, 1, 49, 96
4, 134928, Note_on_c, 1, 37, 96
4, 134946, Note_off_c, 1, 49, 0
4, 134946, Note_off_c, 1, 37, 0
4, 134976, Note_on_c, 1, 51, 97
4, 134976, Note_on_c, 1, 39, 97
4, 134994, Note_off_c, 1, 51, 0
4, 134994, Note_off_c, 1, 39, 0
4, 135024, Note_on_c, 1, 48, 97
4, 135024, Note_on_c, 1, 36, 97
4, 135042, Note_off_c, 1, 48, 0
4, 135042, Note_off_c, 1, 36, 0
4, 135072, Note_on_c, 1, 49, 98
4, 135072, Note_on_c, 1, 37, 98
4, 135162, Note_off_c, 1, 49, 0
4, 135162, Note_off_c, 1, 37, 0
4, 135552, Note_on_c, 1, 24, 102
4, 135552, Note_on_c, 1, 36, 102
4, 135901, Note_off_c, 1, 24, 0
4, 135901, Note_off_c, 1, 36, 0
4, 135936, Note_on_c, 1, 24, 102
4, 135936, Note_on_c, 1, 36, 102
4, 136285, Note_off_c, 1, 24, 0
4, 136285, Note_off_c, 1, 36, 0
4, 136320, Note_on_c, 1, 44, 102
4, 136320, Note_on_c, 1, 32, 102
4, 136350, Note_off_c, 1, 44, 0
4, 136350, Note_off_c, 1, 32, 0
4, 136368, Note_on_c, 1, 44, 102
4, 136368, Note_on_c, 1, 32, 102
4, 136398, Note_off_c, 1, 44, 0
4, 136398, Note_off_c, 1, 32, 0
4, 136416, Note_on_c, 1, 44, 102
4, 136416, Note_on_c, 1, 32, 102
4, 136674, Note_off_c, 1, 44, 0
4, 136674, Note_off_c, 1, 32, 0
4, 136704, Note_on_c, 1, 46, 102
4, 136704, Note_on_c, 1, 34, 102
4, 136780, Note_off_c, 1, 46, 0
4, 136780, Note_off_c, 1, 34, 0
4, 136800, Note_on_c, 1, 46, 102
4, 136800, Note_on_c, 1, 34, 102
4, 136876, Note_off_c, 1, 46, 0
4, 136876, Note_off_c, 1, 34, 0
4, 136896, Note_on_c, 1, 34, 102
4, 136896, Note_on_c, 1, 46, 102
4, 136972, Note_off_c, 1, 34, 0
4, 136972, Note_off_c, 1, 46, 0
4, 136992, Note_on_c, 1, 34, 102
4, 136992, Note_on_c, 1, 46, 102
4, 137068, Note_off_c, 1, 34, 0
4, 137068, Note_off_c, 1, 46, 0
4, 137088, Note_on_c, 1, 46, 105
4, 137088, Note_on_c, 1, 34, 105
4, 137121, Note_off_c, 1, 46, 0
4, 137121, Note_off_c, 1, 34, 0
4, 137136, Note_on_c, 1, 36, 105
4, 137136, Note_on_c, 1, 48, 105
4, 137169, Note_off_c, 1, 36, 0
4, 137169, Note_off_c, 1, 48, 0
4, 137184, Note_on_c, 1, 36, 105
4, 137184, Note_on_c, 1, 43, 105
4, 137184, Note_on_c, 1, 48, 105
4, 137265, Note_off_c, 1, 36, 0
4, 137265, Note_off_c, 1, 43, 0
4, 137265, Note_off_c, 1, 48, 0
4, 137280, Note_on_c, 1, 49, 105
4, 137280, Note_on_c, 1, 37, 105
4, 137313, Note_off_c, 1, 49, 0
4, 137313, Note_off_c, 1, 37, 0
4, 137328, Note_on_c, 1, 36, 105
4, 137328, Note_on_c, 1, 48, 105
4, 137361, Note_off_c, 1, 36, 0
4, 137361, Note_off_c, 1, 48, 0
4, 137376, Note_on_c, 1, 36, 105
4, 137376, Note_on_c, 1, 43, 105
4, 137376, Note_on_c, 1, 48, 105
4, 137409, Note_off_c, 1, 36, 0
4, 137409, Note_off_c, 1, 43, 0
4, 137409, Note_off_c, 1, 48, 0
4, 137424, Note_on_c, 1, 46, 105
4, 137424, Note_on_c, 1, 34, 105
4, 137457, Note_off_c, 1, 46, 0
4, 137457, Note_off_c, 1, 34, 0
4, 137472, Note_on_c, 1, 46, 105
4, 137472, Note_on_c, 1, 34, 105
4, 137505, Note_off_c, 1, 46, 0
4, 137505, Note_off_c, 1, 34, 0
4, 137520, Note_on_c, 1, 36, 105
4, 137520, Note_on_c, 1, 48, 105
4, 137553, Note_off_c, 1, 36, 0
4, 137553, Note_off_c, 1, 48, 0
4, 137568, Note_on_c, 1, 36, 105
4, 137568, Note_on_c, 1, 43, 105
4, 137568, Note_on_c, 1, 48, 105
4, 137649, Note_off_c, 1, 36, 0
4, 137649, Note_off_c, 1, 43, 0
4, 137649, Note_off_c, 1, 48, 0
4, 137664, Note_on_c, 1, 46, 105
4, 137664, Note_on_c, 1, 34, 105
4, 137697, Note_off_c, 1, 46, 0
4, 137697, Note_off_c, 1, 34, 0
4, 137712, Note_on_c, 1, 36, 105
4, 137712, Note_on_c, 1, 48, 105
4, 137745, Note_off_c, 1, 36, 0
4, 137745, Note_off_c, 1, 48, 0
4, 137760, Note_on_c, 1, 36, 106
4, 137760, Note_on_c, 1, 43, 106
4, 137760, Note_on_c, 1, 48, 106
4, 137793, Note_off_c, 1, 36, 0
4, 137793, Note_off_c, 1, 43, 0
4, 137793, Note_off_c, 1, 48, 0
4, 137808, Note_on_c, 1, 31, 106
4, 137817, Note_off_c, 1, 31, 0
4, 137832, Note_on_c, 1, 43, 106
4, 137841, Note_off_c, 1, 43, 0
4, 137856, Note_on_c, 1, 46, 105
4, 137856, Note_on_c, 1, 34, 105
4, 137889, Note_off_c, 1, 46, 0
4, 137889, Note_off_c, 1, 34, 0
4, 137904, Note_on_c, 1, 48, 105
4, 137904, Note_on_c, 1, 36, 105
4, 137937, Note_off_c, 1, 48, 0
4, 137937, Note_off_c, 1, 36, 0
4, 137952, Note_on_c, 1, 48, 105
4, 137952, Note_on_c, 1, 43, 105
4, 137952, Note_on_c, 1, 36, 105
4, 138033, Note_off_c, 1, 48, 0
4, 138033, Note_off_c, 1, 43, 0
4, 138033, Note_off_c, 1, 36, 0
4, 138048, Note_on_c, 1, 49, 105
4, 138048, Note_on_c, 1, 37, 105
4, 138081, Note_off_c, 1, 49, 0
4, 138081, Note_off_c, 1, 37, 0
4, 138096, Note_on_c, 1, 48, 105
4, 138096, Note_on_c, 1, 36, 105
4, 138129, Note_off_c, 1, 48, 0
4, 138129, Note_off_c, 1, 36, 0
4, 138144, Note_on_c, 1, 48, 105
4, 138144, Note_on_c, 1, 43, 105
4, 138144, Note_on_c, 1, 36, 105
4, 138177, Note_off_c, 1, 48, 0
4, 138177, Note_off_c, 1, 43, 0
4, 138177, Note_off_c, 1, 36, 0
4, 138192, Note_on_c, 1, 46, 105
4, 138192, Note_on_c, 1, 34, 105
4, 138225, Note_off_c, 1, 46, 0
4, 138225, Note_off_c, 1, 34, 0
4, 138240, Note_on_c, 1, 46, 105
4, 138240, Note_on_c, 1, 34, 105
4, 138273, Note_off_c, 1, 46, 0
4, 138273, Note_off_c, 1, 34, 0
4, 138288, Note_on_c, 1, 48, 105
4, 138288, Note_on_c, 1, 36, 105
4, 138321, Note_off_c, 1, 48, 0
4, 138321, Note_off_c, 1, 36, 0
4, 138336, Note_on_c, 1, 48, 105
4, 138336, Note_on_c, 1, 43, 105
4, 138336, Note_on_c, 1, 36, 105
4, 138417, Note_off_c, 1, 48, 0
4, 138417, Note_off_c, 1, 43, 0
4, 138417, Note_off_c, 1, 36, 0
4, 138432, Note_on_c, 1, 46, 105
4, 138432, Note_on_c, 1, 34, 105
4, 138465, Note_off_c, 1, 46, 0
4, 138465, Note_off_c, 1, 34, 0
4, 138480, Note_on_c, 1, 48, 105
4, 138480, Note_on_c, 1, 36, 105
4, 138513, Note_off_c, 1, 48, 0
4, 138513, Note_off_c, 1, 36, 0
4, 138528, Note_on_c, 1, 48, 106
4, 138528, Note_on_c, 1, 43, 106
4, 138528, Note_on_c, 1, 36, 106
4, 138561, Note_off_c, 1, 48, 0
4, 138561, Note_off_c, 1, 43, 0
4, 138561, Note_off_c, 1, 36, 0
4, 138576, Note_on_c, 1, 31, 106
4, 138585, Note_off_c, 1, 31, 0
4, 138600, Note_on_c, 1, 43, 106
4, 138609, Note_off_c, 1, 43, 0
4, 138624, Note_on_c, 1, 43, 103
4, 138657, Note_off_c, 1, 43, 0
4, 138672, Note_on_c, 1, 36, 103
4, 138672, Note_on_c, 1, 48, 103
4, 138705, Note_off_c, 1, 36, 0
4, 138705, Note_off_c, 1, 48, 0
4, 138720, Note_on_c, 1, 36, 103
4, 138720, Note_on_c, 1, 48, 103
4, 138801, Note_off_c, 1, 36, 0
4, 138801, Note_off_c, 1, 48, 0
4, 138816, Note_on_c, 1, 48, 99
4, 138816, Note_on_c, 1, 51, 99
4, 138816, Note_on_c, 1, 55, 99
4, 138897, Note_off_c, 1, 48, 0
4, 138897, Note_off_c, 1, 51, 0
4, 138897, Note_off_c, 1, 55, 0
4, 138912, Note_on_c, 1, 48, 98
4, 138912, Note_on_c, 1, 36, 103
4, 138945, Note_off_c, 1, 48, 0
4, 138945, Note_off_c, 1, 36, 0
4, 138960, Note_on_c, 1, 48, 96
4, 138960, Note_on_c, 1, 36, 103
4, 138993, Note_off_c, 1, 36, 0
4, 138993, Note_off_c, 1, 48, 0
4, 139008, Note_on_c, 1, 48, 103
4, 139008, Note_on_c, 1, 36, 103
4, 139089, Note_off_c, 1, 48, 0
4, 139089, Note_off_c, 1, 36, 0
4, 139104, Note_on_c, 1, 48, 103
4, 139104, Note_on_c, 1, 36, 103
4, 139185, Note_off_c, 1, 48, 0
4, 139185, Note_off_c, 1, 36, 0
4, 139200, Note_on_c, 1, 48, 99
4, 139200, Note_on_c, 1, 51, 99
4, 139200, Note_on_c, 1, 55, 99
4, 139281, Note_off_c, 1, 48, 0
4, 139281, Note_off_c, 1, 51, 0
4, 139281, Note_off_c, 1, 55, 0
4, 139296, Note_on_c, 1, 36, 103
4, 139329, Note_off_c, 1, 36, 0
4, 139344, Note_on_c, 1, 48, 103
4, 139344, Note_on_c, 1, 36, 103
4, 139377, Note_off_c, 1, 36, 0
4, 139377, Note_off_c, 1, 48, 0
4, 139392, Note_on_c, 1, 43, 103
4, 139425, Note_off_c, 1, 43, 0
4, 139440, Note_on_c, 1, 36, 103
4, 139440, Note_on_c, 1, 48, 100
4, 139473, Note_off_c, 1, 36, 0
4, 139473, Note_off_c, 1, 48, 0
4, 139488, Note_on_c, 1, 36, 103
4, 139488, Note_on_c, 1, 48, 96
4, 139569, Note_off_c, 1, 48, 0
4, 139569, Note_off_c, 1, 36, 0
4, 139584, Note_on_c, 1, 48, 99
4, 139584, Note_on_c, 1, 51, 99
4, 139584, Note_on_c, 1, 55, 99
4, 139665, Note_off_c, 1, 48, 0
4, 139665, Note_off_c, 1, 51, 64
4, 139665, Note_off_c, 1, 55, 0
4, 139680, Note_on_c, 1, 48, 97
4, 139680, Note_on_c, 1, 36, 103
4, 139713, Note_off_c, 1, 48, 0
4, 139713, Note_off_c, 1, 36, 0
4, 139728, Note_on_c, 1, 48, 95
4, 139728, Note_on_c, 1, 36, 101
4, 139761, Note_off_c, 1, 36, 0
4, 139761, Note_off_c, 1, 48, 0
4, 139776, Note_on_c, 1, 44, 101
4, 139776, Note_on_c, 1, 32, 101
4, 139872, Note_on_c, 1, 51, 99
4, 139872, Note_on_c, 1, 60, 99
4, 139943, Note_off_c, 1, 44, 0
4, 139943, Note_off_c, 1, 32, 0
4, 139948, Note_off_c, 1, 60, 0
4, 139948, Note_off_c, 1, 51, 0
4, 139968, Note_on_c, 1, 31, 96
4, 139968, Note_on_c, 1, 43, 96
4, 140064, Note_on_c, 1, 62, 92
4, 140064, Note_on_c, 1, 53, 92
4, 140135, Note_off_c, 1, 31, 0
4, 140135, Note_off_c, 1, 43, 0
4, 140140, Note_off_c, 1, 53, 0
4, 140140, Note_off_c, 1, 62, 0
4, 140160, Note_on_c, 1, 36, 89
4, 140160, Note_on_c, 1, 48, 89
4, 140256, Note_on_c, 1, 63, 89
4, 140256, Note_on_c, 1, 60, 89
4, 140286, Note_off_c, 1, 63, 0
4, 140286, Note_off_c, 1, 60, 0
4, 140304, Note_on_c, 1, 55, 89
4, 140380, Note_off_c, 1, 55, 0
4, 140400, Note_on_c, 1, 55, 89
4, 140430, Note_off_c, 1, 55, 0
4, 140448, Note_on_c, 1, 60, 89
4, 140448, Note_on_c, 1, 63, 89
4, 140509, Note_off_c, 1, 36, 0
4, 140509, Note_off_c, 1, 48, 0
4, 140524, Note_off_c, 1, 60, 0
4, 140524, Note_off_c, 1, 63, 0
4, 140544, Note_on_c, 1, 36, 89
4, 140544, Note_on_c, 1, 48, 89
4, 140640, Note_on_c, 1, 63, 89
4, 140640, Note_on_c, 1, 60, 89
4, 140670, Note_off_c, 1, 63, 0
4, 140670, Note_off_c, 1, 60, 0
4, 140688, Note_on_c, 1, 55, 89
4, 140764, Note_off_c, 1, 55, 0
4, 140784, Note_on_c, 1, 55, 89
4, 140814, Note_off_c, 1, 55, 0
4, 140832, Note_on_c, 1, 63, 89
4, 140832, Note_on_c, 1, 60, 89
4, 140893, Note_off_c, 1, 48, 0
4, 140893, Note_off_c, 1, 36, 0
4, 140908, Note_off_c, 1, 63, 0
4, 140908, Note_off_c, 1, 60, 0
4, 140928, Note_on_c, 1, 48, 89
4, 140928, Note_on_c, 1, 36, 89
4, 141024, Note_on_c, 1, 63, 89
4, 141024, Note_on_c, 1, 60, 89
4, 141054, Note_off_c, 1, 63, 0
4, 141054, Note_off_c, 1, 60, 0
4, 141072, Note_on_c, 1, 55, 89
4, 141148, Note_off_c, 1, 55, 0
4, 141168, Note_on_c, 1, 55, 89
4, 141198, Note_off_c, 1, 55, 0
4, 141216, Note_on_c, 1, 60, 89
4, 141216, Note_on_c, 1, 63, 89
4, 141277, Note_off_c, 1, 48, 0
4, 141277, Note_off_c, 1, 36, 0
4, 141292, Note_off_c, 1, 60, 0
4, 141292, Note_off_c, 1, 63, 0
4, 141312, Note_on_c, 1, 48, 89
4, 141312, Note_on_c, 1, 36, 89
4, 141408, Note_on_c, 1, 63, 89
4, 141408, Note_on_c, 1, 60, 89
4, 141438, Note_off_c, 1, 63, 0
4, 141438, Note_off_c, 1, 60, 0
4, 141456, Note_on_c, 1, 55, 89
4, 141532, Note_off_c, 1, 55, 0
4, 141552, Note_on_c, 1, 55, 91
4, 141582, Note_off_c, 1, 55, 0
4, 141600, Note_on_c, 1, 63, 98
4, 141600, Note_on_c, 1, 60, 98
4, 141661, Note_off_c, 1, 36, 0
4, 141661, Note_off_c, 1, 48, 0
4, 141676, Note_off_c, 1, 63, 0
4, 141676, Note_off_c, 1, 60, 0
4, 141696, Note_on_c, 1, 36, 105
4, 141696, Note_on_c, 1, 43, 105
4, 141696, Note_on_c, 1, 48, 105
4, 141749, Note_off_c, 1, 36, 0
4, 141749, Note_off_c, 1, 43, 0
4, 141749, Note_off_c, 1, 48, 0
4, 141768, Note_on_c, 1, 43, 105
4, 141768, Note_on_c, 1, 48, 105
4, 141768, Note_on_c, 1, 55, 105
4, 141775, Note_off_c, 1, 43, 0
4, 141775, Note_off_c, 1, 48, 0
4, 141775, Note_off_c, 1, 55, 0
4, 141840, Note_on_c, 1, 37, 105
4, 141840, Note_on_c, 1, 43, 105
4, 141840, Note_on_c, 1, 49, 105
4, 141916, Note_off_c, 1, 37, 0
4, 141916, Note_off_c, 1, 43, 0
4, 141916, Note_off_c, 1, 49, 0
4, 141936, Note_on_c, 1, 61, 105
4, 141960, Note_on_c, 1, 55, 105
4, 141961, Note_off_c, 1, 61, 0
4, 141967, Note_off_c, 1, 55, 0
4, 141984, Note_on_c, 1, 51, 105
4, 141991, Note_off_c, 1, 51, 0
4, 142008, Note_on_c, 1, 49, 105
4, 142015, Note_off_c, 1, 49, 0
4, 142032, Note_on_c, 1, 43, 105
4, 142062, Note_off_c, 1, 43, 0
4, 142080, Note_on_c, 1, 48, 105
4, 142080, Note_on_c, 1, 43, 105
4, 142080, Note_on_c, 1, 36, 105
4, 142133, Note_off_c, 1, 48, 0
4, 142133, Note_off_c, 1, 43, 0
4, 142133, Note_off_c, 1, 36, 0
4, 142152, Note_on_c, 1, 55, 105
4, 142152, Note_on_c, 1, 48, 105
4, 142152, Note_on_c, 1, 43, 105
4, 142159, Note_off_c, 1, 55, 0
4, 142159, Note_off_c, 1, 48, 0
4, 142159, Note_off_c, 1, 43, 0
4, 142224, Note_on_c, 1, 49, 105
4, 142224, Note_on_c, 1, 43, 105
4, 142224, Note_on_c, 1, 37, 105
4, 142300, Note_off_c, 1, 49, 0
4, 142300, Note_off_c, 1, 43, 0
4, 142300, Note_off_c, 1, 37, 0
4, 142320, Note_on_c, 1, 61, 105
4, 142327, Note_off_c, 1, 61, 0
4, 142344, Note_on_c, 1, 55, 105
4, 142351, Note_off_c, 1, 55, 0
4, 142368, Note_on_c, 1, 51, 105
4, 142375, Note_off_c, 1, 51, 0
4, 142392, Note_on_c, 1, 49, 105
4, 142399, Note_off_c, 1, 49, 0
4, 142416, Note_on_c, 1, 43, 105
4, 142446, Note_off_c, 1, 43, 0
4, 142464, Note_on_c, 1, 36, 92
4, 142496, Note_off_c, 1, 36, 64
4, 142512, Note_on_c, 1, 43, 92
4, 142544, Note_off_c, 1, 43, 64
4, 142560, Note_on_c, 1, 48, 92
4, 142592, Note_off_c, 1, 48, 64
4, 142608, Note_on_c, 1, 51, 92
4, 142640, Note_off_c, 1, 51, 64
4, 142656, Note_on_c, 1, 55, 92
4, 142688, Note_off_c, 1, 55, 64
4, 142705, Note_on_c, 1, 51, 92
4, 142736, Note_off_c, 1, 51, 64
4, 142752, Note_on_c, 1, 55, 92
4, 142784, Note_off_c, 1, 55, 64
4, 142800, Note_on_c, 1, 51, 92
4, 142832, Note_off_c, 1, 51, 64
4, 142848, Note_on_c, 1, 36, 92
4, 142880, Note_off_c, 1, 36, 64
4, 142896, Note_on_c, 1, 43, 92
4, 142928, Note_off_c, 1, 43, 64
4, 142944, Note_on_c, 1, 48, 92
4, 142976, Note_off_c, 1, 48, 64
4, 142992, Note_on_c, 1, 51, 92
4, 143024, Note_off_c, 1, 51, 64
4, 143040, Note_on_c, 1, 55, 92
4, 143072, Note_off_c, 1, 55, 64
4, 143088, Note_on_c, 1, 51, 92
4, 143120, Note_off_c, 1, 51, 64
4, 143136, Note_on_c, 1, 55, 92
4, 143168, Note_off_c, 1, 55, 64
4, 143184, Note_on_c, 1, 51, 92
4, 143216, Note_off_c, 1, 51, 64
4, 143232, Note_on_c, 1, 36, 92
4, 143264, Note_off_c, 1, 36, 64
4, 143280, Note_on_c, 1, 43, 92
4, 143312, Note_off_c, 1, 43, 64
4, 143328, Note_on_c, 1, 48, 92
4, 143360, Note_off_c, 1, 48, 64
4, 143376, Note_on_c, 1, 51, 92
4, 143408, Note_off_c, 1, 51, 64
4, 143424, Note_on_c, 1, 55, 92
4, 143456, Note_off_c, 1, 55, 64
4, 143472, Note_on_c, 1, 51, 92
4, 143504, Note_off_c, 1, 51, 64
4, 143520, Note_on_c, 1, 55, 92
4, 143552, Note_off_c, 1, 55, 64
4, 143568, Note_on_c, 1, 51, 92
4, 143600, Note_off_c, 1, 51, 64
4, 143616, Note_on_c, 1, 36, 92
4, 143648, Note_off_c, 1, 36, 64
4, 143664, Note_on_c, 1, 43, 92
4, 143696, Note_off_c, 1, 43, 64
4, 143712, Note_on_c, 1, 48, 92
4, 143743, Note_off_c, 1, 48, 64
4, 143760, Note_on_c, 1, 51, 92
4, 143791, Note_off_c, 1, 51, 64
4, 143808, Note_on_c, 1, 55, 92
4, 143840, Note_off_c, 1, 55, 64
4, 143856, Note_on_c, 1, 51, 92
4, 143888, Note_off_c, 1, 51, 64
4, 143904, Note_on_c, 1, 55, 92
4, 143936, Note_off_c, 1, 55, 64
4, 143952, Note_on_c, 1, 51, 92
4, 143984, Note_off_c, 1, 51, 64
4, 144000, Note_on_c, 1, 48, 102
4, 144000, Note_on_c, 1, 43, 102
4, 144000, Note_on_c, 1, 36, 102
4, 144053, Note_off_c, 1, 48, 0
4, 144053, Note_off_c, 1, 43, 0
4, 144053, Note_off_c, 1, 36, 0
4, 144072, Note_on_c, 1, 55, 104
4, 144072, Note_on_c, 1, 48, 104
4, 144072, Note_on_c, 1, 43, 104
4, 144079, Note_off_c, 1, 55, 0
4, 144079, Note_off_c, 1, 48, 0
4, 144079, Note_off_c, 1, 43, 0
4, 144144, Note_on_c, 1, 49, 105
4, 144144, Note_on_c, 1, 43, 105
4, 144144, Note_on_c, 1, 37, 105
4, 144220, Note_off_c, 1, 49, 0
4, 144220, Note_off_c, 1, 43, 0
4, 144220, Note_off_c, 1, 37, 0
4, 144240, Note_on_c, 1, 61, 97
4, 144264, Note_on_c, 1, 55, 98
4, 144265, Note_off_c, 1, 61, 0
4, 144271, Note_off_c, 1, 55, 0
4, 144288, Note_on_c, 1, 51, 99
4, 144295, Note_off_c, 1, 51, 0
4, 144312, Note_on_c, 1, 49, 99
4, 144319, Note_off_c, 1, 49, 0
4, 144336, Note_on_c, 1, 43, 100
4, 144366, Note_off_c, 1, 43, 0
4, 144384, Note_on_c, 1, 36, 101
4, 144384, Note_on_c, 1, 43, 101
4, 144384, Note_on_c, 1, 48, 101
4, 144437, Note_off_c, 1, 36, 0
4, 144437, Note_off_c, 1, 43, 0
4, 144437, Note_off_c, 1, 48, 0
4, 144456, Note_on_c, 1, 43, 104
4, 144456, Note_on_c, 1, 48, 104
4, 144456, Note_on_c, 1, 55, 104
4, 144463, Note_off_c, 1, 43, 0
4, 144463, Note_off_c, 1, 48, 0
4, 144463, Note_off_c, 1, 55, 0
4, 144528, Note_on_c, 1, 37, 106
4, 144528, Note_on_c, 1, 43, 106
4, 144528, Note_on_c, 1, 49, 106
4, 144604, Note_off_c, 1, 37, 0
4, 144604, Note_off_c, 1, 43, 0
4, 144604, Note_off_c, 1, 49, 0
4, 144624, Note_on_c, 1, 61, 98
4, 144631, Note_off_c, 1, 61, 0
4, 144648, Note_on_c, 1, 55, 99
4, 144655, Note_off_c, 1, 55, 0
4, 144672, Note_on_c, 1, 51, 100
4, 144679, Note_off_c, 1, 51, 0
4, 144696, Note_on_c, 1, 49, 101
4, 144703, Note_off_c, 1, 49, 0
4, 144720, Note_on_c, 1, 43, 102
4, 144750, Note_off_c, 1, 43, 0
4, 144768, Note_on_c, 1, 24, 104
4, 144768, Note_on_c, 1, 36, 104
4, 144849, Note_off_c, 1, 36, 0
4, 144864, Note_on_c, 1, 36, 104
4, 144864, Note_on_c, 1, 48, 104
4, 144940, Note_off_c, 1, 48, 0
4, 144960, Note_on_c, 1, 55, 104
4, 144960, Note_on_c, 1, 63, 104
4, 144960, Note_on_c, 1, 67, 104
4, 145040, Note_off_c, 1, 55, 0
4, 145040, Note_off_c, 1, 63, 0
4, 145040, Note_off_c, 1, 67, 0
4, 145056, Note_on_c, 1, 60, 104
4, 145056, Note_on_c, 1, 55, 104
4, 145056, Note_on_c, 1, 48, 104
4, 145117, Note_off_c, 1, 24, 0
4, 145117, Note_off_c, 1, 36, 0
4, 145132, Note_off_c, 1, 48, 0
4, 145132, Note_off_c, 1, 55, 0
4, 145132, Note_off_c, 1, 60, 0
4, 145152, Note_on_c, 1, 36, 104
4, 145152, Note_on_c, 1, 24, 104
4, 145233, Note_off_c, 1, 36, 0
4, 145248, Note_on_c, 1, 48, 104
4, 145248, Note_on_c, 1, 36, 104
4, 145324, Note_off_c, 1, 48, 0
4, 145344, Note_on_c, 1, 70, 104
4, 145344, Note_on_c, 1, 63, 104
4, 145344, Note_on_c, 1, 58, 104
4, 145424, Note_off_c, 1, 70, 0
4, 145424, Note_off_c, 1, 63, 0
4, 145424, Note_off_c, 1, 58, 0
4, 145440, Note_on_c, 1, 56, 104
4, 145440, Note_on_c, 1, 63, 104
4, 145440, Note_on_c, 1, 68, 104
4, 145501, Note_off_c, 1, 24, 0
4, 145501, Note_off_c, 1, 36, 0
4, 145516, Note_off_c, 1, 68, 0
4, 145516, Note_off_c, 1, 63, 0
4, 145516, Note_off_c, 1, 56, 0
4, 145536, Note_on_c, 1, 24, 104
4, 145536, Note_on_c, 1, 36, 104
4, 145617, Note_off_c, 1, 36, 0
4, 145632, Note_on_c, 1, 36, 104
4, 145632, Note_on_c, 1, 48, 104
4, 145708, Note_off_c, 1, 48, 0
4, 145728, Note_on_c, 1, 55, 104
4, 145728, Note_on_c, 1, 63, 104
4, 145728, Note_on_c, 1, 67, 104
4, 145808, Note_off_c, 1, 55, 0
4, 145808, Note_off_c, 1, 63, 0
4, 145808, Note_off_c, 1, 67, 0
4, 145824, Note_on_c, 1, 60, 104
4, 145824, Note_on_c, 1, 55, 104
4, 145824, Note_on_c, 1, 48, 104
4, 145885, Note_off_c, 1, 24, 0
4, 145885, Note_off_c, 1, 36, 0
4, 145900, Note_off_c, 1, 48, 0
4, 145900, Note_off_c, 1, 55, 0
4, 145900, Note_off_c, 1, 60, 0
4, 145920, Note_on_c, 1, 44, 104
4, 145920, Note_on_c, 1, 32, 104
4, 146016, Note_on_c, 1, 56, 104
4, 146016, Note_on_c, 1, 51, 104
4, 146016, Note_on_c, 1, 48, 104
4, 146087, Note_off_c, 1, 44, 0
4, 146087, Note_off_c, 1, 32, 0
4, 146092, Note_off_c, 1, 48, 0
4, 146092, Note_off_c, 1, 51, 0
4, 146092, Note_off_c, 1, 56, 0
4, 146112, Note_on_c, 1, 43, 104
4, 146112, Note_on_c, 1, 31, 104
4, 146208, Note_on_c, 1, 47, 104
4, 146208, Note_on_c, 1, 50, 104
4, 146208, Note_on_c, 1, 55, 104
4, 146279, Note_off_c, 1, 43, 0
4, 146279, Note_off_c, 1, 31, 0
4, 146284, Note_off_c, 1, 55, 0
4, 146284, Note_off_c, 1, 50, 0
4, 146284, Note_off_c, 1, 47, 0
4, 146304, Note_on_c, 1, 24, 104
4, 146304, Note_on_c, 1, 36, 104
4, 146400, Note_on_c, 1, 48, 104
4, 146400, Note_on_c, 1, 55, 104
4, 146400, Note_on_c, 1, 60, 104
4, 146480, Note_off_c, 1, 48, 0
4, 146480, Note_off_c, 1, 55, 0
4, 146480, Note_off_c, 1, 60, 0
4, 146496, Note_on_c, 1, 55, 104
4, 146496, Note_on_c, 1, 63, 104
4, 146496, Note_on_c, 1, 67, 104
4, 146576, Note_off_c, 1, 55, 0
4, 146576, Note_off_c, 1, 63, 0
4, 146576, Note_off_c, 1, 67, 0
4, 146592, Note_on_c, 1, 60, 104
4, 146592, Note_on_c, 1, 55, 104
4, 146592, Note_on_c, 1, 48, 104
4, 146653, Note_off_c, 1, 24, 0
4, 146653, Note_off_c, 1, 36, 0
4, 146668, Note_off_c, 1, 48, 0
4, 146668, Note_off_c, 1, 55, 0
4, 146668, Note_off_c, 1, 60, 0
4, 146688, Note_on_c, 1, 48, 104
4, 146688, Note_on_c, 1, 36, 104
4, 146784, Note_on_c, 1, 60, 104
4, 146784, Note_on_c, 1, 55, 104
4, 146855, Note_off_c, 1, 36, 0
4, 146860, Note_off_c, 1, 60, 0
4, 146860, Note_off_c, 1, 55, 0
4, 146865, Note_off_c, 1, 48, 0
4, 146880, Note_on_c, 1, 46, 104
4, 146880, Note_on_c, 1, 34, 104
4, 146936, Note_off_c, 1, 46, 0
4, 146936, Note_off_c, 1, 34, 0
4, 146952, Note_on_c, 1, 48, 104
4, 146952, Note_on_c, 1, 36, 104
4, 147008, Note_off_c, 1, 36, 0
4, 147008, Note_off_c, 1, 48, 0
4, 147024, Note_on_c, 1, 37, 104
4, 147024, Note_on_c, 1, 49, 104
4, 147054, Note_off_c, 1, 37, 0
4, 147054, Note_off_c, 1, 49, 0
4, 147072, Note_on_c, 1, 24, 104
4, 147072, Note_on_c, 1, 36, 104
4, 147168, Note_on_c, 1, 48, 104
4, 147168, Note_on_c, 1, 55, 104
4, 147168, Note_on_c, 1, 60, 104
4, 147248, Note_off_c, 1, 48, 0
4, 147248, Note_off_c, 1, 55, 0
4, 147248, Note_off_c, 1, 60, 0
4, 147264, Note_on_c, 1, 58, 103
4, 147264, Note_on_c, 1, 63, 103
4, 147264, Note_on_c, 1, 70, 103
4, 147296, Note_off_c, 1, 58, 0
4, 147296, Note_off_c, 1, 63, 0
4, 147296, Note_off_c, 1, 70, 0
4, 147312, Note_on_c, 1, 56, 103
4, 147312, Note_on_c, 1, 63, 103
4, 147312, Note_on_c, 1, 68, 103
4, 147344, Note_off_c, 1, 56, 0
4, 147344, Note_off_c, 1, 63, 0
4, 147344, Note_off_c, 1, 68, 0
4, 147360, Note_on_c, 1, 67, 105
4, 147360, Note_on_c, 1, 60, 105
4, 147360, Note_on_c, 1, 55, 105
4, 147421, Note_off_c, 1, 24, 0
4, 147421, Note_off_c, 1, 36, 0
4, 147436, Note_off_c, 1, 55, 0
4, 147436, Note_off_c, 1, 60, 0
4, 147436, Note_off_c, 1, 67, 0
4, 147456, Note_on_c, 1, 32, 105
4, 147456, Note_on_c, 1, 44, 105
4, 147552, Note_on_c, 1, 48, 104
4, 147552, Note_on_c, 1, 51, 104
4, 147552, Note_on_c, 1, 56, 104
4, 147623, Note_off_c, 1, 32, 0
4, 147623, Note_off_c, 1, 44, 0
4, 147628, Note_off_c, 1, 56, 0
4, 147628, Note_off_c, 1, 51, 0
4, 147628, Note_off_c, 1, 48, 0
4, 147648, Note_on_c, 1, 43, 102
4, 147648, Note_on_c, 1, 31, 102
4, 147744, Note_on_c, 1, 55, 102
4, 147744, Note_on_c, 1, 50, 102
4, 147744, Note_on_c, 1, 47, 102
4, 147815, Note_off_c, 1, 43, 0
4, 147815, Note_off_c, 1, 31, 0
4, 147820, Note_off_c, 1, 47, 0
4, 147820, Note_off_c, 1, 50, 0
4, 147820, Note_off_c, 1, 55, 0
4, 147840, Note_on_c, 1, 48, 81
4, 147840, Note_on_c, 1, 36, 81
4, 147840, Note_on_c, 1, 43, 81
4, 147868, Note_off_c, 1, 48, 0
4, 147868, Note_off_c, 1, 36, 0
4, 147868, Note_off_c, 1, 43, 0
4, 147888, Note_on_c, 1, 48, 83
4, 147888, Note_on_c, 1, 36, 83
4, 147888, Note_on_c, 1, 43, 83
4, 147916, Note_off_c, 1, 48, 0
4, 147916, Note_off_c, 1, 36, 0
4, 147916, Note_off_c, 1, 43, 0
4, 147936, Note_on_c, 1, 48, 84
4, 147936, Note_on_c, 1, 43, 84
4, 147936, Note_on_c, 1, 36, 84
4, 147964, Note_off_c, 1, 48, 0
4, 147964, Note_off_c, 1, 43, 0
4, 147964, Note_off_c, 1, 36, 0
4, 147984, Note_on_c, 1, 48, 86
4, 147984, Note_on_c, 1, 43, 86
4, 147984, Note_on_c, 1, 36, 86
4, 148012, Note_off_c, 1, 48, 0
4, 148012, Note_off_c, 1, 43, 0
4, 148012, Note_off_c, 1, 36, 0
4, 148032, Note_on_c, 1, 48, 87
4, 148032, Note_on_c, 1, 36, 87
4, 148032, Note_on_c, 1, 43, 87
4, 148060, Note_off_c, 1, 48, 0
4, 148060, Note_off_c, 1, 36, 0
4, 148060, Note_off_c, 1, 43, 0
4, 148080, Note_on_c, 1, 48, 89
4, 148080, Note_on_c, 1, 36, 89
4, 148080, Note_on_c, 1, 43, 89
4, 148108, Note_off_c, 1, 48, 0
4, 148108, Note_off_c, 1, 36, 0
4, 148108, Note_off_c, 1, 43, 0
4, 148128, Note_on_c, 1, 48, 90
4, 148128, Note_on_c, 1, 43, 90
4, 148128, Note_on_c, 1, 36, 90
4, 148156, Note_off_c, 1, 48, 0
4, 148156, Note_off_c, 1, 43, 0
4, 148156, Note_off_c, 1, 36, 0
4, 148176, Note_on_c, 1, 48, 92
4, 148176, Note_on_c, 1, 43, 92
4, 148176, Note_on_c, 1, 36, 92
4, 148204, Note_off_c, 1, 48, 0
4, 148204, Note_off_c, 1, 43, 0
4, 148204, Note_off_c, 1, 36, 0
4, 148224, Note_on_c, 1, 43, 93
4, 148224, Note_on_c, 1, 36, 93
4, 148224, Note_on_c, 1, 48, 93
4, 148252, Note_off_c, 1, 43, 0
4, 148252, Note_off_c, 1, 36, 0
4, 148252, Note_off_c, 1, 48, 0
4, 148272, Note_on_c, 1, 43, 95
4, 148272, Note_on_c, 1, 36, 95
4, 148272, Note_on_c, 1, 48, 95
4, 148300, Note_off_c, 1, 43, 0
4, 148300, Note_off_c, 1, 36, 0
4, 148300, Note_off_c, 1, 48, 0
4, 148320, Note_on_c, 1, 48, 97
4, 148320, Note_on_c, 1, 43, 97
4, 148320, Note_on_c, 1, 36, 97
4, 148348, Note_off_c, 1, 48, 0
4, 148348, Note_off_c, 1, 43, 0
4, 148348, Note_off_c, 1, 36, 0
4, 148368, Note_on_c, 1, 36, 98
4, 148368, Note_on_c, 1, 43, 98
4, 148368, Note_on_c, 1, 48, 98
4, 148396, Note_off_c, 1, 36, 0
4, 148396, Note_off_c, 1, 43, 0
4, 148396, Note_off_c, 1, 48, 0
4, 148608, Note_on_c, 1, 32, 104
4, 148608, Note_on_c, 1, 44, 104
4, 148752, Note_on_c, 1, 51, 104
4, 148782, Note_off_c, 1, 51, 0
4, 148800, Note_on_c, 1, 60, 104
4, 148800, Note_on_c, 1, 63, 104
4, 148830, Note_off_c, 1, 60, 0
4, 148830, Note_off_c, 1, 63, 0
4, 148848, Note_on_c, 1, 56, 104
4, 148878, Note_off_c, 1, 56, 0
4, 148896, Note_on_c, 1, 51, 104
4, 148957, Note_off_c, 1, 32, 0
4, 148957, Note_off_c, 1, 44, 0
4, 148972, Note_off_c, 1, 51, 0
4, 148992, Note_on_c, 1, 43, 104
4, 148992, Note_on_c, 1, 31, 104
4, 149136, Note_on_c, 1, 50, 104
4, 149166, Note_off_c, 1, 50, 0
4, 149184, Note_on_c, 1, 62, 104
4, 149184, Note_on_c, 1, 59, 104
4, 149214, Note_off_c, 1, 62, 0
4, 149214, Note_off_c, 1, 59, 0
4, 149232, Note_on_c, 1, 55, 104
4, 149262, Note_off_c, 1, 55, 0
4, 149280, Note_on_c, 1, 50, 104
4, 149341, Note_off_c, 1, 43, 0
4, 149341, Note_off_c, 1, 31, 0
4, 149356, Note_off_c, 1, 50, 0
4, 149376, Note_on_c, 1, 48, 104
4, 149376, Note_on_c, 1, 36, 104
4, 149520, Note_on_c, 1, 55, 104
4, 149550, Note_off_c, 1, 55, 0
4, 149568, Note_on_c, 1, 67, 104
4, 149568, Note_on_c, 1, 63, 104
4, 149598, Note_off_c, 1, 67, 0
4, 149598, Note_off_c, 1, 63, 0
4, 149616, Note_on_c, 1, 60, 104
4, 149646, Note_off_c, 1, 60, 0
4, 149664, Note_on_c, 1, 55, 104
4, 149725, Note_off_c, 1, 48, 0
4, 149725, Note_off_c, 1, 36, 0
4, 149740, Note_off_c, 1, 55, 0
4, 149760, Note_on_c, 1, 46, 104
4, 149760, Note_on_c, 1, 34, 104
4, 149808, Note_on_c, 1, 62, 104
4, 149808, Note_on_c, 1, 58, 104
4, 149884, Note_off_c, 1, 62, 0
4, 149884, Note_off_c, 1, 58, 0
4, 149904, Note_on_c, 1, 53, 104
4, 149934, Note_off_c, 1, 53, 0
4, 149952, Note_on_c, 1, 65, 104
4, 149952, Note_on_c, 1, 62, 104
4, 149982, Note_off_c, 1, 65, 0
4, 149982, Note_off_c, 1, 62, 0
4, 150000, Note_on_c, 1, 58, 104
4, 150030, Note_off_c, 1, 58, 0
4, 150048, Note_on_c, 1, 53, 104
4, 150109, Note_off_c, 1, 46, 0
4, 150109, Note_off_c, 1, 34, 0
4, 150124, Note_off_c, 1, 53, 0
4, 150144, Note_on_c, 1, 44, 104
4, 150144, Note_on_c, 1, 32, 104
4, 150288, Note_on_c, 1, 51, 104
4, 150318, Note_off_c, 1, 51, 0
4, 150336, Note_on_c, 1, 63, 104
4, 150336, Note_on_c, 1, 60, 104
4, 150366, Note_off_c, 1, 63, 0
4, 150366, Note_off_c, 1, 60, 0
4, 150384, Note_on_c, 1, 56, 104
4, 150414, Note_off_c, 1, 56, 0
4, 150432, Note_on_c, 1, 51, 104
4, 150493, Note_off_c, 1, 44, 0
4, 150493, Note_off_c, 1, 32, 0
4, 150508, Note_off_c, 1, 51, 0
4, 150528, Note_on_c, 1, 43, 104
4, 150528, Note_on_c, 1, 31, 104
4, 150672, Note_on_c, 1, 50, 104
4, 150702, Note_off_c, 1, 50, 0
4, 150720, Note_on_c, 1, 62, 104
4, 150720, Note_on_c, 1, 59, 104
4, 150750, Note_off_c, 1, 62, 0
4, 150750, Note_off_c, 1, 59, 0
4, 150768, Note_on_c, 1, 55, 105
4, 150798, Note_off_c, 1, 55, 0
4, 150816, Note_on_c, 1, 50, 103
4, 150877, Note_off_c, 1, 43, 0
4, 150877, Note_off_c, 1, 31, 0
4, 150892, Note_off_c, 1, 50, 0
4, 150912, Note_on_c, 1, 48, 102
4, 150912, Note_on_c, 1, 36, 102
4, 151056, Note_on_c, 1, 55, 100
4, 151086, Note_off_c, 1, 55, 0
4, 151104, Note_on_c, 1, 67, 99
4, 151104, Note_on_c, 1, 63, 99
4, 151134, Note_off_c, 1, 63, 0
4, 151152, Note_on_c, 1, 60, 98
4, 151182, Note_off_c, 1, 60, 0
4, 151200, Note_on_c, 1, 55, 96
4, 151261, Note_off_c, 1, 48, 0
4, 151261, Note_off_c, 1, 36, 0
4, 151276, Note_off_c, 1, 55, 0
4, 151280, Note_off_c, 1, 67, 0
4, 151296, Note_on_c, 1, 46, 95
4, 151296, Note_on_c, 1, 34, 95
4, 151344, Note_on_c, 1, 62, 96
4, 151344, Note_on_c, 1, 58, 96
4, 151420, Note_off_c, 1, 62, 0
4, 151420, Note_off_c, 1, 58, 0
4, 151440, Note_on_c, 1, 53, 98
4, 151470, Note_off_c, 1, 53, 0
4, 151488, Note_on_c, 1, 65, 98
4, 151488, Note_on_c, 1, 62, 98
4, 151518, Note_off_c, 1, 65, 0
4, 151518, Note_off_c, 1, 62, 0
4, 151536, Note_on_c, 1, 58, 99
4, 151566, Note_off_c, 1, 58, 0
4, 151584, Note_on_c, 1, 53, 100
4, 151645, Note_off_c, 1, 46, 0
4, 151645, Note_off_c, 1, 34, 0
4, 151660, Note_off_c, 1, 53, 0
4, 151680, Note_on_c, 1, 44, 103
4, 151680, Note_on_c, 1, 32, 103
4, 151824, Note_on_c, 1, 51, 103
4, 151854, Note_off_c, 1, 51, 0
4, 151872, Note_on_c, 1, 63, 103
4, 151872, Note_on_c, 1, 60, 103
4, 151902, Note_off_c, 1, 63, 0
4, 151902, Note_off_c, 1, 60, 0
4, 151920, Note_on_c, 1, 56, 103
4, 151950, Note_off_c, 1, 56, 0
4, 151968, Note_on_c, 1, 51, 103
4, 152029, Note_off_c, 1, 44, 0
4, 152029, Note_off_c, 1, 32, 0
4, 152044, Note_off_c, 1, 51, 0
4, 152064, Note_on_c, 1, 43, 103
4, 152064, Note_on_c, 1, 31, 103
4, 152208, Note_on_c, 1, 50, 102
4, 152238, Note_off_c, 1, 50, 0
4, 152256, Note_on_c, 1, 62, 102
4, 152256, Note_on_c, 1, 59, 102
4, 152286, Note_off_c, 1, 62, 0
4, 152286, Note_off_c, 1, 59, 0
4, 152304, Note_on_c, 1, 55, 102
4, 152334, Note_off_c, 1, 55, 0
4, 152352, Note_on_c, 1, 50, 102
4, 152413, Note_off_c, 1, 43, 0
4, 152413, Note_off_c, 1, 31, 0
4, 152428, Note_off_c, 1, 50, 0
4, 152448, Note_on_c, 1, 48, 102
4, 152448, Note_on_c, 1, 36, 102
4, 152592, Note_on_c, 1, 55, 102
4, 152622, Note_off_c, 1, 55, 0
4, 152640, Note_on_c, 1, 67, 102
4, 152640, Note_on_c, 1, 63, 102
4, 152670, Note_off_c, 1, 67, 0
4, 152670, Note_off_c, 1, 63, 0
4, 152688, Note_on_c, 1, 60, 102
4, 152718, Note_off_c, 1, 60, 0
4, 152736, Note_on_c, 1, 55, 103
4, 152797, Note_off_c, 1, 48, 0
4, 152797, Note_off_c, 1, 36, 0
4, 152812, Note_off_c, 1, 55, 0
4, 152832, Note_on_c, 1, 46, 102
4, 152832, Note_on_c, 1, 34, 102
4, 152880, Note_on_c, 1, 62, 100
4, 152880, Note_on_c, 1, 58, 100
4, 152956, Note_off_c, 1, 62, 0
4, 152956, Note_off_c, 1, 58, 0
4, 152976, Note_on_c, 1, 53, 97
4, 153006, Note_off_c, 1, 53, 0
4, 153024, Note_on_c, 1, 65, 97
4, 153024, Note_on_c, 1, 62, 97
4, 153054, Note_off_c, 1, 65, 0
4, 153054, Note_off_c, 1, 62, 0
4, 153072, Note_on_c, 1, 58, 98
4, 153102, Note_off_c, 1, 58, 0
4, 153120, Note_on_c, 1, 53, 100
4, 153181, Note_off_c, 1, 46, 0
4, 153181, Note_off_c, 1, 34, 0
4, 153196, Note_off_c, 1, 53, 0
4, 153216, Note_on_c, 1, 47, 97
4, 153216, Note_on_c, 1, 35, 97
4, 153360, Note_on_c, 1, 53, 98
4, 153390, Note_off_c, 1, 53, 0
4, 153408, Note_on_c, 1, 65, 98
4, 153408, Note_on_c, 1, 63, 98
4, 153438, Note_off_c, 1, 65, 0
4, 153438, Note_off_c, 1, 63, 0
4, 153456, Note_on_c, 1, 59, 98
4, 153486, Note_off_c, 1, 59, 0
4, 153504, Note_on_c, 1, 53, 98
4, 153565, Note_off_c, 1, 47, 0
4, 153565, Note_off_c, 1, 35, 0
4, 153580, Note_off_c, 1, 53, 0
4, 153600, Note_on_c, 1, 47, 97
4, 153600, Note_on_c, 1, 35, 97
4, 153744, Note_on_c, 1, 53, 100
4, 153774, Note_off_c, 1, 53, 0
4, 153792, Note_on_c, 1, 65, 100
4, 153792, Note_on_c, 1, 63, 100
4, 153822, Note_off_c, 1, 65, 0
4, 153822, Note_off_c, 1, 63, 0
4, 153840, Note_on_c, 1, 59, 99
4, 153870, Note_off_c, 1, 59, 0
4, 153888, Note_on_c, 1, 53, 98
4, 153949, Note_off_c, 1, 47, 0
4, 153949, Note_off_c, 1, 35, 0
4, 153964, Note_off_c, 1, 53, 0
4, 153984, Note_on_c, 1, 46, 96
4, 153984, Note_on_c, 1, 34, 96
4, 154037, Note_off_c, 1, 46, 0
4, 154037, Note_off_c, 1, 34, 0
4, 154056, Note_on_c, 1, 41, 97
4, 154056, Note_on_c, 1, 53, 97
4, 154109, Note_off_c, 1, 41, 0
4, 154109, Note_off_c, 1, 53, 0
4, 154128, Note_on_c, 1, 46, 99
4, 154128, Note_on_c, 1, 58, 99
4, 154158, Note_off_c, 1, 46, 0
4, 154158, Note_off_c, 1, 58, 0
4, 154176, Note_on_c, 1, 58, 100
4, 154176, Note_on_c, 1, 46, 100
4, 154206, Note_off_c, 1, 58, 0
4, 154206, Note_off_c, 1, 46, 0
4, 154224, Note_on_c, 1, 41, 101
4, 154224, Note_on_c, 1, 53, 101
4, 154254, Note_off_c, 1, 41, 0
4, 154254, Note_off_c, 1, 53, 0
4, 154272, Note_on_c, 1, 46, 102
4, 154272, Note_on_c, 1, 34, 102
4, 154348, Note_off_c, 1, 34, 0
4, 154348, Note_off_c, 1, 46, 0
4, 154368, Note_on_c, 1, 34, 104
4, 154368, Note_on_c, 1, 46, 104
4, 154421, Note_off_c, 1, 34, 0
4, 154421, Note_off_c, 1, 46, 0
4, 154440, Note_on_c, 1, 46, 105
4, 154440, Note_on_c, 1, 34, 105
4, 154493, Note_off_c, 1, 46, 0
4, 154493, Note_off_c, 1, 34, 0
4, 154512, Note_on_c, 1, 46, 107
4, 154512, Note_on_c, 1, 34, 107
4, 154588, Note_off_c, 1, 46, 0
4, 154588, Note_off_c, 1, 34, 0
4, 154752, Note_on_c, 1, 46, 105
4, 154752, Note_on_c, 1, 34, 105
4, 154785, Note_off_c, 1, 46, 0
4, 154785, Note_off_c, 1, 34, 0
4, 154800, Note_on_c, 1, 48, 105
4, 154800, Note_on_c, 1, 36, 105
4, 154833, Note_off_c, 1, 36, 0
4, 154833, Note_off_c, 1, 48, 0
4, 154848, Note_on_c, 1, 48, 105
4, 154848, Note_on_c, 1, 43, 105
4, 154848, Note_on_c, 1, 36, 105
4, 154929, Note_off_c, 1, 48, 0
4, 154929, Note_off_c, 1, 43, 0
4, 154929, Note_off_c, 1, 36, 0
4, 154944, Note_on_c, 1, 49, 105
4, 154944, Note_on_c, 1, 37, 105
4, 154977, Note_off_c, 1, 49, 0
4, 154977, Note_off_c, 1, 37, 0
4, 154992, Note_on_c, 1, 48, 105
4, 154992, Note_on_c, 1, 36, 105
4, 155025, Note_off_c, 1, 36, 0
4, 155025, Note_off_c, 1, 48, 0
4, 155040, Note_on_c, 1, 48, 105
4, 155040, Note_on_c, 1, 43, 105
4, 155040, Note_on_c, 1, 36, 105
4, 155073, Note_off_c, 1, 48, 0
4, 155073, Note_off_c, 1, 43, 0
4, 155073, Note_off_c, 1, 36, 0
4, 155088, Note_on_c, 1, 46, 105
4, 155088, Note_on_c, 1, 34, 105
4, 155121, Note_off_c, 1, 34, 0
4, 155121, Note_off_c, 1, 46, 0
4, 155136, Note_on_c, 1, 46, 105
4, 155136, Note_on_c, 1, 34, 105
4, 155169, Note_off_c, 1, 46, 0
4, 155169, Note_off_c, 1, 34, 0
4, 155184, Note_on_c, 1, 48, 105
4, 155184, Note_on_c, 1, 36, 105
4, 155217, Note_off_c, 1, 36, 0
4, 155217, Note_off_c, 1, 48, 0
4, 155232, Note_on_c, 1, 48, 105
4, 155232, Note_on_c, 1, 43, 105
4, 155232, Note_on_c, 1, 36, 105
4, 155313, Note_off_c, 1, 48, 0
4, 155313, Note_off_c, 1, 43, 0
4, 155313, Note_off_c, 1, 36, 0
4, 155328, Note_on_c, 1, 46, 105
4, 155328, Note_on_c, 1, 34, 105
4, 155361, Note_off_c, 1, 46, 0
4, 155361, Note_off_c, 1, 34, 0
4, 155376, Note_on_c, 1, 48, 105
4, 155376, Note_on_c, 1, 36, 105
4, 155409, Note_off_c, 1, 36, 0
4, 155409, Note_off_c, 1, 48, 0
4, 155424, Note_on_c, 1, 48, 106
4, 155424, Note_on_c, 1, 43, 106
4, 155424, Note_on_c, 1, 36, 106
4, 155457, Note_off_c, 1, 48, 0
4, 155457, Note_off_c, 1, 43, 0
4, 155457, Note_off_c, 1, 36, 0
4, 155472, Note_on_c, 1, 31, 106
4, 155481, Note_off_c, 1, 31, 0
4, 155496, Note_on_c, 1, 43, 106
4, 155505, Note_off_c, 1, 43, 0
4, 155520, Note_on_c, 1, 46, 106
4, 155520, Note_on_c, 1, 34, 106
4, 155553, Note_off_c, 1, 46, 0
4, 155553, Note_off_c, 1, 34, 0
4, 155568, Note_on_c, 1, 48, 106
4, 155568, Note_on_c, 1, 36, 106
4, 155601, Note_off_c, 1, 36, 0
4, 155601, Note_off_c, 1, 48, 0
4, 155616, Note_on_c, 1, 48, 106
4, 155616, Note_on_c, 1, 43, 106
4, 155616, Note_on_c, 1, 36, 106
4, 155697, Note_off_c, 1, 48, 0
4, 155697, Note_off_c, 1, 43, 0
4, 155697, Note_off_c, 1, 36, 0
4, 155712, Note_on_c, 1, 49, 106
4, 155712, Note_on_c, 1, 37, 106
4, 155745, Note_off_c, 1, 49, 0
4, 155745, Note_off_c, 1, 37, 0
4, 155760, Note_on_c, 1, 48, 106
4, 155760, Note_on_c, 1, 36, 106
4, 155793, Note_off_c, 1, 36, 0
4, 155793, Note_off_c, 1, 48, 0
4, 155808, Note_on_c, 1, 48, 106
4, 155808, Note_on_c, 1, 43, 106
4, 155808, Note_on_c, 1, 36, 106
4, 155841, Note_off_c, 1, 48, 0
4, 155841, Note_off_c, 1, 43, 0
4, 155841, Note_off_c, 1, 36, 0
4, 155856, Note_on_c, 1, 46, 106
4, 155856, Note_on_c, 1, 34, 106
4, 155889, Note_off_c, 1, 34, 0
4, 155889, Note_off_c, 1, 46, 0
4, 155904, Note_on_c, 1, 46, 106
4, 155904, Note_on_c, 1, 34, 106
4, 155937, Note_off_c, 1, 46, 0
4, 155937, Note_off_c, 1, 34, 0
4, 155952, Note_on_c, 1, 48, 106
4, 155952, Note_on_c, 1, 36, 106
4, 155985, Note_off_c, 1, 36, 0
4, 155985, Note_off_c, 1, 48, 0
4, 156000, Note_on_c, 1, 48, 108
4, 156000, Note_on_c, 1, 43, 108
4, 156000, Note_on_c, 1, 36, 108
4, 156081, Note_off_c, 1, 48, 0
4, 156081, Note_off_c, 1, 43, 0
4, 156081, Note_off_c, 1, 36, 0
4, 156096, Note_on_c, 1, 36, 112
4, 156103, Note_off_c, 1, 36, 0
4, 156120, Note_on_c, 1, 35, 113
4, 156127, Note_off_c, 1, 35, 0
4, 156144, Note_on_c, 1, 33, 115
4, 156151, Note_off_c, 1, 33, 0
4, 156168, Note_on_c, 1, 31, 117
4, 156175, Note_off_c, 1, 31, 0
4, 156192, Note_on_c, 1, 29, 119
4, 156199, Note_off_c, 1, 29, 0
4, 156216, Note_on_c, 1, 27, 120
4, 156223, Note_off_c, 1, 27, 0
4, 156240, Note_on_c, 1, 26, 122
4, 156270, Note_off_c, 1, 26, 0
4, 156288, Note_on_c, 1, 12, 126
4, 156288, Note_on_c, 1, 24, 126
4, 156320, Note_off_c, 1, 12, 0
4, 156368, Note_off_c, 1, 24, 0
4, 157056, Control_c, 1, 101, 0
4, 157056, Control_c, 1, 100, 0
4, 157056, Control_c, 1, 6, 12
4, 157056, Control_c, 1, 10, 64
4, 157056, Control_c, 1, 7, 100
4, 157056, Pitch_bend_c, 1, 8192
4, 157056, Program_c, 1, 0
4, 157056, Control_c, 1, 10, 64
4, 157056, Control_c, 1, 7, 100
4, 157056, Pitch_bend_c, 1, 8192
4, 157057, Control_c, 1, 101, 0
4, 157057, Control_c, 1, 100, 0
4, 157057, Control_c, 1, 6, 12
4, 157057, Control_c, 1, 10, 64
4, 157057, Control_c, 1, 7, 100
4, 157057, Pitch_bend_c, 1, 8192
4, 157057, Program_c, 1, 0
4, 157057, End_track
0, 0, End_of_file
