1,0, Note_on_c,0,69,96
1,0, Note_on_c,0,72,96
1,0, Note_on_c,0,77,96
1,911, Note_on_c,0,65,0
1,911, Note_on_c,0,69,0
1,911, Note_on_c,0,72,0
1,911, Note_on_c,0,77,0
1,960, Note_on_c,0,64,96
1,960, Note_on_c,0,69,96
1,960, Note_on_c,0,72,96
1,960, Note_on_c,0,76,96
1,1871, Note_on_c,0,64,0
1,1871, Note_on_c,0,69,0
1,1871, Note_on_c,0,72,0
1,1871, Note_on_c,0,76,0
1,1920, Note_on_c,0,67,96
1,1920, Note_on_c,0,69,96
1,1920, Note_on_c,0,72,96
1,1920, Note_on_c,0,79,96
1,2603, Note_on_c,0,67,0
1,2603, Note_on_c,0,69,0
1,2603, Note_on_c,0,72,0
1,2603, Note_on_c,0,79,0
1,2640, Note_on_c,0,65,96
1,2640, Note_on_c,0,69,96
1,2640, Note_on_c,0,72,96
1,2640, Note_on_c,0,77,96
1,3779, Note_on_c,0,65,0
1,3779, Note_on_c,0,69,0
1,3779, Note_on_c,0,72,0
1,3779, Note_on_c,0,77,0
1,3840, Note_on_c,0,65,96
1,3840, Note_on_c,0,69,96
1,3840, Note_on_c,0,72,96
1,3840, Note_on_c,0,77,96
1,4751, Note_on_c,0,65,0
1,4751, Note_on_c,0,69,0
1,4751, Note_on_c,0,72,0
1,4751, Note_on_c,0,77,0
1,4800, Note_on_c,0,64,96
1,4800, Note_on_c,0,69,96
1,4800, Note_on_c,0,72,96
1,4800, Note_on_c,0,76,96
1,5711, Note_on_c,0,64,0
1,5711, Note_on_c,0,69,0
1,5711, Note_on_c,0,72,0
1,5711, Note_on_c,0,76,0
1,5760, Note_on_c,0,67,96
1,5760, Note_on_c,0,69,96
1,5760, Note_on_c,0,72,96
1,5760, Note_on_c,0,79,96
1,6443, Note_on_c,0,67,0
1,6443, Note_on_c,0,69,0
1,6443, Note_on_c,0,72,0
1,6443, Note_on_c,0,79,0
1,6480, Note_on_c,0,65,96
1,6480, Note_on_c,0,69,96
1,6480, Note_on_c,0,72,96
1,6480, Note_on_c,0,77,96
1,7619, Note_on_c,0,65,0
1,7619, Note_on_c,0,69,0
1,7619, Note_on_c,0,72,0
1,7619, Note_on_c,0,77,0
1,7680, Note_on_c,0,65,96
1,7680, Note_on_c,0,70,96
1,7680, Note_on_c,0,74,96
1,7680, Note_on_c,0,77,96
1,8591, Note_on_c,0,65,0
1,8591, Note_on_c,0,70,0
1,8591, Note_on_c,0,74,0
1,8591, Note_on_c,0,77,0
1,8640, Note_on_c,0,64,96
1,8640, Note_on_c,0,70,96
1,8640, Note_on_c,0,74,96
1,8640, Note_on_c,0,76,96
1,9551, Note_on_c,0,64,0
1,9551, Note_on_c,0,70,0
1,9551, Note_on_c,0,74,0
1,9551, Note_on_c,0,76,0
1,9600, Note_on_c,0,67,96
1,9600, Note_on_c,0,70,96
1,9600, Note_on_c,0,74,96
1,9600, Note_on_c,0,79,96
1,10283, Note_on_c,0,67,0
1,10283, Note_on_c,0,70,0
1,10283, Note_on_c,0,74,0
1,10283, Note_on_c,0,79,0
1,10320, Note_on_c,0,65,96
1,10320, Note_on_c,0,70,96
1,10320, Note_on_c,0,74,96
1,10320, Note_on_c,0,77,96
1,11459, Note_on_c,0,65,0
1,11459, Note_on_c,0,70,0
1,11459, Note_on_c,0,74,0
1,11459, Note_on_c,0,77,0
1,11520, Note_on_c,0,65,96
1,11520, Note_on_c,0,70,96
1,11520, Note_on_c,0,73,96
1,11520, Note_on_c,0,77,96
1,12431, Note_on_c,0,65,0
1,12431, Note_on_c,0,70,0
1,12431, Note_on_c,0,73,0
1,12431, Note_on_c,0,77,0
1,12480, Note_on_c,0,64,96
1,12480, Note_on_c,0,70,96
1,12480, Note_on_c,0,73,96
1,12480, Note_on_c,0,76,96
1,13391, Note_on_c,0,64,0
1,13391, Note_on_c,0,70,0
1,13391, Note_on_c,0,73,0
1,13391, Note_on_c,0,76,0
1,13440, Note_on_c,0,67,96
1,13440, Note_on_c,0,70,96
1,13440, Note_on_c,0,73,96
1,13440, Note_on_c,0,79,96
1,14123, Note_on_c,0,67,0
1,14123, Note_on_c,0,70,0
1,14123, Note_on_c,0,73,0
1,14123, Note_on_c,0,79,0
1,14160, Note_on_c,0,65,96
1,14160, Note_on_c,0,70,96
1,14160, Note_on_c,0,73,96
1,14160, Note_on_c,0,77,96
1,14387, Note_on_c,0,65,0
1,14387, Note_on_c,0,70,0
1,14387, Note_on_c,0,73,0
1,14387, Note_on_c,0,77,0
1,14400, Note_on_c,0,72,96
1,14855, Note_on_c,0,72,0
1,14880, Note_on_c,0,70,96
1,15335, Note_on_c,0,70,0
1,15360, Note_on_c,0,60,96
1,15360, Note_on_c,0,65,96
1,15360, Note_on_c,0,70,96
1,15840, Note_on_c,0,60,0
1,16043, Note_on_c,0,65,0
1,16043, Note_on_c,0,70,0
1,16080, Note_on_c,0,69,96
1,16307, Note_on_c,0,69,0
1,16320, Note_on_c,0,69,96
1,16320, Note_on_c,0,77,96
1,17231, Note_on_c,0,69,0
1,17231, Note_on_c,0,77,0
1,17280, Note_on_c,0,79,96
1,17963, Note_on_c,0,79,0
1,18000, Note_on_c,0,81,96
1,18227, Note_on_c,0,81,0
1,18240, Note_on_c,0,69,96
1,18467, Note_on_c,0,69,0
1,18480, Note_on_c,0,69,96
1,18707, Note_on_c,0,69,0
1,18720, Note_on_c,0,67,96
1,18947, Note_on_c,0,67,0
1,18960, Note_on_c,0,65,96
1,19187, Note_on_c,0,65,0
1,19200, Note_on_c,0,60,96
1,19200, Note_on_c,0,64,96
1,19200, Note_on_c,0,69,96
1,19680, Note_on_c,0,60,0
1,20111, Note_on_c,0,64,0
1,20111, Note_on_c,0,69,0
1,20160, Note_on_c,0,79,96
1,21071, Note_on_c,0,79,0
1,21120, Note_on_c,0,72,96
1,21120, Note_on_c,0,76,96
1,21120, Note_on_c,0,81,96
1,22031, Note_on_c,0,72,0
1,22031, Note_on_c,0,76,0
1,22031, Note_on_c,0,81,0
1,22320, Note_on_c,0,69,96
1,22547, Note_on_c,0,69,0
1,22560, Note_on_c,0,69,96
1,23015, Note_on_c,0,69,0
1,23040, Note_on_c,0,62,96
1,23040, Note_on_c,0,65,96
1,23040, Note_on_c,0,70,96
1,23520, Note_on_c,0,62,0
1,23723, Note_on_c,0,65,0
1,23723, Note_on_c,0,70,0
1,23760, Note_on_c,0,69,96
1,23987, Note_on_c,0,69,0
1,24000, Note_on_c,0,62,96
1,24000, Note_on_c,0,67,96
1,24227, Note_on_c,0,62,0
1,24227, Note_on_c,0,67,0
1,24240, Note_on_c,0,77,96
1,24467, Note_on_c,0,77,0
1,24480, Note_on_c,0,82,96
1,24935, Note_on_c,0,82,0
1,24960, Note_on_c,0,77,96
1,24960, Note_on_c,0,82,96
1,24960, Note_on_c,0,86,96
1,25643, Note_on_c,0,77,0
1,25643, Note_on_c,0,82,0
1,25643, Note_on_c,0,86,0
1,25680, Note_on_c,0,77,96
1,25907, Note_on_c,0,77,0
1,25920, Note_on_c,0,82,96
1,26147, Note_on_c,0,82,0
1,26160, Note_on_c,0,86,96
1,26387, Note_on_c,0,86,0
1,26400, Note_on_c,0,69,96
1,26855, Note_on_c,0,69,0
1,26880, Note_on_c,0,61,96
1,26880, Note_on_c,0,65,96
1,26880, Note_on_c,0,70,96
1,27360, Note_on_c,0,61,0
1,27563, Note_on_c,0,65,0
1,27563, Note_on_c,0,70,0
1,27600, Note_on_c,0,69,96
1,27827, Note_on_c,0,69,0
1,27840, Note_on_c,0,61,96
1,27840, Note_on_c,0,67,96
1,28067, Note_on_c,0,61,0
1,28067, Note_on_c,0,67,0
1,28080, Note_on_c,0,77,96
1,28307, Note_on_c,0,77,0
1,28320, Note_on_c,0,82,96
1,28775, Note_on_c,0,82,0
1,28800, Note_on_c,0,77,96
1,28800, Note_on_c,0,82,96
1,28800, Note_on_c,0,85,96
1,29483, Note_on_c,0,77,0
1,29483, Note_on_c,0,82,0
1,29483, Note_on_c,0,85,0
1,29520, Note_on_c,0,77,96
1,29747, Note_on_c,0,77,0
1,29760, Note_on_c,0,65,96
1,29987, Note_on_c,0,65,0
1,30000, Note_on_c,0,67,96
1,30683, Note_on_c,0,67,0
1,30720, Note_on_c,0,60,96
1,30720, Note_on_c,0,65,96
1,30720, Note_on_c,0,69,96
1,31200, Note_on_c,0,60,0
1,31631, Note_on_c,0,65,0
1,31631, Note_on_c,0,69,0
1,31680, Note_on_c,0,77,96
1,32591, Note_on_c,0,77,0
1,32640, Note_on_c,0,79,96
1,33095, Note_on_c,0,79,0
1,33120, Note_on_c,0,69,96
1,33347, Note_on_c,0,69,0
1,33360, Note_on_c,0,69,96
1,33360, Note_on_c,0,81,96
1,33587, Note_on_c,0,69,0
1,33587, Note_on_c,0,81,0
1,33600, Note_on_c,0,70,96
1,33827, Note_on_c,0,70,0
1,33840, Note_on_c,0,65,96
1,33840, Note_on_c,0,69,96
1,33840, Note_on_c,0,72,96
1,34523, Note_on_c,0,65,0
1,34523, Note_on_c,0,69,0
1,34523, Note_on_c,0,72,0
1,34560, Note_on_c,0,60,96
1,34560, Note_on_c,0,64,96
1,34560, Note_on_c,0,69,96
1,35040, Note_on_c,0,60,0
1,35471, Note_on_c,0,64,0
1,35471, Note_on_c,0,69,0
1,35520, Note_on_c,0,79,96
1,36431, Note_on_c,0,79,0
1,36480, Note_on_c,0,72,96
1,36480, Note_on_c,0,76,96
1,36480, Note_on_c,0,81,96
1,37391, Note_on_c,0,72,0
1,37391, Note_on_c,0,76,0
1,37391, Note_on_c,0,81,0
1,37920, Note_on_c,0,69,96
1,38147, Note_on_c,0,69,0
1,38160, Note_on_c,0,69,96
1,38387, Note_on_c,0,69,0
1,38400, Note_on_c,0,62,96
1,38400, Note_on_c,0,65,96
1,38400, Note_on_c,0,70,96
1,38880, Note_on_c,0,62,0
1,39083, Note_on_c,0,65,0
1,39083, Note_on_c,0,70,0
1,39120, Note_on_c,0,69,96
1,39347, Note_on_c,0,69,0
1,39360, Note_on_c,0,62,96
1,39360, Note_on_c,0,67,96
1,39840, Note_on_c,0,62,0
1,40271, Note_on_c,0,67,0
1,40320, Note_on_c,0,74,96
1,40320, Note_on_c,0,77,96
1,40320, Note_on_c,0,82,96
1,41003, Note_on_c,0,74,0
1,41003, Note_on_c,0,77,0
1,41003, Note_on_c,0,82,0
1,41040, Note_on_c,0,74,96
1,41267, Note_on_c,0,74,0
1,41280, Note_on_c,0,77,96
1,41507, Note_on_c,0,77,0
1,41520, Note_on_c,0,82,96
1,41747, Note_on_c,0,82,0
1,41760, Note_on_c,0,69,96
1,41987, Note_on_c,0,69,0
1,42000, Note_on_c,0,69,96
1,42227, Note_on_c,0,69,0
1,42240, Note_on_c,0,61,96
1,42240, Note_on_c,0,65,96
1,42240, Note_on_c,0,70,96
1,42720, Note_on_c,0,61,0
1,43151, Note_on_c,0,65,0
1,43151, Note_on_c,0,70,0
1,43200, Note_on_c,0,61,96
1,43313, Note_on_c,0,61,0
1,43320, Note_on_c,0,65,96
1,43433, Note_on_c,0,65,0
1,43440, Note_on_c,0,67,96
1,43553, Note_on_c,0,67,0
1,43560, Note_on_c,0,70,96
1,43673, Note_on_c,0,70,0
1,43680, Note_on_c,0,70,96
1,43793, Note_on_c,0,70,0
1,43800, Note_on_c,0,73,96
1,43913, Note_on_c,0,73,0
1,43920, Note_on_c,0,77,96
1,44033, Note_on_c,0,77,0
1,44040, Note_on_c,0,79,96
1,44153, Note_on_c,0,79,0
1,44160, Note_on_c,0,65,96
1,44160, Note_on_c,0,70,96
1,44160, Note_on_c,0,73,96
1,44160, Note_on_c,0,77,96
1,45071, Note_on_c,0,65,0
1,45071, Note_on_c,0,70,0
1,45071, Note_on_c,0,73,0
1,45071, Note_on_c,0,77,0
1,45120, Note_on_c,0,67,96
1,45120, Note_on_c,0,70,96
1,45120, Note_on_c,0,73,96
1,45120, Note_on_c,0,79,96
1,46031, Note_on_c,0,67,0
1,46031, Note_on_c,0,70,0
1,46031, Note_on_c,0,73,0
1,46031, Note_on_c,0,79,0
1,46080, Note_on_c,0,65,80
1,46080, Note_on_c,0,69,80
1,46080, Note_on_c,0,72,80
1,46080, Note_on_c,0,77,80
1,46991, Note_on_c,0,65,0
1,46991, Note_on_c,0,69,0
1,46991, Note_on_c,0,72,0
1,46991, Note_on_c,0,77,0
1,47040, Note_on_c,0,64,80
1,47040, Note_on_c,0,69,80
1,47040, Note_on_c,0,72,80
1,47040, Note_on_c,0,76,80
1,47951, Note_on_c,0,64,0
1,47951, Note_on_c,0,69,0
1,47951, Note_on_c,0,72,0
1,47951, Note_on_c,0,76,0
1,48000, Note_on_c,0,67,80
1,48000, Note_on_c,0,69,80
1,48000, Note_on_c,0,72,80
1,48000, Note_on_c,0,79,80
1,48683, Note_on_c,0,67,0
1,48683, Note_on_c,0,69,0
1,48683, Note_on_c,0,72,0
1,48683, Note_on_c,0,79,0
1,48720, Note_on_c,0,65,80
1,48720, Note_on_c,0,69,80
1,48720, Note_on_c,0,72,80
1,48720, Note_on_c,0,77,80
1,49859, Note_on_c,0,65,0
1,49859, Note_on_c,0,69,0
1,49859, Note_on_c,0,72,0
1,49859, Note_on_c,0,77,0
1,49920, Note_on_c,0,65,80
1,49920, Note_on_c,0,69,80
1,49920, Note_on_c,0,72,80
1,49920, Note_on_c,0,77,80
1,50831, Note_on_c,0,65,0
1,50831, Note_on_c,0,69,0
1,50831, Note_on_c,0,72,0
1,50831, Note_on_c,0,77,0
1,50880, Note_on_c,0,64,80
1,50880, Note_on_c,0,69,80
1,50880, Note_on_c,0,72,80
1,50880, Note_on_c,0,76,80
1,51791, Note_on_c,0,64,0
1,51791, Note_on_c,0,69,0
1,51791, Note_on_c,0,72,0
1,51791, Note_on_c,0,76,0
1,51840, Note_on_c,0,67,80
1,51840, Note_on_c,0,69,80
1,51840, Note_on_c,0,72,80
1,51840, Note_on_c,0,79,80
1,52523, Note_on_c,0,67,0
1,52523, Note_on_c,0,69,0
1,52523, Note_on_c,0,72,0
1,52523, Note_on_c,0,79,0
1,52560, Note_on_c,0,65,80
1,52560, Note_on_c,0,69,80
1,52560, Note_on_c,0,72,80
1,52560, Note_on_c,0,77,80
1,53699, Note_on_c,0,65,0
1,53699, Note_on_c,0,69,0
1,53699, Note_on_c,0,72,0
1,53699, Note_on_c,0,77,0
1,53760, Note_on_c,0,65,80
1,53760, Note_on_c,0,70,80
1,53760, Note_on_c,0,74,80
1,53760, Note_on_c,0,77,80
1,54671, Note_on_c,0,65,0
1,54671, Note_on_c,0,70,0
1,54671, Note_on_c,0,74,0
1,54671, Note_on_c,0,77,0
1,54720, Note_on_c,0,64,80
1,54720, Note_on_c,0,70,80
1,54720, Note_on_c,0,74,80
1,54720, Note_on_c,0,76,80
1,55631, Note_on_c,0,64,0
1,55631, Note_on_c,0,70,0
1,55631, Note_on_c,0,74,0
1,55631, Note_on_c,0,76,0
1,55680, Note_on_c,0,67,80
1,55680, Note_on_c,0,70,80
1,55680, Note_on_c,0,74,80
1,55680, Note_on_c,0,79,80
1,56363, Note_on_c,0,67,0
1,56363, Note_on_c,0,70,0
1,56363, Note_on_c,0,74,0
1,56363, Note_on_c,0,79,0
1,56400, Note_on_c,0,65,80
1,56400, Note_on_c,0,70,80
1,56400, Note_on_c,0,74,80
1,56400, Note_on_c,0,77,80
1,57539, Note_on_c,0,65,0
1,57539, Note_on_c,0,70,0
1,57539, Note_on_c,0,74,0
1,57539, Note_on_c,0,77,0
1,57600, Note_on_c,0,65,80
1,57600, Note_on_c,0,70,80
1,57600, Note_on_c,0,73,80
1,57600, Note_on_c,0,77,80
1,58511, Note_on_c,0,65,0
1,58511, Note_on_c,0,70,0
1,58511, Note_on_c,0,73,0
1,58511, Note_on_c,0,77,0
1,58560, Note_on_c,0,64,80
1,58560, Note_on_c,0,70,80
1,58560, Note_on_c,0,73,80
1,58560, Note_on_c,0,76,80
1,59471, Note_on_c,0,64,0
1,59471, Note_on_c,0,70,0
1,59471, Note_on_c,0,73,0
1,59471, Note_on_c,0,76,0
1,59520, Note_on_c,0,67,80
1,59520, Note_on_c,0,70,80
1,59520, Note_on_c,0,73,80
1,59520, Note_on_c,0,79,80
1,59975, Note_on_c,0,67,0
1,59975, Note_on_c,0,70,0
1,59975, Note_on_c,0,73,0
1,59975, Note_on_c,0,79,0
1,60000, Note_on_c,0,77,80
1,60227, Note_on_c,0,77,0
1,60240, Note_on_c,0,77,80
1,60467, Note_on_c,0,77,0
1,60480, Note_on_c,0,77,80
1,60707, Note_on_c,0,77,0
1,60720, Note_on_c,0,79,80
1,61403, Note_on_c,0,79,0
1,61440, Note_on_c,0,69,80
1,61482, Note_on_c,0,72,80
1,61524, Note_on_c,0,79,80
1,62146, Note_on_c,0,72,0
1,62146, Note_on_c,0,79,0
1,62147, Note_on_c,0,69,0
1,62160, Note_on_c,0,69,80
1,62160, Note_on_c,0,72,80
1,62160, Note_on_c,0,77,80
1,63299, Note_on_c,0,69,0
1,63299, Note_on_c,0,72,0
1,63299, Note_on_c,0,77,0
1,63840, Note_on_c,0,77,80
1,64067, Note_on_c,0,77,0
1,64080, Note_on_c,0,77,80
1,64307, Note_on_c,0,77,0
1,64320, Note_on_c,0,77,80
1,64547, Note_on_c,0,77,0
1,64560, Note_on_c,0,76,80
1,65015, Note_on_c,0,76,0
1,65040, Note_on_c,0,74,80
1,65267, Note_on_c,0,74,0
1,65280, Note_on_c,0,69,80
1,65280, Note_on_c,0,72,80
1,65280, Note_on_c,0,76,80
1,66191, Note_on_c,0,69,0
1,66191, Note_on_c,0,72,0
1,66191, Note_on_c,0,76,0
1,66240, Note_on_c,0,64,80
1,66467, Note_on_c,0,64,0
1,66480, Note_on_c,0,69,80
1,66707, Note_on_c,0,69,0
1,66720, Note_on_c,0,72,80
1,66947, Note_on_c,0,72,0
1,66960, Note_on_c,0,76,80
1,67187, Note_on_c,0,76,0
1,67200, Note_on_c,0,72,80
1,67263, Note_on_c,0,76,80
1,67327, Note_on_c,0,79,80
1,68158, Note_on_c,0,76,0
1,68158, Note_on_c,0,79,0
1,68159, Note_on_c,0,72,0
1,68160, Note_on_c,0,77,80
1,68615, Note_on_c,0,77,0
1,68640, Note_on_c,0,79,80
1,69095, Note_on_c,0,79,0
1,69120, Note_on_c,0,70,80
1,69120, Note_on_c,0,74,80
1,69120, Note_on_c,0,79,80
1,69803, Note_on_c,0,70,0
1,69803, Note_on_c,0,74,0
1,69803, Note_on_c,0,79,0
1,69840, Note_on_c,0,77,80
1,70067, Note_on_c,0,77,0
1,70080, Note_on_c,0,70,80
1,70080, Note_on_c,0,74,80
1,70080, Note_on_c,0,77,80
1,70991, Note_on_c,0,70,0
1,70991, Note_on_c,0,74,0
1,70991, Note_on_c,0,77,0
1,72000, Note_on_c,0,74,80
1,72341, Note_on_c,0,74,0
1,72360, Note_on_c,0,76,80
1,72701, Note_on_c,0,76,0
1,72720, Note_on_c,0,77,80
1,72947, Note_on_c,0,77,0
1,72960, Note_on_c,0,70,80
1,72960, Note_on_c,0,73,80
1,72960, Note_on_c,0,77,80
1,73415, Note_on_c,0,70,0
1,73415, Note_on_c,0,73,0
1,73415, Note_on_c,0,77,0
1,73440, Note_on_c,0,70,80
1,73667, Note_on_c,0,70,0
1,73680, Note_on_c,0,73,80
1,73907, Note_on_c,0,73,0
1,73920, Note_on_c,0,77,80
1,74147, Note_on_c,0,77,0
1,74160, Note_on_c,0,79,80
1,74615, Note_on_c,0,79,0
1,74640, Note_on_c,0,72,80
1,74867, Note_on_c,0,72,0
1,74880, Note_on_c,0,70,80
1,74880, Note_on_c,0,73,80
1,74880, Note_on_c,0,79,80
1,75791, Note_on_c,0,70,0
1,75791, Note_on_c,0,73,0
1,75791, Note_on_c,0,79,0
1,75840, Note_on_c,0,70,80
1,75840, Note_on_c,0,73,80
1,75840, Note_on_c,0,79,80
1,76751, Note_on_c,0,70,0
1,76751, Note_on_c,0,73,0
1,76751, Note_on_c,0,79,0
1,76800, Note_on_c,0,67,96
1,76800, Note_on_c,0,69,96
1,76800, Note_on_c,0,72,96
1,76800, Note_on_c,0,79,96
1,77483, Note_on_c,0,67,0
1,77483, Note_on_c,0,69,0
1,77483, Note_on_c,0,72,0
1,77483, Note_on_c,0,79,0
1,77520, Note_on_c,0,69,96
1,77520, Note_on_c,0,81,96
1,77747, Note_on_c,0,69,0
1,77747, Note_on_c,0,81,0
1,77760, Note_on_c,0,69,96
1,77760, Note_on_c,0,72,96
1,77760, Note_on_c,0,77,96
1,77760, Note_on_c,0,81,96
1,77987, Note_on_c,0,69,0
1,77987, Note_on_c,0,72,0
1,77987, Note_on_c,0,77,0
1,77987, Note_on_c,0,81,0
1,78000, Note_on_c,0,65,96
1,78113, Note_on_c,0,65,0
1,78120, Note_on_c,0,69,96
1,78233, Note_on_c,0,69,0
1,78240, Note_on_c,0,72,96
1,78353, Note_on_c,0,72,0
1,78360, Note_on_c,0,77,96
1,78473, Note_on_c,0,77,0
1,78480, Note_on_c,0,81,96
1,78593, Note_on_c,0,81,0
1,78600, Note_on_c,0,84,96
1,78713, Note_on_c,0,84,0
1,78720, Note_on_c,0,89,96
1,78947, Note_on_c,0,89,0
1,78960, Note_on_c,0,69,96
1,78960, Note_on_c,0,81,96
1,79187, Note_on_c,0,69,0
1,79187, Note_on_c,0,81,0
1,79200, Note_on_c,0,69,96
1,79200, Note_on_c,0,81,96
1,79427, Note_on_c,0,69,0
1,79427, Note_on_c,0,81,0
1,79440, Note_on_c,0,69,96
1,79440, Note_on_c,0,81,96
1,79667, Note_on_c,0,69,0
1,79667, Note_on_c,0,81,0
1,79680, Note_on_c,0,69,96
1,79680, Note_on_c,0,81,96
1,80021, Note_on_c,0,69,0
1,80021, Note_on_c,0,81,0
1,80040, Note_on_c,0,67,96
1,80040, Note_on_c,0,79,96
1,80381, Note_on_c,0,67,0
1,80381, Note_on_c,0,79,0
1,80400, Note_on_c,0,65,96
1,80400, Note_on_c,0,77,96
1,80627, Note_on_c,0,65,0
1,80627, Note_on_c,0,77,0
1,80640, Note_on_c,0,69,96
1,80640, Note_on_c,0,72,96
1,80640, Note_on_c,0,76,96
1,80640, Note_on_c,0,81,96
1,81551, Note_on_c,0,69,0
1,81551, Note_on_c,0,72,0
1,81551, Note_on_c,0,76,0
1,81551, Note_on_c,0,81,0
1,81600, Note_on_c,0,60,96
1,81600, Note_on_c,0,64,96
1,82080, Note_on_c,0,60,0
1,82511, Note_on_c,0,64,0
1,82560, Note_on_c,0,64,96
1,82560, Note_on_c,0,67,96
1,83243, Note_on_c,0,64,0
1,83243, Note_on_c,0,67,0
1,83280, Note_on_c,0,60,96
1,83280, Note_on_c,0,65,96
1,83963, Note_on_c,0,60,0
1,83963, Note_on_c,0,65,0
1,84000, Note_on_c,0,69,96
1,84000, Note_on_c,0,81,96
1,84227, Note_on_c,0,69,0
1,84227, Note_on_c,0,81,0
1,84240, Note_on_c,0,69,96
1,84240, Note_on_c,0,81,96
1,84467, Note_on_c,0,69,0
1,84467, Note_on_c,0,81,0
1,84480, Note_on_c,0,70,96
1,84480, Note_on_c,0,74,96
1,84480, Note_on_c,0,77,96
1,84480, Note_on_c,0,82,96
1,85163, Note_on_c,0,70,0
1,85163, Note_on_c,0,74,0
1,85163, Note_on_c,0,77,0
1,85163, Note_on_c,0,82,0
1,85200, Note_on_c,0,69,96
1,85200, Note_on_c,0,81,96
1,85427, Note_on_c,0,69,0
1,85427, Note_on_c,0,81,0
1,85440, Note_on_c,0,67,96
1,85440, Note_on_c,0,70,96
1,85440, Note_on_c,0,74,96
1,85440, Note_on_c,0,79,96
1,86351, Note_on_c,0,67,0
1,86351, Note_on_c,0,70,0
1,86351, Note_on_c,0,74,0
1,86351, Note_on_c,0,79,0
1,86400, Note_on_c,0,62,96
1,86400, Note_on_c,0,67,96
1,86855, Note_on_c,0,62,0
1,87083, Note_on_c,0,67,0
1,87120, Note_on_c,0,62,96
1,87120, Note_on_c,0,65,96
1,87803, Note_on_c,0,62,0
1,87803, Note_on_c,0,65,0
1,87840, Note_on_c,0,69,96
1,87840, Note_on_c,0,81,96
1,88067, Note_on_c,0,69,0
1,88067, Note_on_c,0,81,0
1,88080, Note_on_c,0,69,96
1,88080, Note_on_c,0,81,96
1,88307, Note_on_c,0,69,0
1,88307, Note_on_c,0,81,0
1,88320, Note_on_c,0,70,96
1,88320, Note_on_c,0,73,96
1,88320, Note_on_c,0,77,96
1,88320, Note_on_c,0,82,96
1,89003, Note_on_c,0,70,0
1,89003, Note_on_c,0,73,0
1,89003, Note_on_c,0,77,0
1,89003, Note_on_c,0,82,0
1,89040, Note_on_c,0,69,96
1,89040, Note_on_c,0,81,96
1,89267, Note_on_c,0,69,0
1,89267, Note_on_c,0,81,0
1,89280, Note_on_c,0,67,96
1,89280, Note_on_c,0,70,96
1,89280, Note_on_c,0,73,96
1,89280, Note_on_c,0,79,96
1,89507, Note_on_c,0,67,0
1,89507, Note_on_c,0,70,0
1,89507, Note_on_c,0,73,0
1,89507, Note_on_c,0,79,0
1,89520, Note_on_c,0,65,96
1,89633, Note_on_c,0,65,0
1,89640, Note_on_c,0,70,96
1,89753, Note_on_c,0,70,0
1,89760, Note_on_c,0,73,96
1,89873, Note_on_c,0,73,0
1,89880, Note_on_c,0,77,96
1,89993, Note_on_c,0,77,0
1,90000, Note_on_c,0,82,96
1,90113, Note_on_c,0,82,0
1,90120, Note_on_c,0,85,96
1,90233, Note_on_c,0,85,0
1,90240, Note_on_c,0,89,96
1,90695, Note_on_c,0,89,0
1,90960, Note_on_c,0,70,96
1,90960, Note_on_c,0,73,96
1,90960, Note_on_c,0,77,96
1,91415, Note_on_c,0,70,0
1,91415, Note_on_c,0,73,0
1,91415, Note_on_c,0,77,0
1,91440, Note_on_c,0,70,96
1,91440, Note_on_c,0,73,96
1,91440, Note_on_c,0,79,96
1,91895, Note_on_c,0,70,0
1,91895, Note_on_c,0,73,0
1,91895, Note_on_c,0,79,0
1,91920, Note_on_c,0,69,96
1,91920, Note_on_c,0,72,96
1,91920, Note_on_c,0,79,96
1,92375, Note_on_c,0,69,0
1,92375, Note_on_c,0,72,0
1,92375, Note_on_c,0,79,0
1,92400, Note_on_c,0,69,80
1,92400, Note_on_c,0,72,80
1,92400, Note_on_c,0,77,80
1,93600, Note_on_c,0,69,0
1,93767, Note_on_c,0,72,0
1,93767, Note_on_c,0,77,0
1,93840, Note_on_c,0,72,80
1,94067, Note_on_c,0,72,0
1,94080, Note_on_c,0,69,80
1,94110, Note_on_c,0,72,80
1,94143, Note_on_c,0,76,80
1,97822, Note_on_c,0,72,0
1,97822, Note_on_c,0,76,0
1,97823, Note_on_c,0,69,0
1,97824, End_track,,,
2,0, Start_track,,,
2,0, Key_signature,-1," ""major""",
2,0, MIDI_port,0,,
2,0, Note_on_c,0,29,96
2,0, Note_on_c,0,41,96
2,227, Note_on_c,0,29,0
2,227, Note_on_c,0,41,0
2,240, Note_on_c,0,53,96
2,467, Note_on_c,0,53,0
2,480, Note_on_c,0,57,96
2,480, Note_on_c,0,60,96
2,707, Note_on_c,0,57,0
2,707, Note_on_c,0,60,0
2,720, Note_on_c,0,41,96
2,833, Note_on_c,0,41,0
2,840, Note_on_c,0,53,96
2,953, Note_on_c,0,53,0
2,1080, Note_on_c,0,53,96
2,1193, Note_on_c,0,53,0
2,1200, Note_on_c,0,41,96
2,1427, Note_on_c,0,41,0
2,1440, Note_on_c,0,57,96
2,1440, Note_on_c,0,60,96
2,1667, Note_on_c,0,57,0
2,1667, Note_on_c,0,60,0
2,1680, Note_on_c,0,53,96
2,1907, Note_on_c,0,53,0
2,1920, Note_on_c,0,29,96
2,1920, Note_on_c,0,41,96
2,2147, Note_on_c,0,29,0
2,2147, Note_on_c,0,41,0
2,2160, Note_on_c,0,53,96
2,2387, Note_on_c,0,53,0
2,2400, Note_on_c,0,57,96
2,2400, Note_on_c,0,60,96
2,2627, Note_on_c,0,57,0
2,2627, Note_on_c,0,60,0
2,2640, Note_on_c,0,41,96
2,2753, Note_on_c,0,41,0
2,2760, Note_on_c,0,53,96
2,2873, Note_on_c,0,53,0
2,3000, Note_on_c,0,53,96
2,3113, Note_on_c,0,53,0
2,3120, Note_on_c,0,41,96
2,3347, Note_on_c,0,41,0
2,3360, Note_on_c,0,57,96
2,3360, Note_on_c,0,60,96
2,3587, Note_on_c,0,57,0
2,3587, Note_on_c,0,60,0
2,3600, Note_on_c,0,53,96
2,3827, Note_on_c,0,53,0
2,3840, Note_on_c,0,33,96
2,3840, Note_on_c,0,45,96
2,4067, Note_on_c,0,33,0
2,4067, Note_on_c,0,45,0
2,4080, Note_on_c,0,52,96
2,4307, Note_on_c,0,52,0
2,4320, Note_on_c,0,57,96
2,4320, Note_on_c,0,60,96
2,4547, Note_on_c,0,57,0
2,4547, Note_on_c,0,60,0
2,4560, Note_on_c,0,45,96
2,4673, Note_on_c,0,45,0
2,4680, Note_on_c,0,57,96
2,4793, Note_on_c,0,57,0
2,4920, Note_on_c,0,57,96
2,5033, Note_on_c,0,57,0
2,5040, Note_on_c,0,45,96
2,5267, Note_on_c,0,45,0
2,5280, Note_on_c,0,57,96
2,5280, Note_on_c,0,60,96
2,5507, Note_on_c,0,57,0
2,5507, Note_on_c,0,60,0
2,5520, Note_on_c,0,52,96
2,5747, Note_on_c,0,52,0
2,5760, Note_on_c,0,33,96
2,5760, Note_on_c,0,45,96
2,5987, Note_on_c,0,33,0
2,5987, Note_on_c,0,45,0
2,6000, Note_on_c,0,52,96
2,6227, Note_on_c,0,52,0
2,6240, Note_on_c,0,57,96
2,6240, Note_on_c,0,60,96
2,6467, Note_on_c,0,57,0
2,6467, Note_on_c,0,60,0
2,6480, Note_on_c,0,45,96
2,6593, Note_on_c,0,45,0
2,6600, Note_on_c,0,57,96
2,6713, Note_on_c,0,57,0
2,6840, Note_on_c,0,57,96
2,6953, Note_on_c,0,57,0
2,6960, Note_on_c,0,45,96
2,7187, Note_on_c,0,45,0
2,7200, Note_on_c,0,57,96
2,7200, Note_on_c,0,60,96
2,7427, Note_on_c,0,57,0
2,7427, Note_on_c,0,60,0
2,7440, Note_on_c,0,52,96
2,7667, Note_on_c,0,52,0
2,7680, Note_on_c,0,34,96
2,7680, Note_on_c,0,46,96
2,7907, Note_on_c,0,34,0
2,7907, Note_on_c,0,46,0
2,7920, Note_on_c,0,53,96
2,8147, Note_on_c,0,53,0
2,8160, Note_on_c,0,58,96
2,8160, Note_on_c,0,62,96
2,8387, Note_on_c,0,58,0
2,8387, Note_on_c,0,62,0
2,8400, Note_on_c,0,46,96
2,8513, Note_on_c,0,46,0
2,8520, Note_on_c,0,58,96
2,8633, Note_on_c,0,58,0
2,8760, Note_on_c,0,58,96
2,8873, Note_on_c,0,58,0
2,8880, Note_on_c,0,46,96
2,9107, Note_on_c,0,46,0
2,9120, Note_on_c,0,58,96
2,9120, Note_on_c,0,62,96
2,9347, Note_on_c,0,58,0
2,9347, Note_on_c,0,62,0
2,9360, Note_on_c,0,53,96
2,9587, Note_on_c,0,53,0
2,9600, Note_on_c,0,34,96
2,9600, Note_on_c,0,46,96
2,9827, Note_on_c,0,34,0
2,9827, Note_on_c,0,46,0
2,9840, Note_on_c,0,53,96
2,10067, Note_on_c,0,53,0
2,10080, Note_on_c,0,58,96
2,10080, Note_on_c,0,62,96
2,10307, Note_on_c,0,58,0
2,10307, Note_on_c,0,62,0
2,10320, Note_on_c,0,46,96
2,10433, Note_on_c,0,46,0
2,10440, Note_on_c,0,58,96
2,10553, Note_on_c,0,58,0
2,10680, Note_on_c,0,58,96
2,10793, Note_on_c,0,58,0
2,10800, Note_on_c,0,46,96
2,11027, Note_on_c,0,46,0
2,11040, Note_on_c,0,58,96
2,11040, Note_on_c,0,62,96
2,11267, Note_on_c,0,58,0
2,11267, Note_on_c,0,62,0
2,11280, Note_on_c,0,53,96
2,11507, Note_on_c,0,53,0
2,11520, Note_on_c,0,34,96
2,11520, Note_on_c,0,46,96
2,11747, Note_on_c,0,34,0
2,11747, Note_on_c,0,46,0
2,11760, Note_on_c,0,53,96
2,11987, Note_on_c,0,53,0
2,12000, Note_on_c,0,58,96
2,12000, Note_on_c,0,61,96
2,12227, Note_on_c,0,58,0
2,12227, Note_on_c,0,61,0
2,12240, Note_on_c,0,46,96
2,12353, Note_on_c,0,46,0
2,12360, Note_on_c,0,58,96
2,12473, Note_on_c,0,58,0
2,12600, Note_on_c,0,58,96
2,12713, Note_on_c,0,58,0
2,12720, Note_on_c,0,46,96
2,12947, Note_on_c,0,46,0
2,12960, Note_on_c,0,58,96
2,12960, Note_on_c,0,61,96
2,13187, Note_on_c,0,58,0
2,13187, Note_on_c,0,61,0
2,13200, Note_on_c,0,53,96
2,13427, Note_on_c,0,53,0
2,13440, Note_on_c,0,34,96
2,13440, Note_on_c,0,46,96
2,13667, Note_on_c,0,34,0
2,13667, Note_on_c,0,46,0
2,13680, Note_on_c,0,53,96
2,13907, Note_on_c,0,53,0
2,13920, Note_on_c,0,58,96
2,13920, Note_on_c,0,61,96
2,14147, Note_on_c,0,58,0
2,14147, Note_on_c,0,61,0
2,14160, Note_on_c,0,46,96
2,14273, Note_on_c,0,46,0
2,14280, Note_on_c,0,53,96
2,14393, Note_on_c,0,53,0
2,14400, Note_on_c,0,58,96
2,14513, Note_on_c,0,58,0
2,14520, Note_on_c,0,53,96
2,14633, Note_on_c,0,53,0
2,14640, Note_on_c,0,49,96
2,14753, Note_on_c,0,49,0
2,14760, Note_on_c,0,46,96
2,14873, Note_on_c,0,46,0
2,14880, Note_on_c,0,53,96
2,14993, Note_on_c,0,53,0
2,15000, Note_on_c,0,49,96
2,15113, Note_on_c,0,49,0
2,15120, Note_on_c,0,46,96
2,15233, Note_on_c,0,46,0
2,15240, Note_on_c,0,41,96
2,15360, Note_on_c,0,53,96
2,15581, Note_on_c,0,41,0
2,15587, Note_on_c,0,53,0
2,15600, Note_on_c,0,53,96
2,15827, Note_on_c,0,53,0
2,15840, Note_on_c,0,57,96
2,15840, Note_on_c,0,60,96
2,16067, Note_on_c,0,57,0
2,16067, Note_on_c,0,60,0
2,16080, Note_on_c,0,41,96
2,16193, Note_on_c,0,41,0
2,16200, Note_on_c,0,53,96
2,16313, Note_on_c,0,53,0
2,16440, Note_on_c,0,53,96
2,16553, Note_on_c,0,53,0
2,16560, Note_on_c,0,41,96
2,16787, Note_on_c,0,41,0
2,16800, Note_on_c,0,57,96
2,16800, Note_on_c,0,60,96
2,17027, Note_on_c,0,57,0
2,17027, Note_on_c,0,60,0
2,17040, Note_on_c,0,53,96
2,17267, Note_on_c,0,53,0
2,17280, Note_on_c,0,41,96
2,17507, Note_on_c,0,41,0
2,17520, Note_on_c,0,53,96
2,17747, Note_on_c,0,53,0
2,17760, Note_on_c,0,57,96
2,17760, Note_on_c,0,60,96
2,17987, Note_on_c,0,57,0
2,17987, Note_on_c,0,60,0
2,18000, Note_on_c,0,41,96
2,18113, Note_on_c,0,41,0
2,18120, Note_on_c,0,53,96
2,18233, Note_on_c,0,53,0
2,18360, Note_on_c,0,53,96
2,18473, Note_on_c,0,53,0
2,18480, Note_on_c,0,41,96
2,18707, Note_on_c,0,41,0
2,18720, Note_on_c,0,57,96
2,18720, Note_on_c,0,60,96
2,18947, Note_on_c,0,57,0
2,18947, Note_on_c,0,60,0
2,18960, Note_on_c,0,53,96
2,19187, Note_on_c,0,53,0
2,19200, Note_on_c,0,45,96
2,19427, Note_on_c,0,45,0
2,19440, Note_on_c,0,52,96
2,19667, Note_on_c,0,52,0
2,19680, Note_on_c,0,57,96
2,19680, Note_on_c,0,60,96
2,19907, Note_on_c,0,57,0
2,19920, Note_on_c,0,45,96
2,20033, Note_on_c,0,45,0
2,20040, Note_on_c,0,57,96
2,20111, Note_on_c,0,60,0
2,20153, Note_on_c,0,57,0
2,20280, Note_on_c,0,57,96
2,20393, Note_on_c,0,57,0
2,20400, Note_on_c,0,45,96
2,20627, Note_on_c,0,45,0
2,20640, Note_on_c,0,57,96
2,20640, Note_on_c,0,60,96
2,20867, Note_on_c,0,57,0
2,20867, Note_on_c,0,60,0
2,20880, Note_on_c,0,52,96
2,21107, Note_on_c,0,52,0
2,21120, Note_on_c,0,45,96
2,21347, Note_on_c,0,45,0
2,21360, Note_on_c,0,52,96
2,21587, Note_on_c,0,52,0
2,21600, Note_on_c,0,57,96
2,21600, Note_on_c,0,60,96
2,21827, Note_on_c,0,57,0
2,21827, Note_on_c,0,60,0
2,21840, Note_on_c,0,45,96
2,21953, Note_on_c,0,45,0
2,21960, Note_on_c,0,57,96
2,22073, Note_on_c,0,57,0
2,22200, Note_on_c,0,57,96
2,22313, Note_on_c,0,57,0
2,22320, Note_on_c,0,45,96
2,22547, Note_on_c,0,45,0
2,22560, Note_on_c,0,57,96
2,22560, Note_on_c,0,60,96
2,22787, Note_on_c,0,57,0
2,22787, Note_on_c,0,60,0
2,22800, Note_on_c,0,52,96
2,23027, Note_on_c,0,52,0
2,23040, Note_on_c,0,46,96
2,23267, Note_on_c,0,46,0
2,23280, Note_on_c,0,53,96
2,23507, Note_on_c,0,53,0
2,23520, Note_on_c,0,58,96
2,23520, Note_on_c,0,62,96
2,23747, Note_on_c,0,58,0
2,23747, Note_on_c,0,62,0
2,23760, Note_on_c,0,46,96
2,23873, Note_on_c,0,46,0
2,23880, Note_on_c,0,58,96
2,23993, Note_on_c,0,58,0
2,24120, Note_on_c,0,58,96
2,24233, Note_on_c,0,58,0
2,24240, Note_on_c,0,46,96
2,24467, Note_on_c,0,46,0
2,24480, Note_on_c,0,58,96
2,24480, Note_on_c,0,62,96
2,24707, Note_on_c,0,58,0
2,24707, Note_on_c,0,62,0
2,24720, Note_on_c,0,53,96
2,24947, Note_on_c,0,53,0
2,24960, Note_on_c,0,46,96
2,25187, Note_on_c,0,46,0
2,25200, Note_on_c,0,53,96
2,25427, Note_on_c,0,53,0
2,25440, Note_on_c,0,58,96
2,25440, Note_on_c,0,62,96
2,25667, Note_on_c,0,58,0
2,25667, Note_on_c,0,62,0
2,25680, Note_on_c,0,46,96
2,25793, Note_on_c,0,46,0
2,25800, Note_on_c,0,58,96
2,25913, Note_on_c,0,58,0
2,26040, Note_on_c,0,58,96
2,26153, Note_on_c,0,58,0
2,26160, Note_on_c,0,46,96
2,26387, Note_on_c,0,46,0
2,26400, Note_on_c,0,58,96
2,26400, Note_on_c,0,62,96
2,26627, Note_on_c,0,58,0
2,26627, Note_on_c,0,62,0
2,26640, Note_on_c,0,53,96
2,26867, Note_on_c,0,53,0
2,26880, Note_on_c,0,46,96
2,27107, Note_on_c,0,46,0
2,27120, Note_on_c,0,53,96
2,27347, Note_on_c,0,53,0
2,27360, Note_on_c,0,58,96
2,27360, Note_on_c,0,61,96
2,27587, Note_on_c,0,58,0
2,27587, Note_on_c,0,61,0
2,27600, Note_on_c,0,46,96
2,27713, Note_on_c,0,46,0
2,27720, Note_on_c,0,58,96
2,27833, Note_on_c,0,58,0
2,27960, Note_on_c,0,58,96
2,28073, Note_on_c,0,58,0
2,28080, Note_on_c,0,46,96
2,28307, Note_on_c,0,46,0
2,28320, Note_on_c,0,58,96
2,28320, Note_on_c,0,61,96
2,28547, Note_on_c,0,58,0
2,28547, Note_on_c,0,61,0
2,28560, Note_on_c,0,53,96
2,28787, Note_on_c,0,53,0
2,28800, Note_on_c,0,46,96
2,29027, Note_on_c,0,46,0
2,29040, Note_on_c,0,53,96
2,29267, Note_on_c,0,53,0
2,29280, Note_on_c,0,58,96
2,29280, Note_on_c,0,61,96
2,29507, Note_on_c,0,58,0
2,29507, Note_on_c,0,61,0
2,29520, Note_on_c,0,46,96
2,29633, Note_on_c,0,46,0
2,29640, Note_on_c,0,58,96
2,29753, Note_on_c,0,58,0
2,29880, Note_on_c,0,58,96
2,29993, Note_on_c,0,58,0
2,30000, Note_on_c,0,46,96
2,30227, Note_on_c,0,46,0
2,30240, Note_on_c,0,58,96
2,30240, Note_on_c,0,61,96
2,30467, Note_on_c,0,58,0
2,30467, Note_on_c,0,61,0
2,30480, Note_on_c,0,53,96
2,30707, Note_on_c,0,53,0
2,30720, Note_on_c,0,41,96
2,30720, Note_on_c,0,48,96
2,30720, Note_on_c,0,53,96
2,30947, Note_on_c,0,41,0
2,30947, Note_on_c,0,48,0
2,30947, Note_on_c,0,53,0
2,30960, Note_on_c,0,53,96
2,31187, Note_on_c,0,53,0
2,31200, Note_on_c,0,57,96
2,31200, Note_on_c,0,60,96
2,31427, Note_on_c,0,57,0
2,31440, Note_on_c,0,41,96
2,31553, Note_on_c,0,41,0
2,31560, Note_on_c,0,53,96
2,31631, Note_on_c,0,60,0
2,31673, Note_on_c,0,53,0
2,31800, Note_on_c,0,53,96
2,31913, Note_on_c,0,53,0
2,31920, Note_on_c,0,41,96
2,32147, Note_on_c,0,41,0
2,32160, Note_on_c,0,57,96
2,32160, Note_on_c,0,60,96
2,32387, Note_on_c,0,57,0
2,32387, Note_on_c,0,60,0
2,32400, Note_on_c,0,53,96
2,32627, Note_on_c,0,53,0
2,32640, Note_on_c,0,41,96
2,32640, Note_on_c,0,48,96
2,32640, Note_on_c,0,53,96
2,32867, Note_on_c,0,41,0
2,32867, Note_on_c,0,48,0
2,32867, Note_on_c,0,53,0
2,32880, Note_on_c,0,53,96
2,33107, Note_on_c,0,53,0
2,33120, Note_on_c,0,57,96
2,33120, Note_on_c,0,60,96
2,33347, Note_on_c,0,57,0
2,33347, Note_on_c,0,60,0
2,33360, Note_on_c,0,41,96
2,33473, Note_on_c,0,41,0
2,33480, Note_on_c,0,53,96
2,33593, Note_on_c,0,53,0
2,33720, Note_on_c,0,53,96
2,33833, Note_on_c,0,53,0
2,33840, Note_on_c,0,41,96
2,34067, Note_on_c,0,41,0
2,34080, Note_on_c,0,57,96
2,34080, Note_on_c,0,60,96
2,34307, Note_on_c,0,57,0
2,34307, Note_on_c,0,60,0
2,34320, Note_on_c,0,53,96
2,34547, Note_on_c,0,53,0
2,34560, Note_on_c,0,45,96
2,34560, Note_on_c,0,52,96
2,34560, Note_on_c,0,57,96
2,34787, Note_on_c,0,45,0
2,34787, Note_on_c,0,52,0
2,34787, Note_on_c,0,57,0
2,34800, Note_on_c,0,52,96
2,35027, Note_on_c,0,52,0
2,35040, Note_on_c,0,57,96
2,35040, Note_on_c,0,60,96
2,35267, Note_on_c,0,57,0
2,35280, Note_on_c,0,45,96
2,35393, Note_on_c,0,45,0
2,35400, Note_on_c,0,57,96
2,35471, Note_on_c,0,60,0
2,35513, Note_on_c,0,57,0
2,35640, Note_on_c,0,57,96
2,35753, Note_on_c,0,57,0
2,35760, Note_on_c,0,45,96
2,35987, Note_on_c,0,45,0
2,36000, Note_on_c,0,57,96
2,36000, Note_on_c,0,60,96
2,36227, Note_on_c,0,57,0
2,36227, Note_on_c,0,60,0
2,36240, Note_on_c,0,52,96
2,36467, Note_on_c,0,52,0
2,36480, Note_on_c,0,45,96
2,36480, Note_on_c,0,52,96
2,36480, Note_on_c,0,57,96
2,36707, Note_on_c,0,45,0
2,36707, Note_on_c,0,52,0
2,36707, Note_on_c,0,57,0
2,36720, Note_on_c,0,52,96
2,36947, Note_on_c,0,52,0
2,36960, Note_on_c,0,57,96
2,36960, Note_on_c,0,60,96
2,37187, Note_on_c,0,57,0
2,37187, Note_on_c,0,60,0
2,37200, Note_on_c,0,45,96
2,37313, Note_on_c,0,45,0
2,37320, Note_on_c,0,57,96
2,37433, Note_on_c,0,57,0
2,37560, Note_on_c,0,57,96
2,37673, Note_on_c,0,57,0
2,37680, Note_on_c,0,45,96
2,37907, Note_on_c,0,45,0
2,37920, Note_on_c,0,57,96
2,37920, Note_on_c,0,60,96
2,38147, Note_on_c,0,57,0
2,38147, Note_on_c,0,60,0
2,38160, Note_on_c,0,52,96
2,38387, Note_on_c,0,52,0
2,38400, Note_on_c,0,46,96
2,38400, Note_on_c,0,53,96
2,38400, Note_on_c,0,58,96
2,38627, Note_on_c,0,46,0
2,38627, Note_on_c,0,53,0
2,38627, Note_on_c,0,58,0
2,38640, Note_on_c,0,53,96
2,38867, Note_on_c,0,53,0
2,38880, Note_on_c,0,58,96
2,38880, Note_on_c,0,62,96
2,39107, Note_on_c,0,58,0
2,39107, Note_on_c,0,62,0
2,39120, Note_on_c,0,46,96
2,39233, Note_on_c,0,46,0
2,39240, Note_on_c,0,58,96
2,39353, Note_on_c,0,58,0
2,39480, Note_on_c,0,58,96
2,39593, Note_on_c,0,58,0
2,39600, Note_on_c,0,46,96
2,39827, Note_on_c,0,46,0
2,39840, Note_on_c,0,58,96
2,39840, Note_on_c,0,62,96
2,40067, Note_on_c,0,58,0
2,40080, Note_on_c,0,53,96
2,40271, Note_on_c,0,62,0
2,40307, Note_on_c,0,53,0
2,40320, Note_on_c,0,46,96
2,40320, Note_on_c,0,53,96
2,40320, Note_on_c,0,58,96
2,40547, Note_on_c,0,46,0
2,40547, Note_on_c,0,53,0
2,40547, Note_on_c,0,58,0
2,40560, Note_on_c,0,53,96
2,40787, Note_on_c,0,53,0
2,40800, Note_on_c,0,58,96
2,40800, Note_on_c,0,62,96
2,41027, Note_on_c,0,58,0
2,41027, Note_on_c,0,62,0
2,41040, Note_on_c,0,46,96
2,41153, Note_on_c,0,46,0
2,41160, Note_on_c,0,58,96
2,41273, Note_on_c,0,58,0
2,41400, Note_on_c,0,58,96
2,41513, Note_on_c,0,58,0
2,41520, Note_on_c,0,46,96
2,41747, Note_on_c,0,46,0
2,41760, Note_on_c,0,58,96
2,41760, Note_on_c,0,62,96
2,41987, Note_on_c,0,58,0
2,41987, Note_on_c,0,62,0
2,42000, Note_on_c,0,53,96
2,42227, Note_on_c,0,53,0
2,42240, Note_on_c,0,46,96
2,42240, Note_on_c,0,53,96
2,42240, Note_on_c,0,58,96
2,42467, Note_on_c,0,46,0
2,42467, Note_on_c,0,53,0
2,42467, Note_on_c,0,58,0
2,42480, Note_on_c,0,53,96
2,42707, Note_on_c,0,53,0
2,42720, Note_on_c,0,58,96
2,42720, Note_on_c,0,61,96
2,42947, Note_on_c,0,58,0
2,42960, Note_on_c,0,46,96
2,43073, Note_on_c,0,46,0
2,43080, Note_on_c,0,58,96
2,43151, Note_on_c,0,61,0
2,43193, Note_on_c,0,58,0
2,43320, Note_on_c,0,58,96
2,43433, Note_on_c,0,58,0
2,43440, Note_on_c,0,46,96
2,43667, Note_on_c,0,46,0
2,43680, Note_on_c,0,58,96
2,43680, Note_on_c,0,61,96
2,43907, Note_on_c,0,58,0
2,43907, Note_on_c,0,61,0
2,43920, Note_on_c,0,53,96
2,44147, Note_on_c,0,53,0
2,44160, Note_on_c,0,46,96
2,44160, Note_on_c,0,53,96
2,44160, Note_on_c,0,58,96
2,44387, Note_on_c,0,46,0
2,44387, Note_on_c,0,53,0
2,44387, Note_on_c,0,58,0
2,44400, Note_on_c,0,53,96
2,44627, Note_on_c,0,53,0
2,44640, Note_on_c,0,58,96
2,44640, Note_on_c,0,61,96
2,44867, Note_on_c,0,58,0
2,44867, Note_on_c,0,61,0
2,44880, Note_on_c,0,46,96
2,44993, Note_on_c,0,46,0
2,45000, Note_on_c,0,53,96
2,45113, Note_on_c,0,53,0
2,45120, Note_on_c,0,58,96
2,45233, Note_on_c,0,58,0
2,45240, Note_on_c,0,53,96
2,45353, Note_on_c,0,53,0
2,45360, Note_on_c,0,49,96
2,45473, Note_on_c,0,49,0
2,45480, Note_on_c,0,46,96
2,45593, Note_on_c,0,46,0
2,45600, Note_on_c,0,53,96
2,45713, Note_on_c,0,53,0
2,45720, Note_on_c,0,49,96
2,45833, Note_on_c,0,49,0
2,45840, Note_on_c,0,46,96
2,45953, Note_on_c,0,46,0
2,45960, Note_on_c,0,41,96
2,46080, Note_on_c,0,29,80
2,46301, Note_on_c,0,41,0
2,46307, Note_on_c,0,29,0
2,46320, Note_on_c,0,45,80
2,46547, Note_on_c,0,45,0
2,46560, Note_on_c,0,48,80
2,46787, Note_on_c,0,48,0
2,46800, Note_on_c,0,53,80
2,47255, Note_on_c,0,53,0
2,47280, Note_on_c,0,48,80
2,47507, Note_on_c,0,48,0
2,47520, Note_on_c,0,53,80
2,47747, Note_on_c,0,53,0
2,47760, Note_on_c,0,48,80
2,47987, Note_on_c,0,48,0
2,48000, Note_on_c,0,41,80
2,48227, Note_on_c,0,41,0
2,48240, Note_on_c,0,48,80
2,48467, Note_on_c,0,48,0
2,48480, Note_on_c,0,53,80
2,48707, Note_on_c,0,53,0
2,48720, Note_on_c,0,48,80
2,48947, Note_on_c,0,48,0
2,48960, Note_on_c,0,53,80
2,49187, Note_on_c,0,53,0
2,49200, Note_on_c,0,48,80
2,49427, Note_on_c,0,48,0
2,49440, Note_on_c,0,53,80
2,49667, Note_on_c,0,53,0
2,49680, Note_on_c,0,48,80
2,49907, Note_on_c,0,48,0
2,49920, Note_on_c,0,33,80
2,50147, Note_on_c,0,33,0
2,50160, Note_on_c,0,48,80
2,50387, Note_on_c,0,48,0
2,50400, Note_on_c,0,52,80
2,50627, Note_on_c,0,52,0
2,50640, Note_on_c,0,57,80
2,51095, Note_on_c,0,57,0
2,51120, Note_on_c,0,52,80
2,51347, Note_on_c,0,52,0
2,51360, Note_on_c,0,57,80
2,51587, Note_on_c,0,57,0
2,51600, Note_on_c,0,52,80
2,51827, Note_on_c,0,52,0
2,51840, Note_on_c,0,45,80
2,52067, Note_on_c,0,45,0
2,52080, Note_on_c,0,52,80
2,52307, Note_on_c,0,52,0
2,52320, Note_on_c,0,57,80
2,52547, Note_on_c,0,57,0
2,52560, Note_on_c,0,52,80
2,52787, Note_on_c,0,52,0
2,52800, Note_on_c,0,57,80
2,53027, Note_on_c,0,57,0
2,53040, Note_on_c,0,52,80
2,53267, Note_on_c,0,52,0
2,53280, Note_on_c,0,57,80
2,53507, Note_on_c,0,57,0
2,53520, Note_on_c,0,52,80
2,53747, Note_on_c,0,52,0
2,53760, Note_on_c,0,34,80
2,53987, Note_on_c,0,34,0
2,54000, Note_on_c,0,50,80
2,54227, Note_on_c,0,50,0
2,54240, Note_on_c,0,53,80
2,54467, Note_on_c,0,53,0
2,54480, Note_on_c,0,58,80
2,54935, Note_on_c,0,58,0
2,54960, Note_on_c,0,53,80
2,55187, Note_on_c,0,53,0
2,55200, Note_on_c,0,58,80
2,55427, Note_on_c,0,58,0
2,55440, Note_on_c,0,53,80
2,55667, Note_on_c,0,53,0
2,55680, Note_on_c,0,46,80
2,55907, Note_on_c,0,46,0
2,55920, Note_on_c,0,53,80
2,56147, Note_on_c,0,53,0
2,56160, Note_on_c,0,58,80
2,56387, Note_on_c,0,58,0
2,56400, Note_on_c,0,53,80
2,56627, Note_on_c,0,53,0
2,56640, Note_on_c,0,58,80
2,56867, Note_on_c,0,58,0
2,56880, Note_on_c,0,53,80
2,57107, Note_on_c,0,53,0
2,57120, Note_on_c,0,58,80
2,57347, Note_on_c,0,58,0
2,57360, Note_on_c,0,53,80
2,57587, Note_on_c,0,53,0
2,57600, Note_on_c,0,34,80
2,57827, Note_on_c,0,34,0
2,57840, Note_on_c,0,49,80
2,58067, Note_on_c,0,49,0
2,58080, Note_on_c,0,53,80
2,58307, Note_on_c,0,53,0
2,58320, Note_on_c,0,58,80
2,58775, Note_on_c,0,58,0
2,58800, Note_on_c,0,53,80
2,59027, Note_on_c,0,53,0
2,59040, Note_on_c,0,58,80
2,59267, Note_on_c,0,58,0
2,59280, Note_on_c,0,53,80
2,59507, Note_on_c,0,53,0
2,59520, Note_on_c,0,46,80
2,59747, Note_on_c,0,46,0
2,59760, Note_on_c,0,53,80
2,59987, Note_on_c,0,53,0
2,60000, Note_on_c,0,58,80
2,60227, Note_on_c,0,58,0
2,60240, Note_on_c,0,53,80
2,60467, Note_on_c,0,53,0
2,60480, Note_on_c,0,58,80
2,60707, Note_on_c,0,58,0
2,60720, Note_on_c,0,53,80
2,60947, Note_on_c,0,53,0
2,60960, Note_on_c,0,58,80
2,61187, Note_on_c,0,58,0
2,61200, Note_on_c,0,53,80
2,61427, Note_on_c,0,53,0
2,61440, Note_on_c,0,41,80
2,61440, Note_on_c,0,53,80
2,61667, Note_on_c,0,41,0
2,61680, Note_on_c,0,41,80
2,61907, Note_on_c,0,41,0
2,61920, Note_on_c,0,41,80
2,62147, Note_on_c,0,41,0
2,62160, Note_on_c,0,41,80
2,62351, Note_on_c,0,53,0
2,62387, Note_on_c,0,41,0
2,62400, Note_on_c,0,41,80
2,62400, Note_on_c,0,52,80
2,62627, Note_on_c,0,41,0
2,62640, Note_on_c,0,41,80
2,62867, Note_on_c,0,41,0
2,62880, Note_on_c,0,41,80
2,63107, Note_on_c,0,41,0
2,63120, Note_on_c,0,41,80
2,63311, Note_on_c,0,52,0
2,63347, Note_on_c,0,41,0
2,63360, Note_on_c,0,41,80
2,63360, Note_on_c,0,55,80
2,63587, Note_on_c,0,41,0
2,63600, Note_on_c,0,41,80
2,63827, Note_on_c,0,41,0
2,63840, Note_on_c,0,41,80
2,64043, Note_on_c,0,55,0
2,64067, Note_on_c,0,41,0
2,64080, Note_on_c,0,41,80
2,64080, Note_on_c,0,53,80
2,64307, Note_on_c,0,41,0
2,64320, Note_on_c,0,41,80
2,64547, Note_on_c,0,41,0
2,64560, Note_on_c,0,41,80
2,64787, Note_on_c,0,41,0
2,64800, Note_on_c,0,41,80
2,65027, Note_on_c,0,41,0
2,65040, Note_on_c,0,41,80
2,65219, Note_on_c,0,53,0
2,65267, Note_on_c,0,41,0
2,65280, Note_on_c,0,45,80
2,65280, Note_on_c,0,53,80
2,65507, Note_on_c,0,45,0
2,65520, Note_on_c,0,45,80
2,65747, Note_on_c,0,45,0
2,65760, Note_on_c,0,45,80
2,65987, Note_on_c,0,45,0
2,66000, Note_on_c,0,45,80
2,66191, Note_on_c,0,53,0
2,66227, Note_on_c,0,45,0
2,66240, Note_on_c,0,45,80
2,66240, Note_on_c,0,52,80
2,66467, Note_on_c,0,45,0
2,66480, Note_on_c,0,45,80
2,66707, Note_on_c,0,45,0
2,66720, Note_on_c,0,45,80
2,66947, Note_on_c,0,45,0
2,66960, Note_on_c,0,45,80
2,67151, Note_on_c,0,52,0
2,67187, Note_on_c,0,45,0
2,67200, Note_on_c,0,45,80
2,67200, Note_on_c,0,55,80
2,67427, Note_on_c,0,45,0
2,67440, Note_on_c,0,45,80
2,67667, Note_on_c,0,45,0
2,67680, Note_on_c,0,45,80
2,67883, Note_on_c,0,55,0
2,67907, Note_on_c,0,45,0
2,67920, Note_on_c,0,45,80
2,67920, Note_on_c,0,53,80
2,68147, Note_on_c,0,45,0
2,68160, Note_on_c,0,45,80
2,68387, Note_on_c,0,45,0
2,68400, Note_on_c,0,45,80
2,68627, Note_on_c,0,45,0
2,68640, Note_on_c,0,45,80
2,68867, Note_on_c,0,45,0
2,68880, Note_on_c,0,45,80
2,69059, Note_on_c,0,53,0
2,69107, Note_on_c,0,45,0
2,69120, Note_on_c,0,46,80
2,69120, Note_on_c,0,53,80
2,69347, Note_on_c,0,46,0
2,69360, Note_on_c,0,46,80
2,69587, Note_on_c,0,46,0
2,69600, Note_on_c,0,46,80
2,69827, Note_on_c,0,46,0
2,69840, Note_on_c,0,46,80
2,70031, Note_on_c,0,53,0
2,70067, Note_on_c,0,46,0
2,70080, Note_on_c,0,46,80
2,70080, Note_on_c,0,52,80
2,70307, Note_on_c,0,46,0
2,70320, Note_on_c,0,46,80
2,70547, Note_on_c,0,46,0
2,70560, Note_on_c,0,46,80
2,70787, Note_on_c,0,46,0
2,70800, Note_on_c,0,46,80
2,70991, Note_on_c,0,52,0
2,71027, Note_on_c,0,46,0
2,71040, Note_on_c,0,46,80
2,71040, Note_on_c,0,55,80
2,71267, Note_on_c,0,46,0
2,71280, Note_on_c,0,46,80
2,71507, Note_on_c,0,46,0
2,71520, Note_on_c,0,46,80
2,71723, Note_on_c,0,55,0
2,71747, Note_on_c,0,46,0
2,71760, Note_on_c,0,46,80
2,71760, Note_on_c,0,53,80
2,71987, Note_on_c,0,46,0
2,72000, Note_on_c,0,46,80
2,72227, Note_on_c,0,46,0
2,72240, Note_on_c,0,46,80
2,72467, Note_on_c,0,46,0
2,72480, Note_on_c,0,46,80
2,72707, Note_on_c,0,46,0
2,72720, Note_on_c,0,46,80
2,72899, Note_on_c,0,53,0
2,72947, Note_on_c,0,46,0
2,72960, Note_on_c,0,46,80
2,72960, Note_on_c,0,53,80
2,73187, Note_on_c,0,46,0
2,73200, Note_on_c,0,46,80
2,73427, Note_on_c,0,46,0
2,73440, Note_on_c,0,46,80
2,73667, Note_on_c,0,46,0
2,73680, Note_on_c,0,46,80
2,73871, Note_on_c,0,53,0
2,73907, Note_on_c,0,46,0
2,73920, Note_on_c,0,46,80
2,73920, Note_on_c,0,49,80
2,73920, Note_on_c,0,52,80
2,74147, Note_on_c,0,46,0
2,74160, Note_on_c,0,46,80
2,74387, Note_on_c,0,46,0
2,74400, Note_on_c,0,46,80
2,74627, Note_on_c,0,46,0
2,74640, Note_on_c,0,46,80
2,74831, Note_on_c,0,49,0
2,74831, Note_on_c,0,52,0
2,74867, Note_on_c,0,46,0
2,74880, Note_on_c,0,46,80
2,74880, Note_on_c,0,55,80
2,75107, Note_on_c,0,46,0
2,75120, Note_on_c,0,46,80
2,75347, Note_on_c,0,46,0
2,75360, Note_on_c,0,46,80
2,75563, Note_on_c,0,55,0
2,75587, Note_on_c,0,46,0
2,75600, Note_on_c,0,46,80
2,75600, Note_on_c,0,53,80
2,75827, Note_on_c,0,46,0
2,75840, Note_on_c,0,46,80
2,76067, Note_on_c,0,46,0
2,76080, Note_on_c,0,46,80
2,76307, Note_on_c,0,46,0
2,76320, Note_on_c,0,46,80
2,76547, Note_on_c,0,46,0
2,76560, Note_on_c,0,46,80
2,76739, Note_on_c,0,53,0
2,76787, Note_on_c,0,46,0
2,76800, Note_on_c,0,29,96
2,76800, Note_on_c,0,41,96
2,77027, Note_on_c,0,29,0
2,77027, Note_on_c,0,41,0
2,77040, Note_on_c,0,53,96
2,77267, Note_on_c,0,53,0
2,77280, Note_on_c,0,57,96
2,77280, Note_on_c,0,60,96
2,77507, Note_on_c,0,57,0
2,77507, Note_on_c,0,60,0
2,77520, Note_on_c,0,41,96
2,77633, Note_on_c,0,41,0
2,77640, Note_on_c,0,53,96
2,77753, Note_on_c,0,53,0
2,77880, Note_on_c,0,53,96
2,77993, Note_on_c,0,53,0
2,78000, Note_on_c,0,41,96
2,78227, Note_on_c,0,41,0
2,78240, Note_on_c,0,57,96
2,78240, Note_on_c,0,60,96
2,78467, Note_on_c,0,57,0
2,78467, Note_on_c,0,60,0
2,78480, Note_on_c,0,53,96
2,78707, Note_on_c,0,53,0
2,78720, Note_on_c,0,29,96
2,78720, Note_on_c,0,41,96
2,78947, Note_on_c,0,29,0
2,78947, Note_on_c,0,41,0
2,78960, Note_on_c,0,53,96
2,79187, Note_on_c,0,53,0
2,79200, Note_on_c,0,57,96
2,79200, Note_on_c,0,60,96
2,79427, Note_on_c,0,57,0
2,79427, Note_on_c,0,60,0
2,79440, Note_on_c,0,41,96
2,79553, Note_on_c,0,41,0
2,79560, Note_on_c,0,53,96
2,79673, Note_on_c,0,53,0
2,79800, Note_on_c,0,53,96
2,79913, Note_on_c,0,53,0
2,79920, Note_on_c,0,41,96
2,80147, Note_on_c,0,41,0
2,80160, Note_on_c,0,57,96
2,80160, Note_on_c,0,60,96
2,80387, Note_on_c,0,57,0
2,80387, Note_on_c,0,60,0
2,80400, Note_on_c,0,53,96
2,80627, Note_on_c,0,53,0
2,80640, Note_on_c,0,33,96
2,80640, Note_on_c,0,45,96
2,80867, Note_on_c,0,33,0
2,80867, Note_on_c,0,45,0
2,80880, Note_on_c,0,52,96
2,81107, Note_on_c,0,52,0
2,81120, Note_on_c,0,57,96
2,81120, Note_on_c,0,60,96
2,81347, Note_on_c,0,57,0
2,81347, Note_on_c,0,60,0
2,81360, Note_on_c,0,45,96
2,81473, Note_on_c,0,45,0
2,81480, Note_on_c,0,57,96
2,81593, Note_on_c,0,57,0
2,81720, Note_on_c,0,57,96
2,81833, Note_on_c,0,57,0
2,81840, Note_on_c,0,45,96
2,82067, Note_on_c,0,45,0
2,82080, Note_on_c,0,57,96
2,82080, Note_on_c,0,60,96
2,82307, Note_on_c,0,57,0
2,82320, Note_on_c,0,52,96
2,82511, Note_on_c,0,60,0
2,82547, Note_on_c,0,52,0
2,82560, Note_on_c,0,33,96
2,82560, Note_on_c,0,45,96
2,82787, Note_on_c,0,33,0
2,82787, Note_on_c,0,45,0
2,82800, Note_on_c,0,52,96
2,83027, Note_on_c,0,52,0
2,83040, Note_on_c,0,57,96
2,83040, Note_on_c,0,60,96
2,83267, Note_on_c,0,57,0
2,83267, Note_on_c,0,60,0
2,83280, Note_on_c,0,45,96
2,83393, Note_on_c,0,45,0
2,83400, Note_on_c,0,57,96
2,83513, Note_on_c,0,57,0
2,83640, Note_on_c,0,57,96
2,83753, Note_on_c,0,57,0
2,83760, Note_on_c,0,45,96
2,83987, Note_on_c,0,45,0
2,84000, Note_on_c,0,57,96
2,84000, Note_on_c,0,60,96
2,84227, Note_on_c,0,57,0
2,84227, Note_on_c,0,60,0
2,84240, Note_on_c,0,52,96
2,84467, Note_on_c,0,52,0
2,84480, Note_on_c,0,34,96
2,84480, Note_on_c,0,46,96
2,84707, Note_on_c,0,34,0
2,84707, Note_on_c,0,46,0
2,84720, Note_on_c,0,53,96
2,84947, Note_on_c,0,53,0
2,84960, Note_on_c,0,58,96
2,84960, Note_on_c,0,62,96
2,85187, Note_on_c,0,58,0
2,85187, Note_on_c,0,62,0
2,85200, Note_on_c,0,46,96
2,85313, Note_on_c,0,46,0
2,85320, Note_on_c,0,58,96
2,85433, Note_on_c,0,58,0
2,85560, Note_on_c,0,58,96
2,85673, Note_on_c,0,58,0
2,85680, Note_on_c,0,46,96
2,85907, Note_on_c,0,46,0
2,85920, Note_on_c,0,58,96
2,85920, Note_on_c,0,62,96
2,86147, Note_on_c,0,58,0
2,86147, Note_on_c,0,62,0
2,86160, Note_on_c,0,53,96
2,86387, Note_on_c,0,53,0
2,86400, Note_on_c,0,34,96
2,86400, Note_on_c,0,46,96
2,86627, Note_on_c,0,34,0
2,86627, Note_on_c,0,46,0
2,86640, Note_on_c,0,53,96
2,86867, Note_on_c,0,53,0
2,86880, Note_on_c,0,58,96
2,86880, Note_on_c,0,62,96
2,87107, Note_on_c,0,58,0
2,87107, Note_on_c,0,62,0
2,87120, Note_on_c,0,46,96
2,87233, Note_on_c,0,46,0
2,87240, Note_on_c,0,58,96
2,87353, Note_on_c,0,58,0
2,87480, Note_on_c,0,58,96
2,87593, Note_on_c,0,58,0
2,87600, Note_on_c,0,46,96
2,87827, Note_on_c,0,46,0
2,87840, Note_on_c,0,58,96
2,87840, Note_on_c,0,62,96
2,88067, Note_on_c,0,58,0
2,88067, Note_on_c,0,62,0
2,88080, Note_on_c,0,53,96
2,88307, Note_on_c,0,53,0
2,88320, Note_on_c,0,34,96
2,88320, Note_on_c,0,46,96
2,88547, Note_on_c,0,34,0
2,88547, Note_on_c,0,46,0
2,88560, Note_on_c,0,53,96
2,88787, Note_on_c,0,53,0
2,88800, Note_on_c,0,58,96
2,88800, Note_on_c,0,61,96
2,89027, Note_on_c,0,58,0
2,89027, Note_on_c,0,61,0
2,89040, Note_on_c,0,46,96
2,89153, Note_on_c,0,46,0
2,89160, Note_on_c,0,58,96
2,89273, Note_on_c,0,58,0
2,89400, Note_on_c,0,58,96
2,89513, Note_on_c,0,58,0
2,89520, Note_on_c,0,46,96
2,89747, Note_on_c,0,46,0
2,89760, Note_on_c,0,58,96
2,89760, Note_on_c,0,61,96
2,89987, Note_on_c,0,58,0
2,89987, Note_on_c,0,61,0
2,90000, Note_on_c,0,53,96
2,90227, Note_on_c,0,53,0
2,90240, Note_on_c,0,34,96
2,90240, Note_on_c,0,46,96
2,90467, Note_on_c,0,34,0
2,90467, Note_on_c,0,46,0
2,90480, Note_on_c,0,53,96
2,90707, Note_on_c,0,53,0
2,90720, Note_on_c,0,58,96
2,90720, Note_on_c,0,61,96
2,90947, Note_on_c,0,58,0
2,90947, Note_on_c,0,61,0
2,90960, Note_on_c,0,46,96
2,91073, Note_on_c,0,46,0
2,91080, Note_on_c,0,53,96
2,91193, Note_on_c,0,53,0
2,91200, Note_on_c,0,58,96
2,91313, Note_on_c,0,58,0
2,91320, Note_on_c,0,53,96
2,91433, Note_on_c,0,53,0
2,91440, Note_on_c,0,49,96
2,91553, Note_on_c,0,49,0
2,91560, Note_on_c,0,46,96
2,91673, Note_on_c,0,46,0
2,91680, Note_on_c,0,53,96
2,91793, Note_on_c,0,53,0
2,91800, Note_on_c,0,49,96
2,91913, Note_on_c,0,49,0
2,91920, Note_on_c,0,46,96
2,92033, Note_on_c,0,46,0
2,92040, Note_on_c,0,41,96
2,92160, Note_on_c,0,53,80
2,92381, Note_on_c,0,41,0
2,92387, Note_on_c,0,53,0
2,92400, Note_on_c,0,48,80
2,92627, Note_on_c,0,48,0
2,92640, Note_on_c,0,53,80
2,92867, Note_on_c,0,53,0
2,92880, Note_on_c,0,57,80
2,93107, Note_on_c,0,57,0
2,93120, Note_on_c,0,60,80
2,93347, Note_on_c,0,60,0
2,93360, Note_on_c,0,65,80
2,93587, Note_on_c,0,65,0
2,93600, Note_on_c,0,69,80
2,93827, Note_on_c,0,69,0
2,93828, End_track,,,
0,0, End_of_file,,,
