0, 0, Header, 1, 12, 480
1, 0, Start_track
1, 0, Time_signature, 4, 2, 24, 8
1, 0, Key_signature, 0, "major"
1, 0, Control_c, 0, 121, 0
1, 0, Program_c, 0, 73
1, 0, Control_c, 0, 7, 100
1, 0, Control_c, 0, 10, 64
1, 0, Control_c, 0, 91, 0
1, 0, Control_c, 0, 93, 0
1, 0, MIDI_port, 0
1, 5760, Tempo, 375000
1, 7680, Tempo, 352942
1, 9600, Tempo, 333333
1, 11520, Tempo, 300000
1, 13440, Tempo, 272727
1, 15360, Tempo, 250000
1, 17280, Tempo, 240000
1, 19200, Tempo, 230769
1, 21120, Tempo, 222222
1, 23040, Tempo, 214286
1, 24960, Tempo, 206897
1, 26880, Tempo, 200000
1, 28800, Tempo, 193548
1, 30720, Tempo, 187500
1, 32640, Tempo, 181818
1, 34560, Tempo, 176470
1, 36480, Tempo, 171429
1, 38400, Tempo, 166667
1, 40320, Tempo, 162162
1, 42240, Tempo, 157895
1, 44160, Tempo, 150000
1, 44160, Note_on_c, 0, 83, 80
1, 44399, Note_on_c, 0, 83, 0
1, 44640, Note_on_c, 0, 83, 80
1, 44879, Note_on_c, 0, 83, 0
1, 45120, Note_on_c, 0, 83, 80
1, 45359, Note_on_c, 0, 83, 0
1, 45600, Note_on_c, 0, 83, 80
1, 45839, Note_on_c, 0, 83, 0
1, 46080, Tempo, 146342
1, 46080, Note_on_c, 0, 83, 80
1, 46319, Note_on_c, 0, 83, 0
1, 46560, Note_on_c, 0, 83, 80
1, 46799, Note_on_c, 0, 83, 0
1, 47040, Note_on_c, 0, 83, 80
1, 47279, Note_on_c, 0, 83, 0
1, 47520, Note_on_c, 0, 83, 80
1, 47759, Note_on_c, 0, 83, 0
1, 48000, Tempo, 142857
1, 48000, Note_on_c, 0, 83, 80
1, 48239, Note_on_c, 0, 83, 0
1, 48960, Note_on_c, 0, 82, 80
1, 49871, Note_on_c, 0, 82, 0
1, 49920, Tempo, 139535
1, 49920, Note_on_c, 0, 83, 80
1, 50159, Note_on_c, 0, 83, 0
1, 50880, Note_on_c, 0, 84, 80
1, 51791, Note_on_c, 0, 84, 0
1, 51840, Tempo, 136364
1, 51840, Note_on_c, 0, 83, 80
1, 52079, Note_on_c, 0, 83, 0
1, 52800, Note_on_c, 0, 79, 80
1, 53039, Note_on_c, 0, 79, 0
1, 53760, Tempo, 133333
1, 53760, Note_on_c, 0, 76, 80
1, 53999, Note_on_c, 0, 76, 0
1, 54720, Note_on_c, 0, 79, 80
1, 54959, Note_on_c, 0, 79, 0
1, 55680, Tempo, 130435
1, 55680, Note_on_c, 0, 83, 80
1, 57600, Tempo, 127660
1, 58415, Note_on_c, 0, 83, 0
1, 58560, Note_on_c, 0, 79, 80
1, 59471, Note_on_c, 0, 79, 0
1, 59520, Tempo, 125000
1, 61440, Tempo, 122449
1, 63360, Tempo, 120000
1, 65280, Tempo, 117647
1, 67200, Tempo, 115385
1, 69120, Tempo, 113208
1, 71040, Tempo, 111111
1, 74880, Tempo, 100000
1, 74880, Note_on_c, 0, 83, 80
1, 75119, Note_on_c, 0, 83, 0
1, 75360, Note_on_c, 0, 83, 80
1, 75599, Note_on_c, 0, 83, 0
1, 75840, Note_on_c, 0, 83, 80
1, 76079, Note_on_c, 0, 83, 0
1, 76320, Note_on_c, 0, 83, 80
1, 76559, Note_on_c, 0, 83, 0
1, 76800, Note_on_c, 0, 83, 80
1, 77039, Note_on_c, 0, 83, 0
1, 77280, Note_on_c, 0, 83, 80
1, 77519, Note_on_c, 0, 83, 0
1, 77760, Note_on_c, 0, 83, 80
1, 77999, Note_on_c, 0, 83, 0
1, 78240, Note_on_c, 0, 83, 80
1, 78479, Note_on_c, 0, 83, 0
1, 78720, Note_on_c, 0, 83, 80
1, 78959, Note_on_c, 0, 83, 0
1, 79680, Note_on_c, 0, 82, 80
1, 80591, Note_on_c, 0, 82, 0
1, 80640, Note_on_c, 0, 83, 80
1, 80879, Note_on_c, 0, 83, 0
1, 81600, Note_on_c, 0, 84, 80
1, 82511, Note_on_c, 0, 84, 0
1, 82560, Note_on_c, 0, 83, 80
1, 82799, Note_on_c, 0, 83, 0
1, 83520, Note_on_c, 0, 79, 80
1, 83759, Note_on_c, 0, 79, 0
1, 84480, Note_on_c, 0, 76, 80
1, 84719, Note_on_c, 0, 76, 0
1, 85440, Note_on_c, 0, 79, 80
1, 85679, Note_on_c, 0, 79, 0
1, 86400, Note_on_c, 0, 83, 80
1, 89135, Note_on_c, 0, 83, 0
1, 89280, Note_on_c, 0, 79, 80
1, 90191, Note_on_c, 0, 79, 0
1, 90240, Note_on_c, 0, 81, 80
1, 90479, Note_on_c, 0, 81, 0
1, 91200, Note_on_c, 0, 78, 80
1, 91439, Note_on_c, 0, 78, 0
1, 92160, Note_on_c, 0, 75, 80
1, 92399, Note_on_c, 0, 75, 0
1, 93120, Note_on_c, 0, 78, 80
1, 93359, Note_on_c, 0, 78, 0
1, 94080, Note_on_c, 0, 81, 80
1, 96815, Note_on_c, 0, 81, 0
1, 96960, Note_on_c, 0, 78, 80
1, 97871, Note_on_c, 0, 78, 0
1, 97920, Note_on_c, 0, 79, 80
1, 98159, Note_on_c, 0, 79, 0
1, 98880, Note_on_c, 0, 78, 80
1, 99119, Note_on_c, 0, 78, 0
1, 99840, Note_on_c, 0, 76, 80
1, 100079, Note_on_c, 0, 76, 0
1, 100800, Note_on_c, 0, 79, 80
1, 101039, Note_on_c, 0, 79, 0
1, 101760, Note_on_c, 0, 78, 80
1, 101999, Note_on_c, 0, 78, 0
1, 105600, Note_on_c, 0, 83, 80
1, 105839, Note_on_c, 0, 83, 0
1, 106080, Note_on_c, 0, 83, 80
1, 106319, Note_on_c, 0, 83, 0
1, 106560, Note_on_c, 0, 83, 80
1, 106799, Note_on_c, 0, 83, 0
1, 107040, Note_on_c, 0, 83, 80
1, 107279, Note_on_c, 0, 83, 0
1, 107520, Note_on_c, 0, 83, 80
1, 107759, Note_on_c, 0, 83, 0
1, 108000, Note_on_c, 0, 83, 80
1, 108239, Note_on_c, 0, 83, 0
1, 108480, Note_on_c, 0, 83, 80
1, 108719, Note_on_c, 0, 83, 0
1, 108960, Note_on_c, 0, 83, 80
1, 109199, Note_on_c, 0, 83, 0
1, 109440, Note_on_c, 0, 83, 80
1, 109679, Note_on_c, 0, 83, 0
1, 110400, Note_on_c, 0, 82, 80
1, 111311, Note_on_c, 0, 82, 0
1, 111360, Note_on_c, 0, 83, 80
1, 111599, Note_on_c, 0, 83, 0
1, 112320, Note_on_c, 0, 84, 80
1, 113231, Note_on_c, 0, 84, 0
1, 113280, Note_on_c, 0, 83, 80
1, 113519, Note_on_c, 0, 83, 0
1, 114240, Note_on_c, 0, 79, 80
1, 114479, Note_on_c, 0, 79, 0
1, 115200, Note_on_c, 0, 76, 80
1, 115439, Note_on_c, 0, 76, 0
1, 116160, Note_on_c, 0, 79, 80
1, 116399, Note_on_c, 0, 79, 0
1, 117120, Note_on_c, 0, 83, 80
1, 119855, Note_on_c, 0, 83, 0
1, 120000, Note_on_c, 0, 79, 80
1, 120911, Note_on_c, 0, 79, 0
1, 136320, Note_on_c, 0, 84, 80
1, 137687, Note_on_c, 0, 84, 0
1, 137760, Note_on_c, 0, 83, 80
1, 138215, Note_on_c, 0, 83, 0
1, 138240, Note_on_c, 0, 84, 80
1, 139607, Note_on_c, 0, 84, 0
1, 139680, Note_on_c, 0, 83, 80
1, 140135, Note_on_c, 0, 83, 0
1, 140160, Note_on_c, 0, 84, 80
1, 140615, Note_on_c, 0, 84, 0
1, 141120, Note_on_c, 0, 83, 80
1, 141575, Note_on_c, 0, 83, 0
1, 142080, Note_on_c, 0, 84, 80
1, 142535, Note_on_c, 0, 84, 0
1, 143040, Note_on_c, 0, 86, 80
1, 143495, Note_on_c, 0, 86, 0
1, 144000, Note_on_c, 0, 84, 80
1, 144911, Note_on_c, 0, 84, 0
1, 144960, Note_on_c, 0, 81, 80
1, 145415, Note_on_c, 0, 81, 0
1, 145920, Note_on_c, 0, 76, 80
1, 146375, Note_on_c, 0, 76, 0
1, 146880, Note_on_c, 0, 81, 80
1, 147335, Note_on_c, 0, 81, 0
1, 147840, Note_on_c, 0, 84, 80
1, 150575, Note_on_c, 0, 84, 0
1, 150720, Note_on_c, 0, 81, 80
1, 151631, Note_on_c, 0, 81, 0
1, 151680, Note_on_c, 0, 83, 80
1, 152135, Note_on_c, 0, 83, 0
1, 152640, Note_on_c, 0, 79, 80
1, 153095, Note_on_c, 0, 79, 0
1, 153600, Note_on_c, 0, 76, 80
1, 154055, Note_on_c, 0, 76, 0
1, 154560, Note_on_c, 0, 79, 80
1, 155015, Note_on_c, 0, 79, 0
1, 155520, Note_on_c, 0, 83, 80
1, 158255, Note_on_c, 0, 83, 0
1, 158400, Note_on_c, 0, 79, 80
1, 159311, Note_on_c, 0, 79, 0
1, 159360, Note_on_c, 0, 78, 80
1, 159815, Note_on_c, 0, 78, 0
1, 160320, Note_on_c, 0, 79, 80
1, 160775, Note_on_c, 0, 79, 0
1, 161280, Note_on_c, 0, 81, 80
1, 161735, Note_on_c, 0, 81, 0
1, 162240, Note_on_c, 0, 78, 80
1, 162695, Note_on_c, 0, 78, 0
1, 163200, Note_on_c, 0, 83, 80
1, 163655, Note_on_c, 0, 83, 0
1, 167040, Note_on_c, 0, 84, 80
1, 168407, Note_on_c, 0, 84, 0
1, 168480, Note_on_c, 0, 83, 80
1, 168935, Note_on_c, 0, 83, 0
1, 168960, Note_on_c, 0, 84, 80
1, 170327, Note_on_c, 0, 84, 0
1, 170400, Note_on_c, 0, 83, 80
1, 170855, Note_on_c, 0, 83, 0
1, 170880, Note_on_c, 0, 84, 80
1, 171335, Note_on_c, 0, 84, 0
1, 171840, Note_on_c, 0, 83, 80
1, 172295, Note_on_c, 0, 83, 0
1, 172800, Note_on_c, 0, 84, 80
1, 173255, Note_on_c, 0, 84, 0
1, 173760, Note_on_c, 0, 86, 80
1, 174215, Note_on_c, 0, 86, 0
1, 174720, Note_on_c, 0, 83, 80
1, 175631, Note_on_c, 0, 83, 0
1, 175680, Note_on_c, 0, 79, 80
1, 176135, Note_on_c, 0, 79, 0
1, 176640, Note_on_c, 0, 76, 80
1, 177095, Note_on_c, 0, 76, 0
1, 177600, Note_on_c, 0, 79, 80
1, 178055, Note_on_c, 0, 79, 0
1, 178560, Note_on_c, 0, 83, 80
1, 181295, Note_on_c, 0, 83, 0
1, 181440, Note_on_c, 0, 79, 80
1, 182351, Note_on_c, 0, 79, 0
1, 197760, Tempo, 85714
1, 197760, Note_on_c, 0, 83, 80
1, 197999, Note_on_c, 0, 83, 0
1, 198240, Note_on_c, 0, 83, 80
1, 198479, Note_on_c, 0, 83, 0
1, 198720, Note_on_c, 0, 83, 80
1, 198959, Note_on_c, 0, 83, 0
1, 199200, Note_on_c, 0, 83, 80
1, 199439, Note_on_c, 0, 83, 0
1, 199680, Note_on_c, 0, 83, 80
1, 199907, Note_on_c, 0, 83, 0
1, 199920, Note_on_c, 0, 83, 80
1, 200147, Note_on_c, 0, 83, 0
1, 200160, Note_on_c, 0, 83, 80
1, 200387, Note_on_c, 0, 83, 0
1, 200400, Note_on_c, 0, 83, 80
1, 200627, Note_on_c, 0, 83, 0
1, 200640, Note_on_c, 0, 83, 80
1, 200640, Note_on_c, 0, 95, 80
1, 200867, Note_on_c, 0, 83, 0
1, 200867, Note_on_c, 0, 95, 0
1, 200880, Note_on_c, 0, 83, 80
1, 200880, Note_on_c, 0, 95, 80
1, 201107, Note_on_c, 0, 83, 0
1, 201107, Note_on_c, 0, 95, 0
1, 201120, Note_on_c, 0, 83, 80
1, 201120, Note_on_c, 0, 95, 80
1, 201347, Note_on_c, 0, 83, 0
1, 201347, Note_on_c, 0, 95, 0
1, 201360, Note_on_c, 0, 83, 80
1, 201360, Note_on_c, 0, 95, 80
1, 201587, Note_on_c, 0, 83, 0
1, 201587, Note_on_c, 0, 95, 0
1, 201600, Note_on_c, 0, 83, 80
1, 201827, Note_on_c, 0, 83, 0
1, 202560, Note_on_c, 0, 82, 80
1, 203471, Note_on_c, 0, 82, 0
1, 203520, Note_on_c, 0, 83, 80
1, 203759, Note_on_c, 0, 83, 0
1, 204480, Note_on_c, 0, 84, 80
1, 205391, Note_on_c, 0, 84, 0
1, 205440, Note_on_c, 0, 83, 80
1, 205679, Note_on_c, 0, 83, 0
1, 206400, Note_on_c, 0, 79, 80
1, 206639, Note_on_c, 0, 79, 0
1, 207360, Note_on_c, 0, 76, 80
1, 207599, Note_on_c, 0, 76, 0
1, 208320, Note_on_c, 0, 79, 80
1, 208559, Note_on_c, 0, 79, 0
1, 209280, Note_on_c, 0, 83, 80
1, 212015, Note_on_c, 0, 83, 0
1, 212160, Note_on_c, 0, 79, 80
1, 213071, Note_on_c, 0, 79, 0
1, 213120, Note_on_c, 0, 81, 80
1, 213359, Note_on_c, 0, 81, 0
1, 214080, Note_on_c, 0, 78, 80
1, 214319, Note_on_c, 0, 78, 0
1, 215040, Note_on_c, 0, 75, 80
1, 215279, Note_on_c, 0, 75, 0
1, 216000, Note_on_c, 0, 78, 80
1, 216239, Note_on_c, 0, 78, 0
1, 216960, Note_on_c, 0, 81, 80
1, 219695, Note_on_c, 0, 81, 0
1, 219840, Note_on_c, 0, 78, 80
1, 220751, Note_on_c, 0, 78, 0
1, 220800, Note_on_c, 0, 79, 80
1, 221039, Note_on_c, 0, 79, 0
1, 221760, Note_on_c, 0, 78, 80
1, 221999, Note_on_c, 0, 78, 0
1, 222720, Note_on_c, 0, 76, 80
1, 222959, Note_on_c, 0, 76, 0
1, 223680, Note_on_c, 0, 79, 80
1, 223919, Note_on_c, 0, 79, 0
1, 224640, Note_on_c, 0, 78, 80
1, 224879, Note_on_c, 0, 78, 0
1, 228480, Note_on_c, 0, 83, 80
1, 228719, Note_on_c, 0, 83, 0
1, 228960, Note_on_c, 0, 83, 80
1, 229199, Note_on_c, 0, 83, 0
1, 229440, Note_on_c, 0, 83, 80
1, 229679, Note_on_c, 0, 83, 0
1, 229920, Note_on_c, 0, 83, 80
1, 230159, Note_on_c, 0, 83, 0
1, 230400, Note_on_c, 0, 83, 80
1, 230627, Note_on_c, 0, 83, 0
1, 230640, Note_on_c, 0, 83, 80
1, 230867, Note_on_c, 0, 83, 0
1, 230880, Note_on_c, 0, 83, 80
1, 231107, Note_on_c, 0, 83, 0
1, 231120, Note_on_c, 0, 83, 80
1, 231347, Note_on_c, 0, 83, 0
1, 231360, Note_on_c, 0, 83, 80
1, 231360, Note_on_c, 0, 95, 80
1, 231587, Note_on_c, 0, 83, 0
1, 231587, Note_on_c, 0, 95, 0
1, 231600, Note_on_c, 0, 83, 80
1, 231600, Note_on_c, 0, 95, 80
1, 231827, Note_on_c, 0, 83, 0
1, 231827, Note_on_c, 0, 95, 0
1, 231840, Note_on_c, 0, 83, 80
1, 231840, Note_on_c, 0, 95, 80
1, 232067, Note_on_c, 0, 83, 0
1, 232067, Note_on_c, 0, 95, 0
1, 232080, Note_on_c, 0, 83, 80
1, 232080, Note_on_c, 0, 95, 80
1, 232307, Note_on_c, 0, 83, 0
1, 232307, Note_on_c, 0, 95, 0
1, 232320, Note_on_c, 0, 83, 80
1, 232559, Note_on_c, 0, 83, 0
1, 233280, Note_on_c, 0, 82, 80
1, 234191, Note_on_c, 0, 82, 0
1, 234240, Note_on_c, 0, 83, 80
1, 234479, Note_on_c, 0, 83, 0
1, 235200, Note_on_c, 0, 84, 80
1, 236111, Note_on_c, 0, 84, 0
1, 236160, Note_on_c, 0, 83, 80
1, 236399, Note_on_c, 0, 83, 0
1, 237120, Note_on_c, 0, 79, 80
1, 237359, Note_on_c, 0, 79, 0
1, 238080, Note_on_c, 0, 76, 80
1, 238319, Note_on_c, 0, 76, 0
1, 239040, Note_on_c, 0, 79, 80
1, 239279, Note_on_c, 0, 79, 0
1, 240000, Note_on_c, 0, 83, 80
1, 242735, Note_on_c, 0, 83, 0
1, 242880, Note_on_c, 0, 79, 80
1, 243791, Note_on_c, 0, 79, 0
1, 255360, Note_on_c, 0, 66, 80
1, 255385, Note_on_c, 0, 66, 0
1, 255387, Note_on_c, 0, 67, 80
1, 255412, Note_on_c, 0, 67, 0
1, 255415, Note_on_c, 0, 68, 80
1, 255440, Note_on_c, 0, 68, 0
1, 255444, Note_on_c, 0, 69, 80
1, 255469, Note_on_c, 0, 69, 0
1, 255471, Note_on_c, 0, 70, 80
1, 255496, Note_on_c, 0, 70, 0
1, 255499, Note_on_c, 0, 71, 80
1, 255524, Note_on_c, 0, 71, 0
1, 255528, Note_on_c, 0, 72, 80
1, 255553, Note_on_c, 0, 72, 0
1, 255555, Note_on_c, 0, 73, 80
1, 255580, Note_on_c, 0, 73, 0
1, 255583, Note_on_c, 0, 74, 80
1, 255608, Note_on_c, 0, 74, 0
1, 255612, Note_on_c, 0, 75, 80
1, 255637, Note_on_c, 0, 75, 0
1, 255639, Note_on_c, 0, 76, 80
1, 255664, Note_on_c, 0, 76, 0
1, 255667, Note_on_c, 0, 77, 80
1, 255692, Note_on_c, 0, 77, 0
1, 255696, Note_on_c, 0, 78, 80
1, 255721, Note_on_c, 0, 78, 0
1, 255723, Note_on_c, 0, 79, 80
1, 255748, Note_on_c, 0, 79, 0
1, 255751, Note_on_c, 0, 80, 80
1, 255776, Note_on_c, 0, 80, 0
1, 255780, Note_on_c, 0, 81, 80
1, 255805, Note_on_c, 0, 81, 0
1, 255807, Note_on_c, 0, 82, 80
1, 255835, Note_on_c, 0, 82, 0
1, 255840, Note_on_c, 0, 83, 80
1, 256751, Note_on_c, 0, 83, 0
1, 259200, Tempo, 375000
1, 261120, Tempo, 300000
1, 263040, Tempo, 250000
1, 264960, Tempo, 214286
1, 266880, Tempo, 187500
1, 268800, Tempo, 166667
1, 270720, Tempo, 150000
1, 272640, Tempo, 136364
1, 274560, Tempo, 125000
1, 276480, Tempo, 115385
1, 278400, Tempo, 107143
1, 280320, Tempo, 100000
1, 282240, Tempo, 93750
1, 284160, Tempo, 88236
1, 286080, Tempo, 83333
1, 288000, Tempo, 78947
1, 289920, Tempo, 75000
1, 289920, Note_on_c, 0, 83, 80
1, 290159, Note_on_c, 0, 83, 0
1, 290400, Note_on_c, 0, 83, 80
1, 290639, Note_on_c, 0, 83, 0
1, 290880, Note_on_c, 0, 83, 80
1, 291119, Note_on_c, 0, 83, 0
1, 291360, Note_on_c, 0, 83, 80
1, 291599, Note_on_c, 0, 83, 0
1, 291840, Note_on_c, 0, 83, 80
1, 292067, Note_on_c, 0, 83, 0
1, 292080, Note_on_c, 0, 83, 80
1, 292307, Note_on_c, 0, 83, 0
1, 292320, Note_on_c, 0, 83, 80
1, 292547, Note_on_c, 0, 83, 0
1, 292560, Note_on_c, 0, 83, 80
1, 292787, Note_on_c, 0, 83, 0
1, 292800, Note_on_c, 0, 83, 80
1, 292800, Note_on_c, 0, 95, 80
1, 293027, Note_on_c, 0, 83, 0
1, 293027, Note_on_c, 0, 95, 0
1, 293040, Note_on_c, 0, 83, 80
1, 293040, Note_on_c, 0, 95, 80
1, 293267, Note_on_c, 0, 83, 0
1, 293267, Note_on_c, 0, 95, 0
1, 293280, Note_on_c, 0, 83, 80
1, 293280, Note_on_c, 0, 95, 80
1, 293507, Note_on_c, 0, 83, 0
1, 293507, Note_on_c, 0, 95, 0
1, 293520, Note_on_c, 0, 83, 80
1, 293520, Note_on_c, 0, 95, 80
1, 293747, Note_on_c, 0, 83, 0
1, 293747, Note_on_c, 0, 95, 0
1, 293760, Note_on_c, 0, 83, 80
1, 293987, Note_on_c, 0, 83, 0
1, 294720, Note_on_c, 0, 82, 80
1, 295631, Note_on_c, 0, 82, 0
1, 295680, Note_on_c, 0, 83, 80
1, 295919, Note_on_c, 0, 83, 0
1, 296640, Note_on_c, 0, 84, 80
1, 297551, Note_on_c, 0, 84, 0
1, 297600, Note_on_c, 0, 83, 80
1, 297839, Note_on_c, 0, 83, 0
1, 298560, Note_on_c, 0, 79, 80
1, 298799, Note_on_c, 0, 79, 0
1, 299520, Note_on_c, 0, 76, 80
1, 299759, Note_on_c, 0, 76, 0
1, 300480, Note_on_c, 0, 79, 80
1, 300719, Note_on_c, 0, 79, 0
1, 301440, Note_on_c, 0, 83, 80
1, 304175, Note_on_c, 0, 83, 0
1, 304320, Note_on_c, 0, 79, 80
1, 305231, Note_on_c, 0, 79, 0
1, 305280, Note_on_c, 0, 81, 80
1, 305519, Note_on_c, 0, 81, 0
1, 306240, Note_on_c, 0, 78, 80
1, 306479, Note_on_c, 0, 78, 0
1, 307200, Note_on_c, 0, 75, 80
1, 307439, Note_on_c, 0, 75, 0
1, 308160, Note_on_c, 0, 78, 80
1, 308399, Note_on_c, 0, 78, 0
1, 309120, Note_on_c, 0, 81, 80
1, 311855, Note_on_c, 0, 81, 0
1, 312000, Note_on_c, 0, 78, 80
1, 312911, Note_on_c, 0, 78, 0
1, 312960, Note_on_c, 0, 79, 80
1, 313199, Note_on_c, 0, 79, 0
1, 313920, Note_on_c, 0, 78, 80
1, 314159, Note_on_c, 0, 78, 0
1, 314880, Note_on_c, 0, 76, 80
1, 315119, Note_on_c, 0, 76, 0
1, 315840, Note_on_c, 0, 79, 80
1, 316079, Note_on_c, 0, 79, 0
1, 316800, Note_on_c, 0, 78, 80
1, 317039, Note_on_c, 0, 78, 0
1, 320640, Note_on_c, 0, 83, 80
1, 320879, Note_on_c, 0, 83, 0
1, 321120, Note_on_c, 0, 83, 80
1, 321359, Note_on_c, 0, 83, 0
1, 321600, Note_on_c, 0, 83, 80
1, 321839, Note_on_c, 0, 83, 0
1, 322080, Note_on_c, 0, 83, 80
1, 322319, Note_on_c, 0, 83, 0
1, 322560, Note_on_c, 0, 83, 80
1, 322787, Note_on_c, 0, 83, 0
1, 322800, Note_on_c, 0, 83, 80
1, 323027, Note_on_c, 0, 83, 0
1, 323040, Note_on_c, 0, 83, 80
1, 323267, Note_on_c, 0, 83, 0
1, 323280, Note_on_c, 0, 83, 80
1, 323507, Note_on_c, 0, 83, 0
1, 323520, Note_on_c, 0, 83, 80
1, 323520, Note_on_c, 0, 95, 80
1, 323747, Note_on_c, 0, 83, 0
1, 323747, Note_on_c, 0, 95, 0
1, 323760, Note_on_c, 0, 83, 80
1, 323760, Note_on_c, 0, 95, 80
1, 323987, Note_on_c, 0, 83, 0
1, 323987, Note_on_c, 0, 95, 0
1, 324000, Note_on_c, 0, 83, 80
1, 324000, Note_on_c, 0, 95, 80
1, 324227, Note_on_c, 0, 83, 0
1, 324227, Note_on_c, 0, 95, 0
1, 324240, Note_on_c, 0, 83, 80
1, 324240, Note_on_c, 0, 95, 80
1, 324467, Note_on_c, 0, 83, 0
1, 324467, Note_on_c, 0, 95, 0
1, 324480, Note_on_c, 0, 83, 80
1, 324719, Note_on_c, 0, 83, 0
1, 325440, Note_on_c, 0, 82, 80
1, 326351, Note_on_c, 0, 82, 0
1, 326400, Note_on_c, 0, 83, 80
1, 326639, Note_on_c, 0, 83, 0
1, 327360, Note_on_c, 0, 84, 80
1, 328271, Note_on_c, 0, 84, 0
1, 328320, Note_on_c, 0, 83, 80
1, 328559, Note_on_c, 0, 83, 0
1, 329280, Note_on_c, 0, 79, 80
1, 329519, Note_on_c, 0, 79, 0
1, 330240, Note_on_c, 0, 76, 80
1, 330479, Note_on_c, 0, 76, 0
1, 331200, Note_on_c, 0, 79, 80
1, 331439, Note_on_c, 0, 79, 0
1, 332160, Note_on_c, 0, 83, 80
1, 334895, Note_on_c, 0, 83, 0
1, 335040, Note_on_c, 0, 79, 80
1, 335951, Note_on_c, 0, 79, 0
1, 347520, Note_on_c, 0, 66, 80
1, 347545, Note_on_c, 0, 66, 0
1, 347547, Note_on_c, 0, 67, 80
1, 347572, Note_on_c, 0, 67, 0
1, 347575, Note_on_c, 0, 68, 80
1, 347600, Note_on_c, 0, 68, 0
1, 347604, Note_on_c, 0, 69, 80
1, 347629, Note_on_c, 0, 69, 0
1, 347631, Note_on_c, 0, 70, 80
1, 347656, Note_on_c, 0, 70, 0
1, 347659, Note_on_c, 0, 71, 80
1, 347684, Note_on_c, 0, 71, 0
1, 347688, Note_on_c, 0, 72, 80
1, 347713, Note_on_c, 0, 72, 0
1, 347715, Note_on_c, 0, 73, 80
1, 347740, Note_on_c, 0, 73, 0
1, 347743, Note_on_c, 0, 74, 80
1, 347768, Note_on_c, 0, 74, 0
1, 347772, Note_on_c, 0, 75, 80
1, 347797, Note_on_c, 0, 75, 0
1, 347799, Note_on_c, 0, 76, 80
1, 347824, Note_on_c, 0, 76, 0
1, 347827, Note_on_c, 0, 77, 80
1, 347852, Note_on_c, 0, 77, 0
1, 347856, Note_on_c, 0, 78, 80
1, 347881, Note_on_c, 0, 78, 0
1, 347883, Note_on_c, 0, 79, 80
1, 347908, Note_on_c, 0, 79, 0
1, 347911, Note_on_c, 0, 80, 80
1, 347936, Note_on_c, 0, 80, 0
1, 347940, Note_on_c, 0, 81, 80
1, 347965, Note_on_c, 0, 81, 0
1, 347967, Note_on_c, 0, 82, 80
1, 347995, Note_on_c, 0, 82, 0
1, 348000, Note_on_c, 0, 83, 80
1, 348911, Note_on_c, 0, 83, 0
1, 351360, Note_on_c, 0, 84, 80
1, 352727, Note_on_c, 0, 84, 0
1, 352800, Note_on_c, 0, 83, 80
1, 353255, Note_on_c, 0, 83, 0
1, 353280, Note_on_c, 0, 84, 80
1, 354647, Note_on_c, 0, 84, 0
1, 354720, Note_on_c, 0, 83, 80
1, 355175, Note_on_c, 0, 83, 0
1, 355200, Note_on_c, 0, 84, 80
1, 355655, Note_on_c, 0, 84, 0
1, 356160, Note_on_c, 0, 83, 80
1, 356615, Note_on_c, 0, 83, 0
1, 357120, Note_on_c, 0, 84, 80
1, 357575, Note_on_c, 0, 84, 0
1, 358080, Note_on_c, 0, 86, 80
1, 358535, Note_on_c, 0, 86, 0
1, 359040, Note_on_c, 0, 84, 80
1, 359951, Note_on_c, 0, 84, 0
1, 360000, Note_on_c, 0, 81, 80
1, 360455, Note_on_c, 0, 81, 0
1, 360960, Note_on_c, 0, 76, 80
1, 361415, Note_on_c, 0, 76, 0
1, 361920, Note_on_c, 0, 81, 80
1, 362375, Note_on_c, 0, 81, 0
1, 362880, Note_on_c, 0, 84, 80
1, 365615, Note_on_c, 0, 84, 0
1, 365760, Note_on_c, 0, 81, 80
1, 366671, Note_on_c, 0, 81, 0
1, 366720, Note_on_c, 0, 83, 80
1, 367175, Note_on_c, 0, 83, 0
1, 367680, Note_on_c, 0, 79, 80
1, 368135, Note_on_c, 0, 79, 0
1, 368640, Note_on_c, 0, 76, 80
1, 369095, Note_on_c, 0, 76, 0
1, 369600, Note_on_c, 0, 79, 80
1, 370055, Note_on_c, 0, 79, 0
1, 370560, Note_on_c, 0, 83, 80
1, 373295, Note_on_c, 0, 83, 0
1, 373440, Note_on_c, 0, 79, 80
1, 374351, Note_on_c, 0, 79, 0
1, 374400, Note_on_c, 0, 78, 80
1, 374855, Note_on_c, 0, 78, 0
1, 375360, Note_on_c, 0, 79, 80
1, 375815, Note_on_c, 0, 79, 0
1, 376320, Note_on_c, 0, 81, 80
1, 376775, Note_on_c, 0, 81, 0
1, 377280, Note_on_c, 0, 78, 80
1, 377735, Note_on_c, 0, 78, 0
1, 378240, Note_on_c, 0, 83, 80
1, 378695, Note_on_c, 0, 83, 0
1, 382080, Note_on_c, 0, 84, 80
1, 383447, Note_on_c, 0, 84, 0
1, 383520, Note_on_c, 0, 83, 80
1, 383975, Note_on_c, 0, 83, 0
1, 384000, Note_on_c, 0, 84, 80
1, 385367, Note_on_c, 0, 84, 0
1, 385440, Note_on_c, 0, 83, 80
1, 385895, Note_on_c, 0, 83, 0
1, 385920, Note_on_c, 0, 84, 80
1, 386375, Note_on_c, 0, 84, 0
1, 386880, Note_on_c, 0, 83, 80
1, 387335, Note_on_c, 0, 83, 0
1, 387840, Note_on_c, 0, 84, 80
1, 388295, Note_on_c, 0, 84, 0
1, 388800, Note_on_c, 0, 86, 80
1, 389255, Note_on_c, 0, 86, 0
1, 389760, Note_on_c, 0, 83, 80
1, 390671, Note_on_c, 0, 83, 0
1, 390720, Note_on_c, 0, 79, 80
1, 391175, Note_on_c, 0, 79, 0
1, 391680, Note_on_c, 0, 76, 80
1, 392135, Note_on_c, 0, 76, 0
1, 392640, Note_on_c, 0, 79, 80
1, 393095, Note_on_c, 0, 79, 0
1, 393600, Note_on_c, 0, 83, 80
1, 396335, Note_on_c, 0, 83, 0
1, 396480, Note_on_c, 0, 79, 80
1, 397391, Note_on_c, 0, 79, 0
1, 412800, Tempo, 70588
1, 412800, Note_on_c, 0, 83, 80
1, 413039, Note_on_c, 0, 83, 0
1, 413280, Note_on_c, 0, 83, 80
1, 413519, Note_on_c, 0, 83, 0
1, 413760, Note_on_c, 0, 83, 80
1, 413999, Note_on_c, 0, 83, 0
1, 414240, Note_on_c, 0, 83, 80
1, 414479, Note_on_c, 0, 83, 0
1, 414720, Note_on_c, 0, 83, 80
1, 414947, Note_on_c, 0, 83, 0
1, 414960, Note_on_c, 0, 83, 80
1, 415187, Note_on_c, 0, 83, 0
1, 415200, Note_on_c, 0, 83, 80
1, 415427, Note_on_c, 0, 83, 0
1, 415440, Note_on_c, 0, 83, 80
1, 415667, Note_on_c, 0, 83, 0
1, 415680, Note_on_c, 0, 83, 80
1, 415680, Note_on_c, 0, 95, 80
1, 415907, Note_on_c, 0, 83, 0
1, 415907, Note_on_c, 0, 95, 0
1, 415920, Note_on_c, 0, 83, 80
1, 415920, Note_on_c, 0, 95, 80
1, 416147, Note_on_c, 0, 83, 0
1, 416147, Note_on_c, 0, 95, 0
1, 416160, Note_on_c, 0, 83, 80
1, 416160, Note_on_c, 0, 95, 80
1, 416387, Note_on_c, 0, 83, 0
1, 416387, Note_on_c, 0, 95, 0
1, 416400, Note_on_c, 0, 83, 80
1, 416400, Note_on_c, 0, 95, 80
1, 416627, Note_on_c, 0, 83, 0
1, 416627, Note_on_c, 0, 95, 0
1, 416640, Note_on_c, 0, 83, 80
1, 416867, Note_on_c, 0, 83, 0
1, 417600, Note_on_c, 0, 82, 80
1, 418511, Note_on_c, 0, 82, 0
1, 418560, Note_on_c, 0, 83, 80
1, 418799, Note_on_c, 0, 83, 0
1, 419520, Note_on_c, 0, 84, 80
1, 420431, Note_on_c, 0, 84, 0
1, 420480, Note_on_c, 0, 83, 80
1, 420719, Note_on_c, 0, 83, 0
1, 421440, Note_on_c, 0, 79, 80
1, 421679, Note_on_c, 0, 79, 0
1, 422400, Note_on_c, 0, 76, 80
1, 422639, Note_on_c, 0, 76, 0
1, 423360, Note_on_c, 0, 79, 80
1, 423599, Note_on_c, 0, 79, 0
1, 424320, Note_on_c, 0, 83, 80
1, 427055, Note_on_c, 0, 83, 0
1, 427200, Note_on_c, 0, 79, 80
1, 428111, Note_on_c, 0, 79, 0
1, 428160, Note_on_c, 0, 81, 80
1, 428399, Note_on_c, 0, 81, 0
1, 429120, Note_on_c, 0, 78, 80
1, 429359, Note_on_c, 0, 78, 0
1, 430080, Note_on_c, 0, 75, 80
1, 430319, Note_on_c, 0, 75, 0
1, 431040, Note_on_c, 0, 78, 80
1, 431279, Note_on_c, 0, 78, 0
1, 432000, Note_on_c, 0, 81, 80
1, 434735, Note_on_c, 0, 81, 0
1, 434880, Note_on_c, 0, 78, 80
1, 435791, Note_on_c, 0, 78, 0
1, 435840, Note_on_c, 0, 79, 80
1, 436079, Note_on_c, 0, 79, 0
1, 436800, Note_on_c, 0, 78, 80
1, 437039, Note_on_c, 0, 78, 0
1, 437760, Note_on_c, 0, 76, 80
1, 437999, Note_on_c, 0, 76, 0
1, 438720, Note_on_c, 0, 79, 80
1, 438959, Note_on_c, 0, 79, 0
1, 439680, Note_on_c, 0, 78, 80
1, 439919, Note_on_c, 0, 78, 0
1, 443520, Note_on_c, 0, 83, 80
1, 443759, Note_on_c, 0, 83, 0
1, 444000, Note_on_c, 0, 83, 80
1, 444239, Note_on_c, 0, 83, 0
1, 444480, Note_on_c, 0, 83, 80
1, 444719, Note_on_c, 0, 83, 0
1, 444960, Note_on_c, 0, 83, 80
1, 445199, Note_on_c, 0, 83, 0
1, 445440, Note_on_c, 0, 83, 80
1, 445667, Note_on_c, 0, 83, 0
1, 445680, Note_on_c, 0, 83, 80
1, 445907, Note_on_c, 0, 83, 0
1, 445920, Note_on_c, 0, 83, 80
1, 446147, Note_on_c, 0, 83, 0
1, 446160, Note_on_c, 0, 83, 80
1, 446387, Note_on_c, 0, 83, 0
1, 446400, Note_on_c, 0, 83, 80
1, 446400, Note_on_c, 0, 95, 80
1, 446627, Note_on_c, 0, 83, 0
1, 446627, Note_on_c, 0, 95, 0
1, 446640, Note_on_c, 0, 83, 80
1, 446640, Note_on_c, 0, 95, 80
1, 446867, Note_on_c, 0, 83, 0
1, 446867, Note_on_c, 0, 95, 0
1, 446880, Note_on_c, 0, 83, 80
1, 446880, Note_on_c, 0, 95, 80
1, 447107, Note_on_c, 0, 83, 0
1, 447107, Note_on_c, 0, 95, 0
1, 447120, Note_on_c, 0, 83, 80
1, 447120, Note_on_c, 0, 95, 80
1, 447347, Note_on_c, 0, 83, 0
1, 447347, Note_on_c, 0, 95, 0
1, 447360, Note_on_c, 0, 83, 80
1, 447599, Note_on_c, 0, 83, 0
1, 448320, Note_on_c, 0, 82, 80
1, 449231, Note_on_c, 0, 82, 0
1, 449280, Note_on_c, 0, 83, 80
1, 449519, Note_on_c, 0, 83, 0
1, 450240, Note_on_c, 0, 84, 80
1, 451151, Note_on_c, 0, 84, 0
1, 451200, Note_on_c, 0, 83, 80
1, 451439, Note_on_c, 0, 83, 0
1, 452160, Note_on_c, 0, 79, 80
1, 452399, Note_on_c, 0, 79, 0
1, 453120, Note_on_c, 0, 76, 80
1, 453359, Note_on_c, 0, 76, 0
1, 454080, Note_on_c, 0, 79, 80
1, 454319, Note_on_c, 0, 79, 0
1, 455040, Note_on_c, 0, 83, 80
1, 457775, Note_on_c, 0, 83, 0
1, 457920, Note_on_c, 0, 79, 80
1, 458831, Note_on_c, 0, 79, 0
1, 470400, Note_on_c, 0, 66, 80
1, 470425, Note_on_c, 0, 66, 0
1, 470427, Note_on_c, 0, 67, 80
1, 470452, Note_on_c, 0, 67, 0
1, 470455, Note_on_c, 0, 68, 80
1, 470480, Note_on_c, 0, 68, 0
1, 470484, Note_on_c, 0, 69, 80
1, 470509, Note_on_c, 0, 69, 0
1, 470511, Note_on_c, 0, 70, 80
1, 470536, Note_on_c, 0, 70, 0
1, 470539, Note_on_c, 0, 71, 80
1, 470564, Note_on_c, 0, 71, 0
1, 470568, Note_on_c, 0, 72, 80
1, 470593, Note_on_c, 0, 72, 0
1, 470595, Note_on_c, 0, 73, 80
1, 470620, Note_on_c, 0, 73, 0
1, 470623, Note_on_c, 0, 74, 80
1, 470648, Note_on_c, 0, 74, 0
1, 470652, Note_on_c, 0, 75, 80
1, 470677, Note_on_c, 0, 75, 0
1, 470679, Note_on_c, 0, 76, 80
1, 470704, Note_on_c, 0, 76, 0
1, 470707, Note_on_c, 0, 77, 80
1, 470732, Note_on_c, 0, 77, 0
1, 470736, Note_on_c, 0, 78, 80
1, 470761, Note_on_c, 0, 78, 0
1, 470763, Note_on_c, 0, 79, 80
1, 470788, Note_on_c, 0, 79, 0
1, 470791, Note_on_c, 0, 80, 80
1, 470816, Note_on_c, 0, 80, 0
1, 470820, Note_on_c, 0, 81, 80
1, 470845, Note_on_c, 0, 81, 0
1, 470847, Note_on_c, 0, 82, 80
1, 470875, Note_on_c, 0, 82, 0
1, 470880, Note_on_c, 0, 83, 80
1, 471791, Note_on_c, 0, 83, 0
1, 474240, Tempo, 66667
1, 474240, Note_on_c, 0, 83, 80
1, 474479, Note_on_c, 0, 83, 0
1, 474720, Note_on_c, 0, 83, 80
1, 474959, Note_on_c, 0, 83, 0
1, 475200, Note_on_c, 0, 83, 80
1, 475439, Note_on_c, 0, 83, 0
1, 475680, Note_on_c, 0, 83, 80
1, 475919, Note_on_c, 0, 83, 0
1, 476160, Note_on_c, 0, 83, 80
1, 476387, Note_on_c, 0, 83, 0
1, 476400, Note_on_c, 0, 83, 80
1, 476627, Note_on_c, 0, 83, 0
1, 476640, Note_on_c, 0, 83, 80
1, 476867, Note_on_c, 0, 83, 0
1, 476880, Note_on_c, 0, 83, 80
1, 477107, Note_on_c, 0, 83, 0
1, 477120, Note_on_c, 0, 83, 80
1, 477120, Note_on_c, 0, 95, 80
1, 477347, Note_on_c, 0, 83, 0
1, 477347, Note_on_c, 0, 95, 0
1, 477360, Note_on_c, 0, 83, 80
1, 477360, Note_on_c, 0, 95, 80
1, 477587, Note_on_c, 0, 83, 0
1, 477587, Note_on_c, 0, 95, 0
1, 477600, Note_on_c, 0, 83, 80
1, 477600, Note_on_c, 0, 95, 80
1, 477827, Note_on_c, 0, 83, 0
1, 477827, Note_on_c, 0, 95, 0
1, 477840, Note_on_c, 0, 83, 80
1, 477840, Note_on_c, 0, 95, 80
1, 478067, Note_on_c, 0, 83, 0
1, 478067, Note_on_c, 0, 95, 0
1, 478080, Note_on_c, 0, 83, 80
1, 478307, Note_on_c, 0, 83, 0
1, 479040, Note_on_c, 0, 82, 80
1, 479951, Note_on_c, 0, 82, 0
1, 480000, Note_on_c, 0, 83, 80
1, 480239, Note_on_c, 0, 83, 0
1, 480960, Note_on_c, 0, 84, 80
1, 481871, Note_on_c, 0, 84, 0
1, 481920, Note_on_c, 0, 83, 80
1, 482159, Note_on_c, 0, 83, 0
1, 482880, Note_on_c, 0, 79, 80
1, 483119, Note_on_c, 0, 79, 0
1, 483840, Note_on_c, 0, 76, 80
1, 484079, Note_on_c, 0, 76, 0
1, 484800, Note_on_c, 0, 79, 80
1, 485039, Note_on_c, 0, 79, 0
1, 485760, Note_on_c, 0, 83, 80
1, 488495, Note_on_c, 0, 83, 0
1, 488640, Note_on_c, 0, 79, 80
1, 489551, Note_on_c, 0, 79, 0
1, 489600, Note_on_c, 0, 81, 80
1, 489839, Note_on_c, 0, 81, 0
1, 490560, Note_on_c, 0, 78, 80
1, 490799, Note_on_c, 0, 78, 0
1, 491520, Note_on_c, 0, 75, 80
1, 491759, Note_on_c, 0, 75, 0
1, 492480, Note_on_c, 0, 78, 80
1, 492719, Note_on_c, 0, 78, 0
1, 493440, Note_on_c, 0, 81, 80
1, 496175, Note_on_c, 0, 81, 0
1, 496320, Note_on_c, 0, 78, 80
1, 497231, Note_on_c, 0, 78, 0
1, 497280, Note_on_c, 0, 79, 80
1, 497519, Note_on_c, 0, 79, 0
1, 498240, Note_on_c, 0, 78, 80
1, 498479, Note_on_c, 0, 78, 0
1, 499200, Note_on_c, 0, 76, 80
1, 499439, Note_on_c, 0, 76, 0
1, 500160, Note_on_c, 0, 79, 80
1, 500399, Note_on_c, 0, 79, 0
1, 501120, Note_on_c, 0, 78, 80
1, 501359, Note_on_c, 0, 78, 0
1, 504960, Note_on_c, 0, 83, 80
1, 505199, Note_on_c, 0, 83, 0
1, 505440, Note_on_c, 0, 83, 80
1, 505679, Note_on_c, 0, 83, 0
1, 505920, Note_on_c, 0, 83, 80
1, 506159, Note_on_c, 0, 83, 0
1, 506400, Note_on_c, 0, 83, 80
1, 506639, Note_on_c, 0, 83, 0
1, 506880, Note_on_c, 0, 83, 80
1, 507107, Note_on_c, 0, 83, 0
1, 507120, Note_on_c, 0, 83, 80
1, 507347, Note_on_c, 0, 83, 0
1, 507360, Note_on_c, 0, 83, 80
1, 507587, Note_on_c, 0, 83, 0
1, 507600, Note_on_c, 0, 83, 80
1, 507827, Note_on_c, 0, 83, 0
1, 507840, Note_on_c, 0, 83, 80
1, 507840, Note_on_c, 0, 95, 80
1, 508067, Note_on_c, 0, 83, 0
1, 508067, Note_on_c, 0, 95, 0
1, 508080, Note_on_c, 0, 83, 80
1, 508080, Note_on_c, 0, 95, 80
1, 508307, Note_on_c, 0, 83, 0
1, 508307, Note_on_c, 0, 95, 0
1, 508320, Note_on_c, 0, 83, 80
1, 508320, Note_on_c, 0, 95, 80
1, 508547, Note_on_c, 0, 83, 0
1, 508547, Note_on_c, 0, 95, 0
1, 508560, Note_on_c, 0, 83, 80
1, 508560, Note_on_c, 0, 95, 80
1, 508787, Note_on_c, 0, 83, 0
1, 508787, Note_on_c, 0, 95, 0
1, 508800, Note_on_c, 0, 83, 80
1, 509039, Note_on_c, 0, 83, 0
1, 509760, Note_on_c, 0, 82, 80
1, 510671, Note_on_c, 0, 82, 0
1, 510720, Note_on_c, 0, 83, 80
1, 510959, Note_on_c, 0, 83, 0
1, 511680, Note_on_c, 0, 84, 80
1, 512591, Note_on_c, 0, 84, 0
1, 512640, Note_on_c, 0, 83, 80
1, 512879, Note_on_c, 0, 83, 0
1, 513600, Note_on_c, 0, 79, 80
1, 513839, Note_on_c, 0, 79, 0
1, 514560, Note_on_c, 0, 76, 80
1, 514799, Note_on_c, 0, 76, 0
1, 515520, Note_on_c, 0, 79, 80
1, 515759, Note_on_c, 0, 79, 0
1, 516480, Note_on_c, 0, 83, 80
1, 519215, Note_on_c, 0, 83, 0
1, 519360, Note_on_c, 0, 79, 80
1, 520271, Note_on_c, 0, 79, 0
1, 531840, Note_on_c, 0, 66, 80
1, 531865, Note_on_c, 0, 66, 0
1, 531867, Note_on_c, 0, 67, 80
1, 531892, Note_on_c, 0, 67, 0
1, 531895, Note_on_c, 0, 68, 80
1, 531920, Note_on_c, 0, 68, 0
1, 531924, Note_on_c, 0, 69, 80
1, 531949, Note_on_c, 0, 69, 0
1, 531951, Note_on_c, 0, 70, 80
1, 531976, Note_on_c, 0, 70, 0
1, 531979, Note_on_c, 0, 71, 80
1, 532004, Note_on_c, 0, 71, 0
1, 532008, Note_on_c, 0, 72, 80
1, 532033, Note_on_c, 0, 72, 0
1, 532035, Note_on_c, 0, 73, 80
1, 532060, Note_on_c, 0, 73, 0
1, 532063, Note_on_c, 0, 74, 80
1, 532088, Note_on_c, 0, 74, 0
1, 532092, Note_on_c, 0, 75, 80
1, 532117, Note_on_c, 0, 75, 0
1, 532119, Note_on_c, 0, 76, 80
1, 532144, Note_on_c, 0, 76, 0
1, 532147, Note_on_c, 0, 77, 80
1, 532172, Note_on_c, 0, 77, 0
1, 532176, Note_on_c, 0, 78, 80
1, 532201, Note_on_c, 0, 78, 0
1, 532203, Note_on_c, 0, 79, 80
1, 532228, Note_on_c, 0, 79, 0
1, 532231, Note_on_c, 0, 80, 80
1, 532256, Note_on_c, 0, 80, 0
1, 532260, Note_on_c, 0, 81, 80
1, 532285, Note_on_c, 0, 81, 0
1, 532287, Note_on_c, 0, 82, 80
1, 532315, Note_on_c, 0, 82, 0
1, 532320, Note_on_c, 0, 83, 80
1, 533231, Note_on_c, 0, 83, 0
1, 552960, Note_on_c, 0, 71, 80
1, 552960, Note_on_c, 0, 73, 80
1, 552960, Note_on_c, 0, 74, 80
1, 552960, Note_on_c, 0, 76, 80
1, 552960, Note_on_c, 0, 78, 80
1, 552960, Note_on_c, 0, 81, 80
1, 552960, Note_on_c, 0, 85, 80
1, 552960, Note_on_c, 0, 87, 80
1, 552960, Note_on_c, 0, 89, 80
1, 552960, Note_on_c, 0, 92, 80
1, 552960, Note_on_c, 0, 94, 80
1, 552960, Note_on_c, 0, 96, 80
1, 552960, Note_on_c, 0, 99, 80
1, 552960, Note_on_c, 0, 101, 80
1, 552960, Note_on_c, 0, 102, 80
1, 552960, Note_on_c, 0, 104, 80
1, 552960, Note_on_c, 0, 106, 80
1, 552960, Note_on_c, 0, 108, 80
1, 552960, Note_on_c, 0, 111, 80
1, 552960, Note_on_c, 0, 114, 80
1, 554783, Note_on_c, 0, 71, 0
1, 554783, Note_on_c, 0, 73, 0
1, 554783, Note_on_c, 0, 74, 0
1, 554783, Note_on_c, 0, 76, 0
1, 554783, Note_on_c, 0, 78, 0
1, 554783, Note_on_c, 0, 81, 0
1, 554783, Note_on_c, 0, 85, 0
1, 554783, Note_on_c, 0, 87, 0
1, 554783, Note_on_c, 0, 89, 0
1, 554783, Note_on_c, 0, 92, 0
1, 554783, Note_on_c, 0, 94, 0
1, 554783, Note_on_c, 0, 96, 0
1, 554783, Note_on_c, 0, 99, 0
1, 554783, Note_on_c, 0, 101, 0
1, 554783, Note_on_c, 0, 102, 0
1, 554783, Note_on_c, 0, 104, 0
1, 554783, Note_on_c, 0, 106, 0
1, 554783, Note_on_c, 0, 108, 0
1, 554783, Note_on_c, 0, 111, 0
1, 554783, Note_on_c, 0, 114, 0
1, 554784, End_track
2, 0, Start_track
2, 0, Key_signature, 0, "major"
2, 0, Control_c, 1, 121, 0
2, 0, Program_c, 1, 68
2, 0, Control_c, 1, 7, 100
2, 0, Control_c, 1, 10, 64
2, 0, Control_c, 1, 91, 0
2, 0, Control_c, 1, 93, 0
2, 0, MIDI_port, 0
2, 121920, Note_on_c, 1, 69, 80
2, 123839, Note_on_c, 1, 69, 0
2, 123840, Note_on_c, 1, 66, 80
2, 124319, Note_on_c, 1, 66, 0
2, 124800, Note_on_c, 1, 71, 80
2, 125759, Note_on_c, 1, 71, 0
2, 125760, Note_on_c, 1, 69, 80
2, 126239, Note_on_c, 1, 69, 0
2, 126720, Note_on_c, 1, 67, 80
2, 126959, Note_on_c, 1, 67, 0
2, 127680, Note_on_c, 1, 66, 80
2, 127919, Note_on_c, 1, 66, 0
2, 128640, Note_on_c, 1, 64, 80
2, 129119, Note_on_c, 1, 64, 0
2, 130560, Note_on_c, 1, 59, 80
2, 131039, Note_on_c, 1, 59, 0
2, 132480, Note_on_c, 1, 64, 80
2, 133439, Note_on_c, 1, 64, 0
2, 136320, Note_on_c, 1, 84, 80
2, 137759, Note_on_c, 1, 84, 0
2, 137760, Note_on_c, 1, 83, 80
2, 138239, Note_on_c, 1, 83, 0
2, 138240, Note_on_c, 1, 84, 80
2, 139679, Note_on_c, 1, 84, 0
2, 139680, Note_on_c, 1, 83, 80
2, 140159, Note_on_c, 1, 83, 0
2, 140160, Note_on_c, 1, 84, 80
2, 140639, Note_on_c, 1, 84, 0
2, 141120, Note_on_c, 1, 83, 80
2, 141599, Note_on_c, 1, 83, 0
2, 142080, Note_on_c, 1, 84, 80
2, 142559, Note_on_c, 1, 84, 0
2, 143040, Note_on_c, 1, 86, 80
2, 143519, Note_on_c, 1, 86, 0
2, 144000, Note_on_c, 1, 84, 80
2, 144959, Note_on_c, 1, 84, 0
2, 144960, Note_on_c, 1, 81, 80
2, 145439, Note_on_c, 1, 81, 0
2, 145920, Note_on_c, 1, 76, 80
2, 146399, Note_on_c, 1, 76, 0
2, 146880, Note_on_c, 1, 81, 80
2, 147359, Note_on_c, 1, 81, 0
2, 147840, Note_on_c, 1, 84, 80
2, 150719, Note_on_c, 1, 84, 0
2, 150720, Note_on_c, 1, 81, 80
2, 151679, Note_on_c, 1, 81, 0
2, 151680, Note_on_c, 1, 83, 80
2, 152159, Note_on_c, 1, 83, 0
2, 152640, Note_on_c, 1, 79, 80
2, 153119, Note_on_c, 1, 79, 0
2, 153600, Note_on_c, 1, 76, 80
2, 154079, Note_on_c, 1, 76, 0
2, 154560, Note_on_c, 1, 79, 80
2, 155039, Note_on_c, 1, 79, 0
2, 155520, Note_on_c, 1, 83, 80
2, 158399, Note_on_c, 1, 83, 0
2, 158400, Note_on_c, 1, 79, 80
2, 159359, Note_on_c, 1, 79, 0
2, 159360, Note_on_c, 1, 78, 80
2, 159839, Note_on_c, 1, 78, 0
2, 160320, Note_on_c, 1, 79, 80
2, 160799, Note_on_c, 1, 79, 0
2, 161280, Note_on_c, 1, 81, 80
2, 161759, Note_on_c, 1, 81, 0
2, 162240, Note_on_c, 1, 78, 80
2, 162719, Note_on_c, 1, 78, 0
2, 163200, Note_on_c, 1, 83, 80
2, 163679, Note_on_c, 1, 83, 0
2, 167040, Note_on_c, 1, 84, 80
2, 168479, Note_on_c, 1, 84, 0
2, 168480, Note_on_c, 1, 83, 80
2, 168959, Note_on_c, 1, 83, 0
2, 168960, Note_on_c, 1, 84, 80
2, 170399, Note_on_c, 1, 84, 0
2, 170400, Note_on_c, 1, 83, 80
2, 170879, Note_on_c, 1, 83, 0
2, 170880, Note_on_c, 1, 84, 80
2, 171359, Note_on_c, 1, 84, 0
2, 171840, Note_on_c, 1, 83, 80
2, 172319, Note_on_c, 1, 83, 0
2, 172800, Note_on_c, 1, 84, 80
2, 173279, Note_on_c, 1, 84, 0
2, 173760, Note_on_c, 1, 86, 80
2, 174239, Note_on_c, 1, 86, 0
2, 174720, Note_on_c, 1, 83, 80
2, 175679, Note_on_c, 1, 83, 0
2, 175680, Note_on_c, 1, 79, 80
2, 176159, Note_on_c, 1, 79, 0
2, 176640, Note_on_c, 1, 76, 80
2, 177119, Note_on_c, 1, 76, 0
2, 177600, Note_on_c, 1, 79, 80
2, 178079, Note_on_c, 1, 79, 0
2, 178560, Note_on_c, 1, 83, 80
2, 181439, Note_on_c, 1, 83, 0
2, 181440, Note_on_c, 1, 79, 80
2, 182399, Note_on_c, 1, 79, 0
2, 183360, Note_on_c, 1, 69, 80
2, 185279, Note_on_c, 1, 69, 0
2, 185280, Note_on_c, 1, 66, 80
2, 185759, Note_on_c, 1, 66, 0
2, 186240, Note_on_c, 1, 71, 80
2, 187199, Note_on_c, 1, 71, 0
2, 187200, Note_on_c, 1, 69, 80
2, 187679, Note_on_c, 1, 69, 0
2, 188160, Note_on_c, 1, 67, 80
2, 188399, Note_on_c, 1, 67, 0
2, 189120, Note_on_c, 1, 66, 80
2, 189359, Note_on_c, 1, 66, 0
2, 190080, Note_on_c, 1, 64, 80
2, 190559, Note_on_c, 1, 64, 0
2, 192000, Note_on_c, 1, 59, 80
2, 192479, Note_on_c, 1, 59, 0
2, 193920, Note_on_c, 1, 64, 80
2, 194879, Note_on_c, 1, 64, 0
2, 199680, Note_on_c, 1, 83, 80
2, 199919, Note_on_c, 1, 83, 0
2, 199920, Note_on_c, 1, 83, 80
2, 200159, Note_on_c, 1, 83, 0
2, 200160, Note_on_c, 1, 83, 80
2, 200399, Note_on_c, 1, 83, 0
2, 200400, Note_on_c, 1, 83, 80
2, 200639, Note_on_c, 1, 83, 0
2, 200640, Note_on_c, 1, 83, 80
2, 200879, Note_on_c, 1, 83, 0
2, 200880, Note_on_c, 1, 83, 80
2, 201119, Note_on_c, 1, 83, 0
2, 201120, Note_on_c, 1, 83, 80
2, 201359, Note_on_c, 1, 83, 0
2, 201360, Note_on_c, 1, 83, 80
2, 201599, Note_on_c, 1, 83, 0
2, 230400, Note_on_c, 1, 83, 80
2, 230639, Note_on_c, 1, 83, 0
2, 230640, Note_on_c, 1, 83, 80
2, 230879, Note_on_c, 1, 83, 0
2, 230880, Note_on_c, 1, 83, 80
2, 231119, Note_on_c, 1, 83, 0
2, 231120, Note_on_c, 1, 83, 80
2, 231359, Note_on_c, 1, 83, 0
2, 231360, Note_on_c, 1, 83, 80
2, 231599, Note_on_c, 1, 83, 0
2, 231600, Note_on_c, 1, 83, 80
2, 231839, Note_on_c, 1, 83, 0
2, 231840, Note_on_c, 1, 83, 80
2, 232079, Note_on_c, 1, 83, 0
2, 232080, Note_on_c, 1, 83, 80
2, 232319, Note_on_c, 1, 83, 0
2, 244800, Note_on_c, 1, 69, 80
2, 246719, Note_on_c, 1, 69, 0
2, 246720, Note_on_c, 1, 66, 80
2, 247199, Note_on_c, 1, 66, 0
2, 247680, Note_on_c, 1, 71, 80
2, 248639, Note_on_c, 1, 71, 0
2, 248640, Note_on_c, 1, 69, 80
2, 249119, Note_on_c, 1, 69, 0
2, 249600, Note_on_c, 1, 67, 80
2, 249839, Note_on_c, 1, 67, 0
2, 250560, Note_on_c, 1, 66, 80
2, 250799, Note_on_c, 1, 66, 0
2, 251520, Note_on_c, 1, 64, 80
2, 251999, Note_on_c, 1, 64, 0
2, 253440, Note_on_c, 1, 59, 80
2, 253919, Note_on_c, 1, 59, 0
2, 255360, Note_on_c, 1, 64, 80
2, 256319, Note_on_c, 1, 64, 0
2, 291840, Note_on_c, 1, 83, 80
2, 292079, Note_on_c, 1, 83, 0
2, 292080, Note_on_c, 1, 83, 80
2, 292319, Note_on_c, 1, 83, 0
2, 292320, Note_on_c, 1, 83, 80
2, 292559, Note_on_c, 1, 83, 0
2, 292560, Note_on_c, 1, 83, 80
2, 292799, Note_on_c, 1, 83, 0
2, 292800, Note_on_c, 1, 83, 80
2, 293039, Note_on_c, 1, 83, 0
2, 293040, Note_on_c, 1, 83, 80
2, 293279, Note_on_c, 1, 83, 0
2, 293280, Note_on_c, 1, 83, 80
2, 293519, Note_on_c, 1, 83, 0
2, 293520, Note_on_c, 1, 83, 80
2, 293759, Note_on_c, 1, 83, 0
2, 322560, Note_on_c, 1, 83, 80
2, 322799, Note_on_c, 1, 83, 0
2, 322800, Note_on_c, 1, 83, 80
2, 323039, Note_on_c, 1, 83, 0
2, 323040, Note_on_c, 1, 83, 80
2, 323279, Note_on_c, 1, 83, 0
2, 323280, Note_on_c, 1, 83, 80
2, 323519, Note_on_c, 1, 83, 0
2, 323520, Note_on_c, 1, 83, 80
2, 323759, Note_on_c, 1, 83, 0
2, 323760, Note_on_c, 1, 83, 80
2, 323999, Note_on_c, 1, 83, 0
2, 324000, Note_on_c, 1, 83, 80
2, 324239, Note_on_c, 1, 83, 0
2, 324240, Note_on_c, 1, 83, 80
2, 324479, Note_on_c, 1, 83, 0
2, 336960, Note_on_c, 1, 69, 80
2, 338879, Note_on_c, 1, 69, 0
2, 338880, Note_on_c, 1, 66, 80
2, 339359, Note_on_c, 1, 66, 0
2, 339840, Note_on_c, 1, 71, 80
2, 340799, Note_on_c, 1, 71, 0
2, 340800, Note_on_c, 1, 69, 80
2, 341279, Note_on_c, 1, 69, 0
2, 341760, Note_on_c, 1, 67, 80
2, 341999, Note_on_c, 1, 67, 0
2, 342720, Note_on_c, 1, 66, 80
2, 342959, Note_on_c, 1, 66, 0
2, 343680, Note_on_c, 1, 64, 80
2, 344159, Note_on_c, 1, 64, 0
2, 345600, Note_on_c, 1, 59, 80
2, 346079, Note_on_c, 1, 59, 0
2, 347520, Note_on_c, 1, 64, 80
2, 348479, Note_on_c, 1, 64, 0
2, 351360, Note_on_c, 1, 84, 80
2, 352799, Note_on_c, 1, 84, 0
2, 352800, Note_on_c, 1, 83, 80
2, 353279, Note_on_c, 1, 83, 0
2, 353280, Note_on_c, 1, 84, 80
2, 354719, Note_on_c, 1, 84, 0
2, 354720, Note_on_c, 1, 83, 80
2, 355199, Note_on_c, 1, 83, 0
2, 355200, Note_on_c, 1, 84, 80
2, 355679, Note_on_c, 1, 84, 0
2, 356160, Note_on_c, 1, 83, 80
2, 356639, Note_on_c, 1, 83, 0
2, 357120, Note_on_c, 1, 84, 80
2, 357599, Note_on_c, 1, 84, 0
2, 358080, Note_on_c, 1, 86, 80
2, 358559, Note_on_c, 1, 86, 0
2, 359040, Note_on_c, 1, 84, 80
2, 359999, Note_on_c, 1, 84, 0
2, 360000, Note_on_c, 1, 81, 80
2, 360479, Note_on_c, 1, 81, 0
2, 360960, Note_on_c, 1, 76, 80
2, 361439, Note_on_c, 1, 76, 0
2, 361920, Note_on_c, 1, 81, 80
2, 362399, Note_on_c, 1, 81, 0
2, 362880, Note_on_c, 1, 84, 80
2, 365759, Note_on_c, 1, 84, 0
2, 365760, Note_on_c, 1, 81, 80
2, 366719, Note_on_c, 1, 81, 0
2, 366720, Note_on_c, 1, 83, 80
2, 367199, Note_on_c, 1, 83, 0
2, 367680, Note_on_c, 1, 79, 80
2, 368159, Note_on_c, 1, 79, 0
2, 368640, Note_on_c, 1, 76, 80
2, 369119, Note_on_c, 1, 76, 0
2, 369600, Note_on_c, 1, 79, 80
2, 370079, Note_on_c, 1, 79, 0
2, 370560, Note_on_c, 1, 83, 80
2, 373439, Note_on_c, 1, 83, 0
2, 373440, Note_on_c, 1, 79, 80
2, 374399, Note_on_c, 1, 79, 0
2, 374400, Note_on_c, 1, 78, 80
2, 374879, Note_on_c, 1, 78, 0
2, 375360, Note_on_c, 1, 79, 80
2, 375839, Note_on_c, 1, 79, 0
2, 376320, Note_on_c, 1, 81, 80
2, 376799, Note_on_c, 1, 81, 0
2, 377280, Note_on_c, 1, 78, 80
2, 377759, Note_on_c, 1, 78, 0
2, 378240, Note_on_c, 1, 83, 80
2, 378719, Note_on_c, 1, 83, 0
2, 382080, Note_on_c, 1, 84, 80
2, 383519, Note_on_c, 1, 84, 0
2, 383520, Note_on_c, 1, 83, 80
2, 383999, Note_on_c, 1, 83, 0
2, 384000, Note_on_c, 1, 84, 80
2, 385439, Note_on_c, 1, 84, 0
2, 385440, Note_on_c, 1, 83, 80
2, 385919, Note_on_c, 1, 83, 0
2, 385920, Note_on_c, 1, 84, 80
2, 386399, Note_on_c, 1, 84, 0
2, 386880, Note_on_c, 1, 83, 80
2, 387359, Note_on_c, 1, 83, 0
2, 387840, Note_on_c, 1, 84, 80
2, 388319, Note_on_c, 1, 84, 0
2, 388800, Note_on_c, 1, 86, 80
2, 389279, Note_on_c, 1, 86, 0
2, 389760, Note_on_c, 1, 83, 80
2, 390719, Note_on_c, 1, 83, 0
2, 390720, Note_on_c, 1, 79, 80
2, 391199, Note_on_c, 1, 79, 0
2, 391680, Note_on_c, 1, 76, 80
2, 392159, Note_on_c, 1, 76, 0
2, 392640, Note_on_c, 1, 79, 80
2, 393119, Note_on_c, 1, 79, 0
2, 393600, Note_on_c, 1, 83, 80
2, 396479, Note_on_c, 1, 83, 0
2, 396480, Note_on_c, 1, 79, 80
2, 397439, Note_on_c, 1, 79, 0
2, 398400, Note_on_c, 1, 69, 80
2, 400319, Note_on_c, 1, 69, 0
2, 400320, Note_on_c, 1, 66, 80
2, 400799, Note_on_c, 1, 66, 0
2, 401280, Note_on_c, 1, 71, 80
2, 402239, Note_on_c, 1, 71, 0
2, 402240, Note_on_c, 1, 69, 80
2, 402719, Note_on_c, 1, 69, 0
2, 403200, Note_on_c, 1, 67, 80
2, 403439, Note_on_c, 1, 67, 0
2, 404160, Note_on_c, 1, 66, 80
2, 404399, Note_on_c, 1, 66, 0
2, 405120, Note_on_c, 1, 64, 80
2, 405599, Note_on_c, 1, 64, 0
2, 407040, Note_on_c, 1, 59, 80
2, 407519, Note_on_c, 1, 59, 0
2, 408960, Note_on_c, 1, 64, 80
2, 409919, Note_on_c, 1, 64, 0
2, 414720, Note_on_c, 1, 83, 80
2, 414959, Note_on_c, 1, 83, 0
2, 414960, Note_on_c, 1, 83, 80
2, 415199, Note_on_c, 1, 83, 0
2, 415200, Note_on_c, 1, 83, 80
2, 415439, Note_on_c, 1, 83, 0
2, 415440, Note_on_c, 1, 83, 80
2, 415679, Note_on_c, 1, 83, 0
2, 415680, Note_on_c, 1, 83, 80
2, 415919, Note_on_c, 1, 83, 0
2, 415920, Note_on_c, 1, 83, 80
2, 416159, Note_on_c, 1, 83, 0
2, 416160, Note_on_c, 1, 83, 80
2, 416399, Note_on_c, 1, 83, 0
2, 416400, Note_on_c, 1, 83, 80
2, 416639, Note_on_c, 1, 83, 0
2, 445440, Note_on_c, 1, 83, 80
2, 445679, Note_on_c, 1, 83, 0
2, 445680, Note_on_c, 1, 83, 80
2, 445919, Note_on_c, 1, 83, 0
2, 445920, Note_on_c, 1, 83, 80
2, 446159, Note_on_c, 1, 83, 0
2, 446160, Note_on_c, 1, 83, 80
2, 446399, Note_on_c, 1, 83, 0
2, 446400, Note_on_c, 1, 83, 80
2, 446639, Note_on_c, 1, 83, 0
2, 446640, Note_on_c, 1, 83, 80
2, 446879, Note_on_c, 1, 83, 0
2, 446880, Note_on_c, 1, 83, 80
2, 447119, Note_on_c, 1, 83, 0
2, 447120, Note_on_c, 1, 83, 80
2, 447359, Note_on_c, 1, 83, 0
2, 459840, Note_on_c, 1, 69, 80
2, 461759, Note_on_c, 1, 69, 0
2, 461760, Note_on_c, 1, 66, 80
2, 462239, Note_on_c, 1, 66, 0
2, 462720, Note_on_c, 1, 71, 80
2, 463679, Note_on_c, 1, 71, 0
2, 463680, Note_on_c, 1, 69, 80
2, 464159, Note_on_c, 1, 69, 0
2, 464640, Note_on_c, 1, 67, 80
2, 464879, Note_on_c, 1, 67, 0
2, 465600, Note_on_c, 1, 66, 80
2, 465839, Note_on_c, 1, 66, 0
2, 466560, Note_on_c, 1, 64, 80
2, 467039, Note_on_c, 1, 64, 0
2, 468480, Note_on_c, 1, 59, 80
2, 468959, Note_on_c, 1, 59, 0
2, 470400, Note_on_c, 1, 64, 80
2, 471359, Note_on_c, 1, 64, 0
2, 476160, Note_on_c, 1, 83, 80
2, 476399, Note_on_c, 1, 83, 0
2, 476400, Note_on_c, 1, 83, 80
2, 476639, Note_on_c, 1, 83, 0
2, 476640, Note_on_c, 1, 83, 80
2, 476879, Note_on_c, 1, 83, 0
2, 476880, Note_on_c, 1, 83, 80
2, 477119, Note_on_c, 1, 83, 0
2, 477120, Note_on_c, 1, 83, 80
2, 477359, Note_on_c, 1, 83, 0
2, 477360, Note_on_c, 1, 83, 80
2, 477599, Note_on_c, 1, 83, 0
2, 477600, Note_on_c, 1, 83, 80
2, 477839, Note_on_c, 1, 83, 0
2, 477840, Note_on_c, 1, 83, 80
2, 478079, Note_on_c, 1, 83, 0
2, 506880, Note_on_c, 1, 83, 80
2, 507119, Note_on_c, 1, 83, 0
2, 507120, Note_on_c, 1, 83, 80
2, 507359, Note_on_c, 1, 83, 0
2, 507360, Note_on_c, 1, 83, 80
2, 507599, Note_on_c, 1, 83, 0
2, 507600, Note_on_c, 1, 83, 80
2, 507839, Note_on_c, 1, 83, 0
2, 507840, Note_on_c, 1, 83, 80
2, 508079, Note_on_c, 1, 83, 0
2, 508080, Note_on_c, 1, 83, 80
2, 508319, Note_on_c, 1, 83, 0
2, 508320, Note_on_c, 1, 83, 80
2, 508559, Note_on_c, 1, 83, 0
2, 508560, Note_on_c, 1, 83, 80
2, 508799, Note_on_c, 1, 83, 0
2, 521280, Note_on_c, 1, 69, 80
2, 523199, Note_on_c, 1, 69, 0
2, 523200, Note_on_c, 1, 66, 80
2, 523679, Note_on_c, 1, 66, 0
2, 524160, Note_on_c, 1, 71, 80
2, 525119, Note_on_c, 1, 71, 0
2, 525120, Note_on_c, 1, 69, 80
2, 525599, Note_on_c, 1, 69, 0
2, 526080, Note_on_c, 1, 67, 80
2, 526319, Note_on_c, 1, 67, 0
2, 527040, Note_on_c, 1, 66, 80
2, 527279, Note_on_c, 1, 66, 0
2, 528000, Note_on_c, 1, 64, 80
2, 528479, Note_on_c, 1, 64, 0
2, 529920, Note_on_c, 1, 59, 80
2, 530399, Note_on_c, 1, 59, 0
2, 531840, Note_on_c, 1, 64, 80
2, 532799, Note_on_c, 1, 64, 0
2, 536640, Note_on_c, 1, 69, 80
2, 538559, Note_on_c, 1, 69, 0
2, 538560, Note_on_c, 1, 66, 80
2, 539039, Note_on_c, 1, 66, 0
2, 539520, Note_on_c, 1, 71, 80
2, 540479, Note_on_c, 1, 71, 0
2, 540480, Note_on_c, 1, 69, 80
2, 540959, Note_on_c, 1, 69, 0
2, 541440, Note_on_c, 1, 67, 80
2, 541679, Note_on_c, 1, 67, 0
2, 542400, Note_on_c, 1, 66, 80
2, 542639, Note_on_c, 1, 66, 0
2, 543360, Note_on_c, 1, 64, 80
2, 543839, Note_on_c, 1, 64, 0
2, 545280, Note_on_c, 1, 59, 80
2, 545759, Note_on_c, 1, 59, 0
2, 552960, Note_on_c, 1, 22, 80
2, 552960, Note_on_c, 1, 24, 80
2, 552960, Note_on_c, 1, 25, 80
2, 552960, Note_on_c, 1, 27, 80
2, 552960, Note_on_c, 1, 29, 80
2, 552960, Note_on_c, 1, 32, 80
2, 552960, Note_on_c, 1, 36, 80
2, 552960, Note_on_c, 1, 38, 80
2, 552960, Note_on_c, 1, 40, 80
2, 552960, Note_on_c, 1, 43, 80
2, 552960, Note_on_c, 1, 45, 80
2, 552960, Note_on_c, 1, 47, 80
2, 552960, Note_on_c, 1, 50, 80
2, 552960, Note_on_c, 1, 52, 80
2, 552960, Note_on_c, 1, 53, 80
2, 552960, Note_on_c, 1, 55, 80
2, 552960, Note_on_c, 1, 57, 80
2, 552960, Note_on_c, 1, 59, 80
2, 552960, Note_on_c, 1, 62, 80
2, 552960, Note_on_c, 1, 65, 80
2, 553919, Note_on_c, 1, 22, 0
2, 553919, Note_on_c, 1, 24, 0
2, 553919, Note_on_c, 1, 25, 0
2, 553919, Note_on_c, 1, 27, 0
2, 553919, Note_on_c, 1, 29, 0
2, 553919, Note_on_c, 1, 32, 0
2, 553919, Note_on_c, 1, 36, 0
2, 553919, Note_on_c, 1, 38, 0
2, 553919, Note_on_c, 1, 40, 0
2, 553919, Note_on_c, 1, 43, 0
2, 553919, Note_on_c, 1, 45, 0
2, 553919, Note_on_c, 1, 47, 0
2, 553919, Note_on_c, 1, 50, 0
2, 553919, Note_on_c, 1, 52, 0
2, 553919, Note_on_c, 1, 53, 0
2, 553919, Note_on_c, 1, 55, 0
2, 553919, Note_on_c, 1, 57, 0
2, 553919, Note_on_c, 1, 59, 0
2, 553919, Note_on_c, 1, 62, 0
2, 553919, Note_on_c, 1, 65, 0
2, 554880, Note_on_c, 1, 22, 80
2, 554880, Note_on_c, 1, 24, 80
2, 554880, Note_on_c, 1, 25, 80
2, 554880, Note_on_c, 1, 27, 80
2, 554880, Note_on_c, 1, 29, 80
2, 554880, Note_on_c, 1, 32, 80
2, 554880, Note_on_c, 1, 36, 80
2, 554880, Note_on_c, 1, 38, 80
2, 554880, Note_on_c, 1, 40, 80
2, 554880, Note_on_c, 1, 43, 80
2, 554880, Note_on_c, 1, 45, 80
2, 554880, Note_on_c, 1, 47, 80
2, 554880, Note_on_c, 1, 50, 80
2, 554880, Note_on_c, 1, 52, 80
2, 554880, Note_on_c, 1, 53, 80
2, 554880, Note_on_c, 1, 55, 80
2, 554880, Note_on_c, 1, 57, 80
2, 554880, Note_on_c, 1, 59, 80
2, 554880, Note_on_c, 1, 62, 80
2, 554880, Note_on_c, 1, 65, 80
2, 555839, Note_on_c, 1, 22, 0
2, 555839, Note_on_c, 1, 24, 0
2, 555839, Note_on_c, 1, 25, 0
2, 555839, Note_on_c, 1, 27, 0
2, 555839, Note_on_c, 1, 29, 0
2, 555839, Note_on_c, 1, 32, 0
2, 555839, Note_on_c, 1, 36, 0
2, 555839, Note_on_c, 1, 38, 0
2, 555839, Note_on_c, 1, 40, 0
2, 555839, Note_on_c, 1, 43, 0
2, 555839, Note_on_c, 1, 45, 0
2, 555839, Note_on_c, 1, 47, 0
2, 555839, Note_on_c, 1, 50, 0
2, 555839, Note_on_c, 1, 52, 0
2, 555839, Note_on_c, 1, 53, 0
2, 555839, Note_on_c, 1, 55, 0
2, 555839, Note_on_c, 1, 57, 0
2, 555839, Note_on_c, 1, 59, 0
2, 555839, Note_on_c, 1, 62, 0
2, 555839, Note_on_c, 1, 65, 0
2, 555840, End_track
3, 0, Start_track
3, 0, Key_signature, 0, "major"
3, 0, Control_c, 2, 121, 0
3, 0, Program_c, 2, 71
3, 0, Control_c, 2, 7, 100
3, 0, Control_c, 2, 10, 64
3, 0, Control_c, 2, 91, 0
3, 0, Control_c, 2, 93, 0
3, 0, MIDI_port, 0
3, 74880, Note_on_c, 2, 71, 80
3, 75119, Note_on_c, 2, 71, 0
3, 75360, Note_on_c, 2, 71, 80
3, 75599, Note_on_c, 2, 71, 0
3, 75840, Note_on_c, 2, 71, 80
3, 76079, Note_on_c, 2, 71, 0
3, 76320, Note_on_c, 2, 71, 80
3, 76559, Note_on_c, 2, 71, 0
3, 76800, Note_on_c, 2, 71, 80
3, 77039, Note_on_c, 2, 71, 0
3, 77280, Note_on_c, 2, 71, 80
3, 77519, Note_on_c, 2, 71, 0
3, 77760, Note_on_c, 2, 71, 80
3, 77999, Note_on_c, 2, 71, 0
3, 78240, Note_on_c, 2, 71, 80
3, 78479, Note_on_c, 2, 71, 0
3, 78720, Note_on_c, 2, 71, 80
3, 78959, Note_on_c, 2, 71, 0
3, 79680, Note_on_c, 2, 70, 80
3, 80639, Note_on_c, 2, 70, 0
3, 80640, Note_on_c, 2, 71, 80
3, 80879, Note_on_c, 2, 71, 0
3, 81600, Note_on_c, 2, 72, 80
3, 82559, Note_on_c, 2, 72, 0
3, 82560, Note_on_c, 2, 71, 80
3, 82799, Note_on_c, 2, 71, 0
3, 83520, Note_on_c, 2, 67, 80
3, 83759, Note_on_c, 2, 67, 0
3, 84480, Note_on_c, 2, 64, 80
3, 84719, Note_on_c, 2, 64, 0
3, 85440, Note_on_c, 2, 67, 80
3, 85679, Note_on_c, 2, 67, 0
3, 86400, Note_on_c, 2, 71, 80
3, 89279, Note_on_c, 2, 71, 0
3, 89280, Note_on_c, 2, 67, 80
3, 90239, Note_on_c, 2, 67, 0
3, 90240, Note_on_c, 2, 69, 80
3, 90479, Note_on_c, 2, 69, 0
3, 91200, Note_on_c, 2, 66, 80
3, 91439, Note_on_c, 2, 66, 0
3, 92160, Note_on_c, 2, 63, 80
3, 92399, Note_on_c, 2, 63, 0
3, 93120, Note_on_c, 2, 66, 80
3, 93359, Note_on_c, 2, 66, 0
3, 94080, Note_on_c, 2, 69, 80
3, 96959, Note_on_c, 2, 69, 0
3, 96960, Note_on_c, 2, 66, 80
3, 97919, Note_on_c, 2, 66, 0
3, 97920, Note_on_c, 2, 67, 80
3, 98159, Note_on_c, 2, 67, 0
3, 98880, Note_on_c, 2, 66, 80
3, 99119, Note_on_c, 2, 66, 0
3, 99840, Note_on_c, 2, 64, 80
3, 100079, Note_on_c, 2, 64, 0
3, 100800, Note_on_c, 2, 67, 80
3, 101039, Note_on_c, 2, 67, 0
3, 101760, Note_on_c, 2, 66, 80
3, 101999, Note_on_c, 2, 66, 0
3, 105600, Note_on_c, 2, 71, 80
3, 105839, Note_on_c, 2, 71, 0
3, 106080, Note_on_c, 2, 71, 80
3, 106319, Note_on_c, 2, 71, 0
3, 106560, Note_on_c, 2, 71, 80
3, 106799, Note_on_c, 2, 71, 0
3, 107040, Note_on_c, 2, 71, 80
3, 107279, Note_on_c, 2, 71, 0
3, 107520, Note_on_c, 2, 71, 80
3, 107759, Note_on_c, 2, 71, 0
3, 108000, Note_on_c, 2, 71, 80
3, 108239, Note_on_c, 2, 71, 0
3, 108480, Note_on_c, 2, 71, 80
3, 108719, Note_on_c, 2, 71, 0
3, 108960, Note_on_c, 2, 71, 80
3, 109199, Note_on_c, 2, 71, 0
3, 109440, Note_on_c, 2, 71, 80
3, 109679, Note_on_c, 2, 71, 0
3, 110400, Note_on_c, 2, 70, 80
3, 111359, Note_on_c, 2, 70, 0
3, 111360, Note_on_c, 2, 71, 80
3, 111599, Note_on_c, 2, 71, 0
3, 112320, Note_on_c, 2, 72, 80
3, 113279, Note_on_c, 2, 72, 0
3, 113280, Note_on_c, 2, 71, 80
3, 113519, Note_on_c, 2, 71, 0
3, 114240, Note_on_c, 2, 67, 80
3, 114479, Note_on_c, 2, 67, 0
3, 115200, Note_on_c, 2, 64, 80
3, 115439, Note_on_c, 2, 64, 0
3, 116160, Note_on_c, 2, 67, 80
3, 116399, Note_on_c, 2, 67, 0
3, 117120, Note_on_c, 2, 71, 80
3, 119999, Note_on_c, 2, 71, 0
3, 120000, Note_on_c, 2, 67, 80
3, 120479, Note_on_c, 2, 67, 0
3, 121920, Note_on_c, 2, 69, 80
3, 123839, Note_on_c, 2, 69, 0
3, 123840, Note_on_c, 2, 66, 80
3, 124319, Note_on_c, 2, 66, 0
3, 124800, Note_on_c, 2, 71, 80
3, 125759, Note_on_c, 2, 71, 0
3, 125760, Note_on_c, 2, 69, 80
3, 126239, Note_on_c, 2, 69, 0
3, 126720, Note_on_c, 2, 67, 80
3, 126959, Note_on_c, 2, 67, 0
3, 127680, Note_on_c, 2, 66, 80
3, 127919, Note_on_c, 2, 66, 0
3, 128640, Note_on_c, 2, 64, 80
3, 129119, Note_on_c, 2, 64, 0
3, 130560, Note_on_c, 2, 59, 80
3, 131039, Note_on_c, 2, 59, 0
3, 132480, Note_on_c, 2, 64, 80
3, 133439, Note_on_c, 2, 64, 0
3, 150720, Note_on_c, 2, 81, 80
3, 151679, Note_on_c, 2, 81, 0
3, 151680, Note_on_c, 2, 83, 80
3, 152159, Note_on_c, 2, 83, 0
3, 152640, Note_on_c, 2, 79, 80
3, 153119, Note_on_c, 2, 79, 0
3, 153600, Note_on_c, 2, 76, 80
3, 154079, Note_on_c, 2, 76, 0
3, 154560, Note_on_c, 2, 79, 80
3, 155039, Note_on_c, 2, 79, 0
3, 155520, Note_on_c, 2, 83, 80
3, 158399, Note_on_c, 2, 83, 0
3, 158400, Note_on_c, 2, 79, 80
3, 159359, Note_on_c, 2, 79, 0
3, 159360, Note_on_c, 2, 78, 80
3, 159839, Note_on_c, 2, 78, 0
3, 160320, Note_on_c, 2, 79, 80
3, 160799, Note_on_c, 2, 79, 0
3, 161280, Note_on_c, 2, 81, 80
3, 161759, Note_on_c, 2, 81, 0
3, 162240, Note_on_c, 2, 78, 80
3, 162719, Note_on_c, 2, 78, 0
3, 163200, Note_on_c, 2, 83, 80
3, 163679, Note_on_c, 2, 83, 0
3, 181440, Note_on_c, 2, 79, 80
3, 182399, Note_on_c, 2, 79, 0
3, 183360, Note_on_c, 2, 69, 80
3, 185279, Note_on_c, 2, 69, 0
3, 185280, Note_on_c, 2, 66, 80
3, 185759, Note_on_c, 2, 66, 0
3, 186240, Note_on_c, 2, 71, 80
3, 187199, Note_on_c, 2, 71, 0
3, 187200, Note_on_c, 2, 69, 80
3, 187679, Note_on_c, 2, 69, 0
3, 188160, Note_on_c, 2, 67, 80
3, 188399, Note_on_c, 2, 67, 0
3, 189120, Note_on_c, 2, 66, 80
3, 189359, Note_on_c, 2, 66, 0
3, 190080, Note_on_c, 2, 64, 80
3, 190559, Note_on_c, 2, 64, 0
3, 192000, Note_on_c, 2, 59, 80
3, 192479, Note_on_c, 2, 59, 0
3, 193920, Note_on_c, 2, 64, 80
3, 194879, Note_on_c, 2, 64, 0
3, 197760, Note_on_c, 2, 71, 80
3, 197999, Note_on_c, 2, 71, 0
3, 198240, Note_on_c, 2, 71, 80
3, 198479, Note_on_c, 2, 71, 0
3, 198720, Note_on_c, 2, 71, 80
3, 198959, Note_on_c, 2, 71, 0
3, 199200, Note_on_c, 2, 71, 80
3, 199439, Note_on_c, 2, 71, 0
3, 199680, Note_on_c, 2, 71, 80
3, 199919, Note_on_c, 2, 71, 0
3, 199920, Note_on_c, 2, 71, 80
3, 200159, Note_on_c, 2, 71, 0
3, 200160, Note_on_c, 2, 71, 80
3, 200399, Note_on_c, 2, 71, 0
3, 200400, Note_on_c, 2, 71, 80
3, 200639, Note_on_c, 2, 71, 0
3, 200640, Note_on_c, 2, 71, 80
3, 200640, Note_on_c, 2, 83, 80
3, 200879, Note_on_c, 2, 71, 0
3, 200879, Note_on_c, 2, 83, 0
3, 200880, Note_on_c, 2, 71, 80
3, 200880, Note_on_c, 2, 83, 80
3, 201119, Note_on_c, 2, 71, 0
3, 201119, Note_on_c, 2, 83, 0
3, 201120, Note_on_c, 2, 71, 80
3, 201120, Note_on_c, 2, 83, 80
3, 201359, Note_on_c, 2, 71, 0
3, 201359, Note_on_c, 2, 83, 0
3, 201360, Note_on_c, 2, 71, 80
3, 201360, Note_on_c, 2, 83, 80
3, 201599, Note_on_c, 2, 71, 0
3, 201599, Note_on_c, 2, 83, 0
3, 201600, Note_on_c, 2, 71, 80
3, 201839, Note_on_c, 2, 71, 0
3, 202560, Note_on_c, 2, 70, 80
3, 203519, Note_on_c, 2, 70, 0
3, 203520, Note_on_c, 2, 71, 80
3, 203759, Note_on_c, 2, 71, 0
3, 204480, Note_on_c, 2, 72, 80
3, 205439, Note_on_c, 2, 72, 0
3, 205440, Note_on_c, 2, 71, 80
3, 205679, Note_on_c, 2, 71, 0
3, 206400, Note_on_c, 2, 67, 80
3, 206639, Note_on_c, 2, 67, 0
3, 207360, Note_on_c, 2, 64, 80
3, 207599, Note_on_c, 2, 64, 0
3, 208320, Note_on_c, 2, 67, 80
3, 208559, Note_on_c, 2, 67, 0
3, 209280, Note_on_c, 2, 71, 80
3, 212159, Note_on_c, 2, 71, 0
3, 212160, Note_on_c, 2, 67, 80
3, 213119, Note_on_c, 2, 67, 0
3, 213120, Note_on_c, 2, 69, 80
3, 213359, Note_on_c, 2, 69, 0
3, 214080, Note_on_c, 2, 66, 80
3, 214319, Note_on_c, 2, 66, 0
3, 215040, Note_on_c, 2, 63, 80
3, 215279, Note_on_c, 2, 63, 0
3, 216000, Note_on_c, 2, 66, 80
3, 216239, Note_on_c, 2, 66, 0
3, 216960, Note_on_c, 2, 69, 80
3, 219839, Note_on_c, 2, 69, 0
3, 219840, Note_on_c, 2, 66, 80
3, 220799, Note_on_c, 2, 66, 0
3, 220800, Note_on_c, 2, 67, 80
3, 221039, Note_on_c, 2, 67, 0
3, 221760, Note_on_c, 2, 66, 80
3, 221999, Note_on_c, 2, 66, 0
3, 222720, Note_on_c, 2, 64, 80
3, 222959, Note_on_c, 2, 64, 0
3, 223680, Note_on_c, 2, 67, 80
3, 223919, Note_on_c, 2, 67, 0
3, 224640, Note_on_c, 2, 66, 80
3, 224879, Note_on_c, 2, 66, 0
3, 228480, Note_on_c, 2, 71, 80
3, 228719, Note_on_c, 2, 71, 0
3, 228960, Note_on_c, 2, 71, 80
3, 229199, Note_on_c, 2, 71, 0
3, 229440, Note_on_c, 2, 71, 80
3, 229679, Note_on_c, 2, 71, 0
3, 229920, Note_on_c, 2, 71, 80
3, 230159, Note_on_c, 2, 71, 0
3, 230400, Note_on_c, 2, 71, 80
3, 230639, Note_on_c, 2, 71, 0
3, 230640, Note_on_c, 2, 71, 80
3, 230879, Note_on_c, 2, 71, 0
3, 230880, Note_on_c, 2, 71, 80
3, 231119, Note_on_c, 2, 71, 0
3, 231120, Note_on_c, 2, 71, 80
3, 231359, Note_on_c, 2, 71, 0
3, 231360, Note_on_c, 2, 71, 80
3, 231360, Note_on_c, 2, 83, 80
3, 231599, Note_on_c, 2, 71, 0
3, 231599, Note_on_c, 2, 83, 0
3, 231600, Note_on_c, 2, 71, 80
3, 231600, Note_on_c, 2, 83, 80
3, 231839, Note_on_c, 2, 71, 0
3, 231839, Note_on_c, 2, 83, 0
3, 231840, Note_on_c, 2, 71, 80
3, 231840, Note_on_c, 2, 83, 80
3, 232079, Note_on_c, 2, 71, 0
3, 232079, Note_on_c, 2, 83, 0
3, 232080, Note_on_c, 2, 71, 80
3, 232080, Note_on_c, 2, 83, 80
3, 232319, Note_on_c, 2, 71, 0
3, 232319, Note_on_c, 2, 83, 0
3, 232320, Note_on_c, 2, 71, 80
3, 232559, Note_on_c, 2, 71, 0
3, 233280, Note_on_c, 2, 70, 80
3, 234239, Note_on_c, 2, 70, 0
3, 234240, Note_on_c, 2, 71, 80
3, 234479, Note_on_c, 2, 71, 0
3, 235200, Note_on_c, 2, 72, 80
3, 236159, Note_on_c, 2, 72, 0
3, 236160, Note_on_c, 2, 71, 80
3, 236399, Note_on_c, 2, 71, 0
3, 237120, Note_on_c, 2, 67, 80
3, 237359, Note_on_c, 2, 67, 0
3, 238080, Note_on_c, 2, 64, 80
3, 238319, Note_on_c, 2, 64, 0
3, 239040, Note_on_c, 2, 67, 80
3, 239279, Note_on_c, 2, 67, 0
3, 240000, Note_on_c, 2, 71, 80
3, 242879, Note_on_c, 2, 71, 0
3, 242880, Note_on_c, 2, 67, 80
3, 243359, Note_on_c, 2, 67, 0
3, 244800, Note_on_c, 2, 69, 80
3, 246719, Note_on_c, 2, 69, 0
3, 246720, Note_on_c, 2, 66, 80
3, 247199, Note_on_c, 2, 66, 0
3, 247680, Note_on_c, 2, 71, 80
3, 248639, Note_on_c, 2, 71, 0
3, 248640, Note_on_c, 2, 69, 80
3, 249119, Note_on_c, 2, 69, 0
3, 249600, Note_on_c, 2, 67, 80
3, 249839, Note_on_c, 2, 67, 0
3, 250560, Note_on_c, 2, 66, 80
3, 250799, Note_on_c, 2, 66, 0
3, 251520, Note_on_c, 2, 64, 80
3, 251999, Note_on_c, 2, 64, 0
3, 253440, Note_on_c, 2, 59, 80
3, 253919, Note_on_c, 2, 59, 0
3, 255360, Note_on_c, 2, 64, 80
3, 256319, Note_on_c, 2, 64, 0
3, 289920, Note_on_c, 2, 71, 80
3, 290159, Note_on_c, 2, 71, 0
3, 290400, Note_on_c, 2, 71, 80
3, 290639, Note_on_c, 2, 71, 0
3, 290880, Note_on_c, 2, 71, 80
3, 291119, Note_on_c, 2, 71, 0
3, 291360, Note_on_c, 2, 71, 80
3, 291599, Note_on_c, 2, 71, 0
3, 291840, Note_on_c, 2, 71, 80
3, 292079, Note_on_c, 2, 71, 0
3, 292080, Note_on_c, 2, 71, 80
3, 292319, Note_on_c, 2, 71, 0
3, 292320, Note_on_c, 2, 71, 80
3, 292559, Note_on_c, 2, 71, 0
3, 292560, Note_on_c, 2, 71, 80
3, 292799, Note_on_c, 2, 71, 0
3, 292800, Note_on_c, 2, 71, 80
3, 292800, Note_on_c, 2, 83, 80
3, 293039, Note_on_c, 2, 71, 0
3, 293039, Note_on_c, 2, 83, 0
3, 293040, Note_on_c, 2, 71, 80
3, 293040, Note_on_c, 2, 83, 80
3, 293279, Note_on_c, 2, 71, 0
3, 293279, Note_on_c, 2, 83, 0
3, 293280, Note_on_c, 2, 71, 80
3, 293280, Note_on_c, 2, 83, 80
3, 293519, Note_on_c, 2, 71, 0
3, 293519, Note_on_c, 2, 83, 0
3, 293520, Note_on_c, 2, 71, 80
3, 293520, Note_on_c, 2, 83, 80
3, 293759, Note_on_c, 2, 71, 0
3, 293759, Note_on_c, 2, 83, 0
3, 293760, Note_on_c, 2, 71, 80
3, 293999, Note_on_c, 2, 71, 0
3, 294720, Note_on_c, 2, 70, 80
3, 295679, Note_on_c, 2, 70, 0
3, 295680, Note_on_c, 2, 71, 80
3, 295919, Note_on_c, 2, 71, 0
3, 296640, Note_on_c, 2, 72, 80
3, 297599, Note_on_c, 2, 72, 0
3, 297600, Note_on_c, 2, 71, 80
3, 297839, Note_on_c, 2, 71, 0
3, 298560, Note_on_c, 2, 67, 80
3, 298799, Note_on_c, 2, 67, 0
3, 299520, Note_on_c, 2, 64, 80
3, 299759, Note_on_c, 2, 64, 0
3, 300480, Note_on_c, 2, 67, 80
3, 300719, Note_on_c, 2, 67, 0
3, 301440, Note_on_c, 2, 71, 80
3, 304319, Note_on_c, 2, 71, 0
3, 304320, Note_on_c, 2, 67, 80
3, 305279, Note_on_c, 2, 67, 0
3, 305280, Note_on_c, 2, 69, 80
3, 305519, Note_on_c, 2, 69, 0
3, 306240, Note_on_c, 2, 66, 80
3, 306479, Note_on_c, 2, 66, 0
3, 307200, Note_on_c, 2, 63, 80
3, 307439, Note_on_c, 2, 63, 0
3, 308160, Note_on_c, 2, 66, 80
3, 308399, Note_on_c, 2, 66, 0
3, 309120, Note_on_c, 2, 69, 80
3, 311999, Note_on_c, 2, 69, 0
3, 312000, Note_on_c, 2, 66, 80
3, 312959, Note_on_c, 2, 66, 0
3, 312960, Note_on_c, 2, 67, 80
3, 313199, Note_on_c, 2, 67, 0
3, 313920, Note_on_c, 2, 66, 80
3, 314159, Note_on_c, 2, 66, 0
3, 314880, Note_on_c, 2, 64, 80
3, 315119, Note_on_c, 2, 64, 0
3, 315840, Note_on_c, 2, 67, 80
3, 316079, Note_on_c, 2, 67, 0
3, 316800, Note_on_c, 2, 66, 80
3, 317039, Note_on_c, 2, 66, 0
3, 320640, Note_on_c, 2, 71, 80
3, 320879, Note_on_c, 2, 71, 0
3, 321120, Note_on_c, 2, 71, 80
3, 321359, Note_on_c, 2, 71, 0
3, 321600, Note_on_c, 2, 71, 80
3, 321839, Note_on_c, 2, 71, 0
3, 322080, Note_on_c, 2, 71, 80
3, 322319, Note_on_c, 2, 71, 0
3, 322560, Note_on_c, 2, 71, 80
3, 322799, Note_on_c, 2, 71, 0
3, 322800, Note_on_c, 2, 71, 80
3, 323039, Note_on_c, 2, 71, 0
3, 323040, Note_on_c, 2, 71, 80
3, 323279, Note_on_c, 2, 71, 0
3, 323280, Note_on_c, 2, 71, 80
3, 323519, Note_on_c, 2, 71, 0
3, 323520, Note_on_c, 2, 71, 80
3, 323520, Note_on_c, 2, 83, 80
3, 323759, Note_on_c, 2, 71, 0
3, 323759, Note_on_c, 2, 83, 0
3, 323760, Note_on_c, 2, 71, 80
3, 323760, Note_on_c, 2, 83, 80
3, 323999, Note_on_c, 2, 71, 0
3, 323999, Note_on_c, 2, 83, 0
3, 324000, Note_on_c, 2, 71, 80
3, 324000, Note_on_c, 2, 83, 80
3, 324239, Note_on_c, 2, 71, 0
3, 324239, Note_on_c, 2, 83, 0
3, 324240, Note_on_c, 2, 71, 80
3, 324240, Note_on_c, 2, 83, 80
3, 324479, Note_on_c, 2, 71, 0
3, 324479, Note_on_c, 2, 83, 0
3, 324480, Note_on_c, 2, 71, 80
3, 324719, Note_on_c, 2, 71, 0
3, 325440, Note_on_c, 2, 70, 80
3, 326399, Note_on_c, 2, 70, 0
3, 326400, Note_on_c, 2, 71, 80
3, 326639, Note_on_c, 2, 71, 0
3, 327360, Note_on_c, 2, 72, 80
3, 328319, Note_on_c, 2, 72, 0
3, 328320, Note_on_c, 2, 71, 80
3, 328559, Note_on_c, 2, 71, 0
3, 329280, Note_on_c, 2, 67, 80
3, 329519, Note_on_c, 2, 67, 0
3, 330240, Note_on_c, 2, 64, 80
3, 330479, Note_on_c, 2, 64, 0
3, 331200, Note_on_c, 2, 67, 80
3, 331439, Note_on_c, 2, 67, 0
3, 332160, Note_on_c, 2, 71, 80
3, 335039, Note_on_c, 2, 71, 0
3, 335040, Note_on_c, 2, 67, 80
3, 335519, Note_on_c, 2, 67, 0
3, 336960, Note_on_c, 2, 69, 80
3, 338879, Note_on_c, 2, 69, 0
3, 338880, Note_on_c, 2, 66, 80
3, 339359, Note_on_c, 2, 66, 0
3, 339840, Note_on_c, 2, 71, 80
3, 340799, Note_on_c, 2, 71, 0
3, 340800, Note_on_c, 2, 69, 80
3, 341279, Note_on_c, 2, 69, 0
3, 341760, Note_on_c, 2, 67, 80
3, 341999, Note_on_c, 2, 67, 0
3, 342720, Note_on_c, 2, 66, 80
3, 342959, Note_on_c, 2, 66, 0
3, 343680, Note_on_c, 2, 64, 80
3, 344159, Note_on_c, 2, 64, 0
3, 345600, Note_on_c, 2, 59, 80
3, 346079, Note_on_c, 2, 59, 0
3, 347520, Note_on_c, 2, 64, 80
3, 348479, Note_on_c, 2, 64, 0
3, 365760, Note_on_c, 2, 81, 80
3, 366719, Note_on_c, 2, 81, 0
3, 366720, Note_on_c, 2, 83, 80
3, 367199, Note_on_c, 2, 83, 0
3, 367680, Note_on_c, 2, 79, 80
3, 368159, Note_on_c, 2, 79, 0
3, 368640, Note_on_c, 2, 76, 80
3, 369119, Note_on_c, 2, 76, 0
3, 369600, Note_on_c, 2, 79, 80
3, 370079, Note_on_c, 2, 79, 0
3, 370560, Note_on_c, 2, 83, 80
3, 373439, Note_on_c, 2, 83, 0
3, 373440, Note_on_c, 2, 79, 80
3, 374399, Note_on_c, 2, 79, 0
3, 374400, Note_on_c, 2, 78, 80
3, 374879, Note_on_c, 2, 78, 0
3, 375360, Note_on_c, 2, 79, 80
3, 375839, Note_on_c, 2, 79, 0
3, 376320, Note_on_c, 2, 81, 80
3, 376799, Note_on_c, 2, 81, 0
3, 377280, Note_on_c, 2, 78, 80
3, 377759, Note_on_c, 2, 78, 0
3, 378240, Note_on_c, 2, 83, 80
3, 378719, Note_on_c, 2, 83, 0
3, 396480, Note_on_c, 2, 79, 80
3, 397439, Note_on_c, 2, 79, 0
3, 398400, Note_on_c, 2, 69, 80
3, 400319, Note_on_c, 2, 69, 0
3, 400320, Note_on_c, 2, 66, 80
3, 400799, Note_on_c, 2, 66, 0
3, 401280, Note_on_c, 2, 71, 80
3, 402239, Note_on_c, 2, 71, 0
3, 402240, Note_on_c, 2, 69, 80
3, 402719, Note_on_c, 2, 69, 0
3, 403200, Note_on_c, 2, 67, 80
3, 403439, Note_on_c, 2, 67, 0
3, 404160, Note_on_c, 2, 66, 80
3, 404399, Note_on_c, 2, 66, 0
3, 405120, Note_on_c, 2, 64, 80
3, 405599, Note_on_c, 2, 64, 0
3, 407040, Note_on_c, 2, 59, 80
3, 407519, Note_on_c, 2, 59, 0
3, 408960, Note_on_c, 2, 64, 80
3, 409919, Note_on_c, 2, 64, 0
3, 412800, Note_on_c, 2, 71, 80
3, 413039, Note_on_c, 2, 71, 0
3, 413280, Note_on_c, 2, 71, 80
3, 413519, Note_on_c, 2, 71, 0
3, 413760, Note_on_c, 2, 71, 80
3, 413999, Note_on_c, 2, 71, 0
3, 414240, Note_on_c, 2, 71, 80
3, 414479, Note_on_c, 2, 71, 0
3, 414720, Note_on_c, 2, 71, 80
3, 414959, Note_on_c, 2, 71, 0
3, 414960, Note_on_c, 2, 71, 80
3, 415199, Note_on_c, 2, 71, 0
3, 415200, Note_on_c, 2, 71, 80
3, 415439, Note_on_c, 2, 71, 0
3, 415440, Note_on_c, 2, 71, 80
3, 415679, Note_on_c, 2, 71, 0
3, 415680, Note_on_c, 2, 71, 80
3, 415680, Note_on_c, 2, 83, 80
3, 415919, Note_on_c, 2, 71, 0
3, 415919, Note_on_c, 2, 83, 0
3, 415920, Note_on_c, 2, 71, 80
3, 415920, Note_on_c, 2, 83, 80
3, 416159, Note_on_c, 2, 71, 0
3, 416159, Note_on_c, 2, 83, 0
3, 416160, Note_on_c, 2, 71, 80
3, 416160, Note_on_c, 2, 83, 80
3, 416399, Note_on_c, 2, 71, 0
3, 416399, Note_on_c, 2, 83, 0
3, 416400, Note_on_c, 2, 71, 80
3, 416400, Note_on_c, 2, 83, 80
3, 416639, Note_on_c, 2, 71, 0
3, 416639, Note_on_c, 2, 83, 0
3, 416640, Note_on_c, 2, 71, 80
3, 416879, Note_on_c, 2, 71, 0
3, 417600, Note_on_c, 2, 70, 80
3, 418559, Note_on_c, 2, 70, 0
3, 418560, Note_on_c, 2, 71, 80
3, 418799, Note_on_c, 2, 71, 0
3, 419520, Note_on_c, 2, 72, 80
3, 420479, Note_on_c, 2, 72, 0
3, 420480, Note_on_c, 2, 71, 80
3, 420719, Note_on_c, 2, 71, 0
3, 421440, Note_on_c, 2, 67, 80
3, 421679, Note_on_c, 2, 67, 0
3, 422400, Note_on_c, 2, 64, 80
3, 422639, Note_on_c, 2, 64, 0
3, 423360, Note_on_c, 2, 67, 80
3, 423599, Note_on_c, 2, 67, 0
3, 424320, Note_on_c, 2, 71, 80
3, 427199, Note_on_c, 2, 71, 0
3, 427200, Note_on_c, 2, 67, 80
3, 428159, Note_on_c, 2, 67, 0
3, 428160, Note_on_c, 2, 69, 80
3, 428399, Note_on_c, 2, 69, 0
3, 429120, Note_on_c, 2, 66, 80
3, 429359, Note_on_c, 2, 66, 0
3, 430080, Note_on_c, 2, 63, 80
3, 430319, Note_on_c, 2, 63, 0
3, 431040, Note_on_c, 2, 66, 80
3, 431279, Note_on_c, 2, 66, 0
3, 432000, Note_on_c, 2, 69, 80
3, 434879, Note_on_c, 2, 69, 0
3, 434880, Note_on_c, 2, 66, 80
3, 435839, Note_on_c, 2, 66, 0
3, 435840, Note_on_c, 2, 67, 80
3, 436079, Note_on_c, 2, 67, 0
3, 436800, Note_on_c, 2, 66, 80
3, 437039, Note_on_c, 2, 66, 0
3, 437760, Note_on_c, 2, 64, 80
3, 437999, Note_on_c, 2, 64, 0
3, 438720, Note_on_c, 2, 67, 80
3, 438959, Note_on_c, 2, 67, 0
3, 439680, Note_on_c, 2, 66, 80
3, 439919, Note_on_c, 2, 66, 0
3, 443520, Note_on_c, 2, 71, 80
3, 443759, Note_on_c, 2, 71, 0
3, 444000, Note_on_c, 2, 71, 80
3, 444239, Note_on_c, 2, 71, 0
3, 444480, Note_on_c, 2, 71, 80
3, 444719, Note_on_c, 2, 71, 0
3, 444960, Note_on_c, 2, 71, 80
3, 445199, Note_on_c, 2, 71, 0
3, 445440, Note_on_c, 2, 71, 80
3, 445679, Note_on_c, 2, 71, 0
3, 445680, Note_on_c, 2, 71, 80
3, 445919, Note_on_c, 2, 71, 0
3, 445920, Note_on_c, 2, 71, 80
3, 446159, Note_on_c, 2, 71, 0
3, 446160, Note_on_c, 2, 71, 80
3, 446399, Note_on_c, 2, 71, 0
3, 446400, Note_on_c, 2, 71, 80
3, 446400, Note_on_c, 2, 83, 80
3, 446639, Note_on_c, 2, 71, 0
3, 446639, Note_on_c, 2, 83, 0
3, 446640, Note_on_c, 2, 71, 80
3, 446640, Note_on_c, 2, 83, 80
3, 446879, Note_on_c, 2, 71, 0
3, 446879, Note_on_c, 2, 83, 0
3, 446880, Note_on_c, 2, 71, 80
3, 446880, Note_on_c, 2, 83, 80
3, 447119, Note_on_c, 2, 71, 0
3, 447119, Note_on_c, 2, 83, 0
3, 447120, Note_on_c, 2, 71, 80
3, 447120, Note_on_c, 2, 83, 80
3, 447359, Note_on_c, 2, 71, 0
3, 447359, Note_on_c, 2, 83, 0
3, 447360, Note_on_c, 2, 71, 80
3, 447599, Note_on_c, 2, 71, 0
3, 448320, Note_on_c, 2, 70, 80
3, 449279, Note_on_c, 2, 70, 0
3, 449280, Note_on_c, 2, 71, 80
3, 449519, Note_on_c, 2, 71, 0
3, 450240, Note_on_c, 2, 72, 80
3, 451199, Note_on_c, 2, 72, 0
3, 451200, Note_on_c, 2, 71, 80
3, 451439, Note_on_c, 2, 71, 0
3, 452160, Note_on_c, 2, 67, 80
3, 452399, Note_on_c, 2, 67, 0
3, 453120, Note_on_c, 2, 64, 80
3, 453359, Note_on_c, 2, 64, 0
3, 454080, Note_on_c, 2, 67, 80
3, 454319, Note_on_c, 2, 67, 0
3, 455040, Note_on_c, 2, 71, 80
3, 457919, Note_on_c, 2, 71, 0
3, 457920, Note_on_c, 2, 67, 80
3, 458399, Note_on_c, 2, 67, 0
3, 459840, Note_on_c, 2, 69, 80
3, 461759, Note_on_c, 2, 69, 0
3, 461760, Note_on_c, 2, 66, 80
3, 462239, Note_on_c, 2, 66, 0
3, 462720, Note_on_c, 2, 71, 80
3, 463679, Note_on_c, 2, 71, 0
3, 463680, Note_on_c, 2, 69, 80
3, 464159, Note_on_c, 2, 69, 0
3, 464640, Note_on_c, 2, 67, 80
3, 464879, Note_on_c, 2, 67, 0
3, 465600, Note_on_c, 2, 66, 80
3, 465839, Note_on_c, 2, 66, 0
3, 466560, Note_on_c, 2, 64, 80
3, 467039, Note_on_c, 2, 64, 0
3, 468480, Note_on_c, 2, 59, 80
3, 468959, Note_on_c, 2, 59, 0
3, 470400, Note_on_c, 2, 64, 80
3, 471359, Note_on_c, 2, 64, 0
3, 474240, Note_on_c, 2, 71, 80
3, 474479, Note_on_c, 2, 71, 0
3, 474720, Note_on_c, 2, 71, 80
3, 474959, Note_on_c, 2, 71, 0
3, 475200, Note_on_c, 2, 71, 80
3, 475439, Note_on_c, 2, 71, 0
3, 475680, Note_on_c, 2, 71, 80
3, 475919, Note_on_c, 2, 71, 0
3, 476160, Note_on_c, 2, 71, 80
3, 476399, Note_on_c, 2, 71, 0
3, 476400, Note_on_c, 2, 71, 80
3, 476639, Note_on_c, 2, 71, 0
3, 476640, Note_on_c, 2, 71, 80
3, 476879, Note_on_c, 2, 71, 0
3, 476880, Note_on_c, 2, 71, 80
3, 477119, Note_on_c, 2, 71, 0
3, 477120, Note_on_c, 2, 71, 80
3, 477120, Note_on_c, 2, 83, 80
3, 477359, Note_on_c, 2, 71, 0
3, 477359, Note_on_c, 2, 83, 0
3, 477360, Note_on_c, 2, 71, 80
3, 477360, Note_on_c, 2, 83, 80
3, 477599, Note_on_c, 2, 71, 0
3, 477599, Note_on_c, 2, 83, 0
3, 477600, Note_on_c, 2, 71, 80
3, 477600, Note_on_c, 2, 83, 80
3, 477839, Note_on_c, 2, 71, 0
3, 477839, Note_on_c, 2, 83, 0
3, 477840, Note_on_c, 2, 71, 80
3, 477840, Note_on_c, 2, 83, 80
3, 478079, Note_on_c, 2, 71, 0
3, 478079, Note_on_c, 2, 83, 0
3, 478080, Note_on_c, 2, 71, 80
3, 478319, Note_on_c, 2, 71, 0
3, 479040, Note_on_c, 2, 70, 80
3, 479999, Note_on_c, 2, 70, 0
3, 480000, Note_on_c, 2, 71, 80
3, 480239, Note_on_c, 2, 71, 0
3, 480960, Note_on_c, 2, 72, 80
3, 481919, Note_on_c, 2, 72, 0
3, 481920, Note_on_c, 2, 71, 80
3, 482159, Note_on_c, 2, 71, 0
3, 482880, Note_on_c, 2, 67, 80
3, 483119, Note_on_c, 2, 67, 0
3, 483840, Note_on_c, 2, 64, 80
3, 484079, Note_on_c, 2, 64, 0
3, 484800, Note_on_c, 2, 67, 80
3, 485039, Note_on_c, 2, 67, 0
3, 485760, Note_on_c, 2, 71, 80
3, 488639, Note_on_c, 2, 71, 0
3, 488640, Note_on_c, 2, 67, 80
3, 489599, Note_on_c, 2, 67, 0
3, 489600, Note_on_c, 2, 69, 80
3, 489839, Note_on_c, 2, 69, 0
3, 490560, Note_on_c, 2, 66, 80
3, 490799, Note_on_c, 2, 66, 0
3, 491520, Note_on_c, 2, 63, 80
3, 491759, Note_on_c, 2, 63, 0
3, 492480, Note_on_c, 2, 66, 80
3, 492719, Note_on_c, 2, 66, 0
3, 493440, Note_on_c, 2, 69, 80
3, 496319, Note_on_c, 2, 69, 0
3, 496320, Note_on_c, 2, 66, 80
3, 497279, Note_on_c, 2, 66, 0
3, 497280, Note_on_c, 2, 67, 80
3, 497519, Note_on_c, 2, 67, 0
3, 498240, Note_on_c, 2, 66, 80
3, 498479, Note_on_c, 2, 66, 0
3, 499200, Note_on_c, 2, 64, 80
3, 499439, Note_on_c, 2, 64, 0
3, 500160, Note_on_c, 2, 67, 80
3, 500399, Note_on_c, 2, 67, 0
3, 501120, Note_on_c, 2, 66, 80
3, 501359, Note_on_c, 2, 66, 0
3, 504960, Note_on_c, 2, 71, 80
3, 505199, Note_on_c, 2, 71, 0
3, 505440, Note_on_c, 2, 71, 80
3, 505679, Note_on_c, 2, 71, 0
3, 505920, Note_on_c, 2, 71, 80
3, 506159, Note_on_c, 2, 71, 0
3, 506400, Note_on_c, 2, 71, 80
3, 506639, Note_on_c, 2, 71, 0
3, 506880, Note_on_c, 2, 71, 80
3, 507119, Note_on_c, 2, 71, 0
3, 507120, Note_on_c, 2, 71, 80
3, 507359, Note_on_c, 2, 71, 0
3, 507360, Note_on_c, 2, 71, 80
3, 507599, Note_on_c, 2, 71, 0
3, 507600, Note_on_c, 2, 71, 80
3, 507839, Note_on_c, 2, 71, 0
3, 507840, Note_on_c, 2, 71, 80
3, 507840, Note_on_c, 2, 83, 80
3, 508079, Note_on_c, 2, 71, 0
3, 508079, Note_on_c, 2, 83, 0
3, 508080, Note_on_c, 2, 71, 80
3, 508080, Note_on_c, 2, 83, 80
3, 508319, Note_on_c, 2, 71, 0
3, 508319, Note_on_c, 2, 83, 0
3, 508320, Note_on_c, 2, 71, 80
3, 508320, Note_on_c, 2, 83, 80
3, 508559, Note_on_c, 2, 71, 0
3, 508559, Note_on_c, 2, 83, 0
3, 508560, Note_on_c, 2, 71, 80
3, 508560, Note_on_c, 2, 83, 80
3, 508799, Note_on_c, 2, 71, 0
3, 508799, Note_on_c, 2, 83, 0
3, 508800, Note_on_c, 2, 71, 80
3, 509039, Note_on_c, 2, 71, 0
3, 509760, Note_on_c, 2, 70, 80
3, 510719, Note_on_c, 2, 70, 0
3, 510720, Note_on_c, 2, 71, 80
3, 510959, Note_on_c, 2, 71, 0
3, 511680, Note_on_c, 2, 72, 80
3, 512639, Note_on_c, 2, 72, 0
3, 512640, Note_on_c, 2, 71, 80
3, 512879, Note_on_c, 2, 71, 0
3, 513600, Note_on_c, 2, 67, 80
3, 513839, Note_on_c, 2, 67, 0
3, 514560, Note_on_c, 2, 64, 80
3, 514799, Note_on_c, 2, 64, 0
3, 515520, Note_on_c, 2, 67, 80
3, 515759, Note_on_c, 2, 67, 0
3, 516480, Note_on_c, 2, 71, 80
3, 519359, Note_on_c, 2, 71, 0
3, 519360, Note_on_c, 2, 67, 80
3, 519839, Note_on_c, 2, 67, 0
3, 521280, Note_on_c, 2, 69, 80
3, 523199, Note_on_c, 2, 69, 0
3, 523200, Note_on_c, 2, 66, 80
3, 523679, Note_on_c, 2, 66, 0
3, 524160, Note_on_c, 2, 71, 80
3, 525119, Note_on_c, 2, 71, 0
3, 525120, Note_on_c, 2, 69, 80
3, 525599, Note_on_c, 2, 69, 0
3, 526080, Note_on_c, 2, 67, 80
3, 526319, Note_on_c, 2, 67, 0
3, 527040, Note_on_c, 2, 66, 80
3, 527279, Note_on_c, 2, 66, 0
3, 528000, Note_on_c, 2, 64, 80
3, 528479, Note_on_c, 2, 64, 0
3, 529920, Note_on_c, 2, 59, 80
3, 530399, Note_on_c, 2, 59, 0
3, 531840, Note_on_c, 2, 64, 80
3, 532799, Note_on_c, 2, 64, 0
3, 536640, Note_on_c, 2, 69, 80
3, 538559, Note_on_c, 2, 69, 0
3, 538560, Note_on_c, 2, 66, 80
3, 539039, Note_on_c, 2, 66, 0
3, 539520, Note_on_c, 2, 71, 80
3, 540479, Note_on_c, 2, 71, 0
3, 540480, Note_on_c, 2, 69, 80
3, 540959, Note_on_c, 2, 69, 0
3, 541440, Note_on_c, 2, 67, 80
3, 541679, Note_on_c, 2, 67, 0
3, 542400, Note_on_c, 2, 66, 80
3, 542639, Note_on_c, 2, 66, 0
3, 543360, Note_on_c, 2, 64, 80
3, 543839, Note_on_c, 2, 64, 0
3, 545280, Note_on_c, 2, 59, 80
3, 545759, Note_on_c, 2, 59, 0
3, 552960, Note_on_c, 2, 81, 80
3, 552960, Note_on_c, 2, 83, 80
3, 552960, Note_on_c, 2, 84, 80
3, 552960, Note_on_c, 2, 86, 80
3, 552960, Note_on_c, 2, 88, 80
3, 552960, Note_on_c, 2, 91, 80
3, 552960, Note_on_c, 2, 95, 80
3, 552960, Note_on_c, 2, 97, 80
3, 552960, Note_on_c, 2, 99, 80
3, 552960, Note_on_c, 2, 102, 80
3, 552960, Note_on_c, 2, 104, 80
3, 552960, Note_on_c, 2, 106, 80
3, 552960, Note_on_c, 2, 109, 80
3, 552960, Note_on_c, 2, 111, 80
3, 552960, Note_on_c, 2, 112, 80
3, 552960, Note_on_c, 2, 114, 80
3, 552960, Note_on_c, 2, 116, 80
3, 552960, Note_on_c, 2, 118, 80
3, 552960, Note_on_c, 2, 121, 80
3, 552960, Note_on_c, 2, 124, 80
3, 554879, Note_on_c, 2, 81, 0
3, 554879, Note_on_c, 2, 83, 0
3, 554879, Note_on_c, 2, 84, 0
3, 554879, Note_on_c, 2, 86, 0
3, 554879, Note_on_c, 2, 88, 0
3, 554879, Note_on_c, 2, 91, 0
3, 554879, Note_on_c, 2, 95, 0
3, 554879, Note_on_c, 2, 97, 0
3, 554879, Note_on_c, 2, 99, 0
3, 554879, Note_on_c, 2, 102, 0
3, 554879, Note_on_c, 2, 104, 0
3, 554879, Note_on_c, 2, 106, 0
3, 554879, Note_on_c, 2, 109, 0
3, 554879, Note_on_c, 2, 111, 0
3, 554879, Note_on_c, 2, 112, 0
3, 554879, Note_on_c, 2, 114, 0
3, 554879, Note_on_c, 2, 116, 0
3, 554879, Note_on_c, 2, 118, 0
3, 554879, Note_on_c, 2, 121, 0
3, 554879, Note_on_c, 2, 124, 0
3, 554880, End_track
4, 0, Start_track
4, 0, Key_signature, 0, "major"
4, 0, Control_c, 3, 121, 0
4, 0, Program_c, 3, 71
4, 0, Control_c, 3, 7, 100
4, 0, Control_c, 3, 10, 64
4, 0, Control_c, 3, 91, 0
4, 0, Control_c, 3, 93, 0
4, 0, MIDI_port, 0
4, 75840, Note_on_c, 3, 43, 80
4, 76079, Note_on_c, 3, 43, 0
4, 77760, Note_on_c, 3, 43, 80
4, 77999, Note_on_c, 3, 43, 0
4, 79680, Note_on_c, 3, 43, 80
4, 79919, Note_on_c, 3, 43, 0
4, 81600, Note_on_c, 3, 43, 80
4, 81839, Note_on_c, 3, 43, 0
4, 83520, Note_on_c, 3, 43, 80
4, 83759, Note_on_c, 3, 43, 0
4, 85440, Note_on_c, 3, 43, 80
4, 85679, Note_on_c, 3, 43, 0
4, 87360, Note_on_c, 3, 43, 80
4, 87599, Note_on_c, 3, 43, 0
4, 89280, Note_on_c, 3, 43, 80
4, 89519, Note_on_c, 3, 43, 0
4, 91200, Note_on_c, 3, 42, 80
4, 91439, Note_on_c, 3, 42, 0
4, 93120, Note_on_c, 3, 42, 80
4, 93359, Note_on_c, 3, 42, 0
4, 95040, Note_on_c, 3, 42, 80
4, 95279, Note_on_c, 3, 42, 0
4, 96960, Note_on_c, 3, 42, 80
4, 97199, Note_on_c, 3, 42, 0
4, 98880, Note_on_c, 3, 43, 80
4, 99119, Note_on_c, 3, 43, 0
4, 100800, Note_on_c, 3, 40, 80
4, 101039, Note_on_c, 3, 40, 0
4, 101760, Note_on_c, 3, 42, 80
4, 101999, Note_on_c, 3, 42, 0
4, 103680, Note_on_c, 3, 47, 80
4, 105599, Note_on_c, 3, 47, 0
4, 106560, Note_on_c, 3, 43, 80
4, 106799, Note_on_c, 3, 43, 0
4, 108480, Note_on_c, 3, 43, 80
4, 108719, Note_on_c, 3, 43, 0
4, 110400, Note_on_c, 3, 43, 80
4, 110639, Note_on_c, 3, 43, 0
4, 112320, Note_on_c, 3, 43, 80
4, 112559, Note_on_c, 3, 43, 0
4, 114240, Note_on_c, 3, 43, 80
4, 114479, Note_on_c, 3, 43, 0
4, 116160, Note_on_c, 3, 43, 80
4, 116399, Note_on_c, 3, 43, 0
4, 118080, Note_on_c, 3, 43, 80
4, 118319, Note_on_c, 3, 43, 0
4, 120000, Note_on_c, 3, 43, 80
4, 120239, Note_on_c, 3, 43, 0
4, 121920, Note_on_c, 3, 43, 80
4, 122159, Note_on_c, 3, 43, 0
4, 123840, Note_on_c, 3, 43, 80
4, 124079, Note_on_c, 3, 43, 0
4, 125760, Note_on_c, 3, 47, 80
4, 125999, Note_on_c, 3, 47, 0
4, 127680, Note_on_c, 3, 47, 80
4, 127919, Note_on_c, 3, 47, 0
4, 128640, Note_on_c, 3, 40, 80
4, 129119, Note_on_c, 3, 40, 0
4, 130560, Note_on_c, 3, 51, 80
4, 131039, Note_on_c, 3, 51, 0
4, 132480, Note_on_c, 3, 40, 80
4, 133439, Note_on_c, 3, 40, 0
4, 137280, Note_on_c, 3, 48, 80
4, 137519, Note_on_c, 3, 48, 0
4, 139200, Note_on_c, 3, 48, 80
4, 139439, Note_on_c, 3, 48, 0
4, 141120, Note_on_c, 3, 48, 80
4, 141359, Note_on_c, 3, 48, 0
4, 143040, Note_on_c, 3, 48, 80
4, 143279, Note_on_c, 3, 48, 0
4, 144960, Note_on_c, 3, 48, 80
4, 145199, Note_on_c, 3, 48, 0
4, 146880, Note_on_c, 3, 48, 80
4, 147119, Note_on_c, 3, 48, 0
4, 148800, Note_on_c, 3, 48, 80
4, 149039, Note_on_c, 3, 48, 0
4, 150720, Note_on_c, 3, 48, 80
4, 150959, Note_on_c, 3, 48, 0
4, 152640, Note_on_c, 3, 47, 80
4, 152879, Note_on_c, 3, 47, 0
4, 154560, Note_on_c, 3, 47, 80
4, 154799, Note_on_c, 3, 47, 0
4, 156480, Note_on_c, 3, 47, 80
4, 156719, Note_on_c, 3, 47, 0
4, 158400, Note_on_c, 3, 47, 80
4, 158639, Note_on_c, 3, 47, 0
4, 159360, Note_on_c, 3, 54, 80
4, 159839, Note_on_c, 3, 54, 0
4, 160320, Note_on_c, 3, 55, 80
4, 160799, Note_on_c, 3, 55, 0
4, 161280, Note_on_c, 3, 57, 80
4, 161759, Note_on_c, 3, 57, 0
4, 162240, Note_on_c, 3, 54, 80
4, 162719, Note_on_c, 3, 54, 0
4, 163200, Note_on_c, 3, 59, 80
4, 163679, Note_on_c, 3, 59, 0
4, 165120, Note_on_c, 3, 47, 80
4, 167039, Note_on_c, 3, 47, 0
4, 168000, Note_on_c, 3, 48, 80
4, 168239, Note_on_c, 3, 48, 0
4, 169920, Note_on_c, 3, 48, 80
4, 170159, Note_on_c, 3, 48, 0
4, 171840, Note_on_c, 3, 48, 80
4, 172079, Note_on_c, 3, 48, 0
4, 173760, Note_on_c, 3, 48, 80
4, 173999, Note_on_c, 3, 48, 0
4, 175680, Note_on_c, 3, 48, 80
4, 175919, Note_on_c, 3, 48, 0
4, 177600, Note_on_c, 3, 48, 80
4, 177839, Note_on_c, 3, 48, 0
4, 179520, Note_on_c, 3, 48, 80
4, 179759, Note_on_c, 3, 48, 0
4, 181440, Note_on_c, 3, 48, 80
4, 181679, Note_on_c, 3, 48, 0
4, 183360, Note_on_c, 3, 43, 80
4, 183599, Note_on_c, 3, 43, 0
4, 185280, Note_on_c, 3, 43, 80
4, 185519, Note_on_c, 3, 43, 0
4, 186240, Note_on_c, 3, 59, 80
4, 187199, Note_on_c, 3, 59, 0
4, 187200, Note_on_c, 3, 57, 80
4, 187679, Note_on_c, 3, 57, 0
4, 188160, Note_on_c, 3, 55, 80
4, 188399, Note_on_c, 3, 55, 0
4, 189120, Note_on_c, 3, 54, 80
4, 189359, Note_on_c, 3, 54, 0
4, 190080, Note_on_c, 3, 52, 80
4, 190559, Note_on_c, 3, 52, 0
4, 192000, Note_on_c, 3, 47, 80
4, 192479, Note_on_c, 3, 47, 0
4, 193920, Note_on_c, 3, 40, 80
4, 194879, Note_on_c, 3, 40, 0
4, 198720, Note_on_c, 3, 43, 80
4, 198959, Note_on_c, 3, 43, 0
4, 200640, Note_on_c, 3, 43, 80
4, 200879, Note_on_c, 3, 43, 0
4, 202560, Note_on_c, 3, 43, 80
4, 202799, Note_on_c, 3, 43, 0
4, 204480, Note_on_c, 3, 43, 80
4, 204719, Note_on_c, 3, 43, 0
4, 206400, Note_on_c, 3, 43, 80
4, 206639, Note_on_c, 3, 43, 0
4, 208320, Note_on_c, 3, 43, 80
4, 208559, Note_on_c, 3, 43, 0
4, 210240, Note_on_c, 3, 43, 80
4, 210479, Note_on_c, 3, 43, 0
4, 212160, Note_on_c, 3, 43, 80
4, 212399, Note_on_c, 3, 43, 0
4, 214080, Note_on_c, 3, 42, 80
4, 214319, Note_on_c, 3, 42, 0
4, 216000, Note_on_c, 3, 42, 80
4, 216239, Note_on_c, 3, 42, 0
4, 217920, Note_on_c, 3, 42, 80
4, 218159, Note_on_c, 3, 42, 0
4, 219840, Note_on_c, 3, 42, 80
4, 220079, Note_on_c, 3, 42, 0
4, 221760, Note_on_c, 3, 43, 80
4, 221999, Note_on_c, 3, 43, 0
4, 223680, Note_on_c, 3, 40, 80
4, 223919, Note_on_c, 3, 40, 0
4, 224640, Note_on_c, 3, 42, 80
4, 224879, Note_on_c, 3, 42, 0
4, 226560, Note_on_c, 3, 47, 80
4, 228479, Note_on_c, 3, 47, 0
4, 229440, Note_on_c, 3, 43, 80
4, 229679, Note_on_c, 3, 43, 0
4, 231360, Note_on_c, 3, 43, 80
4, 231599, Note_on_c, 3, 43, 0
4, 233280, Note_on_c, 3, 43, 80
4, 233519, Note_on_c, 3, 43, 0
4, 235200, Note_on_c, 3, 43, 80
4, 235439, Note_on_c, 3, 43, 0
4, 237120, Note_on_c, 3, 43, 80
4, 237359, Note_on_c, 3, 43, 0
4, 239040, Note_on_c, 3, 43, 80
4, 239279, Note_on_c, 3, 43, 0
4, 240960, Note_on_c, 3, 43, 80
4, 241199, Note_on_c, 3, 43, 0
4, 242880, Note_on_c, 3, 43, 80
4, 243119, Note_on_c, 3, 43, 0
4, 244800, Note_on_c, 3, 43, 80
4, 245039, Note_on_c, 3, 43, 0
4, 246720, Note_on_c, 3, 43, 80
4, 246959, Note_on_c, 3, 43, 0
4, 248640, Note_on_c, 3, 47, 80
4, 248879, Note_on_c, 3, 47, 0
4, 250560, Note_on_c, 3, 47, 80
4, 250799, Note_on_c, 3, 47, 0
4, 251520, Note_on_c, 3, 40, 80
4, 251999, Note_on_c, 3, 40, 0
4, 253440, Note_on_c, 3, 51, 80
4, 253919, Note_on_c, 3, 51, 0
4, 255360, Note_on_c, 3, 40, 80
4, 256319, Note_on_c, 3, 40, 0
4, 290880, Note_on_c, 3, 43, 80
4, 291119, Note_on_c, 3, 43, 0
4, 292800, Note_on_c, 3, 43, 80
4, 293039, Note_on_c, 3, 43, 0
4, 294720, Note_on_c, 3, 43, 80
4, 294959, Note_on_c, 3, 43, 0
4, 296640, Note_on_c, 3, 43, 80
4, 296879, Note_on_c, 3, 43, 0
4, 298560, Note_on_c, 3, 43, 80
4, 298799, Note_on_c, 3, 43, 0
4, 300480, Note_on_c, 3, 43, 80
4, 300719, Note_on_c, 3, 43, 0
4, 302400, Note_on_c, 3, 43, 80
4, 302639, Note_on_c, 3, 43, 0
4, 304320, Note_on_c, 3, 43, 80
4, 304559, Note_on_c, 3, 43, 0
4, 306240, Note_on_c, 3, 42, 80
4, 306479, Note_on_c, 3, 42, 0
4, 308160, Note_on_c, 3, 42, 80
4, 308399, Note_on_c, 3, 42, 0
4, 310080, Note_on_c, 3, 42, 80
4, 310319, Note_on_c, 3, 42, 0
4, 312000, Note_on_c, 3, 42, 80
4, 312239, Note_on_c, 3, 42, 0
4, 313920, Note_on_c, 3, 43, 80
4, 314159, Note_on_c, 3, 43, 0
4, 315840, Note_on_c, 3, 40, 80
4, 316079, Note_on_c, 3, 40, 0
4, 316800, Note_on_c, 3, 42, 80
4, 317039, Note_on_c, 3, 42, 0
4, 318720, Note_on_c, 3, 47, 80
4, 320639, Note_on_c, 3, 47, 0
4, 321600, Note_on_c, 3, 43, 80
4, 321839, Note_on_c, 3, 43, 0
4, 323520, Note_on_c, 3, 43, 80
4, 323759, Note_on_c, 3, 43, 0
4, 325440, Note_on_c, 3, 43, 80
4, 325679, Note_on_c, 3, 43, 0
4, 327360, Note_on_c, 3, 43, 80
4, 327599, Note_on_c, 3, 43, 0
4, 329280, Note_on_c, 3, 43, 80
4, 329519, Note_on_c, 3, 43, 0
4, 331200, Note_on_c, 3, 43, 80
4, 331439, Note_on_c, 3, 43, 0
4, 333120, Note_on_c, 3, 43, 80
4, 333359, Note_on_c, 3, 43, 0
4, 335040, Note_on_c, 3, 43, 80
4, 335279, Note_on_c, 3, 43, 0
4, 336960, Note_on_c, 3, 43, 80
4, 337199, Note_on_c, 3, 43, 0
4, 338880, Note_on_c, 3, 43, 80
4, 339119, Note_on_c, 3, 43, 0
4, 340800, Note_on_c, 3, 47, 80
4, 341039, Note_on_c, 3, 47, 0
4, 342720, Note_on_c, 3, 47, 80
4, 342959, Note_on_c, 3, 47, 0
4, 343680, Note_on_c, 3, 40, 80
4, 344159, Note_on_c, 3, 40, 0
4, 345600, Note_on_c, 3, 51, 80
4, 346079, Note_on_c, 3, 51, 0
4, 347520, Note_on_c, 3, 40, 80
4, 348479, Note_on_c, 3, 40, 0
4, 352320, Note_on_c, 3, 48, 80
4, 352559, Note_on_c, 3, 48, 0
4, 354240, Note_on_c, 3, 48, 80
4, 354479, Note_on_c, 3, 48, 0
4, 356160, Note_on_c, 3, 48, 80
4, 356399, Note_on_c, 3, 48, 0
4, 358080, Note_on_c, 3, 48, 80
4, 358319, Note_on_c, 3, 48, 0
4, 360000, Note_on_c, 3, 48, 80
4, 360239, Note_on_c, 3, 48, 0
4, 361920, Note_on_c, 3, 48, 80
4, 362159, Note_on_c, 3, 48, 0
4, 363840, Note_on_c, 3, 48, 80
4, 364079, Note_on_c, 3, 48, 0
4, 365760, Note_on_c, 3, 48, 80
4, 365999, Note_on_c, 3, 48, 0
4, 367680, Note_on_c, 3, 47, 80
4, 367919, Note_on_c, 3, 47, 0
4, 369600, Note_on_c, 3, 47, 80
4, 369839, Note_on_c, 3, 47, 0
4, 371520, Note_on_c, 3, 47, 80
4, 371759, Note_on_c, 3, 47, 0
4, 373440, Note_on_c, 3, 47, 80
4, 373679, Note_on_c, 3, 47, 0
4, 374400, Note_on_c, 3, 54, 80
4, 374879, Note_on_c, 3, 54, 0
4, 375360, Note_on_c, 3, 55, 80
4, 375839, Note_on_c, 3, 55, 0
4, 376320, Note_on_c, 3, 57, 80
4, 376799, Note_on_c, 3, 57, 0
4, 377280, Note_on_c, 3, 54, 80
4, 377759, Note_on_c, 3, 54, 0
4, 378240, Note_on_c, 3, 59, 80
4, 378719, Note_on_c, 3, 59, 0
4, 380160, Note_on_c, 3, 47, 80
4, 382079, Note_on_c, 3, 47, 0
4, 383040, Note_on_c, 3, 48, 80
4, 383279, Note_on_c, 3, 48, 0
4, 384960, Note_on_c, 3, 48, 80
4, 385199, Note_on_c, 3, 48, 0
4, 386880, Note_on_c, 3, 48, 80
4, 387119, Note_on_c, 3, 48, 0
4, 388800, Note_on_c, 3, 48, 80
4, 389039, Note_on_c, 3, 48, 0
4, 390720, Note_on_c, 3, 48, 80
4, 390959, Note_on_c, 3, 48, 0
4, 392640, Note_on_c, 3, 48, 80
4, 392879, Note_on_c, 3, 48, 0
4, 394560, Note_on_c, 3, 48, 80
4, 394799, Note_on_c, 3, 48, 0
4, 396480, Note_on_c, 3, 48, 80
4, 396719, Note_on_c, 3, 48, 0
4, 398400, Note_on_c, 3, 43, 80
4, 398639, Note_on_c, 3, 43, 0
4, 400320, Note_on_c, 3, 43, 80
4, 400559, Note_on_c, 3, 43, 0
4, 401280, Note_on_c, 3, 59, 80
4, 402239, Note_on_c, 3, 59, 0
4, 402240, Note_on_c, 3, 57, 80
4, 402719, Note_on_c, 3, 57, 0
4, 403200, Note_on_c, 3, 55, 80
4, 403439, Note_on_c, 3, 55, 0
4, 404160, Note_on_c, 3, 54, 80
4, 404399, Note_on_c, 3, 54, 0
4, 405120, Note_on_c, 3, 52, 80
4, 405599, Note_on_c, 3, 52, 0
4, 407040, Note_on_c, 3, 47, 80
4, 407519, Note_on_c, 3, 47, 0
4, 408960, Note_on_c, 3, 40, 80
4, 409919, Note_on_c, 3, 40, 0
4, 413760, Note_on_c, 3, 43, 80
4, 413999, Note_on_c, 3, 43, 0
4, 415680, Note_on_c, 3, 43, 80
4, 415919, Note_on_c, 3, 43, 0
4, 417600, Note_on_c, 3, 43, 80
4, 417839, Note_on_c, 3, 43, 0
4, 419520, Note_on_c, 3, 43, 80
4, 419759, Note_on_c, 3, 43, 0
4, 421440, Note_on_c, 3, 43, 80
4, 421679, Note_on_c, 3, 43, 0
4, 423360, Note_on_c, 3, 43, 80
4, 423599, Note_on_c, 3, 43, 0
4, 425280, Note_on_c, 3, 43, 80
4, 425519, Note_on_c, 3, 43, 0
4, 427200, Note_on_c, 3, 43, 80
4, 427439, Note_on_c, 3, 43, 0
4, 429120, Note_on_c, 3, 42, 80
4, 429359, Note_on_c, 3, 42, 0
4, 431040, Note_on_c, 3, 42, 80
4, 431279, Note_on_c, 3, 42, 0
4, 432960, Note_on_c, 3, 42, 80
4, 433199, Note_on_c, 3, 42, 0
4, 434880, Note_on_c, 3, 42, 80
4, 435119, Note_on_c, 3, 42, 0
4, 436800, Note_on_c, 3, 43, 80
4, 437039, Note_on_c, 3, 43, 0
4, 438720, Note_on_c, 3, 40, 80
4, 438959, Note_on_c, 3, 40, 0
4, 439680, Note_on_c, 3, 42, 80
4, 439919, Note_on_c, 3, 42, 0
4, 441600, Note_on_c, 3, 47, 80
4, 443519, Note_on_c, 3, 47, 0
4, 444480, Note_on_c, 3, 43, 80
4, 444719, Note_on_c, 3, 43, 0
4, 446400, Note_on_c, 3, 43, 80
4, 446639, Note_on_c, 3, 43, 0
4, 448320, Note_on_c, 3, 43, 80
4, 448559, Note_on_c, 3, 43, 0
4, 450240, Note_on_c, 3, 43, 80
4, 450479, Note_on_c, 3, 43, 0
4, 452160, Note_on_c, 3, 43, 80
4, 452399, Note_on_c, 3, 43, 0
4, 454080, Note_on_c, 3, 43, 80
4, 454319, Note_on_c, 3, 43, 0
4, 456000, Note_on_c, 3, 43, 80
4, 456239, Note_on_c, 3, 43, 0
4, 457920, Note_on_c, 3, 43, 80
4, 458159, Note_on_c, 3, 43, 0
4, 459840, Note_on_c, 3, 43, 80
4, 460079, Note_on_c, 3, 43, 0
4, 461760, Note_on_c, 3, 43, 80
4, 461999, Note_on_c, 3, 43, 0
4, 463680, Note_on_c, 3, 47, 80
4, 463919, Note_on_c, 3, 47, 0
4, 465600, Note_on_c, 3, 47, 80
4, 465839, Note_on_c, 3, 47, 0
4, 466560, Note_on_c, 3, 40, 80
4, 467039, Note_on_c, 3, 40, 0
4, 468480, Note_on_c, 3, 51, 80
4, 468959, Note_on_c, 3, 51, 0
4, 470400, Note_on_c, 3, 40, 80
4, 471359, Note_on_c, 3, 40, 0
4, 475200, Note_on_c, 3, 43, 80
4, 475439, Note_on_c, 3, 43, 0
4, 477120, Note_on_c, 3, 43, 80
4, 477359, Note_on_c, 3, 43, 0
4, 479040, Note_on_c, 3, 43, 80
4, 479279, Note_on_c, 3, 43, 0
4, 480960, Note_on_c, 3, 43, 80
4, 481199, Note_on_c, 3, 43, 0
4, 482880, Note_on_c, 3, 43, 80
4, 483119, Note_on_c, 3, 43, 0
4, 484800, Note_on_c, 3, 43, 80
4, 485039, Note_on_c, 3, 43, 0
4, 486720, Note_on_c, 3, 43, 80
4, 486959, Note_on_c, 3, 43, 0
4, 488640, Note_on_c, 3, 43, 80
4, 488879, Note_on_c, 3, 43, 0
4, 490560, Note_on_c, 3, 42, 80
4, 490799, Note_on_c, 3, 42, 0
4, 492480, Note_on_c, 3, 42, 80
4, 492719, Note_on_c, 3, 42, 0
4, 494400, Note_on_c, 3, 42, 80
4, 494639, Note_on_c, 3, 42, 0
4, 496320, Note_on_c, 3, 42, 80
4, 496559, Note_on_c, 3, 42, 0
4, 498240, Note_on_c, 3, 43, 80
4, 498479, Note_on_c, 3, 43, 0
4, 500160, Note_on_c, 3, 40, 80
4, 500399, Note_on_c, 3, 40, 0
4, 501120, Note_on_c, 3, 42, 80
4, 501359, Note_on_c, 3, 42, 0
4, 503040, Note_on_c, 3, 47, 80
4, 504959, Note_on_c, 3, 47, 0
4, 505920, Note_on_c, 3, 43, 80
4, 506159, Note_on_c, 3, 43, 0
4, 507840, Note_on_c, 3, 43, 80
4, 508079, Note_on_c, 3, 43, 0
4, 509760, Note_on_c, 3, 43, 80
4, 509999, Note_on_c, 3, 43, 0
4, 511680, Note_on_c, 3, 43, 80
4, 511919, Note_on_c, 3, 43, 0
4, 513600, Note_on_c, 3, 43, 80
4, 513839, Note_on_c, 3, 43, 0
4, 515520, Note_on_c, 3, 43, 80
4, 515759, Note_on_c, 3, 43, 0
4, 517440, Note_on_c, 3, 43, 80
4, 517679, Note_on_c, 3, 43, 0
4, 519360, Note_on_c, 3, 43, 80
4, 519599, Note_on_c, 3, 43, 0
4, 521280, Note_on_c, 3, 43, 80
4, 521519, Note_on_c, 3, 43, 0
4, 523200, Note_on_c, 3, 43, 80
4, 523439, Note_on_c, 3, 43, 0
4, 525120, Note_on_c, 3, 47, 80
4, 525359, Note_on_c, 3, 47, 0
4, 527040, Note_on_c, 3, 47, 80
4, 527279, Note_on_c, 3, 47, 0
4, 528000, Note_on_c, 3, 40, 80
4, 528479, Note_on_c, 3, 40, 0
4, 529920, Note_on_c, 3, 51, 80
4, 530399, Note_on_c, 3, 51, 0
4, 531840, Note_on_c, 3, 40, 80
4, 532799, Note_on_c, 3, 40, 0
4, 536640, Note_on_c, 3, 43, 80
4, 536879, Note_on_c, 3, 43, 0
4, 538560, Note_on_c, 3, 43, 80
4, 538799, Note_on_c, 3, 43, 0
4, 540480, Note_on_c, 3, 47, 80
4, 540719, Note_on_c, 3, 47, 0
4, 542400, Note_on_c, 3, 47, 80
4, 542639, Note_on_c, 3, 47, 0
4, 543360, Note_on_c, 3, 40, 80
4, 543839, Note_on_c, 3, 40, 0
4, 545280, Note_on_c, 3, 51, 80
4, 545759, Note_on_c, 3, 51, 0
4, 547200, Note_on_c, 3, 40, 80
4, 548159, Note_on_c, 3, 40, 0
4, 552960, Note_on_c, 3, 39, 80
4, 552960, Note_on_c, 3, 41, 80
4, 552960, Note_on_c, 3, 42, 80
4, 552960, Note_on_c, 3, 44, 80
4, 552960, Note_on_c, 3, 46, 80
4, 552960, Note_on_c, 3, 49, 80
4, 552960, Note_on_c, 3, 53, 80
4, 552960, Note_on_c, 3, 55, 80
4, 552960, Note_on_c, 3, 57, 80
4, 552960, Note_on_c, 3, 60, 80
4, 552960, Note_on_c, 3, 62, 80
4, 552960, Note_on_c, 3, 64, 80
4, 552960, Note_on_c, 3, 67, 80
4, 552960, Note_on_c, 3, 69, 80
4, 552960, Note_on_c, 3, 70, 80
4, 552960, Note_on_c, 3, 72, 80
4, 552960, Note_on_c, 3, 74, 80
4, 552960, Note_on_c, 3, 76, 80
4, 552960, Note_on_c, 3, 79, 80
4, 552960, Note_on_c, 3, 82, 80
4, 554879, Note_on_c, 3, 39, 0
4, 554879, Note_on_c, 3, 41, 0
4, 554879, Note_on_c, 3, 42, 0
4, 554879, Note_on_c, 3, 44, 0
4, 554879, Note_on_c, 3, 46, 0
4, 554879, Note_on_c, 3, 49, 0
4, 554879, Note_on_c, 3, 53, 0
4, 554879, Note_on_c, 3, 55, 0
4, 554879, Note_on_c, 3, 57, 0
4, 554879, Note_on_c, 3, 60, 0
4, 554879, Note_on_c, 3, 62, 0
4, 554879, Note_on_c, 3, 64, 0
4, 554879, Note_on_c, 3, 67, 0
4, 554879, Note_on_c, 3, 69, 0
4, 554879, Note_on_c, 3, 70, 0
4, 554879, Note_on_c, 3, 72, 0
4, 554879, Note_on_c, 3, 74, 0
4, 554879, Note_on_c, 3, 76, 0
4, 554879, Note_on_c, 3, 79, 0
4, 554879, Note_on_c, 3, 82, 0
4, 554880, End_track
5, 0, Start_track
5, 0, Key_signature, 0, "major"
5, 0, Control_c, 4, 121, 0
5, 0, Program_c, 4, 70
5, 0, Control_c, 4, 7, 100
5, 0, Control_c, 4, 10, 64
5, 0, Control_c, 4, 91, 0
5, 0, Control_c, 4, 93, 0
5, 0, MIDI_port, 0
5, 74880, Note_on_c, 4, 40, 80
5, 75839, Note_on_c, 4, 40, 0
5, 76800, Note_on_c, 4, 35, 80
5, 77039, Note_on_c, 4, 35, 0
5, 78720, Note_on_c, 4, 40, 80
5, 79199, Note_on_c, 4, 40, 0
5, 80640, Note_on_c, 4, 35, 80
5, 80879, Note_on_c, 4, 35, 0
5, 82560, Note_on_c, 4, 40, 80
5, 83039, Note_on_c, 4, 40, 0
5, 84480, Note_on_c, 4, 35, 80
5, 84719, Note_on_c, 4, 35, 0
5, 86400, Note_on_c, 4, 40, 80
5, 87359, Note_on_c, 4, 40, 0
5, 88320, Note_on_c, 4, 35, 80
5, 88559, Note_on_c, 4, 35, 0
5, 90240, Note_on_c, 4, 42, 80
5, 90719, Note_on_c, 4, 42, 0
5, 92160, Note_on_c, 4, 35, 80
5, 92399, Note_on_c, 4, 35, 0
5, 94080, Note_on_c, 4, 42, 80
5, 95039, Note_on_c, 4, 42, 0
5, 96000, Note_on_c, 4, 35, 80
5, 96239, Note_on_c, 4, 35, 0
5, 97920, Note_on_c, 4, 40, 80
5, 98879, Note_on_c, 4, 40, 0
5, 99840, Note_on_c, 4, 35, 80
5, 100079, Note_on_c, 4, 35, 0
5, 101760, Note_on_c, 4, 42, 80
5, 101999, Note_on_c, 4, 42, 0
5, 103680, Note_on_c, 4, 35, 80
5, 105599, Note_on_c, 4, 35, 0
5, 105600, Note_on_c, 4, 35, 80
5, 105623, Note_on_c, 4, 35, 0
5, 105624, Note_on_c, 4, 36, 80
5, 105647, Note_on_c, 4, 36, 0
5, 105648, Note_on_c, 4, 37, 80
5, 105671, Note_on_c, 4, 37, 0
5, 105672, Note_on_c, 4, 38, 80
5, 105695, Note_on_c, 4, 38, 0
5, 105696, Note_on_c, 4, 39, 80
5, 105719, Note_on_c, 4, 39, 0
5, 105720, Note_on_c, 4, 40, 80
5, 106679, Note_on_c, 4, 40, 0
5, 107520, Note_on_c, 4, 35, 80
5, 107759, Note_on_c, 4, 35, 0
5, 109440, Note_on_c, 4, 40, 80
5, 109919, Note_on_c, 4, 40, 0
5, 111360, Note_on_c, 4, 35, 80
5, 111599, Note_on_c, 4, 35, 0
5, 113280, Note_on_c, 4, 40, 80
5, 113759, Note_on_c, 4, 40, 0
5, 115200, Note_on_c, 4, 35, 80
5, 115439, Note_on_c, 4, 35, 0
5, 117120, Note_on_c, 4, 40, 80
5, 118079, Note_on_c, 4, 40, 0
5, 119040, Note_on_c, 4, 35, 80
5, 119279, Note_on_c, 4, 35, 0
5, 120960, Note_on_c, 4, 43, 80
5, 121919, Note_on_c, 4, 43, 0
5, 122880, Note_on_c, 4, 43, 80
5, 123359, Note_on_c, 4, 43, 0
5, 124800, Note_on_c, 4, 42, 80
5, 125759, Note_on_c, 4, 42, 0
5, 126720, Note_on_c, 4, 35, 80
5, 126959, Note_on_c, 4, 35, 0
5, 128640, Note_on_c, 4, 40, 80
5, 129119, Note_on_c, 4, 40, 0
5, 130560, Note_on_c, 4, 35, 80
5, 131039, Note_on_c, 4, 35, 0
5, 132480, Note_on_c, 4, 40, 80
5, 133439, Note_on_c, 4, 40, 0
5, 136320, Note_on_c, 4, 45, 80
5, 137279, Note_on_c, 4, 45, 0
5, 138240, Note_on_c, 4, 40, 80
5, 138479, Note_on_c, 4, 40, 0
5, 140160, Note_on_c, 4, 45, 80
5, 140399, Note_on_c, 4, 45, 0
5, 142080, Note_on_c, 4, 40, 80
5, 142319, Note_on_c, 4, 40, 0
5, 144000, Note_on_c, 4, 45, 80
5, 144239, Note_on_c, 4, 45, 0
5, 145920, Note_on_c, 4, 40, 80
5, 146159, Note_on_c, 4, 40, 0
5, 147840, Note_on_c, 4, 45, 80
5, 148079, Note_on_c, 4, 45, 0
5, 149760, Note_on_c, 4, 40, 80
5, 149999, Note_on_c, 4, 40, 0
5, 151680, Note_on_c, 4, 43, 80
5, 151919, Note_on_c, 4, 43, 0
5, 153600, Note_on_c, 4, 40, 80
5, 153839, Note_on_c, 4, 40, 0
5, 155520, Note_on_c, 4, 43, 80
5, 155759, Note_on_c, 4, 43, 0
5, 157440, Note_on_c, 4, 40, 80
5, 157679, Note_on_c, 4, 40, 0
5, 159360, Note_on_c, 4, 42, 80
5, 159839, Note_on_c, 4, 42, 0
5, 160320, Note_on_c, 4, 43, 80
5, 160799, Note_on_c, 4, 43, 0
5, 161280, Note_on_c, 4, 45, 80
5, 161759, Note_on_c, 4, 45, 0
5, 162240, Note_on_c, 4, 42, 80
5, 162719, Note_on_c, 4, 42, 0
5, 163200, Note_on_c, 4, 47, 80
5, 163679, Note_on_c, 4, 47, 0
5, 165120, Note_on_c, 4, 35, 80
5, 167039, Note_on_c, 4, 35, 0
5, 167040, Note_on_c, 4, 45, 80
5, 167999, Note_on_c, 4, 45, 0
5, 168960, Note_on_c, 4, 40, 80
5, 169199, Note_on_c, 4, 40, 0
5, 170880, Note_on_c, 4, 45, 80
5, 171119, Note_on_c, 4, 45, 0
5, 172800, Note_on_c, 4, 40, 80
5, 173039, Note_on_c, 4, 40, 0
5, 174720, Note_on_c, 4, 45, 80
5, 174959, Note_on_c, 4, 45, 0
5, 176640, Note_on_c, 4, 40, 80
5, 176879, Note_on_c, 4, 40, 0
5, 178560, Note_on_c, 4, 45, 80
5, 178799, Note_on_c, 4, 45, 0
5, 180480, Note_on_c, 4, 40, 80
5, 180719, Note_on_c, 4, 40, 0
5, 182400, Note_on_c, 4, 43, 80
5, 183359, Note_on_c, 4, 43, 0
5, 184320, Note_on_c, 4, 43, 80
5, 184799, Note_on_c, 4, 43, 0
5, 186240, Note_on_c, 4, 47, 80
5, 187199, Note_on_c, 4, 47, 0
5, 187200, Note_on_c, 4, 45, 80
5, 187679, Note_on_c, 4, 45, 0
5, 188160, Note_on_c, 4, 43, 80
5, 188399, Note_on_c, 4, 43, 0
5, 189120, Note_on_c, 4, 42, 80
5, 189359, Note_on_c, 4, 42, 0
5, 190080, Note_on_c, 4, 40, 80
5, 190559, Note_on_c, 4, 40, 0
5, 192000, Note_on_c, 4, 35, 80
5, 192479, Note_on_c, 4, 35, 0
5, 193920, Note_on_c, 4, 40, 80
5, 194879, Note_on_c, 4, 40, 0
5, 197760, Note_on_c, 4, 40, 80
5, 198719, Note_on_c, 4, 40, 0
5, 199680, Note_on_c, 4, 35, 80
5, 199919, Note_on_c, 4, 35, 0
5, 201600, Note_on_c, 4, 40, 80
5, 202079, Note_on_c, 4, 40, 0
5, 203520, Note_on_c, 4, 35, 80
5, 203759, Note_on_c, 4, 35, 0
5, 205440, Note_on_c, 4, 40, 80
5, 205919, Note_on_c, 4, 40, 0
5, 207360, Note_on_c, 4, 35, 80
5, 207599, Note_on_c, 4, 35, 0
5, 209280, Note_on_c, 4, 40, 80
5, 210239, Note_on_c, 4, 40, 0
5, 211200, Note_on_c, 4, 35, 80
5, 211439, Note_on_c, 4, 35, 0
5, 213120, Note_on_c, 4, 42, 80
5, 213599, Note_on_c, 4, 42, 0
5, 215040, Note_on_c, 4, 35, 80
5, 215279, Note_on_c, 4, 35, 0
5, 216960, Note_on_c, 4, 42, 80
5, 217919, Note_on_c, 4, 42, 0
5, 218880, Note_on_c, 4, 35, 80
5, 219119, Note_on_c, 4, 35, 0
5, 220800, Note_on_c, 4, 40, 80
5, 221759, Note_on_c, 4, 40, 0
5, 222720, Note_on_c, 4, 35, 80
5, 222959, Note_on_c, 4, 35, 0
5, 224640, Note_on_c, 4, 42, 80
5, 224879, Note_on_c, 4, 42, 0
5, 226560, Note_on_c, 4, 35, 80
5, 228479, Note_on_c, 4, 35, 0
5, 228480, Note_on_c, 4, 35, 80
5, 228503, Note_on_c, 4, 35, 0
5, 228504, Note_on_c, 4, 36, 80
5, 228527, Note_on_c, 4, 36, 0
5, 228528, Note_on_c, 4, 37, 80
5, 228551, Note_on_c, 4, 37, 0
5, 228552, Note_on_c, 4, 38, 80
5, 228575, Note_on_c, 4, 38, 0
5, 228576, Note_on_c, 4, 39, 80
5, 228599, Note_on_c, 4, 39, 0
5, 228600, Note_on_c, 4, 40, 80
5, 229559, Note_on_c, 4, 40, 0
5, 230400, Note_on_c, 4, 35, 80
5, 230639, Note_on_c, 4, 35, 0
5, 232320, Note_on_c, 4, 40, 80
5, 232799, Note_on_c, 4, 40, 0
5, 234240, Note_on_c, 4, 35, 80
5, 234479, Note_on_c, 4, 35, 0
5, 236160, Note_on_c, 4, 40, 80
5, 236639, Note_on_c, 4, 40, 0
5, 238080, Note_on_c, 4, 35, 80
5, 238319, Note_on_c, 4, 35, 0
5, 240000, Note_on_c, 4, 40, 80
5, 240959, Note_on_c, 4, 40, 0
5, 241920, Note_on_c, 4, 35, 80
5, 242159, Note_on_c, 4, 35, 0
5, 243840, Note_on_c, 4, 43, 80
5, 244799, Note_on_c, 4, 43, 0
5, 245760, Note_on_c, 4, 43, 80
5, 246239, Note_on_c, 4, 43, 0
5, 247680, Note_on_c, 4, 42, 80
5, 248639, Note_on_c, 4, 42, 0
5, 249600, Note_on_c, 4, 35, 80
5, 249839, Note_on_c, 4, 35, 0
5, 251520, Note_on_c, 4, 40, 80
5, 251999, Note_on_c, 4, 40, 0
5, 253440, Note_on_c, 4, 35, 80
5, 253919, Note_on_c, 4, 35, 0
5, 255360, Note_on_c, 4, 40, 80
5, 256319, Note_on_c, 4, 40, 0
5, 261120, Note_on_c, 4, 55, 80
5, 261239, Note_on_c, 4, 55, 0
5, 261240, Note_on_c, 4, 55, 80
5, 261359, Note_on_c, 4, 55, 0
5, 261360, Note_on_c, 4, 55, 80
5, 261479, Note_on_c, 4, 55, 0
5, 261480, Note_on_c, 4, 55, 80
5, 261599, Note_on_c, 4, 55, 0
5, 261600, Note_on_c, 4, 55, 80
5, 261719, Note_on_c, 4, 55, 0
5, 261720, Note_on_c, 4, 55, 80
5, 261839, Note_on_c, 4, 55, 0
5, 261840, Note_on_c, 4, 55, 80
5, 261959, Note_on_c, 4, 55, 0
5, 261960, Note_on_c, 4, 55, 80
5, 262079, Note_on_c, 4, 55, 0
5, 262080, Note_on_c, 4, 55, 80
5, 262199, Note_on_c, 4, 55, 0
5, 262200, Note_on_c, 4, 55, 80
5, 262319, Note_on_c, 4, 55, 0
5, 262320, Note_on_c, 4, 55, 80
5, 262439, Note_on_c, 4, 55, 0
5, 262440, Note_on_c, 4, 55, 80
5, 262559, Note_on_c, 4, 55, 0
5, 262560, Note_on_c, 4, 55, 80
5, 262679, Note_on_c, 4, 55, 0
5, 262680, Note_on_c, 4, 55, 80
5, 262799, Note_on_c, 4, 55, 0
5, 262800, Note_on_c, 4, 55, 80
5, 262919, Note_on_c, 4, 55, 0
5, 262920, Note_on_c, 4, 55, 80
5, 263039, Note_on_c, 4, 55, 0
5, 263040, Note_on_c, 4, 31, 80
5, 263159, Note_on_c, 4, 31, 0
5, 263160, Note_on_c, 4, 31, 80
5, 263279, Note_on_c, 4, 31, 0
5, 263280, Note_on_c, 4, 31, 80
5, 263399, Note_on_c, 4, 31, 0
5, 263400, Note_on_c, 4, 31, 80
5, 263519, Note_on_c, 4, 31, 0
5, 263520, Note_on_c, 4, 31, 80
5, 263639, Note_on_c, 4, 31, 0
5, 263640, Note_on_c, 4, 31, 80
5, 263759, Note_on_c, 4, 31, 0
5, 263760, Note_on_c, 4, 31, 80
5, 263879, Note_on_c, 4, 31, 0
5, 263880, Note_on_c, 4, 31, 80
5, 263999, Note_on_c, 4, 31, 0
5, 264000, Note_on_c, 4, 31, 80
5, 264119, Note_on_c, 4, 31, 0
5, 264120, Note_on_c, 4, 31, 80
5, 264239, Note_on_c, 4, 31, 0
5, 264240, Note_on_c, 4, 31, 80
5, 264359, Note_on_c, 4, 31, 0
5, 264360, Note_on_c, 4, 31, 80
5, 264479, Note_on_c, 4, 31, 0
5, 264480, Note_on_c, 4, 31, 80
5, 264599, Note_on_c, 4, 31, 0
5, 264600, Note_on_c, 4, 31, 80
5, 264719, Note_on_c, 4, 31, 0
5, 264720, Note_on_c, 4, 31, 80
5, 264839, Note_on_c, 4, 31, 0
5, 264840, Note_on_c, 4, 31, 80
5, 264959, Note_on_c, 4, 31, 0
5, 264960, Note_on_c, 4, 55, 80
5, 265079, Note_on_c, 4, 55, 0
5, 265080, Note_on_c, 4, 55, 80
5, 265199, Note_on_c, 4, 55, 0
5, 265200, Note_on_c, 4, 55, 80
5, 265319, Note_on_c, 4, 55, 0
5, 265320, Note_on_c, 4, 55, 80
5, 265439, Note_on_c, 4, 55, 0
5, 265440, Note_on_c, 4, 55, 80
5, 265559, Note_on_c, 4, 55, 0
5, 265560, Note_on_c, 4, 55, 80
5, 265679, Note_on_c, 4, 55, 0
5, 265680, Note_on_c, 4, 55, 80
5, 265799, Note_on_c, 4, 55, 0
5, 265800, Note_on_c, 4, 55, 80
5, 265919, Note_on_c, 4, 55, 0
5, 265920, Note_on_c, 4, 55, 80
5, 266039, Note_on_c, 4, 55, 0
5, 266040, Note_on_c, 4, 55, 80
5, 266159, Note_on_c, 4, 55, 0
5, 266160, Note_on_c, 4, 55, 80
5, 266279, Note_on_c, 4, 55, 0
5, 266280, Note_on_c, 4, 55, 80
5, 266399, Note_on_c, 4, 55, 0
5, 266400, Note_on_c, 4, 55, 80
5, 266519, Note_on_c, 4, 55, 0
5, 266520, Note_on_c, 4, 55, 80
5, 266639, Note_on_c, 4, 55, 0
5, 266640, Note_on_c, 4, 55, 80
5, 266759, Note_on_c, 4, 55, 0
5, 266760, Note_on_c, 4, 55, 80
5, 266879, Note_on_c, 4, 55, 0
5, 266880, Note_on_c, 4, 31, 80
5, 266999, Note_on_c, 4, 31, 0
5, 267000, Note_on_c, 4, 31, 80
5, 267119, Note_on_c, 4, 31, 0
5, 267120, Note_on_c, 4, 31, 80
5, 267239, Note_on_c, 4, 31, 0
5, 267240, Note_on_c, 4, 31, 80
5, 267359, Note_on_c, 4, 31, 0
5, 267360, Note_on_c, 4, 31, 80
5, 267479, Note_on_c, 4, 31, 0
5, 267480, Note_on_c, 4, 31, 80
5, 267599, Note_on_c, 4, 31, 0
5, 267600, Note_on_c, 4, 31, 80
5, 267719, Note_on_c, 4, 31, 0
5, 267720, Note_on_c, 4, 31, 80
5, 267839, Note_on_c, 4, 31, 0
5, 267840, Note_on_c, 4, 31, 80
5, 267959, Note_on_c, 4, 31, 0
5, 267960, Note_on_c, 4, 31, 80
5, 268079, Note_on_c, 4, 31, 0
5, 268080, Note_on_c, 4, 31, 80
5, 268199, Note_on_c, 4, 31, 0
5, 268200, Note_on_c, 4, 31, 80
5, 268319, Note_on_c, 4, 31, 0
5, 268320, Note_on_c, 4, 31, 80
5, 268439, Note_on_c, 4, 31, 0
5, 268440, Note_on_c, 4, 31, 80
5, 268559, Note_on_c, 4, 31, 0
5, 268560, Note_on_c, 4, 31, 80
5, 268679, Note_on_c, 4, 31, 0
5, 268680, Note_on_c, 4, 31, 80
5, 268799, Note_on_c, 4, 31, 0
5, 268800, Note_on_c, 4, 55, 80
5, 268919, Note_on_c, 4, 55, 0
5, 268920, Note_on_c, 4, 55, 80
5, 269039, Note_on_c, 4, 55, 0
5, 269040, Note_on_c, 4, 55, 80
5, 269159, Note_on_c, 4, 55, 0
5, 269160, Note_on_c, 4, 55, 80
5, 269279, Note_on_c, 4, 55, 0
5, 269280, Note_on_c, 4, 55, 80
5, 269399, Note_on_c, 4, 55, 0
5, 269400, Note_on_c, 4, 55, 80
5, 269519, Note_on_c, 4, 55, 0
5, 269520, Note_on_c, 4, 55, 80
5, 269639, Note_on_c, 4, 55, 0
5, 269640, Note_on_c, 4, 55, 80
5, 269759, Note_on_c, 4, 55, 0
5, 269760, Note_on_c, 4, 55, 80
5, 269879, Note_on_c, 4, 55, 0
5, 269880, Note_on_c, 4, 55, 80
5, 269999, Note_on_c, 4, 55, 0
5, 270000, Note_on_c, 4, 55, 80
5, 270119, Note_on_c, 4, 55, 0
5, 270120, Note_on_c, 4, 55, 80
5, 270239, Note_on_c, 4, 55, 0
5, 270240, Note_on_c, 4, 55, 80
5, 270359, Note_on_c, 4, 55, 0
5, 270360, Note_on_c, 4, 55, 80
5, 270479, Note_on_c, 4, 55, 0
5, 270480, Note_on_c, 4, 55, 80
5, 270599, Note_on_c, 4, 55, 0
5, 270600, Note_on_c, 4, 55, 80
5, 270719, Note_on_c, 4, 55, 0
5, 270720, Note_on_c, 4, 31, 80
5, 270839, Note_on_c, 4, 31, 0
5, 270840, Note_on_c, 4, 31, 80
5, 270959, Note_on_c, 4, 31, 0
5, 270960, Note_on_c, 4, 31, 80
5, 271079, Note_on_c, 4, 31, 0
5, 271080, Note_on_c, 4, 31, 80
5, 271199, Note_on_c, 4, 31, 0
5, 271200, Note_on_c, 4, 31, 80
5, 271319, Note_on_c, 4, 31, 0
5, 271320, Note_on_c, 4, 31, 80
5, 271439, Note_on_c, 4, 31, 0
5, 271440, Note_on_c, 4, 31, 80
5, 271559, Note_on_c, 4, 31, 0
5, 271560, Note_on_c, 4, 31, 80
5, 271679, Note_on_c, 4, 31, 0
5, 271680, Note_on_c, 4, 31, 80
5, 271799, Note_on_c, 4, 31, 0
5, 271800, Note_on_c, 4, 31, 80
5, 271919, Note_on_c, 4, 31, 0
5, 271920, Note_on_c, 4, 31, 80
5, 272039, Note_on_c, 4, 31, 0
5, 272040, Note_on_c, 4, 31, 80
5, 272159, Note_on_c, 4, 31, 0
5, 272160, Note_on_c, 4, 31, 80
5, 272279, Note_on_c, 4, 31, 0
5, 272280, Note_on_c, 4, 31, 80
5, 272399, Note_on_c, 4, 31, 0
5, 272400, Note_on_c, 4, 31, 80
5, 272519, Note_on_c, 4, 31, 0
5, 272520, Note_on_c, 4, 31, 80
5, 272639, Note_on_c, 4, 31, 0
5, 272640, Note_on_c, 4, 55, 80
5, 272759, Note_on_c, 4, 55, 0
5, 272760, Note_on_c, 4, 55, 80
5, 272879, Note_on_c, 4, 55, 0
5, 272880, Note_on_c, 4, 55, 80
5, 272999, Note_on_c, 4, 55, 0
5, 273000, Note_on_c, 4, 55, 80
5, 273119, Note_on_c, 4, 55, 0
5, 273120, Note_on_c, 4, 55, 80
5, 273239, Note_on_c, 4, 55, 0
5, 273240, Note_on_c, 4, 55, 80
5, 273359, Note_on_c, 4, 55, 0
5, 273360, Note_on_c, 4, 55, 80
5, 273479, Note_on_c, 4, 55, 0
5, 273480, Note_on_c, 4, 55, 80
5, 273599, Note_on_c, 4, 55, 0
5, 273600, Note_on_c, 4, 55, 80
5, 273719, Note_on_c, 4, 55, 0
5, 273720, Note_on_c, 4, 55, 80
5, 273839, Note_on_c, 4, 55, 0
5, 273840, Note_on_c, 4, 55, 80
5, 273959, Note_on_c, 4, 55, 0
5, 273960, Note_on_c, 4, 55, 80
5, 274079, Note_on_c, 4, 55, 0
5, 274080, Note_on_c, 4, 55, 80
5, 274199, Note_on_c, 4, 55, 0
5, 274200, Note_on_c, 4, 55, 80
5, 274319, Note_on_c, 4, 55, 0
5, 274320, Note_on_c, 4, 55, 80
5, 274439, Note_on_c, 4, 55, 0
5, 274440, Note_on_c, 4, 55, 80
5, 274559, Note_on_c, 4, 55, 0
5, 274560, Note_on_c, 4, 31, 80
5, 274679, Note_on_c, 4, 31, 0
5, 274680, Note_on_c, 4, 31, 80
5, 274799, Note_on_c, 4, 31, 0
5, 274800, Note_on_c, 4, 31, 80
5, 274919, Note_on_c, 4, 31, 0
5, 274920, Note_on_c, 4, 31, 80
5, 275039, Note_on_c, 4, 31, 0
5, 275040, Note_on_c, 4, 31, 80
5, 275159, Note_on_c, 4, 31, 0
5, 275160, Note_on_c, 4, 31, 80
5, 275279, Note_on_c, 4, 31, 0
5, 275280, Note_on_c, 4, 31, 80
5, 275399, Note_on_c, 4, 31, 0
5, 275400, Note_on_c, 4, 31, 80
5, 275519, Note_on_c, 4, 31, 0
5, 275520, Note_on_c, 4, 31, 80
5, 275639, Note_on_c, 4, 31, 0
5, 275640, Note_on_c, 4, 31, 80
5, 275759, Note_on_c, 4, 31, 0
5, 275760, Note_on_c, 4, 31, 80
5, 275879, Note_on_c, 4, 31, 0
5, 275880, Note_on_c, 4, 31, 80
5, 275999, Note_on_c, 4, 31, 0
5, 276000, Note_on_c, 4, 31, 80
5, 276119, Note_on_c, 4, 31, 0
5, 276120, Note_on_c, 4, 31, 80
5, 276239, Note_on_c, 4, 31, 0
5, 276240, Note_on_c, 4, 31, 80
5, 276359, Note_on_c, 4, 31, 0
5, 276360, Note_on_c, 4, 31, 80
5, 276479, Note_on_c, 4, 31, 0
5, 276480, Note_on_c, 4, 55, 80
5, 276599, Note_on_c, 4, 55, 0
5, 276600, Note_on_c, 4, 55, 80
5, 276719, Note_on_c, 4, 55, 0
5, 276720, Note_on_c, 4, 55, 80
5, 276839, Note_on_c, 4, 55, 0
5, 276840, Note_on_c, 4, 55, 80
5, 276959, Note_on_c, 4, 55, 0
5, 276960, Note_on_c, 4, 55, 80
5, 277079, Note_on_c, 4, 55, 0
5, 277080, Note_on_c, 4, 55, 80
5, 277199, Note_on_c, 4, 55, 0
5, 277200, Note_on_c, 4, 55, 80
5, 277319, Note_on_c, 4, 55, 0
5, 277320, Note_on_c, 4, 55, 80
5, 277439, Note_on_c, 4, 55, 0
5, 277440, Note_on_c, 4, 55, 80
5, 277559, Note_on_c, 4, 55, 0
5, 277560, Note_on_c, 4, 55, 80
5, 277679, Note_on_c, 4, 55, 0
5, 277680, Note_on_c, 4, 55, 80
5, 277799, Note_on_c, 4, 55, 0
5, 277800, Note_on_c, 4, 55, 80
5, 277919, Note_on_c, 4, 55, 0
5, 277920, Note_on_c, 4, 55, 80
5, 278039, Note_on_c, 4, 55, 0
5, 278040, Note_on_c, 4, 55, 80
5, 278159, Note_on_c, 4, 55, 0
5, 278160, Note_on_c, 4, 55, 80
5, 278279, Note_on_c, 4, 55, 0
5, 278280, Note_on_c, 4, 55, 80
5, 278399, Note_on_c, 4, 55, 0
5, 278400, Note_on_c, 4, 31, 80
5, 278519, Note_on_c, 4, 31, 0
5, 278520, Note_on_c, 4, 31, 80
5, 278639, Note_on_c, 4, 31, 0
5, 278640, Note_on_c, 4, 31, 80
5, 278759, Note_on_c, 4, 31, 0
5, 278760, Note_on_c, 4, 31, 80
5, 278879, Note_on_c, 4, 31, 0
5, 278880, Note_on_c, 4, 31, 80
5, 278999, Note_on_c, 4, 31, 0
5, 279000, Note_on_c, 4, 31, 80
5, 279119, Note_on_c, 4, 31, 0
5, 279120, Note_on_c, 4, 31, 80
5, 279239, Note_on_c, 4, 31, 0
5, 279240, Note_on_c, 4, 31, 80
5, 279359, Note_on_c, 4, 31, 0
5, 279360, Note_on_c, 4, 31, 80
5, 279479, Note_on_c, 4, 31, 0
5, 279480, Note_on_c, 4, 31, 80
5, 279599, Note_on_c, 4, 31, 0
5, 279600, Note_on_c, 4, 31, 80
5, 279719, Note_on_c, 4, 31, 0
5, 279720, Note_on_c, 4, 31, 80
5, 279839, Note_on_c, 4, 31, 0
5, 279840, Note_on_c, 4, 31, 80
5, 279959, Note_on_c, 4, 31, 0
5, 279960, Note_on_c, 4, 31, 80
5, 280079, Note_on_c, 4, 31, 0
5, 280080, Note_on_c, 4, 31, 80
5, 280199, Note_on_c, 4, 31, 0
5, 280200, Note_on_c, 4, 31, 80
5, 280319, Note_on_c, 4, 31, 0
5, 280320, Note_on_c, 4, 55, 80
5, 280439, Note_on_c, 4, 55, 0
5, 280440, Note_on_c, 4, 55, 80
5, 280559, Note_on_c, 4, 55, 0
5, 280560, Note_on_c, 4, 55, 80
5, 280679, Note_on_c, 4, 55, 0
5, 280680, Note_on_c, 4, 55, 80
5, 280799, Note_on_c, 4, 55, 0
5, 280800, Note_on_c, 4, 55, 80
5, 280919, Note_on_c, 4, 55, 0
5, 280920, Note_on_c, 4, 55, 80
5, 281039, Note_on_c, 4, 55, 0
5, 281040, Note_on_c, 4, 55, 80
5, 281159, Note_on_c, 4, 55, 0
5, 281160, Note_on_c, 4, 55, 80
5, 281279, Note_on_c, 4, 55, 0
5, 281280, Note_on_c, 4, 55, 80
5, 281399, Note_on_c, 4, 55, 0
5, 281400, Note_on_c, 4, 55, 80
5, 281519, Note_on_c, 4, 55, 0
5, 281520, Note_on_c, 4, 55, 80
5, 281639, Note_on_c, 4, 55, 0
5, 281640, Note_on_c, 4, 55, 80
5, 281759, Note_on_c, 4, 55, 0
5, 281760, Note_on_c, 4, 55, 80
5, 281879, Note_on_c, 4, 55, 0
5, 281880, Note_on_c, 4, 55, 80
5, 281999, Note_on_c, 4, 55, 0
5, 282000, Note_on_c, 4, 55, 80
5, 282119, Note_on_c, 4, 55, 0
5, 282120, Note_on_c, 4, 55, 80
5, 282239, Note_on_c, 4, 55, 0
5, 282240, Note_on_c, 4, 31, 80
5, 282359, Note_on_c, 4, 31, 0
5, 282360, Note_on_c, 4, 31, 80
5, 282479, Note_on_c, 4, 31, 0
5, 282480, Note_on_c, 4, 31, 80
5, 282599, Note_on_c, 4, 31, 0
5, 282600, Note_on_c, 4, 31, 80
5, 282719, Note_on_c, 4, 31, 0
5, 282720, Note_on_c, 4, 31, 80
5, 282839, Note_on_c, 4, 31, 0
5, 282840, Note_on_c, 4, 31, 80
5, 282959, Note_on_c, 4, 31, 0
5, 282960, Note_on_c, 4, 31, 80
5, 283079, Note_on_c, 4, 31, 0
5, 283080, Note_on_c, 4, 31, 80
5, 283199, Note_on_c, 4, 31, 0
5, 283200, Note_on_c, 4, 31, 80
5, 283319, Note_on_c, 4, 31, 0
5, 283320, Note_on_c, 4, 31, 80
5, 283439, Note_on_c, 4, 31, 0
5, 283440, Note_on_c, 4, 31, 80
5, 283559, Note_on_c, 4, 31, 0
5, 283560, Note_on_c, 4, 31, 80
5, 283679, Note_on_c, 4, 31, 0
5, 283680, Note_on_c, 4, 31, 80
5, 283799, Note_on_c, 4, 31, 0
5, 283800, Note_on_c, 4, 31, 80
5, 283919, Note_on_c, 4, 31, 0
5, 283920, Note_on_c, 4, 31, 80
5, 284039, Note_on_c, 4, 31, 0
5, 284040, Note_on_c, 4, 31, 80
5, 284159, Note_on_c, 4, 31, 0
5, 284160, Note_on_c, 4, 55, 80
5, 284279, Note_on_c, 4, 55, 0
5, 284280, Note_on_c, 4, 55, 80
5, 284399, Note_on_c, 4, 55, 0
5, 284400, Note_on_c, 4, 55, 80
5, 284519, Note_on_c, 4, 55, 0
5, 284520, Note_on_c, 4, 55, 80
5, 284639, Note_on_c, 4, 55, 0
5, 284640, Note_on_c, 4, 55, 80
5, 284759, Note_on_c, 4, 55, 0
5, 284760, Note_on_c, 4, 55, 80
5, 284879, Note_on_c, 4, 55, 0
5, 284880, Note_on_c, 4, 55, 80
5, 284999, Note_on_c, 4, 55, 0
5, 285000, Note_on_c, 4, 55, 80
5, 285119, Note_on_c, 4, 55, 0
5, 285120, Note_on_c, 4, 55, 80
5, 285239, Note_on_c, 4, 55, 0
5, 285240, Note_on_c, 4, 55, 80
5, 285359, Note_on_c, 4, 55, 0
5, 285360, Note_on_c, 4, 55, 80
5, 285479, Note_on_c, 4, 55, 0
5, 285480, Note_on_c, 4, 55, 80
5, 285599, Note_on_c, 4, 55, 0
5, 285600, Note_on_c, 4, 55, 80
5, 285719, Note_on_c, 4, 55, 0
5, 285720, Note_on_c, 4, 55, 80
5, 285839, Note_on_c, 4, 55, 0
5, 285840, Note_on_c, 4, 55, 80
5, 285959, Note_on_c, 4, 55, 0
5, 285960, Note_on_c, 4, 55, 80
5, 286079, Note_on_c, 4, 55, 0
5, 286080, Note_on_c, 4, 31, 80
5, 286199, Note_on_c, 4, 31, 0
5, 286200, Note_on_c, 4, 31, 80
5, 286319, Note_on_c, 4, 31, 0
5, 286320, Note_on_c, 4, 31, 80
5, 286439, Note_on_c, 4, 31, 0
5, 286440, Note_on_c, 4, 31, 80
5, 286559, Note_on_c, 4, 31, 0
5, 286560, Note_on_c, 4, 31, 80
5, 286679, Note_on_c, 4, 31, 0
5, 286680, Note_on_c, 4, 31, 80
5, 286799, Note_on_c, 4, 31, 0
5, 286800, Note_on_c, 4, 31, 80
5, 286919, Note_on_c, 4, 31, 0
5, 286920, Note_on_c, 4, 31, 80
5, 287039, Note_on_c, 4, 31, 0
5, 287040, Note_on_c, 4, 31, 80
5, 287159, Note_on_c, 4, 31, 0
5, 287160, Note_on_c, 4, 31, 80
5, 287279, Note_on_c, 4, 31, 0
5, 287280, Note_on_c, 4, 31, 80
5, 287399, Note_on_c, 4, 31, 0
5, 287400, Note_on_c, 4, 31, 80
5, 287519, Note_on_c, 4, 31, 0
5, 287520, Note_on_c, 4, 31, 80
5, 287639, Note_on_c, 4, 31, 0
5, 287640, Note_on_c, 4, 31, 80
5, 287759, Note_on_c, 4, 31, 0
5, 287760, Note_on_c, 4, 31, 80
5, 287879, Note_on_c, 4, 31, 0
5, 287880, Note_on_c, 4, 31, 80
5, 287999, Note_on_c, 4, 31, 0
5, 288000, Note_on_c, 4, 55, 80
5, 288119, Note_on_c, 4, 55, 0
5, 288120, Note_on_c, 4, 55, 80
5, 288239, Note_on_c, 4, 55, 0
5, 288240, Note_on_c, 4, 55, 80
5, 288359, Note_on_c, 4, 55, 0
5, 288360, Note_on_c, 4, 55, 80
5, 288479, Note_on_c, 4, 55, 0
5, 288480, Note_on_c, 4, 55, 80
5, 288599, Note_on_c, 4, 55, 0
5, 288600, Note_on_c, 4, 55, 80
5, 288719, Note_on_c, 4, 55, 0
5, 288720, Note_on_c, 4, 55, 80
5, 288839, Note_on_c, 4, 55, 0
5, 288840, Note_on_c, 4, 55, 80
5, 288959, Note_on_c, 4, 55, 0
5, 288960, Note_on_c, 4, 55, 80
5, 289079, Note_on_c, 4, 55, 0
5, 289080, Note_on_c, 4, 55, 80
5, 289199, Note_on_c, 4, 55, 0
5, 289200, Note_on_c, 4, 55, 80
5, 289319, Note_on_c, 4, 55, 0
5, 289320, Note_on_c, 4, 55, 80
5, 289439, Note_on_c, 4, 55, 0
5, 289440, Note_on_c, 4, 55, 80
5, 289559, Note_on_c, 4, 55, 0
5, 289560, Note_on_c, 4, 55, 80
5, 289679, Note_on_c, 4, 55, 0
5, 289680, Note_on_c, 4, 55, 80
5, 289799, Note_on_c, 4, 55, 0
5, 289800, Note_on_c, 4, 55, 80
5, 289919, Note_on_c, 4, 55, 0
5, 289920, Note_on_c, 4, 40, 80
5, 290879, Note_on_c, 4, 40, 0
5, 291840, Note_on_c, 4, 35, 80
5, 292079, Note_on_c, 4, 35, 0
5, 293760, Note_on_c, 4, 40, 80
5, 294239, Note_on_c, 4, 40, 0
5, 295680, Note_on_c, 4, 35, 80
5, 295919, Note_on_c, 4, 35, 0
5, 297600, Note_on_c, 4, 40, 80
5, 298079, Note_on_c, 4, 40, 0
5, 299520, Note_on_c, 4, 35, 80
5, 299759, Note_on_c, 4, 35, 0
5, 301440, Note_on_c, 4, 40, 80
5, 302399, Note_on_c, 4, 40, 0
5, 303360, Note_on_c, 4, 35, 80
5, 303599, Note_on_c, 4, 35, 0
5, 305280, Note_on_c, 4, 42, 80
5, 305759, Note_on_c, 4, 42, 0
5, 307200, Note_on_c, 4, 35, 80
5, 307439, Note_on_c, 4, 35, 0
5, 309120, Note_on_c, 4, 42, 80
5, 310079, Note_on_c, 4, 42, 0
5, 311040, Note_on_c, 4, 35, 80
5, 311279, Note_on_c, 4, 35, 0
5, 312960, Note_on_c, 4, 40, 80
5, 313919, Note_on_c, 4, 40, 0
5, 314880, Note_on_c, 4, 35, 80
5, 315119, Note_on_c, 4, 35, 0
5, 316800, Note_on_c, 4, 42, 80
5, 317039, Note_on_c, 4, 42, 0
5, 318720, Note_on_c, 4, 35, 80
5, 320639, Note_on_c, 4, 35, 0
5, 320640, Note_on_c, 4, 35, 80
5, 320663, Note_on_c, 4, 35, 0
5, 320664, Note_on_c, 4, 36, 80
5, 320687, Note_on_c, 4, 36, 0
5, 320688, Note_on_c, 4, 37, 80
5, 320711, Note_on_c, 4, 37, 0
5, 320712, Note_on_c, 4, 38, 80
5, 320735, Note_on_c, 4, 38, 0
5, 320736, Note_on_c, 4, 39, 80
5, 320759, Note_on_c, 4, 39, 0
5, 320760, Note_on_c, 4, 40, 80
5, 321719, Note_on_c, 4, 40, 0
5, 322560, Note_on_c, 4, 35, 80
5, 322799, Note_on_c, 4, 35, 0
5, 324480, Note_on_c, 4, 40, 80
5, 324959, Note_on_c, 4, 40, 0
5, 326400, Note_on_c, 4, 35, 80
5, 326639, Note_on_c, 4, 35, 0
5, 328320, Note_on_c, 4, 40, 80
5, 328799, Note_on_c, 4, 40, 0
5, 330240, Note_on_c, 4, 35, 80
5, 330479, Note_on_c, 4, 35, 0
5, 332160, Note_on_c, 4, 40, 80
5, 333119, Note_on_c, 4, 40, 0
5, 334080, Note_on_c, 4, 35, 80
5, 334319, Note_on_c, 4, 35, 0
5, 336000, Note_on_c, 4, 43, 80
5, 336959, Note_on_c, 4, 43, 0
5, 337920, Note_on_c, 4, 43, 80
5, 338399, Note_on_c, 4, 43, 0
5, 339840, Note_on_c, 4, 42, 80
5, 340799, Note_on_c, 4, 42, 0
5, 341760, Note_on_c, 4, 35, 80
5, 341999, Note_on_c, 4, 35, 0
5, 343680, Note_on_c, 4, 40, 80
5, 344159, Note_on_c, 4, 40, 0
5, 345600, Note_on_c, 4, 35, 80
5, 346079, Note_on_c, 4, 35, 0
5, 347520, Note_on_c, 4, 40, 80
5, 348479, Note_on_c, 4, 40, 0
5, 351360, Note_on_c, 4, 45, 80
5, 352319, Note_on_c, 4, 45, 0
5, 353280, Note_on_c, 4, 40, 80
5, 353519, Note_on_c, 4, 40, 0
5, 355200, Note_on_c, 4, 45, 80
5, 355439, Note_on_c, 4, 45, 0
5, 357120, Note_on_c, 4, 40, 80
5, 357359, Note_on_c, 4, 40, 0
5, 359040, Note_on_c, 4, 45, 80
5, 359279, Note_on_c, 4, 45, 0
5, 360960, Note_on_c, 4, 40, 80
5, 361199, Note_on_c, 4, 40, 0
5, 362880, Note_on_c, 4, 45, 80
5, 363119, Note_on_c, 4, 45, 0
5, 364800, Note_on_c, 4, 40, 80
5, 365039, Note_on_c, 4, 40, 0
5, 366720, Note_on_c, 4, 43, 80
5, 366959, Note_on_c, 4, 43, 0
5, 368640, Note_on_c, 4, 40, 80
5, 368879, Note_on_c, 4, 40, 0
5, 370560, Note_on_c, 4, 43, 80
5, 370799, Note_on_c, 4, 43, 0
5, 372480, Note_on_c, 4, 40, 80
5, 372719, Note_on_c, 4, 40, 0
5, 374400, Note_on_c, 4, 42, 80
5, 374879, Note_on_c, 4, 42, 0
5, 375360, Note_on_c, 4, 43, 80
5, 375839, Note_on_c, 4, 43, 0
5, 376320, Note_on_c, 4, 45, 80
5, 376799, Note_on_c, 4, 45, 0
5, 377280, Note_on_c, 4, 42, 80
5, 377759, Note_on_c, 4, 42, 0
5, 378240, Note_on_c, 4, 47, 80
5, 378719, Note_on_c, 4, 47, 0
5, 380160, Note_on_c, 4, 35, 80
5, 382079, Note_on_c, 4, 35, 0
5, 382080, Note_on_c, 4, 45, 80
5, 383039, Note_on_c, 4, 45, 0
5, 384000, Note_on_c, 4, 40, 80
5, 384239, Note_on_c, 4, 40, 0
5, 385920, Note_on_c, 4, 45, 80
5, 386159, Note_on_c, 4, 45, 0
5, 387840, Note_on_c, 4, 40, 80
5, 388079, Note_on_c, 4, 40, 0
5, 389760, Note_on_c, 4, 45, 80
5, 389999, Note_on_c, 4, 45, 0
5, 391680, Note_on_c, 4, 40, 80
5, 391919, Note_on_c, 4, 40, 0
5, 393600, Note_on_c, 4, 45, 80
5, 393839, Note_on_c, 4, 45, 0
5, 395520, Note_on_c, 4, 40, 80
5, 395759, Note_on_c, 4, 40, 0
5, 397440, Note_on_c, 4, 43, 80
5, 398399, Note_on_c, 4, 43, 0
5, 399360, Note_on_c, 4, 43, 80
5, 399839, Note_on_c, 4, 43, 0
5, 401280, Note_on_c, 4, 47, 80
5, 402239, Note_on_c, 4, 47, 0
5, 402240, Note_on_c, 4, 45, 80
5, 402719, Note_on_c, 4, 45, 0
5, 403200, Note_on_c, 4, 43, 80
5, 403439, Note_on_c, 4, 43, 0
5, 404160, Note_on_c, 4, 42, 80
5, 404399, Note_on_c, 4, 42, 0
5, 405120, Note_on_c, 4, 40, 80
5, 405599, Note_on_c, 4, 40, 0
5, 407040, Note_on_c, 4, 35, 80
5, 407519, Note_on_c, 4, 35, 0
5, 408960, Note_on_c, 4, 40, 80
5, 409919, Note_on_c, 4, 40, 0
5, 412800, Note_on_c, 4, 40, 80
5, 413759, Note_on_c, 4, 40, 0
5, 414720, Note_on_c, 4, 35, 80
5, 414959, Note_on_c, 4, 35, 0
5, 416640, Note_on_c, 4, 40, 80
5, 417119, Note_on_c, 4, 40, 0
5, 418560, Note_on_c, 4, 35, 80
5, 418799, Note_on_c, 4, 35, 0
5, 420480, Note_on_c, 4, 40, 80
5, 420959, Note_on_c, 4, 40, 0
5, 422400, Note_on_c, 4, 35, 80
5, 422639, Note_on_c, 4, 35, 0
5, 424320, Note_on_c, 4, 40, 80
5, 425279, Note_on_c, 4, 40, 0
5, 426240, Note_on_c, 4, 35, 80
5, 426479, Note_on_c, 4, 35, 0
5, 428160, Note_on_c, 4, 42, 80
5, 428639, Note_on_c, 4, 42, 0
5, 430080, Note_on_c, 4, 35, 80
5, 430319, Note_on_c, 4, 35, 0
5, 432000, Note_on_c, 4, 42, 80
5, 432959, Note_on_c, 4, 42, 0
5, 433920, Note_on_c, 4, 35, 80
5, 434159, Note_on_c, 4, 35, 0
5, 435840, Note_on_c, 4, 40, 80
5, 436799, Note_on_c, 4, 40, 0
5, 437760, Note_on_c, 4, 35, 80
5, 437999, Note_on_c, 4, 35, 0
5, 439680, Note_on_c, 4, 42, 80
5, 439919, Note_on_c, 4, 42, 0
5, 441600, Note_on_c, 4, 35, 80
5, 443519, Note_on_c, 4, 35, 0
5, 443520, Note_on_c, 4, 35, 80
5, 443543, Note_on_c, 4, 35, 0
5, 443544, Note_on_c, 4, 36, 80
5, 443567, Note_on_c, 4, 36, 0
5, 443568, Note_on_c, 4, 37, 80
5, 443591, Note_on_c, 4, 37, 0
5, 443592, Note_on_c, 4, 38, 80
5, 443615, Note_on_c, 4, 38, 0
5, 443616, Note_on_c, 4, 39, 80
5, 443639, Note_on_c, 4, 39, 0
5, 443640, Note_on_c, 4, 40, 80
5, 444599, Note_on_c, 4, 40, 0
5, 445440, Note_on_c, 4, 35, 80
5, 445679, Note_on_c, 4, 35, 0
5, 447360, Note_on_c, 4, 40, 80
5, 447839, Note_on_c, 4, 40, 0
5, 449280, Note_on_c, 4, 35, 80
5, 449519, Note_on_c, 4, 35, 0
5, 451200, Note_on_c, 4, 40, 80
5, 451679, Note_on_c, 4, 40, 0
5, 453120, Note_on_c, 4, 35, 80
5, 453359, Note_on_c, 4, 35, 0
5, 455040, Note_on_c, 4, 40, 80
5, 455999, Note_on_c, 4, 40, 0
5, 456960, Note_on_c, 4, 35, 80
5, 457199, Note_on_c, 4, 35, 0
5, 458880, Note_on_c, 4, 43, 80
5, 459839, Note_on_c, 4, 43, 0
5, 460800, Note_on_c, 4, 43, 80
5, 461279, Note_on_c, 4, 43, 0
5, 462720, Note_on_c, 4, 42, 80
5, 463679, Note_on_c, 4, 42, 0
5, 464640, Note_on_c, 4, 35, 80
5, 464879, Note_on_c, 4, 35, 0
5, 466560, Note_on_c, 4, 40, 80
5, 467039, Note_on_c, 4, 40, 0
5, 468480, Note_on_c, 4, 35, 80
5, 468959, Note_on_c, 4, 35, 0
5, 470400, Note_on_c, 4, 40, 80
5, 471359, Note_on_c, 4, 40, 0
5, 474240, Note_on_c, 4, 40, 80
5, 475199, Note_on_c, 4, 40, 0
5, 476160, Note_on_c, 4, 35, 80
5, 476399, Note_on_c, 4, 35, 0
5, 478080, Note_on_c, 4, 40, 80
5, 478559, Note_on_c, 4, 40, 0
5, 480000, Note_on_c, 4, 35, 80
5, 480239, Note_on_c, 4, 35, 0
5, 481920, Note_on_c, 4, 40, 80
5, 482399, Note_on_c, 4, 40, 0
5, 483840, Note_on_c, 4, 35, 80
5, 484079, Note_on_c, 4, 35, 0
5, 485760, Note_on_c, 4, 40, 80
5, 486719, Note_on_c, 4, 40, 0
5, 487680, Note_on_c, 4, 35, 80
5, 487919, Note_on_c, 4, 35, 0
5, 489600, Note_on_c, 4, 42, 80
5, 490079, Note_on_c, 4, 42, 0
5, 491520, Note_on_c, 4, 35, 80
5, 491759, Note_on_c, 4, 35, 0
5, 493440, Note_on_c, 4, 42, 80
5, 494399, Note_on_c, 4, 42, 0
5, 495360, Note_on_c, 4, 35, 80
5, 495599, Note_on_c, 4, 35, 0
5, 497280, Note_on_c, 4, 40, 80
5, 498239, Note_on_c, 4, 40, 0
5, 499200, Note_on_c, 4, 35, 80
5, 499439, Note_on_c, 4, 35, 0
5, 501120, Note_on_c, 4, 42, 80
5, 501359, Note_on_c, 4, 42, 0
5, 503040, Note_on_c, 4, 35, 80
5, 504959, Note_on_c, 4, 35, 0
5, 504960, Note_on_c, 4, 35, 80
5, 504983, Note_on_c, 4, 35, 0
5, 504984, Note_on_c, 4, 36, 80
5, 505007, Note_on_c, 4, 36, 0
5, 505008, Note_on_c, 4, 37, 80
5, 505031, Note_on_c, 4, 37, 0
5, 505032, Note_on_c, 4, 38, 80
5, 505055, Note_on_c, 4, 38, 0
5, 505056, Note_on_c, 4, 39, 80
5, 505079, Note_on_c, 4, 39, 0
5, 505080, Note_on_c, 4, 40, 80
5, 506039, Note_on_c, 4, 40, 0
5, 506880, Note_on_c, 4, 35, 80
5, 507119, Note_on_c, 4, 35, 0
5, 508800, Note_on_c, 4, 40, 80
5, 509279, Note_on_c, 4, 40, 0
5, 510720, Note_on_c, 4, 35, 80
5, 510959, Note_on_c, 4, 35, 0
5, 512640, Note_on_c, 4, 40, 80
5, 513119, Note_on_c, 4, 40, 0
5, 514560, Note_on_c, 4, 35, 80
5, 514799, Note_on_c, 4, 35, 0
5, 516480, Note_on_c, 4, 40, 80
5, 517439, Note_on_c, 4, 40, 0
5, 518400, Note_on_c, 4, 35, 80
5, 518639, Note_on_c, 4, 35, 0
5, 520320, Note_on_c, 4, 43, 80
5, 521279, Note_on_c, 4, 43, 0
5, 522240, Note_on_c, 4, 43, 80
5, 522719, Note_on_c, 4, 43, 0
5, 524160, Note_on_c, 4, 42, 80
5, 525119, Note_on_c, 4, 42, 0
5, 526080, Note_on_c, 4, 35, 80
5, 526319, Note_on_c, 4, 35, 0
5, 528000, Note_on_c, 4, 40, 80
5, 528479, Note_on_c, 4, 40, 0
5, 529920, Note_on_c, 4, 35, 80
5, 530399, Note_on_c, 4, 35, 0
5, 531840, Note_on_c, 4, 40, 80
5, 532799, Note_on_c, 4, 40, 0
5, 535680, Note_on_c, 4, 43, 80
5, 536639, Note_on_c, 4, 43, 0
5, 537600, Note_on_c, 4, 43, 80
5, 538079, Note_on_c, 4, 43, 0
5, 539520, Note_on_c, 4, 42, 80
5, 540479, Note_on_c, 4, 42, 0
5, 541440, Note_on_c, 4, 35, 80
5, 541679, Note_on_c, 4, 35, 0
5, 543360, Note_on_c, 4, 40, 80
5, 543839, Note_on_c, 4, 40, 0
5, 545280, Note_on_c, 4, 35, 80
5, 545759, Note_on_c, 4, 35, 0
5, 547200, Note_on_c, 4, 40, 80
5, 548159, Note_on_c, 4, 40, 0
5, 552960, Note_on_c, 4, 38, 80
5, 552960, Note_on_c, 4, 40, 80
5, 552960, Note_on_c, 4, 41, 80
5, 552960, Note_on_c, 4, 43, 80
5, 552960, Note_on_c, 4, 45, 80
5, 552960, Note_on_c, 4, 48, 80
5, 552960, Note_on_c, 4, 52, 80
5, 552960, Note_on_c, 4, 54, 80
5, 552960, Note_on_c, 4, 56, 80
5, 552960, Note_on_c, 4, 59, 80
5, 552960, Note_on_c, 4, 61, 80
5, 552960, Note_on_c, 4, 63, 80
5, 552960, Note_on_c, 4, 66, 80
5, 552960, Note_on_c, 4, 68, 80
5, 552960, Note_on_c, 4, 69, 80
5, 552960, Note_on_c, 4, 71, 80
5, 552960, Note_on_c, 4, 73, 80
5, 552960, Note_on_c, 4, 75, 80
5, 552960, Note_on_c, 4, 78, 80
5, 552960, Note_on_c, 4, 81, 80
5, 554879, Note_on_c, 4, 38, 0
5, 554879, Note_on_c, 4, 40, 0
5, 554879, Note_on_c, 4, 41, 0
5, 554879, Note_on_c, 4, 43, 0
5, 554879, Note_on_c, 4, 45, 0
5, 554879, Note_on_c, 4, 48, 0
5, 554879, Note_on_c, 4, 52, 0
5, 554879, Note_on_c, 4, 54, 0
5, 554879, Note_on_c, 4, 56, 0
5, 554879, Note_on_c, 4, 59, 0
5, 554879, Note_on_c, 4, 61, 0
5, 554879, Note_on_c, 4, 63, 0
5, 554879, Note_on_c, 4, 66, 0
5, 554879, Note_on_c, 4, 68, 0
5, 554879, Note_on_c, 4, 69, 0
5, 554879, Note_on_c, 4, 71, 0
5, 554879, Note_on_c, 4, 73, 0
5, 554879, Note_on_c, 4, 75, 0
5, 554879, Note_on_c, 4, 78, 0
5, 554879, Note_on_c, 4, 81, 0
5, 554880, End_track
6, 0, Start_track
6, 0, Key_signature, 0, "major"
6, 0, Control_c, 5, 121, 0
6, 0, Program_c, 5, 56
6, 0, Control_c, 5, 7, 100
6, 0, Control_c, 5, 10, 64
6, 0, Control_c, 5, 91, 0
6, 0, Control_c, 5, 93, 0
6, 0, MIDI_port, 0
6, 0, Control_c, 6, 121, 0
6, 0, Program_c, 6, 59
6, 0, Control_c, 6, 7, 100
6, 0, Control_c, 6, 10, 64
6, 0, Control_c, 6, 91, 0
6, 0, Control_c, 6, 93, 0
6, 0, MIDI_port, 0
6, 13440, Note_on_c, 5, 71, 80
6, 13679, Note_on_c, 5, 71, 0
6, 13920, Note_on_c, 5, 71, 80
6, 14159, Note_on_c, 5, 71, 0
6, 14400, Note_on_c, 5, 71, 80
6, 14639, Note_on_c, 5, 71, 0
6, 14880, Note_on_c, 5, 71, 80
6, 15119, Note_on_c, 5, 71, 0
6, 15360, Note_on_c, 5, 71, 80
6, 15599, Note_on_c, 5, 71, 0
6, 15840, Note_on_c, 5, 71, 80
6, 16079, Note_on_c, 5, 71, 0
6, 16320, Note_on_c, 5, 71, 80
6, 16559, Note_on_c, 5, 71, 0
6, 16800, Note_on_c, 5, 71, 80
6, 17039, Note_on_c, 5, 71, 0
6, 17280, Note_on_c, 5, 71, 80
6, 17519, Note_on_c, 5, 71, 0
6, 18240, Note_on_c, 5, 70, 80
6, 19199, Note_on_c, 5, 70, 0
6, 19200, Note_on_c, 5, 71, 80
6, 19439, Note_on_c, 5, 71, 0
6, 20160, Note_on_c, 5, 72, 80
6, 21119, Note_on_c, 5, 72, 0
6, 21120, Note_on_c, 5, 71, 80
6, 21359, Note_on_c, 5, 71, 0
6, 22080, Note_on_c, 5, 67, 80
6, 22319, Note_on_c, 5, 67, 0
6, 23040, Note_on_c, 5, 64, 80
6, 23279, Note_on_c, 5, 64, 0
6, 24000, Note_on_c, 5, 67, 80
6, 24239, Note_on_c, 5, 67, 0
6, 24960, Note_on_c, 5, 71, 80
6, 27839, Note_on_c, 5, 71, 0
6, 27840, Note_on_c, 5, 67, 80
6, 28799, Note_on_c, 5, 67, 0
6, 28800, Note_on_c, 5, 69, 80
6, 29039, Note_on_c, 5, 69, 0
6, 29760, Note_on_c, 5, 66, 80
6, 29999, Note_on_c, 5, 66, 0
6, 30720, Note_on_c, 5, 63, 80
6, 30959, Note_on_c, 5, 63, 0
6, 31680, Note_on_c, 5, 66, 80
6, 31919, Note_on_c, 5, 66, 0
6, 32640, Note_on_c, 5, 69, 80
6, 35519, Note_on_c, 5, 69, 0
6, 35520, Note_on_c, 5, 66, 80
6, 36479, Note_on_c, 5, 66, 0
6, 36480, Note_on_c, 5, 67, 80
6, 36719, Note_on_c, 5, 67, 0
6, 37440, Note_on_c, 5, 66, 80
6, 37679, Note_on_c, 5, 66, 0
6, 38400, Note_on_c, 5, 64, 80
6, 38639, Note_on_c, 5, 64, 0
6, 39360, Note_on_c, 5, 67, 80
6, 39599, Note_on_c, 5, 67, 0
6, 40320, Note_on_c, 5, 66, 80
6, 40559, Note_on_c, 5, 66, 0
6, 44160, Note_on_c, 5, 71, 80
6, 44399, Note_on_c, 5, 71, 0
6, 44640, Note_on_c, 5, 71, 80
6, 44879, Note_on_c, 5, 71, 0
6, 45120, Note_on_c, 5, 71, 80
6, 45359, Note_on_c, 5, 71, 0
6, 45600, Note_on_c, 5, 71, 80
6, 45839, Note_on_c, 5, 71, 0
6, 46080, Note_on_c, 5, 71, 80
6, 46319, Note_on_c, 5, 71, 0
6, 46560, Note_on_c, 5, 71, 80
6, 46799, Note_on_c, 5, 71, 0
6, 47040, Note_on_c, 5, 71, 80
6, 47279, Note_on_c, 5, 71, 0
6, 47520, Note_on_c, 5, 71, 80
6, 47759, Note_on_c, 5, 71, 0
6, 48000, Note_on_c, 5, 71, 80
6, 48239, Note_on_c, 5, 71, 0
6, 48960, Note_on_c, 5, 70, 80
6, 49919, Note_on_c, 5, 70, 0
6, 49920, Note_on_c, 5, 71, 80
6, 50159, Note_on_c, 5, 71, 0
6, 50880, Note_on_c, 5, 72, 80
6, 51839, Note_on_c, 5, 72, 0
6, 51840, Note_on_c, 5, 71, 80
6, 52079, Note_on_c, 5, 71, 0
6, 52800, Note_on_c, 5, 67, 80
6, 53039, Note_on_c, 5, 67, 0
6, 53760, Note_on_c, 5, 64, 80
6, 53999, Note_on_c, 5, 64, 0
6, 54720, Note_on_c, 5, 67, 80
6, 54959, Note_on_c, 5, 67, 0
6, 55680, Note_on_c, 5, 71, 80
6, 58559, Note_on_c, 5, 71, 0
6, 58560, Note_on_c, 5, 67, 80
6, 59039, Note_on_c, 5, 67, 0
6, 60480, Note_on_c, 5, 69, 80
6, 62399, Note_on_c, 5, 69, 0
6, 62400, Note_on_c, 5, 66, 80
6, 62879, Note_on_c, 5, 66, 0
6, 63360, Note_on_c, 5, 71, 80
6, 64319, Note_on_c, 5, 71, 0
6, 64320, Note_on_c, 5, 69, 80
6, 64799, Note_on_c, 5, 69, 0
6, 65280, Note_on_c, 5, 67, 80
6, 65519, Note_on_c, 5, 67, 0
6, 66240, Note_on_c, 5, 66, 80
6, 66479, Note_on_c, 5, 66, 0
6, 67200, Note_on_c, 5, 64, 80
6, 67679, Note_on_c, 5, 64, 0
6, 69120, Note_on_c, 5, 59, 80
6, 69599, Note_on_c, 5, 59, 0
6, 71040, Note_on_c, 5, 64, 80
6, 71999, Note_on_c, 5, 64, 0
6, 74880, Note_on_c, 5, 71, 80
6, 75119, Note_on_c, 5, 71, 0
6, 75360, Note_on_c, 5, 71, 80
6, 75599, Note_on_c, 5, 71, 0
6, 75840, Note_on_c, 5, 71, 80
6, 76079, Note_on_c, 5, 71, 0
6, 76320, Note_on_c, 5, 71, 80
6, 76559, Note_on_c, 5, 71, 0
6, 76800, Note_on_c, 5, 71, 80
6, 77039, Note_on_c, 5, 71, 0
6, 77280, Note_on_c, 5, 71, 80
6, 77519, Note_on_c, 5, 71, 0
6, 77760, Note_on_c, 5, 71, 80
6, 77999, Note_on_c, 5, 71, 0
6, 78240, Note_on_c, 5, 71, 80
6, 78479, Note_on_c, 5, 71, 0
6, 78720, Note_on_c, 5, 71, 80
6, 78959, Note_on_c, 5, 71, 0
6, 79680, Note_on_c, 5, 70, 80
6, 80639, Note_on_c, 5, 70, 0
6, 80640, Note_on_c, 5, 71, 80
6, 80879, Note_on_c, 5, 71, 0
6, 81600, Note_on_c, 5, 72, 80
6, 82559, Note_on_c, 5, 72, 0
6, 82560, Note_on_c, 5, 71, 80
6, 82799, Note_on_c, 5, 71, 0
6, 83520, Note_on_c, 5, 67, 80
6, 83759, Note_on_c, 5, 67, 0
6, 84480, Note_on_c, 5, 64, 80
6, 84719, Note_on_c, 5, 64, 0
6, 85440, Note_on_c, 5, 67, 80
6, 85679, Note_on_c, 5, 67, 0
6, 86400, Note_on_c, 5, 71, 80
6, 89279, Note_on_c, 5, 71, 0
6, 89280, Note_on_c, 5, 67, 80
6, 90239, Note_on_c, 5, 67, 0
6, 90240, Note_on_c, 5, 69, 80
6, 90479, Note_on_c, 5, 69, 0
6, 91200, Note_on_c, 5, 66, 80
6, 91439, Note_on_c, 5, 66, 0
6, 92160, Note_on_c, 5, 63, 80
6, 92399, Note_on_c, 5, 63, 0
6, 93120, Note_on_c, 5, 66, 80
6, 93359, Note_on_c, 5, 66, 0
6, 94080, Note_on_c, 5, 69, 80
6, 96959, Note_on_c, 5, 69, 0
6, 96960, Note_on_c, 5, 66, 80
6, 97919, Note_on_c, 5, 66, 0
6, 97920, Note_on_c, 5, 67, 80
6, 98159, Note_on_c, 5, 67, 0
6, 98880, Note_on_c, 5, 66, 80
6, 99119, Note_on_c, 5, 66, 0
6, 99840, Note_on_c, 5, 64, 80
6, 100079, Note_on_c, 5, 64, 0
6, 100800, Note_on_c, 5, 67, 80
6, 101039, Note_on_c, 5, 67, 0
6, 101760, Note_on_c, 5, 66, 80
6, 101999, Note_on_c, 5, 66, 0
6, 105600, Note_on_c, 5, 71, 80
6, 105839, Note_on_c, 5, 71, 0
6, 106080, Note_on_c, 5, 71, 80
6, 106319, Note_on_c, 5, 71, 0
6, 106560, Note_on_c, 5, 71, 80
6, 106799, Note_on_c, 5, 71, 0
6, 107040, Note_on_c, 5, 71, 80
6, 107279, Note_on_c, 5, 71, 0
6, 107520, Note_on_c, 5, 71, 80
6, 107759, Note_on_c, 5, 71, 0
6, 108000, Note_on_c, 5, 71, 80
6, 108239, Note_on_c, 5, 71, 0
6, 108480, Note_on_c, 5, 71, 80
6, 108719, Note_on_c, 5, 71, 0
6, 108960, Note_on_c, 5, 71, 80
6, 109199, Note_on_c, 5, 71, 0
6, 109440, Note_on_c, 5, 71, 80
6, 109679, Note_on_c, 5, 71, 0
6, 110400, Note_on_c, 5, 70, 80
6, 111359, Note_on_c, 5, 70, 0
6, 111360, Note_on_c, 5, 71, 80
6, 111599, Note_on_c, 5, 71, 0
6, 112320, Note_on_c, 5, 72, 80
6, 113279, Note_on_c, 5, 72, 0
6, 113280, Note_on_c, 5, 71, 80
6, 113519, Note_on_c, 5, 71, 0
6, 114240, Note_on_c, 5, 67, 80
6, 114479, Note_on_c, 5, 67, 0
6, 115200, Note_on_c, 5, 64, 80
6, 115439, Note_on_c, 5, 64, 0
6, 116160, Note_on_c, 5, 67, 80
6, 116399, Note_on_c, 5, 67, 0
6, 117120, Note_on_c, 5, 71, 80
6, 119999, Note_on_c, 5, 71, 0
6, 120000, Note_on_c, 5, 67, 80
6, 120479, Note_on_c, 5, 67, 0
6, 121920, Note_on_c, 5, 69, 80
6, 123839, Note_on_c, 5, 69, 0
6, 123840, Note_on_c, 5, 66, 80
6, 124319, Note_on_c, 5, 66, 0
6, 124800, Note_on_c, 5, 71, 80
6, 125759, Note_on_c, 5, 71, 0
6, 125760, Note_on_c, 5, 69, 80
6, 126239, Note_on_c, 5, 69, 0
6, 126720, Note_on_c, 5, 67, 80
6, 126959, Note_on_c, 5, 67, 0
6, 127680, Note_on_c, 5, 66, 80
6, 127919, Note_on_c, 5, 66, 0
6, 128640, Note_on_c, 5, 64, 80
6, 129119, Note_on_c, 5, 64, 0
6, 130560, Note_on_c, 5, 59, 80
6, 131039, Note_on_c, 5, 59, 0
6, 132480, Note_on_c, 5, 64, 80
6, 133439, Note_on_c, 5, 64, 0
6, 183360, Note_on_c, 5, 69, 80
6, 185279, Note_on_c, 5, 69, 0
6, 185280, Note_on_c, 5, 66, 80
6, 185759, Note_on_c, 5, 66, 0
6, 186240, Note_on_c, 5, 71, 80
6, 187199, Note_on_c, 5, 71, 0
6, 187200, Note_on_c, 5, 69, 80
6, 187679, Note_on_c, 5, 69, 0
6, 188160, Note_on_c, 5, 67, 80
6, 188399, Note_on_c, 5, 67, 0
6, 189120, Note_on_c, 5, 66, 80
6, 189359, Note_on_c, 5, 66, 0
6, 190080, Note_on_c, 5, 64, 80
6, 190559, Note_on_c, 5, 64, 0
6, 192000, Note_on_c, 5, 59, 80
6, 192479, Note_on_c, 5, 59, 0
6, 193920, Note_on_c, 5, 64, 80
6, 194879, Note_on_c, 5, 64, 0
6, 197760, Note_on_c, 5, 71, 80
6, 197999, Note_on_c, 5, 71, 0
6, 198240, Note_on_c, 5, 71, 80
6, 198479, Note_on_c, 5, 71, 0
6, 198720, Note_on_c, 5, 71, 80
6, 198959, Note_on_c, 5, 71, 0
6, 199200, Note_on_c, 5, 71, 80
6, 199439, Note_on_c, 5, 71, 0
6, 199680, Note_on_c, 5, 71, 80
6, 199919, Note_on_c, 5, 71, 0
6, 200160, Note_on_c, 5, 71, 80
6, 200399, Note_on_c, 5, 71, 0
6, 200640, Note_on_c, 5, 71, 80
6, 200879, Note_on_c, 5, 71, 0
6, 201120, Note_on_c, 5, 71, 80
6, 201359, Note_on_c, 5, 71, 0
6, 201600, Note_on_c, 5, 71, 80
6, 201839, Note_on_c, 5, 71, 0
6, 202560, Note_on_c, 5, 70, 80
6, 203519, Note_on_c, 5, 70, 0
6, 203520, Note_on_c, 5, 71, 80
6, 203759, Note_on_c, 5, 71, 0
6, 204480, Note_on_c, 5, 72, 80
6, 205439, Note_on_c, 5, 72, 0
6, 205440, Note_on_c, 5, 71, 80
6, 205679, Note_on_c, 5, 71, 0
6, 206400, Note_on_c, 5, 67, 80
6, 206639, Note_on_c, 5, 67, 0
6, 207360, Note_on_c, 5, 64, 80
6, 207599, Note_on_c, 5, 64, 0
6, 208320, Note_on_c, 5, 67, 80
6, 208559, Note_on_c, 5, 67, 0
6, 209280, Note_on_c, 5, 71, 80
6, 212159, Note_on_c, 5, 71, 0
6, 212160, Note_on_c, 5, 67, 80
6, 213119, Note_on_c, 5, 67, 0
6, 213120, Note_on_c, 5, 69, 80
6, 213359, Note_on_c, 5, 69, 0
6, 214080, Note_on_c, 5, 66, 80
6, 214319, Note_on_c, 5, 66, 0
6, 215040, Note_on_c, 5, 63, 80
6, 215279, Note_on_c, 5, 63, 0
6, 216000, Note_on_c, 5, 66, 80
6, 216239, Note_on_c, 5, 66, 0
6, 216960, Note_on_c, 5, 69, 80
6, 219839, Note_on_c, 5, 69, 0
6, 219840, Note_on_c, 5, 66, 80
6, 220799, Note_on_c, 5, 66, 0
6, 220800, Note_on_c, 5, 67, 80
6, 221039, Note_on_c, 5, 67, 0
6, 221760, Note_on_c, 5, 66, 80
6, 221999, Note_on_c, 5, 66, 0
6, 222720, Note_on_c, 5, 64, 80
6, 222959, Note_on_c, 5, 64, 0
6, 223680, Note_on_c, 5, 67, 80
6, 223919, Note_on_c, 5, 67, 0
6, 224640, Note_on_c, 5, 66, 80
6, 224879, Note_on_c, 5, 66, 0
6, 228480, Note_on_c, 5, 71, 80
6, 228719, Note_on_c, 5, 71, 0
6, 228960, Note_on_c, 5, 71, 80
6, 229199, Note_on_c, 5, 71, 0
6, 229440, Note_on_c, 5, 71, 80
6, 229679, Note_on_c, 5, 71, 0
6, 229920, Note_on_c, 5, 71, 80
6, 230159, Note_on_c, 5, 71, 0
6, 230400, Note_on_c, 5, 71, 80
6, 230639, Note_on_c, 5, 71, 0
6, 230880, Note_on_c, 5, 71, 80
6, 231119, Note_on_c, 5, 71, 0
6, 231360, Note_on_c, 5, 71, 80
6, 231599, Note_on_c, 5, 71, 0
6, 231840, Note_on_c, 5, 71, 80
6, 232079, Note_on_c, 5, 71, 0
6, 232320, Note_on_c, 5, 71, 80
6, 232559, Note_on_c, 5, 71, 0
6, 233280, Note_on_c, 5, 70, 80
6, 234239, Note_on_c, 5, 70, 0
6, 234240, Note_on_c, 5, 71, 80
6, 234479, Note_on_c, 5, 71, 0
6, 235200, Note_on_c, 5, 72, 80
6, 236159, Note_on_c, 5, 72, 0
6, 236160, Note_on_c, 5, 71, 80
6, 236399, Note_on_c, 5, 71, 0
6, 237120, Note_on_c, 5, 67, 80
6, 237359, Note_on_c, 5, 67, 0
6, 238080, Note_on_c, 5, 64, 80
6, 238319, Note_on_c, 5, 64, 0
6, 239040, Note_on_c, 5, 67, 80
6, 239279, Note_on_c, 5, 67, 0
6, 240000, Note_on_c, 5, 71, 80
6, 242879, Note_on_c, 5, 71, 0
6, 242880, Note_on_c, 5, 67, 80
6, 243359, Note_on_c, 5, 67, 0
6, 244800, Note_on_c, 5, 69, 80
6, 246719, Note_on_c, 5, 69, 0
6, 246720, Note_on_c, 5, 66, 80
6, 247199, Note_on_c, 5, 66, 0
6, 247680, Note_on_c, 5, 71, 80
6, 248639, Note_on_c, 5, 71, 0
6, 248640, Note_on_c, 5, 69, 80
6, 249119, Note_on_c, 5, 69, 0
6, 249600, Note_on_c, 5, 67, 80
6, 249839, Note_on_c, 5, 67, 0
6, 250560, Note_on_c, 5, 66, 80
6, 250799, Note_on_c, 5, 66, 0
6, 251520, Note_on_c, 5, 64, 80
6, 251999, Note_on_c, 5, 64, 0
6, 253440, Note_on_c, 5, 59, 80
6, 253919, Note_on_c, 5, 59, 0
6, 255360, Note_on_c, 5, 64, 80
6, 256319, Note_on_c, 5, 64, 0
6, 289920, Note_on_c, 5, 71, 80
6, 290159, Note_on_c, 5, 71, 0
6, 290400, Note_on_c, 5, 71, 80
6, 290639, Note_on_c, 5, 71, 0
6, 290880, Note_on_c, 5, 71, 80
6, 291119, Note_on_c, 5, 71, 0
6, 291360, Note_on_c, 5, 71, 80
6, 291599, Note_on_c, 5, 71, 0
6, 291840, Note_on_c, 5, 71, 80
6, 292079, Note_on_c, 5, 71, 0
6, 292320, Note_on_c, 5, 71, 80
6, 292559, Note_on_c, 5, 71, 0
6, 292800, Note_on_c, 5, 71, 80
6, 293039, Note_on_c, 5, 71, 0
6, 293280, Note_on_c, 5, 71, 80
6, 293519, Note_on_c, 5, 71, 0
6, 293760, Note_on_c, 5, 71, 80
6, 293999, Note_on_c, 5, 71, 0
6, 294720, Note_on_c, 5, 70, 80
6, 295679, Note_on_c, 5, 70, 0
6, 295680, Note_on_c, 5, 71, 80
6, 295919, Note_on_c, 5, 71, 0
6, 296640, Note_on_c, 5, 72, 80
6, 297599, Note_on_c, 5, 72, 0
6, 297600, Note_on_c, 5, 71, 80
6, 297839, Note_on_c, 5, 71, 0
6, 298560, Note_on_c, 5, 67, 80
6, 298799, Note_on_c, 5, 67, 0
6, 299520, Note_on_c, 5, 64, 80
6, 299759, Note_on_c, 5, 64, 0
6, 300480, Note_on_c, 5, 67, 80
6, 300719, Note_on_c, 5, 67, 0
6, 301440, Note_on_c, 5, 71, 80
6, 304319, Note_on_c, 5, 71, 0
6, 304320, Note_on_c, 5, 67, 80
6, 305279, Note_on_c, 5, 67, 0
6, 305280, Note_on_c, 5, 69, 80
6, 305519, Note_on_c, 5, 69, 0
6, 306240, Note_on_c, 5, 66, 80
6, 306479, Note_on_c, 5, 66, 0
6, 307200, Note_on_c, 5, 63, 80
6, 307439, Note_on_c, 5, 63, 0
6, 308160, Note_on_c, 5, 66, 80
6, 308399, Note_on_c, 5, 66, 0
6, 309120, Note_on_c, 5, 69, 80
6, 311999, Note_on_c, 5, 69, 0
6, 312000, Note_on_c, 5, 66, 80
6, 312959, Note_on_c, 5, 66, 0
6, 312960, Note_on_c, 5, 67, 80
6, 313199, Note_on_c, 5, 67, 0
6, 313920, Note_on_c, 5, 66, 80
6, 314159, Note_on_c, 5, 66, 0
6, 314880, Note_on_c, 5, 64, 80
6, 315119, Note_on_c, 5, 64, 0
6, 315840, Note_on_c, 5, 67, 80
6, 316079, Note_on_c, 5, 67, 0
6, 316800, Note_on_c, 5, 66, 80
6, 317039, Note_on_c, 5, 66, 0
6, 320640, Note_on_c, 5, 71, 80
6, 320879, Note_on_c, 5, 71, 0
6, 321120, Note_on_c, 5, 71, 80
6, 321359, Note_on_c, 5, 71, 0
6, 321600, Note_on_c, 5, 71, 80
6, 321839, Note_on_c, 5, 71, 0
6, 322080, Note_on_c, 5, 71, 80
6, 322319, Note_on_c, 5, 71, 0
6, 322560, Note_on_c, 5, 71, 80
6, 322799, Note_on_c, 5, 71, 0
6, 323040, Note_on_c, 5, 71, 80
6, 323279, Note_on_c, 5, 71, 0
6, 323520, Note_on_c, 5, 71, 80
6, 323759, Note_on_c, 5, 71, 0
6, 324000, Note_on_c, 5, 71, 80
6, 324239, Note_on_c, 5, 71, 0
6, 324480, Note_on_c, 5, 71, 80
6, 324719, Note_on_c, 5, 71, 0
6, 325440, Note_on_c, 5, 70, 80
6, 326399, Note_on_c, 5, 70, 0
6, 326400, Note_on_c, 5, 71, 80
6, 326639, Note_on_c, 5, 71, 0
6, 327360, Note_on_c, 5, 72, 80
6, 328319, Note_on_c, 5, 72, 0
6, 328320, Note_on_c, 5, 71, 80
6, 328559, Note_on_c, 5, 71, 0
6, 329280, Note_on_c, 5, 67, 80
6, 329519, Note_on_c, 5, 67, 0
6, 330240, Note_on_c, 5, 64, 80
6, 330479, Note_on_c, 5, 64, 0
6, 331200, Note_on_c, 5, 67, 80
6, 331439, Note_on_c, 5, 67, 0
6, 332160, Note_on_c, 5, 71, 80
6, 335039, Note_on_c, 5, 71, 0
6, 335040, Note_on_c, 5, 67, 80
6, 335519, Note_on_c, 5, 67, 0
6, 336960, Note_on_c, 5, 69, 80
6, 338879, Note_on_c, 5, 69, 0
6, 338880, Note_on_c, 5, 66, 80
6, 339359, Note_on_c, 5, 66, 0
6, 339840, Note_on_c, 5, 71, 80
6, 340799, Note_on_c, 5, 71, 0
6, 340800, Note_on_c, 5, 69, 80
6, 341279, Note_on_c, 5, 69, 0
6, 341760, Note_on_c, 5, 67, 80
6, 341999, Note_on_c, 5, 67, 0
6, 342720, Note_on_c, 5, 66, 80
6, 342959, Note_on_c, 5, 66, 0
6, 343680, Note_on_c, 5, 64, 80
6, 344159, Note_on_c, 5, 64, 0
6, 345600, Note_on_c, 5, 59, 80
6, 346079, Note_on_c, 5, 59, 0
6, 347520, Note_on_c, 5, 64, 80
6, 348479, Note_on_c, 5, 64, 0
6, 398400, Note_on_c, 5, 69, 80
6, 400319, Note_on_c, 5, 69, 0
6, 400320, Note_on_c, 5, 66, 80
6, 400799, Note_on_c, 5, 66, 0
6, 401280, Note_on_c, 5, 71, 80
6, 402239, Note_on_c, 5, 71, 0
6, 402240, Note_on_c, 5, 69, 80
6, 402719, Note_on_c, 5, 69, 0
6, 403200, Note_on_c, 5, 67, 80
6, 403439, Note_on_c, 5, 67, 0
6, 404160, Note_on_c, 5, 66, 80
6, 404399, Note_on_c, 5, 66, 0
6, 405120, Note_on_c, 5, 64, 80
6, 405599, Note_on_c, 5, 64, 0
6, 407040, Note_on_c, 5, 59, 80
6, 407519, Note_on_c, 5, 59, 0
6, 408960, Note_on_c, 5, 64, 80
6, 409919, Note_on_c, 5, 64, 0
6, 412800, Note_on_c, 5, 71, 80
6, 413039, Note_on_c, 5, 71, 0
6, 413280, Note_on_c, 5, 71, 80
6, 413519, Note_on_c, 5, 71, 0
6, 413760, Note_on_c, 5, 71, 80
6, 413999, Note_on_c, 5, 71, 0
6, 414240, Note_on_c, 5, 71, 80
6, 414479, Note_on_c, 5, 71, 0
6, 414720, Note_on_c, 5, 71, 80
6, 414959, Note_on_c, 5, 71, 0
6, 415200, Note_on_c, 5, 71, 80
6, 415439, Note_on_c, 5, 71, 0
6, 415680, Note_on_c, 5, 71, 80
6, 415919, Note_on_c, 5, 71, 0
6, 416160, Note_on_c, 5, 71, 80
6, 416399, Note_on_c, 5, 71, 0
6, 416640, Note_on_c, 5, 71, 80
6, 416879, Note_on_c, 5, 71, 0
6, 417600, Note_on_c, 5, 70, 80
6, 418559, Note_on_c, 5, 70, 0
6, 418560, Note_on_c, 5, 71, 80
6, 418799, Note_on_c, 5, 71, 0
6, 419520, Note_on_c, 5, 72, 80
6, 420479, Note_on_c, 5, 72, 0
6, 420480, Note_on_c, 5, 71, 80
6, 420719, Note_on_c, 5, 71, 0
6, 421440, Note_on_c, 5, 67, 80
6, 421679, Note_on_c, 5, 67, 0
6, 422400, Note_on_c, 5, 64, 80
6, 422639, Note_on_c, 5, 64, 0
6, 423360, Note_on_c, 5, 67, 80
6, 423599, Note_on_c, 5, 67, 0
6, 424320, Note_on_c, 5, 71, 80
6, 427199, Note_on_c, 5, 71, 0
6, 427200, Note_on_c, 5, 67, 80
6, 428159, Note_on_c, 5, 67, 0
6, 428160, Note_on_c, 5, 69, 80
6, 428399, Note_on_c, 5, 69, 0
6, 429120, Note_on_c, 5, 66, 80
6, 429359, Note_on_c, 5, 66, 0
6, 430080, Note_on_c, 5, 63, 80
6, 430319, Note_on_c, 5, 63, 0
6, 431040, Note_on_c, 5, 66, 80
6, 431279, Note_on_c, 5, 66, 0
6, 432000, Note_on_c, 5, 69, 80
6, 434879, Note_on_c, 5, 69, 0
6, 434880, Note_on_c, 5, 66, 80
6, 435839, Note_on_c, 5, 66, 0
6, 435840, Note_on_c, 5, 67, 80
6, 436079, Note_on_c, 5, 67, 0
6, 436800, Note_on_c, 5, 66, 80
6, 437039, Note_on_c, 5, 66, 0
6, 437760, Note_on_c, 5, 64, 80
6, 437999, Note_on_c, 5, 64, 0
6, 438720, Note_on_c, 5, 67, 80
6, 438959, Note_on_c, 5, 67, 0
6, 439680, Note_on_c, 5, 66, 80
6, 439919, Note_on_c, 5, 66, 0
6, 443520, Note_on_c, 5, 71, 80
6, 443759, Note_on_c, 5, 71, 0
6, 444000, Note_on_c, 5, 71, 80
6, 444239, Note_on_c, 5, 71, 0
6, 444480, Note_on_c, 5, 71, 80
6, 444719, Note_on_c, 5, 71, 0
6, 444960, Note_on_c, 5, 71, 80
6, 445199, Note_on_c, 5, 71, 0
6, 445440, Note_on_c, 5, 71, 80
6, 445679, Note_on_c, 5, 71, 0
6, 445920, Note_on_c, 5, 71, 80
6, 446159, Note_on_c, 5, 71, 0
6, 446400, Note_on_c, 5, 71, 80
6, 446639, Note_on_c, 5, 71, 0
6, 446880, Note_on_c, 5, 71, 80
6, 447119, Note_on_c, 5, 71, 0
6, 447360, Note_on_c, 5, 71, 80
6, 447599, Note_on_c, 5, 71, 0
6, 448320, Note_on_c, 5, 70, 80
6, 449279, Note_on_c, 5, 70, 0
6, 449280, Note_on_c, 5, 71, 80
6, 449519, Note_on_c, 5, 71, 0
6, 450240, Note_on_c, 5, 72, 80
6, 451199, Note_on_c, 5, 72, 0
6, 451200, Note_on_c, 5, 71, 80
6, 451439, Note_on_c, 5, 71, 0
6, 452160, Note_on_c, 5, 67, 80
6, 452399, Note_on_c, 5, 67, 0
6, 453120, Note_on_c, 5, 64, 80
6, 453359, Note_on_c, 5, 64, 0
6, 454080, Note_on_c, 5, 67, 80
6, 454319, Note_on_c, 5, 67, 0
6, 455040, Note_on_c, 5, 71, 80
6, 457919, Note_on_c, 5, 71, 0
6, 457920, Note_on_c, 5, 67, 80
6, 458399, Note_on_c, 5, 67, 0
6, 459840, Note_on_c, 5, 69, 80
6, 461759, Note_on_c, 5, 69, 0
6, 461760, Note_on_c, 5, 66, 80
6, 462239, Note_on_c, 5, 66, 0
6, 462720, Note_on_c, 5, 71, 80
6, 463679, Note_on_c, 5, 71, 0
6, 463680, Note_on_c, 5, 69, 80
6, 464159, Note_on_c, 5, 69, 0
6, 464640, Note_on_c, 5, 67, 80
6, 464879, Note_on_c, 5, 67, 0
6, 465600, Note_on_c, 5, 66, 80
6, 465839, Note_on_c, 5, 66, 0
6, 466560, Note_on_c, 5, 64, 80
6, 467039, Note_on_c, 5, 64, 0
6, 468480, Note_on_c, 5, 59, 80
6, 468959, Note_on_c, 5, 59, 0
6, 470400, Note_on_c, 5, 64, 80
6, 471359, Note_on_c, 5, 64, 0
6, 474240, Note_on_c, 5, 71, 80
6, 474479, Note_on_c, 5, 71, 0
6, 474720, Note_on_c, 5, 71, 80
6, 474959, Note_on_c, 5, 71, 0
6, 475200, Note_on_c, 5, 71, 80
6, 475439, Note_on_c, 5, 71, 0
6, 475680, Note_on_c, 5, 71, 80
6, 475919, Note_on_c, 5, 71, 0
6, 476160, Note_on_c, 5, 71, 80
6, 476399, Note_on_c, 5, 71, 0
6, 476640, Note_on_c, 5, 71, 80
6, 476879, Note_on_c, 5, 71, 0
6, 477120, Note_on_c, 5, 71, 80
6, 477359, Note_on_c, 5, 71, 0
6, 477600, Note_on_c, 5, 71, 80
6, 477839, Note_on_c, 5, 71, 0
6, 478080, Note_on_c, 5, 71, 80
6, 478319, Note_on_c, 5, 71, 0
6, 479040, Note_on_c, 5, 70, 80
6, 479999, Note_on_c, 5, 70, 0
6, 480000, Note_on_c, 5, 71, 80
6, 480239, Note_on_c, 5, 71, 0
6, 480960, Note_on_c, 5, 72, 80
6, 481919, Note_on_c, 5, 72, 0
6, 481920, Note_on_c, 5, 71, 80
6, 482159, Note_on_c, 5, 71, 0
6, 482880, Note_on_c, 5, 67, 80
6, 483119, Note_on_c, 5, 67, 0
6, 483840, Note_on_c, 5, 64, 80
6, 484079, Note_on_c, 5, 64, 0
6, 484800, Note_on_c, 5, 67, 80
6, 485039, Note_on_c, 5, 67, 0
6, 485760, Note_on_c, 5, 71, 80
6, 488639, Note_on_c, 5, 71, 0
6, 488640, Note_on_c, 5, 67, 80
6, 489599, Note_on_c, 5, 67, 0
6, 489600, Note_on_c, 5, 69, 80
6, 489839, Note_on_c, 5, 69, 0
6, 490560, Note_on_c, 5, 66, 80
6, 490799, Note_on_c, 5, 66, 0
6, 491520, Note_on_c, 5, 63, 80
6, 491759, Note_on_c, 5, 63, 0
6, 492480, Note_on_c, 5, 66, 80
6, 492719, Note_on_c, 5, 66, 0
6, 493440, Note_on_c, 5, 69, 80
6, 496319, Note_on_c, 5, 69, 0
6, 496320, Note_on_c, 5, 66, 80
6, 497279, Note_on_c, 5, 66, 0
6, 497280, Note_on_c, 5, 67, 80
6, 497519, Note_on_c, 5, 67, 0
6, 498240, Note_on_c, 5, 66, 80
6, 498479, Note_on_c, 5, 66, 0
6, 499200, Note_on_c, 5, 64, 80
6, 499439, Note_on_c, 5, 64, 0
6, 500160, Note_on_c, 5, 67, 80
6, 500399, Note_on_c, 5, 67, 0
6, 501120, Note_on_c, 5, 66, 80
6, 501359, Note_on_c, 5, 66, 0
6, 504960, Note_on_c, 5, 71, 80
6, 505199, Note_on_c, 5, 71, 0
6, 505440, Note_on_c, 5, 71, 80
6, 505679, Note_on_c, 5, 71, 0
6, 505920, Note_on_c, 5, 71, 80
6, 506159, Note_on_c, 5, 71, 0
6, 506400, Note_on_c, 5, 71, 80
6, 506639, Note_on_c, 5, 71, 0
6, 506880, Note_on_c, 5, 71, 80
6, 507119, Note_on_c, 5, 71, 0
6, 507360, Note_on_c, 5, 71, 80
6, 507599, Note_on_c, 5, 71, 0
6, 507840, Note_on_c, 5, 71, 80
6, 508079, Note_on_c, 5, 71, 0
6, 508320, Note_on_c, 5, 71, 80
6, 508559, Note_on_c, 5, 71, 0
6, 508800, Note_on_c, 5, 71, 80
6, 509039, Note_on_c, 5, 71, 0
6, 509760, Note_on_c, 5, 70, 80
6, 510719, Note_on_c, 5, 70, 0
6, 510720, Note_on_c, 5, 71, 80
6, 510959, Note_on_c, 5, 71, 0
6, 511680, Note_on_c, 5, 72, 80
6, 512639, Note_on_c, 5, 72, 0
6, 512640, Note_on_c, 5, 71, 80
6, 512879, Note_on_c, 5, 71, 0
6, 513600, Note_on_c, 5, 67, 80
6, 513839, Note_on_c, 5, 67, 0
6, 514560, Note_on_c, 5, 64, 80
6, 514799, Note_on_c, 5, 64, 0
6, 515520, Note_on_c, 5, 67, 80
6, 515759, Note_on_c, 5, 67, 0
6, 516480, Note_on_c, 5, 71, 80
6, 519359, Note_on_c, 5, 71, 0
6, 519360, Note_on_c, 5, 67, 80
6, 519839, Note_on_c, 5, 67, 0
6, 521280, Note_on_c, 5, 69, 80
6, 523199, Note_on_c, 5, 69, 0
6, 523200, Note_on_c, 5, 66, 80
6, 523679, Note_on_c, 5, 66, 0
6, 524160, Note_on_c, 5, 71, 80
6, 525119, Note_on_c, 5, 71, 0
6, 525120, Note_on_c, 5, 69, 80
6, 525599, Note_on_c, 5, 69, 0
6, 526080, Note_on_c, 5, 67, 80
6, 526319, Note_on_c, 5, 67, 0
6, 527040, Note_on_c, 5, 66, 80
6, 527279, Note_on_c, 5, 66, 0
6, 528000, Note_on_c, 5, 64, 80
6, 528479, Note_on_c, 5, 64, 0
6, 529920, Note_on_c, 5, 59, 80
6, 530399, Note_on_c, 5, 59, 0
6, 531840, Note_on_c, 5, 64, 80
6, 532799, Note_on_c, 5, 64, 0
6, 536640, Note_on_c, 5, 69, 80
6, 538559, Note_on_c, 5, 69, 0
6, 538560, Note_on_c, 5, 66, 80
6, 539039, Note_on_c, 5, 66, 0
6, 539520, Note_on_c, 5, 71, 80
6, 540479, Note_on_c, 5, 71, 0
6, 540480, Note_on_c, 5, 69, 80
6, 540959, Note_on_c, 5, 69, 0
6, 541440, Note_on_c, 5, 67, 80
6, 541679, Note_on_c, 5, 67, 0
6, 542400, Note_on_c, 5, 66, 80
6, 542639, Note_on_c, 5, 66, 0
6, 543360, Note_on_c, 5, 64, 80
6, 543839, Note_on_c, 5, 64, 0
6, 545280, Note_on_c, 5, 59, 80
6, 545759, Note_on_c, 5, 59, 0
6, 547200, Note_on_c, 5, 64, 80
6, 548159, Note_on_c, 5, 64, 0
6, 552960, Note_on_c, 5, 37, 80
6, 552960, Note_on_c, 5, 39, 80
6, 552960, Note_on_c, 5, 40, 80
6, 552960, Note_on_c, 5, 42, 80
6, 552960, Note_on_c, 5, 44, 80
6, 552960, Note_on_c, 5, 47, 80
6, 552960, Note_on_c, 5, 51, 80
6, 552960, Note_on_c, 5, 53, 80
6, 552960, Note_on_c, 5, 55, 80
6, 552960, Note_on_c, 5, 58, 80
6, 552960, Note_on_c, 5, 60, 80
6, 552960, Note_on_c, 5, 62, 80
6, 552960, Note_on_c, 5, 65, 80
6, 552960, Note_on_c, 5, 67, 80
6, 552960, Note_on_c, 5, 68, 80
6, 552960, Note_on_c, 5, 70, 80
6, 552960, Note_on_c, 5, 72, 80
6, 552960, Note_on_c, 5, 74, 80
6, 552960, Note_on_c, 5, 77, 80
6, 552960, Note_on_c, 5, 80, 80
6, 554879, Note_on_c, 5, 37, 0
6, 554879, Note_on_c, 5, 39, 0
6, 554879, Note_on_c, 5, 40, 0
6, 554879, Note_on_c, 5, 42, 0
6, 554879, Note_on_c, 5, 44, 0
6, 554879, Note_on_c, 5, 47, 0
6, 554879, Note_on_c, 5, 51, 0
6, 554879, Note_on_c, 5, 53, 0
6, 554879, Note_on_c, 5, 55, 0
6, 554879, Note_on_c, 5, 58, 0
6, 554879, Note_on_c, 5, 60, 0
6, 554879, Note_on_c, 5, 62, 0
6, 554879, Note_on_c, 5, 65, 0
6, 554879, Note_on_c, 5, 67, 0
6, 554879, Note_on_c, 5, 68, 0
6, 554879, Note_on_c, 5, 70, 0
6, 554879, Note_on_c, 5, 72, 0
6, 554879, Note_on_c, 5, 74, 0
6, 554879, Note_on_c, 5, 77, 0
6, 554879, Note_on_c, 5, 80, 0
6, 554880, End_track
7, 0, Start_track
7, 0, Key_signature, 0, "major"
7, 0, Control_c, 7, 121, 0
7, 0, Program_c, 7, 57
7, 0, Control_c, 7, 7, 100
7, 0, Control_c, 7, 10, 64
7, 0, Control_c, 7, 91, 0
7, 0, Control_c, 7, 93, 0
7, 0, MIDI_port, 0
7, 137280, Note_on_c, 7, 45, 80
7, 137519, Note_on_c, 7, 45, 0
7, 139200, Note_on_c, 7, 45, 80
7, 139439, Note_on_c, 7, 45, 0
7, 141120, Note_on_c, 7, 45, 80
7, 141359, Note_on_c, 7, 45, 0
7, 143040, Note_on_c, 7, 45, 80
7, 143279, Note_on_c, 7, 45, 0
7, 144960, Note_on_c, 7, 45, 80
7, 145199, Note_on_c, 7, 45, 0
7, 146880, Note_on_c, 7, 45, 80
7, 147119, Note_on_c, 7, 45, 0
7, 148800, Note_on_c, 7, 45, 80
7, 149039, Note_on_c, 7, 45, 0
7, 150720, Note_on_c, 7, 45, 80
7, 150959, Note_on_c, 7, 45, 0
7, 152640, Note_on_c, 7, 43, 80
7, 152879, Note_on_c, 7, 43, 0
7, 154560, Note_on_c, 7, 43, 80
7, 154799, Note_on_c, 7, 43, 0
7, 156480, Note_on_c, 7, 43, 80
7, 156719, Note_on_c, 7, 43, 0
7, 158400, Note_on_c, 7, 43, 80
7, 158639, Note_on_c, 7, 43, 0
7, 159360, Note_on_c, 7, 54, 80
7, 159839, Note_on_c, 7, 54, 0
7, 160320, Note_on_c, 7, 55, 80
7, 160799, Note_on_c, 7, 55, 0
7, 161280, Note_on_c, 7, 57, 80
7, 161759, Note_on_c, 7, 57, 0
7, 162240, Note_on_c, 7, 54, 80
7, 162719, Note_on_c, 7, 54, 0
7, 163200, Note_on_c, 7, 59, 80
7, 163679, Note_on_c, 7, 59, 0
7, 165120, Note_on_c, 7, 35, 80
7, 167039, Note_on_c, 7, 35, 0
7, 168000, Note_on_c, 7, 45, 80
7, 168239, Note_on_c, 7, 45, 0
7, 169920, Note_on_c, 7, 45, 80
7, 170159, Note_on_c, 7, 45, 0
7, 171840, Note_on_c, 7, 45, 80
7, 172079, Note_on_c, 7, 45, 0
7, 173760, Note_on_c, 7, 45, 80
7, 173999, Note_on_c, 7, 45, 0
7, 175680, Note_on_c, 7, 45, 80
7, 175919, Note_on_c, 7, 45, 0
7, 177600, Note_on_c, 7, 45, 80
7, 177839, Note_on_c, 7, 45, 0
7, 179520, Note_on_c, 7, 45, 80
7, 179759, Note_on_c, 7, 45, 0
7, 181440, Note_on_c, 7, 45, 80
7, 181679, Note_on_c, 7, 45, 0
7, 188160, Note_on_c, 7, 43, 80
7, 188399, Note_on_c, 7, 43, 0
7, 189120, Note_on_c, 7, 42, 80
7, 189359, Note_on_c, 7, 42, 0
7, 190080, Note_on_c, 7, 40, 80
7, 190559, Note_on_c, 7, 40, 0
7, 192000, Note_on_c, 7, 35, 80
7, 192479, Note_on_c, 7, 35, 0
7, 352320, Note_on_c, 7, 45, 80
7, 352559, Note_on_c, 7, 45, 0
7, 354240, Note_on_c, 7, 45, 80
7, 354479, Note_on_c, 7, 45, 0
7, 356160, Note_on_c, 7, 45, 80
7, 356399, Note_on_c, 7, 45, 0
7, 358080, Note_on_c, 7, 45, 80
7, 358319, Note_on_c, 7, 45, 0
7, 360000, Note_on_c, 7, 45, 80
7, 360239, Note_on_c, 7, 45, 0
7, 361920, Note_on_c, 7, 45, 80
7, 362159, Note_on_c, 7, 45, 0
7, 363840, Note_on_c, 7, 45, 80
7, 364079, Note_on_c, 7, 45, 0
7, 365760, Note_on_c, 7, 45, 80
7, 365999, Note_on_c, 7, 45, 0
7, 367680, Note_on_c, 7, 43, 80
7, 367919, Note_on_c, 7, 43, 0
7, 369600, Note_on_c, 7, 43, 80
7, 369839, Note_on_c, 7, 43, 0
7, 371520, Note_on_c, 7, 43, 80
7, 371759, Note_on_c, 7, 43, 0
7, 373440, Note_on_c, 7, 43, 80
7, 373679, Note_on_c, 7, 43, 0
7, 374400, Note_on_c, 7, 54, 80
7, 374879, Note_on_c, 7, 54, 0
7, 375360, Note_on_c, 7, 55, 80
7, 375839, Note_on_c, 7, 55, 0
7, 376320, Note_on_c, 7, 57, 80
7, 376799, Note_on_c, 7, 57, 0
7, 377280, Note_on_c, 7, 54, 80
7, 377759, Note_on_c, 7, 54, 0
7, 378240, Note_on_c, 7, 59, 80
7, 378719, Note_on_c, 7, 59, 0
7, 380160, Note_on_c, 7, 35, 80
7, 382079, Note_on_c, 7, 35, 0
7, 383040, Note_on_c, 7, 45, 80
7, 383279, Note_on_c, 7, 45, 0
7, 384960, Note_on_c, 7, 45, 80
7, 385199, Note_on_c, 7, 45, 0
7, 386880, Note_on_c, 7, 45, 80
7, 387119, Note_on_c, 7, 45, 0
7, 388800, Note_on_c, 7, 45, 80
7, 389039, Note_on_c, 7, 45, 0
7, 390720, Note_on_c, 7, 45, 80
7, 390959, Note_on_c, 7, 45, 0
7, 392640, Note_on_c, 7, 45, 80
7, 392879, Note_on_c, 7, 45, 0
7, 394560, Note_on_c, 7, 45, 80
7, 394799, Note_on_c, 7, 45, 0
7, 396480, Note_on_c, 7, 45, 80
7, 396719, Note_on_c, 7, 45, 0
7, 403200, Note_on_c, 7, 43, 80
7, 403439, Note_on_c, 7, 43, 0
7, 404160, Note_on_c, 7, 42, 80
7, 404399, Note_on_c, 7, 42, 0
7, 405120, Note_on_c, 7, 40, 80
7, 405599, Note_on_c, 7, 40, 0
7, 407040, Note_on_c, 7, 35, 80
7, 407519, Note_on_c, 7, 35, 0
7, 552960, Note_on_c, 7, 28, 80
7, 552960, Note_on_c, 7, 30, 80
7, 552960, Note_on_c, 7, 31, 80
7, 552960, Note_on_c, 7, 33, 80
7, 552960, Note_on_c, 7, 35, 80
7, 552960, Note_on_c, 7, 38, 80
7, 552960, Note_on_c, 7, 42, 80
7, 552960, Note_on_c, 7, 44, 80
7, 552960, Note_on_c, 7, 46, 80
7, 552960, Note_on_c, 7, 49, 80
7, 552960, Note_on_c, 7, 51, 80
7, 552960, Note_on_c, 7, 53, 80
7, 552960, Note_on_c, 7, 56, 80
7, 552960, Note_on_c, 7, 58, 80
7, 552960, Note_on_c, 7, 59, 80
7, 552960, Note_on_c, 7, 61, 80
7, 552960, Note_on_c, 7, 63, 80
7, 552960, Note_on_c, 7, 65, 80
7, 552960, Note_on_c, 7, 68, 80
7, 552960, Note_on_c, 7, 71, 80
7, 554879, Note_on_c, 7, 28, 0
7, 554879, Note_on_c, 7, 30, 0
7, 554879, Note_on_c, 7, 31, 0
7, 554879, Note_on_c, 7, 33, 0
7, 554879, Note_on_c, 7, 35, 0
7, 554879, Note_on_c, 7, 38, 0
7, 554879, Note_on_c, 7, 42, 0
7, 554879, Note_on_c, 7, 44, 0
7, 554879, Note_on_c, 7, 46, 0
7, 554879, Note_on_c, 7, 49, 0
7, 554879, Note_on_c, 7, 51, 0
7, 554879, Note_on_c, 7, 53, 0
7, 554879, Note_on_c, 7, 56, 0
7, 554879, Note_on_c, 7, 58, 0
7, 554879, Note_on_c, 7, 59, 0
7, 554879, Note_on_c, 7, 61, 0
7, 554879, Note_on_c, 7, 63, 0
7, 554879, Note_on_c, 7, 65, 0
7, 554879, Note_on_c, 7, 68, 0
7, 554879, Note_on_c, 7, 71, 0
7, 554880, End_track
8, 0, Start_track
8, 0, Key_signature, 0, "major"
8, 0, Control_c, 8, 121, 0
8, 0, Program_c, 8, 58
8, 0, Control_c, 8, 7, 100
8, 0, Control_c, 8, 10, 64
8, 0, Control_c, 8, 91, 0
8, 0, Control_c, 8, 93, 0
8, 0, MIDI_port, 0
8, 6720, Note_on_c, 8, 43, 80
8, 6959, Note_on_c, 8, 43, 0
8, 8640, Note_on_c, 8, 43, 80
8, 8879, Note_on_c, 8, 43, 0
8, 10560, Note_on_c, 8, 43, 80
8, 10799, Note_on_c, 8, 43, 0
8, 12480, Note_on_c, 8, 43, 80
8, 12719, Note_on_c, 8, 43, 0
8, 14400, Note_on_c, 8, 43, 80
8, 14639, Note_on_c, 8, 43, 0
8, 16320, Note_on_c, 8, 43, 80
8, 16559, Note_on_c, 8, 43, 0
8, 18240, Note_on_c, 8, 43, 80
8, 18479, Note_on_c, 8, 43, 0
8, 20160, Note_on_c, 8, 43, 80
8, 20399, Note_on_c, 8, 43, 0
8, 22080, Note_on_c, 8, 43, 80
8, 22319, Note_on_c, 8, 43, 0
8, 24000, Note_on_c, 8, 43, 80
8, 24239, Note_on_c, 8, 43, 0
8, 25920, Note_on_c, 8, 43, 80
8, 26159, Note_on_c, 8, 43, 0
8, 27840, Note_on_c, 8, 43, 80
8, 28079, Note_on_c, 8, 43, 0
8, 29760, Note_on_c, 8, 42, 80
8, 29999, Note_on_c, 8, 42, 0
8, 31680, Note_on_c, 8, 42, 80
8, 31919, Note_on_c, 8, 42, 0
8, 33600, Note_on_c, 8, 42, 80
8, 33839, Note_on_c, 8, 42, 0
8, 35520, Note_on_c, 8, 42, 80
8, 35759, Note_on_c, 8, 42, 0
8, 37440, Note_on_c, 8, 43, 80
8, 37679, Note_on_c, 8, 43, 0
8, 39360, Note_on_c, 8, 40, 80
8, 39599, Note_on_c, 8, 40, 0
8, 40320, Note_on_c, 8, 42, 80
8, 40559, Note_on_c, 8, 42, 0
8, 42240, Note_on_c, 8, 47, 80
8, 44159, Note_on_c, 8, 47, 0
8, 45120, Note_on_c, 8, 43, 80
8, 45359, Note_on_c, 8, 43, 0
8, 47040, Note_on_c, 8, 43, 80
8, 47279, Note_on_c, 8, 43, 0
8, 48960, Note_on_c, 8, 43, 80
8, 49199, Note_on_c, 8, 43, 0
8, 50880, Note_on_c, 8, 43, 80
8, 51119, Note_on_c, 8, 43, 0
8, 52800, Note_on_c, 8, 43, 80
8, 53039, Note_on_c, 8, 43, 0
8, 54720, Note_on_c, 8, 43, 80
8, 54959, Note_on_c, 8, 43, 0
8, 56640, Note_on_c, 8, 43, 80
8, 56879, Note_on_c, 8, 43, 0
8, 58560, Note_on_c, 8, 43, 80
8, 58799, Note_on_c, 8, 43, 0
8, 60480, Note_on_c, 8, 43, 80
8, 60719, Note_on_c, 8, 43, 0
8, 62400, Note_on_c, 8, 43, 80
8, 62639, Note_on_c, 8, 43, 0
8, 64320, Note_on_c, 8, 47, 80
8, 64559, Note_on_c, 8, 47, 0
8, 66240, Note_on_c, 8, 47, 80
8, 66479, Note_on_c, 8, 47, 0
8, 67200, Note_on_c, 8, 40, 80
8, 67679, Note_on_c, 8, 40, 0
8, 69120, Note_on_c, 8, 51, 80
8, 69599, Note_on_c, 8, 51, 0
8, 71040, Note_on_c, 8, 40, 80
8, 71999, Note_on_c, 8, 40, 0
8, 75840, Note_on_c, 8, 43, 80
8, 76079, Note_on_c, 8, 43, 0
8, 77760, Note_on_c, 8, 43, 80
8, 77999, Note_on_c, 8, 43, 0
8, 79680, Note_on_c, 8, 43, 80
8, 79919, Note_on_c, 8, 43, 0
8, 81600, Note_on_c, 8, 43, 80
8, 81839, Note_on_c, 8, 43, 0
8, 83520, Note_on_c, 8, 43, 80
8, 83759, Note_on_c, 8, 43, 0
8, 85440, Note_on_c, 8, 43, 80
8, 85679, Note_on_c, 8, 43, 0
8, 87360, Note_on_c, 8, 43, 80
8, 87599, Note_on_c, 8, 43, 0
8, 89280, Note_on_c, 8, 43, 80
8, 89519, Note_on_c, 8, 43, 0
8, 91200, Note_on_c, 8, 42, 80
8, 91439, Note_on_c, 8, 42, 0
8, 93120, Note_on_c, 8, 42, 80
8, 93359, Note_on_c, 8, 42, 0
8, 95040, Note_on_c, 8, 42, 80
8, 95279, Note_on_c, 8, 42, 0
8, 96960, Note_on_c, 8, 42, 80
8, 97199, Note_on_c, 8, 42, 0
8, 98880, Note_on_c, 8, 43, 80
8, 99119, Note_on_c, 8, 43, 0
8, 100800, Note_on_c, 8, 40, 80
8, 101039, Note_on_c, 8, 40, 0
8, 101760, Note_on_c, 8, 42, 80
8, 101999, Note_on_c, 8, 42, 0
8, 103680, Note_on_c, 8, 47, 80
8, 105599, Note_on_c, 8, 47, 0
8, 106560, Note_on_c, 8, 43, 80
8, 106799, Note_on_c, 8, 43, 0
8, 108480, Note_on_c, 8, 43, 80
8, 108719, Note_on_c, 8, 43, 0
8, 110400, Note_on_c, 8, 43, 80
8, 110639, Note_on_c, 8, 43, 0
8, 112320, Note_on_c, 8, 43, 80
8, 112559, Note_on_c, 8, 43, 0
8, 114240, Note_on_c, 8, 43, 80
8, 114479, Note_on_c, 8, 43, 0
8, 116160, Note_on_c, 8, 43, 80
8, 116399, Note_on_c, 8, 43, 0
8, 118080, Note_on_c, 8, 43, 80
8, 118319, Note_on_c, 8, 43, 0
8, 120000, Note_on_c, 8, 43, 80
8, 120239, Note_on_c, 8, 43, 0
8, 121920, Note_on_c, 8, 43, 80
8, 122159, Note_on_c, 8, 43, 0
8, 123840, Note_on_c, 8, 43, 80
8, 124079, Note_on_c, 8, 43, 0
8, 125760, Note_on_c, 8, 47, 80
8, 125999, Note_on_c, 8, 47, 0
8, 127680, Note_on_c, 8, 47, 80
8, 127919, Note_on_c, 8, 47, 0
8, 128640, Note_on_c, 8, 40, 80
8, 129119, Note_on_c, 8, 40, 0
8, 130560, Note_on_c, 8, 51, 80
8, 131039, Note_on_c, 8, 51, 0
8, 132480, Note_on_c, 8, 40, 80
8, 133439, Note_on_c, 8, 40, 0
8, 137280, Note_on_c, 8, 45, 80
8, 137519, Note_on_c, 8, 45, 0
8, 139200, Note_on_c, 8, 45, 80
8, 139439, Note_on_c, 8, 45, 0
8, 141120, Note_on_c, 8, 45, 80
8, 141359, Note_on_c, 8, 45, 0
8, 143040, Note_on_c, 8, 45, 80
8, 143279, Note_on_c, 8, 45, 0
8, 144960, Note_on_c, 8, 45, 80
8, 145199, Note_on_c, 8, 45, 0
8, 146880, Note_on_c, 8, 45, 80
8, 147119, Note_on_c, 8, 45, 0
8, 148800, Note_on_c, 8, 45, 80
8, 149039, Note_on_c, 8, 45, 0
8, 150720, Note_on_c, 8, 45, 80
8, 150959, Note_on_c, 8, 45, 0
8, 152640, Note_on_c, 8, 43, 80
8, 152879, Note_on_c, 8, 43, 0
8, 154560, Note_on_c, 8, 43, 80
8, 154799, Note_on_c, 8, 43, 0
8, 156480, Note_on_c, 8, 43, 80
8, 156719, Note_on_c, 8, 43, 0
8, 158400, Note_on_c, 8, 43, 80
8, 158639, Note_on_c, 8, 43, 0
8, 159360, Note_on_c, 8, 54, 80
8, 159839, Note_on_c, 8, 54, 0
8, 160320, Note_on_c, 8, 55, 80
8, 160799, Note_on_c, 8, 55, 0
8, 161280, Note_on_c, 8, 57, 80
8, 161759, Note_on_c, 8, 57, 0
8, 162240, Note_on_c, 8, 54, 80
8, 162719, Note_on_c, 8, 54, 0
8, 163200, Note_on_c, 8, 59, 80
8, 163679, Note_on_c, 8, 59, 0
8, 165120, Note_on_c, 8, 47, 80
8, 167039, Note_on_c, 8, 47, 0
8, 168000, Note_on_c, 8, 45, 80
8, 168239, Note_on_c, 8, 45, 0
8, 169920, Note_on_c, 8, 45, 80
8, 170159, Note_on_c, 8, 45, 0
8, 171840, Note_on_c, 8, 45, 80
8, 172079, Note_on_c, 8, 45, 0
8, 173760, Note_on_c, 8, 45, 80
8, 173999, Note_on_c, 8, 45, 0
8, 175680, Note_on_c, 8, 45, 80
8, 175919, Note_on_c, 8, 45, 0
8, 177600, Note_on_c, 8, 45, 80
8, 177839, Note_on_c, 8, 45, 0
8, 179520, Note_on_c, 8, 45, 80
8, 179759, Note_on_c, 8, 45, 0
8, 181440, Note_on_c, 8, 45, 80
8, 181679, Note_on_c, 8, 45, 0
8, 183360, Note_on_c, 8, 43, 80
8, 183599, Note_on_c, 8, 43, 0
8, 185280, Note_on_c, 8, 43, 80
8, 185519, Note_on_c, 8, 43, 0
8, 186240, Note_on_c, 8, 59, 80
8, 187199, Note_on_c, 8, 59, 0
8, 187200, Note_on_c, 8, 57, 80
8, 187679, Note_on_c, 8, 57, 0
8, 188160, Note_on_c, 8, 55, 80
8, 188399, Note_on_c, 8, 55, 0
8, 189120, Note_on_c, 8, 54, 80
8, 189359, Note_on_c, 8, 54, 0
8, 190080, Note_on_c, 8, 52, 80
8, 190559, Note_on_c, 8, 52, 0
8, 192000, Note_on_c, 8, 47, 80
8, 192479, Note_on_c, 8, 47, 0
8, 193920, Note_on_c, 8, 40, 80
8, 194879, Note_on_c, 8, 40, 0
8, 198720, Note_on_c, 8, 43, 80
8, 198959, Note_on_c, 8, 43, 0
8, 200640, Note_on_c, 8, 43, 80
8, 200879, Note_on_c, 8, 43, 0
8, 202560, Note_on_c, 8, 43, 80
8, 202799, Note_on_c, 8, 43, 0
8, 204480, Note_on_c, 8, 43, 80
8, 204719, Note_on_c, 8, 43, 0
8, 206400, Note_on_c, 8, 43, 80
8, 206639, Note_on_c, 8, 43, 0
8, 208320, Note_on_c, 8, 43, 80
8, 208559, Note_on_c, 8, 43, 0
8, 210240, Note_on_c, 8, 43, 80
8, 210479, Note_on_c, 8, 43, 0
8, 212160, Note_on_c, 8, 43, 80
8, 212399, Note_on_c, 8, 43, 0
8, 214080, Note_on_c, 8, 42, 80
8, 214319, Note_on_c, 8, 42, 0
8, 216000, Note_on_c, 8, 42, 80
8, 216239, Note_on_c, 8, 42, 0
8, 217920, Note_on_c, 8, 42, 80
8, 218159, Note_on_c, 8, 42, 0
8, 219840, Note_on_c, 8, 42, 80
8, 220079, Note_on_c, 8, 42, 0
8, 221760, Note_on_c, 8, 43, 80
8, 221999, Note_on_c, 8, 43, 0
8, 223680, Note_on_c, 8, 40, 80
8, 223919, Note_on_c, 8, 40, 0
8, 224640, Note_on_c, 8, 42, 80
8, 224879, Note_on_c, 8, 42, 0
8, 226560, Note_on_c, 8, 47, 80
8, 228479, Note_on_c, 8, 47, 0
8, 229440, Note_on_c, 8, 43, 80
8, 229679, Note_on_c, 8, 43, 0
8, 231360, Note_on_c, 8, 43, 80
8, 231599, Note_on_c, 8, 43, 0
8, 233280, Note_on_c, 8, 43, 80
8, 233519, Note_on_c, 8, 43, 0
8, 235200, Note_on_c, 8, 43, 80
8, 235439, Note_on_c, 8, 43, 0
8, 237120, Note_on_c, 8, 43, 80
8, 237359, Note_on_c, 8, 43, 0
8, 239040, Note_on_c, 8, 43, 80
8, 239279, Note_on_c, 8, 43, 0
8, 240960, Note_on_c, 8, 43, 80
8, 241199, Note_on_c, 8, 43, 0
8, 242880, Note_on_c, 8, 43, 80
8, 243119, Note_on_c, 8, 43, 0
8, 244800, Note_on_c, 8, 43, 80
8, 245039, Note_on_c, 8, 43, 0
8, 246720, Note_on_c, 8, 43, 80
8, 246959, Note_on_c, 8, 43, 0
8, 248640, Note_on_c, 8, 47, 80
8, 248879, Note_on_c, 8, 47, 0
8, 250560, Note_on_c, 8, 47, 80
8, 250799, Note_on_c, 8, 47, 0
8, 251520, Note_on_c, 8, 40, 80
8, 251999, Note_on_c, 8, 40, 0
8, 253440, Note_on_c, 8, 51, 80
8, 253919, Note_on_c, 8, 51, 0
8, 255360, Note_on_c, 8, 40, 80
8, 256319, Note_on_c, 8, 40, 0
8, 260160, Note_on_c, 8, 43, 80
8, 260399, Note_on_c, 8, 43, 0
8, 262080, Note_on_c, 8, 43, 80
8, 262319, Note_on_c, 8, 43, 0
8, 264000, Note_on_c, 8, 43, 80
8, 264239, Note_on_c, 8, 43, 0
8, 265920, Note_on_c, 8, 43, 80
8, 266159, Note_on_c, 8, 43, 0
8, 267840, Note_on_c, 8, 43, 80
8, 268079, Note_on_c, 8, 43, 0
8, 269760, Note_on_c, 8, 43, 80
8, 269999, Note_on_c, 8, 43, 0
8, 271680, Note_on_c, 8, 43, 80
8, 271919, Note_on_c, 8, 43, 0
8, 273600, Note_on_c, 8, 43, 80
8, 273839, Note_on_c, 8, 43, 0
8, 275520, Note_on_c, 8, 43, 80
8, 275759, Note_on_c, 8, 43, 0
8, 277440, Note_on_c, 8, 43, 80
8, 277679, Note_on_c, 8, 43, 0
8, 279360, Note_on_c, 8, 43, 80
8, 279599, Note_on_c, 8, 43, 0
8, 281280, Note_on_c, 8, 43, 80
8, 281519, Note_on_c, 8, 43, 0
8, 283200, Note_on_c, 8, 43, 80
8, 283439, Note_on_c, 8, 43, 0
8, 285120, Note_on_c, 8, 43, 80
8, 285359, Note_on_c, 8, 43, 0
8, 287040, Note_on_c, 8, 43, 80
8, 287279, Note_on_c, 8, 43, 0
8, 288960, Note_on_c, 8, 43, 80
8, 289199, Note_on_c, 8, 43, 0
8, 290880, Note_on_c, 8, 43, 80
8, 291119, Note_on_c, 8, 43, 0
8, 292800, Note_on_c, 8, 43, 80
8, 293039, Note_on_c, 8, 43, 0
8, 294720, Note_on_c, 8, 43, 80
8, 294959, Note_on_c, 8, 43, 0
8, 296640, Note_on_c, 8, 43, 80
8, 296879, Note_on_c, 8, 43, 0
8, 298560, Note_on_c, 8, 43, 80
8, 298799, Note_on_c, 8, 43, 0
8, 300480, Note_on_c, 8, 43, 80
8, 300719, Note_on_c, 8, 43, 0
8, 302400, Note_on_c, 8, 43, 80
8, 302639, Note_on_c, 8, 43, 0
8, 304320, Note_on_c, 8, 43, 80
8, 304559, Note_on_c, 8, 43, 0
8, 306240, Note_on_c, 8, 42, 80
8, 306479, Note_on_c, 8, 42, 0
8, 308160, Note_on_c, 8, 42, 80
8, 308399, Note_on_c, 8, 42, 0
8, 310080, Note_on_c, 8, 42, 80
8, 310319, Note_on_c, 8, 42, 0
8, 312000, Note_on_c, 8, 42, 80
8, 312239, Note_on_c, 8, 42, 0
8, 313920, Note_on_c, 8, 43, 80
8, 314159, Note_on_c, 8, 43, 0
8, 315840, Note_on_c, 8, 40, 80
8, 316079, Note_on_c, 8, 40, 0
8, 316800, Note_on_c, 8, 42, 80
8, 317039, Note_on_c, 8, 42, 0
8, 318720, Note_on_c, 8, 47, 80
8, 320639, Note_on_c, 8, 47, 0
8, 321600, Note_on_c, 8, 43, 80
8, 321839, Note_on_c, 8, 43, 0
8, 323520, Note_on_c, 8, 43, 80
8, 323759, Note_on_c, 8, 43, 0
8, 325440, Note_on_c, 8, 43, 80
8, 325679, Note_on_c, 8, 43, 0
8, 327360, Note_on_c, 8, 43, 80
8, 327599, Note_on_c, 8, 43, 0
8, 329280, Note_on_c, 8, 43, 80
8, 329519, Note_on_c, 8, 43, 0
8, 331200, Note_on_c, 8, 43, 80
8, 331439, Note_on_c, 8, 43, 0
8, 333120, Note_on_c, 8, 43, 80
8, 333359, Note_on_c, 8, 43, 0
8, 335040, Note_on_c, 8, 43, 80
8, 335279, Note_on_c, 8, 43, 0
8, 336960, Note_on_c, 8, 43, 80
8, 337199, Note_on_c, 8, 43, 0
8, 338880, Note_on_c, 8, 43, 80
8, 339119, Note_on_c, 8, 43, 0
8, 340800, Note_on_c, 8, 47, 80
8, 341039, Note_on_c, 8, 47, 0
8, 342720, Note_on_c, 8, 47, 80
8, 342959, Note_on_c, 8, 47, 0
8, 343680, Note_on_c, 8, 40, 80
8, 344159, Note_on_c, 8, 40, 0
8, 345600, Note_on_c, 8, 51, 80
8, 346079, Note_on_c, 8, 51, 0
8, 347520, Note_on_c, 8, 40, 80
8, 348479, Note_on_c, 8, 40, 0
8, 352320, Note_on_c, 8, 45, 80
8, 352559, Note_on_c, 8, 45, 0
8, 354240, Note_on_c, 8, 45, 80
8, 354479, Note_on_c, 8, 45, 0
8, 356160, Note_on_c, 8, 45, 80
8, 356399, Note_on_c, 8, 45, 0
8, 358080, Note_on_c, 8, 45, 80
8, 358319, Note_on_c, 8, 45, 0
8, 360000, Note_on_c, 8, 45, 80
8, 360239, Note_on_c, 8, 45, 0
8, 361920, Note_on_c, 8, 45, 80
8, 362159, Note_on_c, 8, 45, 0
8, 363840, Note_on_c, 8, 45, 80
8, 364079, Note_on_c, 8, 45, 0
8, 365760, Note_on_c, 8, 45, 80
8, 365999, Note_on_c, 8, 45, 0
8, 367680, Note_on_c, 8, 43, 80
8, 367919, Note_on_c, 8, 43, 0
8, 369600, Note_on_c, 8, 43, 80
8, 369839, Note_on_c, 8, 43, 0
8, 371520, Note_on_c, 8, 43, 80
8, 371759, Note_on_c, 8, 43, 0
8, 373440, Note_on_c, 8, 43, 80
8, 373679, Note_on_c, 8, 43, 0
8, 374400, Note_on_c, 8, 54, 80
8, 374879, Note_on_c, 8, 54, 0
8, 375360, Note_on_c, 8, 55, 80
8, 375839, Note_on_c, 8, 55, 0
8, 376320, Note_on_c, 8, 57, 80
8, 376799, Note_on_c, 8, 57, 0
8, 377280, Note_on_c, 8, 54, 80
8, 377759, Note_on_c, 8, 54, 0
8, 378240, Note_on_c, 8, 59, 80
8, 378719, Note_on_c, 8, 59, 0
8, 380160, Note_on_c, 8, 47, 80
8, 382079, Note_on_c, 8, 47, 0
8, 383040, Note_on_c, 8, 45, 80
8, 383279, Note_on_c, 8, 45, 0
8, 384960, Note_on_c, 8, 45, 80
8, 385199, Note_on_c, 8, 45, 0
8, 386880, Note_on_c, 8, 45, 80
8, 387119, Note_on_c, 8, 45, 0
8, 388800, Note_on_c, 8, 45, 80
8, 389039, Note_on_c, 8, 45, 0
8, 390720, Note_on_c, 8, 45, 80
8, 390959, Note_on_c, 8, 45, 0
8, 392640, Note_on_c, 8, 45, 80
8, 392879, Note_on_c, 8, 45, 0
8, 394560, Note_on_c, 8, 45, 80
8, 394799, Note_on_c, 8, 45, 0
8, 396480, Note_on_c, 8, 45, 80
8, 396719, Note_on_c, 8, 45, 0
8, 398400, Note_on_c, 8, 43, 80
8, 398639, Note_on_c, 8, 43, 0
8, 400320, Note_on_c, 8, 43, 80
8, 400559, Note_on_c, 8, 43, 0
8, 401280, Note_on_c, 8, 59, 80
8, 402239, Note_on_c, 8, 59, 0
8, 402240, Note_on_c, 8, 57, 80
8, 402719, Note_on_c, 8, 57, 0
8, 403200, Note_on_c, 8, 55, 80
8, 403439, Note_on_c, 8, 55, 0
8, 404160, Note_on_c, 8, 54, 80
8, 404399, Note_on_c, 8, 54, 0
8, 405120, Note_on_c, 8, 52, 80
8, 405599, Note_on_c, 8, 52, 0
8, 407040, Note_on_c, 8, 47, 80
8, 407519, Note_on_c, 8, 47, 0
8, 408960, Note_on_c, 8, 40, 80
8, 409919, Note_on_c, 8, 40, 0
8, 413760, Note_on_c, 8, 43, 80
8, 413999, Note_on_c, 8, 43, 0
8, 415680, Note_on_c, 8, 43, 80
8, 415919, Note_on_c, 8, 43, 0
8, 417600, Note_on_c, 8, 43, 80
8, 417839, Note_on_c, 8, 43, 0
8, 419520, Note_on_c, 8, 43, 80
8, 419759, Note_on_c, 8, 43, 0
8, 421440, Note_on_c, 8, 43, 80
8, 421679, Note_on_c, 8, 43, 0
8, 423360, Note_on_c, 8, 43, 80
8, 423599, Note_on_c, 8, 43, 0
8, 425280, Note_on_c, 8, 43, 80
8, 425519, Note_on_c, 8, 43, 0
8, 427200, Note_on_c, 8, 43, 80
8, 427439, Note_on_c, 8, 43, 0
8, 429120, Note_on_c, 8, 42, 80
8, 429359, Note_on_c, 8, 42, 0
8, 431040, Note_on_c, 8, 42, 80
8, 431279, Note_on_c, 8, 42, 0
8, 432960, Note_on_c, 8, 42, 80
8, 433199, Note_on_c, 8, 42, 0
8, 434880, Note_on_c, 8, 42, 80
8, 435119, Note_on_c, 8, 42, 0
8, 436800, Note_on_c, 8, 43, 80
8, 437039, Note_on_c, 8, 43, 0
8, 438720, Note_on_c, 8, 40, 80
8, 438959, Note_on_c, 8, 40, 0
8, 439680, Note_on_c, 8, 42, 80
8, 439919, Note_on_c, 8, 42, 0
8, 441600, Note_on_c, 8, 47, 80
8, 443519, Note_on_c, 8, 47, 0
8, 444480, Note_on_c, 8, 43, 80
8, 444719, Note_on_c, 8, 43, 0
8, 446400, Note_on_c, 8, 43, 80
8, 446639, Note_on_c, 8, 43, 0
8, 448320, Note_on_c, 8, 43, 80
8, 448559, Note_on_c, 8, 43, 0
8, 450240, Note_on_c, 8, 43, 80
8, 450479, Note_on_c, 8, 43, 0
8, 452160, Note_on_c, 8, 43, 80
8, 452399, Note_on_c, 8, 43, 0
8, 454080, Note_on_c, 8, 43, 80
8, 454319, Note_on_c, 8, 43, 0
8, 456000, Note_on_c, 8, 43, 80
8, 456239, Note_on_c, 8, 43, 0
8, 457920, Note_on_c, 8, 43, 80
8, 458159, Note_on_c, 8, 43, 0
8, 459840, Note_on_c, 8, 43, 80
8, 460079, Note_on_c, 8, 43, 0
8, 461760, Note_on_c, 8, 43, 80
8, 461999, Note_on_c, 8, 43, 0
8, 463680, Note_on_c, 8, 47, 80
8, 463919, Note_on_c, 8, 47, 0
8, 465600, Note_on_c, 8, 47, 80
8, 465839, Note_on_c, 8, 47, 0
8, 466560, Note_on_c, 8, 40, 80
8, 467039, Note_on_c, 8, 40, 0
8, 468480, Note_on_c, 8, 51, 80
8, 468959, Note_on_c, 8, 51, 0
8, 470400, Note_on_c, 8, 40, 80
8, 471359, Note_on_c, 8, 40, 0
8, 475200, Note_on_c, 8, 43, 80
8, 475439, Note_on_c, 8, 43, 0
8, 477120, Note_on_c, 8, 43, 80
8, 477359, Note_on_c, 8, 43, 0
8, 479040, Note_on_c, 8, 43, 80
8, 479279, Note_on_c, 8, 43, 0
8, 480960, Note_on_c, 8, 43, 80
8, 481199, Note_on_c, 8, 43, 0
8, 482880, Note_on_c, 8, 43, 80
8, 483119, Note_on_c, 8, 43, 0
8, 484800, Note_on_c, 8, 43, 80
8, 485039, Note_on_c, 8, 43, 0
8, 486720, Note_on_c, 8, 43, 80
8, 486959, Note_on_c, 8, 43, 0
8, 488640, Note_on_c, 8, 43, 80
8, 488879, Note_on_c, 8, 43, 0
8, 490560, Note_on_c, 8, 42, 80
8, 490799, Note_on_c, 8, 42, 0
8, 492480, Note_on_c, 8, 42, 80
8, 492719, Note_on_c, 8, 42, 0
8, 494400, Note_on_c, 8, 42, 80
8, 494639, Note_on_c, 8, 42, 0
8, 496320, Note_on_c, 8, 42, 80
8, 496559, Note_on_c, 8, 42, 0
8, 498240, Note_on_c, 8, 43, 80
8, 498479, Note_on_c, 8, 43, 0
8, 500160, Note_on_c, 8, 40, 80
8, 500399, Note_on_c, 8, 40, 0
8, 501120, Note_on_c, 8, 42, 80
8, 501359, Note_on_c, 8, 42, 0
8, 503040, Note_on_c, 8, 47, 80
8, 504959, Note_on_c, 8, 47, 0
8, 505920, Note_on_c, 8, 43, 80
8, 506159, Note_on_c, 8, 43, 0
8, 507840, Note_on_c, 8, 43, 80
8, 508079, Note_on_c, 8, 43, 0
8, 509760, Note_on_c, 8, 43, 80
8, 509999, Note_on_c, 8, 43, 0
8, 511680, Note_on_c, 8, 43, 80
8, 511919, Note_on_c, 8, 43, 0
8, 513600, Note_on_c, 8, 43, 80
8, 513839, Note_on_c, 8, 43, 0
8, 515520, Note_on_c, 8, 43, 80
8, 515759, Note_on_c, 8, 43, 0
8, 517440, Note_on_c, 8, 43, 80
8, 517679, Note_on_c, 8, 43, 0
8, 519360, Note_on_c, 8, 43, 80
8, 519599, Note_on_c, 8, 43, 0
8, 521280, Note_on_c, 8, 43, 80
8, 521519, Note_on_c, 8, 43, 0
8, 523200, Note_on_c, 8, 43, 80
8, 523439, Note_on_c, 8, 43, 0
8, 525120, Note_on_c, 8, 47, 80
8, 525359, Note_on_c, 8, 47, 0
8, 527040, Note_on_c, 8, 47, 80
8, 527279, Note_on_c, 8, 47, 0
8, 528000, Note_on_c, 8, 40, 80
8, 528479, Note_on_c, 8, 40, 0
8, 529920, Note_on_c, 8, 51, 80
8, 530399, Note_on_c, 8, 51, 0
8, 531840, Note_on_c, 8, 40, 80
8, 532799, Note_on_c, 8, 40, 0
8, 536640, Note_on_c, 8, 43, 80
8, 536879, Note_on_c, 8, 43, 0
8, 538560, Note_on_c, 8, 43, 80
8, 538799, Note_on_c, 8, 43, 0
8, 540480, Note_on_c, 8, 47, 80
8, 540719, Note_on_c, 8, 47, 0
8, 542400, Note_on_c, 8, 47, 80
8, 542639, Note_on_c, 8, 47, 0
8, 543360, Note_on_c, 8, 40, 80
8, 543839, Note_on_c, 8, 40, 0
8, 545280, Note_on_c, 8, 51, 80
8, 545759, Note_on_c, 8, 51, 0
8, 547200, Note_on_c, 8, 40, 80
8, 548159, Note_on_c, 8, 40, 0
8, 552960, Note_on_c, 8, 28, 80
8, 552960, Note_on_c, 8, 30, 80
8, 552960, Note_on_c, 8, 31, 80
8, 552960, Note_on_c, 8, 33, 80
8, 552960, Note_on_c, 8, 35, 80
8, 552960, Note_on_c, 8, 38, 80
8, 552960, Note_on_c, 8, 42, 80
8, 552960, Note_on_c, 8, 44, 80
8, 552960, Note_on_c, 8, 46, 80
8, 552960, Note_on_c, 8, 49, 80
8, 552960, Note_on_c, 8, 51, 80
8, 552960, Note_on_c, 8, 53, 80
8, 552960, Note_on_c, 8, 56, 80
8, 552960, Note_on_c, 8, 58, 80
8, 552960, Note_on_c, 8, 59, 80
8, 552960, Note_on_c, 8, 61, 80
8, 552960, Note_on_c, 8, 63, 80
8, 552960, Note_on_c, 8, 65, 80
8, 552960, Note_on_c, 8, 68, 80
8, 552960, Note_on_c, 8, 71, 80
8, 554879, Note_on_c, 8, 28, 0
8, 554879, Note_on_c, 8, 30, 0
8, 554879, Note_on_c, 8, 31, 0
8, 554879, Note_on_c, 8, 33, 0
8, 554879, Note_on_c, 8, 35, 0
8, 554879, Note_on_c, 8, 38, 0
8, 554879, Note_on_c, 8, 42, 0
8, 554879, Note_on_c, 8, 44, 0
8, 554879, Note_on_c, 8, 46, 0
8, 554879, Note_on_c, 8, 49, 0
8, 554879, Note_on_c, 8, 51, 0
8, 554879, Note_on_c, 8, 53, 0
8, 554879, Note_on_c, 8, 56, 0
8, 554879, Note_on_c, 8, 58, 0
8, 554879, Note_on_c, 8, 59, 0
8, 554879, Note_on_c, 8, 61, 0
8, 554879, Note_on_c, 8, 63, 0
8, 554879, Note_on_c, 8, 65, 0
8, 554879, Note_on_c, 8, 68, 0
8, 554879, Note_on_c, 8, 71, 0
8, 554880, End_track
9, 0, Start_track
9, 0, Key_signature, 0, "major"
9, 0, Control_c, 10, 121, 0
9, 0, Program_c, 10, 58
9, 0, Control_c, 10, 7, 100
9, 0, Control_c, 10, 10, 64
9, 0, Control_c, 10, 91, 0
9, 0, Control_c, 10, 93, 0
9, 0, MIDI_port, 0
9, 5760, Note_on_c, 10, 40, 80
9, 6719, Note_on_c, 10, 40, 0
9, 7680, Note_on_c, 10, 35, 80
9, 7919, Note_on_c, 10, 35, 0
9, 9600, Note_on_c, 10, 35, 80
9, 9623, Note_on_c, 10, 35, 0
9, 9624, Note_on_c, 10, 36, 80
9, 9647, Note_on_c, 10, 36, 0
9, 9648, Note_on_c, 10, 37, 80
9, 9671, Note_on_c, 10, 37, 0
9, 9672, Note_on_c, 10, 38, 80
9, 9695, Note_on_c, 10, 38, 0
9, 9696, Note_on_c, 10, 39, 80
9, 9719, Note_on_c, 10, 39, 0
9, 9720, Note_on_c, 10, 40, 80
9, 10679, Note_on_c, 10, 40, 0
9, 11520, Note_on_c, 10, 35, 80
9, 11759, Note_on_c, 10, 35, 0
9, 13440, Note_on_c, 10, 40, 80
9, 14399, Note_on_c, 10, 40, 0
9, 15360, Note_on_c, 10, 35, 80
9, 15599, Note_on_c, 10, 35, 0
9, 17280, Note_on_c, 10, 40, 80
9, 17759, Note_on_c, 10, 40, 0
9, 19200, Note_on_c, 10, 35, 80
9, 19439, Note_on_c, 10, 35, 0
9, 21120, Note_on_c, 10, 40, 80
9, 21599, Note_on_c, 10, 40, 0
9, 23040, Note_on_c, 10, 35, 80
9, 23279, Note_on_c, 10, 35, 0
9, 24960, Note_on_c, 10, 40, 80
9, 25919, Note_on_c, 10, 40, 0
9, 26880, Note_on_c, 10, 35, 80
9, 27119, Note_on_c, 10, 35, 0
9, 28800, Note_on_c, 10, 42, 80
9, 29279, Note_on_c, 10, 42, 0
9, 30720, Note_on_c, 10, 35, 80
9, 30959, Note_on_c, 10, 35, 0
9, 32640, Note_on_c, 10, 42, 80
9, 33599, Note_on_c, 10, 42, 0
9, 34560, Note_on_c, 10, 35, 80
9, 34799, Note_on_c, 10, 35, 0
9, 36480, Note_on_c, 10, 40, 80
9, 37439, Note_on_c, 10, 40, 0
9, 38400, Note_on_c, 10, 35, 80
9, 38639, Note_on_c, 10, 35, 0
9, 40320, Note_on_c, 10, 42, 80
9, 40559, Note_on_c, 10, 42, 0
9, 42240, Note_on_c, 10, 35, 80
9, 44159, Note_on_c, 10, 35, 0
9, 44160, Note_on_c, 10, 35, 80
9, 44183, Note_on_c, 10, 35, 0
9, 44184, Note_on_c, 10, 36, 80
9, 44207, Note_on_c, 10, 36, 0
9, 44208, Note_on_c, 10, 37, 80
9, 44231, Note_on_c, 10, 37, 0
9, 44232, Note_on_c, 10, 38, 80
9, 44255, Note_on_c, 10, 38, 0
9, 44256, Note_on_c, 10, 39, 80
9, 44279, Note_on_c, 10, 39, 0
9, 44280, Note_on_c, 10, 40, 80
9, 45239, Note_on_c, 10, 40, 0
9, 46080, Note_on_c, 10, 35, 80
9, 46319, Note_on_c, 10, 35, 0
9, 48000, Note_on_c, 10, 40, 80
9, 48479, Note_on_c, 10, 40, 0
9, 49920, Note_on_c, 10, 35, 80
9, 50159, Note_on_c, 10, 35, 0
9, 51840, Note_on_c, 10, 40, 80
9, 52319, Note_on_c, 10, 40, 0
9, 53760, Note_on_c, 10, 35, 80
9, 53999, Note_on_c, 10, 35, 0
9, 55680, Note_on_c, 10, 40, 80
9, 56639, Note_on_c, 10, 40, 0
9, 57600, Note_on_c, 10, 35, 80
9, 57839, Note_on_c, 10, 35, 0
9, 59520, Note_on_c, 10, 31, 80
9, 60479, Note_on_c, 10, 31, 0
9, 61440, Note_on_c, 10, 31, 80
9, 61919, Note_on_c, 10, 31, 0
9, 63360, Note_on_c, 10, 42, 80
9, 64319, Note_on_c, 10, 42, 0
9, 65280, Note_on_c, 10, 35, 80
9, 65519, Note_on_c, 10, 35, 0
9, 67200, Note_on_c, 10, 40, 80
9, 67679, Note_on_c, 10, 40, 0
9, 69120, Note_on_c, 10, 35, 80
9, 69599, Note_on_c, 10, 35, 0
9, 71040, Note_on_c, 10, 40, 80
9, 71999, Note_on_c, 10, 40, 0
9, 74880, Note_on_c, 10, 40, 80
9, 75839, Note_on_c, 10, 40, 0
9, 76800, Note_on_c, 10, 35, 80
9, 77039, Note_on_c, 10, 35, 0
9, 78720, Note_on_c, 10, 40, 80
9, 79199, Note_on_c, 10, 40, 0
9, 80640, Note_on_c, 10, 35, 80
9, 80879, Note_on_c, 10, 35, 0
9, 82560, Note_on_c, 10, 40, 80
9, 83039, Note_on_c, 10, 40, 0
9, 84480, Note_on_c, 10, 35, 80
9, 84719, Note_on_c, 10, 35, 0
9, 86400, Note_on_c, 10, 40, 80
9, 87359, Note_on_c, 10, 40, 0
9, 88320, Note_on_c, 10, 35, 80
9, 88559, Note_on_c, 10, 35, 0
9, 90240, Note_on_c, 10, 42, 80
9, 90719, Note_on_c, 10, 42, 0
9, 92160, Note_on_c, 10, 35, 80
9, 92399, Note_on_c, 10, 35, 0
9, 94080, Note_on_c, 10, 42, 80
9, 95039, Note_on_c, 10, 42, 0
9, 96000, Note_on_c, 10, 35, 80
9, 96239, Note_on_c, 10, 35, 0
9, 97920, Note_on_c, 10, 40, 80
9, 98879, Note_on_c, 10, 40, 0
9, 99840, Note_on_c, 10, 35, 80
9, 100079, Note_on_c, 10, 35, 0
9, 101760, Note_on_c, 10, 42, 80
9, 101999, Note_on_c, 10, 42, 0
9, 103680, Note_on_c, 10, 35, 80
9, 105599, Note_on_c, 10, 35, 0
9, 105600, Note_on_c, 10, 35, 80
9, 105623, Note_on_c, 10, 35, 0
9, 105624, Note_on_c, 10, 36, 80
9, 105647, Note_on_c, 10, 36, 0
9, 105648, Note_on_c, 10, 37, 80
9, 105671, Note_on_c, 10, 37, 0
9, 105672, Note_on_c, 10, 38, 80
9, 105695, Note_on_c, 10, 38, 0
9, 105696, Note_on_c, 10, 39, 80
9, 105719, Note_on_c, 10, 39, 0
9, 105720, Note_on_c, 10, 40, 80
9, 106679, Note_on_c, 10, 40, 0
9, 107520, Note_on_c, 10, 35, 80
9, 107759, Note_on_c, 10, 35, 0
9, 109440, Note_on_c, 10, 40, 80
9, 109919, Note_on_c, 10, 40, 0
9, 111360, Note_on_c, 10, 35, 80
9, 111599, Note_on_c, 10, 35, 0
9, 113280, Note_on_c, 10, 40, 80
9, 113759, Note_on_c, 10, 40, 0
9, 115200, Note_on_c, 10, 35, 80
9, 115439, Note_on_c, 10, 35, 0
9, 117120, Note_on_c, 10, 40, 80
9, 118079, Note_on_c, 10, 40, 0
9, 119040, Note_on_c, 10, 35, 80
9, 119279, Note_on_c, 10, 35, 0
9, 120960, Note_on_c, 10, 31, 80
9, 121919, Note_on_c, 10, 31, 0
9, 122880, Note_on_c, 10, 31, 80
9, 123359, Note_on_c, 10, 31, 0
9, 124800, Note_on_c, 10, 42, 80
9, 125759, Note_on_c, 10, 42, 0
9, 126720, Note_on_c, 10, 35, 80
9, 126959, Note_on_c, 10, 35, 0
9, 128640, Note_on_c, 10, 40, 80
9, 129119, Note_on_c, 10, 40, 0
9, 130560, Note_on_c, 10, 35, 80
9, 131039, Note_on_c, 10, 35, 0
9, 132480, Note_on_c, 10, 40, 80
9, 133439, Note_on_c, 10, 40, 0
9, 136320, Note_on_c, 10, 45, 80
9, 137279, Note_on_c, 10, 45, 0
9, 138240, Note_on_c, 10, 40, 80
9, 138479, Note_on_c, 10, 40, 0
9, 140160, Note_on_c, 10, 45, 80
9, 140399, Note_on_c, 10, 45, 0
9, 142080, Note_on_c, 10, 40, 80
9, 142319, Note_on_c, 10, 40, 0
9, 144000, Note_on_c, 10, 45, 80
9, 144239, Note_on_c, 10, 45, 0
9, 145920, Note_on_c, 10, 40, 80
9, 146159, Note_on_c, 10, 40, 0
9, 147840, Note_on_c, 10, 45, 80
9, 148079, Note_on_c, 10, 45, 0
9, 149760, Note_on_c, 10, 40, 80
9, 149999, Note_on_c, 10, 40, 0
9, 151680, Note_on_c, 10, 43, 80
9, 151919, Note_on_c, 10, 43, 0
9, 153600, Note_on_c, 10, 40, 80
9, 153839, Note_on_c, 10, 40, 0
9, 155520, Note_on_c, 10, 43, 80
9, 155759, Note_on_c, 10, 43, 0
9, 157440, Note_on_c, 10, 40, 80
9, 157679, Note_on_c, 10, 40, 0
9, 159360, Note_on_c, 10, 42, 80
9, 159839, Note_on_c, 10, 42, 0
9, 160320, Note_on_c, 10, 43, 80
9, 160799, Note_on_c, 10, 43, 0
9, 161280, Note_on_c, 10, 45, 80
9, 161759, Note_on_c, 10, 45, 0
9, 162240, Note_on_c, 10, 42, 80
9, 162719, Note_on_c, 10, 42, 0
9, 163200, Note_on_c, 10, 47, 80
9, 163679, Note_on_c, 10, 47, 0
9, 165120, Note_on_c, 10, 35, 80
9, 167039, Note_on_c, 10, 35, 0
9, 167040, Note_on_c, 10, 45, 80
9, 167999, Note_on_c, 10, 45, 0
9, 168960, Note_on_c, 10, 40, 80
9, 169199, Note_on_c, 10, 40, 0
9, 170880, Note_on_c, 10, 45, 80
9, 171119, Note_on_c, 10, 45, 0
9, 172800, Note_on_c, 10, 40, 80
9, 173039, Note_on_c, 10, 40, 0
9, 174720, Note_on_c, 10, 45, 80
9, 174959, Note_on_c, 10, 45, 0
9, 176640, Note_on_c, 10, 40, 80
9, 176879, Note_on_c, 10, 40, 0
9, 178560, Note_on_c, 10, 45, 80
9, 178799, Note_on_c, 10, 45, 0
9, 180480, Note_on_c, 10, 40, 80
9, 180719, Note_on_c, 10, 40, 0
9, 182400, Note_on_c, 10, 31, 80
9, 183359, Note_on_c, 10, 31, 0
9, 184320, Note_on_c, 10, 31, 80
9, 184799, Note_on_c, 10, 31, 0
9, 186240, Note_on_c, 10, 47, 80
9, 187199, Note_on_c, 10, 47, 0
9, 187200, Note_on_c, 10, 45, 80
9, 187679, Note_on_c, 10, 45, 0
9, 188160, Note_on_c, 10, 43, 80
9, 188399, Note_on_c, 10, 43, 0
9, 189120, Note_on_c, 10, 42, 80
9, 189359, Note_on_c, 10, 42, 0
9, 190080, Note_on_c, 10, 40, 80
9, 190559, Note_on_c, 10, 40, 0
9, 192000, Note_on_c, 10, 35, 80
9, 192479, Note_on_c, 10, 35, 0
9, 193920, Note_on_c, 10, 40, 80
9, 194879, Note_on_c, 10, 40, 0
9, 197760, Note_on_c, 10, 40, 80
9, 198719, Note_on_c, 10, 40, 0
9, 199680, Note_on_c, 10, 35, 80
9, 199919, Note_on_c, 10, 35, 0
9, 201600, Note_on_c, 10, 40, 80
9, 202079, Note_on_c, 10, 40, 0
9, 203520, Note_on_c, 10, 35, 80
9, 203759, Note_on_c, 10, 35, 0
9, 205440, Note_on_c, 10, 40, 80
9, 205919, Note_on_c, 10, 40, 0
9, 207360, Note_on_c, 10, 35, 80
9, 207599, Note_on_c, 10, 35, 0
9, 209280, Note_on_c, 10, 40, 80
9, 210239, Note_on_c, 10, 40, 0
9, 211200, Note_on_c, 10, 35, 80
9, 211439, Note_on_c, 10, 35, 0
9, 213120, Note_on_c, 10, 42, 80
9, 213599, Note_on_c, 10, 42, 0
9, 215040, Note_on_c, 10, 35, 80
9, 215279, Note_on_c, 10, 35, 0
9, 216960, Note_on_c, 10, 42, 80
9, 217919, Note_on_c, 10, 42, 0
9, 218880, Note_on_c, 10, 35, 80
9, 219119, Note_on_c, 10, 35, 0
9, 220800, Note_on_c, 10, 40, 80
9, 221759, Note_on_c, 10, 40, 0
9, 222720, Note_on_c, 10, 35, 80
9, 222959, Note_on_c, 10, 35, 0
9, 224640, Note_on_c, 10, 42, 80
9, 224879, Note_on_c, 10, 42, 0
9, 226560, Note_on_c, 10, 35, 80
9, 228479, Note_on_c, 10, 35, 0
9, 228480, Note_on_c, 10, 35, 80
9, 228503, Note_on_c, 10, 35, 0
9, 228504, Note_on_c, 10, 36, 80
9, 228527, Note_on_c, 10, 36, 0
9, 228528, Note_on_c, 10, 37, 80
9, 228551, Note_on_c, 10, 37, 0
9, 228552, Note_on_c, 10, 38, 80
9, 228575, Note_on_c, 10, 38, 0
9, 228576, Note_on_c, 10, 39, 80
9, 228599, Note_on_c, 10, 39, 0
9, 228600, Note_on_c, 10, 40, 80
9, 229559, Note_on_c, 10, 40, 0
9, 230400, Note_on_c, 10, 35, 80
9, 230639, Note_on_c, 10, 35, 0
9, 232320, Note_on_c, 10, 40, 80
9, 232799, Note_on_c, 10, 40, 0
9, 234240, Note_on_c, 10, 35, 80
9, 234479, Note_on_c, 10, 35, 0
9, 236160, Note_on_c, 10, 40, 80
9, 236639, Note_on_c, 10, 40, 0
9, 238080, Note_on_c, 10, 35, 80
9, 238319, Note_on_c, 10, 35, 0
9, 240000, Note_on_c, 10, 40, 80
9, 240959, Note_on_c, 10, 40, 0
9, 241920, Note_on_c, 10, 35, 80
9, 242159, Note_on_c, 10, 35, 0
9, 243840, Note_on_c, 10, 31, 80
9, 244799, Note_on_c, 10, 31, 0
9, 245760, Note_on_c, 10, 31, 80
9, 246239, Note_on_c, 10, 31, 0
9, 247680, Note_on_c, 10, 42, 80
9, 248639, Note_on_c, 10, 42, 0
9, 249600, Note_on_c, 10, 35, 80
9, 249839, Note_on_c, 10, 35, 0
9, 251520, Note_on_c, 10, 40, 80
9, 251999, Note_on_c, 10, 40, 0
9, 253440, Note_on_c, 10, 35, 80
9, 253919, Note_on_c, 10, 35, 0
9, 255360, Note_on_c, 10, 40, 80
9, 256319, Note_on_c, 10, 40, 0
9, 259200, Note_on_c, 10, 40, 80
9, 260159, Note_on_c, 10, 40, 0
9, 261120, Note_on_c, 10, 35, 80
9, 261359, Note_on_c, 10, 35, 0
9, 263040, Note_on_c, 10, 40, 80
9, 263999, Note_on_c, 10, 40, 0
9, 264960, Note_on_c, 10, 35, 80
9, 265199, Note_on_c, 10, 35, 0
9, 266880, Note_on_c, 10, 40, 80
9, 267839, Note_on_c, 10, 40, 0
9, 268800, Note_on_c, 10, 35, 80
9, 269039, Note_on_c, 10, 35, 0
9, 270720, Note_on_c, 10, 40, 80
9, 271679, Note_on_c, 10, 40, 0
9, 272640, Note_on_c, 10, 35, 80
9, 272879, Note_on_c, 10, 35, 0
9, 274560, Note_on_c, 10, 40, 80
9, 275519, Note_on_c, 10, 40, 0
9, 276480, Note_on_c, 10, 35, 80
9, 276719, Note_on_c, 10, 35, 0
9, 278400, Note_on_c, 10, 40, 80
9, 279359, Note_on_c, 10, 40, 0
9, 280320, Note_on_c, 10, 35, 80
9, 280559, Note_on_c, 10, 35, 0
9, 282240, Note_on_c, 10, 40, 80
9, 283199, Note_on_c, 10, 40, 0
9, 284160, Note_on_c, 10, 35, 80
9, 284399, Note_on_c, 10, 35, 0
9, 286080, Note_on_c, 10, 40, 80
9, 287039, Note_on_c, 10, 40, 0
9, 288000, Note_on_c, 10, 35, 80
9, 288239, Note_on_c, 10, 35, 0
9, 289920, Note_on_c, 10, 40, 80
9, 290879, Note_on_c, 10, 40, 0
9, 291840, Note_on_c, 10, 35, 80
9, 292079, Note_on_c, 10, 35, 0
9, 293760, Note_on_c, 10, 40, 80
9, 294239, Note_on_c, 10, 40, 0
9, 295680, Note_on_c, 10, 35, 80
9, 295919, Note_on_c, 10, 35, 0
9, 297600, Note_on_c, 10, 40, 80
9, 298079, Note_on_c, 10, 40, 0
9, 299520, Note_on_c, 10, 35, 80
9, 299759, Note_on_c, 10, 35, 0
9, 301440, Note_on_c, 10, 40, 80
9, 302399, Note_on_c, 10, 40, 0
9, 303360, Note_on_c, 10, 35, 80
9, 303599, Note_on_c, 10, 35, 0
9, 305280, Note_on_c, 10, 42, 80
9, 305759, Note_on_c, 10, 42, 0
9, 307200, Note_on_c, 10, 35, 80
9, 307439, Note_on_c, 10, 35, 0
9, 309120, Note_on_c, 10, 42, 80
9, 310079, Note_on_c, 10, 42, 0
9, 311040, Note_on_c, 10, 35, 80
9, 311279, Note_on_c, 10, 35, 0
9, 312960, Note_on_c, 10, 40, 80
9, 313919, Note_on_c, 10, 40, 0
9, 314880, Note_on_c, 10, 35, 80
9, 315119, Note_on_c, 10, 35, 0
9, 316800, Note_on_c, 10, 42, 80
9, 317039, Note_on_c, 10, 42, 0
9, 318720, Note_on_c, 10, 35, 80
9, 320639, Note_on_c, 10, 35, 0
9, 320640, Note_on_c, 10, 35, 80
9, 320663, Note_on_c, 10, 35, 0
9, 320664, Note_on_c, 10, 36, 80
9, 320687, Note_on_c, 10, 36, 0
9, 320688, Note_on_c, 10, 37, 80
9, 320711, Note_on_c, 10, 37, 0
9, 320712, Note_on_c, 10, 38, 80
9, 320735, Note_on_c, 10, 38, 0
9, 320736, Note_on_c, 10, 39, 80
9, 320759, Note_on_c, 10, 39, 0
9, 320760, Note_on_c, 10, 40, 80
9, 321719, Note_on_c, 10, 40, 0
9, 322560, Note_on_c, 10, 35, 80
9, 322799, Note_on_c, 10, 35, 0
9, 324480, Note_on_c, 10, 40, 80
9, 324959, Note_on_c, 10, 40, 0
9, 326400, Note_on_c, 10, 35, 80
9, 326639, Note_on_c, 10, 35, 0
9, 328320, Note_on_c, 10, 40, 80
9, 328799, Note_on_c, 10, 40, 0
9, 330240, Note_on_c, 10, 35, 80
9, 330479, Note_on_c, 10, 35, 0
9, 332160, Note_on_c, 10, 40, 80
9, 333119, Note_on_c, 10, 40, 0
9, 334080, Note_on_c, 10, 35, 80
9, 334319, Note_on_c, 10, 35, 0
9, 336000, Note_on_c, 10, 31, 80
9, 336959, Note_on_c, 10, 31, 0
9, 337920, Note_on_c, 10, 31, 80
9, 338399, Note_on_c, 10, 31, 0
9, 339840, Note_on_c, 10, 42, 80
9, 340799, Note_on_c, 10, 42, 0
9, 341760, Note_on_c, 10, 35, 80
9, 341999, Note_on_c, 10, 35, 0
9, 343680, Note_on_c, 10, 40, 80
9, 344159, Note_on_c, 10, 40, 0
9, 345600, Note_on_c, 10, 35, 80
9, 346079, Note_on_c, 10, 35, 0
9, 347520, Note_on_c, 10, 40, 80
9, 348479, Note_on_c, 10, 40, 0
9, 351360, Note_on_c, 10, 45, 80
9, 352319, Note_on_c, 10, 45, 0
9, 353280, Note_on_c, 10, 40, 80
9, 353519, Note_on_c, 10, 40, 0
9, 355200, Note_on_c, 10, 45, 80
9, 355439, Note_on_c, 10, 45, 0
9, 357120, Note_on_c, 10, 40, 80
9, 357359, Note_on_c, 10, 40, 0
9, 359040, Note_on_c, 10, 45, 80
9, 359279, Note_on_c, 10, 45, 0
9, 360960, Note_on_c, 10, 40, 80
9, 361199, Note_on_c, 10, 40, 0
9, 362880, Note_on_c, 10, 45, 80
9, 363119, Note_on_c, 10, 45, 0
9, 364800, Note_on_c, 10, 40, 80
9, 365039, Note_on_c, 10, 40, 0
9, 366720, Note_on_c, 10, 43, 80
9, 366959, Note_on_c, 10, 43, 0
9, 368640, Note_on_c, 10, 40, 80
9, 368879, Note_on_c, 10, 40, 0
9, 370560, Note_on_c, 10, 43, 80
9, 370799, Note_on_c, 10, 43, 0
9, 372480, Note_on_c, 10, 40, 80
9, 372719, Note_on_c, 10, 40, 0
9, 374400, Note_on_c, 10, 42, 80
9, 374879, Note_on_c, 10, 42, 0
9, 375360, Note_on_c, 10, 43, 80
9, 375839, Note_on_c, 10, 43, 0
9, 376320, Note_on_c, 10, 45, 80
9, 376799, Note_on_c, 10, 45, 0
9, 377280, Note_on_c, 10, 42, 80
9, 377759, Note_on_c, 10, 42, 0
9, 378240, Note_on_c, 10, 47, 80
9, 378719, Note_on_c, 10, 47, 0
9, 380160, Note_on_c, 10, 35, 80
9, 382079, Note_on_c, 10, 35, 0
9, 382080, Note_on_c, 10, 45, 80
9, 383039, Note_on_c, 10, 45, 0
9, 384000, Note_on_c, 10, 40, 80
9, 384239, Note_on_c, 10, 40, 0
9, 385920, Note_on_c, 10, 45, 80
9, 386159, Note_on_c, 10, 45, 0
9, 387840, Note_on_c, 10, 40, 80
9, 388079, Note_on_c, 10, 40, 0
9, 389760, Note_on_c, 10, 45, 80
9, 389999, Note_on_c, 10, 45, 0
9, 391680, Note_on_c, 10, 40, 80
9, 391919, Note_on_c, 10, 40, 0
9, 393600, Note_on_c, 10, 45, 80
9, 393839, Note_on_c, 10, 45, 0
9, 395520, Note_on_c, 10, 40, 80
9, 395759, Note_on_c, 10, 40, 0
9, 397440, Note_on_c, 10, 31, 80
9, 398399, Note_on_c, 10, 31, 0
9, 399360, Note_on_c, 10, 31, 80
9, 399839, Note_on_c, 10, 31, 0
9, 401280, Note_on_c, 10, 47, 80
9, 402239, Note_on_c, 10, 47, 0
9, 402240, Note_on_c, 10, 45, 80
9, 402719, Note_on_c, 10, 45, 0
9, 403200, Note_on_c, 10, 43, 80
9, 403439, Note_on_c, 10, 43, 0
9, 404160, Note_on_c, 10, 42, 80
9, 404399, Note_on_c, 10, 42, 0
9, 405120, Note_on_c, 10, 40, 80
9, 405599, Note_on_c, 10, 40, 0
9, 407040, Note_on_c, 10, 35, 80
9, 407519, Note_on_c, 10, 35, 0
9, 408960, Note_on_c, 10, 40, 80
9, 409919, Note_on_c, 10, 40, 0
9, 412800, Note_on_c, 10, 40, 80
9, 413759, Note_on_c, 10, 40, 0
9, 414720, Note_on_c, 10, 35, 80
9, 414959, Note_on_c, 10, 35, 0
9, 416640, Note_on_c, 10, 40, 80
9, 417119, Note_on_c, 10, 40, 0
9, 418560, Note_on_c, 10, 35, 80
9, 418799, Note_on_c, 10, 35, 0
9, 420480, Note_on_c, 10, 40, 80
9, 420959, Note_on_c, 10, 40, 0
9, 422400, Note_on_c, 10, 35, 80
9, 422639, Note_on_c, 10, 35, 0
9, 424320, Note_on_c, 10, 40, 80
9, 425279, Note_on_c, 10, 40, 0
9, 426240, Note_on_c, 10, 35, 80
9, 426479, Note_on_c, 10, 35, 0
9, 428160, Note_on_c, 10, 42, 80
9, 428639, Note_on_c, 10, 42, 0
9, 430080, Note_on_c, 10, 35, 80
9, 430319, Note_on_c, 10, 35, 0
9, 432000, Note_on_c, 10, 42, 80
9, 432959, Note_on_c, 10, 42, 0
9, 433920, Note_on_c, 10, 35, 80
9, 434159, Note_on_c, 10, 35, 0
9, 435840, Note_on_c, 10, 40, 80
9, 436799, Note_on_c, 10, 40, 0
9, 437760, Note_on_c, 10, 35, 80
9, 437999, Note_on_c, 10, 35, 0
9, 439680, Note_on_c, 10, 42, 80
9, 439919, Note_on_c, 10, 42, 0
9, 441600, Note_on_c, 10, 35, 80
9, 443519, Note_on_c, 10, 35, 0
9, 443520, Note_on_c, 10, 35, 80
9, 443543, Note_on_c, 10, 35, 0
9, 443544, Note_on_c, 10, 36, 80
9, 443567, Note_on_c, 10, 36, 0
9, 443568, Note_on_c, 10, 37, 80
9, 443591, Note_on_c, 10, 37, 0
9, 443592, Note_on_c, 10, 38, 80
9, 443615, Note_on_c, 10, 38, 0
9, 443616, Note_on_c, 10, 39, 80
9, 443639, Note_on_c, 10, 39, 0
9, 443640, Note_on_c, 10, 40, 80
9, 444599, Note_on_c, 10, 40, 0
9, 445440, Note_on_c, 10, 35, 80
9, 445679, Note_on_c, 10, 35, 0
9, 447360, Note_on_c, 10, 40, 80
9, 447839, Note_on_c, 10, 40, 0
9, 449280, Note_on_c, 10, 35, 80
9, 449519, Note_on_c, 10, 35, 0
9, 451200, Note_on_c, 10, 40, 80
9, 451679, Note_on_c, 10, 40, 0
9, 453120, Note_on_c, 10, 35, 80
9, 453359, Note_on_c, 10, 35, 0
9, 455040, Note_on_c, 10, 40, 80
9, 455999, Note_on_c, 10, 40, 0
9, 456960, Note_on_c, 10, 35, 80
9, 457199, Note_on_c, 10, 35, 0
9, 458880, Note_on_c, 10, 31, 80
9, 459839, Note_on_c, 10, 31, 0
9, 460800, Note_on_c, 10, 31, 80
9, 461279, Note_on_c, 10, 31, 0
9, 462720, Note_on_c, 10, 42, 80
9, 463679, Note_on_c, 10, 42, 0
9, 464640, Note_on_c, 10, 35, 80
9, 464879, Note_on_c, 10, 35, 0
9, 466560, Note_on_c, 10, 40, 80
9, 467039, Note_on_c, 10, 40, 0
9, 468480, Note_on_c, 10, 35, 80
9, 468959, Note_on_c, 10, 35, 0
9, 470400, Note_on_c, 10, 40, 80
9, 471359, Note_on_c, 10, 40, 0
9, 474240, Note_on_c, 10, 40, 80
9, 475199, Note_on_c, 10, 40, 0
9, 476160, Note_on_c, 10, 35, 80
9, 476399, Note_on_c, 10, 35, 0
9, 478080, Note_on_c, 10, 40, 80
9, 478559, Note_on_c, 10, 40, 0
9, 480000, Note_on_c, 10, 35, 80
9, 480239, Note_on_c, 10, 35, 0
9, 481920, Note_on_c, 10, 40, 80
9, 482399, Note_on_c, 10, 40, 0
9, 483840, Note_on_c, 10, 35, 80
9, 484079, Note_on_c, 10, 35, 0
9, 485760, Note_on_c, 10, 40, 80
9, 486719, Note_on_c, 10, 40, 0
9, 487680, Note_on_c, 10, 35, 80
9, 487919, Note_on_c, 10, 35, 0
9, 489600, Note_on_c, 10, 42, 80
9, 490079, Note_on_c, 10, 42, 0
9, 491520, Note_on_c, 10, 35, 80
9, 491759, Note_on_c, 10, 35, 0
9, 493440, Note_on_c, 10, 42, 80
9, 494399, Note_on_c, 10, 42, 0
9, 495360, Note_on_c, 10, 35, 80
9, 495599, Note_on_c, 10, 35, 0
9, 497280, Note_on_c, 10, 40, 80
9, 498239, Note_on_c, 10, 40, 0
9, 499200, Note_on_c, 10, 35, 80
9, 499439, Note_on_c, 10, 35, 0
9, 501120, Note_on_c, 10, 42, 80
9, 501359, Note_on_c, 10, 42, 0
9, 503040, Note_on_c, 10, 35, 80
9, 504959, Note_on_c, 10, 35, 0
9, 504960, Note_on_c, 10, 35, 80
9, 504983, Note_on_c, 10, 35, 0
9, 504984, Note_on_c, 10, 36, 80
9, 505007, Note_on_c, 10, 36, 0
9, 505008, Note_on_c, 10, 37, 80
9, 505031, Note_on_c, 10, 37, 0
9, 505032, Note_on_c, 10, 38, 80
9, 505055, Note_on_c, 10, 38, 0
9, 505056, Note_on_c, 10, 39, 80
9, 505079, Note_on_c, 10, 39, 0
9, 505080, Note_on_c, 10, 40, 80
9, 506039, Note_on_c, 10, 40, 0
9, 506880, Note_on_c, 10, 35, 80
9, 507119, Note_on_c, 10, 35, 0
9, 508800, Note_on_c, 10, 40, 80
9, 509279, Note_on_c, 10, 40, 0
9, 510720, Note_on_c, 10, 35, 80
9, 510959, Note_on_c, 10, 35, 0
9, 512640, Note_on_c, 10, 40, 80
9, 513119, Note_on_c, 10, 40, 0
9, 514560, Note_on_c, 10, 35, 80
9, 514799, Note_on_c, 10, 35, 0
9, 516480, Note_on_c, 10, 40, 80
9, 517439, Note_on_c, 10, 40, 0
9, 518400, Note_on_c, 10, 35, 80
9, 518639, Note_on_c, 10, 35, 0
9, 520320, Note_on_c, 10, 31, 80
9, 521279, Note_on_c, 10, 31, 0
9, 522240, Note_on_c, 10, 31, 80
9, 522719, Note_on_c, 10, 31, 0
9, 524160, Note_on_c, 10, 42, 80
9, 525119, Note_on_c, 10, 42, 0
9, 526080, Note_on_c, 10, 35, 80
9, 526319, Note_on_c, 10, 35, 0
9, 528000, Note_on_c, 10, 40, 80
9, 528479, Note_on_c, 10, 40, 0
9, 529920, Note_on_c, 10, 35, 80
9, 530399, Note_on_c, 10, 35, 0
9, 531840, Note_on_c, 10, 40, 80
9, 532799, Note_on_c, 10, 40, 0
9, 535680, Note_on_c, 10, 31, 80
9, 536639, Note_on_c, 10, 31, 0
9, 537600, Note_on_c, 10, 31, 80
9, 538079, Note_on_c, 10, 31, 0
9, 539520, Note_on_c, 10, 42, 80
9, 540479, Note_on_c, 10, 42, 0
9, 541440, Note_on_c, 10, 35, 80
9, 541679, Note_on_c, 10, 35, 0
9, 543360, Note_on_c, 10, 40, 80
9, 543839, Note_on_c, 10, 40, 0
9, 545280, Note_on_c, 10, 35, 80
9, 545759, Note_on_c, 10, 35, 0
9, 547200, Note_on_c, 10, 40, 80
9, 548159, Note_on_c, 10, 40, 0
9, 552960, Note_on_c, 10, 25, 80
9, 552960, Note_on_c, 10, 27, 80
9, 552960, Note_on_c, 10, 28, 80
9, 552960, Note_on_c, 10, 30, 80
9, 552960, Note_on_c, 10, 32, 80
9, 552960, Note_on_c, 10, 35, 80
9, 552960, Note_on_c, 10, 39, 80
9, 552960, Note_on_c, 10, 41, 80
9, 552960, Note_on_c, 10, 43, 80
9, 552960, Note_on_c, 10, 46, 80
9, 552960, Note_on_c, 10, 48, 80
9, 552960, Note_on_c, 10, 50, 80
9, 552960, Note_on_c, 10, 53, 80
9, 552960, Note_on_c, 10, 55, 80
9, 552960, Note_on_c, 10, 56, 80
9, 552960, Note_on_c, 10, 58, 80
9, 552960, Note_on_c, 10, 60, 80
9, 552960, Note_on_c, 10, 62, 80
9, 552960, Note_on_c, 10, 65, 80
9, 552960, Note_on_c, 10, 68, 80
9, 554879, Note_on_c, 10, 25, 0
9, 554879, Note_on_c, 10, 27, 0
9, 554879, Note_on_c, 10, 28, 0
9, 554879, Note_on_c, 10, 30, 0
9, 554879, Note_on_c, 10, 32, 0
9, 554879, Note_on_c, 10, 35, 0
9, 554879, Note_on_c, 10, 39, 0
9, 554879, Note_on_c, 10, 41, 0
9, 554879, Note_on_c, 10, 43, 0
9, 554879, Note_on_c, 10, 46, 0
9, 554879, Note_on_c, 10, 48, 0
9, 554879, Note_on_c, 10, 50, 0
9, 554879, Note_on_c, 10, 53, 0
9, 554879, Note_on_c, 10, 55, 0
9, 554879, Note_on_c, 10, 56, 0
9, 554879, Note_on_c, 10, 58, 0
9, 554879, Note_on_c, 10, 60, 0
9, 554879, Note_on_c, 10, 62, 0
9, 554879, Note_on_c, 10, 65, 0
9, 554879, Note_on_c, 10, 68, 0
9, 554880, End_track
10, 0, Start_track
10, 0, Key_signature, 0, "major"
10, 0, Control_c, 11, 121, 0
10, 0, Program_c, 11, 40
10, 0, Control_c, 11, 7, 100
10, 0, Control_c, 11, 10, 64
10, 0, Control_c, 11, 91, 0
10, 0, Control_c, 11, 93, 0
10, 0, MIDI_port, 0
10, 0, Control_c, 12, 121, 0
10, 0, Program_c, 12, 45
10, 0, Control_c, 12, 7, 100
10, 0, Control_c, 12, 10, 64
10, 0, Control_c, 12, 91, 0
10, 0, Control_c, 12, 93, 0
10, 0, MIDI_port, 0
10, 0, Control_c, 13, 121, 0
10, 0, Program_c, 13, 44
10, 0, Control_c, 13, 7, 100
10, 0, Control_c, 13, 10, 64
10, 0, Control_c, 13, 91, 0
10, 0, Control_c, 13, 93, 0
10, 0, MIDI_port, 0
10, 136320, Note_on_c, 11, 84, 80
10, 137759, Note_on_c, 11, 84, 0
10, 137760, Note_on_c, 11, 83, 80
10, 138239, Note_on_c, 11, 83, 0
10, 138240, Note_on_c, 11, 84, 80
10, 139679, Note_on_c, 11, 84, 0
10, 139680, Note_on_c, 11, 83, 80
10, 140159, Note_on_c, 11, 83, 0
10, 140160, Note_on_c, 11, 84, 80
10, 140639, Note_on_c, 11, 84, 0
10, 141120, Note_on_c, 11, 83, 80
10, 141599, Note_on_c, 11, 83, 0
10, 142080, Note_on_c, 11, 84, 80
10, 142559, Note_on_c, 11, 84, 0
10, 143040, Note_on_c, 11, 86, 80
10, 143519, Note_on_c, 11, 86, 0
10, 144000, Note_on_c, 11, 84, 80
10, 144959, Note_on_c, 11, 84, 0
10, 144960, Note_on_c, 11, 81, 80
10, 145439, Note_on_c, 11, 81, 0
10, 145920, Note_on_c, 11, 76, 80
10, 146399, Note_on_c, 11, 76, 0
10, 146880, Note_on_c, 11, 81, 80
10, 147359, Note_on_c, 11, 81, 0
10, 147840, Note_on_c, 11, 84, 80
10, 150719, Note_on_c, 11, 84, 0
10, 159360, Note_on_c, 11, 78, 80
10, 159839, Note_on_c, 11, 78, 0
10, 160320, Note_on_c, 11, 79, 80
10, 160799, Note_on_c, 11, 79, 0
10, 161280, Note_on_c, 11, 81, 80
10, 161759, Note_on_c, 11, 81, 0
10, 162240, Note_on_c, 11, 78, 80
10, 162719, Note_on_c, 11, 78, 0
10, 163200, Note_on_c, 11, 83, 80
10, 163679, Note_on_c, 11, 83, 0
10, 167040, Note_on_c, 11, 84, 80
10, 168479, Note_on_c, 11, 84, 0
10, 168480, Note_on_c, 11, 83, 80
10, 168959, Note_on_c, 11, 83, 0
10, 168960, Note_on_c, 11, 84, 80
10, 170399, Note_on_c, 11, 84, 0
10, 170400, Note_on_c, 11, 83, 80
10, 170879, Note_on_c, 11, 83, 0
10, 170880, Note_on_c, 11, 84, 80
10, 171359, Note_on_c, 11, 84, 0
10, 171840, Note_on_c, 11, 83, 80
10, 172319, Note_on_c, 11, 83, 0
10, 172800, Note_on_c, 11, 84, 80
10, 173279, Note_on_c, 11, 84, 0
10, 173760, Note_on_c, 11, 86, 80
10, 174239, Note_on_c, 11, 86, 0
10, 174720, Note_on_c, 11, 83, 80
10, 175679, Note_on_c, 11, 83, 0
10, 175680, Note_on_c, 11, 79, 80
10, 176159, Note_on_c, 11, 79, 0
10, 176640, Note_on_c, 11, 76, 80
10, 177119, Note_on_c, 11, 76, 0
10, 177600, Note_on_c, 11, 79, 80
10, 178079, Note_on_c, 11, 79, 0
10, 178560, Note_on_c, 11, 83, 80
10, 181439, Note_on_c, 11, 83, 0
10, 181440, Note_on_c, 11, 79, 80
10, 182399, Note_on_c, 11, 79, 0
10, 351360, Note_on_c, 11, 84, 80
10, 352799, Note_on_c, 11, 84, 0
10, 352800, Note_on_c, 11, 83, 80
10, 353279, Note_on_c, 11, 83, 0
10, 353280, Note_on_c, 11, 84, 80
10, 354719, Note_on_c, 11, 84, 0
10, 354720, Note_on_c, 11, 83, 80
10, 355199, Note_on_c, 11, 83, 0
10, 355200, Note_on_c, 11, 84, 80
10, 355679, Note_on_c, 11, 84, 0
10, 356160, Note_on_c, 11, 83, 80
10, 356639, Note_on_c, 11, 83, 0
10, 357120, Note_on_c, 11, 84, 80
10, 357599, Note_on_c, 11, 84, 0
10, 358080, Note_on_c, 11, 86, 80
10, 358559, Note_on_c, 11, 86, 0
10, 359040, Note_on_c, 11, 84, 80
10, 359999, Note_on_c, 11, 84, 0
10, 360000, Note_on_c, 11, 81, 80
10, 360479, Note_on_c, 11, 81, 0
10, 360960, Note_on_c, 11, 76, 80
10, 361439, Note_on_c, 11, 76, 0
10, 361920, Note_on_c, 11, 81, 80
10, 362399, Note_on_c, 11, 81, 0
10, 362880, Note_on_c, 11, 84, 80
10, 365759, Note_on_c, 11, 84, 0
10, 374400, Note_on_c, 11, 78, 80
10, 374879, Note_on_c, 11, 78, 0
10, 375360, Note_on_c, 11, 79, 80
10, 375839, Note_on_c, 11, 79, 0
10, 376320, Note_on_c, 11, 81, 80
10, 376799, Note_on_c, 11, 81, 0
10, 377280, Note_on_c, 11, 78, 80
10, 377759, Note_on_c, 11, 78, 0
10, 378240, Note_on_c, 11, 83, 80
10, 378719, Note_on_c, 11, 83, 0
10, 382080, Note_on_c, 11, 84, 80
10, 383519, Note_on_c, 11, 84, 0
10, 383520, Note_on_c, 11, 83, 80
10, 383999, Note_on_c, 11, 83, 0
10, 384000, Note_on_c, 11, 84, 80
10, 385439, Note_on_c, 11, 84, 0
10, 385440, Note_on_c, 11, 83, 80
10, 385919, Note_on_c, 11, 83, 0
10, 385920, Note_on_c, 11, 84, 80
10, 386399, Note_on_c, 11, 84, 0
10, 386880, Note_on_c, 11, 83, 80
10, 387359, Note_on_c, 11, 83, 0
10, 387840, Note_on_c, 11, 84, 80
10, 388319, Note_on_c, 11, 84, 0
10, 388800, Note_on_c, 11, 86, 80
10, 389279, Note_on_c, 11, 86, 0
10, 389760, Note_on_c, 11, 83, 80
10, 390719, Note_on_c, 11, 83, 0
10, 390720, Note_on_c, 11, 79, 80
10, 391199, Note_on_c, 11, 79, 0
10, 391680, Note_on_c, 11, 76, 80
10, 392159, Note_on_c, 11, 76, 0
10, 392640, Note_on_c, 11, 79, 80
10, 393119, Note_on_c, 11, 79, 0
10, 393600, Note_on_c, 11, 83, 80
10, 396479, Note_on_c, 11, 83, 0
10, 396480, Note_on_c, 11, 79, 80
10, 397439, Note_on_c, 11, 79, 0
10, 552960, Note_on_c, 11, 22, 80
10, 552960, Note_on_c, 11, 24, 80
10, 552960, Note_on_c, 11, 25, 80
10, 552960, Note_on_c, 11, 27, 80
10, 552960, Note_on_c, 11, 29, 80
10, 552960, Note_on_c, 11, 32, 80
10, 552960, Note_on_c, 11, 36, 80
10, 552960, Note_on_c, 11, 38, 80
10, 552960, Note_on_c, 11, 40, 80
10, 552960, Note_on_c, 11, 43, 80
10, 552960, Note_on_c, 11, 45, 80
10, 552960, Note_on_c, 11, 47, 80
10, 552960, Note_on_c, 11, 50, 80
10, 552960, Note_on_c, 11, 52, 80
10, 552960, Note_on_c, 11, 53, 80
10, 552960, Note_on_c, 11, 55, 80
10, 552960, Note_on_c, 11, 57, 80
10, 552960, Note_on_c, 11, 59, 80
10, 552960, Note_on_c, 11, 62, 80
10, 552960, Note_on_c, 11, 65, 80
10, 552960, Note_on_c, 11, 53, 0
10, 552960, Note_on_c, 11, 53, 80
10, 552960, Note_on_c, 12, 53, 0
10, 552960, Note_on_c, 13, 53, 0
10, 554879, Note_on_c, 11, 22, 0
10, 554879, Note_on_c, 11, 24, 0
10, 554879, Note_on_c, 11, 25, 0
10, 554879, Note_on_c, 11, 27, 0
10, 554879, Note_on_c, 11, 29, 0
10, 554879, Note_on_c, 11, 32, 0
10, 554879, Note_on_c, 11, 36, 0
10, 554879, Note_on_c, 11, 38, 0
10, 554879, Note_on_c, 11, 40, 0
10, 554879, Note_on_c, 11, 43, 0
10, 554879, Note_on_c, 11, 45, 0
10, 554879, Note_on_c, 11, 47, 0
10, 554879, Note_on_c, 11, 50, 0
10, 554879, Note_on_c, 11, 52, 0
10, 554879, Note_on_c, 11, 55, 0
10, 554879, Note_on_c, 11, 57, 0
10, 554879, Note_on_c, 11, 59, 0
10, 554879, Note_on_c, 11, 62, 0
10, 554879, Note_on_c, 11, 65, 0
10, 554879, Note_on_c, 11, 53, 0
10, 554880, End_track
11, 0, Start_track
11, 0, Key_signature, 0, "major"
11, 0, Control_c, 14, 121, 0
11, 0, Program_c, 14, 42
11, 0, Control_c, 14, 7, 100
11, 0, Control_c, 14, 10, 64
11, 0, Control_c, 14, 91, 0
11, 0, Control_c, 14, 93, 0
11, 0, MIDI_port, 0
11, 0, Control_c, 15, 121, 0
11, 0, Program_c, 15, 45
11, 0, Control_c, 15, 7, 100
11, 0, Control_c, 15, 10, 64
11, 0, Control_c, 15, 91, 0
11, 0, Control_c, 15, 93, 0
11, 0, MIDI_port, 0
11, 0, Control_c, 0, 121, 0
11, 0, Program_c, 0, 44
11, 0, Control_c, 0, 7, 100
11, 0, Control_c, 0, 10, 64
11, 0, Control_c, 0, 91, 0
11, 0, Control_c, 0, 93, 0
11, 0, MIDI_port, 0
11, 6720, Note_on_c, 14, 47, 80
11, 6959, Note_on_c, 14, 47, 0
11, 8640, Note_on_c, 14, 47, 80
11, 8879, Note_on_c, 14, 47, 0
11, 10560, Note_on_c, 14, 47, 80
11, 10799, Note_on_c, 14, 47, 0
11, 12480, Note_on_c, 14, 47, 80
11, 12719, Note_on_c, 14, 47, 0
11, 14400, Note_on_c, 14, 47, 80
11, 14639, Note_on_c, 14, 47, 0
11, 16320, Note_on_c, 14, 47, 80
11, 16559, Note_on_c, 14, 47, 0
11, 18240, Note_on_c, 14, 47, 80
11, 18479, Note_on_c, 14, 47, 0
11, 20160, Note_on_c, 14, 47, 80
11, 20399, Note_on_c, 14, 47, 0
11, 22080, Note_on_c, 14, 47, 80
11, 22319, Note_on_c, 14, 47, 0
11, 24000, Note_on_c, 14, 47, 80
11, 24239, Note_on_c, 14, 47, 0
11, 25920, Note_on_c, 14, 47, 80
11, 26159, Note_on_c, 14, 47, 0
11, 27840, Note_on_c, 14, 47, 80
11, 28079, Note_on_c, 14, 47, 0
11, 29760, Note_on_c, 14, 45, 80
11, 29999, Note_on_c, 14, 45, 0
11, 31680, Note_on_c, 14, 45, 80
11, 31919, Note_on_c, 14, 45, 0
11, 33600, Note_on_c, 14, 45, 80
11, 33839, Note_on_c, 14, 45, 0
11, 35520, Note_on_c, 14, 45, 80
11, 35759, Note_on_c, 14, 45, 0
11, 37440, Note_on_c, 14, 38, 80
11, 37679, Note_on_c, 14, 38, 0
11, 39360, Note_on_c, 14, 43, 80
11, 39599, Note_on_c, 14, 43, 0
11, 40320, Note_on_c, 14, 39, 80
11, 40559, Note_on_c, 14, 39, 0
11, 42240, Note_on_c, 14, 47, 80
11, 44159, Note_on_c, 14, 47, 0
11, 45120, Note_on_c, 14, 47, 80
11, 45359, Note_on_c, 14, 47, 0
11, 47040, Note_on_c, 14, 47, 80
11, 47279, Note_on_c, 14, 47, 0
11, 48960, Note_on_c, 14, 47, 80
11, 49199, Note_on_c, 14, 47, 0
11, 50880, Note_on_c, 14, 47, 80
11, 51119, Note_on_c, 14, 47, 0
11, 52800, Note_on_c, 14, 47, 80
11, 53039, Note_on_c, 14, 47, 0
11, 54720, Note_on_c, 14, 47, 80
11, 54959, Note_on_c, 14, 47, 0
11, 56640, Note_on_c, 14, 47, 80
11, 56879, Note_on_c, 14, 47, 0
11, 58560, Note_on_c, 14, 47, 80
11, 58799, Note_on_c, 14, 47, 0
11, 60480, Note_on_c, 14, 47, 80
11, 60719, Note_on_c, 14, 47, 0
11, 62400, Note_on_c, 14, 47, 80
11, 62639, Note_on_c, 14, 47, 0
11, 64320, Note_on_c, 14, 37, 80
11, 64559, Note_on_c, 14, 37, 0
11, 66240, Note_on_c, 14, 39, 80
11, 66479, Note_on_c, 14, 39, 0
11, 67200, Note_on_c, 14, 43, 80
11, 67679, Note_on_c, 14, 43, 0
11, 69120, Note_on_c, 14, 42, 80
11, 69599, Note_on_c, 14, 42, 0
11, 71040, Note_on_c, 14, 43, 80
11, 71999, Note_on_c, 14, 43, 0
11, 75840, Note_on_c, 14, 47, 80
11, 76079, Note_on_c, 14, 47, 0
11, 77760, Note_on_c, 14, 47, 80
11, 77999, Note_on_c, 14, 47, 0
11, 79680, Note_on_c, 14, 47, 80
11, 79919, Note_on_c, 14, 47, 0
11, 81600, Note_on_c, 14, 47, 80
11, 81839, Note_on_c, 14, 47, 0
11, 83520, Note_on_c, 14, 47, 80
11, 83759, Note_on_c, 14, 47, 0
11, 85440, Note_on_c, 14, 47, 80
11, 85679, Note_on_c, 14, 47, 0
11, 87360, Note_on_c, 14, 47, 80
11, 87599, Note_on_c, 14, 47, 0
11, 89280, Note_on_c, 14, 47, 80
11, 89519, Note_on_c, 14, 47, 0
11, 91200, Note_on_c, 14, 45, 80
11, 91439, Note_on_c, 14, 45, 0
11, 93120, Note_on_c, 14, 45, 80
11, 93359, Note_on_c, 14, 45, 0
11, 95040, Note_on_c, 14, 45, 80
11, 95279, Note_on_c, 14, 45, 0
11, 96960, Note_on_c, 14, 45, 80
11, 97199, Note_on_c, 14, 45, 0
11, 98880, Note_on_c, 14, 38, 80
11, 99119, Note_on_c, 14, 38, 0
11, 100800, Note_on_c, 14, 43, 80
11, 101039, Note_on_c, 14, 43, 0
11, 101760, Note_on_c, 14, 39, 80
11, 101999, Note_on_c, 14, 39, 0
11, 103680, Note_on_c, 14, 47, 80
11, 105599, Note_on_c, 14, 47, 0
11, 106560, Note_on_c, 14, 47, 80
11, 106799, Note_on_c, 14, 47, 0
11, 108480, Note_on_c, 14, 47, 80
11, 108719, Note_on_c, 14, 47, 0
11, 110400, Note_on_c, 14, 47, 80
11, 110639, Note_on_c, 14, 47, 0
11, 112320, Note_on_c, 14, 47, 80
11, 112559, Note_on_c, 14, 47, 0
11, 114240, Note_on_c, 14, 47, 80
11, 114479, Note_on_c, 14, 47, 0
11, 116160, Note_on_c, 14, 47, 80
11, 116399, Note_on_c, 14, 47, 0
11, 118080, Note_on_c, 14, 47, 80
11, 118319, Note_on_c, 14, 47, 0
11, 120000, Note_on_c, 14, 47, 80
11, 120239, Note_on_c, 14, 47, 0
11, 121920, Note_on_c, 14, 47, 80
11, 122159, Note_on_c, 14, 47, 0
11, 123840, Note_on_c, 14, 47, 80
11, 124079, Note_on_c, 14, 47, 0
11, 125760, Note_on_c, 14, 37, 80
11, 125999, Note_on_c, 14, 37, 0
11, 127680, Note_on_c, 14, 39, 80
11, 127919, Note_on_c, 14, 39, 0
11, 128640, Note_on_c, 14, 43, 80
11, 129119, Note_on_c, 14, 43, 0
11, 130560, Note_on_c, 14, 42, 80
11, 131039, Note_on_c, 14, 42, 0
11, 132480, Note_on_c, 14, 43, 80
11, 133439, Note_on_c, 14, 43, 0
11, 137280, Note_on_c, 14, 48, 80
11, 137519, Note_on_c, 14, 48, 0
11, 139200, Note_on_c, 14, 48, 80
11, 139439, Note_on_c, 14, 48, 0
11, 141120, Note_on_c, 14, 48, 80
11, 141359, Note_on_c, 14, 48, 0
11, 143040, Note_on_c, 14, 48, 80
11, 143279, Note_on_c, 14, 48, 0
11, 144960, Note_on_c, 14, 48, 80
11, 145199, Note_on_c, 14, 48, 0
11, 146880, Note_on_c, 14, 48, 80
11, 147119, Note_on_c, 14, 48, 0
11, 148800, Note_on_c, 14, 48, 80
11, 149039, Note_on_c, 14, 48, 0
11, 150720, Note_on_c, 14, 48, 80
11, 150959, Note_on_c, 14, 48, 0
11, 152640, Note_on_c, 14, 47, 80
11, 152879, Note_on_c, 14, 47, 0
11, 154560, Note_on_c, 14, 47, 80
11, 154799, Note_on_c, 14, 47, 0
11, 156480, Note_on_c, 14, 47, 80
11, 156719, Note_on_c, 14, 47, 0
11, 158400, Note_on_c, 14, 47, 80
11, 158639, Note_on_c, 14, 47, 0
11, 159360, Note_on_c, 14, 54, 80
11, 159839, Note_on_c, 14, 54, 0
11, 160320, Note_on_c, 14, 55, 80
11, 160799, Note_on_c, 14, 55, 0
11, 161280, Note_on_c, 14, 57, 80
11, 161759, Note_on_c, 14, 57, 0
11, 162240, Note_on_c, 14, 54, 80
11, 162719, Note_on_c, 14, 54, 0
11, 163200, Note_on_c, 14, 59, 80
11, 163679, Note_on_c, 14, 59, 0
11, 165120, Note_on_c, 14, 47, 80
11, 167039, Note_on_c, 14, 47, 0
11, 168000, Note_on_c, 14, 48, 80
11, 168239, Note_on_c, 14, 48, 0
11, 169920, Note_on_c, 14, 48, 80
11, 170159, Note_on_c, 14, 48, 0
11, 171840, Note_on_c, 14, 48, 80
11, 172079, Note_on_c, 14, 48, 0
11, 173760, Note_on_c, 14, 48, 80
11, 173999, Note_on_c, 14, 48, 0
11, 175680, Note_on_c, 14, 48, 80
11, 175919, Note_on_c, 14, 48, 0
11, 177600, Note_on_c, 14, 48, 80
11, 177839, Note_on_c, 14, 48, 0
11, 179520, Note_on_c, 14, 48, 80
11, 179759, Note_on_c, 14, 48, 0
11, 181440, Note_on_c, 14, 48, 80
11, 181679, Note_on_c, 14, 48, 0
11, 183360, Note_on_c, 14, 47, 80
11, 183599, Note_on_c, 14, 47, 0
11, 185280, Note_on_c, 14, 47, 80
11, 185519, Note_on_c, 14, 47, 0
11, 186240, Note_on_c, 14, 59, 80
11, 187199, Note_on_c, 14, 59, 0
11, 187200, Note_on_c, 14, 57, 80
11, 187679, Note_on_c, 14, 57, 0
11, 188160, Note_on_c, 14, 55, 80
11, 188399, Note_on_c, 14, 55, 0
11, 189120, Note_on_c, 14, 54, 80
11, 189359, Note_on_c, 14, 54, 0
11, 190080, Note_on_c, 14, 52, 80
11, 190559, Note_on_c, 14, 52, 0
11, 192000, Note_on_c, 14, 47, 80
11, 192479, Note_on_c, 14, 47, 0
11, 193920, Note_on_c, 14, 43, 80
11, 194879, Note_on_c, 14, 43, 0
11, 198720, Note_on_c, 14, 47, 80
11, 198959, Note_on_c, 14, 47, 0
11, 200640, Note_on_c, 14, 47, 80
11, 200879, Note_on_c, 14, 47, 0
11, 202560, Note_on_c, 14, 47, 80
11, 202799, Note_on_c, 14, 47, 0
11, 204480, Note_on_c, 14, 47, 80
11, 204719, Note_on_c, 14, 47, 0
11, 206400, Note_on_c, 14, 47, 80
11, 206639, Note_on_c, 14, 47, 0
11, 208320, Note_on_c, 14, 47, 80
11, 208559, Note_on_c, 14, 47, 0
11, 210240, Note_on_c, 14, 47, 80
11, 210479, Note_on_c, 14, 47, 0
11, 212160, Note_on_c, 14, 47, 80
11, 212399, Note_on_c, 14, 47, 0
11, 214080, Note_on_c, 14, 45, 80
11, 214319, Note_on_c, 14, 45, 0
11, 216000, Note_on_c, 14, 45, 80
11, 216239, Note_on_c, 14, 45, 0
11, 217920, Note_on_c, 14, 45, 80
11, 218159, Note_on_c, 14, 45, 0
11, 219840, Note_on_c, 14, 45, 80
11, 220079, Note_on_c, 14, 45, 0
11, 221760, Note_on_c, 14, 38, 80
11, 221999, Note_on_c, 14, 38, 0
11, 223680, Note_on_c, 14, 43, 80
11, 223919, Note_on_c, 14, 43, 0
11, 224640, Note_on_c, 14, 39, 80
11, 224879, Note_on_c, 14, 39, 0
11, 226560, Note_on_c, 14, 47, 80
11, 228479, Note_on_c, 14, 47, 0
11, 229440, Note_on_c, 14, 47, 80
11, 229679, Note_on_c, 14, 47, 0
11, 231360, Note_on_c, 14, 47, 80
11, 231599, Note_on_c, 14, 47, 0
11, 233280, Note_on_c, 14, 47, 80
11, 233519, Note_on_c, 14, 47, 0
11, 235200, Note_on_c, 14, 47, 80
11, 235439, Note_on_c, 14, 47, 0
11, 237120, Note_on_c, 14, 47, 80
11, 237359, Note_on_c, 14, 47, 0
11, 239040, Note_on_c, 14, 47, 80
11, 239279, Note_on_c, 14, 47, 0
11, 240960, Note_on_c, 14, 47, 80
11, 241199, Note_on_c, 14, 47, 0
11, 242880, Note_on_c, 14, 47, 80
11, 243119, Note_on_c, 14, 47, 0
11, 244800, Note_on_c, 14, 47, 80
11, 245039, Note_on_c, 14, 47, 0
11, 246720, Note_on_c, 14, 47, 80
11, 246959, Note_on_c, 14, 47, 0
11, 248640, Note_on_c, 14, 37, 80
11, 248879, Note_on_c, 14, 37, 0
11, 250560, Note_on_c, 14, 39, 80
11, 250799, Note_on_c, 14, 39, 0
11, 251520, Note_on_c, 14, 43, 80
11, 251999, Note_on_c, 14, 43, 0
11, 253440, Note_on_c, 14, 42, 80
11, 253919, Note_on_c, 14, 42, 0
11, 255360, Note_on_c, 14, 43, 80
11, 256319, Note_on_c, 14, 43, 0
11, 260160, Note_on_c, 14, 47, 80
11, 260399, Note_on_c, 14, 47, 0
11, 262080, Note_on_c, 14, 47, 80
11, 262319, Note_on_c, 14, 47, 0
11, 264000, Note_on_c, 14, 47, 80
11, 264239, Note_on_c, 14, 47, 0
11, 265920, Note_on_c, 14, 47, 80
11, 266159, Note_on_c, 14, 47, 0
11, 267840, Note_on_c, 14, 47, 80
11, 268079, Note_on_c, 14, 47, 0
11, 269760, Note_on_c, 14, 47, 80
11, 269999, Note_on_c, 14, 47, 0
11, 271680, Note_on_c, 14, 47, 80
11, 271919, Note_on_c, 14, 47, 0
11, 273600, Note_on_c, 14, 47, 80
11, 273839, Note_on_c, 14, 47, 0
11, 275520, Note_on_c, 14, 47, 80
11, 275759, Note_on_c, 14, 47, 0
11, 277440, Note_on_c, 14, 47, 80
11, 277679, Note_on_c, 14, 47, 0
11, 279360, Note_on_c, 14, 47, 80
11, 279599, Note_on_c, 14, 47, 0
11, 281280, Note_on_c, 14, 47, 80
11, 281519, Note_on_c, 14, 47, 0
11, 283200, Note_on_c, 14, 47, 80
11, 283439, Note_on_c, 14, 47, 0
11, 285120, Note_on_c, 14, 47, 80
11, 285359, Note_on_c, 14, 47, 0
11, 287040, Note_on_c, 14, 47, 80
11, 287279, Note_on_c, 14, 47, 0
11, 288960, Note_on_c, 14, 47, 80
11, 289199, Note_on_c, 14, 47, 0
11, 290880, Note_on_c, 14, 47, 80
11, 291119, Note_on_c, 14, 47, 0
11, 292800, Note_on_c, 14, 47, 80
11, 293039, Note_on_c, 14, 47, 0
11, 294720, Note_on_c, 14, 47, 80
11, 294959, Note_on_c, 14, 47, 0
11, 296640, Note_on_c, 14, 47, 80
11, 296879, Note_on_c, 14, 47, 0
11, 298560, Note_on_c, 14, 47, 80
11, 298799, Note_on_c, 14, 47, 0
11, 300480, Note_on_c, 14, 47, 80
11, 300719, Note_on_c, 14, 47, 0
11, 302400, Note_on_c, 14, 47, 80
11, 302639, Note_on_c, 14, 47, 0
11, 304320, Note_on_c, 14, 47, 80
11, 304559, Note_on_c, 14, 47, 0
11, 306240, Note_on_c, 14, 45, 80
11, 306479, Note_on_c, 14, 45, 0
11, 308160, Note_on_c, 14, 45, 80
11, 308399, Note_on_c, 14, 45, 0
11, 310080, Note_on_c, 14, 45, 80
11, 310319, Note_on_c, 14, 45, 0
11, 312000, Note_on_c, 14, 45, 80
11, 312239, Note_on_c, 14, 45, 0
11, 313920, Note_on_c, 14, 38, 80
11, 314159, Note_on_c, 14, 38, 0
11, 315840, Note_on_c, 14, 43, 80
11, 316079, Note_on_c, 14, 43, 0
11, 316800, Note_on_c, 14, 39, 80
11, 317039, Note_on_c, 14, 39, 0
11, 318720, Note_on_c, 14, 47, 80
11, 320639, Note_on_c, 14, 47, 0
11, 321600, Note_on_c, 14, 47, 80
11, 321839, Note_on_c, 14, 47, 0
11, 323520, Note_on_c, 14, 47, 80
11, 323759, Note_on_c, 14, 47, 0
11, 325440, Note_on_c, 14, 47, 80
11, 325679, Note_on_c, 14, 47, 0
11, 327360, Note_on_c, 14, 47, 80
11, 327599, Note_on_c, 14, 47, 0
11, 329280, Note_on_c, 14, 47, 80
11, 329519, Note_on_c, 14, 47, 0
11, 331200, Note_on_c, 14, 47, 80
11, 331439, Note_on_c, 14, 47, 0
11, 333120, Note_on_c, 14, 47, 80
11, 333359, Note_on_c, 14, 47, 0
11, 335040, Note_on_c, 14, 47, 80
11, 335279, Note_on_c, 14, 47, 0
11, 336960, Note_on_c, 14, 47, 80
11, 337199, Note_on_c, 14, 47, 0
11, 338880, Note_on_c, 14, 47, 80
11, 339119, Note_on_c, 14, 47, 0
11, 340800, Note_on_c, 14, 37, 80
11, 341039, Note_on_c, 14, 37, 0
11, 342720, Note_on_c, 14, 39, 80
11, 342959, Note_on_c, 14, 39, 0
11, 343680, Note_on_c, 14, 43, 80
11, 344159, Note_on_c, 14, 43, 0
11, 345600, Note_on_c, 14, 42, 80
11, 346079, Note_on_c, 14, 42, 0
11, 347520, Note_on_c, 14, 43, 80
11, 348479, Note_on_c, 14, 43, 0
11, 352320, Note_on_c, 14, 48, 80
11, 352559, Note_on_c, 14, 48, 0
11, 354240, Note_on_c, 14, 48, 80
11, 354479, Note_on_c, 14, 48, 0
11, 356160, Note_on_c, 14, 48, 80
11, 356399, Note_on_c, 14, 48, 0
11, 358080, Note_on_c, 14, 48, 80
11, 358319, Note_on_c, 14, 48, 0
11, 360000, Note_on_c, 14, 48, 80
11, 360239, Note_on_c, 14, 48, 0
11, 361920, Note_on_c, 14, 48, 80
11, 362159, Note_on_c, 14, 48, 0
11, 363840, Note_on_c, 14, 48, 80
11, 364079, Note_on_c, 14, 48, 0
11, 365760, Note_on_c, 14, 48, 80
11, 365999, Note_on_c, 14, 48, 0
11, 367680, Note_on_c, 14, 47, 80
11, 367919, Note_on_c, 14, 47, 0
11, 369600, Note_on_c, 14, 47, 80
11, 369839, Note_on_c, 14, 47, 0
11, 371520, Note_on_c, 14, 47, 80
11, 371759, Note_on_c, 14, 47, 0
11, 373440, Note_on_c, 14, 47, 80
11, 373679, Note_on_c, 14, 47, 0
11, 374400, Note_on_c, 14, 54, 80
11, 374879, Note_on_c, 14, 54, 0
11, 375360, Note_on_c, 14, 55, 80
11, 375839, Note_on_c, 14, 55, 0
11, 376320, Note_on_c, 14, 57, 80
11, 376799, Note_on_c, 14, 57, 0
11, 377280, Note_on_c, 14, 54, 80
11, 377759, Note_on_c, 14, 54, 0
11, 378240, Note_on_c, 14, 59, 80
11, 378719, Note_on_c, 14, 59, 0
11, 380160, Note_on_c, 14, 47, 80
11, 382079, Note_on_c, 14, 47, 0
11, 383040, Note_on_c, 14, 48, 80
11, 383279, Note_on_c, 14, 48, 0
11, 384960, Note_on_c, 14, 48, 80
11, 385199, Note_on_c, 14, 48, 0
11, 386880, Note_on_c, 14, 48, 80
11, 387119, Note_on_c, 14, 48, 0
11, 388800, Note_on_c, 14, 48, 80
11, 389039, Note_on_c, 14, 48, 0
11, 390720, Note_on_c, 14, 48, 80
11, 390959, Note_on_c, 14, 48, 0
11, 392640, Note_on_c, 14, 48, 80
11, 392879, Note_on_c, 14, 48, 0
11, 394560, Note_on_c, 14, 48, 80
11, 394799, Note_on_c, 14, 48, 0
11, 396480, Note_on_c, 14, 48, 80
11, 396719, Note_on_c, 14, 48, 0
11, 398400, Note_on_c, 14, 47, 80
11, 398639, Note_on_c, 14, 47, 0
11, 400320, Note_on_c, 14, 47, 80
11, 400559, Note_on_c, 14, 47, 0
11, 401280, Note_on_c, 14, 59, 80
11, 402239, Note_on_c, 14, 59, 0
11, 402240, Note_on_c, 14, 57, 80
11, 402719, Note_on_c, 14, 57, 0
11, 403200, Note_on_c, 14, 55, 80
11, 403439, Note_on_c, 14, 55, 0
11, 404160, Note_on_c, 14, 54, 80
11, 404399, Note_on_c, 14, 54, 0
11, 405120, Note_on_c, 14, 52, 80
11, 405599, Note_on_c, 14, 52, 0
11, 407040, Note_on_c, 14, 47, 80
11, 407519, Note_on_c, 14, 47, 0
11, 408960, Note_on_c, 14, 43, 80
11, 409919, Note_on_c, 14, 43, 0
11, 413760, Note_on_c, 14, 47, 80
11, 413999, Note_on_c, 14, 47, 0
11, 415680, Note_on_c, 14, 47, 80
11, 415919, Note_on_c, 14, 47, 0
11, 417600, Note_on_c, 14, 47, 80
11, 417839, Note_on_c, 14, 47, 0
11, 419520, Note_on_c, 14, 47, 80
11, 419759, Note_on_c, 14, 47, 0
11, 421440, Note_on_c, 14, 47, 80
11, 421679, Note_on_c, 14, 47, 0
11, 423360, Note_on_c, 14, 47, 80
11, 423599, Note_on_c, 14, 47, 0
11, 425280, Note_on_c, 14, 47, 80
11, 425519, Note_on_c, 14, 47, 0
11, 427200, Note_on_c, 14, 47, 80
11, 427439, Note_on_c, 14, 47, 0
11, 429120, Note_on_c, 14, 45, 80
11, 429359, Note_on_c, 14, 45, 0
11, 431040, Note_on_c, 14, 45, 80
11, 431279, Note_on_c, 14, 45, 0
11, 432960, Note_on_c, 14, 45, 80
11, 433199, Note_on_c, 14, 45, 0
11, 434880, Note_on_c, 14, 45, 80
11, 435119, Note_on_c, 14, 45, 0
11, 436800, Note_on_c, 14, 38, 80
11, 437039, Note_on_c, 14, 38, 0
11, 438720, Note_on_c, 14, 43, 80
11, 438959, Note_on_c, 14, 43, 0
11, 439680, Note_on_c, 14, 39, 80
11, 439919, Note_on_c, 14, 39, 0
11, 441600, Note_on_c, 14, 47, 80
11, 443519, Note_on_c, 14, 47, 0
11, 444480, Note_on_c, 14, 47, 80
11, 444719, Note_on_c, 14, 47, 0
11, 446400, Note_on_c, 14, 47, 80
11, 446639, Note_on_c, 14, 47, 0
11, 448320, Note_on_c, 14, 47, 80
11, 448559, Note_on_c, 14, 47, 0
11, 450240, Note_on_c, 14, 47, 80
11, 450479, Note_on_c, 14, 47, 0
11, 452160, Note_on_c, 14, 47, 80
11, 452399, Note_on_c, 14, 47, 0
11, 454080, Note_on_c, 14, 47, 80
11, 454319, Note_on_c, 14, 47, 0
11, 456000, Note_on_c, 14, 47, 80
11, 456239, Note_on_c, 14, 47, 0
11, 457920, Note_on_c, 14, 47, 80
11, 458159, Note_on_c, 14, 47, 0
11, 459840, Note_on_c, 14, 47, 80
11, 460079, Note_on_c, 14, 47, 0
11, 461760, Note_on_c, 14, 47, 80
11, 461999, Note_on_c, 14, 47, 0
11, 463680, Note_on_c, 14, 37, 80
11, 463919, Note_on_c, 14, 37, 0
11, 465600, Note_on_c, 14, 39, 80
11, 465839, Note_on_c, 14, 39, 0
11, 466560, Note_on_c, 14, 43, 80
11, 467039, Note_on_c, 14, 43, 0
11, 468480, Note_on_c, 14, 42, 80
11, 468959, Note_on_c, 14, 42, 0
11, 470400, Note_on_c, 14, 43, 80
11, 471359, Note_on_c, 14, 43, 0
11, 475200, Note_on_c, 14, 47, 80
11, 475439, Note_on_c, 14, 47, 0
11, 477120, Note_on_c, 14, 47, 80
11, 477359, Note_on_c, 14, 47, 0
11, 479040, Note_on_c, 14, 47, 80
11, 479279, Note_on_c, 14, 47, 0
11, 480960, Note_on_c, 14, 47, 80
11, 481199, Note_on_c, 14, 47, 0
11, 482880, Note_on_c, 14, 47, 80
11, 483119, Note_on_c, 14, 47, 0
11, 484800, Note_on_c, 14, 47, 80
11, 485039, Note_on_c, 14, 47, 0
11, 486720, Note_on_c, 14, 47, 80
11, 486959, Note_on_c, 14, 47, 0
11, 488640, Note_on_c, 14, 47, 80
11, 488879, Note_on_c, 14, 47, 0
11, 490560, Note_on_c, 14, 45, 80
11, 490799, Note_on_c, 14, 45, 0
11, 492480, Note_on_c, 14, 45, 80
11, 492719, Note_on_c, 14, 45, 0
11, 494400, Note_on_c, 14, 45, 80
11, 494639, Note_on_c, 14, 45, 0
11, 496320, Note_on_c, 14, 45, 80
11, 496559, Note_on_c, 14, 45, 0
11, 498240, Note_on_c, 14, 38, 80
11, 498479, Note_on_c, 14, 38, 0
11, 500160, Note_on_c, 14, 43, 80
11, 500399, Note_on_c, 14, 43, 0
11, 501120, Note_on_c, 14, 39, 80
11, 501359, Note_on_c, 14, 39, 0
11, 503040, Note_on_c, 14, 47, 80
11, 504959, Note_on_c, 14, 47, 0
11, 505920, Note_on_c, 14, 47, 80
11, 506159, Note_on_c, 14, 47, 0
11, 507840, Note_on_c, 14, 47, 80
11, 508079, Note_on_c, 14, 47, 0
11, 509760, Note_on_c, 14, 47, 80
11, 509999, Note_on_c, 14, 47, 0
11, 511680, Note_on_c, 14, 47, 80
11, 511919, Note_on_c, 14, 47, 0
11, 513600, Note_on_c, 14, 47, 80
11, 513839, Note_on_c, 14, 47, 0
11, 515520, Note_on_c, 14, 47, 80
11, 515759, Note_on_c, 14, 47, 0
11, 517440, Note_on_c, 14, 47, 80
11, 517679, Note_on_c, 14, 47, 0
11, 519360, Note_on_c, 14, 47, 80
11, 519599, Note_on_c, 14, 47, 0
11, 521280, Note_on_c, 14, 47, 80
11, 521519, Note_on_c, 14, 47, 0
11, 523200, Note_on_c, 14, 47, 80
11, 523439, Note_on_c, 14, 47, 0
11, 525120, Note_on_c, 14, 37, 80
11, 525359, Note_on_c, 14, 37, 0
11, 527040, Note_on_c, 14, 39, 80
11, 527279, Note_on_c, 14, 39, 0
11, 528000, Note_on_c, 14, 43, 80
11, 528479, Note_on_c, 14, 43, 0
11, 529920, Note_on_c, 14, 42, 80
11, 530399, Note_on_c, 14, 42, 0
11, 531840, Note_on_c, 14, 43, 80
11, 532799, Note_on_c, 14, 43, 0
11, 536640, Note_on_c, 14, 47, 80
11, 536879, Note_on_c, 14, 47, 0
11, 538560, Note_on_c, 14, 47, 80
11, 538799, Note_on_c, 14, 47, 0
11, 540480, Note_on_c, 14, 37, 80
11, 540719, Note_on_c, 14, 37, 0
11, 542400, Note_on_c, 14, 39, 80
11, 542639, Note_on_c, 14, 39, 0
11, 543360, Note_on_c, 14, 43, 80
11, 543839, Note_on_c, 14, 43, 0
11, 545280, Note_on_c, 14, 42, 80
11, 545759, Note_on_c, 14, 42, 0
11, 547200, Note_on_c, 14, 43, 80
11, 548159, Note_on_c, 14, 43, 0
11, 552960, Note_on_c, 14, 22, 80
11, 552960, Note_on_c, 14, 24, 80
11, 552960, Note_on_c, 14, 25, 80
11, 552960, Note_on_c, 14, 27, 80
11, 552960, Note_on_c, 14, 29, 80
11, 552960, Note_on_c, 14, 32, 80
11, 552960, Note_on_c, 14, 36, 80
11, 552960, Note_on_c, 14, 38, 80
11, 552960, Note_on_c, 14, 40, 80
11, 552960, Note_on_c, 14, 43, 80
11, 552960, Note_on_c, 14, 45, 80
11, 552960, Note_on_c, 14, 47, 80
11, 552960, Note_on_c, 14, 50, 80
11, 552960, Note_on_c, 14, 52, 80
11, 552960, Note_on_c, 14, 53, 80
11, 552960, Note_on_c, 14, 55, 80
11, 552960, Note_on_c, 14, 57, 80
11, 552960, Note_on_c, 14, 59, 80
11, 552960, Note_on_c, 14, 62, 80
11, 552960, Note_on_c, 14, 65, 80
11, 554879, Note_on_c, 14, 22, 0
11, 554879, Note_on_c, 14, 24, 0
11, 554879, Note_on_c, 14, 25, 0
11, 554879, Note_on_c, 14, 27, 0
11, 554879, Note_on_c, 14, 29, 0
11, 554879, Note_on_c, 14, 32, 0
11, 554879, Note_on_c, 14, 36, 0
11, 554879, Note_on_c, 14, 38, 0
11, 554879, Note_on_c, 14, 40, 0
11, 554879, Note_on_c, 14, 43, 0
11, 554879, Note_on_c, 14, 45, 0
11, 554879, Note_on_c, 14, 47, 0
11, 554879, Note_on_c, 14, 50, 0
11, 554879, Note_on_c, 14, 52, 0
11, 554879, Note_on_c, 14, 53, 0
11, 554879, Note_on_c, 14, 55, 0
11, 554879, Note_on_c, 14, 57, 0
11, 554879, Note_on_c, 14, 59, 0
11, 554879, Note_on_c, 14, 62, 0
11, 554879, Note_on_c, 14, 65, 0
11, 554880, End_track
12, 0, Start_track
12, 0, Key_signature, 0, "major"
12, 0, Control_c, 1, 121, 0
12, 0, Program_c, 1, 43
12, 0, Control_c, 1, 7, 100
12, 0, Control_c, 1, 10, 64
12, 0, Control_c, 1, 91, 0
12, 0, Control_c, 1, 93, 0
12, 0, MIDI_port, 1
12, 0, Control_c, 2, 121, 0
12, 0, Program_c, 2, 32
12, 0, Control_c, 2, 7, 100
12, 0, Control_c, 2, 10, 64
12, 0, Control_c, 2, 91, 0
12, 0, Control_c, 2, 93, 0
12, 0, MIDI_port, 1
12, 0, Control_c, 3, 121, 0
12, 0, Program_c, 3, 44
12, 0, Control_c, 3, 7, 100
12, 0, Control_c, 3, 10, 64
12, 0, Control_c, 3, 91, 0
12, 0, Control_c, 3, 93, 0
12, 0, MIDI_port, 1
12, 120, Note_on_c, 1, 71, 80
12, 1919, Note_on_c, 1, 71, 0
12, 1920, Note_on_c, 1, 71, 80
12, 2639, Note_on_c, 1, 71, 0
12, 2640, Note_on_c, 1, 71, 80
12, 3239, Note_on_c, 1, 71, 0
12, 3240, Note_on_c, 1, 71, 80
12, 3479, Note_on_c, 1, 71, 0
12, 3480, Note_on_c, 1, 71, 80
12, 3719, Note_on_c, 1, 71, 0
12, 3720, Note_on_c, 1, 71, 80
12, 3839, Note_on_c, 1, 71, 0
12, 3840, Note_on_c, 1, 71, 80
12, 3959, Note_on_c, 1, 71, 0
12, 3960, Note_on_c, 1, 71, 80
12, 4079, Note_on_c, 1, 71, 0
12, 4080, Note_on_c, 1, 71, 80
12, 4199, Note_on_c, 1, 71, 0
12, 4200, Note_on_c, 1, 71, 80
12, 4319, Note_on_c, 1, 71, 0
12, 4320, Note_on_c, 1, 71, 80
12, 4379, Note_on_c, 1, 71, 0
12, 4380, Note_on_c, 1, 71, 80
12, 4439, Note_on_c, 1, 71, 0
12, 4440, Note_on_c, 1, 71, 80
12, 4499, Note_on_c, 1, 71, 0
12, 4500, Note_on_c, 1, 71, 80
12, 4559, Note_on_c, 1, 71, 0
12, 4560, Note_on_c, 1, 71, 80
12, 4619, Note_on_c, 1, 71, 0
12, 4620, Note_on_c, 1, 71, 80
12, 4679, Note_on_c, 1, 71, 0
12, 4680, Note_on_c, 1, 71, 80
12, 4719, Note_on_c, 1, 71, 0
12, 4720, Note_on_c, 1, 71, 80
12, 4759, Note_on_c, 1, 71, 0
12, 4760, Note_on_c, 1, 71, 80
12, 4799, Note_on_c, 1, 71, 0
12, 4800, Note_on_c, 1, 71, 80
12, 4839, Note_on_c, 1, 71, 0
12, 4840, Note_on_c, 1, 71, 80
12, 4879, Note_on_c, 1, 71, 0
12, 4880, Note_on_c, 1, 71, 80
12, 4919, Note_on_c, 1, 71, 0
12, 4920, Note_on_c, 1, 71, 80
12, 4959, Note_on_c, 1, 71, 0
12, 4960, Note_on_c, 1, 71, 80
12, 4999, Note_on_c, 1, 71, 0
12, 5000, Note_on_c, 1, 71, 80
12, 5039, Note_on_c, 1, 71, 0
12, 5040, Note_on_c, 1, 71, 80
12, 5079, Note_on_c, 1, 71, 0
12, 5080, Note_on_c, 1, 71, 80
12, 5119, Note_on_c, 1, 71, 0
12, 5120, Note_on_c, 1, 71, 80
12, 5139, Note_on_c, 1, 71, 0
12, 5140, Note_on_c, 1, 71, 80
12, 5159, Note_on_c, 1, 71, 0
12, 5160, Note_on_c, 1, 71, 80
12, 5189, Note_on_c, 1, 71, 0
12, 5190, Note_on_c, 1, 71, 80
12, 5219, Note_on_c, 1, 71, 0
12, 5220, Note_on_c, 1, 71, 80
12, 5249, Note_on_c, 1, 71, 0
12, 5250, Note_on_c, 1, 71, 80
12, 5279, Note_on_c, 1, 71, 0
12, 5280, Note_on_c, 1, 71, 80
12, 5309, Note_on_c, 1, 71, 0
12, 5310, Note_on_c, 1, 71, 80
12, 5339, Note_on_c, 1, 71, 0
12, 5340, Note_on_c, 1, 71, 80
12, 5369, Note_on_c, 1, 71, 0
12, 5370, Note_on_c, 1, 71, 80
12, 5399, Note_on_c, 1, 71, 0
12, 5400, Note_on_c, 1, 71, 80
12, 5429, Note_on_c, 1, 71, 0
12, 5430, Note_on_c, 1, 71, 80
12, 5459, Note_on_c, 1, 71, 0
12, 5460, Note_on_c, 1, 71, 80
12, 5489, Note_on_c, 1, 71, 0
12, 5490, Note_on_c, 1, 71, 80
12, 5519, Note_on_c, 1, 71, 0
12, 5520, Note_on_c, 1, 71, 80
12, 5549, Note_on_c, 1, 71, 0
12, 5550, Note_on_c, 1, 71, 80
12, 5579, Note_on_c, 1, 71, 0
12, 5580, Note_on_c, 1, 71, 80
12, 5609, Note_on_c, 1, 71, 0
12, 5610, Note_on_c, 1, 71, 80
12, 5639, Note_on_c, 1, 71, 0
12, 5640, Note_on_c, 1, 71, 80
12, 5669, Note_on_c, 1, 71, 0
12, 5670, Note_on_c, 1, 71, 80
12, 5699, Note_on_c, 1, 71, 0
12, 5700, Note_on_c, 1, 71, 80
12, 5729, Note_on_c, 1, 71, 0
12, 5730, Note_on_c, 1, 71, 80
12, 5759, Note_on_c, 1, 71, 0
12, 9600, Note_on_c, 1, 35, 80
12, 9623, Note_on_c, 1, 35, 0
12, 9624, Note_on_c, 1, 36, 80
12, 9647, Note_on_c, 1, 36, 0
12, 9648, Note_on_c, 1, 37, 80
12, 9671, Note_on_c, 1, 37, 0
12, 9672, Note_on_c, 1, 38, 80
12, 9695, Note_on_c, 1, 38, 0
12, 9696, Note_on_c, 1, 39, 80
12, 9719, Note_on_c, 1, 39, 0
12, 9720, Note_on_c, 1, 40, 80
12, 10679, Note_on_c, 1, 40, 0
12, 42240, Note_on_c, 1, 35, 80
12, 44159, Note_on_c, 1, 35, 0
12, 44160, Note_on_c, 1, 35, 80
12, 44183, Note_on_c, 1, 35, 0
12, 44184, Note_on_c, 1, 36, 80
12, 44207, Note_on_c, 1, 36, 0
12, 44208, Note_on_c, 1, 37, 80
12, 44231, Note_on_c, 1, 37, 0
12, 44232, Note_on_c, 1, 38, 80
12, 44255, Note_on_c, 1, 38, 0
12, 44256, Note_on_c, 1, 39, 80
12, 44279, Note_on_c, 1, 39, 0
12, 44280, Note_on_c, 1, 40, 80
12, 45239, Note_on_c, 1, 40, 0
12, 103680, Note_on_c, 1, 35, 80
12, 105599, Note_on_c, 1, 35, 0
12, 105600, Note_on_c, 1, 35, 80
12, 105623, Note_on_c, 1, 35, 0
12, 105624, Note_on_c, 1, 36, 80
12, 105647, Note_on_c, 1, 36, 0
12, 105648, Note_on_c, 1, 37, 80
12, 105671, Note_on_c, 1, 37, 0
12, 105672, Note_on_c, 1, 38, 80
12, 105695, Note_on_c, 1, 38, 0
12, 105696, Note_on_c, 1, 39, 80
12, 105719, Note_on_c, 1, 39, 0
12, 105720, Note_on_c, 1, 40, 80
12, 106679, Note_on_c, 1, 40, 0
12, 132480, Note_on_c, 1, 28, 80
12, 133439, Note_on_c, 1, 28, 0
12, 159360, Note_on_c, 1, 30, 80
12, 159839, Note_on_c, 1, 30, 0
12, 160320, Note_on_c, 1, 31, 80
12, 160799, Note_on_c, 1, 31, 0
12, 161280, Note_on_c, 1, 33, 80
12, 161759, Note_on_c, 1, 33, 0
12, 162240, Note_on_c, 1, 30, 80
12, 162719, Note_on_c, 1, 30, 0
12, 163200, Note_on_c, 1, 35, 80
12, 163679, Note_on_c, 1, 35, 0
12, 165120, Note_on_c, 1, 35, 80
12, 167039, Note_on_c, 1, 35, 0
12, 184320, Note_on_c, 1, 31, 80
12, 184799, Note_on_c, 1, 31, 0
12, 186240, Note_on_c, 1, 47, 80
12, 187199, Note_on_c, 1, 47, 0
12, 187200, Note_on_c, 1, 45, 80
12, 187679, Note_on_c, 1, 45, 0
12, 188160, Note_on_c, 1, 43, 80
12, 188399, Note_on_c, 1, 43, 0
12, 189120, Note_on_c, 1, 42, 80
12, 189359, Note_on_c, 1, 42, 0
12, 190080, Note_on_c, 1, 40, 80
12, 190559, Note_on_c, 1, 40, 0
12, 192000, Note_on_c, 1, 35, 80
12, 192479, Note_on_c, 1, 35, 0
12, 193920, Note_on_c, 1, 28, 80
12, 194879, Note_on_c, 1, 28, 0
12, 197760, Note_on_c, 1, 28, 80
12, 198719, Note_on_c, 1, 28, 0
12, 224640, Note_on_c, 1, 30, 80
12, 224879, Note_on_c, 1, 30, 0
12, 226560, Note_on_c, 1, 35, 80
12, 228479, Note_on_c, 1, 35, 0
12, 228480, Note_on_c, 1, 35, 80
12, 228503, Note_on_c, 1, 35, 0
12, 228504, Note_on_c, 1, 36, 80
12, 228527, Note_on_c, 1, 36, 0
12, 228528, Note_on_c, 1, 37, 80
12, 228551, Note_on_c, 1, 37, 0
12, 228552, Note_on_c, 1, 38, 80
12, 228575, Note_on_c, 1, 38, 0
12, 228576, Note_on_c, 1, 39, 80
12, 228599, Note_on_c, 1, 39, 0
12, 228600, Note_on_c, 1, 40, 80
12, 229559, Note_on_c, 1, 40, 0
12, 251520, Note_on_c, 1, 28, 80
12, 251999, Note_on_c, 1, 28, 0
12, 253440, Note_on_c, 1, 35, 80
12, 253919, Note_on_c, 1, 35, 0
12, 255360, Note_on_c, 1, 28, 80
12, 256319, Note_on_c, 1, 28, 0
12, 318720, Note_on_c, 1, 35, 80
12, 320639, Note_on_c, 1, 35, 0
12, 320640, Note_on_c, 1, 35, 80
12, 320663, Note_on_c, 1, 35, 0
12, 320664, Note_on_c, 1, 36, 80
12, 320687, Note_on_c, 1, 36, 0
12, 320688, Note_on_c, 1, 37, 80
12, 320711, Note_on_c, 1, 37, 0
12, 320712, Note_on_c, 1, 38, 80
12, 320735, Note_on_c, 1, 38, 0
12, 320736, Note_on_c, 1, 39, 80
12, 320759, Note_on_c, 1, 39, 0
12, 320760, Note_on_c, 1, 40, 80
12, 321719, Note_on_c, 1, 40, 0
12, 347520, Note_on_c, 1, 28, 80
12, 348479, Note_on_c, 1, 28, 0
12, 374400, Note_on_c, 1, 30, 80
12, 374879, Note_on_c, 1, 30, 0
12, 375360, Note_on_c, 1, 31, 80
12, 375839, Note_on_c, 1, 31, 0
12, 376320, Note_on_c, 1, 33, 80
12, 376799, Note_on_c, 1, 33, 0
12, 377280, Note_on_c, 1, 30, 80
12, 377759, Note_on_c, 1, 30, 0
12, 378240, Note_on_c, 1, 35, 80
12, 378719, Note_on_c, 1, 35, 0
12, 380160, Note_on_c, 1, 35, 80
12, 382079, Note_on_c, 1, 35, 0
12, 401280, Note_on_c, 1, 47, 80
12, 402239, Note_on_c, 1, 47, 0
12, 402240, Note_on_c, 1, 45, 80
12, 402719, Note_on_c, 1, 45, 0
12, 403200, Note_on_c, 1, 43, 80
12, 403439, Note_on_c, 1, 43, 0
12, 404160, Note_on_c, 1, 42, 80
12, 404399, Note_on_c, 1, 42, 0
12, 405120, Note_on_c, 1, 40, 80
12, 405599, Note_on_c, 1, 40, 0
12, 407040, Note_on_c, 1, 35, 80
12, 407519, Note_on_c, 1, 35, 0
12, 408960, Note_on_c, 1, 28, 80
12, 409919, Note_on_c, 1, 28, 0
12, 424320, Note_on_c, 1, 28, 80
12, 425279, Note_on_c, 1, 28, 0
12, 439680, Note_on_c, 1, 30, 80
12, 439919, Note_on_c, 1, 30, 0
12, 441600, Note_on_c, 1, 35, 80
12, 443519, Note_on_c, 1, 35, 0
12, 443520, Note_on_c, 1, 35, 80
12, 443543, Note_on_c, 1, 35, 0
12, 443544, Note_on_c, 1, 36, 80
12, 443567, Note_on_c, 1, 36, 0
12, 443568, Note_on_c, 1, 37, 80
12, 443591, Note_on_c, 1, 37, 0
12, 443592, Note_on_c, 1, 38, 80
12, 443615, Note_on_c, 1, 38, 0
12, 443616, Note_on_c, 1, 39, 80
12, 443639, Note_on_c, 1, 39, 0
12, 443640, Note_on_c, 1, 40, 80
12, 444599, Note_on_c, 1, 40, 0
12, 466560, Note_on_c, 1, 28, 80
12, 467039, Note_on_c, 1, 28, 0
12, 468480, Note_on_c, 1, 35, 80
12, 468959, Note_on_c, 1, 35, 0
12, 470400, Note_on_c, 1, 28, 80
12, 471359, Note_on_c, 1, 28, 0
12, 497280, Note_on_c, 1, 28, 80
12, 498239, Note_on_c, 1, 28, 0
12, 501120, Note_on_c, 1, 30, 80
12, 501359, Note_on_c, 1, 30, 0
12, 503040, Note_on_c, 1, 35, 80
12, 504959, Note_on_c, 1, 35, 0
12, 504960, Note_on_c, 1, 35, 80
12, 504983, Note_on_c, 1, 35, 0
12, 504984, Note_on_c, 1, 36, 80
12, 505007, Note_on_c, 1, 36, 0
12, 505008, Note_on_c, 1, 37, 80
12, 505031, Note_on_c, 1, 37, 0
12, 505032, Note_on_c, 1, 38, 80
12, 505055, Note_on_c, 1, 38, 0
12, 505056, Note_on_c, 1, 39, 80
12, 505079, Note_on_c, 1, 39, 0
12, 505080, Note_on_c, 1, 40, 80
12, 506039, Note_on_c, 1, 40, 0
12, 528000, Note_on_c, 1, 28, 80
12, 528479, Note_on_c, 1, 28, 0
12, 529920, Note_on_c, 1, 35, 80
12, 530399, Note_on_c, 1, 35, 0
12, 545280, Note_on_c, 1, 35, 80
12, 545759, Note_on_c, 1, 35, 0
12, 547200, Note_on_c, 1, 28, 80
12, 548159, Note_on_c, 1, 28, 0
12, 552960, Note_on_c, 1, 21, 80
12, 552960, Note_on_c, 1, 23, 80
12, 552960, Note_on_c, 1, 24, 80
12, 552960, Note_on_c, 1, 26, 80
12, 552960, Note_on_c, 1, 28, 80
12, 554879, Note_on_c, 1, 21, 0
12, 554879, Note_on_c, 1, 23, 0
12, 554879, Note_on_c, 1, 24, 0
12, 554879, Note_on_c, 1, 26, 0
12, 554879, Note_on_c, 1, 28, 0
12, 554880, End_track
0, 0, End_of_file
