0, 0, Header, 1, 4, 96
1, 0, Start_track
1, 0, Time_signature, 4, 2, 24, 8
1, 0, End_track
2, 0, Start_track
2, 0, Tempo, 857143
2, 0, Tempo, 857143
2, 0, Tempo, 857143
2, 14592, Tempo, 1333333
2, 28848, Tempo, 857143
2, 28848, End_track
3, 0, Start_track
3, 0, Title_t, "CFX Concert Grand"
3, 0, Control_c, 0, 10, 64
3, 0, Control_c, 0, 7, 100
3, 0, Pitch_bend_c, 0, 8192
3, 0, Control_c, 0, 101, 0
3, 0, Control_c, 0, 100, 0
3, 0, Control_c, 0, 6, 12
3, 0, Control_c, 0, 10, 64
3, 0, Control_c, 0, 7, 100
3, 0, Pitch_bend_c, 0, 8192
3, 0, Program_c, 0, 0
3, 0, Control_c, 0, 7, 100
3, 0, Control_c, 0, 10, 64
3, 0, Control_c, 0, 101, 0
3, 0, Control_c, 0, 100, 0
3, 0, Control_c, 0, 6, 12
3, 0, Control_c, 0, 10, 64
3, 0, Control_c, 0, 7, 100
3, 0, Pitch_bend_c, 0, 8192
3, 0, Program_c, 0, 0
3, 0, Control_c, 0, 7, 100
3, 0, Control_c, 0, 10, 64
3, 0, Note_on_c, 0, 69, 64
3, 0, Note_on_c, 0, 60, 64
3, 0, Note_on_c, 0, 57, 64
3, 0, Control_c, 0, 101, 0
3, 0, Control_c, 0, 100, 0
3, 0, Control_c, 0, 6, 12
3, 0, Control_c, 0, 10, 64
3, 0, Control_c, 0, 7, 100
3, 0, Pitch_bend_c, 0, 8192
3, 0, Program_c, 0, 0
3, 270, Note_off_c, 0, 57, 0
3, 270, Note_off_c, 0, 60, 0
3, 270, Note_off_c, 0, 69, 0
3, 288, Note_on_c, 0, 67, 66
3, 288, Note_on_c, 0, 62, 66
3, 288, Note_on_c, 0, 55, 66
3, 376, Note_off_c, 0, 55, 0
3, 376, Note_off_c, 0, 62, 0
3, 376, Note_off_c, 0, 67, 0
3, 384, Note_on_c, 0, 62, 66
3, 384, Note_on_c, 0, 69, 66
3, 384, Note_on_c, 0, 57, 66
3, 563, Note_off_c, 0, 62, 0
3, 576, Note_on_c, 0, 64, 66
3, 745, Note_off_c, 0, 69, 0
3, 745, Note_off_c, 0, 57, 0
3, 755, Note_off_c, 0, 64, 0
3, 768, Note_on_c, 0, 60, 66
3, 768, Note_on_c, 0, 64, 66
3, 768, Note_on_c, 0, 72, 66
3, 1038, Note_off_c, 0, 60, 0
3, 1038, Note_off_c, 0, 64, 0
3, 1038, Note_off_c, 0, 72, 0
3, 1056, Note_on_c, 0, 71, 66
3, 1056, Note_on_c, 0, 62, 66
3, 1056, Note_on_c, 0, 59, 66
3, 1144, Note_off_c, 0, 59, 0
3, 1144, Note_off_c, 0, 62, 0
3, 1144, Note_off_c, 0, 71, 0
3, 1152, Note_on_c, 0, 57, 66
3, 1152, Note_on_c, 0, 62, 66
3, 1152, Note_on_c, 0, 69, 66
3, 1513, Note_off_c, 0, 57, 0
3, 1513, Note_off_c, 0, 62, 0
3, 1513, Note_off_c, 0, 69, 0
3, 1536, Note_on_c, 0, 76, 66
3, 1536, Note_on_c, 0, 67, 66
3, 1536, Note_on_c, 0, 64, 66
3, 1806, Note_off_c, 0, 64, 0
3, 1806, Note_off_c, 0, 76, 0
3, 1806, Note_off_c, 0, 67, 0
3, 1824, Note_on_c, 0, 74, 65
3, 1824, Note_on_c, 0, 67, 65
3, 1824, Note_on_c, 0, 62, 65
3, 1912, Note_off_c, 0, 62, 0
3, 1912, Note_off_c, 0, 74, 0
3, 1912, Note_off_c, 0, 67, 0
3, 1920, Note_on_c, 0, 72, 66
3, 1920, Note_on_c, 0, 67, 66
3, 1920, Note_on_c, 0, 60, 66
3, 2099, Note_off_c, 0, 60, 0
3, 2099, Note_off_c, 0, 72, 0
3, 2099, Note_off_c, 0, 67, 0
3, 2112, Note_on_c, 0, 71, 65
3, 2112, Note_on_c, 0, 67, 65
3, 2112, Note_on_c, 0, 59, 65
3, 2291, Note_off_c, 0, 71, 0
3, 2291, Note_off_c, 0, 67, 0
3, 2291, Note_off_c, 0, 59, 0
3, 2304, Note_on_c, 0, 72, 65
3, 2304, Note_on_c, 0, 67, 65
3, 2304, Note_on_c, 0, 60, 65
3, 2392, Note_off_c, 0, 60, 0
3, 2392, Note_off_c, 0, 72, 0
3, 2392, Note_off_c, 0, 67, 0
3, 2400, Note_on_c, 0, 67, 66
3, 2400, Note_on_c, 0, 72, 66
3, 2400, Note_on_c, 0, 79, 66
3, 2579, Note_off_c, 0, 79, 0
3, 2579, Note_off_c, 0, 67, 0
3, 2579, Note_off_c, 0, 72, 0
3, 2592, Note_on_c, 0, 60, 66
3, 2592, Note_on_c, 0, 67, 66
3, 2592, Note_on_c, 0, 72, 66
3, 2680, Note_off_c, 0, 72, 0
3, 2680, Note_off_c, 0, 60, 0
3, 2680, Note_off_c, 0, 67, 0
3, 2688, Note_on_c, 0, 71, 66
3, 2688, Note_on_c, 0, 67, 66
3, 2688, Note_on_c, 0, 59, 66
3, 2867, Note_off_c, 0, 59, 0
3, 2867, Note_off_c, 0, 71, 0
3, 2867, Note_off_c, 0, 67, 0
3, 2880, Note_on_c, 0, 72, 64
3, 2880, Note_on_c, 0, 67, 64
3, 2880, Note_on_c, 0, 60, 64
3, 3332, Note_off_c, 0, 72, 0
3, 3332, Note_off_c, 0, 67, 0
3, 3332, Note_off_c, 0, 60, 0
3, 3408, Note_on_c, 0, 57, 73
3, 3450, Note_off_c, 0, 57, 0
3, 3456, Note_on_c, 0, 64, 73
3, 3521, Note_off_c, 0, 64, 0
3, 3528, Note_on_c, 0, 67, 73
3, 3547, Note_off_c, 0, 67, 0
3, 3552, Note_on_c, 0, 62, 73
3, 3617, Note_off_c, 0, 62, 0
3, 3624, Note_on_c, 0, 60, 73
3, 3643, Note_off_c, 0, 60, 0
3, 3648, Note_on_c, 0, 57, 73
3, 3736, Note_off_c, 0, 57, 0
3, 3744, Note_on_c, 0, 64, 73
3, 3832, Note_off_c, 0, 64, 0
3, 3840, Note_on_c, 0, 64, 73
3, 3859, Note_off_c, 0, 64, 0
3, 3864, Note_on_c, 0, 62, 73
3, 3883, Note_off_c, 0, 62, 0
3, 3888, Note_on_c, 0, 64, 73
3, 4158, Note_off_c, 0, 64, 0
3, 4176, Note_on_c, 0, 62, 73
3, 4195, Note_off_c, 0, 62, 0
3, 4200, Note_on_c, 0, 64, 73
3, 4219, Note_off_c, 0, 64, 0
3, 4224, Note_on_c, 0, 64, 73
3, 4243, Note_off_c, 0, 64, 0
3, 4248, Note_on_c, 0, 62, 73
3, 4267, Note_off_c, 0, 62, 0
3, 4272, Note_on_c, 0, 62, 73
3, 4360, Note_off_c, 0, 62, 0
3, 4368, Note_on_c, 0, 62, 73
3, 4410, Note_off_c, 0, 62, 0
3, 4416, Note_on_c, 0, 64, 73
3, 4458, Note_off_c, 0, 64, 0
3, 4464, Note_on_c, 0, 67, 73
3, 4506, Note_off_c, 0, 67, 0
3, 4512, Note_on_c, 0, 60, 73
3, 4577, Note_off_c, 0, 60, 0
3, 4584, Note_on_c, 0, 59, 73
3, 4603, Note_off_c, 0, 59, 0
3, 4608, Note_on_c, 0, 57, 73
3, 4787, Note_off_c, 0, 57, 0
3, 4800, Note_on_c, 0, 60, 73
3, 4933, Note_off_c, 0, 60, 0
3, 4944, Note_on_c, 0, 57, 73
3, 4986, Note_off_c, 0, 57, 0
3, 4992, Note_on_c, 0, 57, 73
3, 4992, Note_on_c, 0, 64, 73
3, 5057, Note_off_c, 0, 57, 0
3, 5057, Note_off_c, 0, 64, 0
3, 5064, Note_on_c, 0, 67, 73
3, 5083, Note_off_c, 0, 67, 0
3, 5088, Note_on_c, 0, 62, 73
3, 5153, Note_off_c, 0, 62, 0
3, 5160, Note_on_c, 0, 60, 73
3, 5179, Note_off_c, 0, 60, 0
3, 5184, Note_on_c, 0, 57, 73
3, 5272, Note_off_c, 0, 57, 0
3, 5280, Note_on_c, 0, 62, 73
3, 5299, Note_off_c, 0, 62, 0
3, 5304, Note_on_c, 0, 64, 73
3, 5346, Note_off_c, 0, 64, 0
3, 5352, Note_on_c, 0, 64, 73
3, 5371, Note_off_c, 0, 64, 0
3, 5376, Note_on_c, 0, 64, 73
3, 5403, Note_off_c, 0, 64, 0
3, 5408, Note_on_c, 0, 67, 73
3, 5435, Note_off_c, 0, 67, 0
3, 5440, Note_on_c, 0, 62, 73
3, 5695, Note_off_c, 0, 62, 0
3, 5712, Note_on_c, 0, 60, 73
3, 5754, Note_off_c, 0, 60, 0
3, 5760, Note_on_c, 0, 60, 73
3, 5802, Note_off_c, 0, 60, 0
3, 5808, Note_on_c, 0, 59, 73
3, 5896, Note_off_c, 0, 59, 0
3, 5904, Note_on_c, 0, 59, 73
3, 5946, Note_off_c, 0, 59, 0
3, 5952, Note_on_c, 0, 64, 73
3, 6040, Note_off_c, 0, 64, 0
3, 6048, Note_on_c, 0, 59, 73
3, 6136, Note_off_c, 0, 59, 0
3, 6144, Note_on_c, 0, 60, 73
3, 6414, Note_off_c, 0, 60, 0
3, 6432, Note_on_c, 0, 60, 78
3, 6474, Note_off_c, 0, 60, 0
3, 6480, Note_on_c, 0, 62, 78
3, 6522, Note_off_c, 0, 62, 0
3, 6528, Note_on_c, 0, 64, 78
3, 6707, Note_off_c, 0, 64, 0
3, 6720, Note_on_c, 0, 65, 78
3, 6762, Note_off_c, 0, 65, 0
3, 6768, Note_on_c, 0, 64, 78
3, 6810, Note_off_c, 0, 64, 0
3, 6816, Note_on_c, 0, 65, 78
3, 6858, Note_off_c, 0, 65, 0
3, 6864, Note_on_c, 0, 67, 78
3, 6906, Note_off_c, 0, 67, 0
3, 6912, Note_on_c, 0, 67, 78
3, 7182, Note_off_c, 0, 67, 0
3, 7200, Note_on_c, 0, 60, 78
3, 7242, Note_off_c, 0, 60, 0
3, 7248, Note_on_c, 0, 62, 78
3, 7290, Note_off_c, 0, 62, 0
3, 7296, Note_on_c, 0, 64, 78
3, 7475, Note_off_c, 0, 64, 0
3, 7488, Note_on_c, 0, 65, 78
3, 7530, Note_off_c, 0, 65, 0
3, 7536, Note_on_c, 0, 64, 78
3, 7578, Note_off_c, 0, 64, 0
3, 7584, Note_on_c, 0, 65, 78
3, 7626, Note_off_c, 0, 65, 0
3, 7632, Note_on_c, 0, 72, 78
3, 7674, Note_off_c, 0, 72, 0
3, 7680, Note_on_c, 0, 72, 79
3, 7950, Note_off_c, 0, 72, 0
3, 7968, Note_on_c, 0, 71, 79
3, 8010, Note_off_c, 0, 71, 0
3, 8016, Note_on_c, 0, 69, 79
3, 8058, Note_off_c, 0, 69, 0
3, 8064, Note_on_c, 0, 69, 79
3, 8064, Note_on_c, 0, 62, 79
3, 8064, Note_on_c, 0, 57, 79
3, 8106, Note_off_c, 0, 69, 0
3, 8106, Note_off_c, 0, 62, 0
3, 8106, Note_off_c, 0, 57, 0
3, 8112, Note_on_c, 0, 65, 79
3, 8154, Note_off_c, 0, 65, 0
3, 8160, Note_on_c, 0, 65, 79
3, 8202, Note_off_c, 0, 65, 0
3, 8208, Note_on_c, 0, 62, 79
3, 8250, Note_off_c, 0, 62, 0
3, 8256, Note_on_c, 0, 62, 79
3, 8256, Note_on_c, 0, 57, 79
3, 8298, Note_off_c, 0, 62, 0
3, 8298, Note_off_c, 0, 57, 0
3, 8304, Note_on_c, 0, 60, 79
3, 8392, Note_off_c, 0, 60, 0
3, 8400, Note_on_c, 0, 65, 79
3, 8442, Note_off_c, 0, 65, 0
3, 8448, Note_on_c, 0, 60, 79
3, 8448, Note_on_c, 0, 65, 79
3, 8490, Note_off_c, 0, 60, 0
3, 8490, Note_off_c, 0, 65, 0
3, 8496, Note_on_c, 0, 67, 79
3, 8538, Note_off_c, 0, 67, 0
3, 8544, Note_on_c, 0, 68, 79
3, 8586, Note_off_c, 0, 68, 0
3, 8592, Note_on_c, 0, 67, 79
3, 8634, Note_off_c, 0, 67, 0
3, 8640, Note_on_c, 0, 60, 79
3, 8640, Note_on_c, 0, 67, 79
3, 8728, Note_off_c, 0, 60, 0
3, 8728, Note_off_c, 0, 67, 0
3, 8736, Note_on_c, 0, 65, 79
3, 8824, Note_off_c, 0, 65, 0
3, 8832, Note_on_c, 0, 60, 79
3, 8832, Note_on_c, 0, 67, 79
3, 9102, Note_off_c, 0, 67, 0
3, 9102, Note_off_c, 0, 60, 0
3, 9120, Note_on_c, 0, 72, 93
3, 9120, Note_on_c, 0, 60, 93
3, 9162, Note_off_c, 0, 72, 0
3, 9162, Note_off_c, 0, 60, 0
3, 9168, Note_on_c, 0, 79, 93
3, 9168, Note_on_c, 0, 67, 93
3, 9210, Note_off_c, 0, 79, 0
3, 9210, Note_off_c, 0, 67, 0
3, 9216, Note_on_c, 0, 72, 93
3, 9216, Note_on_c, 0, 79, 93
3, 9216, Note_on_c, 0, 84, 93
3, 9258, Note_off_c, 0, 84, 0
3, 9258, Note_off_c, 0, 72, 0
3, 9258, Note_off_c, 0, 79, 0
3, 9264, Note_on_c, 0, 79, 93
3, 9264, Note_on_c, 0, 67, 93
3, 9443, Note_off_c, 0, 67, 0
3, 9443, Note_off_c, 0, 79, 0
3, 9504, Note_on_c, 0, 72, 93
3, 9504, Note_on_c, 0, 60, 93
3, 9546, Note_off_c, 0, 60, 0
3, 9546, Note_off_c, 0, 72, 0
3, 9552, Note_on_c, 0, 79, 93
3, 9552, Note_on_c, 0, 67, 93
3, 9594, Note_off_c, 0, 67, 0
3, 9594, Note_off_c, 0, 79, 0
3, 9600, Note_on_c, 0, 84, 93
3, 9600, Note_on_c, 0, 79, 93
3, 9600, Note_on_c, 0, 72, 93
3, 9642, Note_off_c, 0, 72, 0
3, 9642, Note_off_c, 0, 84, 0
3, 9642, Note_off_c, 0, 79, 0
3, 9648, Note_on_c, 0, 83, 93
3, 9648, Note_on_c, 0, 71, 93
3, 9667, Note_off_c, 0, 83, 0
3, 9667, Note_off_c, 0, 71, 0
3, 9672, Note_on_c, 0, 72, 93
3, 9672, Note_on_c, 0, 84, 93
3, 9737, Note_off_c, 0, 84, 0
3, 9737, Note_off_c, 0, 72, 0
3, 9744, Note_on_c, 0, 74, 93
3, 9744, Note_on_c, 0, 86, 93
3, 9763, Note_off_c, 0, 74, 0
3, 9763, Note_off_c, 0, 86, 0
3, 9768, Note_on_c, 0, 72, 93
3, 9768, Note_on_c, 0, 84, 93
3, 9878, Note_off_c, 0, 84, 0
3, 9878, Note_off_c, 0, 72, 0
3, 9888, Note_on_c, 0, 60, 93
3, 9888, Note_on_c, 0, 72, 93
3, 9930, Note_off_c, 0, 72, 0
3, 9930, Note_off_c, 0, 60, 0
3, 9936, Note_on_c, 0, 67, 93
3, 9936, Note_on_c, 0, 79, 93
3, 9978, Note_off_c, 0, 79, 0
3, 9978, Note_off_c, 0, 67, 0
3, 9984, Note_on_c, 0, 84, 93
3, 9984, Note_on_c, 0, 79, 93
3, 9984, Note_on_c, 0, 72, 93
3, 10026, Note_off_c, 0, 72, 0
3, 10026, Note_off_c, 0, 84, 0
3, 10026, Note_off_c, 0, 79, 0
3, 10032, Note_on_c, 0, 79, 93
3, 10032, Note_on_c, 0, 67, 93
3, 10051, Note_off_c, 0, 79, 0
3, 10051, Note_off_c, 0, 67, 0
3, 10056, Note_on_c, 0, 79, 93
3, 10056, Note_on_c, 0, 67, 93
3, 10121, Note_off_c, 0, 67, 0
3, 10121, Note_off_c, 0, 79, 0
3, 10128, Note_on_c, 0, 77, 93
3, 10128, Note_on_c, 0, 65, 93
3, 10147, Note_off_c, 0, 77, 0
3, 10147, Note_off_c, 0, 65, 0
3, 10152, Note_on_c, 0, 76, 93
3, 10152, Note_on_c, 0, 64, 93
3, 10217, Note_off_c, 0, 64, 0
3, 10217, Note_off_c, 0, 76, 0
3, 10224, Note_on_c, 0, 77, 93
3, 10224, Note_on_c, 0, 65, 93
3, 10266, Note_off_c, 0, 65, 0
3, 10266, Note_off_c, 0, 77, 0
3, 10272, Note_on_c, 0, 79, 93
3, 10272, Note_on_c, 0, 67, 93
3, 10314, Note_off_c, 0, 67, 0
3, 10314, Note_off_c, 0, 79, 0
3, 10320, Note_on_c, 0, 83, 93
3, 10320, Note_on_c, 0, 71, 93
3, 10362, Note_off_c, 0, 71, 0
3, 10362, Note_off_c, 0, 83, 0
3, 10368, Note_on_c, 0, 71, 93
3, 10368, Note_on_c, 0, 83, 93
3, 10456, Note_off_c, 0, 83, 0
3, 10456, Note_off_c, 0, 71, 0
3, 10464, Note_on_c, 0, 84, 93
3, 10464, Note_on_c, 0, 72, 93
3, 10506, Note_off_c, 0, 72, 0
3, 10506, Note_off_c, 0, 84, 0
3, 10512, Note_on_c, 0, 84, 93
3, 10512, Note_on_c, 0, 72, 93
3, 10645, Note_off_c, 0, 72, 0
3, 10645, Note_off_c, 0, 84, 0
3, 10656, Note_on_c, 0, 72, 93
3, 10656, Note_on_c, 0, 60, 93
3, 10698, Note_off_c, 0, 60, 0
3, 10698, Note_off_c, 0, 72, 0
3, 10704, Note_on_c, 0, 79, 93
3, 10704, Note_on_c, 0, 67, 93
3, 10746, Note_off_c, 0, 67, 0
3, 10746, Note_off_c, 0, 79, 0
3, 10752, Note_on_c, 0, 72, 93
3, 10752, Note_on_c, 0, 79, 93
3, 10752, Note_on_c, 0, 84, 93
3, 10794, Note_off_c, 0, 84, 0
3, 10794, Note_off_c, 0, 72, 0
3, 10794, Note_off_c, 0, 79, 0
3, 10800, Note_on_c, 0, 79, 93
3, 10800, Note_on_c, 0, 67, 93
3, 10979, Note_off_c, 0, 67, 0
3, 10979, Note_off_c, 0, 79, 0
3, 11040, Note_on_c, 0, 72, 93
3, 11040, Note_on_c, 0, 60, 93
3, 11082, Note_off_c, 0, 60, 0
3, 11082, Note_off_c, 0, 72, 0
3, 11088, Note_on_c, 0, 67, 93
3, 11088, Note_on_c, 0, 79, 93
3, 11130, Note_off_c, 0, 79, 0
3, 11130, Note_off_c, 0, 67, 0
3, 11136, Note_on_c, 0, 72, 93
3, 11136, Note_on_c, 0, 84, 93
3, 11178, Note_off_c, 0, 84, 0
3, 11178, Note_off_c, 0, 72, 0
3, 11184, Note_on_c, 0, 83, 93
3, 11184, Note_on_c, 0, 71, 93
3, 11203, Note_off_c, 0, 83, 0
3, 11203, Note_off_c, 0, 71, 0
3, 11208, Note_on_c, 0, 72, 93
3, 11208, Note_on_c, 0, 84, 93
3, 11273, Note_off_c, 0, 84, 0
3, 11273, Note_off_c, 0, 72, 0
3, 11280, Note_on_c, 0, 74, 93
3, 11280, Note_on_c, 0, 86, 93
3, 11299, Note_off_c, 0, 74, 0
3, 11299, Note_off_c, 0, 86, 0
3, 11304, Note_on_c, 0, 72, 93
3, 11304, Note_on_c, 0, 84, 93
3, 11392, Note_off_c, 0, 84, 0
3, 11392, Note_off_c, 0, 72, 0
3, 11400, Note_on_c, 0, 71, 93
3, 11400, Note_on_c, 0, 83, 93
3, 11419, Note_off_c, 0, 83, 0
3, 11419, Note_off_c, 0, 71, 0
3, 11424, Note_on_c, 0, 83, 93
3, 11424, Note_on_c, 0, 71, 93
3, 11512, Note_off_c, 0, 71, 0
3, 11512, Note_off_c, 0, 83, 0
3, 11520, Note_on_c, 0, 67, 93
3, 11520, Note_on_c, 0, 79, 93
3, 11653, Note_off_c, 0, 67, 0
3, 11653, Note_off_c, 0, 79, 0
3, 11664, Note_on_c, 0, 64, 93
3, 11664, Note_on_c, 0, 76, 93
3, 11683, Note_off_c, 0, 64, 0
3, 11683, Note_off_c, 0, 76, 0
3, 11688, Note_on_c, 0, 64, 93
3, 11688, Note_on_c, 0, 76, 93
3, 11753, Note_off_c, 0, 76, 0
3, 11753, Note_off_c, 0, 64, 0
3, 11760, Note_on_c, 0, 79, 91
3, 11760, Note_on_c, 0, 67, 91
3, 11802, Note_off_c, 0, 67, 0
3, 11802, Note_off_c, 0, 79, 0
3, 11808, Note_on_c, 0, 62, 90
3, 11808, Note_on_c, 0, 74, 90
3, 11873, Note_off_c, 0, 62, 0
3, 11873, Note_off_c, 0, 74, 0
3, 11880, Note_on_c, 0, 64, 89
3, 11880, Note_on_c, 0, 76, 89
3, 11899, Note_off_c, 0, 76, 0
3, 11899, Note_off_c, 0, 64, 0
3, 11904, Note_on_c, 0, 72, 86
3, 11904, Note_on_c, 0, 60, 86
3, 12569, Note_off_c, 0, 72, 0
3, 12569, Note_off_c, 0, 60, 0
3, 12672, Note_on_c, 0, 71, 64
3, 12678, Note_on_c, 0, 76, 64
3, 12684, Note_on_c, 0, 83, 64
3, 13052, Note_off_c, 0, 83, 0
3, 13052, Note_off_c, 0, 71, 0
3, 13052, Note_off_c, 0, 76, 0
3, 13056, Note_on_c, 0, 67, 64
3, 13062, Note_on_c, 0, 72, 64
3, 13068, Note_on_c, 0, 79, 64
3, 13244, Note_off_c, 0, 67, 0
3, 13244, Note_off_c, 0, 72, 0
3, 13244, Note_off_c, 0, 79, 0
3, 13248, Note_on_c, 0, 81, 64
3, 13248, Note_on_c, 0, 69, 64
3, 13427, Note_off_c, 0, 81, 0
3, 13427, Note_off_c, 0, 69, 0
3, 13440, Note_on_c, 0, 71, 64
3, 13446, Note_on_c, 0, 76, 64
3, 13452, Note_on_c, 0, 83, 64
3, 13820, Note_off_c, 0, 83, 0
3, 13820, Note_off_c, 0, 71, 0
3, 13820, Note_off_c, 0, 76, 0
3, 13824, Note_on_c, 0, 67, 64
3, 13827, Note_on_c, 0, 72, 64
3, 13830, Note_on_c, 0, 79, 64
3, 14569, Note_off_c, 0, 79, 0
3, 14569, Note_off_c, 0, 67, 0
3, 14569, Note_off_c, 0, 72, 0
3, 14592, Note_on_c, 0, 68, 90
3, 14592, Note_on_c, 0, 71, 90
3, 14592, Note_on_c, 0, 76, 90
3, 14592, Note_on_c, 0, 80, 90
3, 14725, Note_off_c, 0, 68, 0
3, 14725, Note_off_c, 0, 71, 0
3, 14725, Note_off_c, 0, 76, 0
3, 14725, Note_off_c, 0, 80, 0
3, 14736, Note_on_c, 0, 76, 90
3, 14736, Note_on_c, 0, 71, 90
3, 14736, Note_on_c, 0, 68, 90
3, 14736, Note_on_c, 0, 64, 90
3, 14778, Note_off_c, 0, 64, 0
3, 14778, Note_off_c, 0, 76, 0
3, 14778, Note_off_c, 0, 71, 0
3, 14778, Note_off_c, 0, 68, 0
3, 14784, Note_on_c, 0, 79, 90
3, 14784, Note_on_c, 0, 76, 90
3, 14784, Note_on_c, 0, 72, 90
3, 14784, Note_on_c, 0, 67, 90
3, 14826, Note_off_c, 0, 67, 0
3, 14826, Note_off_c, 0, 72, 0
3, 14826, Note_off_c, 0, 79, 0
3, 14826, Note_off_c, 0, 76, 0
3, 14832, Note_on_c, 0, 65, 90
3, 14832, Note_on_c, 0, 69, 90
3, 14832, Note_on_c, 0, 72, 90
3, 14832, Note_on_c, 0, 77, 90
3, 14874, Note_off_c, 0, 65, 0
3, 14874, Note_off_c, 0, 69, 0
3, 14874, Note_off_c, 0, 72, 0
3, 14874, Note_off_c, 0, 77, 0
3, 14880, Note_on_c, 0, 64, 90
3, 14880, Note_on_c, 0, 69, 90
3, 14880, Note_on_c, 0, 72, 90
3, 14880, Note_on_c, 0, 76, 90
3, 14968, Note_off_c, 0, 64, 0
3, 14968, Note_off_c, 0, 69, 0
3, 14968, Note_off_c, 0, 72, 0
3, 14968, Note_off_c, 0, 76, 0
3, 14976, Note_on_c, 0, 72, 90
3, 14976, Note_on_c, 0, 69, 90
3, 14976, Note_on_c, 0, 65, 90
3, 14976, Note_on_c, 0, 60, 90
3, 15018, Note_off_c, 0, 60, 0
3, 15018, Note_off_c, 0, 65, 0
3, 15018, Note_off_c, 0, 72, 0
3, 15018, Note_off_c, 0, 69, 0
3, 15024, Note_on_c, 0, 62, 90
3, 15024, Note_on_c, 0, 65, 90
3, 15024, Note_on_c, 0, 69, 90
3, 15024, Note_on_c, 0, 74, 90
3, 15066, Note_off_c, 0, 62, 0
3, 15066, Note_off_c, 0, 65, 0
3, 15066, Note_off_c, 0, 69, 0
3, 15066, Note_off_c, 0, 74, 0
3, 15072, Note_on_c, 0, 64, 90
3, 15072, Note_on_c, 0, 69, 90
3, 15072, Note_on_c, 0, 72, 90
3, 15072, Note_on_c, 0, 76, 90
3, 15160, Note_off_c, 0, 64, 0
3, 15160, Note_off_c, 0, 69, 0
3, 15160, Note_off_c, 0, 72, 0
3, 15160, Note_off_c, 0, 76, 0
3, 15168, Note_on_c, 0, 59, 90
3, 15168, Note_on_c, 0, 62, 90
3, 15168, Note_on_c, 0, 67, 90
3, 15168, Note_on_c, 0, 71, 90
3, 15256, Note_off_c, 0, 59, 0
3, 15256, Note_off_c, 0, 62, 0
3, 15256, Note_off_c, 0, 67, 0
3, 15256, Note_off_c, 0, 71, 0
3, 15264, Note_on_c, 0, 62, 90
3, 15264, Note_on_c, 0, 67, 90
3, 15264, Note_on_c, 0, 71, 90
3, 15264, Note_on_c, 0, 74, 90
3, 15352, Note_off_c, 0, 62, 0
3, 15352, Note_off_c, 0, 67, 0
3, 15352, Note_off_c, 0, 71, 0
3, 15352, Note_off_c, 0, 74, 0
3, 15360, Note_on_c, 0, 76, 90
3, 15360, Note_on_c, 0, 72, 90
3, 15360, Note_on_c, 0, 69, 90
3, 15360, Note_on_c, 0, 64, 90
3, 15379, Note_off_c, 0, 64, 0
3, 15379, Note_off_c, 0, 69, 0
3, 15379, Note_off_c, 0, 76, 0
3, 15379, Note_off_c, 0, 72, 0
3, 15384, Note_on_c, 0, 62, 90
3, 15384, Note_on_c, 0, 74, 90
3, 15403, Note_off_c, 0, 62, 0
3, 15403, Note_off_c, 0, 74, 0
3, 15408, Note_on_c, 0, 64, 90
3, 15408, Note_on_c, 0, 76, 90
3, 15427, Note_off_c, 0, 64, 0
3, 15427, Note_off_c, 0, 76, 0
3, 15432, Note_on_c, 0, 65, 90
3, 15432, Note_on_c, 0, 77, 90
3, 15451, Note_off_c, 0, 65, 0
3, 15451, Note_off_c, 0, 77, 0
3, 15456, Note_on_c, 0, 64, 90
3, 15456, Note_on_c, 0, 76, 90
3, 15544, Note_off_c, 0, 64, 0
3, 15544, Note_off_c, 0, 76, 0
3, 15552, Note_on_c, 0, 64, 90
3, 15552, Note_on_c, 0, 65, 90
3, 15552, Note_on_c, 0, 69, 90
3, 15552, Note_on_c, 0, 76, 90
3, 15571, Note_off_c, 0, 64, 0
3, 15571, Note_off_c, 0, 65, 0
3, 15571, Note_off_c, 0, 69, 0
3, 15571, Note_off_c, 0, 76, 0
3, 15576, Note_on_c, 0, 62, 90
3, 15576, Note_on_c, 0, 74, 90
3, 15595, Note_off_c, 0, 62, 0
3, 15595, Note_off_c, 0, 74, 0
3, 15600, Note_on_c, 0, 64, 90
3, 15600, Note_on_c, 0, 76, 90
3, 15619, Note_off_c, 0, 64, 0
3, 15619, Note_off_c, 0, 76, 0
3, 15624, Note_on_c, 0, 65, 90
3, 15624, Note_on_c, 0, 77, 90
3, 15643, Note_off_c, 0, 65, 0
3, 15643, Note_off_c, 0, 77, 0
3, 15648, Note_on_c, 0, 64, 90
3, 15648, Note_on_c, 0, 76, 90
3, 15736, Note_off_c, 0, 64, 0
3, 15736, Note_off_c, 0, 76, 0
3, 15744, Note_on_c, 0, 74, 90
3, 15744, Note_on_c, 0, 69, 90
3, 15744, Note_on_c, 0, 65, 90
3, 15744, Note_on_c, 0, 62, 90
3, 15786, Note_off_c, 0, 62, 0
3, 15786, Note_off_c, 0, 65, 0
3, 15786, Note_off_c, 0, 74, 0
3, 15786, Note_off_c, 0, 69, 0
3, 15792, Note_on_c, 0, 60, 90
3, 15792, Note_on_c, 0, 72, 90
3, 15834, Note_off_c, 0, 60, 0
3, 15834, Note_off_c, 0, 72, 0
3, 15840, Note_on_c, 0, 59, 90
3, 15840, Note_on_c, 0, 71, 90
3, 15928, Note_off_c, 0, 59, 0
3, 15928, Note_off_c, 0, 71, 0
3, 15936, Note_on_c, 0, 59, 90
3, 15936, Note_on_c, 0, 64, 90
3, 15936, Note_on_c, 0, 69, 90
3, 15936, Note_on_c, 0, 71, 90
3, 15978, Note_off_c, 0, 59, 0
3, 15978, Note_off_c, 0, 64, 0
3, 15978, Note_off_c, 0, 69, 0
3, 15978, Note_off_c, 0, 71, 0
3, 15984, Note_on_c, 0, 60, 90
3, 15984, Note_on_c, 0, 72, 90
3, 16026, Note_off_c, 0, 60, 0
3, 16026, Note_off_c, 0, 72, 0
3, 16032, Note_on_c, 0, 57, 90
3, 16032, Note_on_c, 0, 69, 90
3, 16302, Note_off_c, 0, 57, 0
3, 16302, Note_off_c, 0, 69, 0
3, 16344, Note_on_c, 0, 69, 77
3, 16363, Note_off_c, 0, 69, 0
3, 16368, Note_on_c, 0, 76, 77
3, 16387, Note_off_c, 0, 76, 0
3, 16392, Note_on_c, 0, 77, 77
3, 16411, Note_off_c, 0, 77, 0
3, 16416, Note_on_c, 0, 74, 77
3, 16435, Note_off_c, 0, 74, 0
3, 16440, Note_on_c, 0, 72, 77
3, 16459, Note_off_c, 0, 72, 0
3, 16464, Note_on_c, 0, 71, 77
3, 16483, Note_off_c, 0, 71, 0
3, 16488, Note_on_c, 0, 72, 77
3, 16507, Note_off_c, 0, 72, 0
3, 16512, Note_on_c, 0, 74, 77
3, 16554, Note_off_c, 0, 74, 0
3, 16560, Note_on_c, 0, 76, 77
3, 16602, Note_off_c, 0, 76, 0
3, 16608, Note_on_c, 0, 71, 77
3, 16696, Note_off_c, 0, 71, 0
3, 16704, Note_on_c, 0, 71, 77
3, 16746, Note_off_c, 0, 71, 0
3, 16752, Note_on_c, 0, 72, 77
3, 16794, Note_off_c, 0, 72, 0
3, 16800, Note_on_c, 0, 71, 77
3, 16842, Note_off_c, 0, 71, 0
3, 16848, Note_on_c, 0, 68, 77
3, 16890, Note_off_c, 0, 68, 0
3, 16896, Note_on_c, 0, 69, 77
3, 17075, Note_off_c, 0, 69, 0
3, 17112, Note_on_c, 0, 69, 77
3, 17131, Note_off_c, 0, 69, 0
3, 17136, Note_on_c, 0, 76, 77
3, 17155, Note_off_c, 0, 76, 0
3, 17160, Note_on_c, 0, 77, 77
3, 17179, Note_off_c, 0, 77, 0
3, 17184, Note_on_c, 0, 74, 77
3, 17203, Note_off_c, 0, 74, 0
3, 17208, Note_on_c, 0, 72, 77
3, 17227, Note_off_c, 0, 72, 0
3, 17232, Note_on_c, 0, 71, 77
3, 17251, Note_off_c, 0, 71, 0
3, 17256, Note_on_c, 0, 72, 77
3, 17275, Note_off_c, 0, 72, 0
3, 17280, Note_on_c, 0, 79, 77
3, 17322, Note_off_c, 0, 79, 0
3, 17328, Note_on_c, 0, 77, 77
3, 17370, Note_off_c, 0, 77, 0
3, 17376, Note_on_c, 0, 76, 77
3, 17464, Note_off_c, 0, 76, 0
3, 17472, Note_on_c, 0, 71, 77
3, 17514, Note_off_c, 0, 71, 0
3, 17520, Note_on_c, 0, 72, 77
3, 17562, Note_off_c, 0, 72, 0
3, 17568, Note_on_c, 0, 77, 77
3, 17610, Note_off_c, 0, 77, 0
3, 17616, Note_on_c, 0, 76, 77
3, 17658, Note_off_c, 0, 76, 0
3, 17664, Note_on_c, 0, 76, 77
3, 17843, Note_off_c, 0, 76, 0
3, 17856, Note_on_c, 0, 64, 79
3, 17856, Note_on_c, 0, 69, 79
3, 17856, Note_on_c, 0, 72, 84
3, 17898, Note_off_c, 0, 72, 0
3, 17899, Note_off_c, 0, 64, 0
3, 17899, Note_off_c, 0, 69, 0
3, 17904, Note_on_c, 0, 72, 84
3, 17904, Note_on_c, 0, 69, 79
3, 17904, Note_on_c, 0, 64, 79
3, 18037, Note_off_c, 0, 72, 0
3, 18038, Note_off_c, 0, 69, 0
3, 18038, Note_off_c, 0, 64, 0
3, 18048, Note_on_c, 0, 64, 79
3, 18048, Note_on_c, 0, 67, 79
3, 18048, Note_on_c, 0, 71, 84
3, 18090, Note_off_c, 0, 71, 0
3, 18091, Note_off_c, 0, 64, 0
3, 18091, Note_off_c, 0, 67, 0
3, 18096, Note_on_c, 0, 64, 79
3, 18096, Note_on_c, 0, 71, 84
3, 18096, Note_on_c, 0, 67, 79
3, 18229, Note_off_c, 0, 71, 0
3, 18230, Note_off_c, 0, 64, 0
3, 18230, Note_off_c, 0, 67, 0
3, 18240, Note_on_c, 0, 65, 79
3, 18240, Note_on_c, 0, 69, 84
3, 18240, Note_on_c, 0, 64, 79
3, 18282, Note_off_c, 0, 65, 0
3, 18282, Note_off_c, 0, 69, 0
3, 18282, Note_off_c, 0, 64, 0
3, 18288, Note_on_c, 0, 65, 79
3, 18288, Note_on_c, 0, 69, 84
3, 18288, Note_on_c, 0, 64, 79
3, 18421, Note_off_c, 0, 65, 0
3, 18421, Note_off_c, 0, 64, 0
3, 18421, Note_off_c, 0, 69, 0
3, 18432, Note_on_c, 0, 68, 84
3, 18432, Note_on_c, 0, 69, 84
3, 18432, Note_on_c, 0, 64, 79
3, 18474, Note_off_c, 0, 68, 0
3, 18474, Note_off_c, 0, 69, 0
3, 18475, Note_off_c, 0, 64, 0
3, 18480, Note_on_c, 0, 68, 84
3, 18480, Note_on_c, 0, 71, 84
3, 18480, Note_on_c, 0, 64, 79
3, 18568, Note_off_c, 0, 71, 0
3, 18568, Note_off_c, 0, 64, 0
3, 18570, Note_off_c, 0, 68, 0
3, 18576, Note_on_c, 0, 67, 84
3, 18576, Note_on_c, 0, 64, 84
3, 18576, Note_on_c, 0, 72, 84
3, 18618, Note_off_c, 0, 67, 0
3, 18618, Note_off_c, 0, 64, 0
3, 18618, Note_off_c, 0, 72, 0
3, 18624, Note_on_c, 0, 64, 84
3, 18624, Note_on_c, 0, 69, 84
3, 18624, Note_on_c, 0, 72, 84
3, 18666, Note_off_c, 0, 64, 0
3, 18666, Note_off_c, 0, 69, 0
3, 18666, Note_off_c, 0, 72, 0
3, 18672, Note_on_c, 0, 64, 84
3, 18672, Note_on_c, 0, 69, 84
3, 18672, Note_on_c, 0, 72, 84
3, 18805, Note_off_c, 0, 64, 0
3, 18805, Note_off_c, 0, 69, 0
3, 18805, Note_off_c, 0, 72, 0
3, 18816, Note_on_c, 0, 67, 84
3, 18816, Note_on_c, 0, 71, 84
3, 18816, Note_on_c, 0, 74, 84
3, 18858, Note_off_c, 0, 67, 0
3, 18858, Note_off_c, 0, 71, 0
3, 18858, Note_off_c, 0, 74, 0
3, 18864, Note_on_c, 0, 67, 84
3, 18864, Note_on_c, 0, 71, 84
3, 18864, Note_on_c, 0, 74, 84
3, 18997, Note_off_c, 0, 67, 0
3, 18997, Note_off_c, 0, 71, 0
3, 18997, Note_off_c, 0, 74, 0
3, 19008, Note_on_c, 0, 69, 84
3, 19008, Note_on_c, 0, 72, 84
3, 19008, Note_on_c, 0, 76, 84
3, 19050, Note_off_c, 0, 69, 0
3, 19050, Note_off_c, 0, 72, 0
3, 19050, Note_off_c, 0, 76, 0
3, 19056, Note_on_c, 0, 69, 84
3, 19056, Note_on_c, 0, 72, 84
3, 19056, Note_on_c, 0, 76, 84
3, 19189, Note_off_c, 0, 69, 0
3, 19189, Note_off_c, 0, 72, 0
3, 19189, Note_off_c, 0, 76, 0
3, 19200, Note_on_c, 0, 71, 84
3, 19200, Note_on_c, 0, 74, 84
3, 19200, Note_on_c, 0, 67, 84
3, 19242, Note_off_c, 0, 71, 0
3, 19242, Note_off_c, 0, 67, 0
3, 19242, Note_off_c, 0, 74, 0
3, 19248, Note_on_c, 0, 71, 84
3, 19248, Note_on_c, 0, 74, 84
3, 19248, Note_on_c, 0, 67, 84
3, 19381, Note_off_c, 0, 71, 0
3, 19381, Note_off_c, 0, 74, 0
3, 19381, Note_off_c, 0, 67, 0
3, 19392, Note_on_c, 0, 57, 88
3, 19392, Note_on_c, 0, 69, 88
3, 19434, Note_off_c, 0, 57, 0
3, 19434, Note_off_c, 0, 69, 0
3, 19440, Note_on_c, 0, 57, 88
3, 19440, Note_on_c, 0, 69, 88
3, 19557, Note_off_c, 0, 57, 0
3, 19557, Note_off_c, 0, 69, 0
3, 19560, Note_on_c, 0, 69, 88
3, 19560, Note_on_c, 0, 57, 88
3, 19579, Note_off_c, 0, 57, 0
3, 19579, Note_off_c, 0, 69, 0
3, 19584, Note_on_c, 0, 72, 88
3, 19584, Note_on_c, 0, 60, 88
3, 19626, Note_off_c, 0, 72, 0
3, 19626, Note_off_c, 0, 60, 0
3, 19632, Note_on_c, 0, 57, 88
3, 19632, Note_on_c, 0, 69, 88
3, 19749, Note_off_c, 0, 57, 0
3, 19749, Note_off_c, 0, 69, 0
3, 19752, Note_on_c, 0, 69, 88
3, 19752, Note_on_c, 0, 57, 88
3, 19771, Note_off_c, 0, 69, 0
3, 19771, Note_off_c, 0, 57, 0
3, 19776, Note_on_c, 0, 74, 88
3, 19776, Note_on_c, 0, 62, 88
3, 19818, Note_off_c, 0, 74, 0
3, 19821, Note_off_c, 0, 62, 0
3, 19824, Note_on_c, 0, 59, 88
3, 19824, Note_on_c, 0, 71, 88
3, 19941, Note_off_c, 0, 59, 0
3, 19944, Note_on_c, 0, 57, 88
3, 19944, Note_on_c, 0, 69, 88
3, 19957, Note_off_c, 0, 71, 0
3, 19963, Note_off_c, 0, 69, 0
3, 19963, Note_off_c, 0, 57, 0
3, 19968, Note_on_c, 0, 72, 88
3, 19968, Note_on_c, 0, 60, 88
3, 20010, Note_off_c, 0, 60, 0
3, 20010, Note_off_c, 0, 72, 0
3, 20016, Note_on_c, 0, 71, 88
3, 20016, Note_on_c, 0, 59, 88
3, 20125, Note_off_c, 0, 71, 0
3, 20133, Note_off_c, 0, 59, 0
3, 20136, Note_on_c, 0, 76, 88
3, 20136, Note_on_c, 0, 64, 88
3, 20155, Note_off_c, 0, 64, 0
3, 20155, Note_off_c, 0, 76, 0
3, 20160, Note_on_c, 0, 65, 88
3, 20160, Note_on_c, 0, 77, 88
3, 20202, Note_off_c, 0, 77, 0
3, 20202, Note_off_c, 0, 65, 0
3, 20208, Note_on_c, 0, 76, 88
3, 20208, Note_on_c, 0, 64, 88
3, 20318, Note_off_c, 0, 76, 0
3, 20318, Note_off_c, 0, 64, 0
3, 20328, Note_on_c, 0, 76, 88
3, 20328, Note_on_c, 0, 64, 88
3, 20347, Note_off_c, 0, 76, 0
3, 20347, Note_off_c, 0, 64, 0
3, 20352, Note_on_c, 0, 67, 88
3, 20352, Note_on_c, 0, 79, 88
3, 20394, Note_off_c, 0, 79, 0
3, 20394, Note_off_c, 0, 67, 0
3, 20400, Note_on_c, 0, 67, 88
3, 20400, Note_on_c, 0, 79, 88
3, 20510, Note_off_c, 0, 67, 0
3, 20510, Note_off_c, 0, 79, 0
3, 20520, Note_on_c, 0, 76, 88
3, 20520, Note_on_c, 0, 64, 88
3, 20539, Note_off_c, 0, 76, 0
3, 20539, Note_off_c, 0, 64, 0
3, 20544, Note_on_c, 0, 65, 88
3, 20544, Note_on_c, 0, 77, 88
3, 20586, Note_off_c, 0, 77, 0
3, 20586, Note_off_c, 0, 65, 0
3, 20592, Note_on_c, 0, 76, 88
3, 20592, Note_on_c, 0, 64, 88
3, 20702, Note_off_c, 0, 76, 0
3, 20702, Note_off_c, 0, 64, 0
3, 20712, Note_on_c, 0, 76, 88
3, 20712, Note_on_c, 0, 64, 88
3, 20731, Note_off_c, 0, 76, 0
3, 20731, Note_off_c, 0, 64, 0
3, 20736, Note_on_c, 0, 64, 88
3, 20736, Note_on_c, 0, 76, 88
3, 20778, Note_off_c, 0, 64, 0
3, 20778, Note_off_c, 0, 76, 0
3, 20784, Note_on_c, 0, 65, 88
3, 20784, Note_on_c, 0, 77, 88
3, 20826, Note_off_c, 0, 65, 0
3, 20826, Note_off_c, 0, 77, 0
3, 20832, Note_on_c, 0, 77, 90
3, 20832, Note_on_c, 0, 65, 90
3, 20920, Note_off_c, 0, 65, 0
3, 20920, Note_off_c, 0, 77, 0
3, 20928, Note_on_c, 0, 65, 85
3, 20936, Note_off_c, 0, 65, 0
3, 20940, Note_on_c, 0, 64, 85
3, 20948, Note_off_c, 0, 64, 0
3, 20952, Note_on_c, 0, 57, 85
3, 20960, Note_off_c, 0, 57, 0
3, 20964, Note_on_c, 0, 65, 85
3, 20972, Note_off_c, 0, 65, 0
3, 20976, Note_on_c, 0, 64, 85
3, 20984, Note_off_c, 0, 64, 0
3, 20988, Note_on_c, 0, 57, 85
3, 20996, Note_off_c, 0, 57, 0
3, 21000, Note_on_c, 0, 65, 85
3, 21008, Note_off_c, 0, 65, 0
3, 21012, Note_on_c, 0, 64, 85
3, 21020, Note_off_c, 0, 64, 0
3, 21024, Note_on_c, 0, 57, 85
3, 21032, Note_off_c, 0, 57, 0
3, 21036, Note_on_c, 0, 65, 85
3, 21044, Note_off_c, 0, 65, 0
3, 21048, Note_on_c, 0, 64, 85
3, 21056, Note_off_c, 0, 64, 0
3, 21060, Note_on_c, 0, 57, 85
3, 21068, Note_off_c, 0, 57, 0
3, 21072, Note_on_c, 0, 65, 85
3, 21080, Note_off_c, 0, 65, 0
3, 21084, Note_on_c, 0, 64, 85
3, 21092, Note_off_c, 0, 64, 0
3, 21096, Note_on_c, 0, 57, 85
3, 21104, Note_off_c, 0, 57, 0
3, 21108, Note_on_c, 0, 65, 85
3, 21116, Note_off_c, 0, 65, 0
3, 21120, Note_on_c, 0, 64, 85
3, 21128, Note_off_c, 0, 64, 0
3, 21132, Note_on_c, 0, 57, 85
3, 21140, Note_off_c, 0, 57, 0
3, 21144, Note_on_c, 0, 65, 85
3, 21152, Note_off_c, 0, 65, 0
3, 21156, Note_on_c, 0, 64, 85
3, 21164, Note_off_c, 0, 64, 0
3, 21168, Note_on_c, 0, 57, 85
3, 21176, Note_off_c, 0, 57, 0
3, 21180, Note_on_c, 0, 65, 85
3, 21188, Note_off_c, 0, 65, 0
3, 21192, Note_on_c, 0, 64, 85
3, 21200, Note_off_c, 0, 64, 0
3, 21204, Note_on_c, 0, 57, 85
3, 21212, Note_off_c, 0, 57, 0
3, 21216, Note_on_c, 0, 65, 85
3, 21224, Note_off_c, 0, 65, 0
3, 21228, Note_on_c, 0, 64, 85
3, 21236, Note_off_c, 0, 64, 0
3, 21240, Note_on_c, 0, 57, 85
3, 21248, Note_off_c, 0, 57, 0
3, 21252, Note_on_c, 0, 65, 85
3, 21260, Note_off_c, 0, 65, 0
3, 21264, Note_on_c, 0, 64, 85
3, 21272, Note_off_c, 0, 64, 0
3, 21276, Note_on_c, 0, 57, 85
3, 21284, Note_off_c, 0, 57, 0
3, 21288, Note_on_c, 0, 65, 85
3, 21296, Note_off_c, 0, 65, 0
3, 21300, Note_on_c, 0, 64, 85
3, 21308, Note_off_c, 0, 64, 0
3, 21312, Note_on_c, 0, 57, 85
3, 21320, Note_off_c, 0, 57, 0
3, 21324, Note_on_c, 0, 65, 85
3, 21332, Note_off_c, 0, 65, 0
3, 21336, Note_on_c, 0, 64, 85
3, 21344, Note_off_c, 0, 64, 0
3, 21348, Note_on_c, 0, 57, 85
3, 21356, Note_off_c, 0, 57, 0
3, 21360, Note_on_c, 0, 65, 85
3, 21368, Note_off_c, 0, 65, 0
3, 21372, Note_on_c, 0, 64, 85
3, 21380, Note_off_c, 0, 64, 0
3, 21384, Note_on_c, 0, 57, 85
3, 21392, Note_off_c, 0, 57, 0
3, 21396, Note_on_c, 0, 65, 85
3, 21404, Note_off_c, 0, 65, 0
3, 21408, Note_on_c, 0, 64, 85
3, 21416, Note_off_c, 0, 64, 0
3, 21420, Note_on_c, 0, 57, 85
3, 21428, Note_off_c, 0, 57, 0
3, 21432, Note_on_c, 0, 65, 85
3, 21440, Note_off_c, 0, 65, 0
3, 21444, Note_on_c, 0, 64, 85
3, 21452, Note_off_c, 0, 64, 0
3, 21456, Note_on_c, 0, 57, 85
3, 21464, Note_off_c, 0, 57, 0
3, 21468, Note_on_c, 0, 65, 85
3, 21476, Note_off_c, 0, 65, 0
3, 21480, Note_on_c, 0, 64, 85
3, 21488, Note_off_c, 0, 64, 0
3, 21492, Note_on_c, 0, 57, 85
3, 21500, Note_off_c, 0, 57, 0
3, 21504, Note_on_c, 0, 65, 85
3, 21512, Note_off_c, 0, 65, 0
3, 21516, Note_on_c, 0, 64, 85
3, 21524, Note_off_c, 0, 64, 0
3, 21528, Note_on_c, 0, 57, 85
3, 21536, Note_off_c, 0, 57, 0
3, 21540, Note_on_c, 0, 65, 85
3, 21548, Note_off_c, 0, 65, 0
3, 21552, Note_on_c, 0, 64, 85
3, 21560, Note_off_c, 0, 64, 0
3, 21564, Note_on_c, 0, 57, 85
3, 21572, Note_off_c, 0, 57, 0
3, 21576, Note_on_c, 0, 65, 85
3, 21584, Note_off_c, 0, 65, 0
3, 21588, Note_on_c, 0, 64, 85
3, 21596, Note_off_c, 0, 64, 0
3, 21600, Note_on_c, 0, 57, 85
3, 21608, Note_off_c, 0, 57, 0
3, 21612, Note_on_c, 0, 65, 85
3, 21620, Note_off_c, 0, 65, 0
3, 21624, Note_on_c, 0, 64, 85
3, 21632, Note_off_c, 0, 64, 0
3, 21636, Note_on_c, 0, 57, 85
3, 21644, Note_off_c, 0, 57, 0
3, 21648, Note_on_c, 0, 65, 85
3, 21656, Note_off_c, 0, 65, 0
3, 21660, Note_on_c, 0, 64, 85
3, 21668, Note_off_c, 0, 64, 0
3, 21672, Note_on_c, 0, 57, 85
3, 21680, Note_off_c, 0, 57, 0
3, 21696, Note_on_c, 0, 64, 85
3, 21704, Note_off_c, 0, 64, 0
3, 21708, Note_on_c, 0, 57, 85
3, 21716, Note_off_c, 0, 57, 0
3, 21720, Note_on_c, 0, 62, 85
3, 21728, Note_off_c, 0, 62, 0
3, 21732, Note_on_c, 0, 57, 85
3, 21740, Note_off_c, 0, 57, 0
3, 21744, Note_on_c, 0, 60, 85
3, 21752, Note_off_c, 0, 60, 0
3, 21756, Note_on_c, 0, 57, 85
3, 21764, Note_off_c, 0, 57, 0
3, 21768, Note_on_c, 0, 59, 85
3, 21776, Note_off_c, 0, 59, 0
3, 21780, Note_on_c, 0, 57, 85
3, 21788, Note_off_c, 0, 57, 0
3, 21792, Note_on_c, 0, 62, 85
3, 21800, Note_off_c, 0, 62, 0
3, 21804, Note_on_c, 0, 57, 85
3, 21812, Note_off_c, 0, 57, 0
3, 21816, Note_on_c, 0, 60, 85
3, 21824, Note_off_c, 0, 60, 0
3, 21828, Note_on_c, 0, 57, 85
3, 21836, Note_off_c, 0, 57, 0
3, 21840, Note_on_c, 0, 59, 85
3, 21848, Note_off_c, 0, 59, 0
3, 21852, Note_on_c, 0, 57, 85
3, 21860, Note_off_c, 0, 57, 0
3, 21864, Note_on_c, 0, 60, 85
3, 21872, Note_off_c, 0, 60, 0
3, 21876, Note_on_c, 0, 57, 85
3, 21884, Note_off_c, 0, 57, 0
3, 21888, Note_on_c, 0, 64, 85
3, 21896, Note_off_c, 0, 64, 0
3, 21900, Note_on_c, 0, 57, 85
3, 21908, Note_off_c, 0, 57, 0
3, 21912, Note_on_c, 0, 62, 85
3, 21920, Note_off_c, 0, 62, 0
3, 21924, Note_on_c, 0, 57, 85
3, 21932, Note_off_c, 0, 57, 0
3, 21936, Note_on_c, 0, 60, 85
3, 21944, Note_off_c, 0, 60, 0
3, 21948, Note_on_c, 0, 57, 85
3, 21956, Note_off_c, 0, 57, 0
3, 21960, Note_on_c, 0, 59, 85
3, 21968, Note_off_c, 0, 59, 0
3, 21972, Note_on_c, 0, 57, 85
3, 21980, Note_off_c, 0, 57, 0
3, 21984, Note_on_c, 0, 62, 85
3, 21992, Note_off_c, 0, 62, 0
3, 21996, Note_on_c, 0, 57, 85
3, 22004, Note_off_c, 0, 57, 0
3, 22008, Note_on_c, 0, 60, 85
3, 22016, Note_off_c, 0, 60, 0
3, 22020, Note_on_c, 0, 57, 85
3, 22028, Note_off_c, 0, 57, 0
3, 22032, Note_on_c, 0, 59, 85
3, 22040, Note_off_c, 0, 59, 0
3, 22044, Note_on_c, 0, 57, 85
3, 22052, Note_off_c, 0, 57, 0
3, 22056, Note_on_c, 0, 60, 85
3, 22064, Note_off_c, 0, 60, 0
3, 22068, Note_on_c, 0, 57, 85
3, 22076, Note_off_c, 0, 57, 0
3, 22080, Note_on_c, 0, 64, 85
3, 22088, Note_off_c, 0, 64, 0
3, 22092, Note_on_c, 0, 57, 85
3, 22100, Note_off_c, 0, 57, 0
3, 22104, Note_on_c, 0, 62, 85
3, 22112, Note_off_c, 0, 62, 0
3, 22116, Note_on_c, 0, 57, 85
3, 22124, Note_off_c, 0, 57, 0
3, 22128, Note_on_c, 0, 60, 85
3, 22136, Note_off_c, 0, 60, 0
3, 22140, Note_on_c, 0, 57, 85
3, 22148, Note_off_c, 0, 57, 0
3, 22152, Note_on_c, 0, 59, 85
3, 22160, Note_off_c, 0, 59, 0
3, 22164, Note_on_c, 0, 57, 85
3, 22172, Note_off_c, 0, 57, 0
3, 22176, Note_on_c, 0, 62, 85
3, 22184, Note_off_c, 0, 62, 0
3, 22188, Note_on_c, 0, 57, 85
3, 22196, Note_off_c, 0, 57, 0
3, 22200, Note_on_c, 0, 60, 85
3, 22208, Note_off_c, 0, 60, 0
3, 22212, Note_on_c, 0, 57, 85
3, 22220, Note_off_c, 0, 57, 0
3, 22224, Note_on_c, 0, 59, 85
3, 22232, Note_off_c, 0, 59, 0
3, 22236, Note_on_c, 0, 57, 85
3, 22244, Note_off_c, 0, 57, 0
3, 22248, Note_on_c, 0, 60, 85
3, 22256, Note_off_c, 0, 60, 0
3, 22260, Note_on_c, 0, 57, 85
3, 22268, Note_off_c, 0, 57, 0
3, 22272, Note_on_c, 0, 57, 85
3, 22272, Note_on_c, 0, 64, 85
3, 22280, Note_off_c, 0, 57, 0
3, 22280, Note_off_c, 0, 64, 0
3, 22284, Note_on_c, 0, 64, 85
3, 22284, Note_on_c, 0, 57, 85
3, 22292, Note_off_c, 0, 57, 0
3, 22292, Note_off_c, 0, 64, 0
3, 22296, Note_on_c, 0, 57, 85
3, 22296, Note_on_c, 0, 62, 85
3, 22304, Note_off_c, 0, 57, 0
3, 22304, Note_off_c, 0, 62, 0
3, 22308, Note_on_c, 0, 57, 85
3, 22308, Note_on_c, 0, 62, 85
3, 22316, Note_off_c, 0, 57, 0
3, 22316, Note_off_c, 0, 62, 0
3, 22320, Note_on_c, 0, 60, 85
3, 22320, Note_on_c, 0, 57, 85
3, 22328, Note_off_c, 0, 57, 0
3, 22328, Note_off_c, 0, 60, 0
3, 22332, Note_on_c, 0, 60, 85
3, 22332, Note_on_c, 0, 57, 85
3, 22340, Note_off_c, 0, 57, 0
3, 22340, Note_off_c, 0, 60, 0
3, 22344, Note_on_c, 0, 59, 85
3, 22344, Note_on_c, 0, 57, 85
3, 22352, Note_off_c, 0, 57, 0
3, 22352, Note_off_c, 0, 59, 0
3, 22356, Note_on_c, 0, 57, 85
3, 22356, Note_on_c, 0, 59, 85
3, 22364, Note_off_c, 0, 57, 0
3, 22364, Note_off_c, 0, 59, 0
3, 22368, Note_on_c, 0, 57, 85
3, 22368, Note_on_c, 0, 62, 85
3, 22376, Note_off_c, 0, 57, 0
3, 22376, Note_off_c, 0, 62, 0
3, 22380, Note_on_c, 0, 62, 85
3, 22380, Note_on_c, 0, 57, 85
3, 22388, Note_off_c, 0, 57, 0
3, 22388, Note_off_c, 0, 62, 0
3, 22392, Note_on_c, 0, 57, 85
3, 22392, Note_on_c, 0, 60, 85
3, 22400, Note_off_c, 0, 57, 0
3, 22400, Note_off_c, 0, 60, 0
3, 22404, Note_on_c, 0, 60, 85
3, 22404, Note_on_c, 0, 57, 85
3, 22412, Note_off_c, 0, 57, 0
3, 22412, Note_off_c, 0, 60, 0
3, 22488, Note_on_c, 0, 64, 100
3, 22488, Note_on_c, 0, 76, 100
3, 22507, Note_off_c, 0, 64, 0
3, 22507, Note_off_c, 0, 76, 0
3, 22512, Note_on_c, 0, 81, 100
3, 22512, Note_on_c, 0, 69, 100
3, 22531, Note_off_c, 0, 81, 0
3, 22531, Note_off_c, 0, 69, 0
3, 22536, Note_on_c, 0, 76, 100
3, 22536, Note_on_c, 0, 88, 100
3, 22555, Note_off_c, 0, 76, 0
3, 22555, Note_off_c, 0, 88, 0
3, 22560, Note_on_c, 0, 86, 100
3, 22560, Note_on_c, 0, 74, 100
3, 22579, Note_off_c, 0, 86, 0
3, 22579, Note_off_c, 0, 74, 0
3, 22584, Note_on_c, 0, 72, 100
3, 22584, Note_on_c, 0, 84, 100
3, 22603, Note_off_c, 0, 72, 0
3, 22603, Note_off_c, 0, 84, 0
3, 22608, Note_on_c, 0, 83, 100
3, 22608, Note_on_c, 0, 71, 100
3, 22627, Note_off_c, 0, 83, 0
3, 22627, Note_off_c, 0, 71, 0
3, 22632, Note_on_c, 0, 72, 100
3, 22632, Note_on_c, 0, 84, 100
3, 22651, Note_off_c, 0, 72, 0
3, 22651, Note_off_c, 0, 84, 0
3, 22656, Note_on_c, 0, 79, 100
3, 22656, Note_on_c, 0, 81, 95
3, 22656, Note_on_c, 0, 86, 95
3, 22656, Note_on_c, 0, 91, 100
3, 22698, Note_off_c, 0, 79, 0
3, 22698, Note_off_c, 0, 81, 0
3, 22698, Note_off_c, 0, 86, 0
3, 22698, Note_off_c, 0, 91, 0
3, 22704, Note_on_c, 0, 77, 100
3, 22704, Note_on_c, 0, 81, 95
3, 22704, Note_on_c, 0, 86, 95
3, 22704, Note_on_c, 0, 89, 100
3, 22746, Note_off_c, 0, 77, 0
3, 22746, Note_off_c, 0, 81, 0
3, 22746, Note_off_c, 0, 86, 0
3, 22746, Note_off_c, 0, 89, 0
3, 22752, Note_on_c, 0, 77, 100
3, 22752, Note_on_c, 0, 81, 95
3, 22752, Note_on_c, 0, 86, 95
3, 22752, Note_on_c, 0, 89, 100
3, 22794, Note_off_c, 0, 77, 0
3, 22794, Note_off_c, 0, 81, 0
3, 22794, Note_off_c, 0, 86, 0
3, 22794, Note_off_c, 0, 89, 0
3, 22872, Note_on_c, 0, 76, 100
3, 22872, Note_on_c, 0, 80, 96
3, 22872, Note_on_c, 0, 83, 96
3, 22872, Note_on_c, 0, 88, 100
3, 22891, Note_off_c, 0, 76, 0
3, 22891, Note_off_c, 0, 80, 0
3, 22891, Note_off_c, 0, 83, 0
3, 22891, Note_off_c, 0, 88, 0
3, 22896, Note_on_c, 0, 74, 100
3, 22896, Note_on_c, 0, 86, 100
3, 22915, Note_off_c, 0, 74, 0
3, 22915, Note_off_c, 0, 86, 0
3, 22920, Note_on_c, 0, 84, 100
3, 22920, Note_on_c, 0, 72, 100
3, 22939, Note_off_c, 0, 84, 0
3, 22939, Note_off_c, 0, 72, 0
3, 22944, Note_on_c, 0, 71, 100
3, 22944, Note_on_c, 0, 83, 100
3, 22963, Note_off_c, 0, 71, 0
3, 22963, Note_off_c, 0, 83, 0
3, 22968, Note_on_c, 0, 84, 100
3, 22968, Note_on_c, 0, 72, 100
3, 22987, Note_off_c, 0, 84, 0
3, 22987, Note_off_c, 0, 72, 0
3, 22992, Note_on_c, 0, 74, 100
3, 22992, Note_on_c, 0, 86, 100
3, 23011, Note_off_c, 0, 74, 0
3, 23011, Note_off_c, 0, 86, 0
3, 23016, Note_on_c, 0, 83, 100
3, 23016, Note_on_c, 0, 71, 100
3, 23035, Note_off_c, 0, 71, 0
3, 23035, Note_off_c, 0, 83, 0
3, 23040, Note_on_c, 0, 71, 100
3, 23040, Note_on_c, 0, 77, 95
3, 23040, Note_on_c, 0, 81, 95
3, 23040, Note_on_c, 0, 83, 100
3, 23082, Note_off_c, 0, 71, 0
3, 23082, Note_off_c, 0, 77, 0
3, 23082, Note_off_c, 0, 81, 0
3, 23082, Note_off_c, 0, 83, 0
3, 23088, Note_on_c, 0, 84, 100
3, 23088, Note_on_c, 0, 81, 95
3, 23088, Note_on_c, 0, 77, 95
3, 23088, Note_on_c, 0, 72, 100
3, 23130, Note_off_c, 0, 84, 0
3, 23130, Note_off_c, 0, 81, 0
3, 23130, Note_off_c, 0, 77, 0
3, 23130, Note_off_c, 0, 72, 0
3, 23136, Note_on_c, 0, 74, 100
3, 23136, Note_on_c, 0, 77, 95
3, 23136, Note_on_c, 0, 81, 95
3, 23136, Note_on_c, 0, 86, 100
3, 23178, Note_off_c, 0, 74, 0
3, 23178, Note_off_c, 0, 77, 0
3, 23178, Note_off_c, 0, 81, 0
3, 23178, Note_off_c, 0, 86, 0
3, 23184, Note_on_c, 0, 76, 100
3, 23184, Note_on_c, 0, 81, 95
3, 23184, Note_on_c, 0, 84, 95
3, 23184, Note_on_c, 0, 88, 100
3, 23226, Note_off_c, 0, 76, 0
3, 23226, Note_off_c, 0, 81, 0
3, 23226, Note_off_c, 0, 84, 0
3, 23226, Note_off_c, 0, 88, 0
3, 23232, Note_on_c, 0, 81, 100
3, 23232, Note_on_c, 0, 84, 95
3, 23232, Note_on_c, 0, 88, 95
3, 23232, Note_on_c, 0, 93, 100
3, 23320, Note_off_c, 0, 81, 0
3, 23320, Note_off_c, 0, 84, 0
3, 23320, Note_off_c, 0, 88, 0
3, 23320, Note_off_c, 0, 93, 0
3, 23328, Note_on_c, 0, 76, 100
3, 23328, Note_on_c, 0, 88, 100
3, 23347, Note_off_c, 0, 76, 0
3, 23347, Note_off_c, 0, 88, 0
3, 23352, Note_on_c, 0, 75, 100
3, 23352, Note_on_c, 0, 87, 100
3, 23371, Note_off_c, 0, 87, 0
3, 23371, Note_off_c, 0, 75, 0
3, 23376, Note_on_c, 0, 76, 100
3, 23376, Note_on_c, 0, 88, 100
3, 23395, Note_off_c, 0, 76, 0
3, 23395, Note_off_c, 0, 88, 0
3, 23400, Note_on_c, 0, 80, 100
3, 23400, Note_on_c, 0, 92, 100
3, 23419, Note_off_c, 0, 92, 0
3, 23419, Note_off_c, 0, 80, 0
3, 23424, Note_on_c, 0, 81, 94
3, 23424, Note_on_c, 0, 86, 94
3, 23424, Note_on_c, 0, 89, 94
3, 23424, Note_on_c, 0, 93, 100
3, 23512, Note_off_c, 0, 81, 0
3, 23512, Note_off_c, 0, 86, 0
3, 23512, Note_off_c, 0, 89, 0
3, 23512, Note_off_c, 0, 93, 0
3, 23520, Note_on_c, 0, 88, 100
3, 23520, Note_on_c, 0, 76, 100
3, 23562, Note_off_c, 0, 88, 0
3, 23562, Note_off_c, 0, 76, 0
3, 23568, Note_on_c, 0, 79, 100
3, 23568, Note_on_c, 0, 91, 100
3, 23587, Note_off_c, 0, 79, 0
3, 23587, Note_off_c, 0, 91, 0
3, 23592, Note_on_c, 0, 77, 100
3, 23592, Note_on_c, 0, 89, 100
3, 23611, Note_off_c, 0, 89, 0
3, 23611, Note_off_c, 0, 77, 0
3, 23616, Note_on_c, 0, 76, 100
3, 23616, Note_on_c, 0, 77, 95
3, 23616, Note_on_c, 0, 81, 95
3, 23616, Note_on_c, 0, 88, 100
3, 23658, Note_off_c, 0, 76, 0
3, 23658, Note_off_c, 0, 77, 0
3, 23658, Note_off_c, 0, 81, 0
3, 23658, Note_off_c, 0, 88, 0
3, 23664, Note_on_c, 0, 74, 100
3, 23664, Note_on_c, 0, 77, 94
3, 23664, Note_on_c, 0, 81, 94
3, 23664, Note_on_c, 0, 86, 100
3, 23706, Note_off_c, 0, 74, 0
3, 23706, Note_off_c, 0, 77, 0
3, 23706, Note_off_c, 0, 81, 0
3, 23706, Note_off_c, 0, 86, 0
3, 23712, Note_on_c, 0, 72, 100
3, 23712, Note_on_c, 0, 76, 93
3, 23712, Note_on_c, 0, 81, 93
3, 23712, Note_on_c, 0, 84, 100
3, 23754, Note_off_c, 0, 72, 0
3, 23754, Note_off_c, 0, 76, 0
3, 23754, Note_off_c, 0, 81, 0
3, 23754, Note_off_c, 0, 84, 0
3, 23760, Note_on_c, 0, 86, 100
3, 23760, Note_on_c, 0, 83, 93
3, 23760, Note_on_c, 0, 80, 93
3, 23760, Note_on_c, 0, 74, 100
3, 23802, Note_off_c, 0, 86, 0
3, 23802, Note_off_c, 0, 83, 0
3, 23802, Note_off_c, 0, 80, 0
3, 23802, Note_off_c, 0, 74, 0
3, 23808, Note_on_c, 0, 88, 100
3, 23808, Note_on_c, 0, 84, 93
3, 23808, Note_on_c, 0, 81, 93
3, 23808, Note_on_c, 0, 76, 100
3, 23971, Note_off_c, 0, 88, 0
3, 23971, Note_off_c, 0, 84, 0
3, 23971, Note_off_c, 0, 81, 0
3, 23971, Note_off_c, 0, 76, 0
3, 24048, Note_on_c, 0, 64, 91
3, 24048, Note_on_c, 0, 72, 95
3, 24067, Note_off_c, 0, 64, 0
3, 24067, Note_off_c, 0, 72, 0
3, 24072, Note_on_c, 0, 64, 91
3, 24072, Note_on_c, 0, 72, 95
3, 24091, Note_off_c, 0, 64, 0
3, 24091, Note_off_c, 0, 72, 0
3, 24096, Note_on_c, 0, 64, 91
3, 24096, Note_on_c, 0, 71, 95
3, 24138, Note_off_c, 0, 64, 0
3, 24138, Note_off_c, 0, 71, 0
3, 24144, Note_on_c, 0, 64, 91
3, 24144, Note_on_c, 0, 69, 95
3, 24186, Note_off_c, 0, 64, 0
3, 24186, Note_off_c, 0, 69, 0
3, 24192, Note_on_c, 0, 64, 91
3, 24192, Note_on_c, 0, 71, 95
3, 24211, Note_off_c, 0, 64, 0
3, 24211, Note_off_c, 0, 71, 0
3, 24216, Note_on_c, 0, 69, 95
3, 24216, Note_on_c, 0, 64, 91
3, 24235, Note_off_c, 0, 69, 0
3, 24235, Note_off_c, 0, 64, 0
3, 24240, Note_on_c, 0, 71, 95
3, 24240, Note_on_c, 0, 64, 91
3, 24259, Note_off_c, 0, 71, 0
3, 24259, Note_off_c, 0, 64, 0
3, 24264, Note_on_c, 0, 72, 95
3, 24264, Note_on_c, 0, 64, 91
3, 24283, Note_off_c, 0, 72, 0
3, 24283, Note_off_c, 0, 64, 0
3, 24288, Note_on_c, 0, 74, 95
3, 24288, Note_on_c, 0, 69, 95
3, 24288, Note_on_c, 0, 64, 91
3, 24330, Note_off_c, 0, 74, 0
3, 24330, Note_off_c, 0, 69, 0
3, 24330, Note_off_c, 0, 64, 0
3, 24336, Note_on_c, 0, 76, 95
3, 24336, Note_on_c, 0, 69, 91
3, 24336, Note_on_c, 0, 64, 91
3, 24402, Note_off_c, 0, 76, 0
3, 24402, Note_off_c, 0, 69, 0
3, 24402, Note_off_c, 0, 64, 0
3, 24432, Note_on_c, 0, 76, 95
3, 24432, Note_on_c, 0, 69, 91
3, 24432, Note_on_c, 0, 64, 91
3, 24451, Note_off_c, 0, 76, 0
3, 24451, Note_off_c, 0, 69, 0
3, 24451, Note_off_c, 0, 64, 0
3, 24456, Note_on_c, 0, 76, 95
3, 24456, Note_on_c, 0, 69, 91
3, 24456, Note_on_c, 0, 64, 91
3, 24475, Note_off_c, 0, 76, 0
3, 24475, Note_off_c, 0, 69, 0
3, 24475, Note_off_c, 0, 64, 0
3, 24480, Note_on_c, 0, 69, 91
3, 24480, Note_on_c, 0, 64, 91
3, 24522, Note_off_c, 0, 69, 0
3, 24522, Note_off_c, 0, 64, 0
3, 24528, Note_on_c, 0, 77, 95
3, 24528, Note_on_c, 0, 69, 91
3, 24528, Note_on_c, 0, 65, 91
3, 24570, Note_off_c, 0, 77, 0
3, 24570, Note_off_c, 0, 69, 0
3, 24570, Note_off_c, 0, 65, 0
3, 24576, Note_on_c, 0, 76, 95
3, 24576, Note_on_c, 0, 69, 91
3, 24576, Note_on_c, 0, 64, 91
3, 24618, Note_off_c, 0, 64, 0
3, 24618, Note_off_c, 0, 69, 0
3, 24618, Note_off_c, 0, 76, 0
3, 24624, Note_on_c, 0, 74, 95
3, 24624, Note_on_c, 0, 69, 91
3, 24624, Note_on_c, 0, 64, 91
3, 24666, Note_off_c, 0, 74, 0
3, 24666, Note_off_c, 0, 69, 0
3, 24666, Note_off_c, 0, 64, 0
3, 24672, Note_on_c, 0, 72, 95
3, 24672, Note_on_c, 0, 64, 91
3, 24714, Note_off_c, 0, 72, 0
3, 24714, Note_off_c, 0, 64, 0
3, 24720, Note_on_c, 0, 64, 91
3, 24720, Note_on_c, 0, 71, 95
3, 24786, Note_off_c, 0, 64, 0
3, 24786, Note_off_c, 0, 71, 0
3, 24816, Note_on_c, 0, 74, 95
3, 24816, Note_on_c, 0, 69, 90
3, 24816, Note_on_c, 0, 62, 91
3, 24835, Note_off_c, 0, 74, 0
3, 24835, Note_off_c, 0, 69, 0
3, 24835, Note_off_c, 0, 62, 0
3, 24840, Note_on_c, 0, 62, 91
3, 24840, Note_on_c, 0, 69, 90
3, 24840, Note_on_c, 0, 74, 95
3, 24859, Note_off_c, 0, 62, 0
3, 24859, Note_off_c, 0, 69, 0
3, 24859, Note_off_c, 0, 74, 0
3, 24864, Note_on_c, 0, 64, 91
3, 24864, Note_on_c, 0, 69, 90
3, 24864, Note_on_c, 0, 76, 95
3, 24906, Note_off_c, 0, 64, 0
3, 24906, Note_off_c, 0, 69, 0
3, 24906, Note_off_c, 0, 76, 0
3, 24912, Note_on_c, 0, 77, 95
3, 24912, Note_on_c, 0, 69, 90
3, 24912, Note_on_c, 0, 65, 91
3, 24954, Note_off_c, 0, 77, 0
3, 24954, Note_off_c, 0, 69, 0
3, 24954, Note_off_c, 0, 65, 0
3, 24960, Note_on_c, 0, 65, 91
3, 24960, Note_on_c, 0, 69, 90
3, 24960, Note_on_c, 0, 77, 95
3, 25002, Note_off_c, 0, 77, 0
3, 25002, Note_off_c, 0, 69, 0
3, 25002, Note_off_c, 0, 65, 0
3, 25008, Note_on_c, 0, 76, 95
3, 25008, Note_on_c, 0, 69, 89
3, 25008, Note_on_c, 0, 64, 91
3, 25050, Note_off_c, 0, 76, 0
3, 25050, Note_off_c, 0, 69, 0
3, 25050, Note_off_c, 0, 64, 0
3, 25056, Note_on_c, 0, 64, 91
3, 25056, Note_on_c, 0, 69, 89
3, 25056, Note_on_c, 0, 74, 95
3, 25098, Note_off_c, 0, 64, 0
3, 25098, Note_off_c, 0, 69, 0
3, 25098, Note_off_c, 0, 74, 0
3, 25104, Note_on_c, 0, 76, 95
3, 25104, Note_on_c, 0, 69, 89
3, 25104, Note_on_c, 0, 64, 91
3, 25146, Note_off_c, 0, 76, 0
3, 25146, Note_off_c, 0, 69, 0
3, 25146, Note_off_c, 0, 64, 0
3, 25152, Note_on_c, 0, 69, 95
3, 25152, Note_on_c, 0, 76, 89
3, 25152, Note_on_c, 0, 79, 95
3, 25285, Note_off_c, 0, 79, 0
3, 25285, Note_off_c, 0, 76, 0
3, 25285, Note_off_c, 0, 69, 0
3, 25296, Note_on_c, 0, 65, 91
3, 25296, Note_on_c, 0, 69, 95
3, 25296, Note_on_c, 0, 77, 95
3, 25338, Note_off_c, 0, 65, 0
3, 25338, Note_off_c, 0, 69, 0
3, 25338, Note_off_c, 0, 77, 0
3, 25344, Note_on_c, 0, 64, 91
3, 25344, Note_on_c, 0, 69, 95
3, 25344, Note_on_c, 0, 76, 95
3, 25435, Note_off_c, 0, 64, 0
3, 25435, Note_off_c, 0, 69, 0
3, 25435, Note_off_c, 0, 76, 0
3, 25440, Note_on_c, 0, 59, 91
3, 25440, Note_on_c, 0, 62, 91
3, 25440, Note_on_c, 0, 71, 95
3, 25507, Note_off_c, 0, 59, 0
3, 25507, Note_off_c, 0, 62, 0
3, 25507, Note_off_c, 0, 71, 0
3, 25512, Note_on_c, 0, 60, 95
3, 25531, Note_off_c, 0, 60, 0
3, 25560, Note_on_c, 0, 76, 100
3, 25560, Note_on_c, 0, 64, 100
3, 25579, Note_off_c, 0, 76, 0
3, 25579, Note_off_c, 0, 64, 0
3, 25584, Note_on_c, 0, 69, 100
3, 25584, Note_on_c, 0, 81, 100
3, 25603, Note_off_c, 0, 69, 0
3, 25603, Note_off_c, 0, 81, 0
3, 25608, Note_on_c, 0, 88, 100
3, 25608, Note_on_c, 0, 76, 100
3, 25627, Note_off_c, 0, 88, 0
3, 25627, Note_off_c, 0, 76, 0
3, 25632, Note_on_c, 0, 74, 100
3, 25632, Note_on_c, 0, 86, 100
3, 25651, Note_off_c, 0, 74, 0
3, 25651, Note_off_c, 0, 86, 0
3, 25656, Note_on_c, 0, 84, 100
3, 25656, Note_on_c, 0, 72, 100
3, 25675, Note_off_c, 0, 84, 0
3, 25675, Note_off_c, 0, 72, 0
3, 25680, Note_on_c, 0, 71, 100
3, 25680, Note_on_c, 0, 83, 100
3, 25699, Note_off_c, 0, 71, 0
3, 25699, Note_off_c, 0, 83, 0
3, 25704, Note_on_c, 0, 84, 100
3, 25704, Note_on_c, 0, 72, 100
3, 25723, Note_off_c, 0, 84, 0
3, 25723, Note_off_c, 0, 72, 0
3, 25728, Note_on_c, 0, 91, 100
3, 25728, Note_on_c, 0, 86, 94
3, 25728, Note_on_c, 0, 81, 94
3, 25728, Note_on_c, 0, 79, 100
3, 25770, Note_off_c, 0, 91, 0
3, 25770, Note_off_c, 0, 86, 0
3, 25770, Note_off_c, 0, 81, 0
3, 25770, Note_off_c, 0, 79, 0
3, 25776, Note_on_c, 0, 89, 100
3, 25776, Note_on_c, 0, 86, 94
3, 25776, Note_on_c, 0, 81, 94
3, 25776, Note_on_c, 0, 77, 100
3, 25818, Note_off_c, 0, 89, 0
3, 25818, Note_off_c, 0, 86, 0
3, 25818, Note_off_c, 0, 81, 0
3, 25818, Note_off_c, 0, 77, 0
3, 25824, Note_on_c, 0, 89, 100
3, 25824, Note_on_c, 0, 86, 94
3, 25824, Note_on_c, 0, 81, 94
3, 25824, Note_on_c, 0, 77, 100
3, 25912, Note_off_c, 0, 89, 0
3, 25912, Note_off_c, 0, 86, 0
3, 25912, Note_off_c, 0, 81, 0
3, 25912, Note_off_c, 0, 77, 0
3, 25944, Note_on_c, 0, 88, 100
3, 25944, Note_on_c, 0, 83, 100
3, 25944, Note_on_c, 0, 80, 100
3, 25944, Note_on_c, 0, 76, 100
3, 25963, Note_off_c, 0, 88, 0
3, 25963, Note_off_c, 0, 83, 0
3, 25963, Note_off_c, 0, 80, 0
3, 25963, Note_off_c, 0, 76, 0
3, 25968, Note_on_c, 0, 86, 100
3, 25968, Note_on_c, 0, 74, 100
3, 25987, Note_off_c, 0, 86, 0
3, 25987, Note_off_c, 0, 74, 0
3, 25992, Note_on_c, 0, 84, 100
3, 25992, Note_on_c, 0, 72, 100
3, 26011, Note_off_c, 0, 84, 0
3, 26011, Note_off_c, 0, 72, 0
3, 26016, Note_on_c, 0, 83, 100
3, 26016, Note_on_c, 0, 71, 100
3, 26035, Note_off_c, 0, 83, 0
3, 26035, Note_off_c, 0, 71, 0
3, 26040, Note_on_c, 0, 84, 100
3, 26040, Note_on_c, 0, 72, 100
3, 26059, Note_off_c, 0, 84, 0
3, 26059, Note_off_c, 0, 72, 0
3, 26064, Note_on_c, 0, 86, 100
3, 26064, Note_on_c, 0, 74, 100
3, 26083, Note_off_c, 0, 86, 0
3, 26083, Note_off_c, 0, 74, 0
3, 26088, Note_on_c, 0, 83, 100
3, 26088, Note_on_c, 0, 71, 100
3, 26107, Note_off_c, 0, 83, 0
3, 26107, Note_off_c, 0, 71, 0
3, 26112, Note_on_c, 0, 71, 100
3, 26112, Note_on_c, 0, 77, 93
3, 26112, Note_on_c, 0, 81, 93
3, 26112, Note_on_c, 0, 83, 100
3, 26154, Note_off_c, 0, 71, 0
3, 26154, Note_off_c, 0, 77, 0
3, 26154, Note_off_c, 0, 81, 0
3, 26154, Note_off_c, 0, 83, 0
3, 26160, Note_on_c, 0, 72, 100
3, 26160, Note_on_c, 0, 77, 93
3, 26160, Note_on_c, 0, 81, 93
3, 26160, Note_on_c, 0, 84, 100
3, 26202, Note_off_c, 0, 72, 0
3, 26202, Note_off_c, 0, 77, 0
3, 26202, Note_off_c, 0, 81, 0
3, 26202, Note_off_c, 0, 84, 0
3, 26208, Note_on_c, 0, 74, 100
3, 26208, Note_on_c, 0, 77, 93
3, 26208, Note_on_c, 0, 81, 93
3, 26208, Note_on_c, 0, 86, 100
3, 26250, Note_off_c, 0, 74, 0
3, 26250, Note_off_c, 0, 77, 0
3, 26250, Note_off_c, 0, 81, 0
3, 26250, Note_off_c, 0, 86, 0
3, 26256, Note_on_c, 0, 76, 100
3, 26256, Note_on_c, 0, 81, 93
3, 26256, Note_on_c, 0, 84, 93
3, 26256, Note_on_c, 0, 88, 100
3, 26298, Note_off_c, 0, 76, 0
3, 26298, Note_off_c, 0, 81, 0
3, 26298, Note_off_c, 0, 84, 0
3, 26298, Note_off_c, 0, 88, 0
3, 26304, Note_on_c, 0, 81, 100
3, 26304, Note_on_c, 0, 84, 93
3, 26304, Note_on_c, 0, 88, 93
3, 26304, Note_on_c, 0, 93, 100
3, 26392, Note_off_c, 0, 81, 0
3, 26392, Note_off_c, 0, 84, 0
3, 26392, Note_off_c, 0, 88, 0
3, 26392, Note_off_c, 0, 93, 0
3, 26400, Note_on_c, 0, 76, 100
3, 26400, Note_on_c, 0, 88, 100
3, 26419, Note_off_c, 0, 76, 0
3, 26419, Note_off_c, 0, 88, 0
3, 26424, Note_on_c, 0, 87, 100
3, 26424, Note_on_c, 0, 75, 100
3, 26443, Note_off_c, 0, 87, 0
3, 26443, Note_off_c, 0, 75, 0
3, 26448, Note_on_c, 0, 76, 100
3, 26448, Note_on_c, 0, 88, 100
3, 26467, Note_off_c, 0, 76, 0
3, 26467, Note_off_c, 0, 88, 0
3, 26472, Note_on_c, 0, 92, 100
3, 26472, Note_on_c, 0, 80, 100
3, 26491, Note_off_c, 0, 92, 0
3, 26491, Note_off_c, 0, 80, 0
3, 26496, Note_on_c, 0, 81, 93
3, 26496, Note_on_c, 0, 86, 93
3, 26496, Note_on_c, 0, 89, 93
3, 26496, Note_on_c, 0, 93, 100
3, 26584, Note_off_c, 0, 81, 0
3, 26584, Note_off_c, 0, 86, 0
3, 26584, Note_off_c, 0, 89, 0
3, 26584, Note_off_c, 0, 93, 0
3, 26592, Note_on_c, 0, 76, 100
3, 26592, Note_on_c, 0, 81, 95
3, 26592, Note_on_c, 0, 84, 95
3, 26592, Note_on_c, 0, 88, 100
3, 26634, Note_off_c, 0, 76, 0
3, 26634, Note_off_c, 0, 81, 0
3, 26634, Note_off_c, 0, 84, 0
3, 26634, Note_off_c, 0, 88, 0
3, 26640, Note_on_c, 0, 79, 100
3, 26640, Note_on_c, 0, 91, 100
3, 26659, Note_off_c, 0, 79, 0
3, 26659, Note_off_c, 0, 91, 0
3, 26664, Note_on_c, 0, 89, 100
3, 26664, Note_on_c, 0, 77, 100
3, 26683, Note_off_c, 0, 89, 0
3, 26683, Note_off_c, 0, 77, 0
3, 26688, Note_on_c, 0, 76, 100
3, 26688, Note_on_c, 0, 77, 94
3, 26688, Note_on_c, 0, 81, 94
3, 26688, Note_on_c, 0, 88, 100
3, 26730, Note_off_c, 0, 76, 0
3, 26730, Note_off_c, 0, 77, 0
3, 26730, Note_off_c, 0, 81, 0
3, 26730, Note_off_c, 0, 88, 0
3, 26736, Note_on_c, 0, 74, 100
3, 26736, Note_on_c, 0, 77, 94
3, 26736, Note_on_c, 0, 81, 94
3, 26736, Note_on_c, 0, 86, 100
3, 26778, Note_off_c, 0, 74, 0
3, 26778, Note_off_c, 0, 77, 0
3, 26778, Note_off_c, 0, 81, 0
3, 26778, Note_off_c, 0, 86, 0
3, 26784, Note_on_c, 0, 72, 100
3, 26784, Note_on_c, 0, 76, 93
3, 26784, Note_on_c, 0, 81, 93
3, 26784, Note_on_c, 0, 84, 100
3, 26826, Note_off_c, 0, 72, 0
3, 26826, Note_off_c, 0, 76, 0
3, 26826, Note_off_c, 0, 81, 0
3, 26826, Note_off_c, 0, 84, 0
3, 26832, Note_on_c, 0, 74, 100
3, 26832, Note_on_c, 0, 80, 93
3, 26832, Note_on_c, 0, 83, 93
3, 26832, Note_on_c, 0, 86, 100
3, 26874, Note_off_c, 0, 74, 0
3, 26874, Note_off_c, 0, 80, 0
3, 26874, Note_off_c, 0, 83, 0
3, 26874, Note_off_c, 0, 86, 0
3, 26880, Note_on_c, 0, 76, 92
3, 26880, Note_on_c, 0, 81, 92
3, 26880, Note_on_c, 0, 84, 92
3, 26880, Note_on_c, 0, 88, 100
3, 26922, Note_off_c, 0, 88, 0
3, 26922, Note_off_c, 0, 76, 0
3, 26922, Note_off_c, 0, 81, 0
3, 26922, Note_off_c, 0, 84, 0
3, 26940, Note_on_c, 0, 57, 97
3, 26948, Note_off_c, 0, 57, 0
3, 26952, Note_on_c, 0, 60, 97
3, 26960, Note_off_c, 0, 60, 0
3, 26964, Note_on_c, 0, 64, 96
3, 26972, Note_off_c, 0, 64, 0
3, 26976, Note_on_c, 0, 69, 95
3, 26984, Note_off_c, 0, 69, 0
3, 26988, Note_on_c, 0, 72, 95
3, 26996, Note_off_c, 0, 72, 0
3, 27000, Note_on_c, 0, 76, 96
3, 27008, Note_off_c, 0, 76, 0
3, 27012, Note_on_c, 0, 81, 96
3, 27020, Note_off_c, 0, 81, 0
3, 27024, Note_on_c, 0, 84, 95
3, 27032, Note_off_c, 0, 84, 0
3, 27036, Note_on_c, 0, 88, 95
3, 27044, Note_off_c, 0, 88, 0
3, 27048, Note_on_c, 0, 93, 94
3, 27056, Note_off_c, 0, 93, 0
3, 27060, Note_on_c, 0, 96, 94
3, 27068, Note_off_c, 0, 96, 0
3, 27072, Note_on_c, 0, 100, 94
3, 27251, Note_off_c, 0, 100, 0
3, 27288, Note_on_c, 0, 76, 85
3, 27307, Note_off_c, 0, 76, 0
3, 27312, Note_on_c, 0, 81, 85
3, 27331, Note_off_c, 0, 81, 0
3, 27336, Note_on_c, 0, 88, 85
3, 27355, Note_off_c, 0, 88, 0
3, 27360, Note_on_c, 0, 86, 84
3, 27379, Note_off_c, 0, 86, 0
3, 27384, Note_on_c, 0, 84, 84
3, 27403, Note_off_c, 0, 84, 0
3, 27408, Note_on_c, 0, 83, 84
3, 27427, Note_off_c, 0, 83, 0
3, 27432, Note_on_c, 0, 84, 84
3, 27451, Note_off_c, 0, 84, 0
3, 27456, Note_on_c, 0, 91, 84
3, 27498, Note_off_c, 0, 91, 0
3, 27504, Note_on_c, 0, 89, 84
3, 27546, Note_off_c, 0, 89, 0
3, 27552, Note_on_c, 0, 89, 84
3, 27594, Note_off_c, 0, 89, 0
3, 27672, Note_on_c, 0, 88, 84
3, 27691, Note_off_c, 0, 88, 0
3, 27696, Note_on_c, 0, 86, 84
3, 27715, Note_off_c, 0, 86, 0
3, 27720, Note_on_c, 0, 84, 84
3, 27739, Note_off_c, 0, 84, 0
3, 27744, Note_on_c, 0, 83, 84
3, 27763, Note_off_c, 0, 83, 0
3, 27768, Note_on_c, 0, 84, 84
3, 27787, Note_off_c, 0, 84, 0
3, 27792, Note_on_c, 0, 86, 84
3, 27811, Note_off_c, 0, 86, 0
3, 27816, Note_on_c, 0, 83, 84
3, 27835, Note_off_c, 0, 83, 0
3, 27840, Note_on_c, 0, 83, 83
3, 27882, Note_off_c, 0, 83, 0
3, 27888, Note_on_c, 0, 84, 83
3, 27930, Note_off_c, 0, 84, 0
3, 27936, Note_on_c, 0, 86, 83
3, 27978, Note_off_c, 0, 86, 0
3, 27984, Note_on_c, 0, 88, 84
3, 28026, Note_off_c, 0, 88, 0
3, 28032, Note_on_c, 0, 93, 83
3, 28120, Note_off_c, 0, 93, 0
3, 28128, Note_on_c, 0, 88, 83
3, 28147, Note_off_c, 0, 88, 0
3, 28152, Note_on_c, 0, 87, 83
3, 28171, Note_off_c, 0, 87, 0
3, 28176, Note_on_c, 0, 88, 83
3, 28195, Note_off_c, 0, 88, 0
3, 28200, Note_on_c, 0, 92, 83
3, 28219, Note_off_c, 0, 92, 0
3, 28224, Note_on_c, 0, 93, 83
3, 28312, Note_off_c, 0, 93, 0
3, 28320, Note_on_c, 0, 88, 84
3, 28362, Note_off_c, 0, 88, 0
3, 28368, Note_on_c, 0, 91, 84
3, 28387, Note_off_c, 0, 91, 0
3, 28392, Note_on_c, 0, 89, 84
3, 28411, Note_off_c, 0, 89, 0
3, 28416, Note_on_c, 0, 88, 84
3, 28458, Note_off_c, 0, 88, 0
3, 28464, Note_on_c, 0, 86, 83
3, 28506, Note_off_c, 0, 86, 0
3, 28512, Note_on_c, 0, 81, 83
3, 28512, Note_on_c, 0, 84, 83
3, 28554, Note_off_c, 0, 84, 0
3, 28554, Note_off_c, 0, 81, 0
3, 28560, Note_on_c, 0, 83, 84
3, 28560, Note_on_c, 0, 86, 84
3, 28602, Note_off_c, 0, 86, 0
3, 28602, Note_off_c, 0, 83, 0
3, 28608, Note_on_c, 0, 88, 81
3, 28608, Note_on_c, 0, 81, 81
3, 28787, Note_off_c, 0, 81, 0
3, 28787, Note_off_c, 0, 88, 0
3, 28848, Control_c, 0, 101, 0
3, 28848, Control_c, 0, 100, 0
3, 28848, Control_c, 0, 6, 12
3, 28848, Control_c, 0, 10, 64
3, 28848, Control_c, 0, 7, 100
3, 28848, Pitch_bend_c, 0, 8192
3, 28848, Program_c, 0, 0
3, 28848, Control_c, 0, 7, 100
3, 28848, Control_c, 0, 10, 64
3, 28849, Control_c, 0, 101, 0
3, 28849, Control_c, 0, 100, 0
3, 28849, Control_c, 0, 6, 12
3, 28849, Control_c, 0, 10, 64
3, 28849, Control_c, 0, 7, 100
3, 28849, Pitch_bend_c, 0, 8192
3, 28849, Program_c, 0, 0
3, 28849, End_track
4, 0, Start_track
4, 0, Title_t, "CFX Concert Grand #2"
4, 0, Control_c, 1, 10, 64
4, 0, Control_c, 1, 7, 100
4, 0, Pitch_bend_c, 1, 8192
4, 0, Control_c, 1, 101, 0
4, 0, Control_c, 1, 100, 0
4, 0, Control_c, 1, 6, 12
4, 0, Control_c, 1, 10, 64
4, 0, Control_c, 1, 7, 100
4, 0, Pitch_bend_c, 1, 8192
4, 0, Program_c, 1, 0
4, 0, Control_c, 1, 101, 0
4, 0, Control_c, 1, 100, 0
4, 0, Control_c, 1, 6, 12
4, 0, Control_c, 1, 10, 64
4, 0, Control_c, 1, 7, 100
4, 0, Pitch_bend_c, 1, 8192
4, 0, Program_c, 1, 0
4, 0, Note_on_c, 1, 53, 58
4, 0, Note_on_c, 1, 48, 58
4, 0, Note_on_c, 1, 41, 58
4, 0, Control_c, 1, 101, 0
4, 0, Control_c, 1, 100, 0
4, 0, Control_c, 1, 6, 12
4, 0, Control_c, 1, 10, 64
4, 0, Control_c, 1, 7, 100
4, 0, Pitch_bend_c, 1, 8192
4, 0, Program_c, 1, 0
4, 265, Note_off_c, 1, 53, 0
4, 265, Note_off_c, 1, 48, 0
4, 265, Note_off_c, 1, 41, 0
4, 288, Note_on_c, 1, 52, 61
4, 288, Note_on_c, 1, 47, 61
4, 288, Note_on_c, 1, 40, 61
4, 371, Note_off_c, 1, 52, 0
4, 371, Note_off_c, 1, 47, 0
4, 371, Note_off_c, 1, 40, 0
4, 384, Note_on_c, 1, 52, 62
4, 384, Note_on_c, 1, 45, 62
4, 740, Note_off_c, 1, 52, 0
4, 740, Note_off_c, 1, 45, 0
4, 768, Note_on_c, 1, 41, 61
4, 768, Note_on_c, 1, 48, 61
4, 768, Note_on_c, 1, 53, 61
4, 1033, Note_off_c, 1, 41, 0
4, 1033, Note_off_c, 1, 48, 0
4, 1033, Note_off_c, 1, 53, 0
4, 1056, Note_on_c, 1, 52, 61
4, 1056, Note_on_c, 1, 47, 61
4, 1056, Note_on_c, 1, 40, 61
4, 1139, Note_off_c, 1, 52, 0
4, 1139, Note_off_c, 1, 47, 0
4, 1139, Note_off_c, 1, 40, 0
4, 1152, Note_on_c, 1, 45, 61
4, 1152, Note_on_c, 1, 52, 61
4, 1508, Note_off_c, 1, 45, 0
4, 1508, Note_off_c, 1, 52, 0
4, 1536, Note_on_c, 1, 41, 62
4, 1573, Note_off_c, 1, 41, 0
4, 1584, Note_on_c, 1, 48, 62
4, 1621, Note_off_c, 1, 48, 0
4, 1632, Note_on_c, 1, 53, 62
4, 1669, Note_off_c, 1, 53, 0
4, 1680, Note_on_c, 1, 57, 62
4, 1717, Note_off_c, 1, 57, 0
4, 1728, Note_on_c, 1, 43, 62
4, 1765, Note_off_c, 1, 43, 0
4, 1776, Note_on_c, 1, 50, 62
4, 1813, Note_off_c, 1, 50, 0
4, 1824, Note_on_c, 1, 55, 62
4, 1861, Note_off_c, 1, 55, 0
4, 1872, Note_on_c, 1, 59, 62
4, 1909, Note_off_c, 1, 59, 0
4, 1920, Note_on_c, 1, 45, 62
4, 1957, Note_off_c, 1, 45, 0
4, 1968, Note_on_c, 1, 52, 62
4, 2005, Note_off_c, 1, 52, 0
4, 2016, Note_on_c, 1, 57, 62
4, 2053, Note_off_c, 1, 57, 0
4, 2064, Note_on_c, 1, 52, 62
4, 2101, Note_off_c, 1, 52, 0
4, 2160, Note_on_c, 1, 52, 62
4, 2197, Note_off_c, 1, 52, 0
4, 2208, Note_on_c, 1, 55, 62
4, 2245, Note_off_c, 1, 55, 0
4, 2256, Note_on_c, 1, 52, 62
4, 2293, Note_off_c, 1, 52, 0
4, 2304, Note_on_c, 1, 41, 62
4, 2341, Note_off_c, 1, 41, 0
4, 2352, Note_on_c, 1, 48, 62
4, 2389, Note_off_c, 1, 48, 0
4, 2400, Note_on_c, 1, 53, 62
4, 2437, Note_off_c, 1, 53, 0
4, 2448, Note_on_c, 1, 48, 62
4, 2485, Note_off_c, 1, 48, 0
4, 2496, Note_on_c, 1, 43, 62
4, 2533, Note_off_c, 1, 43, 0
4, 2544, Note_on_c, 1, 50, 62
4, 2581, Note_off_c, 1, 50, 0
4, 2592, Note_on_c, 1, 55, 62
4, 2629, Note_off_c, 1, 55, 0
4, 2640, Note_on_c, 1, 50, 62
4, 2677, Note_off_c, 1, 50, 0
4, 2688, Note_on_c, 1, 45, 62
4, 2725, Note_off_c, 1, 45, 0
4, 2736, Note_on_c, 1, 52, 62
4, 2773, Note_off_c, 1, 52, 0
4, 2784, Note_on_c, 1, 57, 62
4, 2821, Note_off_c, 1, 57, 0
4, 2832, Note_on_c, 1, 59, 62
4, 2871, Note_off_c, 1, 59, 0
4, 2880, Note_on_c, 1, 57, 62
4, 3371, Note_off_c, 1, 57, 0
4, 3456, Note_on_c, 1, 57, 70
4, 3456, Note_on_c, 1, 52, 70
4, 3456, Note_on_c, 1, 45, 70
4, 3628, Note_off_c, 1, 57, 0
4, 3831, Note_off_c, 1, 45, 0
4, 3831, Note_off_c, 1, 52, 0
4, 3840, Note_on_c, 1, 53, 70
4, 3840, Note_on_c, 1, 48, 70
4, 3840, Note_on_c, 1, 41, 70
4, 4209, Note_off_c, 1, 53, 0
4, 4209, Note_off_c, 1, 48, 0
4, 4215, Note_off_c, 1, 41, 0
4, 4224, Note_on_c, 1, 45, 70
4, 4224, Note_on_c, 1, 50, 70
4, 4224, Note_on_c, 1, 38, 70
4, 4401, Note_off_c, 1, 45, 0
4, 4401, Note_off_c, 1, 50, 0
4, 4407, Note_off_c, 1, 38, 0
4, 4416, Note_on_c, 1, 52, 70
4, 4416, Note_on_c, 1, 47, 70
4, 4416, Note_on_c, 1, 40, 70
4, 4593, Note_off_c, 1, 52, 0
4, 4593, Note_off_c, 1, 47, 0
4, 4599, Note_off_c, 1, 40, 0
4, 4608, Note_on_c, 1, 48, 70
4, 4608, Note_on_c, 1, 53, 70
4, 4608, Note_on_c, 1, 41, 70
4, 4977, Note_off_c, 1, 48, 0
4, 4977, Note_off_c, 1, 53, 0
4, 4983, Note_off_c, 1, 41, 0
4, 4992, Note_on_c, 1, 52, 70
4, 4992, Note_on_c, 1, 45, 70
4, 5361, Note_off_c, 1, 52, 0
4, 5367, Note_off_c, 1, 45, 0
4, 5376, Note_on_c, 1, 48, 70
4, 5376, Note_on_c, 1, 53, 70
4, 5376, Note_on_c, 1, 41, 70
4, 5739, Note_off_c, 1, 48, 0
4, 5739, Note_off_c, 1, 53, 0
4, 5751, Note_off_c, 1, 41, 0
4, 5760, Note_on_c, 1, 45, 70
4, 5760, Note_on_c, 1, 50, 70
4, 5760, Note_on_c, 1, 38, 70
4, 5937, Note_off_c, 1, 45, 0
4, 5937, Note_off_c, 1, 50, 0
4, 5943, Note_off_c, 1, 38, 0
4, 5952, Note_on_c, 1, 52, 70
4, 5952, Note_on_c, 1, 47, 70
4, 5952, Note_on_c, 1, 40, 70
4, 6129, Note_off_c, 1, 52, 0
4, 6129, Note_off_c, 1, 47, 0
4, 6135, Note_off_c, 1, 40, 0
4, 6144, Note_on_c, 1, 52, 70
4, 6144, Note_on_c, 1, 45, 70
4, 6507, Note_off_c, 1, 52, 0
4, 6519, Note_off_c, 1, 45, 0
4, 6528, Note_on_c, 1, 48, 74
4, 6528, Note_on_c, 1, 36, 75
4, 6608, Note_off_c, 1, 48, 0
4, 6624, Note_on_c, 1, 48, 71
4, 6704, Note_off_c, 1, 48, 0
4, 6720, Note_on_c, 1, 48, 69
4, 6800, Note_off_c, 1, 48, 0
4, 6816, Note_on_c, 1, 48, 68
4, 6896, Note_off_c, 1, 36, 0
4, 6896, Note_off_c, 1, 48, 0
4, 6912, Note_on_c, 1, 50, 74
4, 6912, Note_on_c, 1, 38, 75
4, 6992, Note_off_c, 1, 50, 0
4, 7008, Note_on_c, 1, 50, 71
4, 7088, Note_off_c, 1, 50, 0
4, 7104, Note_on_c, 1, 50, 68
4, 7184, Note_off_c, 1, 50, 0
4, 7200, Note_on_c, 1, 50, 66
4, 7280, Note_off_c, 1, 38, 0
4, 7280, Note_off_c, 1, 50, 0
4, 7296, Note_on_c, 1, 52, 73
4, 7296, Note_on_c, 1, 40, 75
4, 7376, Note_off_c, 1, 52, 0
4, 7392, Note_on_c, 1, 52, 70
4, 7472, Note_off_c, 1, 52, 0
4, 7488, Note_on_c, 1, 52, 68
4, 7568, Note_off_c, 1, 52, 0
4, 7584, Note_on_c, 1, 52, 65
4, 7664, Note_off_c, 1, 40, 0
4, 7664, Note_off_c, 1, 52, 0
4, 7680, Note_on_c, 1, 41, 75
4, 7680, Note_on_c, 1, 53, 71
4, 7760, Note_off_c, 1, 53, 0
4, 7776, Note_on_c, 1, 53, 70
4, 7856, Note_off_c, 1, 53, 0
4, 7872, Note_on_c, 1, 53, 66
4, 7952, Note_off_c, 1, 53, 0
4, 7968, Note_on_c, 1, 53, 66
4, 8048, Note_off_c, 1, 41, 0
4, 8048, Note_off_c, 1, 53, 0
4, 8064, Note_on_c, 1, 34, 75
4, 8064, Note_on_c, 1, 46, 71
4, 8142, Note_off_c, 1, 46, 0
4, 8160, Note_on_c, 1, 46, 68
4, 8238, Note_off_c, 1, 34, 0
4, 8238, Note_off_c, 1, 46, 0
4, 8256, Note_on_c, 1, 36, 75
4, 8256, Note_on_c, 1, 48, 72
4, 8334, Note_off_c, 1, 48, 0
4, 8352, Note_on_c, 1, 48, 67
4, 8430, Note_off_c, 1, 36, 0
4, 8430, Note_off_c, 1, 48, 0
4, 8448, Note_on_c, 1, 49, 70
4, 8448, Note_on_c, 1, 37, 75
4, 8526, Note_off_c, 1, 49, 0
4, 8544, Note_on_c, 1, 49, 68
4, 8622, Note_off_c, 1, 37, 0
4, 8622, Note_off_c, 1, 49, 0
4, 8640, Note_on_c, 1, 51, 69
4, 8640, Note_on_c, 1, 39, 75
4, 8718, Note_off_c, 1, 51, 0
4, 8736, Note_on_c, 1, 51, 70
4, 8814, Note_off_c, 1, 39, 0
4, 8814, Note_off_c, 1, 51, 0
4, 8832, Note_on_c, 1, 39, 75
4, 8832, Note_on_c, 1, 51, 72
4, 9097, Note_off_c, 1, 39, 0
4, 9097, Note_off_c, 1, 51, 0
4, 9216, Note_on_c, 1, 41, 88
4, 9253, Note_off_c, 1, 41, 0
4, 9264, Note_on_c, 1, 48, 88
4, 9301, Note_off_c, 1, 48, 0
4, 9312, Note_on_c, 1, 53, 88
4, 9349, Note_off_c, 1, 53, 0
4, 9360, Note_on_c, 1, 48, 88
4, 9397, Note_off_c, 1, 48, 0
4, 9408, Note_on_c, 1, 43, 88
4, 9445, Note_off_c, 1, 43, 0
4, 9456, Note_on_c, 1, 50, 88
4, 9493, Note_off_c, 1, 50, 0
4, 9504, Note_on_c, 1, 55, 88
4, 9541, Note_off_c, 1, 55, 0
4, 9552, Note_on_c, 1, 50, 88
4, 9589, Note_off_c, 1, 50, 0
4, 9600, Note_on_c, 1, 45, 88
4, 9637, Note_off_c, 1, 45, 0
4, 9648, Note_on_c, 1, 52, 88
4, 9685, Note_off_c, 1, 52, 0
4, 9696, Note_on_c, 1, 57, 88
4, 9733, Note_off_c, 1, 57, 0
4, 9744, Note_on_c, 1, 52, 88
4, 9781, Note_off_c, 1, 52, 0
4, 9792, Note_on_c, 1, 45, 88
4, 9829, Note_off_c, 1, 45, 0
4, 9840, Note_on_c, 1, 52, 88
4, 9877, Note_off_c, 1, 52, 0
4, 9888, Note_on_c, 1, 57, 88
4, 9925, Note_off_c, 1, 57, 0
4, 9936, Note_on_c, 1, 52, 88
4, 9973, Note_off_c, 1, 52, 0
4, 9984, Note_on_c, 1, 41, 88
4, 10021, Note_off_c, 1, 41, 0
4, 10032, Note_on_c, 1, 48, 88
4, 10069, Note_off_c, 1, 48, 0
4, 10080, Note_on_c, 1, 53, 88
4, 10117, Note_off_c, 1, 53, 0
4, 10128, Note_on_c, 1, 48, 88
4, 10165, Note_off_c, 1, 48, 0
4, 10176, Note_on_c, 1, 43, 88
4, 10213, Note_off_c, 1, 43, 0
4, 10224, Note_on_c, 1, 50, 88
4, 10261, Note_off_c, 1, 50, 0
4, 10272, Note_on_c, 1, 55, 88
4, 10309, Note_off_c, 1, 55, 0
4, 10320, Note_on_c, 1, 50, 88
4, 10357, Note_off_c, 1, 50, 0
4, 10368, Note_on_c, 1, 45, 88
4, 10405, Note_off_c, 1, 45, 0
4, 10416, Note_on_c, 1, 52, 88
4, 10453, Note_off_c, 1, 52, 0
4, 10464, Note_on_c, 1, 57, 88
4, 10501, Note_off_c, 1, 57, 0
4, 10512, Note_on_c, 1, 52, 88
4, 10549, Note_off_c, 1, 52, 0
4, 10560, Note_on_c, 1, 45, 88
4, 10597, Note_off_c, 1, 45, 0
4, 10608, Note_on_c, 1, 52, 88
4, 10645, Note_off_c, 1, 52, 0
4, 10656, Note_on_c, 1, 57, 88
4, 10693, Note_off_c, 1, 57, 0
4, 10704, Note_on_c, 1, 52, 88
4, 10741, Note_off_c, 1, 52, 0
4, 10752, Note_on_c, 1, 41, 88
4, 10789, Note_off_c, 1, 41, 0
4, 10800, Note_on_c, 1, 48, 88
4, 10837, Note_off_c, 1, 48, 0
4, 10848, Note_on_c, 1, 53, 88
4, 10885, Note_off_c, 1, 53, 0
4, 10896, Note_on_c, 1, 48, 88
4, 10933, Note_off_c, 1, 48, 0
4, 10944, Note_on_c, 1, 43, 88
4, 10981, Note_off_c, 1, 43, 0
4, 10992, Note_on_c, 1, 50, 88
4, 11029, Note_off_c, 1, 50, 0
4, 11040, Note_on_c, 1, 55, 88
4, 11077, Note_off_c, 1, 55, 0
4, 11088, Note_on_c, 1, 50, 88
4, 11125, Note_off_c, 1, 50, 0
4, 11136, Note_on_c, 1, 45, 88
4, 11173, Note_off_c, 1, 45, 0
4, 11184, Note_on_c, 1, 52, 88
4, 11221, Note_off_c, 1, 52, 0
4, 11232, Note_on_c, 1, 57, 88
4, 11269, Note_off_c, 1, 57, 0
4, 11280, Note_on_c, 1, 52, 88
4, 11317, Note_off_c, 1, 52, 0
4, 11328, Note_on_c, 1, 45, 88
4, 11365, Note_off_c, 1, 45, 0
4, 11376, Note_on_c, 1, 52, 88
4, 11413, Note_off_c, 1, 52, 0
4, 11424, Note_on_c, 1, 57, 88
4, 11461, Note_off_c, 1, 57, 0
4, 11472, Note_on_c, 1, 52, 88
4, 11509, Note_off_c, 1, 52, 0
4, 11520, Note_on_c, 1, 41, 88
4, 11557, Note_off_c, 1, 41, 0
4, 11568, Note_on_c, 1, 48, 88
4, 11605, Note_off_c, 1, 48, 0
4, 11616, Note_on_c, 1, 53, 87
4, 11653, Note_off_c, 1, 53, 0
4, 11664, Note_on_c, 1, 48, 86
4, 11701, Note_off_c, 1, 48, 0
4, 11712, Note_on_c, 1, 43, 85
4, 11749, Note_off_c, 1, 43, 0
4, 11760, Note_on_c, 1, 50, 84
4, 11797, Note_off_c, 1, 50, 0
4, 11808, Note_on_c, 1, 55, 83
4, 11845, Note_off_c, 1, 55, 0
4, 11856, Note_on_c, 1, 50, 80
4, 11893, Note_off_c, 1, 50, 0
4, 11904, Note_on_c, 1, 45, 78
4, 11941, Note_off_c, 1, 45, 0
4, 11952, Note_on_c, 1, 52, 77
4, 11989, Note_off_c, 1, 52, 0
4, 12000, Note_on_c, 1, 57, 76
4, 12037, Note_off_c, 1, 57, 0
4, 12048, Note_on_c, 1, 59, 73
4, 12085, Note_off_c, 1, 59, 0
4, 12096, Note_on_c, 1, 60, 70
4, 12133, Note_off_c, 1, 60, 0
4, 12144, Note_on_c, 1, 64, 66
4, 12181, Note_off_c, 1, 64, 0
4, 12192, Note_on_c, 1, 67, 60
4, 12229, Note_off_c, 1, 67, 0
4, 12240, Note_on_c, 1, 71, 57
4, 12277, Note_off_c, 1, 71, 0
4, 12288, Note_on_c, 1, 45, 56
4, 12572, Note_off_c, 1, 45, 0
4, 12672, Note_on_c, 1, 57, 59
4, 12678, Note_on_c, 1, 64, 59
4, 12684, Note_on_c, 1, 69, 59
4, 13047, Note_off_c, 1, 57, 0
4, 13047, Note_off_c, 1, 64, 0
4, 13047, Note_off_c, 1, 69, 0
4, 13056, Note_on_c, 1, 53, 60
4, 13062, Note_on_c, 1, 60, 60
4, 13068, Note_on_c, 1, 65, 60
4, 13431, Note_off_c, 1, 53, 0
4, 13431, Note_off_c, 1, 65, 0
4, 13431, Note_off_c, 1, 60, 0
4, 13440, Note_on_c, 1, 57, 59
4, 13446, Note_on_c, 1, 64, 59
4, 13452, Note_on_c, 1, 69, 59
4, 13815, Note_off_c, 1, 57, 0
4, 13815, Note_off_c, 1, 64, 0
4, 13815, Note_off_c, 1, 69, 0
4, 13824, Note_on_c, 1, 53, 59
4, 13827, Note_on_c, 1, 60, 59
4, 13830, Note_on_c, 1, 65, 60
4, 14564, Note_off_c, 1, 53, 0
4, 14564, Note_off_c, 1, 60, 0
4, 14564, Note_off_c, 1, 65, 0
4, 14592, Note_on_c, 1, 33, 87
4, 14592, Note_on_c, 1, 45, 87
4, 14606, Note_off_c, 1, 33, 0
4, 14606, Note_off_c, 1, 45, 0
4, 14616, Note_on_c, 1, 52, 87
4, 14630, Note_off_c, 1, 52, 0
4, 14640, Note_on_c, 1, 56, 87
4, 14654, Note_off_c, 1, 56, 0
4, 14664, Note_on_c, 1, 52, 87
4, 14678, Note_off_c, 1, 52, 0
4, 14688, Note_on_c, 1, 59, 87
4, 14702, Note_off_c, 1, 59, 0
4, 14712, Note_on_c, 1, 52, 87
4, 14726, Note_off_c, 1, 52, 0
4, 14736, Note_on_c, 1, 57, 87
4, 14750, Note_off_c, 1, 57, 0
4, 14760, Note_on_c, 1, 52, 87
4, 14774, Note_off_c, 1, 52, 0
4, 14784, Note_on_c, 1, 45, 87
4, 14784, Note_on_c, 1, 33, 87
4, 14798, Note_off_c, 1, 45, 0
4, 14798, Note_off_c, 1, 33, 0
4, 14808, Note_on_c, 1, 52, 87
4, 14822, Note_off_c, 1, 52, 0
4, 14832, Note_on_c, 1, 57, 87
4, 14846, Note_off_c, 1, 57, 0
4, 14856, Note_on_c, 1, 52, 87
4, 14870, Note_off_c, 1, 52, 0
4, 14880, Note_on_c, 1, 60, 87
4, 14894, Note_off_c, 1, 60, 0
4, 14904, Note_on_c, 1, 52, 87
4, 14918, Note_off_c, 1, 52, 0
4, 14928, Note_on_c, 1, 57, 87
4, 14942, Note_off_c, 1, 57, 0
4, 14952, Note_on_c, 1, 52, 87
4, 14966, Note_off_c, 1, 52, 0
4, 14976, Note_on_c, 1, 45, 87
4, 14976, Note_on_c, 1, 33, 87
4, 14990, Note_off_c, 1, 45, 0
4, 14990, Note_off_c, 1, 33, 0
4, 15000, Note_on_c, 1, 53, 87
4, 15014, Note_off_c, 1, 53, 0
4, 15024, Note_on_c, 1, 57, 87
4, 15038, Note_off_c, 1, 57, 0
4, 15048, Note_on_c, 1, 53, 87
4, 15062, Note_off_c, 1, 53, 0
4, 15072, Note_on_c, 1, 60, 87
4, 15086, Note_off_c, 1, 60, 0
4, 15096, Note_on_c, 1, 53, 87
4, 15110, Note_off_c, 1, 53, 0
4, 15120, Note_on_c, 1, 57, 87
4, 15134, Note_off_c, 1, 57, 0
4, 15144, Note_on_c, 1, 53, 87
4, 15158, Note_off_c, 1, 53, 0
4, 15168, Note_on_c, 1, 33, 87
4, 15168, Note_on_c, 1, 45, 87
4, 15182, Note_off_c, 1, 33, 0
4, 15182, Note_off_c, 1, 45, 0
4, 15192, Note_on_c, 1, 50, 87
4, 15206, Note_off_c, 1, 50, 0
4, 15216, Note_on_c, 1, 55, 87
4, 15230, Note_off_c, 1, 55, 0
4, 15240, Note_on_c, 1, 50, 87
4, 15254, Note_off_c, 1, 50, 0
4, 15264, Note_on_c, 1, 59, 87
4, 15278, Note_off_c, 1, 59, 0
4, 15288, Note_on_c, 1, 50, 87
4, 15302, Note_off_c, 1, 50, 0
4, 15312, Note_on_c, 1, 55, 87
4, 15326, Note_off_c, 1, 55, 0
4, 15336, Note_on_c, 1, 50, 87
4, 15350, Note_off_c, 1, 50, 0
4, 15360, Note_on_c, 1, 45, 87
4, 15360, Note_on_c, 1, 33, 87
4, 15374, Note_off_c, 1, 45, 0
4, 15374, Note_off_c, 1, 33, 0
4, 15384, Note_on_c, 1, 52, 87
4, 15398, Note_off_c, 1, 52, 0
4, 15408, Note_on_c, 1, 57, 87
4, 15422, Note_off_c, 1, 57, 0
4, 15432, Note_on_c, 1, 52, 87
4, 15446, Note_off_c, 1, 52, 0
4, 15456, Note_on_c, 1, 60, 87
4, 15470, Note_off_c, 1, 60, 0
4, 15480, Note_on_c, 1, 52, 87
4, 15494, Note_off_c, 1, 52, 0
4, 15504, Note_on_c, 1, 57, 87
4, 15518, Note_off_c, 1, 57, 0
4, 15528, Note_on_c, 1, 52, 87
4, 15542, Note_off_c, 1, 52, 0
4, 15552, Note_on_c, 1, 33, 87
4, 15552, Note_on_c, 1, 45, 87
4, 15566, Note_off_c, 1, 33, 0
4, 15566, Note_off_c, 1, 45, 0
4, 15576, Note_on_c, 1, 53, 87
4, 15590, Note_off_c, 1, 53, 0
4, 15600, Note_on_c, 1, 57, 87
4, 15614, Note_off_c, 1, 57, 0
4, 15624, Note_on_c, 1, 53, 87
4, 15638, Note_off_c, 1, 53, 0
4, 15648, Note_on_c, 1, 60, 87
4, 15662, Note_off_c, 1, 60, 0
4, 15672, Note_on_c, 1, 53, 87
4, 15686, Note_off_c, 1, 53, 0
4, 15696, Note_on_c, 1, 57, 87
4, 15710, Note_off_c, 1, 57, 0
4, 15720, Note_on_c, 1, 53, 87
4, 15734, Note_off_c, 1, 53, 0
4, 15744, Note_on_c, 1, 45, 87
4, 15744, Note_on_c, 1, 33, 87
4, 15758, Note_off_c, 1, 45, 0
4, 15758, Note_off_c, 1, 33, 0
4, 15768, Note_on_c, 1, 50, 87
4, 15782, Note_off_c, 1, 50, 0
4, 15792, Note_on_c, 1, 53, 87
4, 15806, Note_off_c, 1, 53, 0
4, 15816, Note_on_c, 1, 50, 87
4, 15830, Note_off_c, 1, 50, 0
4, 15840, Note_on_c, 1, 57, 87
4, 15854, Note_off_c, 1, 57, 0
4, 15864, Note_on_c, 1, 50, 87
4, 15878, Note_off_c, 1, 50, 0
4, 15888, Note_on_c, 1, 53, 87
4, 15902, Note_off_c, 1, 53, 0
4, 15912, Note_on_c, 1, 50, 87
4, 15926, Note_off_c, 1, 50, 0
4, 15936, Note_on_c, 1, 33, 87
4, 15936, Note_on_c, 1, 45, 87
4, 15950, Note_off_c, 1, 33, 0
4, 15950, Note_off_c, 1, 45, 0
4, 15960, Note_on_c, 1, 52, 87
4, 15974, Note_off_c, 1, 52, 0
4, 15984, Note_on_c, 1, 57, 87
4, 15998, Note_off_c, 1, 57, 0
4, 16008, Note_on_c, 1, 52, 87
4, 16022, Note_off_c, 1, 52, 0
4, 16032, Note_on_c, 1, 21, 87
4, 16032, Note_on_c, 1, 33, 87
4, 16297, Note_off_c, 1, 21, 0
4, 16297, Note_off_c, 1, 33, 0
4, 16320, Note_on_c, 1, 45, 69
4, 16334, Note_off_c, 1, 45, 0
4, 16344, Note_on_c, 1, 52, 69
4, 16358, Note_off_c, 1, 52, 0
4, 16368, Note_on_c, 1, 57, 69
4, 16382, Note_off_c, 1, 57, 0
4, 16392, Note_on_c, 1, 52, 69
4, 16406, Note_off_c, 1, 52, 0
4, 16416, Note_on_c, 1, 59, 70
4, 16430, Note_off_c, 1, 59, 0
4, 16440, Note_on_c, 1, 52, 70
4, 16454, Note_off_c, 1, 52, 0
4, 16464, Note_on_c, 1, 57, 70
4, 16478, Note_off_c, 1, 57, 0
4, 16488, Note_on_c, 1, 52, 70
4, 16502, Note_off_c, 1, 52, 0
4, 16512, Note_on_c, 1, 45, 70
4, 16526, Note_off_c, 1, 45, 0
4, 16536, Note_on_c, 1, 53, 70
4, 16550, Note_off_c, 1, 53, 0
4, 16560, Note_on_c, 1, 57, 70
4, 16574, Note_off_c, 1, 57, 0
4, 16584, Note_on_c, 1, 53, 70
4, 16598, Note_off_c, 1, 53, 0
4, 16608, Note_on_c, 1, 59, 70
4, 16622, Note_off_c, 1, 59, 0
4, 16632, Note_on_c, 1, 53, 70
4, 16646, Note_off_c, 1, 53, 0
4, 16656, Note_on_c, 1, 57, 70
4, 16670, Note_off_c, 1, 57, 0
4, 16680, Note_on_c, 1, 53, 70
4, 16694, Note_off_c, 1, 53, 0
4, 16704, Note_on_c, 1, 44, 70
4, 16718, Note_off_c, 1, 44, 0
4, 16728, Note_on_c, 1, 52, 70
4, 16742, Note_off_c, 1, 52, 0
4, 16752, Note_on_c, 1, 56, 70
4, 16766, Note_off_c, 1, 56, 0
4, 16776, Note_on_c, 1, 52, 70
4, 16790, Note_off_c, 1, 52, 0
4, 16800, Note_on_c, 1, 59, 70
4, 16814, Note_off_c, 1, 59, 0
4, 16824, Note_on_c, 1, 52, 70
4, 16838, Note_off_c, 1, 52, 0
4, 16848, Note_on_c, 1, 56, 70
4, 16862, Note_off_c, 1, 56, 0
4, 16872, Note_on_c, 1, 52, 70
4, 16886, Note_off_c, 1, 52, 0
4, 16896, Note_on_c, 1, 41, 69
4, 16910, Note_off_c, 1, 41, 0
4, 16920, Note_on_c, 1, 48, 69
4, 16934, Note_off_c, 1, 48, 0
4, 16944, Note_on_c, 1, 57, 69
4, 16958, Note_off_c, 1, 57, 0
4, 16968, Note_on_c, 1, 48, 69
4, 16982, Note_off_c, 1, 48, 0
4, 16992, Note_on_c, 1, 59, 69
4, 17006, Note_off_c, 1, 59, 0
4, 17016, Note_on_c, 1, 48, 69
4, 17030, Note_off_c, 1, 48, 0
4, 17040, Note_on_c, 1, 57, 69
4, 17054, Note_off_c, 1, 57, 0
4, 17064, Note_on_c, 1, 48, 69
4, 17078, Note_off_c, 1, 48, 0
4, 17088, Note_on_c, 1, 45, 69
4, 17102, Note_off_c, 1, 45, 0
4, 17112, Note_on_c, 1, 52, 69
4, 17126, Note_off_c, 1, 52, 0
4, 17136, Note_on_c, 1, 57, 69
4, 17150, Note_off_c, 1, 57, 0
4, 17160, Note_on_c, 1, 52, 70
4, 17174, Note_off_c, 1, 52, 0
4, 17184, Note_on_c, 1, 59, 70
4, 17198, Note_off_c, 1, 59, 0
4, 17208, Note_on_c, 1, 52, 70
4, 17222, Note_off_c, 1, 52, 0
4, 17232, Note_on_c, 1, 57, 70
4, 17246, Note_off_c, 1, 57, 0
4, 17256, Note_on_c, 1, 52, 70
4, 17270, Note_off_c, 1, 52, 0
4, 17280, Note_on_c, 1, 45, 70
4, 17294, Note_off_c, 1, 45, 0
4, 17304, Note_on_c, 1, 53, 70
4, 17318, Note_off_c, 1, 53, 0
4, 17328, Note_on_c, 1, 57, 70
4, 17342, Note_off_c, 1, 57, 0
4, 17352, Note_on_c, 1, 53, 70
4, 17366, Note_off_c, 1, 53, 0
4, 17376, Note_on_c, 1, 60, 70
4, 17390, Note_off_c, 1, 60, 0
4, 17400, Note_on_c, 1, 53, 70
4, 17414, Note_off_c, 1, 53, 0
4, 17424, Note_on_c, 1, 57, 70
4, 17438, Note_off_c, 1, 57, 0
4, 17448, Note_on_c, 1, 53, 70
4, 17462, Note_off_c, 1, 53, 0
4, 17472, Note_on_c, 1, 40, 70
4, 17486, Note_off_c, 1, 40, 0
4, 17496, Note_on_c, 1, 47, 70
4, 17510, Note_off_c, 1, 47, 0
4, 17520, Note_on_c, 1, 52, 69
4, 17534, Note_off_c, 1, 52, 0
4, 17544, Note_on_c, 1, 47, 69
4, 17558, Note_off_c, 1, 47, 0
4, 17568, Note_on_c, 1, 56, 69
4, 17582, Note_off_c, 1, 56, 0
4, 17592, Note_on_c, 1, 47, 68
4, 17606, Note_off_c, 1, 47, 0
4, 17616, Note_on_c, 1, 52, 68
4, 17630, Note_off_c, 1, 52, 0
4, 17640, Note_on_c, 1, 47, 68
4, 17654, Note_off_c, 1, 47, 0
4, 17664, Note_on_c, 1, 45, 68
4, 17678, Note_off_c, 1, 45, 0
4, 17688, Note_on_c, 1, 52, 68
4, 17702, Note_off_c, 1, 52, 0
4, 17712, Note_on_c, 1, 57, 69
4, 17726, Note_off_c, 1, 57, 0
4, 17736, Note_on_c, 1, 52, 69
4, 17750, Note_off_c, 1, 52, 0
4, 17760, Note_on_c, 1, 60, 69
4, 17774, Note_off_c, 1, 60, 0
4, 17784, Note_on_c, 1, 52, 69
4, 17798, Note_off_c, 1, 52, 0
4, 17808, Note_on_c, 1, 57, 70
4, 17822, Note_off_c, 1, 57, 0
4, 17832, Note_on_c, 1, 52, 74
4, 17846, Note_off_c, 1, 52, 0
4, 17856, Note_on_c, 1, 33, 79
4, 17856, Note_on_c, 1, 45, 79
4, 17894, Note_off_c, 1, 33, 0
4, 17894, Note_off_c, 1, 45, 0
4, 17904, Note_on_c, 1, 45, 79
4, 17904, Note_on_c, 1, 33, 79
4, 18036, Note_off_c, 1, 45, 0
4, 18036, Note_off_c, 1, 33, 0
4, 18048, Note_on_c, 1, 31, 79
4, 18048, Note_on_c, 1, 43, 79
4, 18086, Note_off_c, 1, 31, 0
4, 18086, Note_off_c, 1, 43, 0
4, 18096, Note_on_c, 1, 31, 79
4, 18096, Note_on_c, 1, 43, 79
4, 18228, Note_off_c, 1, 31, 0
4, 18228, Note_off_c, 1, 43, 0
4, 18240, Note_on_c, 1, 41, 79
4, 18240, Note_on_c, 1, 29, 79
4, 18278, Note_off_c, 1, 41, 0
4, 18278, Note_off_c, 1, 29, 0
4, 18288, Note_on_c, 1, 29, 79
4, 18288, Note_on_c, 1, 41, 79
4, 18420, Note_off_c, 1, 29, 0
4, 18420, Note_off_c, 1, 41, 0
4, 18432, Note_on_c, 1, 28, 79
4, 18432, Note_on_c, 1, 40, 79
4, 18470, Note_off_c, 1, 28, 0
4, 18470, Note_off_c, 1, 40, 0
4, 18480, Note_on_c, 1, 40, 79
4, 18480, Note_on_c, 1, 28, 79
4, 18564, Note_off_c, 1, 40, 0
4, 18564, Note_off_c, 1, 28, 0
4, 18576, Note_on_c, 1, 43, 79
4, 18576, Note_on_c, 1, 31, 79
4, 18613, Note_off_c, 1, 43, 0
4, 18613, Note_off_c, 1, 31, 0
4, 18624, Note_on_c, 1, 45, 79
4, 18624, Note_on_c, 1, 33, 79
4, 18662, Note_off_c, 1, 45, 0
4, 18662, Note_off_c, 1, 33, 0
4, 18672, Note_on_c, 1, 45, 79
4, 18672, Note_on_c, 1, 33, 79
4, 18804, Note_off_c, 1, 45, 0
4, 18804, Note_off_c, 1, 33, 0
4, 18816, Note_on_c, 1, 47, 79
4, 18816, Note_on_c, 1, 35, 79
4, 18854, Note_off_c, 1, 47, 0
4, 18854, Note_off_c, 1, 35, 0
4, 18864, Note_on_c, 1, 47, 79
4, 18864, Note_on_c, 1, 35, 79
4, 18996, Note_off_c, 1, 47, 0
4, 18996, Note_off_c, 1, 35, 0
4, 19008, Note_on_c, 1, 36, 79
4, 19008, Note_on_c, 1, 48, 79
4, 19046, Note_off_c, 1, 36, 0
4, 19046, Note_off_c, 1, 48, 0
4, 19056, Note_on_c, 1, 48, 79
4, 19056, Note_on_c, 1, 36, 79
4, 19188, Note_off_c, 1, 48, 0
4, 19190, Note_off_c, 1, 36, 0
4, 19200, Note_on_c, 1, 31, 79
4, 19200, Note_on_c, 1, 43, 79
4, 19238, Note_off_c, 1, 31, 0
4, 19238, Note_off_c, 1, 43, 0
4, 19248, Note_on_c, 1, 31, 79
4, 19248, Note_on_c, 1, 43, 79
4, 19380, Note_off_c, 1, 31, 0
4, 19380, Note_off_c, 1, 43, 0
4, 19392, Note_on_c, 1, 45, 85
4, 19392, Note_on_c, 1, 33, 85
4, 19406, Note_off_c, 1, 45, 0
4, 19406, Note_off_c, 1, 33, 0
4, 19416, Note_on_c, 1, 45, 85
4, 19416, Note_on_c, 1, 33, 85
4, 19430, Note_off_c, 1, 45, 0
4, 19430, Note_off_c, 1, 33, 0
4, 19440, Note_on_c, 1, 45, 85
4, 19440, Note_on_c, 1, 33, 85
4, 19454, Note_off_c, 1, 45, 0
4, 19454, Note_off_c, 1, 33, 0
4, 19464, Note_on_c, 1, 45, 85
4, 19464, Note_on_c, 1, 33, 85
4, 19478, Note_off_c, 1, 45, 0
4, 19478, Note_off_c, 1, 33, 0
4, 19488, Note_on_c, 1, 45, 85
4, 19488, Note_on_c, 1, 33, 85
4, 19502, Note_off_c, 1, 45, 0
4, 19502, Note_off_c, 1, 33, 0
4, 19512, Note_on_c, 1, 33, 85
4, 19512, Note_on_c, 1, 45, 85
4, 19526, Note_off_c, 1, 33, 0
4, 19526, Note_off_c, 1, 45, 0
4, 19536, Note_on_c, 1, 33, 85
4, 19536, Note_on_c, 1, 45, 85
4, 19550, Note_off_c, 1, 33, 0
4, 19550, Note_off_c, 1, 45, 0
4, 19560, Note_on_c, 1, 45, 85
4, 19560, Note_on_c, 1, 33, 85
4, 19574, Note_off_c, 1, 45, 0
4, 19574, Note_off_c, 1, 33, 0
4, 19584, Note_on_c, 1, 29, 85
4, 19584, Note_on_c, 1, 41, 85
4, 19598, Note_off_c, 1, 29, 0
4, 19598, Note_off_c, 1, 41, 0
4, 19608, Note_on_c, 1, 29, 85
4, 19608, Note_on_c, 1, 41, 85
4, 19622, Note_off_c, 1, 29, 0
4, 19622, Note_off_c, 1, 41, 0
4, 19632, Note_on_c, 1, 41, 85
4, 19632, Note_on_c, 1, 29, 85
4, 19646, Note_off_c, 1, 41, 0
4, 19646, Note_off_c, 1, 29, 0
4, 19656, Note_on_c, 1, 41, 85
4, 19656, Note_on_c, 1, 29, 85
4, 19670, Note_off_c, 1, 41, 0
4, 19670, Note_off_c, 1, 29, 0
4, 19680, Note_on_c, 1, 41, 85
4, 19680, Note_on_c, 1, 29, 85
4, 19694, Note_off_c, 1, 41, 0
4, 19694, Note_off_c, 1, 29, 0
4, 19704, Note_on_c, 1, 29, 85
4, 19704, Note_on_c, 1, 41, 85
4, 19718, Note_off_c, 1, 29, 0
4, 19718, Note_off_c, 1, 41, 0
4, 19728, Note_on_c, 1, 41, 85
4, 19728, Note_on_c, 1, 29, 85
4, 19742, Note_off_c, 1, 41, 0
4, 19742, Note_off_c, 1, 29, 0
4, 19752, Note_on_c, 1, 29, 85
4, 19752, Note_on_c, 1, 41, 85
4, 19766, Note_off_c, 1, 29, 0
4, 19766, Note_off_c, 1, 41, 0
4, 19776, Note_on_c, 1, 33, 85
4, 19776, Note_on_c, 1, 45, 85
4, 19790, Note_off_c, 1, 33, 0
4, 19790, Note_off_c, 1, 45, 0
4, 19800, Note_on_c, 1, 33, 85
4, 19800, Note_on_c, 1, 45, 85
4, 19814, Note_off_c, 1, 33, 0
4, 19814, Note_off_c, 1, 45, 0
4, 19824, Note_on_c, 1, 45, 85
4, 19824, Note_on_c, 1, 33, 85
4, 19838, Note_off_c, 1, 45, 0
4, 19838, Note_off_c, 1, 33, 0
4, 19848, Note_on_c, 1, 45, 85
4, 19848, Note_on_c, 1, 33, 85
4, 19862, Note_off_c, 1, 45, 0
4, 19862, Note_off_c, 1, 33, 0
4, 19872, Note_on_c, 1, 33, 85
4, 19872, Note_on_c, 1, 45, 85
4, 19886, Note_off_c, 1, 33, 0
4, 19886, Note_off_c, 1, 45, 0
4, 19896, Note_on_c, 1, 33, 85
4, 19896, Note_on_c, 1, 45, 85
4, 19910, Note_off_c, 1, 33, 0
4, 19910, Note_off_c, 1, 45, 0
4, 19920, Note_on_c, 1, 45, 85
4, 19920, Note_on_c, 1, 33, 85
4, 19934, Note_off_c, 1, 45, 0
4, 19934, Note_off_c, 1, 33, 0
4, 19944, Note_on_c, 1, 45, 85
4, 19944, Note_on_c, 1, 33, 85
4, 19958, Note_off_c, 1, 45, 0
4, 19958, Note_off_c, 1, 33, 0
4, 19968, Note_on_c, 1, 26, 85
4, 19968, Note_on_c, 1, 38, 85
4, 19982, Note_off_c, 1, 26, 0
4, 19982, Note_off_c, 1, 38, 0
4, 19992, Note_on_c, 1, 26, 85
4, 19992, Note_on_c, 1, 38, 85
4, 20006, Note_off_c, 1, 26, 0
4, 20006, Note_off_c, 1, 38, 0
4, 20016, Note_on_c, 1, 26, 85
4, 20016, Note_on_c, 1, 38, 85
4, 20030, Note_off_c, 1, 26, 0
4, 20030, Note_off_c, 1, 38, 0
4, 20040, Note_on_c, 1, 26, 85
4, 20040, Note_on_c, 1, 38, 85
4, 20054, Note_off_c, 1, 26, 0
4, 20054, Note_off_c, 1, 38, 0
4, 20064, Note_on_c, 1, 40, 85
4, 20064, Note_on_c, 1, 28, 85
4, 20078, Note_off_c, 1, 40, 0
4, 20078, Note_off_c, 1, 28, 0
4, 20088, Note_on_c, 1, 40, 85
4, 20088, Note_on_c, 1, 28, 85
4, 20102, Note_off_c, 1, 40, 0
4, 20102, Note_off_c, 1, 28, 0
4, 20112, Note_on_c, 1, 40, 85
4, 20112, Note_on_c, 1, 28, 85
4, 20126, Note_off_c, 1, 28, 0
4, 20126, Note_off_c, 1, 40, 0
4, 20136, Note_on_c, 1, 40, 85
4, 20136, Note_on_c, 1, 28, 85
4, 20150, Note_off_c, 1, 40, 0
4, 20150, Note_off_c, 1, 28, 0
4, 20160, Note_on_c, 1, 45, 85
4, 20160, Note_on_c, 1, 33, 85
4, 20174, Note_off_c, 1, 45, 0
4, 20174, Note_off_c, 1, 33, 0
4, 20352, Note_on_c, 1, 43, 85
4, 20352, Note_on_c, 1, 31, 85
4, 20366, Note_off_c, 1, 43, 0
4, 20366, Note_off_c, 1, 31, 0
4, 20544, Note_on_c, 1, 41, 85
4, 20544, Note_on_c, 1, 29, 85
4, 20558, Note_off_c, 1, 41, 0
4, 20558, Note_off_c, 1, 29, 0
4, 20736, Note_on_c, 1, 38, 85
4, 20736, Note_on_c, 1, 26, 85
4, 20750, Note_off_c, 1, 38, 0
4, 20750, Note_off_c, 1, 26, 0
4, 20760, Note_on_c, 1, 38, 85
4, 20760, Note_on_c, 1, 26, 85
4, 20774, Note_off_c, 1, 38, 0
4, 20774, Note_off_c, 1, 26, 0
4, 20784, Note_on_c, 1, 38, 85
4, 20784, Note_on_c, 1, 26, 85
4, 20798, Note_off_c, 1, 38, 0
4, 20798, Note_off_c, 1, 26, 0
4, 20808, Note_on_c, 1, 38, 85
4, 20808, Note_on_c, 1, 26, 85
4, 20822, Note_off_c, 1, 38, 0
4, 20822, Note_off_c, 1, 26, 0
4, 20832, Note_on_c, 1, 40, 85
4, 20832, Note_on_c, 1, 28, 85
4, 20846, Note_off_c, 1, 40, 0
4, 20846, Note_off_c, 1, 28, 0
4, 20856, Note_on_c, 1, 40, 85
4, 20856, Note_on_c, 1, 28, 85
4, 20870, Note_off_c, 1, 40, 0
4, 20870, Note_off_c, 1, 28, 0
4, 20880, Note_on_c, 1, 40, 85
4, 20880, Note_on_c, 1, 28, 85
4, 20894, Note_off_c, 1, 40, 0
4, 20894, Note_off_c, 1, 28, 0
4, 20904, Note_on_c, 1, 40, 85
4, 20904, Note_on_c, 1, 28, 85
4, 20918, Note_off_c, 1, 40, 0
4, 20918, Note_off_c, 1, 28, 0
4, 20928, Note_on_c, 1, 45, 85
4, 20928, Note_on_c, 1, 33, 85
4, 20951, Note_off_c, 1, 45, 0
4, 20951, Note_off_c, 1, 33, 0
4, 21024, Note_on_c, 1, 81, 95
4, 21024, Note_on_c, 1, 69, 95
4, 21051, Note_off_c, 1, 81, 0
4, 21051, Note_off_c, 1, 69, 0
4, 21060, Note_on_c, 1, 88, 95
4, 21060, Note_on_c, 1, 76, 95
4, 21087, Note_off_c, 1, 88, 0
4, 21087, Note_off_c, 1, 76, 0
4, 21096, Note_on_c, 1, 84, 95
4, 21096, Note_on_c, 1, 72, 95
4, 21111, Note_off_c, 1, 84, 0
4, 21111, Note_off_c, 1, 72, 0
4, 21120, Note_on_c, 1, 83, 96
4, 21120, Note_on_c, 1, 71, 96
4, 21159, Note_off_c, 1, 83, 0
4, 21159, Note_off_c, 1, 71, 0
4, 21168, Note_on_c, 1, 81, 96
4, 21168, Note_on_c, 1, 69, 96
4, 21303, Note_off_c, 1, 81, 0
4, 21303, Note_off_c, 1, 69, 0
4, 21312, Note_on_c, 1, 43, 93
4, 21312, Note_on_c, 1, 31, 93
4, 21335, Note_off_c, 1, 43, 0
4, 21335, Note_off_c, 1, 31, 0
4, 21408, Note_on_c, 1, 81, 94
4, 21408, Note_on_c, 1, 69, 94
4, 21435, Note_off_c, 1, 81, 0
4, 21435, Note_off_c, 1, 69, 0
4, 21444, Note_on_c, 1, 84, 93
4, 21444, Note_on_c, 1, 72, 93
4, 21471, Note_off_c, 1, 84, 0
4, 21471, Note_off_c, 1, 72, 0
4, 21480, Note_on_c, 1, 89, 93
4, 21480, Note_on_c, 1, 77, 93
4, 21495, Note_off_c, 1, 89, 0
4, 21495, Note_off_c, 1, 77, 0
4, 21504, Note_on_c, 1, 88, 95
4, 21504, Note_on_c, 1, 76, 95
4, 21543, Note_off_c, 1, 88, 0
4, 21543, Note_off_c, 1, 76, 0
4, 21552, Note_on_c, 1, 86, 95
4, 21552, Note_on_c, 1, 74, 95
4, 21591, Note_off_c, 1, 86, 0
4, 21591, Note_off_c, 1, 74, 0
4, 21600, Note_on_c, 1, 84, 94
4, 21600, Note_on_c, 1, 72, 94
4, 21639, Note_off_c, 1, 84, 0
4, 21639, Note_off_c, 1, 72, 0
4, 21648, Note_on_c, 1, 83, 95
4, 21648, Note_on_c, 1, 71, 95
4, 21687, Note_off_c, 1, 83, 0
4, 21687, Note_off_c, 1, 71, 0
4, 21696, Note_on_c, 1, 38, 93
4, 21696, Note_on_c, 1, 26, 93
4, 21719, Note_off_c, 1, 38, 0
4, 21719, Note_off_c, 1, 26, 0
4, 21792, Note_on_c, 1, 81, 94
4, 21819, Note_off_c, 1, 81, 0
4, 21828, Note_on_c, 1, 86, 96
4, 21855, Note_off_c, 1, 86, 0
4, 21864, Note_on_c, 1, 88, 96
4, 21879, Note_off_c, 1, 88, 0
4, 21888, Note_on_c, 1, 84, 96
4, 21927, Note_off_c, 1, 84, 0
4, 21936, Note_on_c, 1, 83, 96
4, 21999, Note_off_c, 1, 83, 0
4, 22008, Note_on_c, 1, 81, 96
4, 22035, Note_off_c, 1, 81, 0
4, 22044, Note_on_c, 1, 83, 95
4, 22068, Note_off_c, 1, 83, 0
4, 22080, Note_on_c, 1, 29, 96
4, 22080, Note_on_c, 1, 41, 96
4, 22105, Note_off_c, 1, 41, 0
4, 22105, Note_off_c, 1, 29, 0
4, 22128, Note_on_c, 1, 84, 95
4, 22215, Note_off_c, 1, 84, 0
4, 22272, Note_on_c, 1, 29, 94
4, 22272, Note_on_c, 1, 41, 94
4, 22275, Note_off_c, 1, 29, 0
4, 22275, Note_off_c, 1, 41, 0
4, 22284, Note_on_c, 1, 41, 94
4, 22284, Note_on_c, 1, 29, 94
4, 22287, Note_off_c, 1, 41, 0
4, 22287, Note_off_c, 1, 29, 0
4, 22296, Note_on_c, 1, 29, 94
4, 22296, Note_on_c, 1, 41, 94
4, 22299, Note_off_c, 1, 29, 0
4, 22299, Note_off_c, 1, 41, 0
4, 22308, Note_on_c, 1, 29, 94
4, 22308, Note_on_c, 1, 41, 94
4, 22311, Note_off_c, 1, 29, 0
4, 22311, Note_off_c, 1, 41, 0
4, 22320, Note_on_c, 1, 41, 94
4, 22320, Note_on_c, 1, 29, 94
4, 22323, Note_off_c, 1, 41, 0
4, 22323, Note_off_c, 1, 29, 0
4, 22332, Note_on_c, 1, 41, 94
4, 22332, Note_on_c, 1, 29, 94
4, 22335, Note_off_c, 1, 41, 0
4, 22335, Note_off_c, 1, 29, 0
4, 22344, Note_on_c, 1, 41, 94
4, 22344, Note_on_c, 1, 29, 94
4, 22347, Note_off_c, 1, 41, 0
4, 22347, Note_off_c, 1, 29, 0
4, 22356, Note_on_c, 1, 29, 94
4, 22356, Note_on_c, 1, 41, 94
4, 22359, Note_off_c, 1, 29, 0
4, 22359, Note_off_c, 1, 41, 0
4, 22368, Note_on_c, 1, 29, 94
4, 22368, Note_on_c, 1, 41, 94
4, 22371, Note_off_c, 1, 29, 0
4, 22371, Note_off_c, 1, 41, 0
4, 22380, Note_on_c, 1, 41, 94
4, 22380, Note_on_c, 1, 29, 94
4, 22383, Note_off_c, 1, 41, 0
4, 22383, Note_off_c, 1, 29, 0
4, 22392, Note_on_c, 1, 29, 94
4, 22392, Note_on_c, 1, 41, 94
4, 22395, Note_off_c, 1, 29, 0
4, 22395, Note_off_c, 1, 41, 0
4, 22404, Note_on_c, 1, 41, 94
4, 22404, Note_on_c, 1, 29, 94
4, 22407, Note_off_c, 1, 41, 0
4, 22407, Note_off_c, 1, 29, 0
4, 22464, Note_on_c, 1, 33, 96
4, 22464, Note_on_c, 1, 21, 96
4, 22479, Note_off_c, 1, 33, 0
4, 22479, Note_off_c, 1, 21, 0
4, 22488, Note_on_c, 1, 33, 95
4, 22491, Note_off_c, 1, 33, 0
4, 22500, Note_on_c, 1, 40, 95
4, 22503, Note_off_c, 1, 40, 0
4, 22512, Note_on_c, 1, 45, 95
4, 22515, Note_off_c, 1, 45, 0
4, 22524, Note_on_c, 1, 40, 95
4, 22527, Note_off_c, 1, 40, 0
4, 22536, Note_on_c, 1, 33, 95
4, 22539, Note_off_c, 1, 33, 0
4, 22548, Note_on_c, 1, 40, 95
4, 22551, Note_off_c, 1, 40, 0
4, 22560, Note_on_c, 1, 45, 95
4, 22563, Note_off_c, 1, 45, 0
4, 22572, Note_on_c, 1, 40, 95
4, 22575, Note_off_c, 1, 40, 0
4, 22584, Note_on_c, 1, 33, 95
4, 22587, Note_off_c, 1, 33, 0
4, 22596, Note_on_c, 1, 40, 95
4, 22599, Note_off_c, 1, 40, 0
4, 22608, Note_on_c, 1, 45, 95
4, 22611, Note_off_c, 1, 45, 0
4, 22620, Note_on_c, 1, 40, 95
4, 22623, Note_off_c, 1, 40, 0
4, 22632, Note_on_c, 1, 33, 95
4, 22635, Note_off_c, 1, 33, 0
4, 22644, Note_on_c, 1, 40, 95
4, 22647, Note_off_c, 1, 40, 0
4, 22656, Note_on_c, 1, 26, 96
4, 22656, Note_on_c, 1, 38, 96
4, 22671, Note_off_c, 1, 26, 0
4, 22671, Note_off_c, 1, 38, 0
4, 22680, Note_on_c, 1, 38, 95
4, 22683, Note_off_c, 1, 38, 0
4, 22692, Note_on_c, 1, 45, 95
4, 22695, Note_off_c, 1, 45, 0
4, 22704, Note_on_c, 1, 50, 95
4, 22707, Note_off_c, 1, 50, 0
4, 22716, Note_on_c, 1, 45, 95
4, 22719, Note_off_c, 1, 45, 0
4, 22728, Note_on_c, 1, 38, 95
4, 22731, Note_off_c, 1, 38, 0
4, 22740, Note_on_c, 1, 45, 95
4, 22743, Note_off_c, 1, 45, 0
4, 22752, Note_on_c, 1, 50, 95
4, 22755, Note_off_c, 1, 50, 0
4, 22764, Note_on_c, 1, 45, 95
4, 22767, Note_off_c, 1, 45, 0
4, 22776, Note_on_c, 1, 38, 95
4, 22779, Note_off_c, 1, 38, 0
4, 22788, Note_on_c, 1, 45, 95
4, 22791, Note_off_c, 1, 45, 0
4, 22800, Note_on_c, 1, 50, 95
4, 22803, Note_off_c, 1, 50, 0
4, 22812, Note_on_c, 1, 45, 95
4, 22815, Note_off_c, 1, 45, 0
4, 22824, Note_on_c, 1, 38, 95
4, 22827, Note_off_c, 1, 38, 0
4, 22836, Note_on_c, 1, 45, 95
4, 22839, Note_off_c, 1, 45, 0
4, 22848, Note_on_c, 1, 40, 96
4, 22848, Note_on_c, 1, 28, 96
4, 22863, Note_off_c, 1, 40, 0
4, 22863, Note_off_c, 1, 28, 0
4, 22872, Note_on_c, 1, 40, 95
4, 22875, Note_off_c, 1, 40, 0
4, 22884, Note_on_c, 1, 47, 95
4, 22887, Note_off_c, 1, 47, 0
4, 22896, Note_on_c, 1, 52, 95
4, 22899, Note_off_c, 1, 52, 0
4, 22908, Note_on_c, 1, 47, 95
4, 22911, Note_off_c, 1, 47, 0
4, 22920, Note_on_c, 1, 40, 95
4, 22923, Note_off_c, 1, 40, 0
4, 22932, Note_on_c, 1, 47, 95
4, 22935, Note_off_c, 1, 47, 0
4, 22944, Note_on_c, 1, 52, 95
4, 22947, Note_off_c, 1, 52, 0
4, 22956, Note_on_c, 1, 47, 95
4, 22959, Note_off_c, 1, 47, 0
4, 22968, Note_on_c, 1, 40, 95
4, 22971, Note_off_c, 1, 40, 0
4, 22980, Note_on_c, 1, 47, 95
4, 22983, Note_off_c, 1, 47, 0
4, 22992, Note_on_c, 1, 52, 95
4, 22995, Note_off_c, 1, 52, 0
4, 23004, Note_on_c, 1, 47, 95
4, 23007, Note_off_c, 1, 47, 0
4, 23016, Note_on_c, 1, 40, 95
4, 23019, Note_off_c, 1, 40, 0
4, 23028, Note_on_c, 1, 47, 95
4, 23031, Note_off_c, 1, 47, 0
4, 23040, Note_on_c, 1, 29, 96
4, 23040, Note_on_c, 1, 41, 96
4, 23055, Note_off_c, 1, 29, 0
4, 23055, Note_off_c, 1, 41, 0
4, 23064, Note_on_c, 1, 41, 95
4, 23067, Note_off_c, 1, 41, 0
4, 23076, Note_on_c, 1, 48, 95
4, 23079, Note_off_c, 1, 48, 0
4, 23088, Note_on_c, 1, 53, 95
4, 23091, Note_off_c, 1, 53, 0
4, 23100, Note_on_c, 1, 48, 95
4, 23103, Note_off_c, 1, 48, 0
4, 23112, Note_on_c, 1, 41, 95
4, 23115, Note_off_c, 1, 41, 0
4, 23124, Note_on_c, 1, 48, 95
4, 23127, Note_off_c, 1, 48, 0
4, 23136, Note_on_c, 1, 31, 96
4, 23136, Note_on_c, 1, 43, 96
4, 23151, Note_off_c, 1, 31, 0
4, 23151, Note_off_c, 1, 43, 0
4, 23160, Note_on_c, 1, 43, 95
4, 23163, Note_off_c, 1, 43, 0
4, 23172, Note_on_c, 1, 50, 95
4, 23175, Note_off_c, 1, 50, 0
4, 23184, Note_on_c, 1, 55, 95
4, 23187, Note_off_c, 1, 55, 0
4, 23196, Note_on_c, 1, 50, 95
4, 23199, Note_off_c, 1, 50, 0
4, 23208, Note_on_c, 1, 43, 95
4, 23211, Note_off_c, 1, 43, 0
4, 23220, Note_on_c, 1, 50, 95
4, 23223, Note_off_c, 1, 50, 0
4, 23232, Note_on_c, 1, 45, 96
4, 23232, Note_on_c, 1, 33, 96
4, 23247, Note_off_c, 1, 45, 0
4, 23247, Note_off_c, 1, 33, 0
4, 23256, Note_on_c, 1, 45, 95
4, 23259, Note_off_c, 1, 45, 0
4, 23268, Note_on_c, 1, 52, 95
4, 23271, Note_off_c, 1, 52, 0
4, 23280, Note_on_c, 1, 57, 95
4, 23283, Note_off_c, 1, 57, 0
4, 23292, Note_on_c, 1, 52, 95
4, 23295, Note_off_c, 1, 52, 0
4, 23304, Note_on_c, 1, 45, 95
4, 23307, Note_off_c, 1, 45, 0
4, 23316, Note_on_c, 1, 52, 95
4, 23319, Note_off_c, 1, 52, 0
4, 23328, Note_on_c, 1, 57, 95
4, 23331, Note_off_c, 1, 57, 0
4, 23340, Note_on_c, 1, 52, 95
4, 23343, Note_off_c, 1, 52, 0
4, 23352, Note_on_c, 1, 45, 95
4, 23355, Note_off_c, 1, 45, 0
4, 23364, Note_on_c, 1, 52, 95
4, 23367, Note_off_c, 1, 52, 0
4, 23376, Note_on_c, 1, 57, 95
4, 23379, Note_off_c, 1, 57, 0
4, 23388, Note_on_c, 1, 52, 95
4, 23391, Note_off_c, 1, 52, 0
4, 23400, Note_on_c, 1, 45, 95
4, 23403, Note_off_c, 1, 45, 0
4, 23412, Note_on_c, 1, 52, 95
4, 23415, Note_off_c, 1, 52, 0
4, 23424, Note_on_c, 1, 38, 96
4, 23424, Note_on_c, 1, 26, 96
4, 23439, Note_off_c, 1, 38, 0
4, 23439, Note_off_c, 1, 26, 0
4, 23448, Note_on_c, 1, 38, 95
4, 23451, Note_off_c, 1, 38, 0
4, 23460, Note_on_c, 1, 45, 95
4, 23463, Note_off_c, 1, 45, 0
4, 23472, Note_on_c, 1, 50, 95
4, 23475, Note_off_c, 1, 50, 0
4, 23484, Note_on_c, 1, 45, 95
4, 23487, Note_off_c, 1, 45, 0
4, 23496, Note_on_c, 1, 38, 95
4, 23499, Note_off_c, 1, 38, 0
4, 23508, Note_on_c, 1, 45, 95
4, 23511, Note_off_c, 1, 45, 0
4, 23520, Note_on_c, 1, 50, 95
4, 23523, Note_off_c, 1, 50, 0
4, 23532, Note_on_c, 1, 45, 95
4, 23535, Note_off_c, 1, 45, 0
4, 23544, Note_on_c, 1, 38, 95
4, 23547, Note_off_c, 1, 38, 0
4, 23556, Note_on_c, 1, 45, 95
4, 23559, Note_off_c, 1, 45, 0
4, 23568, Note_on_c, 1, 50, 95
4, 23571, Note_off_c, 1, 50, 0
4, 23580, Note_on_c, 1, 45, 95
4, 23583, Note_off_c, 1, 45, 0
4, 23592, Note_on_c, 1, 38, 95
4, 23595, Note_off_c, 1, 38, 0
4, 23604, Note_on_c, 1, 45, 95
4, 23607, Note_off_c, 1, 45, 0
4, 23616, Note_on_c, 1, 40, 96
4, 23616, Note_on_c, 1, 28, 96
4, 23631, Note_off_c, 1, 40, 0
4, 23631, Note_off_c, 1, 28, 0
4, 23640, Note_on_c, 1, 40, 95
4, 23643, Note_off_c, 1, 40, 0
4, 23652, Note_on_c, 1, 47, 95
4, 23655, Note_off_c, 1, 47, 0
4, 23664, Note_on_c, 1, 52, 95
4, 23667, Note_off_c, 1, 52, 0
4, 23676, Note_on_c, 1, 47, 95
4, 23679, Note_off_c, 1, 47, 0
4, 23688, Note_on_c, 1, 40, 95
4, 23691, Note_off_c, 1, 40, 0
4, 23700, Note_on_c, 1, 47, 95
4, 23703, Note_off_c, 1, 47, 0
4, 23712, Note_on_c, 1, 41, 96
4, 23712, Note_on_c, 1, 29, 96
4, 23727, Note_off_c, 1, 41, 0
4, 23727, Note_off_c, 1, 29, 0
4, 23736, Note_on_c, 1, 41, 95
4, 23739, Note_off_c, 1, 41, 0
4, 23748, Note_on_c, 1, 48, 95
4, 23751, Note_off_c, 1, 48, 0
4, 23760, Note_on_c, 1, 53, 95
4, 23763, Note_off_c, 1, 53, 0
4, 23772, Note_on_c, 1, 48, 95
4, 23775, Note_off_c, 1, 48, 0
4, 23784, Note_on_c, 1, 41, 95
4, 23787, Note_off_c, 1, 41, 0
4, 23796, Note_on_c, 1, 48, 95
4, 23799, Note_off_c, 1, 48, 0
4, 23808, Note_on_c, 1, 33, 96
4, 23808, Note_on_c, 1, 45, 96
4, 23982, Note_off_c, 1, 33, 0
4, 23982, Note_off_c, 1, 45, 0
4, 24000, Note_on_c, 1, 45, 96
4, 24000, Note_on_c, 1, 33, 96
4, 24023, Note_off_c, 1, 45, 0
4, 24023, Note_off_c, 1, 33, 0
4, 24192, Note_on_c, 1, 33, 96
4, 24192, Note_on_c, 1, 45, 96
4, 24215, Note_off_c, 1, 33, 0
4, 24215, Note_off_c, 1, 45, 0
4, 24384, Note_on_c, 1, 40, 96
4, 24384, Note_on_c, 1, 28, 96
4, 24407, Note_off_c, 1, 28, 0
4, 24407, Note_off_c, 1, 40, 0
4, 24576, Note_on_c, 1, 29, 95
4, 24576, Note_on_c, 1, 41, 95
4, 24599, Note_off_c, 1, 29, 0
4, 24599, Note_off_c, 1, 41, 0
4, 24768, Note_on_c, 1, 31, 96
4, 24768, Note_on_c, 1, 43, 96
4, 24791, Note_off_c, 1, 43, 0
4, 24791, Note_off_c, 1, 31, 0
4, 24960, Note_on_c, 1, 48, 95
4, 24960, Note_on_c, 1, 36, 95
4, 24983, Note_off_c, 1, 48, 0
4, 24983, Note_off_c, 1, 36, 0
4, 25152, Note_on_c, 1, 29, 96
4, 25152, Note_on_c, 1, 41, 96
4, 25175, Note_off_c, 1, 29, 0
4, 25175, Note_off_c, 1, 41, 0
4, 25344, Note_on_c, 1, 26, 95
4, 25344, Note_on_c, 1, 38, 95
4, 25358, Note_off_c, 1, 26, 0
4, 25358, Note_off_c, 1, 38, 0
4, 25368, Note_on_c, 1, 38, 95
4, 25368, Note_on_c, 1, 26, 95
4, 25382, Note_off_c, 1, 38, 0
4, 25382, Note_off_c, 1, 26, 0
4, 25392, Note_on_c, 1, 26, 95
4, 25392, Note_on_c, 1, 38, 95
4, 25406, Note_off_c, 1, 26, 0
4, 25406, Note_off_c, 1, 38, 0
4, 25416, Note_on_c, 1, 38, 95
4, 25416, Note_on_c, 1, 26, 95
4, 25430, Note_off_c, 1, 38, 0
4, 25430, Note_off_c, 1, 26, 0
4, 25440, Note_on_c, 1, 28, 95
4, 25440, Note_on_c, 1, 40, 95
4, 25454, Note_off_c, 1, 28, 0
4, 25454, Note_off_c, 1, 40, 0
4, 25464, Note_on_c, 1, 40, 95
4, 25464, Note_on_c, 1, 28, 95
4, 25478, Note_off_c, 1, 40, 0
4, 25478, Note_off_c, 1, 28, 0
4, 25488, Note_on_c, 1, 28, 95
4, 25488, Note_on_c, 1, 40, 95
4, 25502, Note_off_c, 1, 28, 0
4, 25502, Note_off_c, 1, 40, 0
4, 25512, Note_on_c, 1, 40, 95
4, 25512, Note_on_c, 1, 28, 95
4, 25526, Note_off_c, 1, 40, 0
4, 25526, Note_off_c, 1, 28, 0
4, 25536, Note_on_c, 1, 21, 95
4, 25536, Note_on_c, 1, 33, 95
4, 25551, Note_off_c, 1, 21, 0
4, 25551, Note_off_c, 1, 33, 0
4, 25560, Note_on_c, 1, 33, 95
4, 25563, Note_off_c, 1, 33, 0
4, 25572, Note_on_c, 1, 40, 95
4, 25575, Note_off_c, 1, 40, 0
4, 25584, Note_on_c, 1, 45, 95
4, 25587, Note_off_c, 1, 45, 0
4, 25596, Note_on_c, 1, 40, 95
4, 25599, Note_off_c, 1, 40, 0
4, 25608, Note_on_c, 1, 33, 95
4, 25611, Note_off_c, 1, 33, 0
4, 25620, Note_on_c, 1, 40, 95
4, 25623, Note_off_c, 1, 40, 0
4, 25632, Note_on_c, 1, 45, 95
4, 25635, Note_off_c, 1, 45, 0
4, 25644, Note_on_c, 1, 40, 95
4, 25647, Note_off_c, 1, 40, 0
4, 25656, Note_on_c, 1, 33, 95
4, 25659, Note_off_c, 1, 33, 0
4, 25668, Note_on_c, 1, 40, 95
4, 25671, Note_off_c, 1, 40, 0
4, 25680, Note_on_c, 1, 45, 95
4, 25683, Note_off_c, 1, 45, 0
4, 25692, Note_on_c, 1, 40, 95
4, 25695, Note_off_c, 1, 40, 0
4, 25704, Note_on_c, 1, 33, 95
4, 25707, Note_off_c, 1, 33, 0
4, 25716, Note_on_c, 1, 40, 95
4, 25719, Note_off_c, 1, 40, 0
4, 25728, Note_on_c, 1, 26, 96
4, 25728, Note_on_c, 1, 38, 96
4, 25743, Note_off_c, 1, 26, 0
4, 25743, Note_off_c, 1, 38, 0
4, 25752, Note_on_c, 1, 38, 95
4, 25755, Note_off_c, 1, 38, 0
4, 25764, Note_on_c, 1, 45, 95
4, 25767, Note_off_c, 1, 45, 0
4, 25776, Note_on_c, 1, 50, 95
4, 25779, Note_off_c, 1, 50, 0
4, 25788, Note_on_c, 1, 45, 95
4, 25791, Note_off_c, 1, 45, 0
4, 25800, Note_on_c, 1, 38, 95
4, 25803, Note_off_c, 1, 38, 0
4, 25812, Note_on_c, 1, 45, 95
4, 25815, Note_off_c, 1, 45, 0
4, 25824, Note_on_c, 1, 50, 95
4, 25827, Note_off_c, 1, 50, 0
4, 25836, Note_on_c, 1, 45, 95
4, 25839, Note_off_c, 1, 45, 0
4, 25848, Note_on_c, 1, 38, 95
4, 25851, Note_off_c, 1, 38, 0
4, 25860, Note_on_c, 1, 45, 95
4, 25863, Note_off_c, 1, 45, 0
4, 25872, Note_on_c, 1, 50, 95
4, 25875, Note_off_c, 1, 50, 0
4, 25884, Note_on_c, 1, 45, 95
4, 25887, Note_off_c, 1, 45, 0
4, 25896, Note_on_c, 1, 38, 95
4, 25899, Note_off_c, 1, 38, 0
4, 25908, Note_on_c, 1, 45, 95
4, 25911, Note_off_c, 1, 45, 0
4, 25920, Note_on_c, 1, 28, 96
4, 25920, Note_on_c, 1, 40, 96
4, 25935, Note_off_c, 1, 28, 0
4, 25935, Note_off_c, 1, 40, 0
4, 25944, Note_on_c, 1, 40, 95
4, 25947, Note_off_c, 1, 40, 0
4, 25956, Note_on_c, 1, 47, 95
4, 25959, Note_off_c, 1, 47, 0
4, 25968, Note_on_c, 1, 52, 95
4, 25971, Note_off_c, 1, 52, 0
4, 25980, Note_on_c, 1, 47, 95
4, 25983, Note_off_c, 1, 47, 0
4, 25992, Note_on_c, 1, 40, 95
4, 25995, Note_off_c, 1, 40, 0
4, 26004, Note_on_c, 1, 47, 95
4, 26007, Note_off_c, 1, 47, 0
4, 26016, Note_on_c, 1, 52, 95
4, 26019, Note_off_c, 1, 52, 0
4, 26028, Note_on_c, 1, 47, 95
4, 26031, Note_off_c, 1, 47, 0
4, 26040, Note_on_c, 1, 40, 95
4, 26043, Note_off_c, 1, 40, 0
4, 26052, Note_on_c, 1, 47, 95
4, 26055, Note_off_c, 1, 47, 0
4, 26064, Note_on_c, 1, 52, 95
4, 26067, Note_off_c, 1, 52, 0
4, 26076, Note_on_c, 1, 47, 95
4, 26079, Note_off_c, 1, 47, 0
4, 26088, Note_on_c, 1, 40, 95
4, 26091, Note_off_c, 1, 40, 0
4, 26100, Note_on_c, 1, 47, 95
4, 26103, Note_off_c, 1, 47, 0
4, 26112, Note_on_c, 1, 41, 96
4, 26112, Note_on_c, 1, 29, 96
4, 26127, Note_off_c, 1, 41, 0
4, 26127, Note_off_c, 1, 29, 0
4, 26136, Note_on_c, 1, 41, 95
4, 26139, Note_off_c, 1, 41, 0
4, 26148, Note_on_c, 1, 48, 95
4, 26151, Note_off_c, 1, 48, 0
4, 26160, Note_on_c, 1, 53, 95
4, 26163, Note_off_c, 1, 53, 0
4, 26172, Note_on_c, 1, 48, 95
4, 26175, Note_off_c, 1, 48, 0
4, 26184, Note_on_c, 1, 41, 95
4, 26187, Note_off_c, 1, 41, 0
4, 26196, Note_on_c, 1, 48, 95
4, 26199, Note_off_c, 1, 48, 0
4, 26208, Note_on_c, 1, 31, 96
4, 26208, Note_on_c, 1, 43, 96
4, 26223, Note_off_c, 1, 31, 0
4, 26223, Note_off_c, 1, 43, 0
4, 26232, Note_on_c, 1, 43, 95
4, 26235, Note_off_c, 1, 43, 0
4, 26244, Note_on_c, 1, 50, 95
4, 26247, Note_off_c, 1, 50, 0
4, 26256, Note_on_c, 1, 55, 95
4, 26259, Note_off_c, 1, 55, 0
4, 26268, Note_on_c, 1, 50, 95
4, 26271, Note_off_c, 1, 50, 0
4, 26280, Note_on_c, 1, 43, 95
4, 26283, Note_off_c, 1, 43, 0
4, 26292, Note_on_c, 1, 50, 95
4, 26295, Note_off_c, 1, 50, 0
4, 26304, Note_on_c, 1, 45, 96
4, 26304, Note_on_c, 1, 33, 96
4, 26319, Note_off_c, 1, 45, 0
4, 26319, Note_off_c, 1, 33, 0
4, 26328, Note_on_c, 1, 45, 95
4, 26331, Note_off_c, 1, 45, 0
4, 26340, Note_on_c, 1, 52, 95
4, 26343, Note_off_c, 1, 52, 0
4, 26352, Note_on_c, 1, 57, 95
4, 26355, Note_off_c, 1, 57, 0
4, 26364, Note_on_c, 1, 52, 95
4, 26367, Note_off_c, 1, 52, 0
4, 26376, Note_on_c, 1, 45, 95
4, 26379, Note_off_c, 1, 45, 0
4, 26388, Note_on_c, 1, 52, 95
4, 26391, Note_off_c, 1, 52, 0
4, 26400, Note_on_c, 1, 57, 95
4, 26403, Note_off_c, 1, 57, 0
4, 26412, Note_on_c, 1, 52, 95
4, 26415, Note_off_c, 1, 52, 0
4, 26424, Note_on_c, 1, 45, 95
4, 26427, Note_off_c, 1, 45, 0
4, 26436, Note_on_c, 1, 52, 95
4, 26439, Note_off_c, 1, 52, 0
4, 26448, Note_on_c, 1, 57, 95
4, 26451, Note_off_c, 1, 57, 0
4, 26460, Note_on_c, 1, 52, 95
4, 26463, Note_off_c, 1, 52, 0
4, 26472, Note_on_c, 1, 45, 95
4, 26475, Note_off_c, 1, 45, 0
4, 26484, Note_on_c, 1, 52, 95
4, 26487, Note_off_c, 1, 52, 0
4, 26496, Note_on_c, 1, 26, 96
4, 26496, Note_on_c, 1, 38, 96
4, 26511, Note_off_c, 1, 26, 0
4, 26511, Note_off_c, 1, 38, 0
4, 26520, Note_on_c, 1, 38, 95
4, 26523, Note_off_c, 1, 38, 0
4, 26532, Note_on_c, 1, 45, 95
4, 26535, Note_off_c, 1, 45, 0
4, 26544, Note_on_c, 1, 50, 95
4, 26547, Note_off_c, 1, 50, 0
4, 26556, Note_on_c, 1, 45, 95
4, 26559, Note_off_c, 1, 45, 0
4, 26568, Note_on_c, 1, 38, 95
4, 26571, Note_off_c, 1, 38, 0
4, 26580, Note_on_c, 1, 45, 95
4, 26583, Note_off_c, 1, 45, 0
4, 26592, Note_on_c, 1, 50, 95
4, 26595, Note_off_c, 1, 50, 0
4, 26604, Note_on_c, 1, 45, 95
4, 26607, Note_off_c, 1, 45, 0
4, 26616, Note_on_c, 1, 38, 95
4, 26619, Note_off_c, 1, 38, 0
4, 26628, Note_on_c, 1, 45, 95
4, 26631, Note_off_c, 1, 45, 0
4, 26640, Note_on_c, 1, 50, 95
4, 26643, Note_off_c, 1, 50, 0
4, 26652, Note_on_c, 1, 45, 95
4, 26655, Note_off_c, 1, 45, 0
4, 26664, Note_on_c, 1, 38, 95
4, 26667, Note_off_c, 1, 38, 0
4, 26676, Note_on_c, 1, 45, 95
4, 26679, Note_off_c, 1, 45, 0
4, 26688, Note_on_c, 1, 28, 96
4, 26688, Note_on_c, 1, 40, 96
4, 26703, Note_off_c, 1, 28, 0
4, 26703, Note_off_c, 1, 40, 0
4, 26712, Note_on_c, 1, 40, 95
4, 26715, Note_off_c, 1, 40, 0
4, 26724, Note_on_c, 1, 47, 95
4, 26727, Note_off_c, 1, 47, 0
4, 26736, Note_on_c, 1, 52, 95
4, 26739, Note_off_c, 1, 52, 0
4, 26748, Note_on_c, 1, 47, 95
4, 26751, Note_off_c, 1, 47, 0
4, 26760, Note_on_c, 1, 40, 95
4, 26763, Note_off_c, 1, 40, 0
4, 26772, Note_on_c, 1, 47, 95
4, 26775, Note_off_c, 1, 47, 0
4, 26784, Note_on_c, 1, 41, 96
4, 26784, Note_on_c, 1, 29, 96
4, 26799, Note_off_c, 1, 41, 0
4, 26799, Note_off_c, 1, 29, 0
4, 26808, Note_on_c, 1, 41, 95
4, 26811, Note_off_c, 1, 41, 0
4, 26820, Note_on_c, 1, 48, 95
4, 26823, Note_off_c, 1, 48, 0
4, 26832, Note_on_c, 1, 53, 95
4, 26835, Note_off_c, 1, 53, 0
4, 26844, Note_on_c, 1, 48, 95
4, 26847, Note_off_c, 1, 48, 0
4, 26856, Note_on_c, 1, 41, 95
4, 26859, Note_off_c, 1, 41, 0
4, 26868, Note_on_c, 1, 48, 95
4, 26871, Note_off_c, 1, 48, 0
4, 26880, Note_on_c, 1, 29, 95
4, 26883, Note_off_c, 1, 29, 0
4, 26892, Note_on_c, 1, 36, 95
4, 26895, Note_off_c, 1, 36, 0
4, 26904, Note_on_c, 1, 41, 95
4, 26907, Note_off_c, 1, 41, 0
4, 26916, Note_on_c, 1, 48, 95
4, 26919, Note_off_c, 1, 48, 0
4, 26928, Note_on_c, 1, 53, 95
4, 26931, Note_off_c, 1, 53, 0
4, 27264, Note_on_c, 1, 57, 82
4, 27278, Note_off_c, 1, 57, 0
4, 27288, Note_on_c, 1, 64, 81
4, 27302, Note_off_c, 1, 64, 0
4, 27312, Note_on_c, 1, 69, 81
4, 27326, Note_off_c, 1, 69, 0
4, 27336, Note_on_c, 1, 64, 80
4, 27350, Note_off_c, 1, 64, 0
4, 27360, Note_on_c, 1, 72, 80
4, 27443, Note_off_c, 1, 72, 0
4, 27456, Note_on_c, 1, 62, 80
4, 27470, Note_off_c, 1, 62, 0
4, 27480, Note_on_c, 1, 69, 79
4, 27494, Note_off_c, 1, 69, 0
4, 27504, Note_on_c, 1, 74, 79
4, 27518, Note_off_c, 1, 74, 0
4, 27528, Note_on_c, 1, 69, 79
4, 27542, Note_off_c, 1, 69, 0
4, 27552, Note_on_c, 1, 77, 79
4, 27635, Note_off_c, 1, 77, 0
4, 27648, Note_on_c, 1, 52, 79
4, 27662, Note_off_c, 1, 52, 0
4, 27672, Note_on_c, 1, 59, 79
4, 27686, Note_off_c, 1, 59, 0
4, 27696, Note_on_c, 1, 64, 79
4, 27710, Note_off_c, 1, 64, 0
4, 27720, Note_on_c, 1, 59, 79
4, 27734, Note_off_c, 1, 59, 0
4, 27744, Note_on_c, 1, 68, 80
4, 27827, Note_off_c, 1, 68, 0
4, 27840, Note_on_c, 1, 53, 80
4, 27854, Note_off_c, 1, 53, 0
4, 27864, Note_on_c, 1, 60, 80
4, 27878, Note_off_c, 1, 60, 0
4, 27888, Note_on_c, 1, 65, 80
4, 27902, Note_off_c, 1, 65, 0
4, 27912, Note_on_c, 1, 60, 80
4, 27926, Note_off_c, 1, 60, 0
4, 27936, Note_on_c, 1, 69, 80
4, 28019, Note_off_c, 1, 69, 0
4, 28032, Note_on_c, 1, 57, 80
4, 28046, Note_off_c, 1, 57, 0
4, 28056, Note_on_c, 1, 64, 80
4, 28070, Note_off_c, 1, 64, 0
4, 28080, Note_on_c, 1, 69, 80
4, 28094, Note_off_c, 1, 69, 0
4, 28104, Note_on_c, 1, 64, 80
4, 28118, Note_off_c, 1, 64, 0
4, 28128, Note_on_c, 1, 72, 80
4, 28211, Note_off_c, 1, 72, 0
4, 28224, Note_on_c, 1, 62, 80
4, 28238, Note_off_c, 1, 62, 0
4, 28248, Note_on_c, 1, 69, 80
4, 28262, Note_off_c, 1, 69, 0
4, 28272, Note_on_c, 1, 74, 80
4, 28286, Note_off_c, 1, 74, 0
4, 28296, Note_on_c, 1, 69, 80
4, 28310, Note_off_c, 1, 69, 0
4, 28320, Note_on_c, 1, 77, 80
4, 28403, Note_off_c, 1, 77, 0
4, 28416, Note_on_c, 1, 59, 79
4, 28430, Note_off_c, 1, 59, 0
4, 28440, Note_on_c, 1, 65, 79
4, 28454, Note_off_c, 1, 65, 0
4, 28464, Note_on_c, 1, 69, 78
4, 28478, Note_off_c, 1, 69, 0
4, 28512, Note_on_c, 1, 52, 77
4, 28526, Note_off_c, 1, 52, 0
4, 28536, Note_on_c, 1, 59, 77
4, 28550, Note_off_c, 1, 59, 0
4, 28560, Note_on_c, 1, 68, 77
4, 28574, Note_off_c, 1, 68, 0
4, 28608, Note_on_c, 1, 53, 79
4, 28608, Note_on_c, 1, 60, 79
4, 28608, Note_on_c, 1, 65, 79
4, 28782, Note_off_c, 1, 53, 0
4, 28782, Note_off_c, 1, 60, 0
4, 28782, Note_off_c, 1, 65, 0
4, 28848, Control_c, 1, 101, 0
4, 28848, Control_c, 1, 100, 0
4, 28848, Control_c, 1, 6, 12
4, 28848, Control_c, 1, 10, 64
4, 28848, Control_c, 1, 7, 100
4, 28848, Pitch_bend_c, 1, 8192
4, 28848, Program_c, 1, 0
4, 28849, Control_c, 1, 101, 0
4, 28849, Control_c, 1, 100, 0
4, 28849, Control_c, 1, 6, 12
4, 28849, Control_c, 1, 10, 64
4, 28849, Control_c, 1, 7, 100
4, 28849, Pitch_bend_c, 1, 8192
4, 28849, Program_c, 1, 0
4, 28849, End_track
0, 0, End_of_file
